<?xml version="1.0" encoding="utf-8"?>
<!-- Generator: Adobe Illustrator 19.0.0, SVG Export Plug-In . SVG Version: 6.00 Build 0)  -->
<svg version="1.1" id="Layer_1" xmlns="http://www.w3.org/2000/svg" xmlns:xlink="http://www.w3.org/1999/xlink" x="0px" y="0px"
	 viewBox="0 0 125 125" style="enable-background:new 0 0 125 125;" xml:space="preserve">
<style type="text/css">
	.st0{fill:none;stroke:#000000;stroke-width:10;stroke-miterlimit:10;}
</style>
<g id="XMLID_2_">
	<g id="XMLID_7_">
		<path id="XMLID_10_" d="M4.3,44v37h76.3V44H4.3z M19.3,68.1c-3.1,0-5.6-2.5-5.6-5.6s2.5-5.6,5.6-5.6c3.1,0,5.6,2.5,5.6,5.6
			S22.4,68.1,19.3,68.1z M50,68.1c-3.1,0-5.6-2.5-5.6-5.6s2.5-5.6,5.6-5.6c3.1,0,5.6,2.5,5.6,5.6S53.1,68.1,50,68.1z"/>
		<rect id="XMLID_12_" x="103.4" y="44" width="17.3" height="37"/>
	</g>
	<rect id="XMLID_5_" x="74.9" y="44.8" class="st0" width="35.1" height="36.2"/>
	<rect id="XMLID_1_" x="94.5" y="57.1" width="14" height="11"/>
</g>
</svg>
