<?xml version="1.0" encoding="utf-8"?>
<!-- Generator: Adobe Illustrator 15.0.0, SVG Export Plug-In . SVG Version: 6.00 Build 0)  -->
<!DOCTYPE svg PUBLIC "-//W3C//DTD SVG 1.1//EN" "http://www.w3.org/Graphics/SVG/1.1/DTD/svg11.dtd">
<svg version="1.1" id="Layer_1" xmlns:sketch="http://www.bohemiancoding.com/sketch/ns"
	 xmlns="http://www.w3.org/2000/svg" xmlns:xlink="http://www.w3.org/1999/xlink" x="0px" y="0px" width="80px" height="16px"
	 viewBox="0 0 80 16" enable-background="new 0 0 80 16" xml:space="preserve">
<title></title>
<desc></desc>
<g id="slice" transform="translate(215.000000, 119.000000)">
</g>
<g>
	<path fill="#A83B8D" d="M15.937,14.383l-4.613-4.611c0.703-1.006,1.115-2.23,1.115-3.552C12.439,2.786,9.653,0,6.219,0
		S0,2.786,0,6.219c0,3.433,2.785,6.218,6.219,6.218c1.321,0,2.545-0.41,3.552-1.113l0,0l4.614,4.611
		c0.085,0.084,0.221,0.086,0.308,0l1.245-1.244C16.021,14.605,16.018,14.465,15.937,14.383z M6.219,10.975
		c-2.627,0-4.756-2.129-4.756-4.755c0-2.626,2.129-4.756,4.756-4.756c2.626,0,4.755,2.129,4.755,4.756
		C10.974,8.846,8.846,10.975,6.219,10.975z"/>
	<g>
		<path fill="#A83B8D" d="M28.527,13.025h-1.148c-0.131,0-0.238-0.031-0.322-0.098c-0.084-0.064-0.145-0.148-0.182-0.252
			l-0.889-2.33h-4.431l-0.889,2.33c-0.033,0.09-0.093,0.17-0.182,0.242c-0.088,0.072-0.196,0.107-0.322,0.107h-1.148l4.004-10.051
			h1.505L28.527,13.025z M25.58,9.281l-1.491-3.899c-0.107-0.266-0.215-0.602-0.322-1.008c-0.051,0.201-0.104,0.387-0.157,0.56
			c-0.054,0.172-0.106,0.327-0.157,0.462l-1.484,3.885H25.58z"/>
		<path fill="#A83B8D" d="M40.348,2.976v10.052h-1.3V5.874c0-0.107,0.004-0.222,0.01-0.343c0.008-0.121,0.016-0.245,0.025-0.371
			l-3.346,6.139c-0.117,0.229-0.297,0.342-0.539,0.342h-0.21c-0.243,0-0.42-0.113-0.532-0.342l-3.409-6.16
			c0.028,0.262,0.042,0.506,0.042,0.735v7.154H29.78V2.976h1.105c0.131,0,0.232,0.013,0.305,0.038
			c0.072,0.026,0.142,0.097,0.207,0.214l3.359,6.021c0.065,0.121,0.126,0.25,0.183,0.385c0.056,0.135,0.109,0.27,0.16,0.406
			c0.099-0.275,0.213-0.543,0.344-0.799l3.296-6.013C38.8,3.11,38.866,3.04,38.938,3.014c0.072-0.025,0.174-0.038,0.305-0.038
			H40.348z"/>
		<path fill="#A83B8D" d="M45.879,2.976c0.645,0,1.203,0.074,1.682,0.224c0.477,0.15,0.867,0.361,1.184,0.634
			c0.311,0.273,0.543,0.603,0.695,0.99c0.15,0.388,0.229,0.817,0.229,1.288c0,0.471-0.082,0.905-0.246,1.298
			c-0.164,0.396-0.404,0.733-0.721,1.019c-0.318,0.285-0.713,0.505-1.188,0.662s-1.02,0.234-1.635,0.234h-1.555v3.703h-1.49V2.976
			H45.879z M45.879,8.147c0.377,0,0.709-0.049,0.996-0.146s0.527-0.236,0.723-0.417c0.193-0.181,0.34-0.396,0.439-0.644
			c0.098-0.25,0.145-0.526,0.145-0.831c0-0.611-0.189-1.092-0.568-1.442c-0.381-0.35-0.959-0.525-1.732-0.525h-1.557v4.004H45.879
			L45.879,8.147z"/>
		<path fill="#A83B8D" d="M57.057,11.773v1.252h-5.754V2.976h1.492v8.798H57.057L57.057,11.773z"/>
		<path fill="#A83B8D" d="M60.012,13.025h-1.498V2.976h1.498V13.025z"/>
		<path fill="#A83B8D" d="M70.777,13.025h-1.148c-0.131,0-0.238-0.031-0.322-0.098c-0.084-0.064-0.145-0.148-0.182-0.252
			l-0.889-2.33h-4.432l-0.889,2.33c-0.033,0.09-0.094,0.17-0.182,0.242c-0.088,0.074-0.195,0.107-0.322,0.107h-1.148L65.27,2.975
			h1.506L70.777,13.025z M67.83,9.281l-1.49-3.899c-0.105-0.266-0.215-0.602-0.32-1.008c-0.053,0.201-0.105,0.387-0.158,0.56
			c-0.055,0.172-0.105,0.327-0.156,0.462l-1.484,3.885H67.83z"/>
		<path fill="#A83B8D" d="M79.568,13.025h-1.33c-0.266,0-0.459-0.104-0.58-0.314l-2.486-3.486c-0.078-0.117-0.166-0.199-0.258-0.248
			c-0.094-0.049-0.234-0.074-0.42-0.074h-0.973v4.123h-1.492V2.976h2.898c0.648,0,1.207,0.066,1.676,0.199
			c0.469,0.133,0.857,0.322,1.162,0.567c0.307,0.245,0.533,0.541,0.68,0.886c0.146,0.345,0.221,0.732,0.221,1.162
			c0,0.35-0.055,0.679-0.162,0.986c-0.105,0.309-0.264,0.584-0.473,0.83c-0.207,0.246-0.461,0.457-0.758,0.634
			c-0.299,0.178-0.639,0.313-1.016,0.405c0.186,0.113,0.348,0.27,0.482,0.471L79.568,13.025z M74.879,7.819
			c0.383,0,0.719-0.047,1.012-0.141c0.291-0.093,0.535-0.225,0.73-0.396c0.197-0.171,0.344-0.373,0.441-0.609
			c0.098-0.235,0.146-0.496,0.146-0.78c0-0.579-0.189-1.015-0.57-1.309s-0.951-0.441-1.711-0.441h-1.406v3.675H74.879z"/>
	</g>
</g>
</svg>
