<?xml version="1.0" encoding="utf-8"?>
<!-- Generator: Adobe Illustrator 15.0.0, SVG Export Plug-In . SVG Version: 6.00 Build 0)  -->
<!DOCTYPE svg PUBLIC "-//W3C//DTD SVG 1.1//EN" "http://www.w3.org/Graphics/SVG/1.1/DTD/svg11.dtd">
<svg version="1.1" id="Layer_1" xmlns="http://www.w3.org/2000/svg" xmlns:xlink="http://www.w3.org/1999/xlink" x="0px" y="0px"
	 width="200px" height="50px" viewBox="0 0 200 50" enable-background="new 0 0 200 50" xml:space="preserve">
<g>
	<path fill="#858585" d="M200,45c0,2.762-2.238,5-5,5H5c-2.761,0-5-2.238-5-5V5c0-2.762,2.239-5,5-5h190c2.762,0,5,2.238,5,5V45z"/>
	<g>
		<g>
			<defs>
				<rect id="SVGID_1_" width="35.835" height="50"/>
			</defs>
			<clipPath id="SVGID_2_">
				<use xlink:href="#SVGID_1_"  overflow="visible"/>
			</clipPath>
			<path clip-path="url(#SVGID_2_)" fill="#5F5F5F" d="M200,45c0,2.762-2.238,5-5,5H5c-2.761,0-5-2.238-5-5V5c0-2.762,2.239-5,5-5
				h190c2.762,0,5,2.238,5,5V45z"/>
		</g>
	</g>
	<path fill="#858585" d="M17.429,10.405c-7.881-0.067-14.324,6.268-14.39,14.15c-0.066,7.88,6.268,14.323,14.148,14.39
		c7.881,0.064,14.324-6.266,14.392-14.147C31.646,16.916,25.31,10.472,17.429,10.405z M17.205,36.93
		c-6.768-0.059-12.206-5.592-12.148-12.355c0.058-6.766,5.59-12.206,12.355-12.148c6.768,0.058,12.207,5.59,12.148,12.357
		C29.503,31.546,23.97,36.984,17.205,36.93z"/>
	<circle fill="#858585" cx="17.308" cy="24.676" r="11.039"/>
	<polygon fill="#5F5F5F" points="23.919,27.932 20.564,31.285 17.308,28.032 14.052,31.285 10.697,27.932 13.953,24.676 
		10.697,21.42 14.052,18.064 17.308,21.32 20.564,18.064 23.919,21.42 20.664,24.676 	"/>
</g>
<g enable-background="new    ">
	<path fill="#FFFFFF" d="M66.795,13.25v4.069h5.135v2.101h-5.135v4.152h6.516v2.182h-9.256V11.077h9.256v2.172H66.795z"/>
	<path fill="#FFFFFF" d="M83.541,13.746c-0.08,0.143-0.167,0.246-0.259,0.311c-0.091,0.064-0.204,0.096-0.339,0.096
		c-0.143,0-0.296-0.053-0.461-0.158c-0.167-0.104-0.365-0.222-0.595-0.35c-0.23-0.128-0.499-0.245-0.808-0.35
		c-0.308-0.105-0.67-0.158-1.09-0.158c-0.378,0-0.711,0.046-0.995,0.136c-0.284,0.092-0.523,0.22-0.716,0.381
		c-0.192,0.162-0.337,0.357-0.431,0.583c-0.095,0.227-0.142,0.475-0.142,0.746c0,0.345,0.096,0.633,0.289,0.864
		c0.194,0.229,0.449,0.425,0.768,0.588c0.318,0.163,0.68,0.309,1.085,0.436c0.406,0.128,0.822,0.266,1.25,0.412
		c0.425,0.145,0.842,0.314,1.248,0.508c0.405,0.192,0.769,0.436,1.085,0.729c0.318,0.295,0.573,0.656,0.767,1.082
		c0.192,0.426,0.29,0.944,0.29,1.553c0,0.664-0.115,1.284-0.341,1.862c-0.226,0.579-0.558,1.083-0.995,1.513
		c-0.435,0.43-0.969,0.769-1.599,1.016c-0.628,0.245-1.349,0.37-2.162,0.37c-0.467,0-0.927-0.045-1.38-0.136
		c-0.452-0.093-0.888-0.223-1.304-0.391c-0.417-0.168-0.807-0.373-1.171-0.61c-0.367-0.236-0.69-0.5-0.975-0.791l0.803-1.31
		c0.068-0.095,0.155-0.174,0.264-0.239c0.108-0.064,0.225-0.097,0.345-0.097c0.17,0,0.353,0.071,0.548,0.209
		c0.196,0.139,0.428,0.293,0.701,0.462c0.271,0.169,0.586,0.323,0.948,0.462c0.363,0.139,0.797,0.208,1.305,0.208
		c0.777,0,1.38-0.184,1.807-0.552c0.426-0.37,0.64-0.899,0.64-1.588c0-0.386-0.097-0.701-0.29-0.944
		c-0.192-0.244-0.448-0.448-0.767-0.614c-0.317-0.166-0.68-0.307-1.085-0.421c-0.407-0.116-0.819-0.24-1.238-0.375
		c-0.42-0.135-0.833-0.299-1.238-0.488c-0.406-0.189-0.768-0.437-1.085-0.741c-0.318-0.305-0.573-0.685-0.767-1.142
		c-0.194-0.458-0.29-1.02-0.29-1.689c0-0.534,0.106-1.056,0.32-1.564s0.523-0.958,0.928-1.35c0.406-0.393,0.908-0.707,1.502-0.945
		c0.596-0.236,1.278-0.355,2.051-0.355c0.866,0,1.665,0.136,2.395,0.407c0.729,0.271,1.354,0.649,1.867,1.136L83.541,13.746z"/>
	<path fill="#FFFFFF" d="M98.958,18.396v5.938c-0.744,0.548-1.537,0.949-2.38,1.203c-0.841,0.253-1.744,0.38-2.704,0.38
		c-1.199,0-2.282-0.186-3.253-0.558c-0.971-0.373-1.801-0.89-2.488-1.553c-0.687-0.664-1.217-1.456-1.588-2.375
		c-0.372-0.92-0.558-1.925-0.558-3.014c0-1.104,0.179-2.115,0.538-3.034c0.358-0.92,0.868-1.712,1.527-2.375
		c0.66-0.662,1.461-1.177,2.4-1.542c0.941-0.366,1.997-0.548,3.167-0.548c0.596,0,1.153,0.047,1.669,0.142
		c0.519,0.095,0.999,0.225,1.441,0.391c0.443,0.166,0.847,0.368,1.213,0.604c0.367,0.237,0.699,0.497,1.005,0.781l-0.78,1.238
		c-0.125,0.196-0.279,0.316-0.474,0.361c-0.196,0.043-0.412-0.006-0.641-0.148c-0.225-0.127-0.447-0.256-0.671-0.385
		c-0.223-0.127-0.471-0.239-0.745-0.334c-0.274-0.095-0.582-0.172-0.923-0.233c-0.342-0.061-0.735-0.091-1.182-0.091
		c-0.723,0-1.379,0.122-1.965,0.366c-0.586,0.244-1.084,0.592-1.497,1.046c-0.413,0.454-0.73,0.998-0.955,1.633
		c-0.223,0.637-0.334,1.347-0.334,2.131c0,0.84,0.121,1.588,0.36,2.249c0.24,0.66,0.578,1.218,1.016,1.674
		c0.436,0.457,0.962,0.806,1.577,1.046c0.615,0.239,1.303,0.36,2.061,0.36c0.541,0,1.024-0.059,1.453-0.173
		c0.425-0.116,0.841-0.271,1.248-0.468v-2.659h-1.847c-0.175,0-0.313-0.049-0.411-0.147c-0.099-0.098-0.148-0.22-0.148-0.361v-1.543
		H98.958z"/>
	<path fill="#FFFFFF" d="M115.593,18.416c0,1.076-0.175,2.072-0.531,2.989c-0.356,0.918-0.859,1.711-1.509,2.38
		c-0.648,0.671-1.431,1.193-2.345,1.568c-0.913,0.375-1.929,0.563-3.044,0.563c-1.112,0-2.122-0.188-3.035-0.563
		c-0.914-0.375-1.696-0.897-2.349-1.568c-0.653-0.669-1.159-1.463-1.519-2.38c-0.357-0.917-0.537-1.913-0.537-2.989
		s0.179-2.072,0.537-2.989c0.359-0.918,0.865-1.711,1.519-2.38c0.652-0.671,1.435-1.193,2.349-1.568
		c0.913-0.375,1.923-0.564,3.035-0.564c0.744,0,1.444,0.086,2.101,0.259c0.656,0.173,1.258,0.417,1.807,0.73
		c0.548,0.315,1.04,0.697,1.477,1.147c0.436,0.45,0.807,0.953,1.112,1.507c0.303,0.555,0.536,1.159,0.694,1.808
		C115.514,17.016,115.593,17.698,115.593,18.416z M112.802,18.416c0-0.805-0.108-1.527-0.324-2.166
		c-0.217-0.64-0.522-1.182-0.921-1.629c-0.4-0.446-0.885-0.788-1.457-1.024c-0.573-0.236-1.219-0.356-1.934-0.356
		c-0.714,0-1.363,0.12-1.935,0.356s-1.059,0.578-1.459,1.024c-0.406,0.447-0.717,0.989-0.931,1.629
		c-0.217,0.639-0.322,1.362-0.322,2.166c0,0.806,0.107,1.527,0.322,2.166c0.219,0.64,0.524,1.181,0.931,1.624
		c0.4,0.443,0.886,0.784,1.459,1.02c0.571,0.237,1.221,0.355,1.935,0.355c0.715,0,1.363-0.118,1.934-0.355
		c0.572-0.236,1.057-0.577,1.457-1.02c0.398-0.443,0.708-0.983,0.921-1.624C112.693,19.943,112.802,19.221,112.802,18.416z"/>
	<path fill="#FFFFFF" d="M127.753,13.321h-4.427v12.433h-2.729V13.321h-4.425v-2.244h11.581V13.321z"/>
	<path fill="#FFFFFF" d="M140.825,25.754h-2.11c-0.239,0-0.431-0.061-0.579-0.177c-0.149-0.12-0.262-0.267-0.336-0.442l-1.097-2.994
		h-6.08l-1.095,2.994c-0.055,0.157-0.159,0.298-0.315,0.427c-0.154,0.128-0.348,0.192-0.578,0.192h-2.13l5.774-14.677h2.78
		L140.825,25.754z M136.005,20.212l-1.787-4.882c-0.089-0.218-0.179-0.473-0.274-0.771c-0.094-0.297-0.189-0.619-0.283-0.964
		c-0.088,0.345-0.177,0.669-0.272,0.97c-0.097,0.301-0.188,0.563-0.273,0.786l-1.774,4.862H136.005z"/>
	<path fill="#FFFFFF" d="M155.38,18.416c0,1.076-0.18,2.064-0.538,2.964c-0.358,0.898-0.863,1.674-1.513,2.323
		c-0.65,0.65-1.431,1.154-2.346,1.513c-0.911,0.359-1.927,0.538-3.044,0.538h-5.594V11.077h5.594c1.117,0,2.133,0.181,3.044,0.543
		c0.915,0.362,1.695,0.867,2.346,1.513c0.649,0.646,1.154,1.418,1.513,2.317C155.2,16.352,155.38,17.339,155.38,18.416z
		 M152.579,18.416c0-0.805-0.107-1.527-0.322-2.166c-0.214-0.64-0.521-1.181-0.924-1.624c-0.4-0.443-0.889-0.784-1.46-1.02
		c-0.572-0.237-1.22-0.355-1.934-0.355h-2.854v10.331h2.854c0.717,0,1.362-0.118,1.934-0.354c0.57-0.236,1.06-0.577,1.46-1.02
		c0.404-0.443,0.712-0.984,0.924-1.624C152.472,19.943,152.579,19.221,152.579,18.416z"/>
	<path fill="#FFFFFF" d="M171.78,18.416c0,1.076-0.177,2.072-0.532,2.989c-0.354,0.918-0.858,1.711-1.507,2.38
		c-0.65,0.671-1.432,1.193-2.346,1.568c-0.915,0.375-1.927,0.563-3.044,0.563c-1.112,0-2.122-0.188-3.034-0.563
		c-0.917-0.375-1.699-0.897-2.354-1.568c-0.653-0.669-1.158-1.463-1.519-2.38c-0.358-0.917-0.535-1.913-0.535-2.989
		s0.177-2.072,0.535-2.989c0.36-0.918,0.865-1.711,1.519-2.38c0.654-0.671,1.437-1.193,2.354-1.568
		c0.912-0.375,1.922-0.564,3.034-0.564c0.741,0,1.443,0.086,2.102,0.259c0.655,0.173,1.258,0.417,1.807,0.73
		c0.548,0.315,1.04,0.697,1.477,1.147c0.437,0.45,0.807,0.953,1.11,1.507c0.306,0.555,0.537,1.159,0.695,1.808
		C171.702,17.016,171.78,17.698,171.78,18.416z M168.99,18.416c0-0.805-0.109-1.527-0.325-2.166
		c-0.215-0.64-0.524-1.182-0.923-1.629c-0.4-0.446-0.886-0.788-1.457-1.024s-1.217-0.356-1.934-0.356
		c-0.718,0-1.361,0.12-1.933,0.356c-0.57,0.236-1.059,0.578-1.463,1.024c-0.403,0.447-0.712,0.989-0.928,1.629
		c-0.217,0.639-0.323,1.362-0.323,2.166c0,0.806,0.107,1.527,0.323,2.166c0.219,0.64,0.524,1.181,0.928,1.624
		c0.404,0.443,0.891,0.784,1.463,1.02c0.572,0.237,1.217,0.355,1.933,0.355c0.72,0,1.362-0.118,1.934-0.355
		c0.571-0.236,1.057-0.577,1.457-1.02c0.398-0.443,0.708-0.983,0.923-1.624C168.881,19.943,168.99,19.221,168.99,18.416z"/>
</g>
<g>
	<path fill="#FFFFFF" d="M49.04,37.176l-0.8-2.043h-2.575l-0.791,2.043h-0.756l2.54-6.451h0.628l2.527,6.451H49.04z M48.006,34.46
		l-0.747-1.991c-0.097-0.251-0.196-0.561-0.299-0.927c-0.064,0.281-0.156,0.591-0.276,0.927l-0.756,1.991H48.006z"/>
	<path fill="#FFFFFF" d="M51.641,37.176l-1.828-4.816h0.782l1.037,2.856c0.234,0.668,0.372,1.103,0.413,1.302h0.035
		c0.032-0.156,0.134-0.478,0.306-0.966c0.171-0.487,0.556-1.552,1.153-3.192h0.782l-1.828,4.816H51.641z"/>
	<path fill="#FFFFFF" d="M55.034,31.055c0-0.168,0.041-0.289,0.123-0.367c0.082-0.078,0.185-0.117,0.308-0.117
		c0.117,0,0.218,0.041,0.303,0.119c0.085,0.08,0.128,0.201,0.128,0.365s-0.043,0.286-0.128,0.366
		c-0.085,0.081-0.186,0.121-0.303,0.121c-0.123,0-0.226-0.04-0.308-0.121C55.075,31.341,55.034,31.219,55.034,31.055z
		 M55.825,37.176h-0.729v-4.816h0.729V37.176z"/>
	<path fill="#FFFFFF" d="M60.478,35.861c0,0.449-0.167,0.795-0.501,1.037c-0.334,0.244-0.803,0.365-1.406,0.365
		c-0.639,0-1.137-0.104-1.494-0.305v-0.678c0.231,0.117,0.479,0.21,0.745,0.275c0.265,0.067,0.521,0.104,0.767,0.104
		c0.381,0,0.674-0.062,0.879-0.184c0.205-0.123,0.308-0.308,0.308-0.557c0-0.188-0.081-0.35-0.243-0.48
		c-0.163-0.135-0.48-0.291-0.952-0.474c-0.448-0.167-0.767-0.312-0.955-0.438c-0.189-0.123-0.33-0.266-0.422-0.424
		c-0.093-0.156-0.139-0.347-0.139-0.565c0-0.394,0.159-0.702,0.479-0.931c0.319-0.228,0.758-0.34,1.314-0.34
		c0.519,0,1.025,0.104,1.521,0.315l-0.26,0.595c-0.483-0.199-0.921-0.3-1.313-0.3c-0.346,0-0.606,0.054-0.782,0.162
		c-0.176,0.11-0.264,0.26-0.264,0.45c0,0.129,0.033,0.238,0.099,0.328c0.066,0.093,0.172,0.179,0.318,0.261
		c0.146,0.082,0.428,0.2,0.844,0.354c0.571,0.209,0.957,0.418,1.158,0.629C60.377,35.277,60.478,35.543,60.478,35.861z"/>
	<path fill="#FFFFFF" d="M63.7,37.264c-0.712,0-1.274-0.217-1.686-0.648c-0.412-0.436-0.617-1.035-0.617-1.809
		s0.19-1.393,0.573-1.85c0.382-0.457,0.896-0.686,1.54-0.686c0.604,0,1.081,0.196,1.433,0.596c0.352,0.396,0.527,0.92,0.527,1.57
		v0.461h-3.317c0.015,0.564,0.157,0.996,0.428,1.289s0.653,0.438,1.146,0.438c0.519,0,1.031-0.107,1.538-0.326v0.65
		c-0.258,0.111-0.502,0.189-0.732,0.238C64.302,37.239,64.025,37.264,63.7,37.264z M63.501,32.883c-0.387,0-0.695,0.126-0.925,0.377
		c-0.23,0.254-0.365,0.602-0.406,1.047h2.518c0-0.459-0.103-0.812-0.308-1.058C64.175,33.005,63.882,32.883,63.501,32.883z"/>
	<path fill="#FFFFFF" d="M66.31,35.098V34.43h2.157v0.668H66.31z"/>
	<path fill="#FFFFFF" d="M75.75,37.176v-3.133c0-0.384-0.082-0.672-0.246-0.863c-0.164-0.19-0.419-0.289-0.765-0.289
		c-0.454,0-0.79,0.131-1.007,0.394c-0.217,0.261-0.325,0.661-0.325,1.202v2.689h-0.729v-3.133c0-0.384-0.082-0.672-0.246-0.863
		c-0.164-0.19-0.42-0.289-0.769-0.289c-0.457,0-0.792,0.139-1.005,0.411c-0.212,0.274-0.318,0.724-0.318,1.347v2.527h-0.73v-4.816
		h0.594l0.118,0.66h0.035c0.138-0.233,0.332-0.418,0.582-0.551c0.251-0.131,0.531-0.197,0.842-0.197
		c0.753,0,1.245,0.272,1.477,0.817h0.035c0.144-0.252,0.352-0.45,0.624-0.598c0.272-0.148,0.583-0.22,0.932-0.22
		c0.545,0,0.953,0.14,1.224,0.42c0.271,0.279,0.407,0.727,0.407,1.342v3.143H75.75z"/>
	<path fill="#FFFFFF" d="M80.016,37.264c-0.712,0-1.273-0.217-1.685-0.648c-0.412-0.436-0.618-1.035-0.618-1.809
		s0.191-1.393,0.574-1.85c0.382-0.457,0.896-0.686,1.54-0.686c0.604,0,1.081,0.196,1.433,0.596c0.352,0.396,0.527,0.92,0.527,1.57
		v0.461h-3.318c0.015,0.564,0.157,0.996,0.429,1.289c0.271,0.293,0.652,0.438,1.145,0.438c0.519,0,1.031-0.107,1.538-0.326v0.65
		c-0.258,0.111-0.502,0.189-0.731,0.238C80.619,37.239,80.341,37.264,80.016,37.264z M79.819,32.883
		c-0.387,0-0.695,0.126-0.925,0.377c-0.23,0.254-0.366,0.602-0.407,1.047h2.519c0-0.459-0.103-0.812-0.308-1.058
		C80.493,33.005,80.2,32.883,79.819,32.883z"/>
	<path fill="#FFFFFF" d="M87.079,37.264c-0.621,0-1.106-0.218-1.455-0.654c-0.349-0.436-0.522-1.047-0.522-1.826
		c0-0.788,0.176-1.403,0.527-1.848c0.351-0.441,0.841-0.664,1.468-0.664c0.659,0,1.166,0.25,1.521,0.748h0.039l0.105-0.66h0.576
		v6.979h-0.729v-2.062c0-0.293,0.016-0.541,0.048-0.748H88.6C88.262,37.02,87.755,37.264,87.079,37.264z M87.188,36.652
		c0.486,0,0.841-0.131,1.063-0.393c0.222-0.261,0.342-0.699,0.356-1.316v-0.162c0-0.674-0.114-1.159-0.343-1.455
		c-0.229-0.297-0.591-0.443-1.086-0.443c-0.428,0-0.755,0.166-0.982,0.498c-0.227,0.333-0.34,0.803-0.34,1.408
		c0,0.607,0.111,1.068,0.336,1.387C86.417,36.495,86.749,36.652,87.188,36.652z"/>
	<path fill="#FFFFFF" d="M91.57,32.359v3.125c0,0.393,0.089,0.686,0.268,0.879c0.179,0.193,0.459,0.289,0.84,0.289
		c0.504,0,0.872-0.137,1.105-0.412c0.232-0.275,0.349-0.727,0.349-1.35v-2.531h0.729v4.814h-0.602l-0.105-0.646h-0.04
		c-0.149,0.238-0.356,0.421-0.621,0.546c-0.266,0.126-0.568,0.188-0.908,0.188c-0.586,0-1.024-0.14-1.315-0.418
		c-0.292-0.277-0.438-0.724-0.438-1.337v-3.149h0.738V32.359z"/>
	<path fill="#FFFFFF" d="M99.37,37.176l-0.145-0.686H99.19c-0.24,0.302-0.48,0.506-0.719,0.613c-0.239,0.104-0.537,0.16-0.895,0.16
		c-0.478,0-0.852-0.123-1.123-0.369s-0.406-0.598-0.406-1.053c0-0.972,0.778-1.48,2.334-1.527l0.817-0.025V33.99
		c0-0.379-0.082-0.657-0.244-0.838c-0.163-0.18-0.423-0.271-0.78-0.271c-0.401,0-0.855,0.123-1.362,0.369l-0.224-0.561
		c0.237-0.129,0.497-0.229,0.779-0.303c0.283-0.072,0.566-0.109,0.851-0.109c0.574,0,1,0.129,1.276,0.383
		c0.277,0.256,0.416,0.664,0.416,1.229v3.285L99.37,37.176L99.37,37.176z M97.722,36.662c0.454,0,0.811-0.125,1.069-0.374
		c0.26-0.249,0.39-0.599,0.39-1.046v-0.436l-0.729,0.029c-0.58,0.021-0.999,0.109-1.255,0.271c-0.257,0.16-0.385,0.408-0.385,0.746
		c0,0.264,0.08,0.463,0.239,0.602C97.211,36.593,97.435,36.662,97.722,36.662z"/>
	<path fill="#FFFFFF" d="M104.709,37.176v-3.115c0-0.393-0.09-0.686-0.268-0.879c-0.182-0.193-0.459-0.291-0.84-0.291
		c-0.504,0-0.873,0.137-1.107,0.409s-0.352,0.724-0.352,1.349v2.527h-0.729v-4.816h0.594l0.117,0.66h0.035
		c0.149-0.236,0.358-0.422,0.629-0.553c0.271-0.13,0.569-0.195,0.899-0.195c0.58,0,1.019,0.142,1.312,0.42
		c0.293,0.279,0.438,0.729,0.438,1.344v3.143L104.709,37.176L104.709,37.176z"/>
	<path fill="#FFFFFF" d="M110.215,36.529h-0.039c-0.338,0.49-0.842,0.734-1.512,0.734c-0.631,0-1.119-0.217-1.471-0.646
		s-0.523-1.042-0.523-1.836c0-0.795,0.176-1.411,0.527-1.852c0.351-0.439,0.84-0.658,1.467-0.658c0.652,0,1.154,0.235,1.504,0.711
		h0.057l-0.031-0.348l-0.018-0.339v-1.96h0.73v6.838h-0.594L110.215,36.529z M108.756,36.652c0.498,0,0.859-0.135,1.084-0.406
		s0.336-0.708,0.336-1.312v-0.151c0-0.685-0.113-1.171-0.34-1.464c-0.229-0.291-0.59-0.437-1.088-0.437
		c-0.428,0-0.756,0.166-0.982,0.498c-0.227,0.333-0.34,0.804-0.34,1.408c0,0.614,0.111,1.08,0.338,1.394
		C107.988,36.496,108.32,36.652,108.756,36.652z"/>
	<path fill="#FFFFFF" d="M116.609,34.764c0,0.785-0.197,1.397-0.592,1.84c-0.396,0.439-0.943,0.66-1.643,0.66
		c-0.432,0-0.812-0.102-1.146-0.303c-0.334-0.203-0.592-0.492-0.772-0.871c-0.183-0.377-0.271-0.818-0.271-1.326
		c0-0.785,0.194-1.396,0.588-1.834c0.394-0.438,0.938-0.658,1.636-0.658c0.674,0,1.209,0.227,1.604,0.672
		C116.412,33.393,116.609,33.998,116.609,34.764z M112.941,34.764c0,0.615,0.123,1.084,0.369,1.406s0.605,0.482,1.084,0.482
		s0.84-0.16,1.088-0.48s0.371-0.79,0.371-1.408c0-0.611-0.123-1.078-0.371-1.396c-0.248-0.318-0.613-0.478-1.098-0.478
		c-0.479,0-0.838,0.155-1.08,0.471C113.062,33.675,112.941,34.143,112.941,34.764z"/>
	<path fill="#FFFFFF" d="M122.262,37.264c-0.713,0-1.275-0.217-1.686-0.648c-0.412-0.436-0.617-1.035-0.617-1.809
		s0.189-1.393,0.572-1.85s0.896-0.686,1.541-0.686c0.604,0,1.08,0.196,1.432,0.596c0.352,0.396,0.527,0.92,0.527,1.57v0.461h-3.316
		c0.014,0.564,0.156,0.996,0.428,1.289c0.272,0.293,0.652,0.438,1.146,0.438c0.521,0,1.029-0.107,1.539-0.326v0.65
		c-0.262,0.111-0.502,0.189-0.73,0.238C122.863,37.239,122.586,37.264,122.262,37.264z M122.062,32.883
		c-0.389,0-0.695,0.126-0.924,0.377c-0.23,0.254-0.367,0.602-0.406,1.047h2.518c0-0.459-0.104-0.812-0.309-1.058
		C122.736,33.005,122.443,32.883,122.062,32.883z"/>
	<path fill="#FFFFFF" d="M128.383,35.861c0,0.449-0.168,0.795-0.502,1.037c-0.334,0.244-0.803,0.365-1.406,0.365
		c-0.639,0-1.137-0.104-1.494-0.305v-0.678c0.23,0.117,0.48,0.21,0.744,0.275c0.268,0.067,0.521,0.104,0.77,0.104
		c0.381,0,0.674-0.062,0.879-0.184c0.205-0.123,0.311-0.308,0.311-0.557c0-0.188-0.082-0.35-0.244-0.48
		c-0.164-0.135-0.48-0.291-0.951-0.474c-0.449-0.167-0.77-0.312-0.957-0.438c-0.189-0.123-0.33-0.266-0.422-0.424
		c-0.092-0.156-0.141-0.347-0.141-0.565c0-0.394,0.16-0.702,0.48-0.931c0.316-0.228,0.756-0.34,1.312-0.34
		c0.521,0,1.025,0.104,1.521,0.315l-0.261,0.595c-0.481-0.199-0.922-0.3-1.313-0.3c-0.347,0-0.604,0.054-0.781,0.162
		c-0.176,0.108-0.264,0.258-0.264,0.448c0,0.129,0.032,0.238,0.099,0.328c0.065,0.093,0.172,0.179,0.319,0.261
		c0.146,0.082,0.426,0.2,0.844,0.354c0.57,0.209,0.957,0.418,1.156,0.629C128.281,35.277,128.383,35.543,128.383,35.861z"/>
	<path fill="#FFFFFF" d="M131.125,36.662c0.129,0,0.252-0.01,0.373-0.029c0.119-0.019,0.215-0.037,0.285-0.059v0.558
		c-0.078,0.038-0.195,0.069-0.35,0.095c-0.152,0.024-0.291,0.037-0.414,0.037c-0.934,0-1.398-0.49-1.398-1.473v-2.865h-0.689v-0.352
		l0.689-0.303l0.309-1.028h0.422v1.116h1.396v0.564h-1.396v2.835c0,0.29,0.068,0.515,0.205,0.668
		C130.695,36.584,130.885,36.662,131.125,36.662z"/>
	<path fill="#FFFFFF" d="M132.684,31.055c0-0.168,0.041-0.289,0.123-0.367s0.188-0.117,0.311-0.117c0.115,0,0.217,0.041,0.303,0.119
		c0.084,0.08,0.127,0.201,0.127,0.365s-0.043,0.286-0.127,0.366c-0.086,0.081-0.188,0.121-0.303,0.121
		c-0.123,0-0.229-0.04-0.311-0.121C132.725,31.341,132.684,31.219,132.684,31.055z M133.475,37.176h-0.729v-4.816h0.729V37.176z"/>
	<path fill="#FFFFFF" d="M136.078,37.176l-1.828-4.816h0.781l1.037,2.856c0.232,0.668,0.373,1.103,0.414,1.302h0.035
		c0.029-0.156,0.133-0.478,0.305-0.966c0.172-0.487,0.557-1.552,1.154-3.192h0.779l-1.826,4.816H136.078z"/>
	<path fill="#FFFFFF" d="M141.566,37.264c-0.713,0-1.275-0.217-1.688-0.648c-0.412-0.436-0.615-1.035-0.615-1.809
		s0.188-1.393,0.57-1.85s0.896-0.686,1.541-0.686c0.604,0,1.08,0.196,1.434,0.596c0.352,0.396,0.525,0.92,0.525,1.57v0.461h-3.314
		c0.014,0.564,0.154,0.996,0.428,1.289c0.271,0.293,0.652,0.438,1.145,0.438c0.52,0,1.031-0.107,1.539-0.326v0.65
		c-0.26,0.111-0.502,0.189-0.732,0.238C142.168,37.239,141.891,37.264,141.566,37.264z M141.367,32.883
		c-0.387,0-0.695,0.126-0.924,0.377c-0.23,0.254-0.367,0.602-0.406,1.047h2.518c0-0.459-0.104-0.812-0.309-1.058
		C142.041,33.005,141.748,32.883,141.367,32.883z"/>
	<path fill="#FFFFFF" d="M146.777,32.271c0.215,0,0.406,0.018,0.576,0.053l-0.104,0.677c-0.199-0.044-0.375-0.065-0.525-0.065
		c-0.391,0-0.725,0.158-1,0.477c-0.275,0.314-0.414,0.71-0.414,1.182v2.584h-0.73v-4.814h0.602l0.084,0.893h0.035
		c0.18-0.312,0.395-0.556,0.646-0.727C146.198,32.357,146.477,32.271,146.777,32.271z"/>
	<path fill="#FFFFFF" d="M153.871,36.529h-0.041c-0.336,0.49-0.84,0.734-1.512,0.734c-0.629,0-1.119-0.217-1.469-0.646
		c-0.352-0.43-0.525-1.042-0.525-1.836c0-0.795,0.176-1.411,0.527-1.852c0.351-0.439,0.84-0.658,1.467-0.658
		c0.654,0,1.154,0.235,1.504,0.711h0.057l-0.031-0.348l-0.018-0.339v-1.96h0.73v6.838h-0.596L153.871,36.529z M152.412,36.652
		c0.498,0,0.859-0.135,1.082-0.406c0.225-0.271,0.336-0.708,0.336-1.312v-0.151c0-0.685-0.113-1.171-0.34-1.464
		c-0.227-0.291-0.59-0.437-1.088-0.437c-0.428,0-0.754,0.166-0.982,0.498c-0.227,0.333-0.34,0.804-0.34,1.408
		c0,0.614,0.113,1.08,0.338,1.394C151.645,36.496,151.975,36.652,152.412,36.652z"/>
	<path fill="#FFFFFF" d="M156.045,31.055c0-0.168,0.041-0.289,0.123-0.367s0.186-0.117,0.309-0.117c0.117,0,0.217,0.041,0.303,0.119
		c0.084,0.08,0.129,0.201,0.129,0.365s-0.045,0.286-0.129,0.366c-0.086,0.081-0.186,0.121-0.303,0.121
		c-0.123,0-0.227-0.04-0.309-0.121C156.086,31.341,156.045,31.219,156.045,31.055z M156.836,37.176h-0.729v-4.816h0.729V37.176z"/>
	<path fill="#FFFFFF" d="M161.492,35.861c0,0.449-0.168,0.795-0.502,1.037c-0.334,0.244-0.803,0.365-1.406,0.365
		c-0.639,0-1.137-0.104-1.494-0.305v-0.678c0.23,0.117,0.48,0.21,0.744,0.275c0.266,0.067,0.521,0.104,0.768,0.104
		c0.381,0,0.674-0.062,0.879-0.184c0.205-0.123,0.311-0.308,0.311-0.557c0-0.188-0.082-0.35-0.244-0.48
		c-0.164-0.135-0.479-0.291-0.949-0.474c-0.449-0.167-0.77-0.312-0.957-0.438c-0.189-0.123-0.33-0.266-0.424-0.424
		c-0.092-0.156-0.139-0.347-0.139-0.565c0-0.394,0.158-0.702,0.479-0.931c0.318-0.228,0.756-0.34,1.312-0.34
		c0.52,0,1.025,0.104,1.521,0.315l-0.262,0.595c-0.48-0.199-0.922-0.3-1.312-0.3c-0.346,0-0.605,0.054-0.781,0.162
		s-0.264,0.258-0.264,0.448c0,0.129,0.033,0.238,0.098,0.328c0.066,0.093,0.172,0.179,0.32,0.261c0.145,0.082,0.426,0.2,0.844,0.354
		c0.57,0.209,0.957,0.418,1.156,0.629C161.391,35.277,161.492,35.543,161.492,35.861z"/>
	<path fill="#FFFFFF" d="M164.918,37.264c-0.312,0-0.6-0.058-0.859-0.174c-0.258-0.115-0.477-0.293-0.65-0.533h-0.055
		c0.035,0.281,0.055,0.549,0.055,0.799v1.982h-0.729v-6.979h0.594l0.101,0.658h0.035c0.188-0.265,0.405-0.453,0.655-0.57
		c0.248-0.117,0.533-0.176,0.854-0.176c0.64,0,1.133,0.219,1.479,0.652c0.349,0.438,0.521,1.051,0.521,1.84
		c0,0.791-0.176,1.403-0.528,1.842C166.035,37.045,165.545,37.264,164.918,37.264z M164.812,32.891c-0.492,0-0.85,0.137-1.066,0.409
		c-0.221,0.272-0.334,0.706-0.34,1.302v0.162c0,0.676,0.113,1.16,0.34,1.452c0.225,0.291,0.586,0.437,1.084,0.437
		c0.416,0,0.742-0.168,0.979-0.504c0.237-0.338,0.354-0.801,0.354-1.395c0-0.6-0.117-1.061-0.354-1.382
		C165.572,33.052,165.24,32.891,164.812,32.891z"/>
	<path fill="#FFFFFF" d="M172.35,34.764c0,0.785-0.197,1.397-0.592,1.84c-0.396,0.439-0.943,0.66-1.641,0.66
		c-0.43,0-0.812-0.102-1.146-0.303c-0.334-0.203-0.592-0.492-0.771-0.871c-0.184-0.377-0.271-0.818-0.271-1.326
		c0-0.785,0.194-1.396,0.588-1.834c0.394-0.438,0.938-0.658,1.635-0.658c0.675,0,1.209,0.227,1.604,0.672
		C172.152,33.393,172.35,33.998,172.35,34.764z M168.682,34.764c0,0.615,0.123,1.084,0.369,1.406s0.607,0.482,1.084,0.482
		c0.479,0,0.84-0.16,1.088-0.48s0.371-0.79,0.371-1.408c0-0.611-0.123-1.078-0.371-1.396c-0.248-0.318-0.613-0.478-1.096-0.478
		c-0.479,0-0.838,0.155-1.082,0.471C168.803,33.675,168.682,34.143,168.682,34.764z"/>
	<path fill="#FFFFFF" d="M176.924,37.176v-3.115c0-0.393-0.09-0.686-0.268-0.879c-0.18-0.193-0.459-0.291-0.84-0.291
		c-0.504,0-0.873,0.137-1.107,0.409s-0.352,0.724-0.352,1.349v2.527h-0.729v-4.816h0.595l0.116,0.66h0.035
		c0.149-0.236,0.358-0.422,0.629-0.553c0.271-0.13,0.57-0.195,0.899-0.195c0.58,0,1.019,0.142,1.312,0.42
		c0.293,0.279,0.438,0.729,0.438,1.344v3.143L176.924,37.176L176.924,37.176z"/>
	<path fill="#FFFFFF" d="M179.121,31.611c0.141-0.182,0.293-0.4,0.455-0.658s0.291-0.48,0.385-0.672h0.887v0.092
		c-0.129,0.189-0.32,0.425-0.574,0.703c-0.256,0.277-0.477,0.494-0.664,0.646h-0.486L179.121,31.611L179.121,31.611z
		 M179.881,37.176h-0.729v-4.816h0.729V37.176z"/>
	<path fill="#FFFFFF" d="M182.484,37.176l-1.828-4.816h0.781l1.037,2.856c0.232,0.668,0.373,1.103,0.414,1.302h0.033
		c0.031-0.156,0.135-0.478,0.307-0.966c0.172-0.487,0.557-1.552,1.152-3.192h0.781l-1.828,4.816H182.484z"/>
	<path fill="#FFFFFF" d="M187.973,37.264c-0.713,0-1.273-0.217-1.686-0.648c-0.412-0.436-0.617-1.035-0.617-1.809
		s0.189-1.393,0.572-1.85s0.896-0.686,1.541-0.686c0.604,0,1.08,0.196,1.432,0.596c0.352,0.396,0.527,0.92,0.527,1.57v0.461h-3.316
		c0.014,0.564,0.156,0.996,0.428,1.289c0.272,0.293,0.652,0.438,1.146,0.438c0.521,0,1.029-0.107,1.539-0.326v0.65
		c-0.262,0.111-0.502,0.189-0.73,0.238C188.574,37.239,188.297,37.264,187.973,37.264z M187.773,32.883
		c-0.387,0-0.695,0.126-0.924,0.377c-0.23,0.254-0.367,0.602-0.406,1.047h2.518c0-0.459-0.104-0.812-0.309-1.058
		C188.447,33.005,188.154,32.883,187.773,32.883z"/>
	<path fill="#FFFFFF" d="M191.717,37.176h-0.73v-6.838h0.73V37.176z"/>
</g>
</svg>
