<?xml version="1.0" encoding="utf-8"?>
<!-- Generator: Adobe Illustrator 15.0.0, SVG Export Plug-In . SVG Version: 6.00 Build 0)  -->
<!DOCTYPE svg PUBLIC "-//W3C//DTD SVG 1.1//EN" "http://www.w3.org/Graphics/SVG/1.1/DTD/svg11.dtd">
<svg version="1.1" id="Layer_1" xmlns="http://www.w3.org/2000/svg" xmlns:xlink="http://www.w3.org/1999/xlink" x="0px" y="0px"
	 width="200px" height="50px" viewBox="0 0 200 50" enable-background="new 0 0 200 50" xml:space="preserve">
<path fill="#00D300" d="M200,45c0,2.762-2.238,5-5,5H5c-2.761,0-5-2.238-5-5V5c0-2.762,2.239-5,5-5h190c2.762,0,5,2.238,5,5V45z"/>
<g>
	<defs>
		<rect id="SVGID_1_" width="47.167" height="50"/>
	</defs>
	<clipPath id="SVGID_2_">
		<use xlink:href="#SVGID_1_"  overflow="visible"/>
	</clipPath>
	<path clip-path="url(#SVGID_2_)" fill="#0FBC0F" d="M200,45c0,2.762-2.238,5-5,5H5c-2.761,0-5-2.238-5-5V5c0-2.762,2.239-5,5-5h190
		c2.762,0,5,2.238,5,5V45z"/>
</g>
<path fill="#FFFFFF" d="M16.723,28.173l15.786-3.03l1.603-8.005H14.85l-1.007-3.889H9.727l0.463,1.79l2.008-0.007l2.945,11.625
	c-1.851,0.769-2.658,5.669,1.713,5.669c1.053,0,15.737,0,15.737,0l0.388-2.006c0,0-13.653-0.01-15.668-0.01
	C15.319,30.312,15.256,28.518,16.723,28.173z"/>
<circle fill="#FFFFFF" cx="18.51" cy="34.922" r="1.83"/>
<circle fill="#FFFFFF" cx="29.627" cy="34.922" r="1.83"/>
<g id="Layer_2">
	<g enable-background="new    ">
		<path fill="#FFFFFF" d="M84.733,28.818c0.146,0,0.276,0.058,0.39,0.171l1.06,1.149c-0.587,0.728-1.309,1.283-2.165,1.67
			c-0.857,0.387-1.885,0.58-3.085,0.58c-1.074,0-2.039-0.184-2.895-0.55c-0.857-0.366-1.589-0.877-2.195-1.53
			c-0.606-0.652-1.072-1.434-1.395-2.34c-0.323-0.906-0.485-1.896-0.485-2.971c0-1.086,0.173-2.081,0.52-2.984
			c0.347-0.903,0.835-1.682,1.465-2.335c0.63-0.653,1.382-1.162,2.255-1.525c0.874-0.363,1.84-0.545,2.9-0.545
			c1.053,0,1.988,0.174,2.805,0.521c0.817,0.347,1.512,0.8,2.085,1.359l-0.9,1.25c-0.053,0.08-0.122,0.15-0.205,0.21
			c-0.083,0.061-0.198,0.09-0.345,0.09c-0.1,0-0.204-0.028-0.31-0.085c-0.107-0.057-0.224-0.126-0.35-0.21
			c-0.126-0.083-0.273-0.175-0.44-0.274c-0.167-0.101-0.36-0.191-0.58-0.275c-0.22-0.083-0.475-0.153-0.765-0.21
			c-0.29-0.057-0.625-0.085-1.005-0.085c-0.646,0-1.238,0.115-1.775,0.345c-0.537,0.23-0.999,0.563-1.385,1
			c-0.387,0.438-0.687,0.971-0.9,1.601c-0.213,0.63-0.32,1.349-0.32,2.154c0,0.812,0.115,1.537,0.345,2.171s0.542,1.166,0.935,1.601
			c0.394,0.434,0.857,0.765,1.39,0.994c0.533,0.229,1.106,0.346,1.72,0.346c0.366,0,0.698-0.021,0.995-0.061
			c0.297-0.04,0.57-0.104,0.82-0.189s0.486-0.198,0.71-0.336c0.223-0.137,0.445-0.305,0.665-0.504
			c0.066-0.061,0.136-0.108,0.21-0.146C84.577,28.838,84.653,28.818,84.733,28.818z"/>
		<path fill="#FFFFFF" d="M101.514,24.999c0,1.062-0.175,2.042-0.524,2.944c-0.351,0.904-0.845,1.687-1.484,2.346
			c-0.64,0.66-1.41,1.176-2.31,1.546c-0.9,0.369-1.9,0.556-3,0.556c-1.094,0-2.09-0.187-2.99-0.556
			c-0.9-0.37-1.671-0.886-2.315-1.546c-0.644-0.659-1.142-1.441-1.495-2.346c-0.353-0.902-0.53-1.885-0.53-2.944
			c0-1.06,0.177-2.041,0.53-2.944c0.354-0.903,0.852-1.686,1.495-2.345c0.644-0.66,1.415-1.176,2.315-1.546
			c0.9-0.369,1.896-0.555,2.99-0.555c0.733,0,1.423,0.085,2.07,0.255c0.647,0.17,1.24,0.41,1.78,0.721
			c0.54,0.31,1.025,0.687,1.455,1.13c0.43,0.443,0.795,0.938,1.096,1.484c0.299,0.547,0.527,1.141,0.686,1.78
			C101.436,23.619,101.514,24.293,101.514,24.999z M98.764,24.999c0-0.793-0.106-1.505-0.32-2.135
			c-0.214-0.63-0.517-1.165-0.91-1.604c-0.394-0.44-0.872-0.776-1.435-1.011c-0.563-0.232-1.198-0.35-1.905-0.35
			s-1.342,0.117-1.905,0.35c-0.563,0.234-1.043,0.57-1.44,1.011c-0.396,0.439-0.702,0.975-0.915,1.604
			c-0.213,0.629-0.32,1.342-0.32,2.135c0,0.794,0.106,1.506,0.32,2.136c0.214,0.631,0.519,1.163,0.915,1.6
			c0.396,0.438,0.876,0.771,1.44,1.006s1.198,0.351,1.905,0.351s1.341-0.116,1.905-0.351s1.042-0.568,1.435-1.006
			c0.393-0.437,0.697-0.969,0.91-1.6C98.657,26.505,98.764,25.793,98.764,24.999z"/>
		<path fill="#FFFFFF" d="M119.562,17.77v14.46h-2.369v-9.34c0-0.373,0.02-0.776,0.061-1.21l-4.371,8.21
			c-0.206,0.394-0.523,0.59-0.949,0.59h-0.381c-0.426,0-0.742-0.196-0.949-0.59l-4.42-8.241c0.021,0.22,0.037,0.437,0.051,0.65
			c0.013,0.213,0.021,0.41,0.021,0.59v9.34h-2.371V17.77h2.031c0.119,0,0.224,0.003,0.31,0.01c0.088,0.007,0.166,0.023,0.235,0.05
			s0.133,0.07,0.188,0.131c0.058,0.06,0.111,0.14,0.166,0.239l4.33,8.03c0.112,0.213,0.217,0.434,0.314,0.66
			c0.096,0.227,0.191,0.459,0.285,0.699c0.093-0.247,0.189-0.484,0.289-0.716c0.1-0.229,0.207-0.451,0.32-0.664l4.27-8.011
			c0.054-0.1,0.109-0.18,0.17-0.239c0.061-0.061,0.125-0.104,0.195-0.131c0.07-0.026,0.148-0.043,0.234-0.05
			c0.088-0.007,0.19-0.01,0.311-0.01L119.562,17.77L119.562,17.77z"/>
		<path fill="#FFFFFF" d="M127.482,17.77c0.967,0,1.805,0.113,2.511,0.34s1.29,0.544,1.75,0.95c0.46,0.406,0.802,0.894,1.024,1.46
			c0.224,0.566,0.336,1.187,0.336,1.86c0,0.699-0.117,1.342-0.351,1.925s-0.584,1.085-1.051,1.505
			c-0.468,0.42-1.052,0.746-1.755,0.979s-1.524,0.352-2.465,0.352h-2.012v5.09h-2.688V17.77H127.482z M127.482,25.039
			c0.494,0,0.924-0.062,1.291-0.185s0.672-0.3,0.914-0.53c0.244-0.229,0.426-0.51,0.545-0.84c0.121-0.33,0.182-0.698,0.182-1.104
			c0-0.387-0.061-0.737-0.182-1.051c-0.119-0.312-0.299-0.58-0.539-0.8c-0.24-0.22-0.543-0.388-0.91-0.505
			c-0.367-0.116-0.801-0.175-1.301-0.175h-2.01v5.189L127.482,25.039L127.482,25.039z"/>
		<path fill="#FFFFFF" d="M146.453,32.229h-2.43c-0.461,0-0.793-0.18-1-0.539l-3.041-4.631c-0.113-0.174-0.238-0.297-0.375-0.369
			c-0.137-0.073-0.338-0.11-0.604-0.11h-1.15v5.649h-2.689V17.77h4.41c0.979,0,1.82,0.102,2.523,0.305
			c0.703,0.204,1.281,0.488,1.73,0.855c0.449,0.366,0.781,0.805,0.995,1.314c0.214,0.511,0.319,1.072,0.319,1.686
			c0,0.486-0.072,0.946-0.215,1.38c-0.144,0.434-0.351,0.826-0.619,1.18c-0.271,0.354-0.604,0.664-1,0.931
			c-0.396,0.267-0.85,0.478-1.355,0.63c0.174,0.1,0.334,0.219,0.48,0.354c0.146,0.137,0.278,0.3,0.398,0.486L146.453,32.229z
			 M139.533,24.649c0.506,0,0.947-0.063,1.324-0.189c0.377-0.127,0.688-0.302,0.931-0.525s0.425-0.488,0.545-0.795
			c0.12-0.307,0.181-0.644,0.181-1.01c0-0.733-0.242-1.297-0.726-1.69s-1.222-0.59-2.215-0.59h-1.72v4.8L139.533,24.649
			L139.533,24.649z"/>
		<path fill="#FFFFFF" d="M160.413,32.229h-2.08c-0.233,0-0.423-0.059-0.569-0.174c-0.146-0.117-0.258-0.263-0.33-0.437l-1.08-2.949
			h-5.99l-1.079,2.949c-0.054,0.153-0.156,0.294-0.312,0.42c-0.152,0.127-0.343,0.19-0.568,0.19h-2.102l5.69-14.46h2.739
			L160.413,32.229z M155.663,26.77l-1.761-4.81c-0.086-0.214-0.176-0.467-0.271-0.761c-0.094-0.293-0.187-0.609-0.278-0.95
			c-0.088,0.341-0.179,0.659-0.271,0.955c-0.094,0.297-0.184,0.556-0.271,0.775l-1.75,4.791H155.663L155.663,26.77z"/>
		<path fill="#FFFFFF" d="M173.203,32.229h-2.43c-0.461,0-0.795-0.18-1-0.539l-3.041-4.631c-0.113-0.174-0.238-0.297-0.375-0.369
			c-0.137-0.073-0.338-0.11-0.604-0.11h-1.149v5.649h-2.69V17.77h4.41c0.979,0,1.821,0.102,2.524,0.305
			c0.703,0.204,1.28,0.488,1.73,0.855c0.449,0.366,0.781,0.805,0.994,1.314c0.214,0.511,0.32,1.072,0.32,1.686
			c0,0.486-0.072,0.946-0.215,1.38c-0.145,0.434-0.351,0.826-0.621,1.18c-0.27,0.354-0.604,0.664-1,0.931
			c-0.396,0.267-0.849,0.478-1.354,0.63c0.173,0.1,0.333,0.219,0.479,0.354c0.146,0.137,0.28,0.3,0.399,0.486L173.203,32.229z
			 M166.283,24.649c0.506,0,0.947-0.063,1.324-0.189c0.377-0.127,0.688-0.302,0.93-0.525c0.244-0.224,0.426-0.488,0.545-0.795
			c0.121-0.307,0.182-0.644,0.182-1.01c0-0.733-0.242-1.297-0.727-1.69c-0.482-0.394-1.221-0.59-2.215-0.59h-1.721v4.8
			L166.283,24.649L166.283,24.649z"/>
	</g>
</g>
</svg>
