<?xml version="1.0" encoding="utf-8"?>
<!-- Generator: Adobe Illustrator 15.0.0, SVG Export Plug-In . SVG Version: 6.00 Build 0)  -->
<!DOCTYPE svg PUBLIC "-//W3C//DTD SVG 1.1//EN" "http://www.w3.org/Graphics/SVG/1.1/DTD/svg11.dtd">
<svg version="1.1" id="Layer_1" xmlns="http://www.w3.org/2000/svg" xmlns:xlink="http://www.w3.org/1999/xlink" x="0px" y="0px"
	 width="200px" height="50px" viewBox="0 0 200 50" enable-background="new 0 0 200 50" xml:space="preserve">
<g>
	<path fill="#858585" d="M200,45c0,2.762-2.238,5-5,5H5c-2.761,0-5-2.238-5-5V5c0-2.762,2.239-5,5-5h190c2.762,0,5,2.238,5,5V45z"/>
	<g>
		<g>
			<defs>
				<rect id="SVGID_1_" width="35.835" height="50"/>
			</defs>
			<clipPath id="SVGID_2_">
				<use xlink:href="#SVGID_1_"  overflow="visible"/>
			</clipPath>
			<path clip-path="url(#SVGID_2_)" fill="#5F5F5F" d="M200,45c0,2.762-2.238,5-5,5H5c-2.761,0-5-2.238-5-5V5c0-2.762,2.239-5,5-5
				h190c2.762,0,5,2.238,5,5V45z"/>
		</g>
	</g>
	<path fill="#858585" d="M17.429,10.405c-7.881-0.067-14.324,6.268-14.39,14.15c-0.066,7.88,6.268,14.323,14.148,14.39
		c7.881,0.064,14.324-6.266,14.392-14.147C31.646,16.916,25.31,10.472,17.429,10.405z M17.205,36.93
		c-6.768-0.059-12.206-5.592-12.148-12.355c0.058-6.766,5.59-12.206,12.355-12.148c6.768,0.058,12.207,5.59,12.148,12.357
		C29.503,31.546,23.97,36.984,17.205,36.93z"/>
	<circle fill="#858585" cx="17.308" cy="24.676" r="11.039"/>
	<polygon fill="#5F5F5F" points="23.919,27.932 20.564,31.285 17.308,28.032 14.052,31.285 10.697,27.932 13.953,24.676 
		10.697,21.42 14.052,18.064 17.308,21.32 20.564,18.064 23.919,21.42 20.664,24.676 	"/>
</g>
<g id="Layer_2">
	<g enable-background="new    ">
		<path fill="#FFFFFF" d="M59.702,28.438c0.132,0,0.249,0.055,0.351,0.154l0.954,1.035c-0.528,0.654-1.178,1.154-1.948,1.502
			c-0.771,0.348-1.697,0.521-2.777,0.521c-0.966,0-1.834-0.164-2.605-0.494c-0.771-0.33-1.43-0.789-1.976-1.377
			c-0.546-0.588-0.964-1.289-1.255-2.105S50.008,25.967,50.008,25c0-0.979,0.156-1.874,0.468-2.687s0.751-1.514,1.318-2.102
			s1.244-1.046,2.029-1.373c0.786-0.326,1.656-0.49,2.61-0.49c0.948,0,1.79,0.156,2.524,0.468c0.735,0.312,1.36,0.721,1.876,1.225
			l-0.81,1.125c-0.048,0.072-0.109,0.135-0.185,0.188c-0.075,0.055-0.179,0.081-0.311,0.081c-0.09,0-0.183-0.025-0.279-0.076
			c-0.096-0.051-0.201-0.114-0.315-0.189c-0.114-0.074-0.246-0.157-0.396-0.247c-0.15-0.09-0.324-0.173-0.522-0.247
			c-0.198-0.075-0.428-0.139-0.688-0.189c-0.261-0.051-0.562-0.076-0.905-0.076c-0.582,0-1.114,0.104-1.597,0.311
			c-0.483,0.207-0.899,0.507-1.247,0.899c-0.348,0.394-0.618,0.873-0.81,1.44C52.576,23.627,52.48,24.275,52.48,25
			c0,0.732,0.104,1.383,0.311,1.953s0.487,1.051,0.841,1.439c0.354,0.391,0.771,0.688,1.251,0.896s0.996,0.312,1.548,0.312
			c0.33,0,0.628-0.019,0.896-0.056c0.267-0.035,0.513-0.092,0.738-0.17s0.438-0.181,0.639-0.304c0.201-0.122,0.4-0.272,0.599-0.452
			c0.06-0.056,0.123-0.099,0.189-0.132C59.561,28.455,59.629,28.438,59.702,28.438z"/>
		<path fill="#FFFFFF" d="M74.804,25c0,0.955-0.157,1.837-0.472,2.65c-0.315,0.812-0.761,1.518-1.337,2.109
			c-0.576,0.596-1.269,1.059-2.079,1.393c-0.81,0.332-1.71,0.498-2.7,0.498c-0.984,0-1.881-0.166-2.691-0.498
			c-0.81-0.334-1.504-0.797-2.083-1.393c-0.579-0.594-1.028-1.297-1.346-2.109c-0.318-0.812-0.477-1.695-0.477-2.65
			c0-0.954,0.159-1.838,0.477-2.65c0.318-0.813,0.767-1.517,1.346-2.11c0.579-0.595,1.273-1.058,2.083-1.391s1.707-0.5,2.691-0.5
			c0.66,0,1.281,0.077,1.863,0.229c0.582,0.153,1.116,0.369,1.602,0.648c0.486,0.278,0.923,0.618,1.31,1.017
			c0.387,0.399,0.716,0.845,0.986,1.337c0.27,0.492,0.475,1.025,0.616,1.602C74.734,23.759,74.804,24.365,74.804,25z M72.329,25
			c0-0.714-0.096-1.354-0.288-1.922c-0.192-0.566-0.465-1.048-0.819-1.444s-0.784-0.699-1.292-0.909
			c-0.507-0.21-1.079-0.314-1.714-0.314c-0.636,0-1.208,0.104-1.714,0.314c-0.507,0.21-0.939,0.514-1.296,0.909
			c-0.357,0.396-0.632,0.878-0.824,1.444c-0.192,0.567-0.288,1.208-0.288,1.922s0.096,1.354,0.288,1.921
			c0.192,0.565,0.466,1.047,0.824,1.438c0.356,0.394,0.789,0.695,1.296,0.904c0.507,0.211,1.078,0.315,1.714,0.315
			c0.636,0,1.208-0.104,1.714-0.315c0.507-0.209,0.938-0.513,1.292-0.904c0.354-0.393,0.627-0.873,0.819-1.438
			C72.233,26.354,72.329,25.715,72.329,25z"/>
		<path fill="#FFFFFF" d="M87.908,18.494v13.014h-1.242c-0.192,0-0.353-0.031-0.482-0.096c-0.129-0.062-0.253-0.168-0.373-0.318
			l-6.795-8.676c0.036,0.396,0.054,0.762,0.054,1.098v7.993h-2.133V18.494h1.269c0.102,0,0.19,0.004,0.266,0.013
			c0.075,0.01,0.141,0.027,0.198,0.055c0.057,0.026,0.112,0.065,0.167,0.117c0.054,0.051,0.114,0.118,0.18,0.202l6.822,8.711
			c-0.018-0.209-0.033-0.416-0.045-0.621c-0.012-0.203-0.018-0.392-0.018-0.563v-7.912L87.908,18.494L87.908,18.494z"/>
		<path fill="#FFFFFF" d="M97.735,20.86c-0.072,0.126-0.148,0.218-0.229,0.275c-0.081,0.057-0.182,0.085-0.301,0.085
			c-0.126,0-0.263-0.046-0.41-0.14c-0.147-0.093-0.323-0.196-0.526-0.311c-0.204-0.113-0.443-0.217-0.716-0.311
			c-0.273-0.093-0.595-0.139-0.967-0.139c-0.336,0-0.63,0.04-0.882,0.121s-0.464,0.193-0.635,0.338
			c-0.171,0.144-0.298,0.316-0.382,0.517s-0.126,0.422-0.126,0.662c0,0.306,0.085,0.561,0.256,0.765
			c0.171,0.204,0.397,0.378,0.68,0.522c0.282,0.144,0.603,0.272,0.963,0.387c0.36,0.115,0.729,0.235,1.107,0.364
			s0.747,0.279,1.107,0.45c0.36,0.171,0.681,0.387,0.963,0.648c0.282,0.261,0.509,0.581,0.68,0.958
			c0.171,0.379,0.256,0.838,0.256,1.377c0,0.588-0.101,1.139-0.301,1.652c-0.201,0.514-0.495,0.959-0.882,1.34
			c-0.387,0.383-0.86,0.682-1.417,0.9c-0.558,0.219-1.197,0.328-1.917,0.328c-0.414,0-0.822-0.039-1.224-0.121
			c-0.402-0.08-0.788-0.195-1.157-0.346c-0.369-0.15-0.715-0.33-1.04-0.541c-0.324-0.209-0.612-0.443-0.864-0.701l0.711-1.16
			c0.06-0.084,0.138-0.156,0.234-0.213c0.096-0.059,0.198-0.086,0.306-0.086c0.15,0,0.312,0.062,0.486,0.186
			c0.174,0.123,0.381,0.26,0.621,0.41c0.24,0.148,0.521,0.285,0.841,0.408c0.321,0.123,0.707,0.186,1.157,0.186
			c0.69,0,1.224-0.164,1.602-0.49c0.378-0.328,0.567-0.797,0.567-1.41c0-0.342-0.085-0.621-0.256-0.836
			c-0.171-0.216-0.397-0.396-0.68-0.543c-0.282-0.147-0.603-0.271-0.963-0.375c-0.36-0.102-0.726-0.213-1.098-0.334
			c-0.372-0.119-0.738-0.263-1.098-0.431c-0.36-0.168-0.681-0.387-0.963-0.657c-0.282-0.27-0.508-0.607-0.679-1.013
			c-0.171-0.404-0.257-0.904-0.257-1.498c0-0.474,0.095-0.937,0.284-1.386c0.189-0.45,0.463-0.85,0.823-1.197
			c0.36-0.348,0.804-0.627,1.332-0.837c0.528-0.21,1.134-0.315,1.818-0.315c0.768,0,1.476,0.12,2.124,0.36s1.2,0.576,1.656,1.008
			L97.735,20.86z"/>
		<path fill="#FFFFFF" d="M105.916,29.555c0.469,0,0.887-0.078,1.256-0.234c0.369-0.154,0.68-0.375,0.932-0.654
			c0.252-0.283,0.445-0.625,0.58-1.025s0.203-0.853,0.203-1.351v-7.794h2.422v7.794c0,0.771-0.125,1.487-0.375,2.146
			c-0.248,0.657-0.604,1.226-1.068,1.7c-0.467,0.476-1.031,0.851-1.697,1.115c-0.666,0.269-1.416,0.399-2.25,0.399
			c-0.84,0-1.592-0.133-2.258-0.399s-1.232-0.64-1.697-1.115c-0.465-0.475-0.82-1.043-1.068-1.7
			c-0.25-0.656-0.375-1.373-0.375-2.146v-7.794h2.422v7.783c0,0.498,0.065,0.949,0.203,1.353c0.135,0.402,0.328,0.744,0.584,1.029
			c0.256,0.284,0.565,0.506,0.937,0.662C105.029,29.477,105.449,29.555,105.916,29.555z"/>
		<path fill="#FFFFFF" d="M121.666,29.51v1.998h-7.623V18.494h2.422V29.51H121.666z"/>
		<path fill="#FFFFFF" d="M130.873,20.482h-3.924v11.026h-2.422V20.482h-3.924v-1.988h10.27V20.482z"/>
		<path fill="#FFFFFF" d="M135.014,20.419v3.609h4.553v1.863h-4.553v3.683h5.777v1.936h-8.208V18.494h8.208v1.926L135.014,20.419
			L135.014,20.419z"/>
		<path fill="#FFFFFF" d="M142.51,25.144h4.662v1.854h-4.662V25.144z"/>
		<path fill="#FFFFFF" d="M160.617,18.494v13.014h-1.241c-0.192,0-0.353-0.031-0.481-0.096c-0.129-0.062-0.254-0.168-0.373-0.318
			l-6.795-8.676c0.035,0.396,0.053,0.762,0.053,1.098v7.993h-2.133V18.494h1.271c0.104,0,0.188,0.004,0.268,0.013
			c0.072,0.01,0.141,0.027,0.195,0.055c0.059,0.026,0.113,0.065,0.167,0.117c0.056,0.051,0.114,0.118,0.181,0.202l6.821,8.711
			c-0.019-0.209-0.032-0.416-0.045-0.621c-0.013-0.203-0.021-0.392-0.021-0.563v-7.912L160.617,18.494L160.617,18.494z"/>
		<path fill="#FFFFFF" d="M175.926,25c0,0.955-0.156,1.837-0.472,2.65c-0.315,0.812-0.761,1.518-1.337,2.109
			s-1.27,1.059-2.078,1.393c-0.811,0.332-1.711,0.498-2.701,0.498c-0.982,0-1.881-0.166-2.689-0.498
			c-0.811-0.334-1.506-0.797-2.084-1.393c-0.58-0.594-1.026-1.297-1.346-2.109c-0.318-0.812-0.478-1.695-0.478-2.65
			c0-0.954,0.159-1.838,0.478-2.65c0.317-0.813,0.766-1.517,1.346-2.11c0.578-0.595,1.273-1.058,2.084-1.391s1.707-0.5,2.689-0.5
			c0.66,0,1.281,0.077,1.863,0.229c0.582,0.153,1.115,0.369,1.602,0.648c0.486,0.278,0.924,0.618,1.311,1.017
			c0.389,0.399,0.717,0.845,0.986,1.337c0.271,0.492,0.477,1.025,0.615,1.602C175.855,23.759,175.926,24.365,175.926,25z
			 M173.451,25c0-0.714-0.096-1.354-0.287-1.922c-0.193-0.566-0.466-1.048-0.82-1.444c-0.354-0.396-0.783-0.699-1.291-0.909
			c-0.507-0.21-1.078-0.314-1.715-0.314c-0.636,0-1.207,0.104-1.714,0.314s-0.938,0.514-1.296,0.909
			c-0.357,0.396-0.633,0.878-0.824,1.444c-0.191,0.567-0.287,1.208-0.287,1.922s0.096,1.354,0.287,1.921
			c0.191,0.565,0.467,1.047,0.824,1.438c0.355,0.394,0.789,0.695,1.296,0.904c0.507,0.211,1.078,0.315,1.714,0.315
			c0.637,0,1.208-0.104,1.715-0.315c0.508-0.209,0.938-0.513,1.291-0.904c0.354-0.394,0.627-0.873,0.82-1.438
			C173.355,26.354,173.451,25.715,173.451,25z"/>
		<path fill="#FFFFFF" d="M184.988,20.86c-0.07,0.126-0.147,0.218-0.229,0.275c-0.079,0.057-0.182,0.085-0.301,0.085
			c-0.127,0-0.265-0.046-0.41-0.14c-0.146-0.093-0.321-0.196-0.524-0.311c-0.205-0.113-0.442-0.217-0.717-0.311
			c-0.272-0.093-0.597-0.139-0.968-0.139c-0.336,0-0.631,0.04-0.883,0.121s-0.463,0.193-0.636,0.338
			c-0.17,0.144-0.299,0.316-0.383,0.517s-0.125,0.422-0.125,0.662c0,0.306,0.086,0.561,0.256,0.765
			c0.173,0.204,0.397,0.378,0.681,0.522s0.604,0.272,0.963,0.387c0.358,0.114,0.729,0.235,1.106,0.364s0.746,0.279,1.106,0.45
			c0.359,0.171,0.681,0.387,0.964,0.648c0.28,0.261,0.508,0.581,0.68,0.958c0.171,0.379,0.257,0.838,0.257,1.377
			c0,0.588-0.103,1.139-0.302,1.652c-0.2,0.514-0.496,0.959-0.883,1.34c-0.388,0.383-0.858,0.682-1.418,0.9
			c-0.558,0.218-1.197,0.328-1.916,0.328c-0.414,0-0.822-0.039-1.226-0.121c-0.401-0.08-0.787-0.195-1.156-0.346
			c-0.368-0.152-0.715-0.33-1.038-0.541c-0.324-0.209-0.613-0.443-0.865-0.701l0.711-1.16c0.062-0.084,0.14-0.156,0.233-0.213
			c0.097-0.059,0.199-0.086,0.308-0.086c0.149,0,0.312,0.062,0.485,0.186c0.175,0.124,0.382,0.26,0.621,0.41
			c0.239,0.148,0.521,0.285,0.841,0.408c0.321,0.123,0.707,0.186,1.157,0.186c0.688,0,1.224-0.164,1.603-0.49
			c0.377-0.328,0.565-0.797,0.565-1.41c0-0.342-0.085-0.621-0.256-0.836c-0.171-0.216-0.397-0.396-0.681-0.543
			c-0.281-0.147-0.604-0.271-0.963-0.375c-0.358-0.102-0.728-0.213-1.099-0.334c-0.373-0.119-0.737-0.263-1.098-0.431
			c-0.361-0.168-0.683-0.387-0.966-0.657c-0.28-0.27-0.508-0.607-0.678-1.013c-0.173-0.404-0.259-0.904-0.259-1.498
			c0-0.474,0.097-0.937,0.284-1.386c0.188-0.45,0.464-0.85,0.822-1.197c0.361-0.348,0.806-0.627,1.332-0.837
			c0.529-0.21,1.136-0.315,1.818-0.315c0.769,0,1.478,0.12,2.125,0.36c0.646,0.24,1.198,0.576,1.653,1.008L184.988,20.86z"/>
	</g>
</g>
</svg>
