<?xml version="1.0" encoding="utf-8"?>
<!-- Generator: Adobe Illustrator 15.0.0, SVG Export Plug-In . SVG Version: 6.00 Build 0)  -->
<!DOCTYPE svg PUBLIC "-//W3C//DTD SVG 1.1//EN" "http://www.w3.org/Graphics/SVG/1.1/DTD/svg11.dtd">
<svg version="1.1" id="Layer_1" xmlns="http://www.w3.org/2000/svg" xmlns:xlink="http://www.w3.org/1999/xlink" x="0px" y="0px"
	 width="56px" height="9px" viewBox="-7.014 3.5 56 9" enable-background="new -7.014 3.5 56 9" xml:space="preserve">
<path fill="#5F5F5F" d="M-1,6.5C-1,7.328-1.672,8-2.5,8c0,0.828,0.672,1.5,1.5,1.5S0.5,8.828,0.5,8S-0.172,6.5-1,6.5z M-1,3.5
	c-3.077,0-6,3.486-6,4.5c0,1.014,2.923,4.5,6,4.5c3.076,0,6-3.486,6-4.5C5,6.986,2.076,3.5-1,3.5z M-1,11c-1.657,0-3-1.344-3-3
	c0-1.657,1.343-3,3-3c1.656,0,3,1.343,3,3C2,9.656,0.656,11-1,11z"/>
<g>
	<path fill="#5F5F5F" d="M15.365,11.199l-0.006,1.038h-5.34V3.621h5.34v1.038h-4.056v2.73h3.264v1.002h-3.264v2.808H15.365z"/>
	<path fill="#5F5F5F" d="M21.401,5.025c-0.04,0.068-0.082,0.118-0.126,0.15c-0.044,0.032-0.101,0.048-0.168,0.048
		c-0.072,0-0.154-0.033-0.246-0.099c-0.093-0.066-0.207-0.14-0.346-0.222c-0.138-0.082-0.303-0.156-0.494-0.222
		c-0.192-0.066-0.423-0.099-0.69-0.099c-0.252,0-0.473,0.033-0.663,0.099c-0.189,0.066-0.349,0.156-0.477,0.27
		c-0.128,0.114-0.226,0.248-0.291,0.402c-0.066,0.154-0.1,0.321-0.1,0.501c0,0.232,0.06,0.424,0.178,0.576
		c0.117,0.152,0.272,0.282,0.465,0.39c0.191,0.108,0.41,0.202,0.653,0.282c0.244,0.08,0.494,0.163,0.75,0.249
		c0.257,0.086,0.507,0.185,0.75,0.297C20.841,7.76,21.06,7.9,21.251,8.07c0.192,0.17,0.347,0.378,0.465,0.624
		s0.178,0.547,0.178,0.903c0,0.38-0.065,0.735-0.195,1.067s-0.319,0.622-0.567,0.87s-0.553,0.443-0.915,0.585
		c-0.361,0.143-0.772,0.213-1.232,0.213c-0.276,0-0.544-0.026-0.805-0.081c-0.26-0.054-0.506-0.13-0.737-0.228
		c-0.232-0.098-0.449-0.216-0.651-0.354c-0.202-0.138-0.383-0.293-0.543-0.465l0.366-0.611c0.036-0.049,0.079-0.089,0.129-0.12
		c0.05-0.032,0.106-0.048,0.171-0.048c0.084,0,0.181,0.044,0.291,0.132s0.246,0.185,0.408,0.291
		c0.162,0.105,0.355,0.203,0.582,0.291c0.226,0.088,0.501,0.132,0.825,0.132c0.264,0,0.5-0.035,0.708-0.105
		c0.207-0.069,0.383-0.17,0.524-0.3s0.251-0.287,0.327-0.471c0.076-0.185,0.114-0.388,0.114-0.612c0-0.252-0.059-0.458-0.174-0.618
		c-0.116-0.16-0.271-0.294-0.463-0.401c-0.191-0.108-0.409-0.2-0.653-0.276s-0.494-0.155-0.75-0.237s-0.506-0.177-0.75-0.285
		c-0.244-0.107-0.462-0.249-0.654-0.423s-0.346-0.392-0.462-0.653c-0.116-0.262-0.174-0.585-0.174-0.969
		c0-0.308,0.06-0.606,0.18-0.894s0.295-0.543,0.525-0.765c0.229-0.222,0.513-0.4,0.849-0.534c0.336-0.134,0.72-0.201,1.152-0.201
		c0.483,0,0.929,0.077,1.335,0.231c0.405,0.154,0.759,0.375,1.059,0.663L21.401,5.025z"/>
	<path fill="#5F5F5F" d="M26.081,3.621c0.552,0,1.032,0.064,1.439,0.192c0.408,0.128,0.746,0.309,1.015,0.543
		c0.268,0.234,0.467,0.517,0.597,0.849c0.13,0.333,0.195,0.7,0.195,1.104s-0.07,0.775-0.21,1.113
		c-0.141,0.339-0.347,0.63-0.618,0.873c-0.272,0.244-0.611,0.434-1.017,0.567c-0.406,0.134-0.873,0.201-1.401,0.201h-1.332v3.174
		h-1.278V3.621H26.081z M26.081,8.056c0.324,0,0.608-0.042,0.854-0.126s0.452-0.203,0.618-0.357s0.291-0.338,0.375-0.552
		s0.126-0.451,0.126-0.711c0-0.524-0.163-0.936-0.488-1.236c-0.326-0.3-0.821-0.45-1.485-0.45h-1.332v3.432H26.081z"/>
	<path fill="#5F5F5F" d="M32.016,12.237h-1.284V3.621h1.284V12.237z"/>
	<path fill="#5F5F5F" d="M41.243,12.237h-0.984c-0.112,0-0.204-0.028-0.276-0.084c-0.071-0.056-0.124-0.128-0.155-0.216
		l-0.763-1.998h-3.798l-0.762,1.998c-0.028,0.076-0.08,0.145-0.156,0.207c-0.076,0.062-0.168,0.093-0.275,0.093h-0.984l3.432-8.616
		h1.29L41.243,12.237z M38.717,9.027l-1.278-3.342c-0.092-0.228-0.184-0.516-0.275-0.864c-0.044,0.172-0.089,0.332-0.135,0.48
		c-0.047,0.148-0.092,0.28-0.136,0.396l-1.271,3.33H38.717z"/>
	<path fill="#5F5F5F" d="M48.779,12.237h-1.141c-0.228,0-0.394-0.09-0.498-0.27l-2.13-2.988c-0.068-0.101-0.143-0.171-0.222-0.213
		c-0.08-0.042-0.2-0.063-0.36-0.063h-0.834v3.534h-1.278V3.621h2.484c0.556,0,1.035,0.057,1.437,0.171
		c0.402,0.114,0.734,0.276,0.996,0.486c0.263,0.21,0.456,0.463,0.582,0.759c0.126,0.296,0.189,0.628,0.189,0.996
		c0,0.3-0.046,0.582-0.138,0.846C47.774,7.143,47.64,7.38,47.462,7.59c-0.178,0.211-0.396,0.392-0.651,0.544
		c-0.256,0.151-0.546,0.268-0.87,0.348c0.16,0.096,0.299,0.229,0.414,0.402L48.779,12.237z M44.759,7.773
		c0.328,0,0.617-0.04,0.867-0.12s0.459-0.193,0.627-0.339c0.168-0.146,0.294-0.32,0.378-0.521c0.084-0.203,0.126-0.426,0.126-0.669
		c0-0.496-0.163-0.87-0.489-1.122c-0.325-0.252-0.815-0.378-1.467-0.378h-1.206v3.15H44.759z"/>
</g>
</svg>
