<?xml version="1.0" encoding="utf-8"?>
<!-- Generator: Adobe Illustrator 15.0.0, SVG Export Plug-In . SVG Version: 6.00 Build 0)  -->
<!DOCTYPE svg PUBLIC "-//W3C//DTD SVG 1.1//EN" "http://www.w3.org/Graphics/SVG/1.1/DTD/svg11.dtd">
<svg version="1.1" id="Layer_1" xmlns="http://www.w3.org/2000/svg" xmlns:xlink="http://www.w3.org/1999/xlink" x="0px" y="0px"
	 width="79px" height="21px" viewBox="0 0 79 21" enable-background="new 0 0 79 21" xml:space="preserve">
<path fill="#B9519E" d="M79,19c0,1.104-0.896,2-2,2H2c-1.104,0-2-0.896-2-2V2c0-1.104,0.896-2,2-2h75c1.104,0,2,0.896,2,2V19z"/>
<g>
	<path fill="#FFFFFF" d="M24.472,7.568l-2.849,7.182h-1.568l-2.849-7.182h1.428c0.13,0,0.239,0.03,0.325,0.091
		s0.144,0.138,0.171,0.23l1.386,3.836c0.075,0.225,0.14,0.443,0.196,0.658c0.056,0.215,0.105,0.43,0.147,0.645
		c0.047-0.215,0.098-0.43,0.154-0.645c0.056-0.215,0.124-0.434,0.203-0.658L22.63,7.89c0.033-0.093,0.091-0.17,0.175-0.23
		s0.184-0.091,0.301-0.091H24.472z"/>
	<path fill="#FFFFFF" d="M26.495,11.376c0.028,0.369,0.093,0.688,0.196,0.955c0.103,0.269,0.238,0.49,0.406,0.665
		c0.168,0.176,0.367,0.306,0.598,0.393c0.231,0.086,0.487,0.129,0.767,0.129c0.28,0,0.521-0.032,0.725-0.098s0.38-0.138,0.532-0.217
		c0.151-0.079,0.284-0.151,0.399-0.217c0.114-0.065,0.225-0.099,0.333-0.099c0.145,0,0.252,0.054,0.322,0.161l0.497,0.63
		c-0.191,0.225-0.406,0.412-0.644,0.563c-0.238,0.152-0.486,0.273-0.746,0.364c-0.259,0.091-0.522,0.155-0.791,0.192
		c-0.268,0.037-0.528,0.057-0.78,0.057c-0.5,0-0.964-0.083-1.393-0.249s-0.803-0.41-1.12-0.735
		c-0.317-0.324-0.567-0.726-0.749-1.203c-0.182-0.479-0.273-1.033-0.273-1.663c0-0.49,0.08-0.95,0.238-1.383
		c0.158-0.432,0.386-0.807,0.682-1.127c0.296-0.319,0.658-0.572,1.085-0.759c0.427-0.187,0.909-0.28,1.446-0.28
		c0.453,0,0.87,0.072,1.253,0.217s0.711,0.356,0.987,0.634s0.491,0.618,0.647,1.021c0.157,0.404,0.235,0.865,0.235,1.383
		c0,0.262-0.028,0.438-0.084,0.528c-0.056,0.091-0.164,0.137-0.322,0.137H26.495z M29.792,10.333c0-0.224-0.031-0.436-0.094-0.634
		s-0.158-0.372-0.284-0.521s-0.286-0.267-0.479-0.354c-0.194-0.086-0.419-0.129-0.675-0.129c-0.5,0-0.893,0.143-1.18,0.427
		s-0.47,0.688-0.549,1.211H29.792z"/>
	<path fill="#FFFFFF" d="M34.433,7.568v7.427c0,0.312-0.041,0.606-0.123,0.882s-0.212,0.517-0.392,0.725s-0.415,0.371-0.707,0.49
		c-0.292,0.119-0.647,0.178-1.067,0.178c-0.164,0-0.315-0.01-0.455-0.031c-0.14-0.021-0.285-0.055-0.434-0.102l0.063-0.931
		c0.014-0.094,0.052-0.153,0.112-0.179s0.177-0.038,0.35-0.038c0.172,0,0.318-0.018,0.438-0.053
		c0.119-0.035,0.213-0.091,0.283-0.168c0.07-0.077,0.12-0.179,0.15-0.305c0.031-0.126,0.046-0.282,0.046-0.469V7.568H34.433z
		 M34.67,5.475c0,0.149-0.03,0.29-0.091,0.42c-0.061,0.131-0.141,0.245-0.242,0.344c-0.1,0.098-0.219,0.176-0.357,0.234
		S33.698,6.56,33.543,6.56c-0.149,0-0.289-0.028-0.42-0.087s-0.245-0.137-0.343-0.234c-0.098-0.099-0.176-0.213-0.235-0.344
		c-0.058-0.13-0.087-0.271-0.087-0.42c0-0.153,0.029-0.298,0.087-0.434c0.059-0.136,0.137-0.252,0.235-0.35
		c0.098-0.099,0.212-0.177,0.343-0.235c0.131-0.058,0.271-0.087,0.42-0.087c0.154,0,0.3,0.029,0.438,0.087
		c0.138,0.059,0.257,0.137,0.357,0.235c0.101,0.098,0.181,0.214,0.242,0.35S34.67,5.321,34.67,5.475z"/>
	<path fill="#FFFFFF" d="M36.029,8.569c0.826-0.756,1.82-1.135,2.982-1.135c0.42,0,0.795,0.069,1.127,0.207
		c0.331,0.138,0.611,0.329,0.84,0.574s0.402,0.537,0.521,0.878s0.179,0.714,0.179,1.12v4.536h-0.784
		c-0.163,0-0.289-0.024-0.378-0.073s-0.159-0.148-0.21-0.298l-0.154-0.518c-0.182,0.163-0.359,0.307-0.532,0.43
		c-0.172,0.124-0.352,0.228-0.539,0.312c-0.187,0.084-0.386,0.148-0.598,0.193c-0.212,0.044-0.447,0.066-0.704,0.066
		c-0.303,0-0.583-0.041-0.84-0.123c-0.257-0.081-0.479-0.204-0.665-0.367c-0.187-0.163-0.332-0.366-0.434-0.609
		c-0.103-0.242-0.154-0.524-0.154-0.847c0-0.182,0.031-0.363,0.091-0.543c0.061-0.179,0.16-0.351,0.297-0.514
		c0.138-0.164,0.316-0.317,0.536-0.462c0.219-0.146,0.489-0.271,0.809-0.379c0.319-0.106,0.691-0.194,1.116-0.262
		c0.425-0.068,0.91-0.108,1.456-0.123v-0.42c0-0.48-0.103-0.836-0.308-1.067C39.478,8.915,39.181,8.8,38.794,8.8
		c-0.28,0-0.512,0.033-0.697,0.099c-0.184,0.065-0.346,0.139-0.486,0.22c-0.14,0.082-0.267,0.155-0.381,0.221
		c-0.115,0.065-0.242,0.098-0.382,0.098c-0.121,0-0.224-0.031-0.308-0.094c-0.084-0.063-0.151-0.137-0.203-0.221L36.029,8.569z
		 M39.991,11.684c-0.5,0.023-0.919,0.067-1.26,0.13c-0.341,0.063-0.614,0.144-0.819,0.241c-0.205,0.099-0.352,0.213-0.441,0.344
		c-0.089,0.13-0.133,0.272-0.133,0.427c0,0.303,0.09,0.521,0.27,0.65c0.18,0.131,0.414,0.196,0.703,0.196
		c0.355,0,0.662-0.064,0.921-0.192c0.259-0.128,0.512-0.323,0.759-0.585V11.684z"/>
	<path fill="#FFFFFF" d="M46.703,14.75V7.568h1.058c0.224,0,0.371,0.104,0.44,0.314l0.112,0.532c0.126-0.14,0.258-0.269,0.396-0.385
		c0.138-0.117,0.285-0.217,0.441-0.302c0.156-0.084,0.324-0.15,0.504-0.199s0.377-0.073,0.592-0.073
		c0.452,0,0.824,0.122,1.116,0.367c0.291,0.245,0.51,0.57,0.654,0.977c0.112-0.238,0.252-0.442,0.42-0.612s0.353-0.31,0.553-0.416
		c0.201-0.107,0.414-0.188,0.641-0.238c0.227-0.052,0.454-0.077,0.683-0.077c0.396,0,0.749,0.061,1.057,0.182
		c0.309,0.122,0.567,0.299,0.777,0.532s0.37,0.519,0.479,0.854s0.165,0.721,0.165,1.154v4.571h-1.729v-4.571
		c0-0.457-0.101-0.801-0.301-1.032C54.56,8.915,54.266,8.8,53.879,8.8c-0.178,0-0.342,0.03-0.494,0.091
		c-0.151,0.062-0.284,0.148-0.398,0.263s-0.204,0.258-0.27,0.431s-0.099,0.371-0.099,0.595v4.571h-1.735v-4.571
		c0-0.48-0.097-0.83-0.291-1.05C50.398,8.91,50.115,8.8,49.741,8.8c-0.252,0-0.486,0.062-0.703,0.186
		c-0.217,0.124-0.419,0.293-0.605,0.508v5.257H46.703z"/>
	<path fill="#FFFFFF" d="M58.26,8.569c0.826-0.756,1.82-1.135,2.982-1.135c0.42,0,0.796,0.069,1.127,0.207s0.611,0.329,0.84,0.574
		s0.402,0.537,0.521,0.878s0.179,0.714,0.179,1.12v4.536h-0.784c-0.163,0-0.289-0.024-0.378-0.073s-0.158-0.148-0.21-0.298
		l-0.154-0.518c-0.182,0.163-0.359,0.307-0.531,0.43c-0.173,0.124-0.353,0.228-0.539,0.312s-0.387,0.148-0.599,0.193
		c-0.213,0.044-0.447,0.066-0.704,0.066c-0.303,0-0.583-0.041-0.84-0.123c-0.257-0.081-0.479-0.204-0.665-0.367
		s-0.331-0.366-0.434-0.609c-0.103-0.242-0.154-0.524-0.154-0.847c0-0.182,0.03-0.363,0.091-0.543
		c0.061-0.179,0.16-0.351,0.298-0.514c0.138-0.164,0.316-0.317,0.535-0.462c0.22-0.146,0.489-0.271,0.809-0.379
		c0.32-0.106,0.692-0.194,1.117-0.262c0.424-0.068,0.909-0.108,1.456-0.123v-0.42c0-0.48-0.104-0.836-0.309-1.067
		S61.412,8.8,61.025,8.8c-0.28,0-0.513,0.033-0.696,0.099c-0.185,0.065-0.347,0.139-0.487,0.22c-0.14,0.082-0.267,0.155-0.381,0.221
		s-0.242,0.098-0.382,0.098c-0.121,0-0.224-0.031-0.308-0.094c-0.084-0.063-0.152-0.137-0.203-0.221L58.26,8.569z M62.223,11.684
		c-0.5,0.023-0.92,0.067-1.261,0.13c-0.341,0.063-0.613,0.144-0.818,0.241c-0.206,0.099-0.353,0.213-0.441,0.344
		c-0.089,0.13-0.133,0.272-0.133,0.427c0,0.303,0.09,0.521,0.27,0.65c0.18,0.131,0.414,0.196,0.703,0.196
		c0.354,0,0.662-0.064,0.921-0.192s0.512-0.323,0.76-0.585V11.684z"/>
	<path fill="#FFFFFF" d="M67.563,5.475c0,0.149-0.03,0.29-0.091,0.42c-0.061,0.131-0.142,0.245-0.241,0.344
		c-0.101,0.098-0.219,0.176-0.354,0.234c-0.136,0.059-0.28,0.087-0.435,0.087c-0.149,0-0.29-0.028-0.423-0.087
		c-0.134-0.059-0.249-0.137-0.347-0.234c-0.098-0.099-0.177-0.213-0.234-0.344c-0.059-0.13-0.088-0.271-0.088-0.42
		c0-0.153,0.029-0.298,0.088-0.434c0.058-0.136,0.137-0.252,0.234-0.35c0.098-0.099,0.213-0.177,0.347-0.235
		c0.133-0.058,0.273-0.087,0.423-0.087c0.154,0,0.299,0.029,0.435,0.087c0.135,0.059,0.253,0.137,0.354,0.235
		c0.1,0.098,0.181,0.214,0.241,0.35S67.563,5.321,67.563,5.475z M67.326,7.568v7.182H65.59V7.568H67.326z"/>
	<path fill="#FFFFFF" d="M73.472,8.968c-0.047,0.075-0.096,0.127-0.147,0.158c-0.052,0.03-0.116,0.045-0.196,0.045
		c-0.084,0-0.174-0.023-0.27-0.07c-0.096-0.046-0.206-0.099-0.332-0.157s-0.27-0.11-0.431-0.157s-0.351-0.07-0.57-0.07
		c-0.341,0-0.608,0.072-0.802,0.217c-0.193,0.146-0.29,0.334-0.29,0.567c0,0.154,0.05,0.283,0.15,0.389
		c0.101,0.104,0.233,0.197,0.398,0.276c0.166,0.079,0.354,0.15,0.563,0.214c0.211,0.062,0.424,0.132,0.641,0.206
		c0.218,0.075,0.431,0.16,0.641,0.256s0.398,0.217,0.563,0.363c0.166,0.147,0.299,0.323,0.399,0.529
		c0.101,0.205,0.15,0.452,0.15,0.741c0,0.346-0.062,0.664-0.186,0.956s-0.307,0.544-0.55,0.756
		c-0.242,0.212-0.542,0.378-0.899,0.497c-0.356,0.119-0.769,0.179-1.235,0.179c-0.247,0-0.489-0.022-0.725-0.066
		c-0.235-0.045-0.462-0.106-0.679-0.186c-0.217-0.08-0.418-0.173-0.603-0.28c-0.184-0.107-0.346-0.224-0.486-0.35l0.399-0.658
		c0.051-0.079,0.111-0.141,0.182-0.183s0.159-0.062,0.267-0.062c0.106,0,0.208,0.03,0.304,0.091s0.207,0.126,0.333,0.196
		c0.126,0.069,0.274,0.135,0.444,0.195c0.17,0.062,0.386,0.092,0.647,0.092c0.205,0,0.382-0.024,0.528-0.074
		c0.147-0.049,0.269-0.112,0.364-0.192c0.096-0.079,0.166-0.171,0.21-0.276c0.044-0.104,0.066-0.214,0.066-0.325
		c0-0.168-0.05-0.306-0.15-0.413s-0.233-0.201-0.399-0.28c-0.165-0.079-0.354-0.15-0.566-0.213c-0.213-0.063-0.43-0.132-0.651-0.207
		c-0.222-0.074-0.438-0.162-0.65-0.263c-0.213-0.1-0.401-0.228-0.567-0.381c-0.166-0.154-0.299-0.344-0.399-0.567
		c-0.1-0.224-0.15-0.494-0.15-0.812c0-0.295,0.059-0.574,0.175-0.841c0.117-0.266,0.288-0.498,0.515-0.696s0.509-0.356,0.848-0.476
		c0.338-0.119,0.729-0.179,1.172-0.179c0.495,0,0.945,0.082,1.352,0.245c0.405,0.163,0.744,0.378,1.015,0.644L73.472,8.968z"/>
</g>
<g>
	<path fill="#FFFFFF" d="M12.059,11.838h-2.79v2.963H7.823v-2.963H5.048v-1.315h2.775V7.575h1.445v2.948h2.79V11.838z"/>
</g>
</svg>
