<?xml version="1.0" encoding="utf-8"?>
<!-- Generator: Adobe Illustrator 15.0.0, SVG Export Plug-In . SVG Version: 6.00 Build 0)  -->
<!DOCTYPE svg PUBLIC "-//W3C//DTD SVG 1.1//EN" "http://www.w3.org/Graphics/SVG/1.1/DTD/svg11.dtd">
<svg version="1.1" xmlns="http://www.w3.org/2000/svg" xmlns:xlink="http://www.w3.org/1999/xlink" x="0px" y="0px"
	 width="101.696px" height="16px" viewBox="1.214 0.905 101.696 16" enable-background="new 1.214 0.905 101.696 16"
	 xml:space="preserve">
<g id="Layer_2_1_">
</g>
<g id="Layer_1">
	<g id="Layer_2">
	</g>
	<g>
		<g>
			<rect x="1.214" y="0.905" fill="#FFFFFF" width="3.429" height="3.429"/>
			<rect x="6.357" y="0.905" fill="#FFFFFF" width="7.429" height="3.429"/>
		</g>
		<g>
			<rect x="1.214" y="7.19" fill="#FFFFFF" width="3.429" height="3.428"/>
			<rect x="6.357" y="7.19" fill="#FFFFFF" width="7.429" height="3.428"/>
		</g>
		<g>
			<rect x="1.214" y="13.476" fill="#FFFFFF" width="3.429" height="3.429"/>
			<rect x="6.357" y="13.476" fill="#FFFFFF" width="7.429" height="3.429"/>
		</g>
	</g>
	<g>
		<path fill="#FFFFFF" d="M30.07,14.085h-3.444v-0.406c0.187-0.074,0.373-0.138,0.56-0.188c0.187-0.052,0.378-0.101,0.574-0.147
			v-6.3l0.056-1.638h-0.111l-0.462,1.498l-2.87,7.183h-0.364l-2.729-7.183l-0.505-1.638h-0.126l0.015,1.778v6.3
			c0.177,0.037,0.354,0.084,0.532,0.141c0.177,0.056,0.354,0.121,0.531,0.195v0.406H18.8v-0.406
			c0.178-0.074,0.361-0.142,0.553-0.203c0.191-0.061,0.386-0.109,0.581-0.146V5.041c-0.195-0.037-0.39-0.086-0.581-0.147
			s-0.38-0.128-0.566-0.203V4.285h2.87l2.436,6.399l0.477,1.441h0.014l0.476-1.471l2.521-6.37h2.506V4.69
			c-0.168,0.075-0.341,0.143-0.519,0.203c-0.177,0.061-0.359,0.11-0.546,0.147v8.317c0.196,0.037,0.381,0.081,0.554,0.133
			c0.172,0.051,0.338,0.114,0.497,0.188V14.085z"/>
		<path fill="#FFFFFF" d="M36.762,13.104c-0.075,0.159-0.191,0.309-0.351,0.448c-0.158,0.141-0.341,0.262-0.546,0.364
			s-0.429,0.185-0.672,0.245c-0.242,0.061-0.49,0.091-0.742,0.091c-0.551,0-1.035-0.086-1.456-0.259
			c-0.42-0.173-0.77-0.42-1.05-0.742c-0.279-0.322-0.492-0.707-0.637-1.155s-0.217-0.952-0.217-1.512
			c0-1.195,0.275-2.104,0.826-2.73c0.55-0.625,1.33-0.938,2.338-0.938c0.326,0,0.648,0.044,0.966,0.133
			c0.317,0.089,0.6,0.236,0.847,0.441c0.247,0.206,0.448,0.479,0.603,0.819c0.153,0.341,0.23,0.763,0.23,1.268
			c0,0.158-0.007,0.319-0.021,0.483c-0.015,0.162-0.04,0.338-0.077,0.524h-4.368c0,0.392,0.049,0.759,0.147,1.099
			c0.098,0.342,0.244,0.638,0.44,0.89s0.443,0.45,0.742,0.595s0.648,0.217,1.05,0.217c0.327,0,0.658-0.047,0.994-0.14
			c0.336-0.094,0.588-0.215,0.756-0.364L36.762,13.104z M34.199,7.533c-0.531,0-0.938,0.18-1.218,0.539
			c-0.28,0.359-0.448,0.992-0.504,1.897h3.08c0.009-0.084,0.017-0.166,0.021-0.245c0.005-0.079,0.008-0.156,0.008-0.23
			c0-0.598-0.112-1.073-0.336-1.429C35.025,7.71,34.676,7.533,34.199,7.533z"/>
		<path fill="#FFFFFF" d="M38.638,11.312c0-0.588,0.014-1.164,0.042-1.729s0.042-1.127,0.042-1.688l-0.924-0.112V7.42
			c0.298-0.112,0.604-0.21,0.917-0.294c0.312-0.084,0.618-0.154,0.917-0.21h0.35c0,0.7-0.014,1.396-0.042,2.086
			s-0.042,1.377-0.042,2.058c0,0.364,0.021,0.691,0.063,0.98s0.116,0.532,0.224,0.728c0.107,0.196,0.254,0.349,0.441,0.455
			c0.187,0.107,0.424,0.161,0.714,0.161c0.42,0,0.771-0.151,1.057-0.455c0.285-0.303,0.506-0.697,0.665-1.183V7.896l-0.91-0.112
			V7.42c0.289-0.112,0.591-0.21,0.903-0.294s0.618-0.154,0.917-0.21h0.35v6.371l0.924,0.112v0.294
			c-0.271,0.121-0.543,0.229-0.818,0.321c-0.275,0.094-0.562,0.163-0.861,0.21h-0.35l-0.099-1.666h-0.056
			c-0.047,0.196-0.128,0.395-0.245,0.596c-0.116,0.2-0.269,0.383-0.455,0.546s-0.398,0.296-0.637,0.398s-0.497,0.154-0.777,0.154
			c-0.373,0-0.702-0.044-0.986-0.133c-0.285-0.089-0.525-0.245-0.722-0.469c-0.195-0.225-0.345-0.525-0.447-0.903
			C38.688,12.37,38.638,11.892,38.638,11.312z"/>
		<path fill="#FFFFFF" d="M49.726,12.489c0-0.262-0.082-0.483-0.245-0.665s-0.371-0.353-0.623-0.512
			c-0.252-0.158-0.521-0.312-0.805-0.461c-0.285-0.15-0.553-0.324-0.805-0.525s-0.46-0.432-0.623-0.693
			C46.461,9.371,46.38,9.05,46.38,8.667c0-0.252,0.058-0.485,0.175-0.701c0.116-0.214,0.273-0.399,0.469-0.553
			c0.196-0.154,0.425-0.275,0.687-0.364c0.261-0.088,0.541-0.133,0.84-0.133c0.504,0,0.917,0.028,1.239,0.084
			c0.321,0.056,0.632,0.135,0.931,0.238c-0.037,0.299-0.082,0.6-0.133,0.903c-0.052,0.304-0.124,0.614-0.217,0.931H50.02
			l-0.532-1.428c-0.111-0.047-0.237-0.077-0.378-0.091c-0.14-0.014-0.284-0.021-0.434-0.021c-0.168,0-0.315,0.03-0.441,0.091
			s-0.233,0.138-0.321,0.231c-0.089,0.093-0.157,0.201-0.203,0.322c-0.047,0.121-0.07,0.243-0.07,0.364
			c0,0.252,0.082,0.469,0.245,0.65c0.163,0.183,0.371,0.351,0.623,0.504c0.252,0.154,0.521,0.307,0.805,0.455
			c0.285,0.15,0.553,0.318,0.806,0.504c0.252,0.188,0.459,0.404,0.622,0.652c0.164,0.246,0.245,0.543,0.245,0.889
			c0,0.317-0.067,0.602-0.203,0.854c-0.135,0.252-0.321,0.467-0.56,0.645c-0.238,0.177-0.514,0.314-0.826,0.413
			c-0.312,0.098-0.646,0.146-1.001,0.146c-0.401,0-0.77-0.035-1.105-0.104c-0.336-0.07-0.687-0.171-1.051-0.302
			c0.019-0.336,0.062-0.66,0.126-0.973c0.065-0.312,0.149-0.613,0.253-0.903h0.35l0.616,1.526c0.103,0.074,0.226,0.117,0.371,0.126
			c0.145,0.01,0.277,0.014,0.398,0.014c0.411,0,0.742-0.111,0.994-0.336C49.6,13.077,49.726,12.807,49.726,12.489z"/>
		<path fill="#FFFFFF" d="M57.958,13.343c0.252,0.028,0.489,0.072,0.714,0.133c0.224,0.062,0.434,0.129,0.63,0.203v0.406h-3.836
			v-0.406c0.187-0.093,0.378-0.163,0.574-0.21c0.195-0.046,0.387-0.089,0.573-0.126V5.041c-0.215-0.037-0.415-0.086-0.602-0.147
			s-0.369-0.128-0.546-0.203V4.285h1.26c0.373,0,0.779-0.019,1.218-0.056c0.438-0.037,0.858-0.056,1.26-0.056
			c0.458,0,0.905,0.049,1.345,0.147c0.438,0.098,0.828,0.264,1.169,0.497c0.341,0.233,0.616,0.544,0.826,0.931
			s0.314,0.87,0.314,1.449c0,0.551-0.107,1.022-0.322,1.414c-0.215,0.393-0.501,0.715-0.86,0.967s-0.768,0.436-1.226,0.553
			c-0.457,0.116-0.929,0.175-1.414,0.175c-0.047,0-0.118,0-0.217,0c-0.098,0-0.203-0.002-0.314-0.007
			c-0.112-0.005-0.22-0.012-0.322-0.021c-0.103-0.01-0.178-0.02-0.224-0.028V13.343z M58.909,4.9c-0.224,0-0.405,0.005-0.546,0.014
			c-0.14,0.009-0.275,0.028-0.405,0.056v4.536c0.046,0.019,0.113,0.03,0.202,0.035s0.183,0.012,0.28,0.021
			c0.098,0.01,0.193,0.015,0.287,0.015c0.093,0,0.168,0,0.224,0c0.327,0,0.635-0.045,0.925-0.134
			c0.289-0.088,0.543-0.23,0.763-0.427c0.219-0.196,0.395-0.443,0.524-0.742c0.131-0.298,0.196-0.658,0.196-1.078
			c0-0.765-0.217-1.339-0.65-1.722C60.274,5.092,59.675,4.9,58.909,4.9z"/>
		<path fill="#FFFFFF" d="M69.228,13.104c-0.075,0.159-0.191,0.309-0.351,0.448c-0.158,0.141-0.341,0.262-0.546,0.364
			s-0.429,0.185-0.672,0.245c-0.242,0.061-0.49,0.091-0.742,0.091c-0.551,0-1.035-0.086-1.456-0.259
			c-0.42-0.173-0.77-0.42-1.05-0.742c-0.279-0.322-0.492-0.707-0.637-1.155s-0.217-0.952-0.217-1.512
			c0-1.195,0.275-2.104,0.826-2.73c0.55-0.625,1.33-0.938,2.338-0.938c0.326,0,0.648,0.044,0.966,0.133
			c0.317,0.089,0.6,0.236,0.847,0.441c0.247,0.206,0.448,0.479,0.603,0.819c0.153,0.341,0.23,0.763,0.23,1.268
			c0,0.158-0.007,0.319-0.021,0.483c-0.015,0.162-0.04,0.338-0.077,0.524h-4.368c0,0.392,0.049,0.759,0.147,1.099
			c0.098,0.342,0.244,0.638,0.44,0.89s0.443,0.45,0.742,0.595s0.648,0.217,1.05,0.217c0.327,0,0.658-0.047,0.994-0.14
			c0.336-0.094,0.588-0.215,0.756-0.364L69.228,13.104z M66.665,7.533c-0.531,0-0.938,0.18-1.218,0.539
			c-0.28,0.359-0.448,0.992-0.504,1.897h3.08c0.009-0.084,0.017-0.166,0.021-0.245c0.005-0.079,0.008-0.156,0.008-0.23
			c0-0.598-0.112-1.073-0.336-1.429C67.491,7.71,67.142,7.533,66.665,7.533z"/>
		<path fill="#FFFFFF" d="M75.247,12.699c-0.047,0.205-0.126,0.401-0.237,0.588c-0.112,0.187-0.25,0.353-0.413,0.497
			c-0.164,0.145-0.351,0.259-0.561,0.343s-0.437,0.126-0.679,0.126c-0.924,0-1.615-0.294-2.072-0.882S70.6,11.868,70.6,10.627
			c0-1.195,0.291-2.104,0.875-2.73c0.583-0.625,1.369-0.938,2.358-0.938c0.346,0,0.616,0.017,0.812,0.049
			c0.196,0.033,0.41,0.091,0.644,0.175V4.537l-1.063-0.112V4.061c0.271-0.112,0.585-0.21,0.944-0.294s0.703-0.154,1.029-0.21h0.351
			v9.73l0.924,0.112v0.294c-0.271,0.131-0.551,0.242-0.84,0.336c-0.29,0.093-0.574,0.158-0.854,0.195h-0.35l-0.126-1.525H75.247z
			 M73.638,13.385c0.457,0,0.821-0.145,1.092-0.434s0.457-0.682,0.56-1.176V7.827c-0.158-0.093-0.345-0.159-0.56-0.196
			c-0.215-0.037-0.49-0.056-0.826-0.056c-0.635,0-1.12,0.277-1.456,0.833c-0.336,0.555-0.504,1.295-0.504,2.219
			c0,0.383,0.032,0.74,0.098,1.07c0.065,0.332,0.168,0.624,0.309,0.876c0.14,0.252,0.314,0.45,0.524,0.595
			S73.339,13.385,73.638,13.385z"/>
		<path fill="#FFFFFF" d="M81.477,14.085h-3.107v-0.35c0.14-0.075,0.284-0.138,0.434-0.189c0.149-0.051,0.312-0.101,0.49-0.146
			V7.896l-0.924-0.112V7.42c0.271-0.112,0.564-0.21,0.882-0.294s0.635-0.154,0.952-0.21h0.35v6.483
			c0.187,0.046,0.354,0.096,0.504,0.146c0.149,0.052,0.289,0.114,0.42,0.189V14.085z M79.027,4.705c0-0.252,0.081-0.453,0.244-0.602
			c0.164-0.149,0.381-0.224,0.651-0.224s0.485,0.075,0.645,0.224c0.158,0.149,0.237,0.35,0.237,0.602s-0.079,0.45-0.237,0.595
			c-0.159,0.145-0.374,0.217-0.645,0.217s-0.487-0.072-0.651-0.217C79.108,5.155,79.027,4.957,79.027,4.705z"/>
		<path fill="#FFFFFF" d="M87.23,12.699c-0.047,0.205-0.126,0.401-0.237,0.588c-0.112,0.187-0.25,0.353-0.413,0.497
			c-0.164,0.145-0.351,0.259-0.561,0.343s-0.437,0.126-0.679,0.126c-0.924,0-1.615-0.294-2.072-0.882s-0.686-1.503-0.686-2.744
			c0-1.195,0.291-2.104,0.875-2.73c0.583-0.625,1.369-0.938,2.358-0.938c0.346,0,0.616,0.017,0.812,0.049
			c0.196,0.033,0.41,0.091,0.644,0.175V4.537l-1.063-0.112V4.061c0.271-0.112,0.585-0.21,0.944-0.294s0.703-0.154,1.029-0.21h0.351
			v9.73l0.924,0.112v0.294c-0.271,0.131-0.551,0.242-0.84,0.336c-0.29,0.093-0.574,0.158-0.854,0.195h-0.35l-0.126-1.525H87.23z
			 M85.621,13.385c0.457,0,0.821-0.145,1.092-0.434s0.457-0.682,0.56-1.176V7.827c-0.158-0.093-0.345-0.159-0.56-0.196
			c-0.215-0.037-0.49-0.056-0.826-0.056c-0.635,0-1.12,0.277-1.456,0.833c-0.336,0.555-0.504,1.295-0.504,2.219
			c0,0.383,0.032,0.74,0.098,1.07c0.065,0.332,0.168,0.624,0.309,0.876c0.14,0.252,0.314,0.45,0.524,0.595
			S85.322,13.385,85.621,13.385z"/>
		<path fill="#FFFFFF" d="M90.354,10.585c0-0.588,0.077-1.108,0.23-1.562c0.154-0.452,0.376-0.835,0.665-1.148
			c0.289-0.312,0.638-0.551,1.043-0.714c0.406-0.164,0.856-0.245,1.352-0.245c0.578,0,1.078,0.089,1.498,0.266
			s0.763,0.427,1.028,0.749c0.267,0.322,0.462,0.707,0.588,1.155c0.127,0.448,0.189,0.947,0.189,1.498
			c0,1.176-0.299,2.081-0.896,2.716c-0.598,0.635-1.4,0.952-2.408,0.952c-0.561,0-1.046-0.086-1.456-0.259
			c-0.411-0.173-0.752-0.42-1.022-0.742s-0.474-0.709-0.608-1.162C90.421,11.637,90.354,11.136,90.354,10.585z M91.697,10.585
			c0,0.42,0.04,0.817,0.119,1.19s0.205,0.697,0.378,0.973s0.399,0.492,0.679,0.651c0.28,0.158,0.616,0.237,1.008,0.237
			c0.505,0,0.917-0.247,1.239-0.742c0.322-0.494,0.483-1.264,0.483-2.31c0-0.429-0.04-0.828-0.119-1.197
			c-0.079-0.368-0.203-0.69-0.371-0.966S94.73,7.929,94.47,7.771c-0.262-0.159-0.574-0.238-0.938-0.238
			c-0.551,0-0.994,0.247-1.33,0.742C91.865,8.77,91.697,9.539,91.697,10.585z"/>
		<path fill="#FFFFFF" d="M101.65,12.489c0-0.262-0.082-0.483-0.245-0.665s-0.371-0.353-0.623-0.512
			c-0.252-0.158-0.521-0.312-0.805-0.461c-0.285-0.15-0.553-0.324-0.805-0.525s-0.46-0.432-0.623-0.693
			c-0.164-0.262-0.245-0.583-0.245-0.966c0-0.252,0.058-0.485,0.175-0.701c0.116-0.214,0.273-0.399,0.469-0.553
			c0.196-0.154,0.425-0.275,0.687-0.364c0.261-0.088,0.541-0.133,0.84-0.133c0.504,0,0.917,0.028,1.239,0.084
			c0.321,0.056,0.632,0.135,0.931,0.238c-0.037,0.299-0.082,0.6-0.133,0.903c-0.052,0.304-0.124,0.614-0.217,0.931h-0.351
			l-0.532-1.428c-0.111-0.047-0.237-0.077-0.378-0.091c-0.14-0.014-0.284-0.021-0.434-0.021c-0.168,0-0.315,0.03-0.441,0.091
			s-0.233,0.138-0.321,0.231c-0.089,0.093-0.157,0.201-0.203,0.322c-0.047,0.121-0.07,0.243-0.07,0.364
			c0,0.252,0.082,0.469,0.245,0.65c0.163,0.183,0.371,0.351,0.623,0.504c0.252,0.154,0.521,0.307,0.805,0.455
			c0.285,0.15,0.553,0.318,0.806,0.504c0.252,0.188,0.459,0.404,0.622,0.652c0.164,0.246,0.245,0.543,0.245,0.889
			c0,0.317-0.067,0.602-0.203,0.854c-0.135,0.252-0.321,0.467-0.56,0.645c-0.238,0.177-0.514,0.314-0.826,0.413
			c-0.312,0.098-0.646,0.146-1.001,0.146c-0.401,0-0.77-0.035-1.105-0.104c-0.336-0.07-0.687-0.171-1.051-0.302
			c0.019-0.336,0.062-0.66,0.126-0.973c0.065-0.312,0.149-0.613,0.253-0.903h0.35l0.616,1.526c0.103,0.074,0.226,0.117,0.371,0.126
			c0.145,0.01,0.277,0.014,0.398,0.014c0.411,0,0.742-0.111,0.994-0.336C101.524,13.077,101.65,12.807,101.65,12.489z"/>
	</g>
</g>
</svg>
