<?xml version="1.0" encoding="utf-8"?>
<!-- Generator: Adobe Illustrator 15.0.0, SVG Export Plug-In . SVG Version: 6.00 Build 0)  -->
<!DOCTYPE svg PUBLIC "-//W3C//DTD SVG 1.1//EN" "http://www.w3.org/Graphics/SVG/1.1/DTD/svg11.dtd">
<svg version="1.1" xmlns="http://www.w3.org/2000/svg" xmlns:xlink="http://www.w3.org/1999/xlink" x="0px" y="0px" width="33px"
	 height="28.908px" viewBox="836.518 829.113 33 28.908" enable-background="new 836.518 829.113 33 28.908" xml:space="preserve">
<g id="Layer_3">
</g>
<g id="Layer_2">
	<path fill="#FFD445" d="M856.33,846.976c0,0,0.042,0.735-0.866,0.735h-11.44c-0.135-0.01-0.271-0.02-0.412-0.02
		c-2.85,0-5.162,2.311-5.162,5.163c0,2.852,2.312,5.166,5.162,5.166c2.854,0,5.166-2.314,5.166-5.166
		c0-0.625-0.116-1.219-0.319-1.772h4.032c-0.203,0.554-0.319,1.147-0.319,1.772c0,2.852,2.312,5.166,5.165,5.166
		s5.163-2.314,5.163-5.166c0-2.018-1.157-3.758-2.843-4.608l3.493-15.747h4.677l0,0c0.935,0,1.691-0.757,1.691-1.693
		c0-0.935-0.757-1.694-1.691-1.694h-6.791c0,0-1.25,0.053-1.25,1.697v1.729h-22.35c0,0-1.774,0.476-0.39,3.328l4.883,9.035h13.531
		c0,0,0.867-0.042,0.867,0.78L856.33,846.976z M855.596,852.855c0-0.961,0.78-1.737,1.74-1.737s1.74,0.776,1.74,1.737
		c0,0.96-0.78,1.737-1.74,1.737S855.596,853.815,855.596,852.855z M843.611,851.118c0.962,0,1.742,0.776,1.742,1.737
		c0,0.96-0.78,1.737-1.742,1.737c-0.96,0-1.737-0.777-1.737-1.737C841.874,851.894,842.651,851.118,843.611,851.118z"/>
</g>
</svg>
