<?xml version="1.0" encoding="utf-8"?>
<!-- Generator: Adobe Illustrator 15.0.0, SVG Export Plug-In . SVG Version: 6.00 Build 0)  -->
<!DOCTYPE svg PUBLIC "-//W3C//DTD SVG 1.1//EN" "http://www.w3.org/Graphics/SVG/1.1/DTD/svg11.dtd">
<svg version="1.1" xmlns="http://www.w3.org/2000/svg" xmlns:xlink="http://www.w3.org/1999/xlink" x="0px" y="0px"
	 width="102.508px" height="16px" viewBox="0.724 -0.462 102.508 16" enable-background="new 0.724 -0.462 102.508 16"
	 xml:space="preserve">
<g id="Layer_2_1_">
</g>
<g id="Layer_1">
	<g id="Layer_2_2_">
	</g>
	<g>
		<path fill="#FFFFFF" d="M29.58,12.718h-3.444v-0.406c0.187-0.074,0.373-0.138,0.56-0.188c0.187-0.052,0.378-0.101,0.574-0.147
			v-6.3l0.056-1.638h-0.111l-0.462,1.498l-2.87,7.183h-0.364l-2.729-7.183l-0.505-1.638h-0.126l0.015,1.778v6.3
			c0.177,0.037,0.354,0.084,0.532,0.141c0.177,0.056,0.354,0.121,0.531,0.195v0.406H18.31v-0.406
			c0.178-0.074,0.361-0.142,0.553-0.203c0.191-0.061,0.386-0.109,0.581-0.146V3.673c-0.195-0.037-0.39-0.086-0.581-0.147
			s-0.38-0.128-0.566-0.203V2.917h2.87l2.436,6.399l0.477,1.441h0.014l0.476-1.47l2.521-6.371h2.506v0.406
			c-0.168,0.075-0.341,0.143-0.519,0.203c-0.177,0.061-0.359,0.11-0.546,0.147v8.317c0.196,0.037,0.381,0.081,0.554,0.133
			c0.172,0.051,0.338,0.114,0.497,0.188V12.718z"/>
		<path fill="#FFFFFF" d="M36.271,11.737c-0.075,0.159-0.191,0.309-0.351,0.448c-0.158,0.141-0.341,0.262-0.546,0.364
			s-0.429,0.185-0.672,0.245c-0.242,0.061-0.49,0.091-0.742,0.091c-0.551,0-1.035-0.086-1.456-0.259
			c-0.42-0.173-0.77-0.42-1.05-0.742c-0.279-0.322-0.492-0.707-0.637-1.155c-0.145-0.447-0.217-0.952-0.217-1.512
			c0-1.194,0.275-2.105,0.826-2.73c0.55-0.625,1.33-0.938,2.338-0.938c0.326,0,0.648,0.044,0.966,0.133
			c0.317,0.089,0.6,0.236,0.847,0.441c0.247,0.206,0.448,0.479,0.603,0.819c0.153,0.341,0.23,0.763,0.23,1.268
			c0,0.159-0.007,0.32-0.021,0.483c-0.015,0.163-0.04,0.338-0.077,0.524h-4.368c0,0.392,0.049,0.759,0.147,1.099
			c0.098,0.341,0.244,0.638,0.44,0.89s0.443,0.45,0.742,0.595s0.648,0.217,1.05,0.217c0.327,0,0.658-0.047,0.994-0.14
			c0.336-0.094,0.588-0.215,0.756-0.364L36.271,11.737z M33.709,6.166c-0.531,0-0.938,0.18-1.218,0.539
			c-0.28,0.359-0.448,0.992-0.504,1.897h3.08c0.009-0.084,0.017-0.165,0.021-0.244c0.005-0.08,0.008-0.156,0.008-0.231
			c0-0.598-0.112-1.074-0.336-1.429C34.535,6.343,34.186,6.166,33.709,6.166z"/>
		<path fill="#FFFFFF" d="M38.147,9.945c0-0.587,0.014-1.163,0.042-1.729c0.028-0.565,0.042-1.127,0.042-1.688l-0.924-0.112V6.053
			c0.298-0.112,0.604-0.21,0.917-0.294c0.312-0.084,0.618-0.154,0.917-0.21h0.35c0,0.7-0.014,1.396-0.042,2.086
			c-0.028,0.692-0.042,1.377-0.042,2.058c0,0.364,0.021,0.691,0.063,0.98s0.116,0.532,0.224,0.728
			c0.107,0.196,0.254,0.349,0.441,0.455c0.187,0.107,0.424,0.161,0.714,0.161c0.42,0,0.771-0.151,1.057-0.455
			c0.285-0.303,0.506-0.697,0.665-1.183V6.529l-0.91-0.112V6.053c0.289-0.112,0.591-0.21,0.903-0.294s0.618-0.154,0.917-0.21h0.35
			v6.371l0.924,0.112v0.294c-0.271,0.121-0.543,0.229-0.818,0.321c-0.275,0.094-0.562,0.163-0.861,0.21h-0.35l-0.099-1.666h-0.056
			c-0.047,0.196-0.128,0.395-0.245,0.596c-0.116,0.2-0.269,0.383-0.455,0.546s-0.398,0.296-0.637,0.398s-0.497,0.154-0.777,0.154
			c-0.373,0-0.702-0.044-0.986-0.133c-0.285-0.089-0.525-0.245-0.722-0.469c-0.195-0.225-0.345-0.525-0.447-0.903
			C38.198,11.003,38.147,10.524,38.147,9.945z"/>
		<path fill="#FFFFFF" d="M56.165,10.17h0.364c0.046,0.262,0.088,0.59,0.126,0.987c0.037,0.396,0.046,0.781,0.027,1.154
			c-0.14,0.112-0.308,0.203-0.504,0.273c-0.196,0.069-0.403,0.128-0.623,0.175c-0.219,0.047-0.443,0.079-0.672,0.098
			s-0.445,0.028-0.651,0.028c-0.783,0-1.483-0.101-2.1-0.301c-0.616-0.201-1.137-0.507-1.561-0.917
			c-0.425-0.411-0.752-0.936-0.98-1.575c-0.229-0.639-0.343-1.397-0.343-2.275c0-0.915,0.126-1.692,0.378-2.331
			s0.593-1.162,1.021-1.568c0.43-0.406,0.929-0.702,1.498-0.889c0.569-0.187,1.167-0.28,1.792-0.28c0.616,0,1.135,0.04,1.555,0.119
			c0.42,0.08,0.788,0.199,1.105,0.357c0,0.149-0.005,0.325-0.014,0.525c-0.01,0.201-0.023,0.413-0.042,0.637
			s-0.042,0.443-0.07,0.658c-0.027,0.215-0.056,0.411-0.084,0.588h-0.364l-0.728-2.016c-0.103-0.056-0.272-0.093-0.51-0.112
			s-0.472-0.028-0.704-0.028c-0.466,0-0.905,0.086-1.319,0.259s-0.777,0.439-1.089,0.798c-0.312,0.359-0.561,0.812-0.747,1.358
			c-0.186,0.546-0.279,1.188-0.279,1.925c0,0.663,0.084,1.263,0.252,1.8c0.167,0.536,0.409,0.993,0.726,1.372
			c0.316,0.378,0.703,0.667,1.159,0.867c0.455,0.201,0.972,0.302,1.549,0.302c0.308,0,0.563-0.023,0.768-0.07
			c0.205-0.047,0.34-0.107,0.405-0.182L56.165,10.17z"/>
		<path fill="#FFFFFF" d="M63.264,10.884c0,0.205,0.004,0.383,0.014,0.532s0.019,0.308,0.028,0.476l0.966,0.141v0.294
			c-0.233,0.121-0.492,0.229-0.777,0.321c-0.284,0.094-0.558,0.163-0.818,0.21h-0.351c-0.093-0.214-0.149-0.45-0.168-0.707
			c-0.019-0.256-0.032-0.539-0.042-0.847h-0.069c-0.038,0.187-0.11,0.376-0.218,0.567s-0.247,0.361-0.42,0.511
			s-0.376,0.271-0.608,0.364c-0.233,0.093-0.5,0.14-0.799,0.14c-0.569,0-1.033-0.173-1.393-0.518
			c-0.359-0.346-0.539-0.799-0.539-1.358c0-0.429,0.086-0.781,0.259-1.057s0.428-0.492,0.764-0.651
			c0.336-0.158,0.751-0.272,1.246-0.343c0.494-0.07,1.068-0.124,1.722-0.161c0.037-0.401,0.049-0.763,0.035-1.085
			C62.08,7.39,62.029,7.115,61.94,6.886c-0.089-0.229-0.22-0.406-0.392-0.532c-0.173-0.126-0.399-0.189-0.68-0.189
			c-0.131,0-0.277,0.007-0.44,0.021C60.265,6.2,60.104,6.24,59.945,6.305l-0.658,1.68h-0.363c-0.094-0.28-0.176-0.569-0.245-0.868
			c-0.07-0.298-0.114-0.592-0.133-0.882c0.354-0.215,0.749-0.383,1.183-0.504c0.434-0.122,0.917-0.182,1.449-0.182
			c0.476,0,0.855,0.068,1.141,0.203s0.502,0.31,0.651,0.525c0.148,0.215,0.247,0.453,0.294,0.714
			c0.046,0.262,0.069,0.523,0.069,0.784c0,0.561-0.012,1.1-0.034,1.617C63.275,9.911,63.264,10.408,63.264,10.884z M60.562,12.018
			c0.233,0,0.438-0.047,0.616-0.14c0.177-0.094,0.326-0.205,0.447-0.336c0.122-0.131,0.22-0.264,0.295-0.399
			c0.074-0.135,0.126-0.249,0.153-0.343V9.33c-0.541,0-0.984,0.028-1.33,0.084c-0.345,0.056-0.616,0.145-0.812,0.266
			c-0.196,0.121-0.332,0.273-0.406,0.455c-0.075,0.182-0.112,0.39-0.112,0.623c0,0.401,0.103,0.712,0.309,0.931
			C59.927,11.908,60.207,12.018,60.562,12.018z"/>
		<path fill="#FFFFFF" d="M69.814,11.332c-0.047,0.205-0.126,0.401-0.237,0.588c-0.112,0.187-0.25,0.353-0.413,0.497
			c-0.164,0.145-0.351,0.259-0.561,0.343s-0.437,0.126-0.679,0.126c-0.924,0-1.615-0.294-2.072-0.882s-0.686-1.503-0.686-2.744
			c0-1.195,0.291-2.105,0.875-2.73c0.583-0.625,1.369-0.938,2.358-0.938c0.346,0,0.616,0.017,0.812,0.049
			c0.196,0.033,0.41,0.091,0.644,0.175V3.169l-1.063-0.112V2.693c0.271-0.112,0.585-0.21,0.944-0.294s0.703-0.154,1.029-0.21h0.351
			v9.73l0.924,0.112v0.294c-0.271,0.131-0.551,0.242-0.84,0.336c-0.29,0.093-0.574,0.158-0.854,0.195h-0.35l-0.126-1.525H69.814z
			 M68.205,12.018c0.457,0,0.821-0.145,1.092-0.434s0.457-0.682,0.56-1.176V6.459c-0.158-0.093-0.345-0.159-0.56-0.196
			c-0.215-0.037-0.49-0.056-0.826-0.056c-0.635,0-1.12,0.277-1.456,0.833c-0.336,0.555-0.504,1.295-0.504,2.219
			c0,0.383,0.032,0.74,0.098,1.071s0.168,0.623,0.309,0.875c0.14,0.252,0.314,0.45,0.524,0.595S67.906,12.018,68.205,12.018z"/>
		<path fill="#FFFFFF" d="M78.104,10.884c0,0.205,0.004,0.383,0.014,0.532s0.019,0.308,0.028,0.476l0.966,0.141v0.294
			c-0.233,0.121-0.492,0.229-0.777,0.321c-0.284,0.094-0.558,0.163-0.818,0.21h-0.351c-0.093-0.214-0.149-0.45-0.168-0.707
			c-0.019-0.256-0.032-0.539-0.042-0.847h-0.069c-0.038,0.187-0.11,0.376-0.218,0.567s-0.247,0.361-0.42,0.511
			s-0.376,0.271-0.608,0.364c-0.233,0.093-0.5,0.14-0.799,0.14c-0.569,0-1.033-0.173-1.393-0.518
			c-0.359-0.346-0.539-0.799-0.539-1.358c0-0.429,0.086-0.781,0.259-1.057s0.428-0.492,0.764-0.651
			c0.336-0.158,0.751-0.272,1.246-0.343c0.494-0.07,1.068-0.124,1.722-0.161c0.037-0.401,0.049-0.763,0.035-1.085
			C76.92,7.39,76.869,7.115,76.78,6.886c-0.089-0.229-0.22-0.406-0.392-0.532c-0.173-0.126-0.399-0.189-0.68-0.189
			c-0.131,0-0.277,0.007-0.44,0.021C75.104,6.2,74.944,6.24,74.785,6.305l-0.658,1.68h-0.363c-0.094-0.28-0.176-0.569-0.245-0.868
			c-0.07-0.298-0.114-0.592-0.133-0.882c0.354-0.215,0.749-0.383,1.183-0.504c0.434-0.122,0.917-0.182,1.449-0.182
			c0.476,0,0.855,0.068,1.141,0.203s0.502,0.31,0.651,0.525c0.148,0.215,0.247,0.453,0.294,0.714
			c0.046,0.262,0.069,0.523,0.069,0.784c0,0.561-0.012,1.1-0.034,1.617C78.115,9.911,78.104,10.408,78.104,10.884z M75.401,12.018
			c0.233,0,0.438-0.047,0.616-0.14c0.177-0.094,0.326-0.205,0.447-0.336c0.122-0.131,0.22-0.264,0.295-0.399
			c0.074-0.135,0.126-0.249,0.153-0.343V9.33c-0.541,0-0.984,0.028-1.33,0.084c-0.345,0.056-0.616,0.145-0.812,0.266
			c-0.196,0.121-0.332,0.273-0.406,0.455c-0.075,0.182-0.112,0.39-0.112,0.623c0,0.401,0.103,0.712,0.309,0.931
			C74.767,11.908,75.047,12.018,75.401,12.018z"/>
		<path fill="#FFFFFF" d="M83.562,11.122c0-0.262-0.082-0.483-0.245-0.665c-0.163-0.183-0.371-0.353-0.623-0.512
			c-0.252-0.158-0.521-0.312-0.805-0.461c-0.285-0.149-0.553-0.324-0.805-0.525c-0.252-0.2-0.46-0.432-0.623-0.693
			c-0.164-0.262-0.245-0.583-0.245-0.966c0-0.252,0.058-0.485,0.175-0.7c0.116-0.214,0.273-0.399,0.469-0.553
			c0.196-0.154,0.425-0.275,0.687-0.364c0.261-0.088,0.541-0.133,0.84-0.133c0.504,0,0.917,0.028,1.239,0.084
			c0.321,0.056,0.632,0.135,0.931,0.238c-0.037,0.299-0.082,0.6-0.133,0.903c-0.052,0.303-0.124,0.614-0.217,0.931h-0.351
			l-0.532-1.428C83.213,6.23,83.087,6.2,82.946,6.187c-0.14-0.014-0.284-0.021-0.434-0.021c-0.168,0-0.315,0.03-0.441,0.091
			s-0.233,0.138-0.321,0.231c-0.089,0.093-0.157,0.201-0.203,0.322c-0.047,0.122-0.07,0.243-0.07,0.364
			c0,0.252,0.082,0.469,0.245,0.651c0.163,0.183,0.371,0.351,0.623,0.505s0.521,0.306,0.805,0.455
			c0.285,0.149,0.553,0.317,0.806,0.504c0.252,0.187,0.459,0.403,0.622,0.65c0.164,0.248,0.245,0.544,0.245,0.89
			c0,0.317-0.067,0.602-0.203,0.854c-0.135,0.252-0.321,0.467-0.56,0.645c-0.238,0.177-0.514,0.314-0.826,0.413
			c-0.312,0.098-0.646,0.146-1.001,0.146c-0.401,0-0.77-0.035-1.105-0.104c-0.336-0.07-0.687-0.171-1.051-0.302
			c0.019-0.336,0.062-0.66,0.126-0.973c0.065-0.312,0.149-0.613,0.253-0.903h0.35l0.616,1.526c0.103,0.074,0.226,0.117,0.371,0.126
			c0.145,0.01,0.277,0.014,0.398,0.014c0.411,0,0.742-0.111,0.994-0.336C83.437,11.71,83.562,11.439,83.562,11.122z"/>
		<path fill="#FFFFFF" d="M85.705,6.069c0.354-0.231,0.729-0.396,1.12-0.492v-1.19c0.121-0.093,0.264-0.184,0.427-0.273
			c0.163-0.088,0.324-0.166,0.483-0.231h0.35v1.834h2.101v0.728h-2.101v4.04c0,0.558,0.089,0.952,0.267,1.185
			c0.177,0.231,0.442,0.348,0.798,0.348c0.168,0,0.378-0.012,0.63-0.035c0.252-0.022,0.467-0.067,0.644-0.133l0.099,0.21
			c-0.075,0.084-0.181,0.173-0.315,0.267c-0.136,0.093-0.289,0.182-0.462,0.266s-0.362,0.154-0.567,0.21s-0.415,0.084-0.63,0.084
			c-0.56,0-0.986-0.158-1.28-0.474c-0.295-0.316-0.441-0.827-0.441-1.533V6.445h-1.12V6.069z"/>
		<path fill="#FFFFFF" d="M94.104,6.767c-0.103,0.056-0.231,0.17-0.385,0.343c-0.154,0.173-0.292,0.427-0.413,0.763v4.159
			c0.187,0.019,0.373,0.054,0.56,0.104c0.187,0.052,0.373,0.129,0.561,0.231v0.35h-3.305v-0.35c0.168-0.094,0.327-0.164,0.477-0.21
			c0.149-0.047,0.299-0.089,0.448-0.126V6.529l-0.925-0.112V6.053c0.299-0.13,0.607-0.235,0.925-0.315
			c0.316-0.079,0.62-0.142,0.909-0.189h0.351v1.484h0.056c0.084-0.187,0.203-0.373,0.357-0.56c0.153-0.187,0.331-0.354,0.532-0.504
			c0.2-0.149,0.42-0.264,0.657-0.343c0.238-0.08,0.483-0.105,0.735-0.077c0.065,0.122,0.124,0.254,0.175,0.399
			c0.052,0.145,0.101,0.296,0.147,0.455v0.364H94.104z"/>
		<path fill="#FFFFFF" d="M96.639,9.218c0-0.588,0.077-1.108,0.23-1.562c0.154-0.453,0.376-0.835,0.665-1.148
			c0.289-0.312,0.638-0.551,1.043-0.714c0.406-0.164,0.856-0.245,1.352-0.245c0.578,0,1.078,0.089,1.498,0.266
			s0.763,0.427,1.028,0.749c0.267,0.322,0.462,0.707,0.588,1.155c0.127,0.449,0.189,0.948,0.189,1.499
			c0,1.176-0.299,2.081-0.896,2.716c-0.598,0.635-1.4,0.952-2.408,0.952c-0.561,0-1.046-0.086-1.456-0.259
			c-0.411-0.173-0.752-0.42-1.022-0.742s-0.474-0.709-0.608-1.162C96.706,10.271,96.639,9.769,96.639,9.218z M97.982,9.218
			c0,0.42,0.04,0.816,0.119,1.19c0.079,0.373,0.205,0.697,0.378,0.973s0.399,0.492,0.679,0.651c0.28,0.158,0.616,0.237,1.008,0.237
			c0.505,0,0.917-0.247,1.239-0.742c0.322-0.494,0.483-1.265,0.483-2.31c0-0.429-0.04-0.828-0.119-1.196
			c-0.079-0.37-0.203-0.692-0.371-0.967c-0.168-0.275-0.383-0.492-0.644-0.651c-0.262-0.159-0.574-0.238-0.938-0.238
			c-0.551,0-0.994,0.247-1.33,0.742S97.982,8.173,97.982,9.218z"/>
	</g>
	<g id="Layer_1_2_">
		<path fill="#FFFFFF" d="M13.296,15.537c0,0-0.003-3.33,0-3.429c-0.01-0.37-0.156-1.073-0.422-1.42
			c-0.934-1.223-2.141-1.853-4.179-2.056C8.329,8.561,8.05,8.234,8.05,7.847c0-0.285,0.911-1.134,0.904-1.14
			c0.938-0.971,1.439-2.547,1.439-3.759c0-1.882-1.516-3.41-3.384-3.41c-1.871,0-3.385,1.528-3.385,3.41
			c0,1.22,0.49,2.804,1.439,3.775c0,0,0.906,0.839,0.906,1.124c0,0.409-0.311,0.751-0.71,0.797c-1.996,0.21-3.19,0.84-4.115,2.045
			c-0.267,0.347-0.412,1.05-0.421,1.42c0.002,0.099,0,3.429,0,3.429H13.296z"/>
	</g>
</g>
</svg>
