<?xml version="1.0" encoding="utf-8"?>
<!-- Generator: Adobe Illustrator 15.0.0, SVG Export Plug-In . SVG Version: 6.00 Build 0)  -->
<!DOCTYPE svg PUBLIC "-//W3C//DTD SVG 1.1//EN" "http://www.w3.org/Graphics/SVG/1.1/DTD/svg11.dtd">
<svg version="1.1" id="Layer_1" xmlns="http://www.w3.org/2000/svg" xmlns:xlink="http://www.w3.org/1999/xlink" x="0px" y="0px"
	 width="79px" height="33px" viewBox="0 0 79 33" enable-background="new 0 0 79 33" xml:space="preserve">
<g>
	<g id="Layer_2_1_">
		<g>
			<g>
				<path fill="#B9519F" d="M3.182,21.863c0,0.176-0.143,0.318-0.318,0.318H0.318c-0.175,0-0.317-0.143-0.317-0.318v-2.545
					C0.001,19.143,0.143,19,0.318,19h2.546c0.176,0,0.318,0.143,0.318,0.318V21.863z M10.999,21.863
					c0,0.176-0.145,0.318-0.318,0.318H4.454c-0.174,0-0.319-0.143-0.319-0.318v-2.545C4.135,19.143,4.28,19,4.454,19h6.227
					c0.174,0,0.318,0.143,0.318,0.318V21.863z"/>
			</g>
			<g>
				<path fill="#B9519F" d="M3.182,27.271c0,0.178-0.143,0.318-0.318,0.318H0.318c-0.175,0-0.317-0.141-0.317-0.318v-2.545
					c0-0.174,0.142-0.316,0.317-0.316h2.546c0.176,0,0.318,0.143,0.318,0.316V27.271z M10.999,27.271
					c0,0.178-0.145,0.318-0.318,0.318H4.454c-0.174,0-0.319-0.141-0.319-0.318v-2.543c0-0.178,0.145-0.318,0.319-0.318h6.227
					c0.174,0,0.318,0.141,0.318,0.318V27.271z"/>
			</g>
			<g>
				<path fill="#B9519F" d="M3.182,32.682C3.182,32.857,3.039,33,2.864,33H0.318c-0.175,0-0.317-0.145-0.317-0.318v-2.545
					c0-0.176,0.142-0.318,0.317-0.318h2.546c0.176,0,0.318,0.145,0.318,0.318V32.682z M10.999,32.682
					c0,0.176-0.145,0.318-0.318,0.318H4.454c-0.174,0-0.319-0.145-0.319-0.318v-2.545c0-0.178,0.145-0.318,0.319-0.318h6.227
					c0.174,0,0.318,0.141,0.318,0.318V32.682z"/>
			</g>
		</g>
		<g id="Layer_2_3_">
		</g>
		<g id="Layer_1_1_">
			<path fill="#B9519F" d="M10.997,14c0,0-0.004-2.913,0-3c-0.01-0.324-0.137-0.939-0.369-1.241C9.81,8.689,8.755,8.138,6.972,7.961
				c-0.32-0.064-0.564-0.349-0.564-0.688c0-0.25,0.799-0.997,0.791-1.001c0.82-0.85,1.258-2.228,1.258-3.289
				C8.457,1.338,7.133,0,5.5,0C3.861,0,2.537,1.338,2.537,2.983c0,1.068,0.432,2.453,1.258,3.302c0,0,0.793,0.739,0.793,0.988
				c0,0.357-0.271,0.656-0.622,0.696C2.22,8.153,1.178,8.704,0.368,9.759C0.134,10.061,0.007,10.677,0,11c0.001,0.086,0,3,0,3
				H10.997z"/>
		</g>
	</g>
	<g id="Layer_3">
		<g>
			<path fill="#B9519F" d="M18.628,21.691c0.553,0,1.033,0.064,1.441,0.193c0.408,0.127,0.746,0.309,1.014,0.543
				c0.268,0.232,0.467,0.516,0.598,0.848c0.129,0.334,0.193,0.701,0.193,1.105c0,0.402-0.068,0.773-0.209,1.111
				c-0.141,0.338-0.346,0.629-0.619,0.873c-0.271,0.244-0.609,0.436-1.016,0.568c-0.407,0.133-0.873,0.201-1.402,0.201h-1.332v3.174
				h-1.277v-8.617H18.628z M18.628,26.125c0.324,0,0.609-0.043,0.855-0.125c0.246-0.084,0.453-0.203,0.619-0.357
				s0.291-0.338,0.375-0.551c0.084-0.215,0.125-0.451,0.125-0.711c0-0.525-0.162-0.938-0.488-1.236
				c-0.326-0.301-0.822-0.451-1.486-0.451h-1.332v3.432H18.628z"/>
			<path fill="#B9519F" d="M28.589,29.27l-0.006,1.039h-5.34v-8.617h5.34v1.039h-4.057v2.729h3.264v1.002h-3.264v2.809H28.589z"/>
			<path fill="#B9519F" d="M37.65,26c0,0.645-0.104,1.23-0.311,1.758c-0.205,0.527-0.496,0.98-0.873,1.359
				c-0.375,0.377-0.826,0.67-1.35,0.879c-0.523,0.207-1.105,0.312-1.746,0.312h-3.24v-8.617h3.24c0.641,0,1.223,0.105,1.746,0.312
				c0.523,0.209,0.975,0.502,1.35,0.879c0.377,0.379,0.668,0.832,0.873,1.361C37.546,24.775,37.65,25.359,37.65,26z M36.341,26
				c0-0.512-0.07-0.971-0.211-1.377c-0.139-0.406-0.338-0.75-0.596-1.031c-0.258-0.283-0.57-0.498-0.938-0.646
				c-0.365-0.146-0.773-0.221-1.227-0.221h-1.954v6.551h1.955c0.453,0,0.861-0.074,1.227-0.221c0.367-0.148,0.68-0.363,0.938-0.646
				c0.258-0.281,0.457-0.625,0.596-1.029C36.271,26.977,36.341,26.516,36.341,26z"/>
			<path fill="#B9519F" d="M40.506,30.309h-1.285v-8.617h1.285V30.309z"/>
			<path fill="#B9519F" d="M50.111,26c0,0.645-0.104,1.23-0.309,1.758c-0.207,0.527-0.498,0.98-0.873,1.359
				c-0.377,0.377-0.826,0.67-1.35,0.879c-0.525,0.207-1.107,0.312-1.746,0.312h-3.24v-8.617h3.24c0.639,0,1.221,0.105,1.746,0.312
				c0.521,0.209,0.973,0.502,1.35,0.879c0.375,0.379,0.666,0.832,0.873,1.361C50.008,24.775,50.111,25.359,50.111,26z M48.803,26
				c0-0.512-0.068-0.971-0.209-1.377s-0.34-0.75-0.598-1.031c-0.258-0.283-0.57-0.498-0.938-0.646
				c-0.365-0.146-0.773-0.221-1.227-0.221h-1.957v6.551h1.957c0.451,0,0.861-0.074,1.227-0.221c0.367-0.148,0.68-0.363,0.938-0.646
				c0.258-0.281,0.457-0.625,0.598-1.029C48.734,26.977,48.803,26.516,48.803,26z"/>
			<path fill="#B9519F" d="M59.711,26c0,0.645-0.104,1.234-0.309,1.773c-0.207,0.537-0.496,1.002-0.873,1.391
				c-0.377,0.393-0.826,0.693-1.352,0.91c-0.521,0.215-1.104,0.324-1.746,0.324c-0.637,0-1.217-0.109-1.744-0.324
				c-0.523-0.217-0.975-0.52-1.35-0.91c-0.373-0.389-0.664-0.854-0.873-1.391c-0.207-0.539-0.311-1.129-0.311-1.773
				c0-0.641,0.104-1.23,0.311-1.77c0.209-0.541,0.5-1.006,0.873-1.396c0.375-0.389,0.824-0.693,1.35-0.91
				c0.527-0.219,1.107-0.328,1.744-0.328c0.643,0,1.225,0.109,1.746,0.328c0.523,0.217,0.975,0.521,1.352,0.91
				c0.377,0.391,0.666,0.855,0.873,1.396C59.607,24.77,59.711,25.359,59.711,26z M58.404,26c0-0.512-0.07-0.973-0.211-1.381
				c-0.141-0.406-0.34-0.754-0.598-1.037s-0.57-0.502-0.936-0.654c-0.367-0.152-0.775-0.229-1.229-0.229s-0.859,0.076-1.227,0.229
				s-0.68,0.371-0.939,0.654s-0.461,0.631-0.6,1.037c-0.141,0.408-0.211,0.869-0.211,1.381c0,0.516,0.07,0.977,0.211,1.383
				c0.139,0.406,0.34,0.752,0.6,1.035c0.262,0.283,0.572,0.5,0.939,0.65c0.365,0.15,0.773,0.225,1.227,0.225
				c0.451,0,0.861-0.074,1.229-0.225c0.365-0.152,0.678-0.367,0.936-0.65s0.457-0.629,0.598-1.035S58.404,26.516,58.404,26z"/>
			<path fill="#B9519F" d="M65.734,23.096c-0.039,0.068-0.082,0.119-0.125,0.15c-0.045,0.031-0.1,0.047-0.168,0.047
				c-0.072,0-0.154-0.031-0.246-0.098s-0.207-0.141-0.346-0.223c-0.137-0.082-0.303-0.156-0.494-0.223
				c-0.191-0.064-0.422-0.098-0.689-0.098c-0.252,0-0.473,0.033-0.664,0.098c-0.189,0.066-0.348,0.156-0.477,0.271
				c-0.127,0.113-0.225,0.248-0.291,0.402c-0.066,0.152-0.1,0.32-0.1,0.5c0,0.232,0.061,0.424,0.178,0.576s0.273,0.281,0.465,0.391
				c0.191,0.107,0.41,0.201,0.654,0.281s0.494,0.162,0.75,0.25c0.256,0.086,0.506,0.184,0.75,0.297
				c0.244,0.111,0.461,0.252,0.654,0.422c0.191,0.17,0.346,0.379,0.465,0.625c0.117,0.246,0.176,0.547,0.176,0.902
				c0,0.381-0.064,0.736-0.193,1.068c-0.131,0.332-0.32,0.621-0.568,0.869s-0.553,0.443-0.914,0.584
				c-0.359,0.143-0.771,0.215-1.23,0.215c-0.277,0-0.545-0.027-0.807-0.082c-0.26-0.055-0.506-0.129-0.736-0.229
				c-0.232-0.1-0.449-0.217-0.65-0.354c-0.203-0.139-0.383-0.293-0.543-0.465l0.365-0.611c0.037-0.049,0.08-0.088,0.129-0.121
				c0.051-0.031,0.105-0.047,0.172-0.047c0.084,0,0.18,0.043,0.291,0.131c0.109,0.09,0.246,0.186,0.408,0.291
				s0.354,0.203,0.582,0.291c0.225,0.09,0.5,0.133,0.822,0.133c0.266,0,0.5-0.035,0.709-0.105c0.207-0.07,0.383-0.17,0.523-0.299
				c0.143-0.131,0.252-0.287,0.328-0.471c0.076-0.186,0.113-0.389,0.113-0.613c0-0.252-0.059-0.457-0.174-0.617
				c-0.117-0.16-0.27-0.295-0.463-0.402c-0.191-0.107-0.408-0.199-0.652-0.275s-0.494-0.154-0.75-0.236s-0.506-0.178-0.75-0.285
				s-0.463-0.25-0.654-0.424c-0.193-0.174-0.346-0.391-0.463-0.654c-0.115-0.262-0.174-0.584-0.174-0.969
				c0-0.307,0.061-0.605,0.18-0.893c0.121-0.289,0.295-0.543,0.525-0.766s0.514-0.4,0.85-0.533c0.336-0.135,0.719-0.201,1.152-0.201
				c0.482,0,0.928,0.076,1.334,0.23s0.76,0.375,1.059,0.662L65.734,23.096z"/>
		</g>
		<g>
			<path fill="#B9519F" d="M22.536,9.459c0.072,0,0.134,0.028,0.187,0.084l0.504,0.552c-0.353,0.416-0.781,0.738-1.287,0.966
				c-0.506,0.228-1.115,0.342-1.827,0.342c-0.624,0-1.189-0.108-1.695-0.324c-0.506-0.216-0.938-0.518-1.296-0.906
				c-0.357-0.388-0.635-0.852-0.831-1.392c-0.195-0.54-0.294-1.134-0.294-1.782s0.104-1.242,0.31-1.782s0.495-1.004,0.866-1.392
				c0.372-0.388,0.817-0.69,1.335-0.906c0.519-0.216,1.092-0.324,1.72-0.324c0.611,0,1.155,0.1,1.632,0.3
				c0.476,0.2,0.89,0.466,1.242,0.798l-0.42,0.594c-0.028,0.044-0.063,0.08-0.105,0.108c-0.042,0.028-0.097,0.042-0.165,0.042
				c-0.076,0-0.165-0.038-0.267-0.114c-0.103-0.076-0.236-0.161-0.402-0.255c-0.166-0.094-0.371-0.179-0.615-0.255
				c-0.244-0.076-0.548-0.114-0.912-0.114c-0.428,0-0.819,0.075-1.176,0.225c-0.355,0.15-0.663,0.366-0.921,0.648
				c-0.258,0.282-0.458,0.628-0.6,1.038c-0.143,0.41-0.213,0.873-0.213,1.389c0,0.524,0.073,0.99,0.222,1.398
				c0.147,0.408,0.352,0.754,0.612,1.038c0.26,0.284,0.565,0.5,0.918,0.648c0.352,0.148,0.731,0.222,1.14,0.222
				c0.248,0,0.471-0.015,0.669-0.045c0.198-0.03,0.38-0.075,0.546-0.135s0.323-0.137,0.471-0.231
				c0.148-0.094,0.295-0.207,0.438-0.339c0.032-0.028,0.066-0.051,0.102-0.069C22.458,9.469,22.496,9.459,22.536,9.459z"/>
			<path fill="#B9519F" d="M31.584,11.307h-0.983c-0.112,0-0.204-0.028-0.276-0.084s-0.124-0.128-0.156-0.216l-0.762-1.998h-3.798
				l-0.762,1.999c-0.028,0.076-0.08,0.145-0.156,0.207c-0.076,0.062-0.168,0.093-0.276,0.093h-0.983l3.432-8.616h1.29L31.584,11.307
				z M29.059,8.098l-1.278-3.342c-0.092-0.228-0.185-0.516-0.276-0.864c-0.044,0.172-0.089,0.332-0.135,0.48
				s-0.091,0.28-0.135,0.396l-1.273,3.33H29.059z"/>
			<path fill="#B9519F" d="M40.141,6.999c0,0.644-0.104,1.23-0.309,1.758c-0.207,0.528-0.498,0.981-0.873,1.359
				c-0.377,0.378-0.826,0.671-1.352,0.879c-0.523,0.208-1.104,0.312-1.746,0.312h-3.239V2.691h3.239
				c0.641,0,1.222,0.104,1.746,0.312c0.524,0.208,0.975,0.501,1.352,0.879c0.375,0.378,0.666,0.832,0.873,1.362
				C40.037,5.775,40.141,6.36,40.141,6.999z M38.832,6.999c0-0.512-0.07-0.971-0.209-1.377c-0.141-0.406-0.34-0.75-0.598-1.032
				c-0.259-0.282-0.571-0.497-0.937-0.645c-0.367-0.148-0.775-0.222-1.228-0.222h-1.955v6.552h1.955
				c0.452,0,0.861-0.074,1.228-0.222c0.366-0.148,0.678-0.363,0.937-0.645c0.258-0.282,0.457-0.625,0.598-1.029
				C38.762,7.975,38.832,7.515,38.832,6.999z"/>
			<path fill="#B9519F" d="M48.576,11.307h-0.984c-0.111,0-0.203-0.028-0.275-0.084c-0.07-0.056-0.123-0.128-0.154-0.216
				l-0.764-1.998H42.6l-0.762,1.999c-0.027,0.076-0.08,0.145-0.156,0.207c-0.074,0.062-0.168,0.093-0.273,0.093h-0.984l3.432-8.616
				h1.289L48.576,11.307z M46.051,8.098l-1.279-3.342c-0.092-0.228-0.184-0.516-0.273-0.864c-0.045,0.172-0.09,0.332-0.135,0.48
				c-0.047,0.148-0.094,0.28-0.137,0.396l-1.271,3.33H46.051z"/>
			<path fill="#B9519F" d="M54.074,4.096c-0.041,0.068-0.082,0.118-0.127,0.15c-0.043,0.032-0.102,0.048-0.168,0.048
				c-0.072,0-0.154-0.033-0.246-0.099s-0.207-0.14-0.346-0.222s-0.303-0.156-0.494-0.222s-0.424-0.099-0.689-0.099
				c-0.252,0-0.473,0.033-0.664,0.099c-0.188,0.066-0.348,0.156-0.477,0.27c-0.127,0.114-0.227,0.248-0.291,0.402
				c-0.066,0.154-0.1,0.321-0.1,0.501c0,0.232,0.061,0.424,0.178,0.576c0.117,0.152,0.271,0.282,0.465,0.39
				c0.191,0.108,0.41,0.202,0.652,0.282c0.244,0.08,0.494,0.163,0.75,0.249c0.258,0.086,0.508,0.185,0.75,0.297
				c0.244,0.112,0.465,0.253,0.654,0.423c0.193,0.17,0.348,0.378,0.465,0.624c0.119,0.246,0.18,0.547,0.18,0.903
				c0,0.38-0.066,0.736-0.195,1.068c-0.131,0.332-0.32,0.622-0.568,0.87s-0.553,0.443-0.914,0.585
				c-0.361,0.142-0.771,0.213-1.232,0.213c-0.275,0-0.543-0.027-0.805-0.081c-0.26-0.054-0.506-0.13-0.736-0.228
				c-0.232-0.098-0.449-0.216-0.652-0.354c-0.201-0.138-0.383-0.293-0.543-0.465l0.367-0.612c0.035-0.048,0.078-0.088,0.129-0.12
				c0.049-0.032,0.105-0.048,0.17-0.048c0.084,0,0.182,0.044,0.291,0.132c0.111,0.088,0.246,0.185,0.408,0.291
				s0.355,0.203,0.582,0.291c0.227,0.088,0.502,0.132,0.826,0.132c0.264,0,0.5-0.035,0.707-0.105c0.207-0.07,0.383-0.17,0.523-0.3
				c0.143-0.13,0.252-0.287,0.328-0.471c0.076-0.184,0.113-0.388,0.113-0.612c0-0.252-0.059-0.458-0.174-0.618
				c-0.115-0.16-0.271-0.294-0.463-0.402s-0.408-0.2-0.652-0.276s-0.494-0.155-0.75-0.237s-0.506-0.177-0.75-0.285
				s-0.463-0.249-0.654-0.423c-0.193-0.174-0.346-0.392-0.463-0.654c-0.115-0.262-0.174-0.585-0.174-0.969
				c0-0.308,0.061-0.606,0.18-0.894c0.121-0.288,0.295-0.543,0.525-0.765c0.229-0.222,0.514-0.4,0.85-0.534
				c0.336-0.134,0.719-0.201,1.152-0.201c0.482,0,0.928,0.077,1.334,0.231s0.76,0.375,1.059,0.663L54.074,4.096z"/>
			<path fill="#B9519F" d="M61.98,3.76h-2.734v7.548h-1.273V3.76h-2.748V2.692h6.758V3.76H61.98z"/>
			<path fill="#B9519F" d="M69.648,11.307h-1.141c-0.227,0-0.393-0.09-0.498-0.27l-2.129-2.988c-0.068-0.1-0.143-0.171-0.223-0.213
				s-0.199-0.063-0.359-0.063h-0.834v3.534h-1.279V2.691h2.484c0.557,0,1.035,0.057,1.438,0.171
				c0.402,0.114,0.734,0.276,0.996,0.486s0.455,0.463,0.582,0.759c0.125,0.296,0.189,0.628,0.189,0.996
				c0,0.3-0.047,0.582-0.139,0.846c-0.094,0.264-0.229,0.501-0.404,0.711c-0.178,0.21-0.396,0.391-0.652,0.543
				s-0.545,0.268-0.869,0.348c0.16,0.096,0.299,0.23,0.414,0.402L69.648,11.307z M65.629,6.844c0.328,0,0.617-0.04,0.867-0.12
				s0.459-0.193,0.627-0.339s0.293-0.32,0.377-0.522c0.084-0.202,0.127-0.425,0.127-0.669c0-0.496-0.164-0.87-0.49-1.122
				s-0.814-0.378-1.467-0.378h-1.205v3.15H65.629z"/>
			<path fill="#B9519F" d="M78.648,6.999c0,0.644-0.104,1.235-0.309,1.773c-0.207,0.538-0.498,1.002-0.873,1.392
				c-0.377,0.39-0.826,0.693-1.352,0.909c-0.523,0.216-1.105,0.324-1.746,0.324c-0.635,0-1.217-0.108-1.742-0.324
				c-0.525-0.216-0.977-0.519-1.35-0.909c-0.375-0.39-0.666-0.854-0.873-1.392c-0.209-0.538-0.312-1.129-0.312-1.773
				c0-0.64,0.104-1.23,0.312-1.77c0.207-0.54,0.498-1.005,0.873-1.395c0.373-0.39,0.822-0.694,1.35-0.912
				c0.525-0.218,1.107-0.327,1.742-0.327c0.641,0,1.223,0.109,1.746,0.327c0.523,0.218,0.975,0.522,1.352,0.912
				c0.375,0.39,0.666,0.855,0.873,1.395C78.545,5.769,78.648,6.36,78.648,6.999z M77.34,6.999c0-0.512-0.07-0.972-0.209-1.38
				c-0.141-0.408-0.34-0.754-0.598-1.038c-0.258-0.284-0.57-0.502-0.938-0.654c-0.367-0.152-0.773-0.228-1.227-0.228
				c-0.451,0-0.861,0.076-1.229,0.228c-0.365,0.152-0.678,0.37-0.938,0.654c-0.26,0.284-0.461,0.63-0.602,1.038
				c-0.139,0.408-0.209,0.868-0.209,1.38c0,0.516,0.07,0.977,0.209,1.383c0.141,0.406,0.342,0.751,0.602,1.035
				c0.26,0.284,0.572,0.501,0.938,0.651c0.367,0.15,0.775,0.225,1.229,0.225c0.451,0,0.859-0.075,1.227-0.225
				c0.367-0.15,0.68-0.367,0.938-0.651c0.258-0.284,0.457-0.629,0.598-1.035C77.27,7.976,77.34,7.515,77.34,6.999z"/>
		</g>
	</g>
	<g id="Layer_4">
	</g>
</g>
</svg>
