<?xml version="1.0" encoding="utf-8"?>
<!-- Generator: Adobe Illustrator 15.0.0, SVG Export Plug-In . SVG Version: 6.00 Build 0)  -->
<!DOCTYPE svg PUBLIC "-//W3C//DTD SVG 1.1//EN" "http://www.w3.org/Graphics/SVG/1.1/DTD/svg11.dtd">
<svg version="1.1" id="Layer_1" xmlns="http://www.w3.org/2000/svg" xmlns:xlink="http://www.w3.org/1999/xlink" x="0px" y="0px"
	 width="200px" height="50px" viewBox="0 0 200 50" enable-background="new 0 0 200 50" xml:space="preserve">
<circle display="none" fill="#FFFFFF" stroke="#41B1D8" stroke-linecap="round" stroke-linejoin="round" stroke-miterlimit="10" cx="18.514" cy="10.217" r="3.937"/>
<path display="none" fill="#FFFFFF" d="M33.154,21.163c-1.006,0-1.828,0.821-1.828,1.827v4.334c0,0.33-0.272,0.605-0.605,0.605
	c-0.34,0-0.614-0.275-0.614-0.605V21.24c0-1.012-0.815-1.827-1.827-1.827c-1.006,0-1.825,0.815-1.825,1.827v4.861
	c0,0.336-0.275,0.604-0.607,0.604c-0.34,0-0.615-0.271-0.615-0.604v-7.986c0-1.006-0.815-1.825-1.828-1.825
	c-1.011,0-1.826,0.819-1.826,1.825v7.986c0,0.336-0.273,0.604-0.613,0.604c-0.332,0-0.606-0.271-0.606-0.604V10.548
	c0-1.012-0.821-1.827-1.827-1.827c-1.012,0-1.826,0.814-1.826,1.827v21.649l-2.472-3.383c-0.731-1.123-2.16-1.504-3.208-0.854
	c-1.042,0.658-1.298,2.101-0.577,3.226c0,0,3.981,6.022,5.679,8.603c1.695,2.583,4.446,4.603,9.589,4.603
	c8.512,0,9.273-6.57,9.273-8.535V22.99C34.989,21.984,34.166,21.163,33.154,21.163z"/>
<g>
	<path fill="#B9519F" d="M200,45c0,2.762-2.238,5-5,5H5c-2.761,0-5-2.238-5-5V5c0-2.762,2.239-5,5-5h190c2.762,0,5,2.238,5,5V45z"/>
	<g>
		<g>
			<defs>
				<rect id="SVGID_1_" width="47.167" height="50"/>
			</defs>
			<clipPath id="SVGID_2_">
				<use xlink:href="#SVGID_1_"  overflow="visible"/>
			</clipPath>
			<path clip-path="url(#SVGID_2_)" fill="#A83B8D" d="M200,45c0,2.762-2.238,5-5,5H5c-2.761,0-5-2.238-5-5V5c0-2.762,2.239-5,5-5
				h190c2.762,0,5,2.238,5,5V45z"/>
		</g>
	</g>
	
		<circle fill="#FFFFFF" stroke="#C460AE" stroke-width="1.3674" stroke-linecap="round" stroke-linejoin="round" stroke-miterlimit="10" cx="18.514" cy="10.217" r="5.383"/>
	<path fill="#C460AE" d="M33.154,21.163c-1.006,0-1.828,0.821-1.828,1.827v4.334c0,0.33-0.272,0.605-0.605,0.605
		c-0.34,0-0.614-0.275-0.614-0.605V21.24c0-1.012-0.815-1.827-1.827-1.827c-1.006,0-1.825,0.815-1.825,1.827v4.861
		c0,0.336-0.275,0.604-0.607,0.604c-0.34,0-0.615-0.271-0.615-0.604v-7.986c0-1.006-0.815-1.825-1.828-1.825
		c-1.011,0-1.826,0.819-1.826,1.825v7.986c0,0.336-0.273,0.604-0.613,0.604c-0.332,0-0.606-0.271-0.606-0.604V10.548
		c0-1.012-0.821-1.827-1.827-1.827c-1.012,0-1.826,0.814-1.826,1.827v21.649l-2.472-3.383c-0.731-1.123-2.16-1.504-3.208-0.854
		c-1.042,0.658-1.298,2.101-0.577,3.226c0,0,3.981,6.022,5.679,8.603c1.695,2.583,4.446,4.603,9.589,4.603
		c8.512,0,9.273-6.57,9.273-8.535V22.99C34.989,21.984,34.166,21.163,33.154,21.163z"/>
	<g id="Layer_2">
		<g>
			<g enable-background="new    ">
				<path fill="#FFFFFF" d="M79.784,13.165c-0.08,0.14-0.165,0.242-0.255,0.305c-0.091,0.063-0.202,0.096-0.335,0.096
					c-0.141,0-0.292-0.052-0.455-0.155c-0.164-0.104-0.358-0.219-0.585-0.345c-0.228-0.127-0.492-0.242-0.796-0.346
					c-0.303-0.103-0.661-0.154-1.074-0.154c-0.374,0-0.7,0.045-0.98,0.135c-0.28,0.09-0.515,0.215-0.705,0.375
					c-0.189,0.16-0.331,0.352-0.425,0.575c-0.094,0.223-0.14,0.468-0.14,0.734c0,0.341,0.095,0.624,0.285,0.851
					c0.189,0.227,0.441,0.42,0.755,0.58c0.312,0.16,0.67,0.303,1.069,0.43c0.4,0.127,0.811,0.262,1.23,0.405s0.83,0.31,1.229,0.5
					c0.4,0.189,0.757,0.43,1.07,0.72s0.565,0.645,0.755,1.065c0.19,0.42,0.285,0.93,0.285,1.529c0,0.653-0.111,1.266-0.335,1.835
					c-0.224,0.57-0.55,1.067-0.98,1.49c-0.43,0.424-0.954,0.757-1.574,1c-0.62,0.243-1.33,0.365-2.13,0.365
					c-0.461,0-0.914-0.045-1.36-0.135c-0.447-0.091-0.875-0.219-1.285-0.386c-0.41-0.166-0.795-0.366-1.155-0.6
					c-0.359-0.233-0.68-0.493-0.96-0.78l0.79-1.29c0.066-0.093,0.153-0.171,0.26-0.234s0.221-0.096,0.341-0.096
					c0.166,0,0.347,0.068,0.54,0.205c0.193,0.137,0.423,0.289,0.689,0.455c0.267,0.167,0.578,0.318,0.936,0.455
					c0.356,0.137,0.784,0.205,1.284,0.205c0.767,0,1.36-0.182,1.78-0.545c0.42-0.363,0.63-0.885,0.63-1.565
					c0-0.38-0.095-0.689-0.285-0.93c-0.189-0.24-0.441-0.441-0.755-0.604c-0.313-0.164-0.67-0.302-1.069-0.415
					c-0.4-0.113-0.807-0.237-1.221-0.37c-0.413-0.134-0.819-0.294-1.22-0.48c-0.401-0.186-0.757-0.43-1.07-0.729
					c-0.313-0.301-0.564-0.676-0.755-1.125c-0.189-0.45-0.285-1.005-0.285-1.665c0-0.526,0.105-1.04,0.315-1.54
					s0.515-0.943,0.915-1.33c0.4-0.387,0.894-0.696,1.479-0.93c0.587-0.233,1.261-0.351,2.021-0.351c0.854,0,1.64,0.134,2.36,0.4
					c0.72,0.267,1.333,0.64,1.84,1.12L79.784,13.165z"/>
				<path fill="#FFFFFF" d="M85.754,12.675v4.011h5.06v2.069h-5.06v4.09h6.42v2.15h-9.12v-14.46h9.12v2.14H85.754z"/>
				<path fill="#FFFFFF" d="M103.023,22.775v2.22h-8.47v-14.46h2.689v12.24H103.023z"/>
				<path fill="#FFFFFF" d="M107.645,12.675v4.011h5.061v2.069h-5.061v4.09h6.42v2.15h-9.121v-14.46h9.121v2.14H107.645z"/>
				<path fill="#FFFFFF" d="M126.064,21.585c0.146,0,0.273,0.057,0.391,0.17l1.059,1.15c-0.586,0.727-1.309,1.283-2.164,1.67
					c-0.855,0.387-1.885,0.58-3.086,0.58c-1.072,0-2.037-0.184-2.895-0.55c-0.857-0.367-1.588-0.877-2.195-1.53
					c-0.605-0.653-1.072-1.434-1.395-2.34c-0.324-0.907-0.484-1.896-0.484-2.971c0-1.086,0.172-2.081,0.52-2.984
					c0.348-0.903,0.834-1.682,1.465-2.335c0.631-0.653,1.383-1.162,2.256-1.525c0.875-0.363,1.842-0.545,2.898-0.545
					s1.988,0.174,2.807,0.521s1.512,0.8,2.086,1.359l-0.9,1.25c-0.053,0.08-0.119,0.15-0.203,0.21
					c-0.086,0.061-0.197,0.09-0.346,0.09c-0.104,0-0.205-0.028-0.312-0.085c-0.105-0.057-0.225-0.126-0.35-0.21
					c-0.127-0.083-0.273-0.175-0.441-0.274c-0.166-0.101-0.357-0.191-0.58-0.275c-0.219-0.083-0.475-0.153-0.764-0.21
					c-0.291-0.057-0.625-0.085-1.006-0.085c-0.646,0-1.238,0.115-1.775,0.345c-0.535,0.23-0.998,0.563-1.385,1
					c-0.387,0.438-0.686,0.971-0.9,1.601c-0.213,0.63-0.316,1.349-0.316,2.154c0,0.813,0.113,1.537,0.346,2.171
					c0.229,0.633,0.543,1.166,0.936,1.6s0.857,0.765,1.391,0.995c0.533,0.229,1.105,0.345,1.719,0.345
					c0.367,0,0.699-0.02,0.996-0.06s0.57-0.104,0.82-0.19s0.486-0.198,0.709-0.335s0.445-0.305,0.666-0.505
					c0.066-0.06,0.135-0.108,0.209-0.146C125.908,21.604,125.984,21.585,126.064,21.585z"/>
				<path fill="#FFFFFF" d="M132.064,24.995h-2.701v-14.46h2.701V24.995z"/>
				<path fill="#FFFFFF" d="M149.084,17.765c0,1.061-0.176,2.042-0.525,2.945c-0.349,0.903-0.846,1.686-1.482,2.345
					c-0.643,0.66-1.41,1.176-2.312,1.546c-0.898,0.369-1.898,0.555-3,0.555c-1.094,0-2.09-0.186-2.99-0.555
					c-0.898-0.37-1.672-0.886-2.312-1.546c-0.646-0.659-1.145-1.441-1.496-2.345c-0.354-0.903-0.527-1.885-0.527-2.945
					s0.178-2.041,0.527-2.944c0.354-0.903,0.854-1.686,1.496-2.345c0.645-0.66,1.414-1.176,2.312-1.546
					c0.9-0.369,1.896-0.555,2.99-0.555c0.734,0,1.424,0.085,2.07,0.255s1.24,0.41,1.779,0.721c0.541,0.31,1.025,0.687,1.455,1.13
					s0.795,0.938,1.096,1.484c0.299,0.547,0.527,1.141,0.686,1.78C149.006,16.385,149.084,17.059,149.084,17.765z M146.334,17.765
					c0-0.793-0.107-1.505-0.32-2.135s-0.516-1.165-0.91-1.604c-0.393-0.44-0.871-0.776-1.436-1.011
					c-0.562-0.232-1.197-0.35-1.904-0.35s-1.342,0.117-1.904,0.35c-0.562,0.234-1.045,0.57-1.439,1.011
					c-0.396,0.439-0.701,0.975-0.914,1.604s-0.318,1.342-0.318,2.135c0,0.794,0.105,1.506,0.318,2.136
					c0.213,0.63,0.52,1.163,0.914,1.6s0.877,0.771,1.439,1.005c0.562,0.233,1.197,0.351,1.904,0.351s1.342-0.117,1.904-0.351
					c0.564-0.233,1.043-0.568,1.436-1.005c0.396-0.437,0.697-0.97,0.91-1.6C146.227,19.271,146.334,18.559,146.334,17.765z"/>
				<path fill="#FFFFFF" d="M163.645,10.535v14.46h-1.381c-0.213,0-0.391-0.035-0.535-0.105c-0.143-0.069-0.279-0.188-0.414-0.354
					l-7.551-9.64c0.041,0.439,0.062,0.847,0.062,1.22v8.88h-2.371v-14.46h1.41c0.111,0,0.213,0.005,0.295,0.015
					c0.084,0.011,0.156,0.03,0.221,0.061c0.062,0.029,0.125,0.073,0.188,0.13c0.059,0.057,0.127,0.132,0.199,0.225l7.58,9.681
					c-0.021-0.233-0.037-0.464-0.051-0.69c-0.014-0.227-0.021-0.437-0.021-0.63v-8.79h2.369V10.535z"/>
				<path fill="#FFFFFF" d="M169.564,12.675v4.011h5.059v2.069h-5.059v4.09h6.42v2.15h-9.121v-14.46h9.121v2.14H169.564z"/>
			</g>
			<g enable-background="new    ">
				<path fill="#FFFFFF" d="M117.037,31.007c0.396-0.378,0.826-0.659,1.291-0.847s0.975-0.28,1.529-0.28
					c0.406,0,0.766,0.065,1.078,0.199c0.312,0.134,0.574,0.319,0.791,0.557c0.215,0.238,0.377,0.523,0.484,0.854
					c0.107,0.33,0.166,0.697,0.166,1.099v4.536h-0.607c-0.139,0-0.238-0.021-0.311-0.066c-0.07-0.043-0.125-0.127-0.168-0.248
					l-0.146-0.623c-0.183,0.168-0.36,0.315-0.539,0.444c-0.178,0.128-0.362,0.237-0.558,0.329c-0.192,0.091-0.399,0.159-0.618,0.206
					c-0.222,0.047-0.464,0.069-0.729,0.069c-0.279,0-0.543-0.038-0.787-0.115c-0.246-0.076-0.459-0.194-0.643-0.354
					c-0.182-0.158-0.324-0.356-0.432-0.597c-0.104-0.237-0.156-0.517-0.156-0.833c0-0.279,0.076-0.55,0.229-0.811
					c0.15-0.258,0.398-0.489,0.74-0.694c0.346-0.205,0.791-0.373,1.346-0.504c0.553-0.131,1.232-0.205,2.041-0.226v-0.519
					c0-0.536-0.115-0.938-0.346-1.204c-0.229-0.266-0.562-0.398-1.008-0.398c-0.299,0-0.549,0.037-0.752,0.111
					c-0.203,0.075-0.379,0.158-0.523,0.25c-0.146,0.09-0.275,0.174-0.387,0.247c-0.107,0.075-0.223,0.112-0.34,0.112
					c-0.094,0-0.174-0.025-0.24-0.077c-0.066-0.051-0.121-0.112-0.166-0.183L117.037,31.007z M121.041,33.968
					c-0.555,0.019-1.027,0.062-1.414,0.13s-0.703,0.157-0.945,0.271c-0.242,0.109-0.418,0.242-0.523,0.396
					c-0.107,0.151-0.16,0.319-0.16,0.508c0,0.178,0.027,0.33,0.088,0.459c0.061,0.127,0.139,0.231,0.238,0.313
					c0.1,0.081,0.217,0.142,0.354,0.179s0.281,0.057,0.439,0.057c0.211,0,0.4-0.021,0.576-0.062
					c0.178-0.042,0.342-0.102,0.494-0.179c0.154-0.076,0.303-0.171,0.441-0.283s0.277-0.239,0.412-0.385V33.968z"/>
				<path fill="#FFFFFF" d="M128.404,31.238c-0.037,0.061-0.076,0.104-0.117,0.129c-0.043,0.025-0.096,0.039-0.162,0.039
					c-0.074,0-0.158-0.025-0.248-0.077c-0.092-0.052-0.201-0.106-0.33-0.168c-0.127-0.062-0.277-0.117-0.451-0.168
					c-0.172-0.052-0.377-0.077-0.615-0.077c-0.195,0-0.375,0.023-0.535,0.073c-0.16,0.049-0.299,0.116-0.408,0.202
					c-0.111,0.088-0.199,0.188-0.262,0.31c-0.061,0.118-0.09,0.246-0.09,0.381c0,0.179,0.055,0.324,0.156,0.441
					c0.105,0.116,0.244,0.217,0.414,0.301s0.363,0.16,0.58,0.228c0.217,0.068,0.439,0.141,0.666,0.215s0.447,0.158,0.664,0.254
					c0.217,0.098,0.412,0.217,0.582,0.357c0.17,0.143,0.309,0.313,0.412,0.516c0.105,0.199,0.158,0.445,0.158,0.733
					c0,0.332-0.062,0.64-0.178,0.921c-0.119,0.282-0.295,0.526-0.525,0.731c-0.232,0.205-0.518,0.366-0.857,0.481
					c-0.342,0.116-0.73,0.176-1.17,0.176c-0.49,0-0.943-0.082-1.357-0.244c-0.416-0.163-0.764-0.371-1.043-0.623l0.322-0.525
					c0.037-0.064,0.084-0.115,0.139-0.15c0.059-0.033,0.133-0.053,0.227-0.053c0.088,0,0.182,0.033,0.271,0.101
					c0.095,0.065,0.205,0.137,0.336,0.213c0.133,0.075,0.289,0.146,0.479,0.21c0.188,0.062,0.42,0.095,0.699,0.095
					c0.23,0,0.438-0.028,0.607-0.087c0.172-0.061,0.316-0.138,0.432-0.236c0.113-0.103,0.197-0.218,0.256-0.349
					s0.084-0.271,0.084-0.413c0-0.188-0.055-0.342-0.158-0.466c-0.104-0.123-0.24-0.229-0.412-0.317
					c-0.17-0.089-0.363-0.164-0.584-0.229s-0.441-0.136-0.672-0.21c-0.229-0.075-0.453-0.161-0.672-0.26
					c-0.223-0.1-0.416-0.223-0.586-0.371s-0.309-0.332-0.412-0.545c-0.104-0.215-0.158-0.479-0.158-0.784
					c0-0.275,0.059-0.539,0.174-0.791c0.113-0.253,0.277-0.474,0.494-0.665c0.221-0.191,0.486-0.346,0.809-0.459
					c0.318-0.114,0.684-0.172,1.096-0.172c0.471,0,0.896,0.074,1.277,0.225c0.379,0.148,0.705,0.354,0.977,0.616L128.404,31.238z"/>
				<path fill="#FFFFFF" d="M136.861,29.9c0.521,0,0.994,0.086,1.418,0.256c0.422,0.171,0.781,0.416,1.076,0.734
					c0.297,0.318,0.523,0.705,0.684,1.154c0.16,0.45,0.238,0.955,0.238,1.516c0,0.562-0.08,1.065-0.238,1.521
					s-0.387,0.838-0.684,1.155c-0.295,0.315-0.654,0.561-1.076,0.729c-0.424,0.17-0.896,0.257-1.418,0.257
					c-0.527,0-1.002-0.087-1.426-0.257c-0.422-0.171-0.781-0.414-1.08-0.729c-0.299-0.317-0.529-0.702-0.689-1.155
					c-0.162-0.453-0.242-0.959-0.242-1.521c0-0.561,0.08-1.063,0.242-1.516c0.16-0.449,0.391-0.836,0.689-1.154
					c0.297-0.318,0.658-0.563,1.08-0.734C135.859,29.986,136.334,29.9,136.861,29.9z M136.861,36.159
					c0.672,0,1.174-0.228,1.504-0.679c0.332-0.453,0.498-1.09,0.498-1.912c0-0.82-0.166-1.459-0.498-1.914
					c-0.33-0.455-0.832-0.684-1.504-0.684c-0.682,0-1.189,0.229-1.523,0.684s-0.5,1.094-0.5,1.914c0,0.822,0.166,1.459,0.5,1.912
					S136.18,36.159,136.861,36.159z"/>
				<path fill="#FFFFFF" d="M143.09,31.077c0.15-0.179,0.311-0.341,0.48-0.486c0.17-0.147,0.354-0.272,0.549-0.378
					c0.197-0.105,0.406-0.188,0.627-0.245c0.221-0.057,0.459-0.088,0.711-0.088c0.406,0,0.773,0.079,1.102,0.238
					c0.33,0.157,0.611,0.392,0.844,0.7c0.234,0.308,0.414,0.688,0.543,1.141c0.131,0.453,0.191,0.973,0.191,1.561
					c0,0.528-0.07,1.019-0.213,1.467c-0.143,0.451-0.346,0.844-0.609,1.175c-0.263,0.331-0.586,0.592-0.965,0.778
					c-0.381,0.189-0.809,0.283-1.285,0.283c-0.424,0-0.789-0.068-1.092-0.209s-0.574-0.337-0.812-0.589v3.087h-1.365v-9.498h0.82
					c0.19,0,0.311,0.09,0.354,0.272L143.09,31.077z M143.16,35.375c0.225,0.294,0.467,0.499,0.725,0.616
					c0.26,0.116,0.551,0.175,0.871,0.175c0.627,0,1.109-0.227,1.453-0.676c0.344-0.45,0.516-1.106,0.516-1.971
					c0-0.453-0.039-0.838-0.117-1.158c-0.074-0.319-0.188-0.582-0.336-0.784c-0.146-0.203-0.328-0.353-0.541-0.447
					c-0.215-0.096-0.459-0.144-0.729-0.144c-0.396,0-0.74,0.088-1.033,0.266c-0.291,0.178-0.561,0.43-0.809,0.756V35.375z"/>
				<path fill="#FFFFFF" d="M155.096,36.109c-0.279,0.346-0.615,0.604-1.004,0.775c-0.391,0.174-0.803,0.278-1.236,0.315
					l-0.119,0.42c0.436,0.093,0.744,0.223,0.934,0.389c0.188,0.165,0.279,0.374,0.279,0.626c0,0.154-0.039,0.292-0.115,0.413
					s-0.186,0.226-0.316,0.31c-0.136,0.084-0.303,0.147-0.494,0.194c-0.193,0.048-0.404,0.07-0.633,0.07
					c-0.191,0-0.373-0.019-0.543-0.054c-0.172-0.034-0.33-0.086-0.479-0.149l0.125-0.427c0.028-0.09,0.086-0.135,0.176-0.135
					c0.026,0,0.06,0.01,0.095,0.024c0.034,0.017,0.077,0.032,0.131,0.05c0.051,0.018,0.108,0.031,0.178,0.049
					c0.068,0.018,0.148,0.023,0.242,0.023c0.187,0,0.326-0.037,0.42-0.111c0.093-0.074,0.14-0.168,0.14-0.279
					c0-0.168-0.095-0.285-0.283-0.354c-0.188-0.066-0.461-0.125-0.813-0.172l0.293-0.889c-0.399-0.042-0.771-0.154-1.112-0.338
					c-0.341-0.182-0.636-0.428-0.886-0.736c-0.25-0.312-0.444-0.682-0.588-1.109c-0.144-0.43-0.213-0.914-0.213-1.455
					c0-0.526,0.071-1.017,0.219-1.463c0.148-0.447,0.365-0.834,0.652-1.158s0.641-0.578,1.062-0.765
					c0.42-0.185,0.899-0.274,1.44-0.274c0.508,0,0.957,0.08,1.344,0.244c0.388,0.164,0.731,0.395,1.037,0.691l-0.364,0.504
					c-0.041,0.053-0.082,0.094-0.123,0.123c-0.039,0.03-0.097,0.045-0.171,0.045c-0.075,0-0.153-0.027-0.233-0.087
					c-0.082-0.06-0.187-0.122-0.31-0.188s-0.272-0.131-0.446-0.188c-0.177-0.06-0.394-0.088-0.647-0.088
					c-0.336,0-0.633,0.062-0.89,0.183c-0.258,0.121-0.471,0.295-0.642,0.52c-0.17,0.224-0.301,0.496-0.389,0.818
					c-0.088,0.32-0.134,0.685-0.134,1.084c0,0.416,0.048,0.787,0.142,1.109c0.092,0.324,0.226,0.598,0.397,0.816
					c0.173,0.224,0.384,0.392,0.629,0.506c0.248,0.113,0.523,0.172,0.826,0.172c0.295,0,0.537-0.036,0.729-0.107
					c0.191-0.072,0.351-0.149,0.478-0.233c0.125-0.085,0.229-0.162,0.313-0.234c0.084-0.071,0.17-0.108,0.26-0.108
					c0.111,0,0.197,0.043,0.259,0.127L155.096,36.109z"/>
				<path fill="#FFFFFF" d="M159.281,29.9c0.523,0,0.994,0.086,1.418,0.256c0.422,0.171,0.781,0.416,1.078,0.734
					c0.295,0.318,0.521,0.705,0.682,1.154c0.16,0.45,0.238,0.955,0.238,1.516c0,0.562-0.08,1.065-0.238,1.521
					s-0.387,0.838-0.682,1.155c-0.297,0.315-0.656,0.561-1.078,0.729c-0.424,0.17-0.895,0.257-1.418,0.257
					c-0.527,0-1.002-0.087-1.424-0.257c-0.424-0.171-0.783-0.414-1.082-0.729c-0.299-0.317-0.529-0.702-0.689-1.155
					c-0.162-0.453-0.242-0.959-0.242-1.521c0-0.561,0.08-1.063,0.242-1.516c0.16-0.449,0.391-0.836,0.689-1.154
					c0.298-0.318,0.658-0.563,1.082-0.734C158.279,29.986,158.754,29.9,159.281,29.9z M160.059,27.787
					c0.158,0,0.281-0.047,0.367-0.141c0.086-0.095,0.131-0.242,0.137-0.447h0.832c0,0.232-0.031,0.445-0.094,0.637
					s-0.15,0.355-0.262,0.493c-0.113,0.138-0.248,0.244-0.406,0.319c-0.16,0.074-0.334,0.109-0.525,0.109
					c-0.164,0-0.314-0.031-0.459-0.098c-0.143-0.064-0.273-0.139-0.4-0.219c-0.125-0.078-0.246-0.15-0.357-0.217
					c-0.115-0.063-0.227-0.099-0.326-0.099c-0.154,0-0.275,0.049-0.361,0.147c-0.086,0.098-0.131,0.246-0.137,0.447h-0.846
					c0-0.229,0.029-0.439,0.094-0.635c0.062-0.193,0.15-0.357,0.27-0.493c0.117-0.136,0.254-0.241,0.41-0.317
					c0.156-0.077,0.33-0.115,0.521-0.115c0.168,0,0.32,0.031,0.465,0.098c0.143,0.066,0.275,0.137,0.4,0.215
					c0.127,0.076,0.246,0.147,0.355,0.213C159.848,27.754,159.955,27.787,160.059,27.787z M159.281,36.159
					c0.672,0,1.174-0.228,1.506-0.679c0.33-0.453,0.496-1.09,0.496-1.912c0-0.82-0.166-1.459-0.496-1.914
					c-0.332-0.455-0.834-0.684-1.506-0.684c-0.682,0-1.189,0.229-1.523,0.684c-0.332,0.455-0.5,1.094-0.5,1.914
					c0,0.822,0.168,1.459,0.5,1.912C158.092,35.934,158.6,36.159,159.281,36.159z"/>
				<path fill="#FFFFFF" d="M170.055,36.109c-0.168,0.195-0.363,0.365-0.582,0.508s-0.453,0.258-0.699,0.347
					c-0.248,0.089-0.504,0.154-0.768,0.196s-0.523,0.062-0.779,0.062c-0.49,0-0.945-0.084-1.359-0.248
					c-0.42-0.166-0.779-0.408-1.088-0.729c-0.305-0.319-0.543-0.716-0.713-1.188c-0.172-0.475-0.256-1.02-0.256-1.636
					c0-0.494,0.076-0.955,0.23-1.383c0.154-0.427,0.375-0.799,0.662-1.116c0.287-0.316,0.637-0.566,1.053-0.749
					c0.416-0.182,0.883-0.272,1.4-0.272c0.434,0,0.834,0.072,1.201,0.215c0.365,0.143,0.682,0.35,0.947,0.619
					c0.264,0.271,0.475,0.604,0.627,1c0.15,0.397,0.227,0.851,0.227,1.357c0,0.21-0.023,0.352-0.068,0.424
					c-0.047,0.072-0.133,0.108-0.26,0.108h-4.662c0.014,0.425,0.074,0.795,0.182,1.108c0.107,0.314,0.256,0.578,0.445,0.789
					c0.189,0.209,0.414,0.365,0.676,0.469c0.26,0.103,0.553,0.152,0.875,0.152c0.303,0,0.564-0.033,0.787-0.104
					c0.221-0.07,0.412-0.146,0.574-0.229c0.16-0.082,0.295-0.156,0.406-0.228c0.109-0.069,0.205-0.104,0.289-0.104
					c0.113,0,0.199,0.043,0.26,0.127L170.055,36.109z M168.928,32.777c0-0.271-0.039-0.521-0.115-0.748
					c-0.078-0.229-0.189-0.428-0.34-0.596c-0.149-0.168-0.332-0.3-0.547-0.394c-0.215-0.095-0.461-0.142-0.742-0.142
					c-0.574,0-1.023,0.166-1.354,0.498c-0.33,0.33-0.539,0.791-0.627,1.379h3.725V32.777z"/>
				<path fill="#FFFFFF" d="M175.822,31.238c-0.037,0.061-0.076,0.104-0.119,0.129c-0.041,0.025-0.096,0.039-0.16,0.039
					c-0.076,0-0.158-0.025-0.25-0.077c-0.09-0.052-0.199-0.106-0.328-0.168s-0.279-0.117-0.451-0.168
					c-0.174-0.052-0.379-0.077-0.617-0.077c-0.193,0-0.373,0.023-0.535,0.073c-0.158,0.049-0.297,0.116-0.406,0.202
					c-0.113,0.088-0.199,0.188-0.262,0.31c-0.061,0.118-0.092,0.246-0.092,0.381c0,0.179,0.053,0.324,0.158,0.441
					c0.105,0.116,0.242,0.217,0.412,0.301c0.172,0.084,0.365,0.16,0.582,0.228c0.217,0.068,0.438,0.141,0.664,0.215
					s0.449,0.158,0.666,0.254c0.217,0.098,0.41,0.217,0.58,0.357c0.172,0.143,0.309,0.313,0.414,0.516
					c0.105,0.199,0.156,0.445,0.156,0.733c0,0.332-0.061,0.64-0.178,0.921c-0.119,0.282-0.295,0.526-0.525,0.731
					s-0.516,0.366-0.857,0.481c-0.34,0.116-0.73,0.176-1.168,0.176c-0.49,0-0.943-0.082-1.359-0.244
					c-0.414-0.163-0.762-0.371-1.043-0.623l0.322-0.525c0.037-0.064,0.084-0.115,0.141-0.15c0.059-0.033,0.133-0.053,0.227-0.053
					c0.088,0,0.182,0.033,0.271,0.101c0.095,0.063,0.205,0.137,0.336,0.213c0.132,0.075,0.289,0.146,0.478,0.21
					s0.42,0.095,0.699,0.095c0.233,0,0.438-0.028,0.608-0.087c0.174-0.061,0.315-0.138,0.433-0.236
					c0.112-0.103,0.198-0.218,0.256-0.349c0.056-0.131,0.084-0.271,0.084-0.413c0-0.188-0.054-0.342-0.158-0.466
					c-0.104-0.123-0.241-0.229-0.413-0.317c-0.171-0.089-0.365-0.164-0.584-0.229c-0.22-0.065-0.443-0.136-0.673-0.21
					c-0.229-0.075-0.452-0.161-0.672-0.26c-0.219-0.1-0.414-0.223-0.584-0.371s-0.31-0.332-0.414-0.545
					c-0.104-0.215-0.155-0.479-0.155-0.784c0-0.275,0.057-0.539,0.17-0.791c0.114-0.253,0.28-0.474,0.498-0.665
					c0.217-0.191,0.483-0.346,0.805-0.459c0.32-0.114,0.687-0.172,1.097-0.172c0.472,0,0.896,0.074,1.276,0.225
					c0.382,0.15,0.705,0.354,0.978,0.616L175.822,31.238z"/>
			</g>
		</g>
	</g>
</g>
</svg>
