<?xml version="1.0" encoding="utf-8"?>
<!-- Generator: Adobe Illustrator 15.0.0, SVG Export Plug-In . SVG Version: 6.00 Build 0)  -->
<!DOCTYPE svg PUBLIC "-//W3C//DTD SVG 1.1//EN" "http://www.w3.org/Graphics/SVG/1.1/DTD/svg11.dtd">
<svg version="1.1" id="Layer_1" xmlns:sketch="http://www.bohemiancoding.com/sketch/ns"
	 xmlns="http://www.w3.org/2000/svg" xmlns:xlink="http://www.w3.org/1999/xlink" x="0px" y="0px" width="142px" height="16px"
	 viewBox="0.233 0 142 16" enable-background="new 0.233 0 142 16" xml:space="preserve">
<title></title>
<desc></desc>
<g id="Page-1">
	<g id="Icons-AV" transform="translate(-42.000000, -171.000000)">
		<g id="video-youtube" transform="translate(42.000000, 171.000000)">
			<path id="Shape" fill="#CC181E" d="M18.263,0.4c-0.6-0.2-4.3-0.4-8-0.4s-7.4,0.2-8,0.4c-1.6,0.5-2,4-2,7.6c0,3.6,0.4,7.1,2,7.6
				c0.6,0.2,4.3,0.4,8,0.4s7.4-0.2,8-0.4c1.6-0.5,2-4,2-7.6C20.263,4.4,19.862,0.9,18.263,0.4L18.263,0.4z M8.263,12.5v-9l6,4.5
				L8.263,12.5L8.263,12.5z"/>
		</g>
	</g>
</g>
<g>
	<path fill="#606060" d="M35.731,13.097h-1.147c-0.131,0-0.238-0.032-0.322-0.098s-0.145-0.149-0.182-0.252l-0.89-2.331H28.76
		l-0.889,2.331c-0.033,0.088-0.094,0.169-0.183,0.241c-0.088,0.072-0.195,0.108-0.321,0.108h-1.148l4.004-10.052h1.505
		L35.731,13.097z M32.785,9.352l-1.491-3.898c-0.107-0.267-0.215-0.603-0.322-1.009c-0.051,0.201-0.104,0.388-0.157,0.561
		s-0.106,0.326-0.157,0.462l-1.484,3.885H32.785z"/>
	<path fill="#606060" d="M40.897,7.21c-0.037,0.061-0.076,0.104-0.118,0.129c-0.042,0.026-0.096,0.039-0.161,0.039
		c-0.075,0-0.158-0.025-0.249-0.077s-0.2-0.107-0.329-0.168c-0.128-0.061-0.278-0.117-0.451-0.168
		c-0.173-0.052-0.378-0.077-0.616-0.077c-0.196,0-0.374,0.024-0.535,0.073s-0.298,0.117-0.409,0.203
		c-0.112,0.087-0.199,0.189-0.26,0.309c-0.061,0.118-0.091,0.246-0.091,0.381c0,0.178,0.053,0.324,0.157,0.441
		c0.105,0.116,0.243,0.217,0.413,0.301c0.171,0.084,0.364,0.16,0.581,0.228s0.438,0.139,0.665,0.214
		c0.227,0.074,0.448,0.159,0.665,0.255s0.411,0.215,0.581,0.357c0.171,0.143,0.309,0.313,0.413,0.515
		c0.105,0.2,0.157,0.445,0.157,0.734c0,0.332-0.06,0.639-0.178,0.921c-0.119,0.282-0.295,0.526-0.525,0.731
		c-0.231,0.205-0.517,0.366-0.857,0.482c-0.341,0.117-0.73,0.176-1.169,0.176c-0.49,0-0.943-0.082-1.358-0.245
		s-0.763-0.371-1.043-0.623l0.322-0.525c0.037-0.065,0.084-0.115,0.14-0.15c0.057-0.035,0.131-0.053,0.225-0.053
		c0.088,0,0.18,0.033,0.272,0.099c0.094,0.065,0.205,0.137,0.336,0.213c0.131,0.077,0.289,0.147,0.477,0.21
		c0.187,0.063,0.42,0.095,0.699,0.095c0.233,0,0.437-0.029,0.609-0.087c0.173-0.059,0.316-0.138,0.431-0.238
		s0.199-0.216,0.256-0.347c0.056-0.131,0.084-0.269,0.084-0.413c0-0.187-0.053-0.342-0.158-0.466
		c-0.104-0.123-0.242-0.229-0.413-0.318c-0.17-0.088-0.365-0.165-0.584-0.23c-0.22-0.065-0.443-0.136-0.672-0.21
		c-0.229-0.075-0.453-0.161-0.672-0.259c-0.22-0.099-0.415-0.222-0.585-0.371s-0.308-0.332-0.413-0.546
		c-0.104-0.215-0.157-0.477-0.157-0.784c0-0.275,0.057-0.539,0.171-0.791c0.115-0.252,0.28-0.474,0.497-0.665
		c0.218-0.191,0.485-0.345,0.806-0.459c0.319-0.114,0.685-0.171,1.096-0.171c0.471,0,0.896,0.074,1.277,0.224
		c0.38,0.149,0.705,0.354,0.977,0.616L40.897,7.21z"/>
	<path fill="#606060" d="M46.98,7.21c-0.037,0.061-0.077,0.104-0.119,0.129c-0.042,0.026-0.096,0.039-0.161,0.039
		c-0.074,0-0.157-0.025-0.248-0.077s-0.201-0.107-0.329-0.168c-0.129-0.061-0.279-0.117-0.452-0.168
		c-0.172-0.052-0.378-0.077-0.615-0.077c-0.196,0-0.375,0.024-0.536,0.073s-0.297,0.117-0.409,0.203
		c-0.112,0.087-0.198,0.189-0.259,0.309c-0.061,0.118-0.091,0.246-0.091,0.381c0,0.178,0.052,0.324,0.157,0.441
		c0.104,0.116,0.242,0.217,0.413,0.301c0.17,0.084,0.364,0.16,0.581,0.228s0.438,0.139,0.665,0.214
		c0.226,0.074,0.447,0.159,0.665,0.255c0.217,0.096,0.41,0.215,0.581,0.357c0.17,0.143,0.308,0.313,0.413,0.515
		c0.104,0.2,0.157,0.445,0.157,0.734c0,0.332-0.06,0.639-0.179,0.921s-0.294,0.526-0.525,0.731c-0.23,0.205-0.517,0.366-0.857,0.482
		c-0.341,0.117-0.73,0.176-1.169,0.176c-0.489,0-0.942-0.082-1.357-0.245c-0.416-0.163-0.764-0.371-1.043-0.623l0.321-0.525
		c0.038-0.065,0.084-0.115,0.141-0.15c0.056-0.035,0.13-0.053,0.224-0.053c0.089,0,0.18,0.033,0.273,0.099
		c0.093,0.065,0.205,0.137,0.336,0.213c0.13,0.077,0.289,0.147,0.476,0.21c0.187,0.063,0.42,0.095,0.7,0.095
		c0.233,0,0.437-0.029,0.609-0.087c0.172-0.059,0.315-0.138,0.43-0.238s0.2-0.216,0.256-0.347s0.084-0.269,0.084-0.413
		c0-0.187-0.053-0.342-0.157-0.466c-0.105-0.123-0.243-0.229-0.413-0.318c-0.171-0.088-0.365-0.165-0.585-0.23
		c-0.219-0.065-0.443-0.136-0.672-0.21c-0.229-0.075-0.452-0.161-0.672-0.259c-0.22-0.099-0.414-0.222-0.584-0.371
		c-0.171-0.149-0.309-0.332-0.413-0.546c-0.105-0.215-0.158-0.477-0.158-0.784c0-0.275,0.058-0.539,0.172-0.791
		s0.28-0.474,0.497-0.665s0.485-0.345,0.805-0.459s0.685-0.171,1.096-0.171c0.472,0,0.897,0.074,1.277,0.224
		c0.381,0.149,0.706,0.354,0.977,0.616L46.98,7.21z"/>
	<path fill="#606060" d="M50.558,3.787c0,0.126-0.026,0.246-0.077,0.36c-0.052,0.114-0.12,0.215-0.207,0.301
		c-0.086,0.086-0.188,0.154-0.304,0.203c-0.117,0.049-0.238,0.073-0.364,0.073S49.36,4.7,49.248,4.651
		c-0.111-0.049-0.211-0.117-0.297-0.203c-0.087-0.086-0.154-0.187-0.203-0.301s-0.073-0.234-0.073-0.36
		c0-0.131,0.024-0.254,0.073-0.368s0.116-0.215,0.203-0.301c0.086-0.086,0.186-0.154,0.297-0.203
		c0.112-0.049,0.231-0.073,0.357-0.073s0.247,0.024,0.364,0.073c0.116,0.049,0.218,0.117,0.304,0.203
		c0.087,0.086,0.155,0.187,0.207,0.301C50.531,3.533,50.558,3.656,50.558,3.787z M50.299,5.984v7.112h-1.365V5.984H50.299z"/>
	<path fill="#606060" d="M56.473,7.21c-0.038,0.061-0.077,0.104-0.119,0.129c-0.042,0.026-0.096,0.039-0.161,0.039
		c-0.075,0-0.157-0.025-0.249-0.077c-0.091-0.052-0.2-0.107-0.328-0.168c-0.129-0.061-0.279-0.117-0.452-0.168
		c-0.173-0.052-0.378-0.077-0.616-0.077c-0.195,0-0.374,0.024-0.535,0.073s-0.297,0.117-0.409,0.203
		c-0.112,0.087-0.198,0.189-0.259,0.309c-0.061,0.118-0.091,0.246-0.091,0.381c0,0.178,0.052,0.324,0.157,0.441
		c0.104,0.116,0.242,0.217,0.413,0.301c0.17,0.084,0.364,0.16,0.581,0.228s0.438,0.139,0.664,0.214
		c0.227,0.074,0.448,0.159,0.665,0.255c0.218,0.096,0.411,0.215,0.581,0.357c0.171,0.143,0.309,0.313,0.413,0.515
		c0.105,0.2,0.158,0.445,0.158,0.734c0,0.332-0.06,0.639-0.179,0.921s-0.294,0.526-0.525,0.731c-0.23,0.205-0.517,0.366-0.857,0.482
		c-0.341,0.117-0.73,0.176-1.169,0.176c-0.489,0-0.942-0.082-1.357-0.245c-0.416-0.163-0.764-0.371-1.043-0.623l0.321-0.525
		c0.038-0.065,0.084-0.115,0.141-0.15c0.056-0.035,0.13-0.053,0.224-0.053c0.089,0,0.18,0.033,0.273,0.099
		c0.093,0.065,0.205,0.137,0.336,0.213c0.13,0.077,0.289,0.147,0.476,0.21c0.187,0.063,0.42,0.095,0.7,0.095
		c0.233,0,0.436-0.029,0.608-0.087c0.173-0.059,0.316-0.138,0.431-0.238s0.199-0.216,0.256-0.347
		c0.056-0.131,0.084-0.269,0.084-0.413c0-0.187-0.053-0.342-0.157-0.466c-0.105-0.123-0.243-0.229-0.413-0.318
		c-0.171-0.088-0.365-0.165-0.585-0.23c-0.219-0.065-0.443-0.136-0.672-0.21c-0.229-0.075-0.452-0.161-0.672-0.259
		c-0.22-0.099-0.414-0.222-0.584-0.371c-0.171-0.149-0.309-0.332-0.413-0.546c-0.105-0.215-0.158-0.477-0.158-0.784
		c0-0.275,0.058-0.539,0.172-0.791s0.28-0.474,0.497-0.665s0.485-0.345,0.805-0.459s0.685-0.171,1.096-0.171
		c0.471,0,0.896,0.074,1.277,0.224c0.38,0.149,0.706,0.354,0.977,0.616L56.473,7.21z"/>
	<path fill="#606060" d="M60.588,13.209c-0.573,0-1.016-0.161-1.326-0.483s-0.466-0.781-0.466-1.379V7.091h-0.825
		c-0.08,0-0.146-0.024-0.2-0.073c-0.054-0.05-0.08-0.123-0.08-0.221V6.244l1.155-0.161l0.308-2.121
		c0.019-0.079,0.055-0.142,0.108-0.186c0.054-0.045,0.123-0.066,0.207-0.066h0.692v2.387h2.017v0.994h-2.017v4.165
		c0,0.28,0.069,0.488,0.207,0.626s0.313,0.207,0.528,0.207c0.126,0,0.234-0.017,0.325-0.049c0.091-0.033,0.169-0.069,0.234-0.108
		c0.065-0.04,0.121-0.076,0.168-0.109c0.047-0.032,0.089-0.049,0.126-0.049c0.047,0,0.083,0.011,0.108,0.032
		c0.026,0.021,0.053,0.055,0.081,0.101l0.406,0.658c-0.225,0.206-0.49,0.364-0.799,0.477C61.239,13.152,60.92,13.209,60.588,13.209z
		"/>
	<path fill="#606060" d="M63.248,6.979c0.396-0.378,0.827-0.66,1.291-0.847c0.465-0.187,0.975-0.28,1.529-0.28
		c0.406,0,0.766,0.066,1.078,0.199c0.312,0.134,0.576,0.319,0.791,0.557c0.215,0.238,0.377,0.523,0.486,0.854
		c0.11,0.331,0.165,0.697,0.165,1.099v4.536h-0.609c-0.135,0-0.237-0.022-0.308-0.066s-0.126-0.127-0.168-0.249l-0.147-0.623
		c-0.182,0.169-0.361,0.316-0.539,0.445c-0.177,0.128-0.362,0.237-0.557,0.329c-0.193,0.091-0.399,0.159-0.619,0.206
		s-0.462,0.07-0.728,0.07c-0.28,0-0.543-0.039-0.788-0.116c-0.245-0.076-0.458-0.194-0.641-0.354
		c-0.182-0.158-0.325-0.356-0.43-0.595c-0.105-0.238-0.158-0.516-0.158-0.833c0-0.28,0.076-0.55,0.228-0.809
		s0.399-0.491,0.742-0.696s0.791-0.373,1.344-0.504c0.554-0.131,1.233-0.205,2.041-0.224V8.561c0-0.536-0.114-0.938-0.343-1.204
		C66.68,7.091,66.344,6.958,65.9,6.958c-0.299,0-0.549,0.037-0.752,0.111c-0.203,0.075-0.378,0.158-0.525,0.249
		c-0.146,0.091-0.275,0.174-0.385,0.248c-0.109,0.075-0.223,0.112-0.34,0.112c-0.093,0-0.174-0.025-0.241-0.077
		c-0.067-0.051-0.122-0.112-0.164-0.182L63.248,6.979z M67.252,9.939c-0.556,0.019-1.027,0.062-1.414,0.13
		c-0.388,0.067-0.702,0.157-0.945,0.27c-0.242,0.111-0.418,0.244-0.524,0.396c-0.107,0.151-0.161,0.32-0.161,0.507
		c0,0.178,0.028,0.331,0.087,0.459s0.138,0.233,0.238,0.315c0.101,0.081,0.218,0.141,0.354,0.178
		c0.136,0.038,0.282,0.057,0.441,0.057c0.21,0,0.402-0.021,0.577-0.063s0.34-0.102,0.493-0.179c0.154-0.076,0.301-0.171,0.441-0.283
		c0.14-0.112,0.277-0.24,0.413-0.385V9.939z"/>
	<path fill="#606060" d="M73.776,6.979c0.396-0.378,0.827-0.66,1.291-0.847c0.465-0.187,0.975-0.28,1.529-0.28
		c0.406,0,0.766,0.066,1.078,0.199c0.312,0.134,0.576,0.319,0.791,0.557c0.215,0.238,0.377,0.523,0.486,0.854
		c0.11,0.331,0.165,0.697,0.165,1.099v4.536h-0.609c-0.135,0-0.237-0.022-0.308-0.066s-0.126-0.127-0.168-0.249l-0.147-0.623
		c-0.182,0.169-0.361,0.316-0.539,0.445c-0.177,0.128-0.362,0.237-0.557,0.329c-0.193,0.091-0.399,0.159-0.619,0.206
		s-0.462,0.07-0.728,0.07c-0.28,0-0.543-0.039-0.788-0.116c-0.245-0.076-0.458-0.194-0.641-0.354
		c-0.182-0.158-0.325-0.356-0.43-0.595c-0.105-0.238-0.158-0.516-0.158-0.833c0-0.28,0.076-0.55,0.228-0.809
		s0.399-0.491,0.742-0.696s0.791-0.373,1.344-0.504c0.554-0.131,1.233-0.205,2.041-0.224V8.561c0-0.536-0.114-0.938-0.343-1.204
		c-0.229-0.266-0.565-0.398-1.009-0.398c-0.299,0-0.549,0.037-0.752,0.111c-0.203,0.075-0.378,0.158-0.525,0.249
		c-0.146,0.091-0.275,0.174-0.385,0.248c-0.109,0.075-0.223,0.112-0.34,0.112c-0.093,0-0.174-0.025-0.241-0.077
		c-0.067-0.051-0.122-0.112-0.164-0.182L73.776,6.979z M77.78,9.939c-0.556,0.019-1.027,0.062-1.414,0.13
		c-0.388,0.067-0.702,0.157-0.945,0.27c-0.242,0.111-0.418,0.244-0.524,0.396c-0.107,0.151-0.161,0.32-0.161,0.507
		c0,0.178,0.028,0.331,0.087,0.459s0.138,0.233,0.238,0.315c0.101,0.081,0.218,0.141,0.354,0.178
		c0.136,0.038,0.282,0.057,0.441,0.057c0.21,0,0.402-0.021,0.577-0.063s0.34-0.102,0.493-0.179c0.154-0.076,0.301-0.171,0.441-0.283
		c0.14-0.112,0.277-0.24,0.413-0.385V9.939z"/>
	<path fill="#606060" d="M90.4,5.984v7.112h-0.819c-0.187,0-0.308-0.091-0.363-0.273l-0.099-0.714
		c-0.153,0.164-0.314,0.313-0.482,0.448c-0.168,0.136-0.348,0.251-0.539,0.347s-0.395,0.17-0.609,0.224s-0.445,0.081-0.693,0.081
		c-0.392,0-0.735-0.065-1.032-0.196c-0.296-0.131-0.545-0.313-0.745-0.55c-0.201-0.235-0.353-0.519-0.455-0.851
		c-0.103-0.331-0.154-0.697-0.154-1.099V5.984h1.372v4.529c0,0.509,0.116,0.904,0.35,1.187s0.591,0.424,1.071,0.424
		c0.351,0,0.677-0.083,0.98-0.249c0.303-0.165,0.588-0.393,0.854-0.683V5.984H90.4z"/>
	<path fill="#606060" d="M92.312,13.097V5.984h0.819c0.191,0,0.31,0.091,0.356,0.273l0.099,0.679
		c0.261-0.312,0.552-0.568,0.871-0.767s0.694-0.297,1.123-0.297c0.472,0,0.854,0.129,1.148,0.388c0.294,0.26,0.509,0.61,0.644,1.054
		c0.104-0.252,0.236-0.469,0.399-0.65c0.163-0.183,0.346-0.332,0.546-0.448c0.201-0.117,0.414-0.203,0.641-0.259
		c0.227-0.057,0.456-0.084,0.689-0.084c0.378,0,0.715,0.06,1.012,0.178c0.296,0.119,0.547,0.293,0.752,0.521
		c0.206,0.229,0.362,0.512,0.47,0.848s0.161,0.719,0.161,1.147v4.529h-1.372V8.567c0-0.531-0.116-0.933-0.347-1.204
		c-0.231-0.271-0.568-0.405-1.012-0.405c-0.196,0-0.383,0.033-0.56,0.102c-0.178,0.067-0.333,0.169-0.466,0.304
		c-0.133,0.136-0.238,0.304-0.315,0.505c-0.077,0.2-0.115,0.434-0.115,0.699v4.529h-1.372V8.567c0-0.551-0.109-0.956-0.329-1.218
		c-0.219-0.261-0.541-0.392-0.966-0.392c-0.294,0-0.567,0.077-0.819,0.23c-0.252,0.154-0.482,0.364-0.692,0.63v5.278H92.312z"/>
	<path fill="#606060" d="M115.985,3.045l-4.088,10.052h-1.338l-4.088-10.052h1.19c0.131,0,0.236,0.032,0.318,0.098
		s0.144,0.149,0.186,0.252l2.716,6.832c0.065,0.168,0.13,0.353,0.192,0.553c0.063,0.201,0.12,0.411,0.172,0.631
		c0.047-0.22,0.098-0.43,0.154-0.631c0.056-0.2,0.116-0.385,0.182-0.553l2.709-6.832c0.032-0.093,0.092-0.175,0.179-0.245
		c0.086-0.07,0.192-0.104,0.318-0.104H115.985z"/>
	<path fill="#606060" d="M118.646,3.787c0,0.126-0.026,0.246-0.077,0.36c-0.052,0.114-0.12,0.215-0.207,0.301
		c-0.086,0.086-0.188,0.154-0.305,0.203c-0.116,0.049-0.237,0.073-0.363,0.073s-0.245-0.024-0.357-0.073s-0.211-0.117-0.298-0.203
		c-0.086-0.086-0.153-0.187-0.202-0.301c-0.05-0.114-0.074-0.234-0.074-0.36c0-0.131,0.024-0.254,0.074-0.368
		c0.049-0.114,0.116-0.215,0.202-0.301c0.087-0.086,0.186-0.154,0.298-0.203s0.231-0.073,0.357-0.073s0.247,0.024,0.363,0.073
		c0.117,0.049,0.219,0.117,0.305,0.203c0.087,0.086,0.155,0.187,0.207,0.301C118.619,3.533,118.646,3.656,118.646,3.787z
		 M118.386,5.984v7.112h-1.364V5.984H118.386z"/>
	<path fill="#606060" d="M126.324,2.765v10.332h-0.826c-0.191,0-0.311-0.091-0.356-0.273l-0.119-0.818
		c-0.304,0.359-0.647,0.647-1.033,0.864c-0.385,0.217-0.829,0.325-1.333,0.325c-0.406,0-0.773-0.079-1.103-0.237
		c-0.329-0.159-0.61-0.392-0.844-0.697s-0.413-0.685-0.539-1.137c-0.126-0.453-0.188-0.974-0.188-1.562
		c0-0.527,0.069-1.018,0.21-1.47c0.14-0.453,0.343-0.845,0.608-1.176c0.267-0.332,0.589-0.592,0.967-0.781
		c0.378-0.188,0.805-0.283,1.28-0.283c0.43,0,0.795,0.07,1.096,0.21c0.301,0.141,0.57,0.339,0.809,0.595V2.765H126.324z
		 M124.952,7.707c-0.224-0.294-0.466-0.5-0.725-0.616c-0.259-0.117-0.55-0.175-0.871-0.175c-0.626,0-1.109,0.225-1.453,0.675
		c-0.343,0.451-0.514,1.107-0.514,1.971c0,0.453,0.038,0.839,0.115,1.158c0.077,0.32,0.188,0.581,0.336,0.784
		c0.146,0.203,0.328,0.353,0.542,0.448c0.215,0.096,0.458,0.144,0.729,0.144c0.396,0,0.739-0.089,1.029-0.266
		c0.289-0.178,0.56-0.428,0.812-0.749V7.707z"/>
	<path fill="#606060" d="M134.073,12.082c-0.168,0.195-0.361,0.365-0.581,0.507c-0.219,0.143-0.452,0.258-0.7,0.347
		c-0.247,0.089-0.503,0.154-0.767,0.196s-0.523,0.062-0.78,0.062c-0.49,0-0.943-0.083-1.361-0.248
		c-0.418-0.166-0.779-0.408-1.085-0.729c-0.306-0.319-0.544-0.716-0.714-1.189c-0.171-0.474-0.256-1.019-0.256-1.635
		c0-0.494,0.077-0.955,0.231-1.383c0.154-0.427,0.374-0.799,0.661-1.116s0.639-0.566,1.054-0.749c0.415-0.182,0.882-0.272,1.4-0.272
		c0.434,0,0.834,0.071,1.2,0.213c0.366,0.143,0.683,0.35,0.948,0.62c0.267,0.271,0.475,0.604,0.627,1.001
		c0.151,0.396,0.228,0.849,0.228,1.357c0,0.21-0.023,0.352-0.07,0.424s-0.133,0.108-0.259,0.108h-4.662
		c0.014,0.425,0.074,0.795,0.182,1.109c0.107,0.315,0.256,0.577,0.444,0.788c0.189,0.21,0.414,0.366,0.676,0.469
		s0.553,0.153,0.875,0.153c0.304,0,0.565-0.034,0.788-0.104c0.221-0.07,0.412-0.146,0.573-0.228s0.297-0.157,0.406-0.228
		s0.206-0.104,0.291-0.104c0.111,0,0.198,0.042,0.259,0.126L134.073,12.082z M132.946,8.75c0-0.271-0.038-0.521-0.115-0.749
		s-0.19-0.428-0.34-0.596s-0.331-0.298-0.546-0.392s-0.462-0.14-0.742-0.14c-0.574,0-1.025,0.165-1.354,0.497
		c-0.329,0.331-0.538,0.791-0.626,1.379H132.946z"/>
	<path fill="#606060" d="M138.68,5.873c0.522,0,0.995,0.085,1.417,0.255c0.423,0.171,0.782,0.416,1.078,0.735
		c0.297,0.319,0.524,0.705,0.683,1.155s0.238,0.955,0.238,1.515c0,0.561-0.08,1.066-0.238,1.52s-0.386,0.838-0.683,1.155
		c-0.296,0.317-0.655,0.561-1.078,0.731c-0.422,0.17-0.895,0.255-1.417,0.255c-0.527,0-1.002-0.085-1.425-0.255
		c-0.422-0.171-0.783-0.414-1.081-0.731c-0.299-0.317-0.529-0.702-0.689-1.155c-0.161-0.453-0.242-0.959-0.242-1.52
		c0-0.56,0.081-1.064,0.242-1.515c0.16-0.45,0.391-0.836,0.689-1.155c0.298-0.319,0.659-0.564,1.081-0.735
		C137.678,5.958,138.152,5.873,138.68,5.873z M138.68,12.131c0.672,0,1.174-0.227,1.505-0.679c0.331-0.453,0.497-1.09,0.497-1.911
		s-0.166-1.46-0.497-1.915s-0.833-0.683-1.505-0.683c-0.682,0-1.189,0.228-1.522,0.683c-0.334,0.455-0.501,1.094-0.501,1.915
		s0.167,1.458,0.501,1.911C137.49,11.904,137.998,12.131,138.68,12.131z"/>
</g>
</svg>
