<?xml version="1.0" encoding="utf-8"?>
<!-- Generator: Adobe Illustrator 19.0.0, SVG Export Plug-In . SVG Version: 6.00 Build 0)  -->
<svg version="1.1" id="Layer_1" xmlns="http://www.w3.org/2000/svg" xmlns:xlink="http://www.w3.org/1999/xlink" x="0px" y="0px"
	 viewBox="0 0 125 125" style="enable-background:new 0 0 125 125;" xml:space="preserve">
<g>
	<path d="M50.1,54.4h-36c-4.2,0-7.5,3.4-7.5,7.6v36c0,4.2,3.4,7.5,7.5,7.5h36c4.2,0,7.5-3.4,7.5-7.5V62
		C57.7,57.8,54.3,54.4,50.1,54.4L50.1,54.4z M53.2,98c0,1.7-1.4,3.1-3.1,3.1h-36c-1.7,0-3.1-1.4-3.1-3.1V62c0-1.7,1.4-3.1,3.1-3.1
		h36c1.7,0,3.1,1.4,3.1,3.1V98z M53.2,98"/>
	<path d="M24.4,67.8c0,2.4-2,4.4-4.4,4.4c-2.5,0-4.4-2-4.4-4.4c0-2.5,2-4.4,4.4-4.4C22.4,63.3,24.4,65.3,24.4,67.8L24.4,67.8z
		 M24.4,67.8"/>
	<path d="M48.8,67.8c0,2.4-2,4.4-4.4,4.4c-2.5,0-4.4-2-4.4-4.4c0-2.5,2-4.4,4.4-4.4C46.8,63.3,48.8,65.3,48.8,67.8L48.8,67.8z
		 M48.8,67.8"/>
	<path d="M24.4,92.2c0,2.5-2,4.4-4.4,4.4c-2.5,0-4.4-2-4.4-4.4c0-2.4,2-4.4,4.4-4.4C22.4,87.8,24.4,89.8,24.4,92.2L24.4,92.2z
		 M24.4,92.2"/>
	<path d="M48.8,92.2c0,2.5-2,4.4-4.4,4.4c-2.5,0-4.4-2-4.4-4.4c0-2.4,2-4.4,4.4-4.4C46.8,87.8,48.8,89.8,48.8,92.2L48.8,92.2z
		 M48.8,92.2"/>
	<path d="M118,57.2l-11.8-34c-1.4-3.9-5.7-6-9.6-4.6l-34,11.8c-3.9,1.4-6,5.7-4.7,9.6l11.8,34c0.7,1.9,2,3.4,3.9,4.3
		c1,0.5,2.2,0.8,3.3,0.8c0.8,0,1.7-0.1,2.5-0.4l34-11.8C117.3,65.4,119.3,61.1,118,57.2L118,57.2z M111.9,62.6l-34,11.8
		c-0.8,0.3-1.6,0.2-2.4-0.1c-0.7-0.4-1.3-1-1.6-1.8l-11.8-34c-0.6-1.6,0.3-3.4,1.9-4l34-11.8c0.3-0.1,0.7-0.2,1-0.2
		c1.3,0,2.5,0.8,2.9,2.1l11.8,34C114.3,60.3,113.5,62.1,111.9,62.6L111.9,62.6z M111.9,62.6"/>
	<path d="M76.8,41.1c0,2.5-2,4.4-4.4,4.4c-2.5,0-4.4-2-4.4-4.4c0-2.5,2-4.4,4.4-4.4C74.8,36.7,76.8,38.6,76.8,41.1L76.8,41.1z
		 M76.8,41.1"/>
	<path d="M99.9,33.1c0,2.5-2,4.4-4.4,4.4c-2.5,0-4.4-2-4.4-4.4c0-2.5,2-4.4,4.4-4.4C97.9,28.6,99.9,30.6,99.9,33.1L99.9,33.1z
		 M99.9,33.1"/>
	<path d="M84.9,64.2c0,2.5-2,4.4-4.4,4.4c-2.5,0-4.4-2-4.4-4.4c0-2.5,2-4.4,4.4-4.4C82.9,59.7,84.9,61.7,84.9,64.2L84.9,64.2z
		 M84.9,64.2"/>
	<path d="M36.6,80.7c0,2.4-2,4.4-4.4,4.4c-2.5,0-4.4-2-4.4-4.4c0-2.5,2-4.4,4.4-4.4C34.6,76.3,36.6,78.3,36.6,80.7L36.6,80.7z
		 M36.6,80.7"/>
	<path d="M107.9,56.1c0,2.5-2,4.4-4.4,4.4c-2.5,0-4.4-2-4.4-4.4c0-2.5,2-4.4,4.4-4.4C105.9,51.7,107.9,53.7,107.9,56.1L107.9,56.1z
		 M107.9,56.1"/>
</g>
</svg>
