<?xml version="1.0" encoding="utf-8"?>
<!-- Generator: Adobe Illustrator 15.0.0, SVG Export Plug-In . SVG Version: 6.00 Build 0)  -->
<!DOCTYPE svg PUBLIC "-//W3C//DTD SVG 1.1//EN" "http://www.w3.org/Graphics/SVG/1.1/DTD/svg11.dtd">
<svg version="1.1" id="Layer_1" xmlns:sketch="http://www.bohemiancoding.com/sketch/ns"
	 xmlns="http://www.w3.org/2000/svg" xmlns:xlink="http://www.w3.org/1999/xlink" x="0px" y="0px" width="69px" height="32px"
	 viewBox="0 -1 69 32" enable-background="new 0 -1 69 32" xml:space="preserve">
<path fill="#A83B8D" d="M69,28c0,1.656-1.344,3-3,3H-3c-1.657,0-3-1.344-3-3V2c0-1.657,1.343-3,3-3h69c1.656,0,3,1.343,3,3V28z"/>
<title></title>
<desc></desc>
<g id="slice" transform="translate(215.000000, 119.000000)">
</g>
<path fill="#FFFFFF" d="M48.85,23.777l-6.345-6.344c0.968-1.385,1.532-3.067,1.532-4.884c0-4.722-3.83-8.551-8.553-8.551
	c-4.722,0-8.551,3.829-8.551,8.551c0,4.722,3.829,8.552,8.551,8.552c1.816,0,3.5-0.564,4.885-1.531l0,0l6.344,6.342
	c0.117,0.117,0.307,0.121,0.426,0l1.711-1.711C48.965,24.084,48.96,23.889,48.85,23.777z M35.484,19.088
	c-3.611,0-6.54-2.928-6.54-6.538c0-3.611,2.928-6.541,6.54-6.541s6.541,2.928,6.541,6.541
	C42.023,16.162,39.098,19.088,35.484,19.088z"/>
</svg>
