<?xml version="1.0" encoding="utf-8"?>
<!-- Generator: Adobe Illustrator 15.0.0, SVG Export Plug-In . SVG Version: 6.00 Build 0)  -->
<!DOCTYPE svg PUBLIC "-//W3C//DTD SVG 1.1//EN" "http://www.w3.org/Graphics/SVG/1.1/DTD/svg11.dtd">
<svg version="1.1" id="Layer_1" xmlns:sketch="http://www.bohemiancoding.com/sketch/ns"
	 xmlns="http://www.w3.org/2000/svg" xmlns:xlink="http://www.w3.org/1999/xlink" x="0px" y="0px" width="32px" height="32px"
	 viewBox="0 0 32 32" enable-background="new 0 0 32 32" xml:space="preserve">
<title></title>
<desc></desc>
<g id="slice" transform="translate(215.000000, 119.000000)">
</g>
<path fill="#B9519F" d="M31.875,28.766l-9.227-9.227c1.406-2.016,2.227-4.46,2.227-7.104C24.875,5.568,19.307,0,12.438,0
	C5.57,0,0.001,5.568,0.001,12.437c0,6.868,5.567,12.438,12.437,12.438c2.639,0,5.09-0.821,7.104-2.228l0,0l9.227,9.224
	c0.17,0.17,0.445,0.176,0.619,0l2.488-2.488C32.043,29.211,32.035,28.927,31.875,28.766z M12.438,21.945
	c-5.252,0-9.512-4.258-9.512-9.509c0-5.251,4.258-9.514,9.512-9.514c5.252,0,9.514,4.259,9.514,9.514
	C21.947,17.689,17.693,21.945,12.438,21.945z"/>
</svg>
