<?xml version="1.0" encoding="utf-8"?>
<!-- Generator: Adobe Illustrator 15.0.0, SVG Export Plug-In . SVG Version: 6.00 Build 0)  -->
<!DOCTYPE svg PUBLIC "-//W3C//DTD SVG 1.1//EN" "http://www.w3.org/Graphics/SVG/1.1/DTD/svg11.dtd">
<svg version="1.1" id="Layer_1" xmlns="http://www.w3.org/2000/svg" xmlns:xlink="http://www.w3.org/1999/xlink" x="0px" y="0px"
	 width="124px" height="30px" viewBox="-24.5 -6 124 30" enable-background="new -24.5 -6 124 30" xml:space="preserve">
<g>
	<path fill="#B9519F" d="M5.5,19.862c0,2.209-1.791,4-4,4h-22c-2.209,0-4-1.791-4-4v-22c0-2.209,1.791-4,4-4h22c2.209,0,4,1.791,4,4
		V19.862z"/>
	<path fill="#FFFFFF" d="M-2.678,12.833c-1.089-1.422-2.49-2.156-4.861-2.393c-0.426-0.086-0.75-0.465-0.75-0.916
		c0-0.328,1.059-1.314,1.051-1.322c1.092-1.129,1.677-2.963,1.677-4.374c0-2.189-1.763-3.967-3.938-3.967
		c-2.174,0-3.938,1.777-3.938,3.967c0,1.418,0.57,3.264,1.672,4.393c0,0,1.055,0.974,1.055,1.304c0,0.477-0.36,0.873-0.826,0.93
		c-2.32,0.244-3.709,0.975-4.784,2.379c-0.312,0.402-0.479,1.219-0.491,1.652c0.003,0.111,0,1.875,0,1.875
		c0,0.828,0.671,1.5,1.5,1.5h11.625c0.829,0,1.5-0.672,1.5-1.5c0,0-0.004-1.764,0-1.875C-2.197,14.052-2.367,13.237-2.678,12.833z"
		/>
</g>
<g>
	<path fill="#B9519F" d="M24.07,3.92v10.052h-1.302V6.817c0-0.107,0.004-0.222,0.011-0.343s0.015-0.245,0.024-0.371l-3.346,6.14
		c-0.117,0.229-0.296,0.344-0.539,0.344h-0.21c-0.243,0-0.42-0.115-0.532-0.344l-3.409-6.16c0.028,0.261,0.042,0.506,0.042,0.734
		v7.154H13.5V3.92h1.106c0.13,0,0.232,0.013,0.304,0.038s0.141,0.097,0.207,0.214l3.36,6.021c0.065,0.121,0.126,0.25,0.182,0.385
		s0.11,0.271,0.161,0.406c0.098-0.275,0.212-0.541,0.343-0.799l3.297-6.013c0.061-0.117,0.127-0.188,0.199-0.214
		s0.174-0.038,0.305-0.038H24.07z"/>
	<path fill="#B9519F" d="M31.896,12.958c-0.168,0.195-0.362,0.365-0.581,0.506c-0.219,0.143-0.453,0.258-0.7,0.348
		c-0.248,0.088-0.503,0.154-0.767,0.195c-0.264,0.043-0.524,0.062-0.78,0.062c-0.49,0-0.944-0.082-1.362-0.248
		s-0.779-0.408-1.085-0.729c-0.306-0.318-0.543-0.715-0.714-1.189c-0.17-0.473-0.255-1.018-0.255-1.635
		c0-0.494,0.077-0.955,0.231-1.383c0.154-0.427,0.375-0.799,0.661-1.116c0.287-0.317,0.638-0.566,1.054-0.749
		c0.415-0.182,0.882-0.272,1.4-0.272c0.434,0,0.834,0.071,1.201,0.213c0.366,0.143,0.683,0.35,0.948,0.62
		c0.266,0.271,0.475,0.604,0.626,1.001c0.152,0.396,0.228,0.849,0.228,1.358c0,0.209-0.023,0.352-0.07,0.424
		c-0.047,0.072-0.133,0.107-0.259,0.107H27.01c0.014,0.426,0.074,0.795,0.182,1.109c0.107,0.316,0.256,0.578,0.445,0.789
		c0.189,0.209,0.414,0.365,0.675,0.469c0.261,0.102,0.553,0.152,0.875,0.152c0.303,0,0.566-0.033,0.788-0.104
		s0.413-0.146,0.574-0.229c0.161-0.082,0.296-0.156,0.406-0.227s0.207-0.105,0.291-0.105c0.112,0,0.198,0.043,0.259,0.127
		L31.896,12.958z M30.769,9.625c0-0.271-0.039-0.521-0.115-0.749c-0.077-0.229-0.19-0.428-0.34-0.596s-0.331-0.298-0.546-0.392
		s-0.462-0.14-0.742-0.14c-0.574,0-1.025,0.165-1.354,0.497c-0.329,0.331-0.538,0.791-0.626,1.379H30.769z"/>
	<path fill="#B9519F" d="M39.387,6.859v7.112h-0.82c-0.186,0-0.307-0.09-0.363-0.273l-0.098-0.713
		c-0.154,0.164-0.314,0.312-0.482,0.447c-0.168,0.137-0.348,0.252-0.54,0.348c-0.191,0.096-0.395,0.17-0.609,0.223
		c-0.215,0.055-0.445,0.082-0.693,0.082c-0.392,0-0.735-0.066-1.032-0.197c-0.296-0.131-0.545-0.312-0.745-0.549
		c-0.201-0.236-0.353-0.52-0.455-0.852c-0.104-0.33-0.154-0.697-0.154-1.098v-4.53h1.372v4.53c0,0.508,0.116,0.904,0.35,1.186
		c0.233,0.283,0.591,0.424,1.071,0.424c0.351,0,0.677-0.082,0.981-0.248c0.303-0.166,0.588-0.393,0.854-0.684V6.859H39.387z"/>
	<path fill="#B9519F" d="M52.133,11.815c0.084,0,0.156,0.033,0.217,0.1l0.588,0.643c-0.41,0.486-0.912,0.861-1.502,1.127
		s-1.301,0.4-2.131,0.4c-0.729,0-1.387-0.127-1.979-0.379c-0.59-0.252-1.094-0.604-1.512-1.057s-0.74-0.994-0.969-1.625
		c-0.229-0.629-0.344-1.322-0.344-2.079c0-0.756,0.121-1.448,0.361-2.079c0.24-0.63,0.578-1.171,1.012-1.623
		c0.434-0.453,0.953-0.806,1.557-1.058c0.605-0.252,1.273-0.378,2.006-0.378c0.715,0,1.35,0.117,1.904,0.35
		c0.555,0.233,1.037,0.544,1.449,0.932l-0.49,0.692c-0.033,0.052-0.074,0.094-0.123,0.126c-0.049,0.033-0.113,0.05-0.191,0.05
		c-0.09,0-0.193-0.045-0.312-0.134c-0.119-0.088-0.275-0.188-0.469-0.297s-0.434-0.209-0.717-0.298
		c-0.285-0.089-0.641-0.133-1.064-0.133c-0.5,0-0.957,0.088-1.373,0.263c-0.414,0.175-0.773,0.427-1.074,0.756
		s-0.533,0.732-0.699,1.211s-0.248,1.019-0.248,1.62c0,0.611,0.086,1.155,0.258,1.632c0.174,0.477,0.41,0.879,0.715,1.211
		c0.303,0.332,0.66,0.584,1.07,0.756c0.41,0.174,0.854,0.26,1.33,0.26c0.289,0,0.549-0.018,0.781-0.053
		c0.23-0.035,0.443-0.088,0.637-0.158s0.377-0.16,0.549-0.27c0.174-0.109,0.344-0.24,0.512-0.395
		c0.037-0.033,0.076-0.061,0.119-0.08C52.041,11.827,52.086,11.815,52.133,11.815z"/>
	<path fill="#B9519F" d="M53.98,7.854c0.396-0.378,0.828-0.66,1.291-0.847c0.465-0.187,0.975-0.28,1.529-0.28
		c0.406,0,0.766,0.066,1.078,0.199c0.312,0.134,0.576,0.319,0.791,0.557c0.215,0.238,0.377,0.523,0.486,0.854
		c0.111,0.331,0.166,0.697,0.166,1.099v4.536h-0.609c-0.135,0-0.238-0.021-0.309-0.066c-0.07-0.043-0.125-0.127-0.168-0.248
		l-0.146-0.623c-0.182,0.168-0.361,0.316-0.539,0.445c-0.178,0.127-0.363,0.236-0.557,0.328s-0.4,0.16-0.619,0.207
		c-0.221,0.047-0.463,0.07-0.729,0.07c-0.279,0-0.543-0.039-0.787-0.117c-0.246-0.076-0.459-0.193-0.641-0.354
		c-0.182-0.158-0.326-0.355-0.43-0.594c-0.105-0.238-0.158-0.516-0.158-0.834c0-0.279,0.076-0.549,0.227-0.809
		c0.152-0.258,0.4-0.49,0.742-0.695c0.344-0.205,0.791-0.373,1.344-0.504c0.555-0.131,1.234-0.205,2.041-0.225V9.436
		c0-0.536-0.113-0.938-0.342-1.204c-0.23-0.266-0.566-0.398-1.01-0.398c-0.299,0-0.549,0.037-0.752,0.111
		c-0.203,0.075-0.377,0.158-0.525,0.249c-0.146,0.091-0.275,0.174-0.385,0.248c-0.109,0.075-0.223,0.112-0.34,0.112
		c-0.092,0-0.174-0.025-0.24-0.077c-0.068-0.051-0.123-0.112-0.164-0.182L53.98,7.854z M57.984,10.815
		c-0.555,0.018-1.027,0.062-1.414,0.129c-0.387,0.068-0.701,0.158-0.945,0.27c-0.242,0.111-0.418,0.244-0.523,0.396
		c-0.107,0.15-0.162,0.32-0.162,0.506c0,0.178,0.029,0.332,0.088,0.459c0.059,0.129,0.137,0.234,0.238,0.316
		c0.1,0.08,0.217,0.141,0.354,0.178c0.135,0.037,0.281,0.057,0.441,0.057c0.209,0,0.402-0.021,0.576-0.064
		c0.176-0.041,0.34-0.102,0.494-0.178s0.301-0.172,0.441-0.283c0.139-0.113,0.277-0.24,0.412-0.385V10.815z"/>
	<path fill="#B9519F" d="M67.113,3.64v10.332h-0.826c-0.191,0-0.311-0.09-0.357-0.273l-0.119-0.818
		c-0.303,0.359-0.646,0.648-1.033,0.865c-0.385,0.217-0.828,0.324-1.332,0.324c-0.406,0-0.773-0.078-1.104-0.236
		c-0.328-0.16-0.609-0.393-0.844-0.697c-0.232-0.307-0.412-0.686-0.539-1.137c-0.125-0.453-0.188-0.975-0.188-1.562
		c0-0.527,0.068-1.018,0.209-1.47c0.141-0.453,0.344-0.845,0.609-1.176c0.266-0.332,0.588-0.592,0.967-0.781
		c0.377-0.188,0.805-0.283,1.279-0.283c0.43,0,0.795,0.07,1.096,0.21c0.301,0.141,0.57,0.339,0.809,0.595V3.64H67.113z M65.74,8.582
		c-0.223-0.294-0.465-0.5-0.725-0.616c-0.258-0.117-0.549-0.175-0.871-0.175c-0.625,0-1.109,0.225-1.453,0.675
		c-0.342,0.451-0.514,1.107-0.514,1.971c0,0.453,0.039,0.84,0.115,1.158c0.078,0.32,0.189,0.582,0.336,0.785
		s0.328,0.352,0.543,0.447s0.457,0.145,0.729,0.145c0.396,0,0.738-0.09,1.029-0.266c0.289-0.178,0.559-0.428,0.811-0.75V8.582z"/>
	<path fill="#B9519F" d="M68.842,7.854c0.396-0.378,0.828-0.66,1.291-0.847c0.465-0.187,0.975-0.28,1.529-0.28
		c0.406,0,0.766,0.066,1.078,0.199c0.312,0.134,0.576,0.319,0.791,0.557c0.215,0.238,0.377,0.523,0.486,0.854
		c0.111,0.331,0.166,0.697,0.166,1.099v4.536h-0.609c-0.135,0-0.238-0.021-0.309-0.066c-0.07-0.043-0.125-0.127-0.168-0.248
		l-0.146-0.623c-0.182,0.168-0.361,0.316-0.539,0.445c-0.178,0.127-0.363,0.236-0.557,0.328s-0.4,0.16-0.619,0.207
		c-0.221,0.047-0.463,0.07-0.729,0.07c-0.279,0-0.543-0.039-0.787-0.117c-0.246-0.076-0.459-0.193-0.641-0.354
		c-0.182-0.158-0.326-0.355-0.43-0.594c-0.105-0.238-0.158-0.516-0.158-0.834c0-0.279,0.076-0.549,0.227-0.809
		c0.152-0.258,0.4-0.49,0.742-0.695c0.344-0.205,0.791-0.373,1.344-0.504c0.555-0.131,1.234-0.205,2.041-0.225V9.436
		c0-0.536-0.113-0.938-0.342-1.204c-0.23-0.266-0.566-0.398-1.01-0.398c-0.299,0-0.549,0.037-0.752,0.111
		c-0.203,0.075-0.377,0.158-0.525,0.249c-0.146,0.091-0.275,0.174-0.385,0.248c-0.109,0.075-0.223,0.112-0.34,0.112
		c-0.092,0-0.174-0.025-0.24-0.077c-0.068-0.051-0.123-0.112-0.164-0.182L68.842,7.854z M72.846,10.815
		c-0.555,0.018-1.027,0.062-1.414,0.129c-0.387,0.068-0.701,0.158-0.945,0.27c-0.242,0.111-0.418,0.244-0.523,0.396
		c-0.107,0.15-0.162,0.32-0.162,0.506c0,0.178,0.029,0.332,0.088,0.459c0.059,0.129,0.137,0.234,0.238,0.316
		c0.1,0.08,0.217,0.141,0.354,0.178c0.135,0.037,0.281,0.057,0.441,0.057c0.209,0,0.402-0.021,0.576-0.064
		c0.176-0.041,0.34-0.102,0.494-0.178s0.301-0.172,0.441-0.283c0.139-0.113,0.277-0.24,0.412-0.385V10.815z"/>
	<path fill="#B9519F" d="M80.211,8.085c-0.039,0.061-0.078,0.104-0.119,0.129c-0.043,0.026-0.096,0.039-0.162,0.039
		c-0.074,0-0.156-0.025-0.248-0.077s-0.201-0.107-0.328-0.168C79.225,7.947,79.074,7.891,78.9,7.84
		c-0.172-0.052-0.377-0.077-0.615-0.077c-0.195,0-0.375,0.024-0.535,0.073c-0.162,0.049-0.299,0.117-0.41,0.203
		c-0.111,0.087-0.197,0.189-0.258,0.309C77.02,8.466,76.99,8.594,76.99,8.729c0,0.178,0.053,0.324,0.158,0.441
		c0.104,0.116,0.242,0.217,0.412,0.301s0.363,0.16,0.582,0.228c0.217,0.068,0.438,0.139,0.664,0.215
		c0.227,0.074,0.447,0.158,0.664,0.254c0.219,0.096,0.412,0.215,0.582,0.357s0.309,0.314,0.412,0.516
		c0.105,0.199,0.158,0.445,0.158,0.734c0,0.332-0.059,0.639-0.178,0.92c-0.119,0.283-0.295,0.527-0.525,0.732
		s-0.518,0.365-0.857,0.482c-0.342,0.117-0.73,0.176-1.17,0.176c-0.49,0-0.941-0.082-1.357-0.246
		c-0.416-0.162-0.764-0.371-1.043-0.623l0.322-0.525c0.037-0.064,0.084-0.115,0.141-0.15c0.055-0.035,0.129-0.053,0.223-0.053
		c0.09,0,0.18,0.033,0.273,0.1c0.094,0.064,0.205,0.137,0.336,0.213s0.289,0.146,0.477,0.209c0.186,0.064,0.42,0.096,0.699,0.096
		c0.234,0,0.436-0.029,0.609-0.088c0.172-0.059,0.316-0.137,0.43-0.238c0.115-0.1,0.199-0.215,0.256-0.346s0.084-0.27,0.084-0.414
		c0-0.186-0.053-0.342-0.156-0.465c-0.105-0.123-0.244-0.23-0.414-0.318s-0.365-0.166-0.584-0.23
		c-0.221-0.066-0.443-0.137-0.672-0.211s-0.453-0.16-0.672-0.258c-0.221-0.1-0.414-0.223-0.586-0.371
		c-0.17-0.15-0.307-0.332-0.412-0.547s-0.158-0.477-0.158-0.784c0-0.275,0.059-0.539,0.172-0.791
		c0.115-0.252,0.279-0.474,0.498-0.665c0.217-0.191,0.484-0.345,0.805-0.459c0.318-0.114,0.684-0.171,1.096-0.171
		c0.471,0,0.896,0.074,1.277,0.224c0.379,0.149,0.705,0.354,0.977,0.616L80.211,8.085z"/>
	<path fill="#B9519F" d="M84.324,14.085c-0.572,0-1.016-0.162-1.326-0.484s-0.465-0.781-0.465-1.379V7.966h-0.826
		c-0.08,0-0.146-0.024-0.199-0.073c-0.055-0.05-0.08-0.123-0.08-0.221V7.119l1.154-0.161l0.309-2.121
		c0.018-0.079,0.055-0.142,0.107-0.186c0.055-0.045,0.123-0.066,0.207-0.066h0.693v2.387h2.016v0.994h-2.016v4.166
		c0,0.279,0.068,0.488,0.207,0.625c0.137,0.139,0.312,0.207,0.527,0.207c0.127,0,0.234-0.016,0.326-0.049
		c0.09-0.033,0.168-0.068,0.234-0.107c0.064-0.041,0.121-0.076,0.168-0.109s0.088-0.049,0.125-0.049c0.047,0,0.084,0.01,0.109,0.031
		s0.053,0.055,0.08,0.102l0.406,0.658c-0.225,0.205-0.49,0.363-0.799,0.477C84.977,14.028,84.656,14.085,84.324,14.085z"/>
	<path fill="#B9519F" d="M88.455,8.225c0.229-0.467,0.504-0.833,0.826-1.099c0.322-0.267,0.709-0.399,1.162-0.399
		c0.154,0,0.301,0.018,0.438,0.053c0.139,0.035,0.258,0.087,0.361,0.157L91.15,7.966c-0.033,0.126-0.109,0.188-0.23,0.188
		c-0.066,0-0.164-0.013-0.295-0.038s-0.27-0.038-0.42-0.038c-0.219,0-0.412,0.031-0.58,0.094c-0.168,0.063-0.318,0.156-0.451,0.28
		c-0.135,0.124-0.252,0.275-0.354,0.455c-0.104,0.18-0.199,0.384-0.287,0.612v4.452h-1.365V6.859h0.783
		c0.15,0,0.252,0.027,0.305,0.081c0.055,0.054,0.092,0.148,0.115,0.283L88.455,8.225z"/>
	<path fill="#B9519F" d="M95.064,6.748c0.521,0,0.994,0.085,1.416,0.255c0.424,0.171,0.783,0.416,1.078,0.735
		c0.297,0.319,0.525,0.705,0.684,1.155s0.238,0.955,0.238,1.516s-0.08,1.066-0.238,1.52s-0.387,0.838-0.684,1.154
		c-0.295,0.318-0.654,0.561-1.078,0.732c-0.422,0.17-0.895,0.254-1.416,0.254c-0.527,0-1.002-0.084-1.426-0.254
		c-0.422-0.172-0.783-0.414-1.08-0.732c-0.299-0.316-0.529-0.701-0.689-1.154c-0.162-0.453-0.242-0.959-0.242-1.52
		s0.08-1.065,0.242-1.516c0.16-0.45,0.391-0.836,0.689-1.155c0.297-0.319,0.658-0.564,1.08-0.735
		C94.062,6.833,94.537,6.748,95.064,6.748z M95.064,13.007c0.672,0,1.174-0.227,1.504-0.68c0.332-0.453,0.498-1.09,0.498-1.91
		c0-0.822-0.166-1.461-0.498-1.916c-0.33-0.455-0.832-0.683-1.504-0.683c-0.682,0-1.189,0.228-1.523,0.683s-0.5,1.094-0.5,1.916
		c0,0.82,0.166,1.457,0.5,1.91S94.383,13.007,95.064,13.007z"/>
</g>
</svg>
