<?xml version="1.0" encoding="utf-8"?>
<!-- Generator: Adobe Illustrator 15.0.0, SVG Export Plug-In . SVG Version: 6.00 Build 0)  -->
<!DOCTYPE svg PUBLIC "-//W3C//DTD SVG 1.1//EN" "http://www.w3.org/Graphics/SVG/1.1/DTD/svg11.dtd">
<svg version="1.1" id="Layer_1" xmlns="http://www.w3.org/2000/svg" xmlns:xlink="http://www.w3.org/1999/xlink" x="0px" y="0px"
	 width="32px" height="32px" viewBox="46 -1 32 32" enable-background="new 46 -1 32 32" xml:space="preserve">
<g>
	<path fill="#B9519F" d="M78,26.732C78,29.09,76.09,31,73.733,31H50.267C47.911,31,46,29.09,46,26.732V3.266
		C46,0.91,47.911-1,50.267-1h23.467C76.09-1,78,0.91,78,3.266V26.732z"/>
	<path fill="#FFFFFF" d="M69.276,19.234c-1.161-1.516-2.655-2.299-5.185-2.551c-0.454-0.092-0.801-0.496-0.801-0.979
		c0-0.349,1.131-1.401,1.122-1.409c1.165-1.204,1.788-3.161,1.788-4.666c0-2.335-1.881-4.232-4.2-4.232
		c-2.319,0-4.201,1.896-4.201,4.232c0,1.512,0.608,3.481,1.784,4.686c0,0,1.125,1.039,1.125,1.391c0,0.51-0.383,0.932-0.881,0.992
		c-2.475,0.26-3.956,1.039-5.103,2.537c-0.333,0.43-0.511,1.301-0.524,1.762c0.003,0.119,0,2.002,0,2.002c0,0.883,0.715,1.6,1.6,1.6
		h12.399c0.885,0,1.601-0.717,1.601-1.6c0,0-0.005-1.883,0-2.002C69.79,20.535,69.608,19.666,69.276,19.234z"/>
</g>
</svg>
