<?xml version="1.0" encoding="utf-8"?>
<!-- Generator: Adobe Illustrator 15.0.0, SVG Export Plug-In . SVG Version: 6.00 Build 0)  -->
<!DOCTYPE svg PUBLIC "-//W3C//DTD SVG 1.1//EN" "http://www.w3.org/Graphics/SVG/1.1/DTD/svg11.dtd">
<svg version="1.1" id="Layer_1" xmlns="http://www.w3.org/2000/svg" xmlns:xlink="http://www.w3.org/1999/xlink" x="0px" y="0px"
	 width="32px" height="32px" viewBox="0 0 32 32" enable-background="new 0 0 32 32" xml:space="preserve">
<path fill="#B9529F" d="M31.999,27.734c0,2.355-1.91,4.266-4.266,4.266H4.267C1.911,32,0,30.09,0,27.734V4.267
	C0,1.911,1.911,0,4.267,0h23.466c2.355,0,4.266,1.911,4.266,4.267V27.734z"/>
<g>
	<path fill="#FFFFFF" d="M24.136,5c-0.942,0-1.765,0.682-1.953,1.622l-0.542,2.465H4.987l2.018,7.644
		c0.105,0.512,0.556,0.827,1.079,0.882h11.878l-0.729,2.466c-0.021,0.109-0.105,0.178-0.198,0.178H7.021v1.798h12.017
		c0.949,0,1.775-0.676,1.959-1.608L23.942,6.99c0.021-0.114,0.107-0.192,0.193-0.192h2.877V5H24.136z"/>
	<path fill="#FFFFFF" d="M18.22,23.037c-1.091,0-1.98,0.89-1.98,1.981c0,1.091,0.89,1.982,1.98,1.982
		c1.097,0,1.983-0.892,1.983-1.982C20.203,23.927,19.316,23.037,18.22,23.037z"/>
	<path fill="#FFFFFF" d="M9.011,23.037c-1.094,0-1.984,0.89-1.984,1.981c0,1.091,0.89,1.982,1.984,1.982
		c1.091,0,1.98-0.892,1.98-1.982C10.991,23.927,10.103,23.037,9.011,23.037z"/>
</g>
</svg>
