<?xml version="1.0" encoding="utf-8"?>
<!-- Generator: Adobe Illustrator 15.0.0, SVG Export Plug-In . SVG Version: 6.00 Build 0)  -->
<!DOCTYPE svg PUBLIC "-//W3C//DTD SVG 1.1//EN" "http://www.w3.org/Graphics/SVG/1.1/DTD/svg11.dtd">
<svg version="1.1" id="Слой_1" xmlns="http://www.w3.org/2000/svg" xmlns:xlink="http://www.w3.org/1999/xlink" x="0px" y="0px"
	 width="38px" height="38px" viewBox="-6 -6 38 38" enable-background="new -6 -6 38 38" xml:space="preserve">
<path fill="#B9519F" d="M32,28c0,2.209-1.791,4-4,4H-2c-2.209,0-4-1.791-4-4V-2c0-2.209,1.791-4,4-4h30c2.209,0,4,1.791,4,4V28z"/>
<g>
	<path fill="#FFFFFF" d="M22.889,0.015c-1.114,0-2.085,0.806-2.307,1.914l-0.638,2.91H0.283l2.383,9.024
		c0.123,0.605,0.656,0.975,1.273,1.041h14.021l-0.858,2.91c-0.026,0.129-0.124,0.209-0.235,0.209H2.683v2.123h14.185
		c1.121,0,2.096-0.799,2.313-1.898L22.66,2.364c0.025-0.134,0.127-0.227,0.229-0.227h3.395V0.015H22.889z"/>
	<path fill="#FFFFFF" d="M15.903,21.306c-1.288,0-2.337,1.052-2.337,2.34c0,1.29,1.049,2.34,2.337,2.34
		c1.294,0,2.343-1.05,2.343-2.34C18.246,22.357,17.197,21.306,15.903,21.306z"/>
	<path fill="#FFFFFF" d="M5.033,21.306c-1.291,0-2.341,1.052-2.341,2.34c0,1.29,1.05,2.34,2.341,2.34c1.289,0,2.338-1.05,2.338-2.34
		C7.371,22.357,6.322,21.306,5.033,21.306z"/>
</g>
</svg>
