<?xml version="1.0" encoding="utf-8"?>
<!-- Generator: Adobe Illustrator 15.0.0, SVG Export Plug-In . SVG Version: 6.00 Build 0)  -->
<!DOCTYPE svg PUBLIC "-//W3C//DTD SVG 1.1//EN" "http://www.w3.org/Graphics/SVG/1.1/DTD/svg11.dtd">
<svg version="1.1" id="Layer_1" xmlns="http://www.w3.org/2000/svg" xmlns:xlink="http://www.w3.org/1999/xlink" x="0px" y="0px"
	 width="100px" height="66px" viewBox="46.667 30.167 100 66" enable-background="new 46.667 30.167 100 66" xml:space="preserve">
<g>
	<g>
		
			<linearGradient id="SVGID_1_" gradientUnits="userSpaceOnUse" x1="110.1938" y1="74.9663" x2="110.1938" y2="26.2665" gradientTransform="matrix(1 0 0 -1 0.1401 125.3877)">
			<stop  offset="0.0184" style="stop-color:#E61E26"/>
			<stop  offset="0.1595" style="stop-color:#E61E26"/>
			<stop  offset="0.227" style="stop-color:#AC1217"/>
			<stop  offset="0.5828" style="stop-color:#AE271D"/>
			<stop  offset="0.9387" style="stop-color:#E61E26"/>
		</linearGradient>
		<path fill="url(#SVGID_1_)" d="M146.657,87.576c0,2.866-2.323,5.189-5.189,5.189H79.202c-2.866,0-5.189-2.323-5.189-5.189V61.95
			c0-2.866,2.323-5.189,5.189-5.189h62.266c2.866,0,5.189,2.323,5.189,5.189V87.576z"/>
		
			<radialGradient id="SVGID_2_" cx="87.9751" cy="65.4858" r="15.8251" gradientTransform="matrix(1 0 0 -1 0.1401 125.3877)" gradientUnits="userSpaceOnUse">
			<stop  offset="0.2129" style="stop-color:#4B0000"/>
			<stop  offset="0.9387" style="stop-color:#AF1318"/>
		</radialGradient>
		<path fill="url(#SVGID_2_)" d="M74.012,61.95v25.627c0,2.865,2.323,5.188,5.189,5.188h11.417
			c7.058-5.568,11.601-14.231,11.601-23.971c0-4.275-0.879-8.342-2.456-12.034H79.202C76.335,56.76,74.012,59.083,74.012,61.95z"/>
		
			<linearGradient id="SVGID_3_" gradientUnits="userSpaceOnUse" x1="110.1938" y1="68.9204" x2="110.1938" y2="29.0456" gradientTransform="matrix(1 0 0 -1 0.1401 125.3877)">
			<stop  offset="0.0184" style="stop-color:#E61E26"/>
			<stop  offset="0.1595" style="stop-color:#E61E26"/>
			<stop  offset="0.227" style="stop-color:#AC1217"/>
			<stop  offset="0.5828" style="stop-color:#AE271D"/>
			<stop  offset="0.9387" style="stop-color:#E61E26"/>
		</linearGradient>
		<path fill="url(#SVGID_3_)" d="M74.012,78.208v9.367c0,2.866,2.323,5.189,5.189,5.189h62.266c2.866,0,5.189-2.323,5.189-5.189
			v-9.367H74.012z"/>
		<g>
			
				<linearGradient id="SVGID_4_" gradientUnits="userSpaceOnUse" x1="46.939" y1="53.1963" x2="90.6462" y2="53.1963" gradientTransform="matrix(1 0 0 -1 0.1401 125.3877)">
				<stop  offset="0.0184" style="stop-color:#B5B5B5"/>
				<stop  offset="0.2699" style="stop-color:#FAFAFA"/>
				<stop  offset="0.5399" style="stop-color:#4F4F4F"/>
				<stop  offset="0.9448" style="stop-color:#C7C7C7"/>
			</linearGradient>
			<path fill="url(#SVGID_4_)" d="M90.222,72.19c0,12.808-9.753,23.188-21.783,23.188c-12.03,0-21.783-10.381-21.783-23.188
				c0-12.805,9.752-23.186,21.783-23.186S90.222,59.385,90.222,72.19z"/>
			<circle fill="#D1D2D1" cx="68.464" cy="73.64" r="21.569"/>
			
				<linearGradient id="SVGID_5_" gradientUnits="userSpaceOnUse" x1="47.5396" y1="51.374" x2="90.0677" y2="51.374" gradientTransform="matrix(1 0 0 -1 0.1401 125.3877)">
				<stop  offset="0.0184" style="stop-color:#E3E3E3"/>
				<stop  offset="0.2699" style="stop-color:#FAFAFA"/>
				<stop  offset="0.5399" style="stop-color:#8F8F8F"/>
				<stop  offset="0.9448" style="stop-color:#FFFFFF"/>
			</linearGradient>
			<circle fill="url(#SVGID_5_)" cx="68.464" cy="74.014" r="21.195"/>
			
				<linearGradient id="SVGID_6_" gradientUnits="userSpaceOnUse" x1="68.3247" y1="66.4302" x2="68.3247" y2="37.1508" gradientTransform="matrix(1 0 0 -1 0.1401 125.3877)">
				<stop  offset="0" style="stop-color:#3E0000"/>
				<stop  offset="0.3248" style="stop-color:#000000"/>
				<stop  offset="0.8466" style="stop-color:#FBBEA7"/>
				<stop  offset="0.9816" style="stop-color:#FEE7DC"/>
			</linearGradient>
			<circle fill="url(#SVGID_6_)" cx="68.464" cy="74.014" r="18.737"/>
			
				<linearGradient id="SVGID_7_" gradientUnits="userSpaceOnUse" x1="68.3247" y1="72.5952" x2="68.3247" y2="31.9858" gradientTransform="matrix(1 0 0 -1 0.1401 125.3877)">
				<stop  offset="0" style="stop-color:#C4161C"/>
				<stop  offset="0.411" style="stop-color:#C4161C"/>
				<stop  offset="0.8466" style="stop-color:#FBBEA7"/>
				<stop  offset="0.9816" style="stop-color:#FEE7DC"/>
			</linearGradient>
			<circle fill="url(#SVGID_7_)" cx="68.464" cy="74.014" r="17.99"/>
			<circle fill="#CE242B" cx="68.464" cy="74.014" r="17.255"/>
			<circle fill="#EF4130" cx="68.463" cy="73.386" r="13.693"/>
			<circle fill="#BA141A" cx="68.464" cy="73.648" r="13.641"/>
			<circle fill="#BA141A" cx="68.464" cy="73.648" r="13.641"/>
			<g>
				
					<linearGradient id="SVGID_8_" gradientUnits="userSpaceOnUse" x1="68.3247" y1="64.1069" x2="68.3247" y2="38.8563" gradientTransform="matrix(1 0 0 -1 0.1401 125.3877)">
					<stop  offset="0" style="stop-color:#D1D3D4"/>
					<stop  offset="0.4969" style="stop-color:#BCBEC0"/>
					<stop  offset="0.9816" style="stop-color:#000000"/>
				</linearGradient>
				<circle fill="url(#SVGID_8_)" cx="68.464" cy="73.648" r="13.116"/>
				
					<linearGradient id="SVGID_9_" gradientUnits="userSpaceOnUse" x1="48.9067" y1="79.0913" x2="88.9695" y2="22.6647" gradientTransform="matrix(1 0 0 -1 0.1401 125.3877)">
					<stop  offset="0" style="stop-color:#C4C6C8"/>
					<stop  offset="0.3006" style="stop-color:#D6D7D8"/>
					<stop  offset="0.4847" style="stop-color:#EFEFF0"/>
					<stop  offset="0.9816" style="stop-color:#000000"/>
				</linearGradient>
				<circle fill="url(#SVGID_9_)" cx="68.464" cy="73.648" r="12.593"/>
				
					<linearGradient id="SVGID_10_" gradientUnits="userSpaceOnUse" x1="167.2075" y1="183.4751" x2="150.2958" y2="213.2888" gradientTransform="matrix(0.9451 0.3268 0.3268 -0.9451 -144.6368 203.126)">
					<stop  offset="0" style="stop-color:#D1D3D4"/>
					<stop  offset="0.4969" style="stop-color:#BCBEC0"/>
					<stop  offset="0.9816" style="stop-color:#000000"/>
				</linearGradient>
				<path fill="url(#SVGID_10_)" d="M72.671,61.796c-4.656-1.61-9.613-0.305-12.888,2.946c1.449,0.086,2.916,0.368,4.363,0.868
					c8.05,2.783,12.448,11.189,9.825,18.773c-0.068,0.197-0.142,0.391-0.219,0.582c3.009-1.367,5.474-3.916,6.639-7.286
					C82.646,71.163,79.189,64.05,72.671,61.796z"/>
				
					<linearGradient id="SVGID_11_" gradientUnits="userSpaceOnUse" x1="60.7876" y1="49.7017" x2="82.2372" y2="56.3939" gradientTransform="matrix(1 0 0 -1 0.1401 125.3877)">
					<stop  offset="0" style="stop-color:#C4C6C8"/>
					<stop  offset="0.4847" style="stop-color:#EFEFF0"/>
					<stop  offset="0.9816" style="stop-color:#FFFFFF"/>
				</linearGradient>
				<path fill="url(#SVGID_11_)" d="M76.034,65.395c-0.414-0.023-7.455,0-8.848,0c-5.283,0-6.292,4.914-6.407,6.025
					s-0.171,3.439-0.213,4.608c-0.042,4.882,4.963,4.969,4.963,4.969h6.145c0,0,2.301-0.308,2.921-2.877
					c0.034-0.187,0.067-0.395,0.097-0.588c0.058-0.39-0.208-0.72-0.699-0.72c-1.785,0-5.974,0-6.372,0
					c-2.122,0-1.831-1.917-1.831-1.917l0.349-3.225c0,0,0.183-2.181,3.051-2.181c1.58,0,3.358,0,3.88,0
					C74.116,69.491,75.674,68.968,76.034,65.395z"/>
				<path fill="#CE242B" d="M75.195,66.222c0,0-6.702,0-7.649,0c-4.577,0-5.688,4.152-5.786,5.23
					c-0.098,1.078-0.229,5.132-0.229,5.132s0.131,3.629,3.988,3.629c0.327,0,6.407,0,6.407,0s0.546-0.064,1.084-0.618
					c0.612-0.631,0.631-0.76,0.943-1.67c0.261-0.523-0.425-0.523-0.425-0.523s-5.002,0-6.375,0c-2.419,0-2.157-1.896-2.157-1.896
					l0.229-4.315c0,0,0.294-2.386,2.876-2.419c1.145,0,4.904,0,4.904,0s1.046-0.065,1.438-0.687
					C74.836,67.465,75.195,66.222,75.195,66.222z"/>
			</g>
			<g>
				<path fill="#FFFFFF" d="M57.742,63.581l-1.251-1.148l-0.346,0.377l1.252,1.148C57.509,63.83,57.625,63.705,57.742,63.581z"/>
				<path fill="#FFFFFF" d="M53.676,73.757c0-0.099,0.006-0.194,0.008-0.293l-1.699-0.004l-0.001,0.511l1.698,0.005
					C53.681,73.903,53.676,73.831,53.676,73.757z"/>
				<path fill="#FFFFFF" d="M55.386,66.857l-1.512-0.765l-0.23,0.457l1.51,0.763C55.228,67.159,55.306,67.008,55.386,66.857z"/>
				<path fill="#FFFFFF" d="M65.191,59.341l-0.403-1.647l-0.496,0.122l0.403,1.644C64.859,59.417,65.025,59.378,65.191,59.341z"/>
				<path fill="#FFFFFF" d="M54.072,70.365l-1.657-0.36l-0.109,0.499l1.655,0.36C53.995,70.697,54.034,70.53,54.072,70.365z"/>
				<path fill="#FFFFFF" d="M78.856,63.25l1.173-1.227l-0.371-0.353l-1.172,1.227C78.612,63.012,78.735,63.13,78.856,63.25z"/>
				<path fill="#FFFFFF" d="M82.661,69.651l1.621-0.498l-0.151-0.489l-1.619,0.498C82.564,69.325,82.614,69.487,82.661,69.651z"/>
				<path fill="#FFFFFF" d="M81.084,66.063l1.431-0.906l-0.273-0.433l-1.433,0.908C80.902,65.775,80.996,65.917,81.084,66.063z"/>
				<path fill="#FFFFFF" d="M72.229,59.46l0.403-1.644l-0.497-0.121l-0.404,1.646C71.898,59.379,72.064,59.417,72.229,59.46z"/>
				<path fill="#FFFFFF" d="M75.933,61.003l0.832-1.478l-0.446-0.251l-0.83,1.475C75.64,60.831,75.787,60.917,75.933,61.003z"/>
				<path fill="#FFFFFF" d="M68.46,58.974c0.086,0,0.171,0.005,0.256,0.006v-1.698h-0.511v1.698
					C68.29,58.979,68.374,58.974,68.46,58.974z"/>
				<path fill="#FFFFFF" d="M60.885,61.062l-0.893-1.44l-0.435,0.27l0.895,1.442C60.595,61.241,60.738,61.149,60.885,61.062z"/>
				<path fill="#FFFFFF" d="M81.534,80.657l1.513,0.766l0.231-0.457l-1.51-0.764C81.693,80.355,81.614,80.506,81.534,80.657z"/>
				<path fill="#FFFFFF" d="M79.178,83.933l1.252,1.148l0.346-0.378l-1.251-1.147C79.411,83.684,79.296,83.809,79.178,83.933z"/>
				<path fill="#FFFFFF" d="M76.036,86.452l0.893,1.44l0.435-0.271l-0.895-1.441C76.326,86.273,76.182,86.364,76.036,86.452z"/>
				<path fill="#FFFFFF" d="M71.729,88.173l0.403,1.646l0.497-0.12l-0.403-1.646C72.062,88.097,71.896,88.136,71.729,88.173z"/>
				<path fill="#FFFFFF" d="M54.259,77.864l-1.62,0.498l0.151,0.489l1.619-0.499C54.356,78.191,54.306,78.027,54.259,77.864z"/>
				<path fill="#FFFFFF" d="M83.238,73.538c0.001,0.073,0.006,0.146,0.006,0.22c0,0.098-0.006,0.194-0.008,0.292l1.7,0.005l0-0.513
					L83.238,73.538z"/>
				<path fill="#FFFFFF" d="M82.848,77.15l1.657,0.36l0.108-0.501l-1.654-0.359C82.925,76.818,82.886,76.984,82.848,77.15z"/>
				<path fill="#FFFFFF" d="M55.835,81.452l-1.43,0.906l0.274,0.431l1.433-0.907C56.018,81.74,55.924,81.598,55.835,81.452z"/>
				<path fill="#FFFFFF" d="M58.064,84.266l-1.171,1.226l0.37,0.354l1.172-1.228C58.308,84.502,58.185,84.386,58.064,84.266z"/>
				<path fill="#FFFFFF" d="M64.692,88.054l-0.403,1.645l0.497,0.121l0.404-1.646C65.022,88.136,64.856,88.097,64.692,88.054z"/>
				<path fill="#FFFFFF" d="M60.987,86.511l-0.832,1.479l0.446,0.25l0.83-1.475C61.281,86.684,61.134,86.597,60.987,86.511z"/>
				<path fill="#FFFFFF" d="M68.46,88.541c-0.086,0-0.17-0.005-0.255-0.007v1.699h0.511v-1.699
					C68.631,88.536,68.546,88.541,68.46,88.541z"/>
			</g>
			<path fill="#4D4E4E" d="M57.834,53.563c0.308-0.182,0.621-0.357,0.938-0.523v-8.827c0,0,0.503-8.458,10.068-8.458
				s9.264,7.904,9.264,7.904v9.355c0.332,0.172,0.656,0.354,0.977,0.544c1.96,1.038,3.749,2.354,5.316,3.896V44.307
				c0,0-0.051-13.586-15.104-14.14c-0.215,0-0.348,0-0.432,0c-0.009,0-0.047,0-0.122,0c-0.049,0-0.111,0-0.202,0
				c-15.959,0-16.009,14.14-16.009,14.14v13.147C54.094,55.914,55.879,54.601,57.834,53.563z"/>
			<path fill="#B3B4B3" d="M58.085,53.436v-9.944c0,0,0.656-8.804,10.743-8.804c10.087,0,9.84,7.907,9.84,7.907v10.707
				c1.789,0.9,3.442,2.073,4.921,3.394v-14.02c0,0-1.641-12.065-14.761-12.065c-15.007,0-15.417,12.717-15.417,12.717v13.305
				C54.823,55.382,56.392,54.306,58.085,53.436z"/>
			<path fill="#E6E6E5" d="M54.641,55.542V43.568c0,0,0.656-12.547,13.859-12.547c13.203,0,13.695,11.809,13.695,11.809v12.629
				l-2.133-1.389V42.83c0,0-1.066-9.431-11.645-9.349C57.675,33.565,57.019,44.88,57.019,44.88v8.938L54.641,55.542z"/>
			
				<linearGradient id="SVGID_12_" gradientUnits="userSpaceOnUse" x1="68.2773" y1="76.8638" x2="68.2773" y2="90.6902" gradientTransform="matrix(1 0 0 -1 0.1401 125.3877)">
				<stop  offset="0.0184" style="stop-color:#B5B5B5"/>
				<stop  offset="0.6748" style="stop-color:#FAFAFA"/>
			</linearGradient>
			<path fill="url(#SVGID_12_)" d="M54.641,55.542V43.568c0,0,0.656-12.547,13.859-12.547c13.203,0,13.695,11.809,13.695,11.809
				v12.629l-2.133-1.406V42.83c0,0-1.066-9.431-11.645-9.349C57.675,33.565,57.019,44.88,57.019,44.88v8.938L54.641,55.542z"/>
			
				<linearGradient id="SVGID_13_" gradientUnits="userSpaceOnUse" x1="55.3892" y1="63.3052" x2="55.1876" y2="75.2098" gradientTransform="matrix(1 0 0 -1 0.1401 125.3877)">
				<stop  offset="0.0184" style="stop-color:#B5B5B5"/>
				<stop  offset="0.2699" style="stop-color:#FAFAFA"/>
				<stop  offset="0.5399" style="stop-color:#4F4F4F"/>
				<stop  offset="0.9448" style="stop-color:#C7C7C7"/>
			</linearGradient>
			<polygon fill="url(#SVGID_13_)" points="56.017,54.411 56.017,44.909 54.641,55.542 			"/>
			
				<linearGradient id="SVGID_14_" gradientUnits="userSpaceOnUse" x1="58.0381" y1="44.2617" x2="57.2275" y2="92.1292" gradientTransform="matrix(1 0 0 -1 0.1401 125.3877)">
				<stop  offset="0.0184" style="stop-color:#B5B5B5"/>
				<stop  offset="0.2699" style="stop-color:#FAFAFA"/>
				<stop  offset="0.5399" style="stop-color:#2B2B2B"/>
				<stop  offset="0.9448" style="stop-color:#C7C7C7"/>
			</linearGradient>
			<path fill="url(#SVGID_14_)" d="M54.148,55.872c0,0,0-8.007,0-12.436c0-7.098,6.814-10.562,6.814-10.562
				s-6.076,3.918-6.076,10.391c0,3.35,0,12.145,0,12.145L54.148,55.872z"/>
			<path fill="#7D7D7D" d="M76.945,33.254c0,0,5.38,3.728,5.68,9.694c0.124,2.563,0,12.875,0,12.875l-0.682-0.455
				c0,0,0-10.131,0-12.539C81.943,37.264,76.945,33.254,76.945,33.254z"/>
			<path fill="#4D4E4E" d="M52.53,57.454c0,0,2.973-2.876,6.243-4.414c-0.059-0.168-4.66,2.479-5.043,2.843
				C53.062,56.518,52.53,57.454,52.53,57.454z"/>
			<path fill="#4D4E4E" d="M84.394,57.454c0,0-2.812-2.777-6.082-4.316c0.059-0.167,4.403,2.278,4.83,2.591
				C83.979,56.343,84.394,57.454,84.394,57.454z"/>
			<path fill="#7D7D7D" d="M78.67,53.045c0,0,1.971,0.853,4.417,2.657c-1.439-0.907-4.439-2.446-4.439-2.446L78.67,53.045z"/>
		</g>
	</g>
	<g>
		
			<linearGradient id="SVGID_15_" gradientUnits="userSpaceOnUse" x1="93.4834" y1="44.1372" x2="100.1089" y2="44.1372" gradientTransform="matrix(1 0 0 -1 0.1401 125.3877)">
			<stop  offset="0" style="stop-color:#C4C6C8"/>
			<stop  offset="0.4417" style="stop-color:#D6D7D8"/>
			<stop  offset="0.7669" style="stop-color:#EFEFF0"/>
		</linearGradient>
		<path fill="url(#SVGID_15_)" d="M100.068,78.676l-1.643,0.448c0,0-0.694-2.132-2.138-1.108c-1.009,0.715,0.19,1.806,0.75,1.98
			c3.828,0.958,3.271,3.287,3.049,4.096c-0.898,2.42-3.26,1.994-3.823,1.956c-2.022-0.169-2.64-2.321-2.64-2.321l1.593-0.636
			c0,0,1.064,2.316,2.594,1.364c1.77-1.495-0.91-2.321-0.91-2.321s-2.974-0.729-2.98-3.202c-0.003-1.229,1.138-3.01,4.333-2.412
			C99.827,76.851,100.068,78.676,100.068,78.676z"/>
		
			<linearGradient id="SVGID_16_" gradientUnits="userSpaceOnUse" x1="104.4819" y1="39.9307" x2="104.4819" y2="44.6783" gradientTransform="matrix(1 0 0 -1 0.1401 125.3877)">
			<stop  offset="0" style="stop-color:#C4C6C8"/>
			<stop  offset="0.4417" style="stop-color:#D6D7D8"/>
			<stop  offset="0.7669" style="stop-color:#EFEFF0"/>
		</linearGradient>
		<polygon fill="url(#SVGID_16_)" points="107.43,78.253 107.43,76.701 103.502,76.701 102.909,76.701 101.813,76.701 
			101.813,86.064 102.909,86.064 103.502,86.064 107.43,86.064 107.43,84.511 103.502,84.511 103.502,82.044 106.426,82.044 
			106.426,80.492 103.502,80.492 103.502,78.253 		"/>
		
			<linearGradient id="SVGID_17_" gradientUnits="userSpaceOnUse" x1="135.6743" y1="40.5332" x2="135.6743" y2="51.3076" gradientTransform="matrix(1 0 0 -1 0.1401 125.3877)">
			<stop  offset="0" style="stop-color:#C4C6C8"/>
			<stop  offset="0.4417" style="stop-color:#D6D7D8"/>
			<stop  offset="0.7669" style="stop-color:#EFEFF0"/>
		</linearGradient>
		<polygon fill="url(#SVGID_17_)" points="138.623,78.253 138.623,76.701 134.696,76.701 134.101,76.701 133.004,76.701 
			133.004,86.064 134.101,86.064 134.696,86.064 138.623,86.064 138.623,84.511 134.696,84.511 134.696,82.044 137.619,82.044 
			137.619,80.492 134.696,80.492 134.696,78.253 		"/>
		
			<linearGradient id="SVGID_18_" gradientUnits="userSpaceOnUse" x1="128.0415" y1="40.2319" x2="128.0415" y2="47.6185" gradientTransform="matrix(1 0 0 -1 0.1401 125.3877)">
			<stop  offset="0" style="stop-color:#C4C6C8"/>
			<stop  offset="0.4417" style="stop-color:#D6D7D8"/>
			<stop  offset="0.7669" style="stop-color:#EFEFF0"/>
		</linearGradient>
		<path fill="url(#SVGID_18_)" d="M130.221,81.75c1.54-0.462,2.442-5.049-1.524-5.049c-0.68,0-1.772,0-2.177,0h-0.158h-1.531v9.362
			h1.689v-4.023h1.407l1.494,4.016h2.009l-1.569-4.22C129.993,81.81,130.116,81.782,130.221,81.75z M128.673,78.253
			c1.258,0,1.523,2.238-0.021,2.238c-1.069,0-1.786,0.012-2.132,0.019v-2.257C126.855,78.253,127.701,78.253,128.673,78.253z"/>
		
			<linearGradient id="SVGID_19_" gradientUnits="userSpaceOnUse" x1="111.729" y1="39.9302" x2="111.729" y2="48.2753" gradientTransform="matrix(1 0 0 -1 0.1401 125.3877)">
			<stop  offset="0" style="stop-color:#C4C6C8"/>
			<stop  offset="0.4417" style="stop-color:#D6D7D8"/>
			<stop  offset="0.7669" style="stop-color:#EFEFF0"/>
		</linearGradient>
		<path fill="url(#SVGID_19_)" d="M115.314,80.04h-1.984c0,0,0.086-1.395-0.687-1.952c-0.53-0.344-1.251-0.271-1.687,0.164
			c-0.437,0.437-0.742,1.395-0.698,3.444c0.044,2.048,0.741,2.528,0.741,2.528s1.046,0.566,1.743,0
			c0.698-0.567,0.829-1.657,0.829-1.657h1.7c0,0-0.306,2.441-1.744,3.226c-1.438,0.785-3.095,0.272-3.748-0.349
			c-0.654-0.621-1.309-2.005-1.352-3.835c-0.044-1.831,0.179-3.894,1.768-4.925c1.162-0.753,2.759-0.787,3.979,0.172
			C115.395,77.815,115.314,80.04,115.314,80.04z"/>
		
			<linearGradient id="SVGID_20_" gradientUnits="userSpaceOnUse" x1="119.7935" y1="39.7051" x2="119.7935" y2="45.8089" gradientTransform="matrix(1 0 0 -1 0.1401 125.3877)">
			<stop  offset="0" style="stop-color:#C4C6C8"/>
			<stop  offset="0.4417" style="stop-color:#D6D7D8"/>
			<stop  offset="0.7669" style="stop-color:#EFEFF0"/>
		</linearGradient>
		<path fill="url(#SVGID_20_)" d="M121.274,76.618v6.668c0,0.741-0.601,1.341-1.34,1.341c-0.741,0-1.341-0.6-1.341-1.341v-6.668
			h-1.902V83.1c0,1.729,1.452,3.128,3.243,3.128s3.242-1.4,3.242-3.128v-6.482H121.274z"/>
	</g>
	<g>
		<path fill="#FFFFFF" d="M142.27,66.484c-1.694-2.273-4.981-1.304-6.018,0.101c-0.735,0.997-1.706,2.978-0.168,4.78
			c0.869,0.97,3.443,1.705,5.416-0.066C143.756,69.271,142.738,67.019,142.27,66.484z M141.321,69.924
			c-0.759,1.444-2.331,2.112-3.513,1.492c-1.181-0.62-1.522-2.294-0.765-3.737c0.759-1.444,2.331-2.113,3.512-1.493
			C141.737,66.806,142.079,68.48,141.321,69.924z"/>
		<path fill="#FFFFFF" d="M125.428,66.484c-1.694-2.273-4.981-1.304-6.019,0.101c-0.735,0.997-1.705,2.978-0.166,4.78
			c0.869,0.97,3.442,1.705,5.415-0.066C126.915,69.271,125.896,67.019,125.428,66.484z M124.478,69.924
			c-0.758,1.444-2.33,2.112-3.512,1.492c-1.181-0.62-1.522-2.294-0.765-3.737c0.759-1.444,2.331-2.113,3.512-1.493
			S125.236,68.48,124.478,69.924z"/>
		<path fill="#FFFFFF" d="M106.306,66.484c-1.693-2.273-4.98-1.304-6.018,0.101c-0.735,0.997-1.705,2.978-0.167,4.78
			c0.869,0.97,3.444,1.705,5.416-0.066C107.792,69.271,106.774,67.019,106.306,66.484z M105.357,69.924
			c-0.758,1.444-2.331,2.112-3.512,1.492s-1.523-2.294-0.764-3.737c0.758-1.444,2.33-2.113,3.511-1.493
			S106.116,68.48,105.357,69.924z"/>
		<path fill="#FFFFFF" d="M131.037,65.448l-3.042-0.033l-0.092,0.836h2.933c0,0,2.073-0.167,1.906,2.307
			c-0.301,2.675-2.307,2.541-2.307,2.541h-1.604l0.502-3.912h-1.533l-0.518,4.691h3.031c0,0,3.947,0.123,3.988-3.934
			C134.345,65.493,131.037,65.448,131.037,65.448z"/>
		<path fill="#FFFFFF" d="M108.375,71.877l0.848-6.563h1.103l2.264,3.674l3.286-3.541h1.103l-0.685,6.118
			c0,0-0.277,0.468-0.819,0.468c-0.263,0-0.669,0-0.669,0l0.636-4.245l-2.942,3.343l-2.407-4.178l-0.668,4.88L108.375,71.877z"/>
		<path fill="#FFFFFF" d="M95.549,71.042c0,0-2.073,0.168-1.907-2.306c0.301-2.675,2.307-2.54,2.307-2.54h1.604v0.004
			c0.056,0,0.122,0,0.207,0c0.501,0,0.812-0.556,0.92-0.785h-2.608c0,0-3.947-0.123-3.988,3.934
			c-0.045,2.451,3.264,2.496,3.264,2.496l2.055,0.004c0,0,0.594-0.107,0.686-0.806C98.029,71.047,95.549,71.042,95.549,71.042z"/>
	</g>
</g>
</svg>
