<?xml version="1.0" encoding="utf-8"?>
<!-- Generator: Adobe Illustrator 19.0.0, SVG Export Plug-In . SVG Version: 6.00 Build 0)  -->
<svg version="1.1" id="Layer_1" xmlns="http://www.w3.org/2000/svg" xmlns:xlink="http://www.w3.org/1999/xlink" x="0px" y="0px"
	 viewBox="0 0 455 455" style="enable-background:new 0 0 455 455;" xml:space="preserve">
<style type="text/css">
	.st0{fill:none;stroke:#000000;stroke-width:8;stroke-miterlimit:10;}
</style>
<g>
	<g>
		<polygon points="356.9,24.2 100.6,24.2 95,7.1 360,7.1 		"/>
		<path d="M285,447.9H176c-7.2,0-13-5.8-13-13v-28.5c0-7.2,5.8-13,13-13h109c7.2,0,13,5.8,13,13v28.5
			C298,442.1,292.2,447.9,285,447.9z"/>
		<g>
			<path d="M101.5,28.7L166.3,380l129.1,0.2L354,28.7H101.5z M282,310.5H178L143,82.1h171L282,310.5z"/>
		</g>
	</g>
	<g>
		<path d="M228.3,176.2c-5.3-5.6-12.8-9.1-21.1-9.1c-16.1,0-29.2,13.1-29.2,29.2c0,16.1,13.1,29.2,29.2,29.2c3.5,0,6.9-0.6,10-1.8
			c-3.3-5.3-5.2-11.5-5.2-18.2C211.9,193.1,218.5,182.2,228.3,176.2z"/>
	</g>
	<circle cx="244.8" cy="204.4" r="29.2"/>
	<path class="st0" d="M214.9,171.1c0,0,29.2-42.8,29.2-59.4"/>
	<path class="st0" d="M250.5,182.9c0,0-12.2-54.2-6.4-71.1"/>
	<line class="st0" x1="178" y1="250.9" x2="278" y2="250.9"/>
	<line class="st0" x1="187" y1="268.9" x2="269" y2="268.9"/>
	<g>
		<line class="st0" x1="193" y1="285.9" x2="216.6" y2="285.9"/>
		<line class="st0" x1="229.8" y1="285.9" x2="263" y2="285.9"/>
	</g>
	<path d="M248.2,128.4c0,0-13.1,8.4-30.5-1.4c-8.3-4.7-33-35.3-33-35.3s39.3,4.8,47.6,9.4C252.2,112.4,248.2,128.4,248.2,128.4z"/>
	<path d="M236.7,126.7c0,0,9.8,12.1,29.4,8.2c9.3-1.8,42.4-23.2,42.4-23.2s-38.8-7.8-48.1-5.9C237.9,110.2,236.7,126.7,236.7,126.7z
		"/>
</g>
</svg>
