<?xml version="1.0" encoding="utf-8"?>
<!-- Generator: Adobe Illustrator 15.0.0, SVG Export Plug-In . SVG Version: 6.00 Build 0)  -->
<!DOCTYPE svg PUBLIC "-//W3C//DTD SVG 1.1//EN" "http://www.w3.org/Graphics/SVG/1.1/DTD/svg11.dtd">
<svg version="1.1" id="Layer_1" xmlns="http://www.w3.org/2000/svg" xmlns:xlink="http://www.w3.org/1999/xlink" x="0px" y="0px"
	 width="95px" height="24px" viewBox="0 0 95 24" enable-background="new 0 0 95 24" xml:space="preserve">
<path fill="#606060" d="M3.51,6.486v3.5h-1.5c-1.105,0-2,0.896-2,2v10c0,1.105,0.896,2,2,2h16c1.105,0,2.001-0.895,2.001-2v-10
	c0-1.104-0.896-2-2.001-2h-1.5v-3.5c0-3.59-2.91-6.5-6.5-6.5S3.51,2.896,3.51,6.486z M6.011,9.985v-3.5c0-2.21,1.789-4,4-4
	c2.21,0,4,1.79,4,4v3.5H6.011z M8.01,15.486c0-1.104,0.896-1.999,2-1.999s2,0.895,2,1.999c0,0.706-0.365,1.325-0.915,1.681
	c0,0,0.194,1.181,0.415,2.569c0,0.416-0.335,0.75-0.75,0.75h-1.5c-0.415,0-0.75-0.334-0.75-0.75l0.415-2.569
	C8.375,16.811,8.01,16.192,8.01,15.486z"/>
<g>
	<path fill="#B9529F" d="M34.303,6.91c0,0.679-0.113,1.303-0.34,1.872c-0.227,0.568-0.544,1.057-0.955,1.467
		c-0.41,0.41-0.903,0.728-1.48,0.954c-0.577,0.227-1.217,0.34-1.922,0.34h-3.531V2.276h3.531c0.705,0,1.346,0.115,1.922,0.343
		c0.577,0.229,1.07,0.547,1.48,0.955c0.411,0.408,0.729,0.896,0.955,1.465S34.303,6.23,34.303,6.91z M32.534,6.91
		c0-0.509-0.067-0.964-0.202-1.369c-0.135-0.403-0.329-0.745-0.583-1.025c-0.254-0.28-0.562-0.495-0.923-0.644
		c-0.361-0.149-0.768-0.225-1.221-0.225h-1.801v6.524h1.801c0.453,0,0.86-0.075,1.221-0.225c0.361-0.149,0.669-0.364,0.923-0.644
		c0.254-0.28,0.449-0.622,0.583-1.025S32.534,7.418,32.534,6.91z"/>
	<path fill="#B9529F" d="M37.692,11.542h-1.73V2.276h1.73V11.542z"/>
	<path fill="#B9529F" d="M44.838,3.961c-0.051,0.09-0.105,0.155-0.163,0.196c-0.058,0.041-0.129,0.061-0.215,0.061
		c-0.089,0-0.187-0.034-0.292-0.1s-0.23-0.14-0.375-0.221c-0.146-0.081-0.315-0.155-0.51-0.221c-0.194-0.066-0.424-0.1-0.688-0.1
		c-0.239,0-0.449,0.029-0.628,0.086c-0.18,0.058-0.33,0.138-0.452,0.24c-0.122,0.103-0.213,0.226-0.272,0.369
		s-0.089,0.3-0.089,0.471c0,0.218,0.061,0.399,0.183,0.545c0.122,0.145,0.283,0.269,0.484,0.372
		c0.201,0.102,0.429,0.194,0.686,0.275s0.519,0.167,0.788,0.259c0.27,0.092,0.532,0.199,0.789,0.321
		c0.256,0.122,0.485,0.275,0.686,0.461c0.201,0.186,0.362,0.414,0.484,0.683c0.122,0.269,0.183,0.596,0.183,0.98
		c0,0.419-0.072,0.811-0.215,1.176c-0.143,0.365-0.353,0.684-0.628,0.955s-0.612,0.484-1.009,0.641s-0.852,0.234-1.365,0.234
		c-0.295,0-0.585-0.029-0.872-0.088c-0.286-0.057-0.561-0.139-0.823-0.246c-0.263-0.105-0.51-0.234-0.74-0.385
		c-0.231-0.149-0.436-0.315-0.615-0.5l0.506-0.827c0.042-0.06,0.098-0.11,0.167-0.15s0.141-0.061,0.218-0.061
		c0.106,0,0.222,0.044,0.346,0.131c0.124,0.088,0.271,0.185,0.442,0.292c0.17,0.106,0.371,0.204,0.599,0.292
		s0.503,0.131,0.824,0.131c0.491,0,0.872-0.116,1.141-0.35c0.269-0.233,0.404-0.567,0.404-1.002c0-0.244-0.061-0.442-0.183-0.596
		c-0.122-0.154-0.284-0.283-0.484-0.388c-0.201-0.105-0.429-0.193-0.685-0.266c-0.257-0.073-0.518-0.152-0.782-0.237
		s-0.525-0.188-0.782-0.307c-0.257-0.12-0.485-0.276-0.686-0.468c-0.201-0.192-0.362-0.433-0.483-0.721
		c-0.122-0.289-0.183-0.644-0.183-1.067c0-0.337,0.067-0.666,0.202-0.987c0.134-0.32,0.33-0.604,0.586-0.852
		c0.256-0.248,0.572-0.447,0.948-0.596s0.808-0.224,1.294-0.224c0.547,0,1.051,0.085,1.513,0.256
		c0.461,0.171,0.854,0.41,1.179,0.718L44.838,3.961z"/>
	<path fill="#B9529F" d="M53.438,9.357c0.095,0,0.178,0.037,0.25,0.109l0.68,0.737c-0.376,0.466-0.838,0.823-1.388,1.071
		c-0.549,0.246-1.208,0.371-1.977,0.371c-0.688,0-1.307-0.117-1.855-0.354c-0.549-0.234-1.018-0.561-1.407-0.98
		c-0.389-0.419-0.687-0.918-0.894-1.5c-0.208-0.581-0.311-1.215-0.311-1.903c0-0.696,0.111-1.334,0.333-1.913
		c0.223-0.579,0.535-1.078,0.939-1.497c0.403-0.418,0.885-0.744,1.445-0.977c0.56-0.233,1.179-0.349,1.859-0.349
		c0.675,0,1.274,0.111,1.797,0.333c0.523,0.222,0.969,0.513,1.336,0.872l-0.577,0.801c-0.034,0.051-0.078,0.097-0.131,0.135
		c-0.054,0.039-0.127,0.058-0.221,0.058c-0.064,0-0.131-0.018-0.199-0.054c-0.068-0.036-0.143-0.082-0.224-0.135
		s-0.175-0.112-0.282-0.176c-0.107-0.064-0.231-0.124-0.372-0.177s-0.304-0.098-0.49-0.134c-0.186-0.036-0.4-0.055-0.644-0.055
		c-0.415,0-0.793,0.074-1.137,0.221c-0.344,0.147-0.64,0.361-0.888,0.641c-0.248,0.28-0.44,0.622-0.577,1.026
		c-0.137,0.403-0.205,0.864-0.205,1.381c0,0.521,0.073,0.985,0.221,1.391c0.147,0.406,0.347,0.748,0.599,1.025
		c0.252,0.278,0.548,0.49,0.891,0.638c0.342,0.147,0.709,0.221,1.103,0.221c0.235,0,0.447-0.013,0.637-0.039
		c0.19-0.026,0.366-0.066,0.526-0.122s0.312-0.127,0.455-0.215c0.143-0.088,0.286-0.195,0.427-0.324
		c0.042-0.039,0.087-0.069,0.134-0.093C53.338,9.37,53.388,9.357,53.438,9.357z"/>
	<path fill="#B9529F" d="M62.93,11.542h-1.557c-0.295,0-0.509-0.115-0.641-0.346L58.784,8.23c-0.073-0.111-0.153-0.19-0.241-0.237
		c-0.087-0.047-0.216-0.07-0.387-0.07h-0.737v3.62h-1.724V2.276h2.826c0.628,0,1.167,0.065,1.618,0.196
		c0.451,0.13,0.82,0.313,1.108,0.548c0.289,0.235,0.501,0.516,0.638,0.843c0.136,0.327,0.205,0.687,0.205,1.08
		c0,0.312-0.046,0.607-0.138,0.885s-0.224,0.53-0.397,0.756c-0.173,0.227-0.387,0.425-0.641,0.596
		c-0.254,0.171-0.544,0.306-0.869,0.404c0.111,0.064,0.214,0.14,0.308,0.228c0.094,0.088,0.179,0.191,0.256,0.311L62.93,11.542z
		 M58.495,6.685c0.325,0,0.608-0.04,0.849-0.122c0.242-0.081,0.44-0.193,0.596-0.336c0.156-0.143,0.272-0.313,0.349-0.509
		c0.077-0.197,0.116-0.412,0.116-0.647c0-0.47-0.155-0.831-0.465-1.083c-0.31-0.252-0.783-0.378-1.419-0.378h-1.103v3.076H58.495z"
		/>
	<path fill="#B9529F" d="M65.807,11.542h-1.73V2.276h1.73V11.542z"/>
	<path fill="#B9529F" d="M75.312,10.204c-0.337,0.423-0.748,0.755-1.23,0.997c-0.483,0.24-1.053,0.385-1.712,0.432l-0.083,0.301
		c0.402,0.096,0.683,0.223,0.846,0.383c0.163,0.16,0.244,0.352,0.244,0.572c0,0.146-0.038,0.275-0.112,0.393
		c-0.075,0.115-0.182,0.213-0.321,0.295c-0.139,0.08-0.305,0.143-0.497,0.186c-0.192,0.043-0.403,0.062-0.634,0.062
		c-0.175,0-0.339-0.012-0.49-0.035c-0.152-0.021-0.303-0.057-0.453-0.105l0.148-0.492c0.025-0.1,0.087-0.148,0.185-0.148
		c0.06,0,0.125,0.018,0.196,0.049c0.07,0.031,0.173,0.049,0.311,0.049c0.141,0,0.247-0.027,0.317-0.08
		c0.071-0.055,0.106-0.119,0.106-0.197c0-0.123-0.077-0.211-0.23-0.266c-0.154-0.053-0.391-0.104-0.711-0.15l0.282-0.82
		c-0.615-0.057-1.17-0.211-1.663-0.465s-0.913-0.588-1.259-1.003c-0.346-0.414-0.611-0.897-0.794-1.448
		C67.572,8.159,67.48,7.559,67.48,6.91c0-0.696,0.111-1.334,0.333-1.913c0.222-0.579,0.535-1.078,0.939-1.497
		c0.404-0.418,0.885-0.744,1.445-0.977c0.559-0.233,1.179-0.349,1.858-0.349c0.675,0,1.274,0.111,1.797,0.333
		c0.523,0.222,0.969,0.513,1.336,0.872l-0.577,0.801c-0.034,0.051-0.078,0.097-0.131,0.135c-0.053,0.039-0.128,0.058-0.221,0.058
		c-0.064,0-0.13-0.018-0.199-0.054s-0.144-0.082-0.224-0.135c-0.081-0.053-0.175-0.112-0.282-0.176
		c-0.107-0.064-0.23-0.124-0.372-0.177c-0.141-0.053-0.304-0.098-0.49-0.134c-0.187-0.036-0.401-0.055-0.645-0.055
		c-0.414,0-0.793,0.074-1.137,0.221c-0.344,0.147-0.64,0.361-0.888,0.641c-0.248,0.28-0.439,0.622-0.576,1.026
		c-0.137,0.403-0.206,0.864-0.206,1.381c0,0.521,0.074,0.985,0.221,1.391c0.148,0.406,0.347,0.748,0.599,1.025
		s0.549,0.49,0.891,0.638c0.341,0.147,0.709,0.221,1.103,0.221c0.234,0,0.447-0.013,0.638-0.039c0.19-0.026,0.365-0.066,0.525-0.122
		s0.312-0.127,0.455-0.215c0.144-0.088,0.285-0.195,0.426-0.324c0.042-0.039,0.087-0.069,0.134-0.093s0.096-0.036,0.148-0.036
		c0.093,0,0.177,0.037,0.25,0.109L75.312,10.204z"/>
	<path fill="#B9529F" d="M84.579,11.542h-1.333c-0.149,0-0.271-0.037-0.365-0.111s-0.164-0.168-0.212-0.279l-0.691-1.89h-3.839
		l-0.692,1.89c-0.034,0.1-0.1,0.189-0.199,0.27c-0.099,0.082-0.22,0.121-0.366,0.121h-1.345l3.646-9.267h1.757L84.579,11.542z
		 M80.855,0.654c0.094,0,0.177-0.019,0.247-0.057c0.07-0.039,0.128-0.086,0.173-0.144c0.045-0.058,0.078-0.122,0.1-0.192
		c0.021-0.071,0.031-0.14,0.031-0.208h0.968c0,0.214-0.028,0.418-0.086,0.612c-0.058,0.194-0.144,0.368-0.257,0.52
		c-0.113,0.151-0.252,0.272-0.416,0.362S81.261,1.68,81.047,1.68c-0.218,0-0.406-0.034-0.566-0.103s-0.308-0.142-0.439-0.221
		c-0.133-0.079-0.254-0.153-0.362-0.221c-0.109-0.068-0.221-0.103-0.337-0.103c-0.098,0-0.181,0.02-0.249,0.058
		c-0.068,0.039-0.125,0.088-0.167,0.147c-0.043,0.06-0.074,0.126-0.097,0.199c-0.021,0.073-0.031,0.143-0.031,0.211h-0.98
		c0-0.209,0.029-0.414,0.089-0.612c0.06-0.198,0.146-0.374,0.259-0.525c0.114-0.152,0.252-0.273,0.417-0.366
		c0.165-0.092,0.354-0.138,0.568-0.138c0.218,0,0.407,0.034,0.57,0.103c0.162,0.068,0.307,0.142,0.436,0.221
		c0.128,0.079,0.248,0.153,0.358,0.221C80.626,0.621,80.74,0.654,80.855,0.654z M81.535,8.044l-1.128-3.083
		c-0.056-0.137-0.113-0.299-0.173-0.487c-0.061-0.188-0.12-0.391-0.18-0.608c-0.056,0.218-0.113,0.422-0.173,0.612
		s-0.117,0.355-0.174,0.497l-1.121,3.07H81.535z"/>
	<path fill="#B9529F" d="M94.518,6.91c0,0.679-0.112,1.309-0.336,1.887c-0.225,0.579-0.542,1.08-0.951,1.503
		c-0.411,0.423-0.904,0.752-1.481,0.991c-0.577,0.236-1.218,0.355-1.923,0.355c-0.7,0-1.339-0.119-1.916-0.355
		c-0.576-0.238-1.071-0.568-1.483-0.991c-0.412-0.423-0.732-0.924-0.958-1.503c-0.227-0.579-0.34-1.208-0.34-1.887
		s0.113-1.309,0.34-1.888c0.226-0.579,0.546-1.08,0.958-1.503c0.412-0.422,0.907-0.753,1.483-0.99
		c0.577-0.237,1.216-0.355,1.916-0.355c0.471,0,0.913,0.054,1.327,0.163s0.795,0.263,1.141,0.461s0.656,0.44,0.933,0.724
		c0.275,0.284,0.509,0.602,0.702,0.952c0.191,0.351,0.338,0.731,0.438,1.141S94.518,6.457,94.518,6.91z M92.755,6.91
		c0-0.509-0.068-0.964-0.205-1.369c-0.136-0.403-0.33-0.746-0.582-1.028c-0.253-0.282-0.56-0.498-0.921-0.647
		c-0.36-0.15-0.768-0.225-1.221-0.225c-0.452,0-0.859,0.075-1.221,0.225c-0.36,0.149-0.669,0.365-0.923,0.647
		s-0.449,0.625-0.586,1.028c-0.137,0.404-0.205,0.86-0.205,1.369c0,0.508,0.068,0.964,0.205,1.368s0.332,0.746,0.586,1.025
		s0.562,0.495,0.923,0.644c0.361,0.15,0.769,0.225,1.221,0.225c0.453,0,0.86-0.075,1.221-0.225c0.361-0.149,0.668-0.364,0.921-0.644
		c0.252-0.28,0.446-0.622,0.582-1.025C92.687,7.874,92.755,7.418,92.755,6.91z"/>
</g>
<g>
	<path fill="#B9529F" d="M33.386,16.007h-2.794v7.852h-1.724v-7.852h-2.794v-1.416h7.312V16.007z"/>
	<path fill="#B9529F" d="M43.582,19.226c0,0.678-0.112,1.309-0.336,1.887c-0.225,0.578-0.542,1.078-0.952,1.502
		c-0.41,0.424-0.904,0.754-1.48,0.99c-0.577,0.238-1.218,0.355-1.923,0.355c-0.701,0-1.339-0.117-1.916-0.355
		c-0.577-0.236-1.072-0.566-1.484-0.99s-0.731-0.924-0.958-1.502s-0.34-1.209-0.34-1.887c0-0.68,0.113-1.309,0.34-1.889
		c0.227-0.578,0.546-1.08,0.958-1.502c0.412-0.424,0.907-0.754,1.484-0.99c0.577-0.238,1.215-0.355,1.916-0.355
		c0.47,0,0.912,0.053,1.327,0.162s0.794,0.264,1.141,0.463c0.346,0.197,0.657,0.439,0.933,0.723
		c0.276,0.285,0.509,0.602,0.702,0.951c0.192,0.352,0.339,0.732,0.439,1.143C43.532,18.341,43.582,18.773,43.582,19.226z
		 M41.82,19.226c0-0.51-0.068-0.965-0.205-1.369s-0.331-0.746-0.583-1.029c-0.252-0.281-0.559-0.498-0.92-0.646
		c-0.361-0.15-0.768-0.225-1.221-0.225c-0.453,0-0.86,0.074-1.221,0.225c-0.361,0.148-0.669,0.365-0.923,0.646
		c-0.254,0.283-0.45,0.625-0.586,1.029s-0.205,0.859-0.205,1.369c0,0.508,0.068,0.963,0.205,1.367s0.332,0.746,0.586,1.025
		c0.254,0.279,0.562,0.494,0.923,0.645c0.361,0.148,0.768,0.225,1.221,0.225c0.453,0,0.86-0.076,1.221-0.225
		c0.361-0.15,0.668-0.365,0.92-0.645s0.446-0.621,0.583-1.025S41.82,19.734,41.82,19.226z"/>
	<path fill="#B9529F" d="M51.715,16.007h-2.794v7.852h-1.724v-7.852h-2.794v-1.416h7.312V16.007z"/>
	<path fill="#B9529F" d="M61.014,23.859h-1.333c-0.149,0-0.271-0.039-0.365-0.113c-0.094-0.074-0.165-0.166-0.212-0.277
		l-0.692-1.891h-3.839l-0.692,1.891c-0.034,0.098-0.1,0.188-0.199,0.268c-0.098,0.082-0.22,0.123-0.365,0.123h-1.346l3.646-9.268
		h1.756L61.014,23.859z M57.97,20.359l-1.128-3.082c-0.056-0.137-0.113-0.299-0.173-0.488c-0.06-0.188-0.12-0.389-0.18-0.607
		c-0.055,0.219-0.113,0.422-0.173,0.611c-0.06,0.191-0.118,0.355-0.173,0.496l-1.122,3.07H57.97z"/>
	<path fill="#B9529F" d="M67.544,22.435v1.424h-5.428v-9.268h1.723v7.844H67.544z"/>
</g>
</svg>
