<?xml version="1.0" encoding="utf-8"?>
<!-- Generator: Adobe Illustrator 15.0.0, SVG Export Plug-In . SVG Version: 6.00 Build 0)  -->
<!DOCTYPE svg PUBLIC "-//W3C//DTD SVG 1.1//EN" "http://www.w3.org/Graphics/SVG/1.1/DTD/svg11.dtd">
<svg version="1.1" id="Layer_1" xmlns="http://www.w3.org/2000/svg" xmlns:xlink="http://www.w3.org/1999/xlink" x="0px" y="0px"
	 width="20px" height="24px" viewBox="0 0 20 24" enable-background="new 0 0 20 24" xml:space="preserve">
<path fill="#606060" d="M3.505,6.486v3.5h-1.5c-1.105,0-2,0.896-2,2v10c0,1.105,0.896,2,2,2h16c1.105,0,2.001-0.895,2.001-2v-10
	c0-1.104-0.896-2-2.001-2h-1.5v-3.5c0-3.59-2.91-6.5-6.5-6.5S3.505,2.896,3.505,6.486z M6.005,9.985v-3.5c0-2.21,1.789-4,4-4
	c2.21,0,4,1.79,4,4v3.5H6.005z M8.004,15.486c0-1.104,0.896-1.999,2-1.999s2,0.895,2,1.999c0,0.706-0.365,1.325-0.915,1.681
	c0,0,0.194,1.181,0.415,2.569c0,0.416-0.335,0.75-0.75,0.75h-1.5c-0.415,0-0.75-0.334-0.75-0.75l0.415-2.569
	C8.37,16.811,8.004,16.192,8.004,15.486z"/>
</svg>
