<?xml version="1.0" encoding="utf-8"?>
<!-- Generator: Adobe Illustrator 15.0.0, SVG Export Plug-In . SVG Version: 6.00 Build 0)  -->
<!DOCTYPE svg PUBLIC "-//W3C//DTD SVG 1.1//EN" "http://www.w3.org/Graphics/SVG/1.1/DTD/svg11.dtd">
<svg version="1.1" id="Layer_1" xmlns="http://www.w3.org/2000/svg" xmlns:xlink="http://www.w3.org/1999/xlink" x="0px" y="0px"
	 width="164px" height="28px" viewBox="0 0 164 28" enable-background="new 0 0 164 28" xml:space="preserve">
<path fill="#5F6060" d="M3.792,9.042v3.792H2.167C0.97,12.833,0,13.803,0,15v10.834C0,27.031,0.97,28,2.167,28H19.5
	c1.197,0,2.167-0.969,2.167-2.166V15c0-1.196-0.97-2.167-2.167-2.167h-1.625V9.042C17.875,5.152,14.723,2,10.834,2
	S3.792,5.152,3.792,9.042z M6.501,12.833V9.042c0-2.394,1.938-4.333,4.333-4.333c2.394,0,4.334,1.939,4.334,4.333v3.792H6.501z
	 M8.667,18.792c0-1.197,0.97-2.166,2.167-2.166S13,17.595,13,18.792c0,0.765-0.395,1.436-0.991,1.82c0,0,0.211,1.279,0.449,2.784
	c0,0.45-0.363,0.812-0.812,0.812h-1.625c-0.45,0-0.812-0.362-0.812-0.812l0.449-2.784C9.062,20.228,8.667,19.557,8.667,18.792z"/>
<g>
	<path fill="#B9519F" d="M39.997,8.058c0,0.795-0.132,1.525-0.397,2.19s-0.637,1.237-1.118,1.717
		c-0.48,0.48-1.057,0.853-1.732,1.118c-0.675,0.265-1.425,0.397-2.25,0.397h-4.132V2.635h4.132c0.825,0,1.575,0.134,2.25,0.401
		c0.675,0.268,1.252,0.64,1.732,1.118c0.48,0.478,0.853,1.049,1.118,1.714S39.997,7.263,39.997,8.058z M37.927,8.058
		c0-0.595-0.079-1.129-0.236-1.602c-0.158-0.472-0.385-0.872-0.683-1.2s-0.657-0.579-1.08-0.754
		c-0.422-0.175-0.898-0.263-1.429-0.263h-2.107v7.635h2.107c0.53,0,1.006-0.087,1.429-0.263c0.423-0.175,0.783-0.426,1.08-0.753
		c0.297-0.328,0.525-0.728,0.683-1.2S37.927,8.652,37.927,8.058z"/>
	<path fill="#B9519F" d="M43.964,13.48h-2.025V2.635h2.025V13.48z"/>
	<path fill="#B9519F" d="M52.327,4.607c-0.06,0.105-0.124,0.181-0.191,0.229c-0.067,0.047-0.151,0.071-0.251,0.071
		c-0.105,0-0.219-0.039-0.341-0.117c-0.123-0.077-0.269-0.164-0.439-0.258c-0.17-0.095-0.369-0.182-0.596-0.259
		c-0.228-0.078-0.496-0.116-0.806-0.116c-0.28,0-0.525,0.034-0.735,0.101S48.581,4.42,48.438,4.54s-0.249,0.264-0.319,0.431
		s-0.105,0.352-0.105,0.551c0,0.255,0.071,0.468,0.214,0.638s0.331,0.315,0.566,0.435c0.235,0.12,0.502,0.228,0.802,0.322
		c0.3,0.095,0.607,0.196,0.922,0.304c0.315,0.107,0.623,0.232,0.923,0.375c0.3,0.143,0.567,0.323,0.802,0.54
		s0.424,0.484,0.566,0.799s0.214,0.697,0.214,1.147c0,0.49-0.084,0.949-0.251,1.376c-0.167,0.428-0.413,0.8-0.735,1.118
		c-0.323,0.318-0.716,0.567-1.181,0.75c-0.465,0.183-0.998,0.274-1.598,0.274c-0.345,0-0.685-0.034-1.02-0.102
		c-0.335-0.067-0.656-0.164-0.964-0.289s-0.596-0.275-0.866-0.45c-0.27-0.175-0.51-0.37-0.72-0.585l0.592-0.967
		c0.05-0.07,0.115-0.129,0.195-0.176s0.165-0.071,0.255-0.071c0.125,0,0.26,0.051,0.405,0.154s0.317,0.216,0.518,0.341
		c0.2,0.125,0.434,0.239,0.701,0.341s0.589,0.154,0.964,0.154c0.575,0,1.02-0.136,1.335-0.409c0.315-0.272,0.473-0.664,0.473-1.173
		c0-0.285-0.071-0.518-0.214-0.698s-0.332-0.331-0.566-0.454s-0.502-0.226-0.802-0.312c-0.3-0.085-0.605-0.177-0.915-0.277
		c-0.31-0.1-0.615-0.22-0.915-0.36c-0.3-0.14-0.568-0.323-0.803-0.547c-0.235-0.225-0.424-0.506-0.566-0.844
		c-0.143-0.338-0.214-0.754-0.214-1.249c0-0.395,0.079-0.78,0.236-1.155c0.157-0.375,0.386-0.708,0.686-0.998s0.67-0.522,1.11-0.698
		c0.44-0.175,0.945-0.262,1.515-0.262c0.64,0,1.23,0.1,1.77,0.3c0.54,0.2,1,0.48,1.38,0.84L52.327,4.607z"/>
	<path fill="#B9519F" d="M62.391,10.922c0.11,0,0.208,0.042,0.292,0.127l0.795,0.863c-0.44,0.545-0.981,0.962-1.624,1.252
		S60.441,13.6,59.542,13.6c-0.805,0-1.529-0.138-2.171-0.413s-1.191-0.657-1.646-1.147s-0.804-1.075-1.046-1.755
		c-0.243-0.68-0.364-1.422-0.364-2.228c0-0.815,0.13-1.562,0.39-2.239c0.26-0.678,0.626-1.261,1.099-1.751
		c0.472-0.49,1.036-0.871,1.691-1.144c0.655-0.272,1.38-0.409,2.175-0.409c0.79,0,1.491,0.13,2.104,0.39
		c0.612,0.26,1.134,0.6,1.564,1.02l-0.675,0.938c-0.04,0.06-0.091,0.113-0.153,0.158c-0.063,0.045-0.149,0.067-0.259,0.067
		c-0.075,0-0.153-0.021-0.233-0.063c-0.08-0.042-0.167-0.095-0.262-0.158c-0.095-0.062-0.205-0.131-0.33-0.206
		c-0.125-0.075-0.27-0.144-0.435-0.207s-0.356-0.115-0.574-0.157c-0.217-0.042-0.469-0.064-0.754-0.064
		c-0.485,0-0.929,0.086-1.331,0.259s-0.749,0.422-1.039,0.75c-0.29,0.328-0.515,0.728-0.675,1.2c-0.16,0.472-0.24,1.011-0.24,1.616
		c0,0.61,0.086,1.152,0.259,1.627c0.172,0.475,0.406,0.875,0.701,1.2c0.295,0.325,0.642,0.574,1.042,0.747
		c0.4,0.172,0.83,0.259,1.29,0.259c0.275,0,0.523-0.015,0.746-0.045c0.223-0.03,0.428-0.078,0.615-0.143s0.365-0.149,0.532-0.251
		s0.334-0.229,0.499-0.379c0.05-0.045,0.102-0.081,0.157-0.108S62.332,10.922,62.391,10.922z"/>
	<path fill="#B9519F" d="M73.499,13.48h-1.822c-0.345,0-0.595-0.135-0.75-0.405l-2.28-3.473c-0.085-0.13-0.179-0.223-0.281-0.277
		c-0.103-0.055-0.253-0.083-0.454-0.083h-0.862v4.237h-2.018V2.635h3.308c0.735,0,1.366,0.077,1.894,0.229s0.96,0.366,1.297,0.641
		c0.338,0.275,0.586,0.604,0.747,0.986c0.16,0.382,0.24,0.804,0.24,1.264c0,0.365-0.054,0.71-0.161,1.035s-0.263,0.62-0.465,0.885
		c-0.203,0.265-0.453,0.498-0.75,0.698c-0.298,0.2-0.637,0.357-1.017,0.473c0.13,0.075,0.25,0.164,0.36,0.266
		c0.11,0.103,0.21,0.224,0.3,0.364L73.499,13.48z M68.309,7.795c0.38,0,0.711-0.047,0.994-0.143C69.585,7.558,69.817,7.426,70,7.259
		s0.319-0.366,0.409-0.596s0.135-0.482,0.135-0.758c0-0.55-0.182-0.972-0.544-1.267c-0.363-0.295-0.917-0.443-1.661-0.443h-1.29v3.6
		H68.309z"/>
	<path fill="#B9519F" d="M76.866,13.48h-2.025V2.635h2.025V13.48z"/>
	<path fill="#B9519F" d="M87.988,11.913c-0.395,0.495-0.875,0.884-1.439,1.166c-0.565,0.283-1.232,0.451-2.003,0.506l-0.097,0.353
		c0.469,0.11,0.799,0.259,0.989,0.446s0.285,0.411,0.285,0.672c0,0.17-0.044,0.322-0.132,0.457c-0.087,0.135-0.212,0.25-0.375,0.345
		c-0.162,0.096-0.355,0.168-0.58,0.218c-0.226,0.05-0.473,0.075-0.743,0.075c-0.205,0-0.396-0.014-0.573-0.041
		c-0.178-0.028-0.354-0.069-0.529-0.124l0.172-0.577c0.03-0.115,0.103-0.173,0.218-0.173c0.069,0,0.146,0.019,0.229,0.056
		c0.082,0.038,0.203,0.057,0.363,0.057c0.165,0,0.289-0.031,0.371-0.094c0.083-0.062,0.124-0.139,0.124-0.229
		c0-0.146-0.09-0.249-0.271-0.312c-0.18-0.062-0.457-0.122-0.832-0.176l0.33-0.96c-0.72-0.065-1.369-0.247-1.946-0.544
		s-1.069-0.688-1.474-1.174c-0.405-0.485-0.715-1.05-0.93-1.695s-0.322-1.348-0.322-2.107c0-0.815,0.13-1.562,0.39-2.239
		c0.26-0.678,0.626-1.261,1.099-1.751c0.472-0.49,1.036-0.871,1.691-1.144c0.655-0.272,1.38-0.409,2.175-0.409
		c0.79,0,1.491,0.13,2.104,0.39c0.612,0.26,1.134,0.6,1.563,1.02l-0.675,0.938c-0.04,0.06-0.091,0.113-0.153,0.158
		s-0.148,0.067-0.259,0.067c-0.075,0-0.153-0.021-0.233-0.063c-0.079-0.042-0.167-0.095-0.262-0.158
		c-0.096-0.062-0.205-0.131-0.33-0.206c-0.125-0.075-0.27-0.144-0.436-0.207c-0.164-0.062-0.355-0.115-0.573-0.157
		s-0.469-0.064-0.754-0.064c-0.485,0-0.929,0.086-1.331,0.259s-0.749,0.422-1.039,0.75c-0.29,0.328-0.515,0.728-0.675,1.2
		c-0.16,0.472-0.24,1.011-0.24,1.616c0,0.61,0.086,1.152,0.259,1.627c0.172,0.475,0.406,0.875,0.701,1.2
		c0.295,0.325,0.642,0.574,1.042,0.747c0.4,0.172,0.83,0.259,1.29,0.259c0.274,0,0.523-0.015,0.746-0.045
		c0.223-0.03,0.428-0.078,0.615-0.143s0.364-0.149,0.532-0.251s0.334-0.229,0.499-0.379c0.05-0.045,0.103-0.081,0.157-0.108
		s0.113-0.042,0.172-0.042c0.111,0,0.208,0.042,0.293,0.127L87.988,11.913z"/>
	<path fill="#B9519F" d="M98.834,13.48h-1.561c-0.175,0-0.317-0.044-0.428-0.131c-0.109-0.087-0.192-0.196-0.247-0.326l-0.81-2.212
		h-4.493l-0.81,2.212c-0.041,0.115-0.117,0.22-0.232,0.315c-0.115,0.095-0.258,0.143-0.428,0.143h-1.575l4.268-10.845h2.056
		L98.834,13.48z M94.477,0.737c0.109,0,0.205-0.022,0.288-0.067s0.149-0.101,0.202-0.168c0.053-0.068,0.092-0.143,0.117-0.225
		c0.024-0.083,0.037-0.164,0.037-0.244h1.133c0,0.25-0.034,0.489-0.102,0.716c-0.067,0.228-0.168,0.43-0.301,0.608
		c-0.132,0.177-0.295,0.318-0.486,0.423c-0.193,0.105-0.414,0.158-0.664,0.158c-0.256,0-0.477-0.04-0.664-0.12
		c-0.188-0.08-0.359-0.166-0.514-0.259C93.369,1.466,93.227,1.38,93.1,1.3c-0.127-0.08-0.259-0.12-0.394-0.12
		c-0.115,0-0.212,0.022-0.292,0.067S92.269,1.35,92.219,1.42c-0.051,0.07-0.088,0.147-0.113,0.232
		C92.081,1.738,92.068,1.82,92.068,1.9h-1.147c0-0.245,0.035-0.484,0.104-0.716c0.07-0.232,0.172-0.438,0.305-0.615
		c0.133-0.178,0.295-0.32,0.487-0.428C92.01,0.034,92.23-0.02,92.48-0.02c0.256,0,0.479,0.04,0.668,0.12s0.359,0.166,0.51,0.259
		c0.15,0.092,0.29,0.179,0.42,0.259C94.209,0.698,94.341,0.737,94.477,0.737z M95.271,9.385l-1.32-3.607
		c-0.065-0.16-0.133-0.35-0.203-0.57s-0.14-0.458-0.209-0.712c-0.065,0.255-0.133,0.494-0.203,0.716
		c-0.07,0.222-0.138,0.416-0.203,0.581L91.82,9.385H95.271z"/>
	<path fill="#B9519F" d="M110.466,8.058c0,0.795-0.131,1.531-0.394,2.208c-0.263,0.678-0.634,1.264-1.113,1.759
		c-0.48,0.495-1.059,0.881-1.732,1.159c-0.676,0.278-1.426,0.417-2.25,0.417c-0.82,0-1.568-0.139-2.243-0.417
		c-0.675-0.277-1.254-0.664-1.736-1.159s-0.856-1.081-1.121-1.759c-0.265-0.677-0.397-1.414-0.397-2.208s0.133-1.531,0.397-2.209
		c0.265-0.677,0.639-1.264,1.121-1.759c0.482-0.495,1.062-0.881,1.736-1.159s1.423-0.416,2.243-0.416
		c0.549,0,1.066,0.063,1.552,0.191s0.931,0.308,1.335,0.54c0.405,0.232,0.77,0.515,1.092,0.848s0.596,0.704,0.82,1.114
		c0.226,0.41,0.396,0.855,0.514,1.335C110.407,7.022,110.466,7.527,110.466,8.058z M108.403,8.058c0-0.595-0.08-1.129-0.239-1.602
		c-0.16-0.472-0.389-0.874-0.684-1.204s-0.653-0.583-1.076-0.757c-0.422-0.175-0.898-0.263-1.428-0.263
		c-0.531,0-1.007,0.087-1.43,0.263c-0.422,0.175-0.782,0.427-1.08,0.757c-0.297,0.33-0.525,0.731-0.686,1.204
		c-0.16,0.473-0.24,1.006-0.24,1.602c0,0.595,0.08,1.128,0.24,1.601s0.389,0.873,0.686,1.2c0.298,0.327,0.658,0.579,1.08,0.753
		c0.423,0.175,0.898,0.263,1.43,0.263c0.529,0,1.006-0.087,1.428-0.263c0.423-0.175,0.781-0.426,1.076-0.753
		c0.295-0.328,0.523-0.728,0.684-1.2C108.323,9.186,108.403,8.652,108.403,8.058z"/>
	<path fill="#B9519F" d="M123.793,4.292h-3.27v9.188h-2.018V4.292h-3.27V2.635h8.557V4.292z"/>
	<path fill="#B9519F" d="M135.726,8.058c0,0.795-0.131,1.531-0.394,2.208c-0.263,0.678-0.634,1.264-1.113,1.759
		c-0.48,0.495-1.059,0.881-1.732,1.159c-0.676,0.278-1.426,0.417-2.25,0.417c-0.82,0-1.568-0.139-2.243-0.417
		c-0.675-0.277-1.254-0.664-1.736-1.159s-0.856-1.081-1.121-1.759c-0.265-0.677-0.397-1.414-0.397-2.208s0.133-1.531,0.397-2.209
		c0.265-0.677,0.639-1.264,1.121-1.759c0.482-0.495,1.062-0.881,1.736-1.159s1.423-0.416,2.243-0.416
		c0.549,0,1.066,0.063,1.552,0.191s0.931,0.308,1.335,0.54c0.405,0.232,0.77,0.515,1.092,0.848s0.596,0.704,0.82,1.114
		c0.226,0.41,0.396,0.855,0.514,1.335C135.667,7.022,135.726,7.527,135.726,8.058z M133.663,8.058c0-0.595-0.08-1.129-0.239-1.602
		c-0.16-0.472-0.389-0.874-0.684-1.204s-0.653-0.583-1.076-0.757c-0.422-0.175-0.898-0.263-1.428-0.263
		c-0.531,0-1.007,0.087-1.43,0.263c-0.422,0.175-0.782,0.427-1.08,0.757c-0.297,0.33-0.525,0.731-0.686,1.204
		c-0.16,0.473-0.24,1.006-0.24,1.602c0,0.595,0.08,1.128,0.24,1.601s0.389,0.873,0.686,1.2c0.298,0.327,0.658,0.579,1.08,0.753
		c0.423,0.175,0.898,0.263,1.43,0.263c0.529,0,1.006-0.087,1.428-0.263c0.423-0.175,0.781-0.426,1.076-0.753
		c0.295-0.328,0.523-0.728,0.684-1.2C133.583,9.186,133.663,8.652,133.663,8.058z"/>
	<path fill="#B9519F" d="M145.244,4.292h-3.271v9.188h-2.018V4.292h-3.271V2.635h8.559V4.292z"/>
	<path fill="#B9519F" d="M156.125,13.48h-1.56c-0.175,0-0.317-0.044-0.427-0.131c-0.111-0.087-0.193-0.196-0.248-0.326l-0.811-2.212
		h-4.492l-0.811,2.212c-0.039,0.115-0.117,0.22-0.232,0.315c-0.115,0.095-0.257,0.143-0.427,0.143h-1.575l4.268-10.845h2.055
		L156.125,13.48z M152.562,9.385l-1.319-3.607c-0.065-0.16-0.133-0.35-0.202-0.57c-0.07-0.22-0.141-0.458-0.211-0.712
		c-0.064,0.255-0.133,0.494-0.202,0.716c-0.069,0.222-0.138,0.416-0.202,0.581l-1.312,3.592H152.562z"/>
	<path fill="#B9519F" d="M163.768,11.815v1.665h-6.352V2.635h2.018v9.18H163.768z"/>
</g>
<g>
	<path fill="#6F6F6F" d="M33.336,17.798c0.644,0,1.204,0.074,1.68,0.224s0.871,0.361,1.183,0.634
		c0.312,0.273,0.545,0.604,0.696,0.99c0.152,0.388,0.228,0.816,0.228,1.288s-0.082,0.904-0.245,1.299
		c-0.164,0.395-0.404,0.733-0.721,1.019c-0.317,0.284-0.713,0.505-1.187,0.661s-1.019,0.234-1.634,0.234h-1.554v3.703h-1.491V17.798
		H33.336z M33.336,22.971c0.378,0,0.71-0.049,0.998-0.147c0.287-0.098,0.527-0.236,0.721-0.416s0.339-0.395,0.438-0.645
		c0.098-0.249,0.147-0.525,0.147-0.829c0-0.611-0.19-1.092-0.57-1.442c-0.38-0.35-0.958-0.524-1.732-0.524h-1.554v4.004H33.336z"/>
	<path fill="#6F6F6F" d="M39.769,22.103c0.229-0.467,0.504-0.833,0.826-1.099c0.322-0.267,0.709-0.399,1.162-0.399
		c0.154,0,0.3,0.018,0.438,0.053s0.258,0.087,0.361,0.157l-0.091,1.029c-0.033,0.126-0.109,0.188-0.231,0.188
		c-0.065,0-0.164-0.013-0.294-0.038c-0.131-0.025-0.271-0.038-0.42-0.038c-0.219,0-0.413,0.031-0.581,0.094
		c-0.168,0.063-0.318,0.156-0.452,0.28c-0.133,0.124-0.251,0.275-0.354,0.455s-0.198,0.384-0.287,0.612v4.452h-1.365v-7.112h0.784
		c0.149,0,0.25,0.027,0.304,0.081s0.092,0.148,0.116,0.283L39.769,22.103z"/>
	<path fill="#6F6F6F" d="M45.299,18.54c0,0.126-0.026,0.246-0.077,0.36s-0.12,0.214-0.207,0.301s-0.188,0.153-0.304,0.203
		c-0.117,0.049-0.238,0.073-0.364,0.073s-0.245-0.024-0.357-0.073c-0.112-0.05-0.211-0.116-0.297-0.203s-0.154-0.187-0.203-0.301
		c-0.049-0.114-0.073-0.234-0.073-0.36c0-0.131,0.024-0.253,0.073-0.368c0.049-0.114,0.117-0.214,0.203-0.301
		c0.086-0.086,0.186-0.153,0.297-0.203c0.112-0.049,0.231-0.073,0.357-0.073s0.248,0.024,0.364,0.073
		c0.117,0.05,0.218,0.117,0.304,0.203c0.086,0.087,0.155,0.187,0.207,0.301C45.273,18.287,45.299,18.409,45.299,18.54z
		 M45.04,20.737v7.112h-1.365v-7.112H45.04z"/>
	<path fill="#6F6F6F" d="M53.195,20.737l-2.884,7.112h-1.232l-2.884-7.112h1.127c0.107,0,0.196,0.026,0.266,0.077
		c0.07,0.052,0.117,0.117,0.14,0.196l1.701,4.368c0.061,0.182,0.113,0.362,0.157,0.542s0.085,0.358,0.123,0.536
		c0.037-0.178,0.079-0.355,0.126-0.532c0.047-0.178,0.103-0.359,0.168-0.546l1.722-4.368c0.028-0.079,0.077-0.145,0.147-0.196
		c0.07-0.051,0.154-0.077,0.252-0.077H53.195z"/>
	<path fill="#6F6F6F" d="M54.105,21.731c0.397-0.378,0.827-0.66,1.292-0.847s0.974-0.28,1.53-0.28c0.406,0,0.765,0.066,1.078,0.199
		c0.313,0.134,0.577,0.319,0.791,0.557c0.215,0.238,0.377,0.523,0.487,0.854c0.109,0.331,0.165,0.697,0.165,1.099v4.536h-0.609
		c-0.135,0-0.238-0.022-0.308-0.066c-0.07-0.044-0.126-0.127-0.168-0.249l-0.147-0.623c-0.182,0.169-0.362,0.316-0.539,0.445
		c-0.178,0.128-0.363,0.237-0.557,0.329c-0.194,0.091-0.4,0.159-0.62,0.206s-0.462,0.07-0.728,0.07c-0.28,0-0.542-0.039-0.788-0.116
		c-0.245-0.076-0.458-0.194-0.64-0.354c-0.182-0.158-0.326-0.356-0.431-0.595s-0.158-0.516-0.158-0.833
		c0-0.28,0.076-0.55,0.228-0.809c0.152-0.259,0.399-0.491,0.742-0.696s0.791-0.373,1.344-0.504c0.553-0.131,1.233-0.205,2.04-0.224
		v-0.519c0-0.536-0.114-0.938-0.343-1.204c-0.229-0.266-0.564-0.398-1.008-0.398c-0.299,0-0.55,0.037-0.752,0.111
		c-0.203,0.075-0.378,0.158-0.525,0.249s-0.275,0.174-0.385,0.248c-0.11,0.075-0.223,0.112-0.339,0.112
		c-0.094,0-0.174-0.025-0.242-0.077c-0.068-0.051-0.123-0.112-0.165-0.182L54.105,21.731z M58.109,24.692
		c-0.555,0.019-1.026,0.062-1.414,0.13c-0.388,0.067-0.703,0.157-0.945,0.27c-0.243,0.111-0.417,0.244-0.525,0.396
		s-0.161,0.32-0.161,0.507c0,0.178,0.029,0.331,0.088,0.459c0.058,0.128,0.137,0.233,0.238,0.315c0.1,0.081,0.218,0.141,0.354,0.178
		c0.135,0.038,0.282,0.057,0.441,0.057c0.21,0,0.402-0.021,0.578-0.063c0.175-0.042,0.339-0.102,0.493-0.179
		c0.154-0.076,0.301-0.171,0.441-0.283c0.14-0.112,0.277-0.24,0.413-0.385V24.692z"/>
	<path fill="#6F6F6F" d="M66.264,22.067c-0.042,0.052-0.083,0.093-0.123,0.123s-0.097,0.045-0.171,0.045s-0.153-0.029-0.234-0.087
		c-0.082-0.059-0.185-0.122-0.308-0.189s-0.273-0.131-0.448-0.188c-0.175-0.059-0.391-0.088-0.647-0.088
		c-0.336,0-0.633,0.061-0.889,0.182c-0.257,0.122-0.47,0.294-0.641,0.519c-0.17,0.224-0.3,0.497-0.389,0.818
		c-0.088,0.322-0.133,0.685-0.133,1.085c0,0.416,0.047,0.786,0.14,1.11s0.226,0.597,0.399,0.818c0.172,0.222,0.383,0.39,0.63,0.504
		c0.248,0.115,0.522,0.172,0.826,0.172c0.294,0,0.537-0.036,0.728-0.108s0.35-0.15,0.476-0.234s0.231-0.162,0.315-0.234
		s0.17-0.108,0.259-0.108c0.112,0,0.198,0.042,0.259,0.126l0.392,0.504c-0.163,0.2-0.346,0.371-0.549,0.511
		s-0.419,0.254-0.647,0.343s-0.468,0.154-0.717,0.196c-0.25,0.042-0.503,0.062-0.76,0.062c-0.443,0-0.857-0.081-1.243-0.245
		c-0.385-0.163-0.718-0.4-1.001-0.714c-0.282-0.312-0.505-0.696-0.668-1.151c-0.163-0.455-0.245-0.972-0.245-1.551
		c0-0.526,0.073-1.015,0.22-1.463c0.147-0.447,0.364-0.834,0.651-1.158c0.287-0.324,0.641-0.578,1.061-0.763
		s0.901-0.276,1.442-0.276c0.509,0,0.957,0.081,1.344,0.245c0.387,0.163,0.732,0.394,1.036,0.692L66.264,22.067z"/>
	<path fill="#6F6F6F" d="M69.666,18.54c0,0.126-0.026,0.246-0.077,0.36s-0.12,0.214-0.207,0.301s-0.188,0.153-0.304,0.203
		c-0.117,0.049-0.238,0.073-0.364,0.073s-0.245-0.024-0.357-0.073c-0.112-0.05-0.211-0.116-0.297-0.203s-0.154-0.187-0.203-0.301
		c-0.049-0.114-0.073-0.234-0.073-0.36c0-0.131,0.024-0.253,0.073-0.368c0.049-0.114,0.117-0.214,0.203-0.301
		c0.086-0.086,0.186-0.153,0.297-0.203c0.112-0.049,0.231-0.073,0.357-0.073s0.248,0.024,0.364,0.073
		c0.117,0.05,0.218,0.117,0.304,0.203c0.086,0.087,0.155,0.187,0.207,0.301C69.64,18.287,69.666,18.409,69.666,18.54z
		 M69.407,20.737v7.112h-1.365v-7.112H69.407z"/>
	<path fill="#6F6F6F" d="M77.345,17.518V27.85h-0.826c-0.191,0-0.31-0.091-0.357-0.273l-0.119-0.818
		c-0.303,0.359-0.647,0.647-1.032,0.864c-0.385,0.217-0.83,0.325-1.333,0.325c-0.406,0-0.773-0.079-1.103-0.237
		c-0.329-0.159-0.61-0.392-0.844-0.697s-0.413-0.685-0.539-1.137c-0.126-0.453-0.189-0.974-0.189-1.562
		c0-0.527,0.07-1.018,0.21-1.47c0.14-0.453,0.343-0.845,0.609-1.176c0.266-0.332,0.588-0.592,0.966-0.781
		c0.378-0.188,0.805-0.283,1.281-0.283c0.429,0,0.794,0.07,1.095,0.21c0.301,0.141,0.571,0.339,0.809,0.595v-3.892H77.345z
		 M75.973,22.46c-0.224-0.294-0.465-0.5-0.725-0.616c-0.259-0.117-0.549-0.175-0.871-0.175c-0.625,0-1.11,0.225-1.453,0.675
		c-0.343,0.451-0.515,1.107-0.515,1.971c0,0.453,0.039,0.839,0.116,1.158c0.077,0.32,0.189,0.581,0.336,0.784
		s0.328,0.353,0.542,0.448c0.214,0.096,0.457,0.144,0.728,0.144c0.396,0,0.739-0.089,1.029-0.266c0.29-0.178,0.56-0.428,0.812-0.749
		V22.46z"/>
	<path fill="#6F6F6F" d="M79.074,21.731c0.397-0.378,0.827-0.66,1.292-0.847s0.974-0.28,1.53-0.28c0.406,0,0.765,0.066,1.078,0.199
		c0.312,0.134,0.576,0.319,0.791,0.557c0.215,0.238,0.377,0.523,0.486,0.854s0.165,0.697,0.165,1.099v4.536h-0.609
		c-0.136,0-0.238-0.022-0.308-0.066c-0.07-0.044-0.126-0.127-0.168-0.249l-0.147-0.623c-0.182,0.169-0.361,0.316-0.539,0.445
		c-0.178,0.128-0.363,0.237-0.557,0.329c-0.194,0.091-0.4,0.159-0.62,0.206s-0.462,0.07-0.728,0.07c-0.28,0-0.542-0.039-0.788-0.116
		c-0.245-0.076-0.458-0.194-0.64-0.354c-0.182-0.158-0.326-0.356-0.431-0.595s-0.158-0.516-0.158-0.833
		c0-0.28,0.076-0.55,0.228-0.809c0.152-0.259,0.399-0.491,0.742-0.696s0.791-0.373,1.344-0.504c0.553-0.131,1.233-0.205,2.04-0.224
		v-0.519c0-0.536-0.114-0.938-0.342-1.204c-0.229-0.266-0.564-0.398-1.008-0.398c-0.299,0-0.55,0.037-0.752,0.111
		c-0.203,0.075-0.378,0.158-0.525,0.249s-0.275,0.174-0.385,0.248c-0.11,0.075-0.223,0.112-0.339,0.112
		c-0.094,0-0.174-0.025-0.242-0.077c-0.068-0.051-0.123-0.112-0.165-0.182L79.074,21.731z M83.077,24.692
		c-0.555,0.019-1.026,0.062-1.413,0.13c-0.388,0.067-0.703,0.157-0.945,0.27c-0.243,0.111-0.417,0.244-0.525,0.396
		s-0.161,0.32-0.161,0.507c0,0.178,0.029,0.331,0.088,0.459c0.058,0.128,0.137,0.233,0.238,0.315c0.1,0.081,0.218,0.141,0.354,0.178
		c0.135,0.038,0.282,0.057,0.441,0.057c0.21,0,0.402-0.021,0.578-0.063c0.175-0.042,0.339-0.102,0.493-0.179
		c0.154-0.076,0.301-0.171,0.441-0.283c0.14-0.112,0.277-0.24,0.412-0.385V24.692z"/>
	<path fill="#6F6F6F" d="M92.205,17.518V27.85h-0.826c-0.191,0-0.31-0.091-0.356-0.273l-0.119-0.818
		c-0.304,0.359-0.647,0.647-1.032,0.864c-0.386,0.217-0.83,0.325-1.334,0.325c-0.406,0-0.773-0.079-1.103-0.237
		c-0.329-0.159-0.61-0.392-0.844-0.697s-0.412-0.685-0.538-1.137c-0.126-0.453-0.189-0.974-0.189-1.562
		c0-0.527,0.07-1.018,0.21-1.47c0.14-0.453,0.343-0.845,0.609-1.176c0.266-0.332,0.588-0.592,0.966-0.781
		c0.378-0.188,0.805-0.283,1.281-0.283c0.429,0,0.794,0.07,1.095,0.21c0.302,0.141,0.571,0.339,0.809,0.595v-3.892H92.205z
		 M90.833,22.46c-0.224-0.294-0.465-0.5-0.725-0.616c-0.259-0.117-0.549-0.175-0.871-0.175c-0.625,0-1.109,0.225-1.452,0.675
		c-0.344,0.451-0.515,1.107-0.515,1.971c0,0.453,0.038,0.839,0.115,1.158c0.077,0.32,0.189,0.581,0.336,0.784
		c0.147,0.203,0.328,0.353,0.543,0.448c0.214,0.096,0.457,0.144,0.728,0.144c0.396,0,0.739-0.089,1.029-0.266
		c0.289-0.178,0.56-0.428,0.812-0.749V22.46z"/>
	<path fill="#6F6F6F" d="M99.954,26.835c-0.168,0.195-0.361,0.365-0.581,0.507c-0.219,0.143-0.452,0.258-0.699,0.347
		c-0.248,0.089-0.503,0.154-0.767,0.196s-0.524,0.062-0.78,0.062c-0.49,0-0.944-0.083-1.362-0.248
		c-0.417-0.166-0.779-0.408-1.085-0.729c-0.306-0.319-0.543-0.716-0.714-1.189c-0.17-0.474-0.255-1.019-0.255-1.635
		c0-0.494,0.076-0.955,0.23-1.383c0.154-0.427,0.375-0.799,0.661-1.116c0.287-0.317,0.639-0.566,1.054-0.749
		c0.415-0.182,0.882-0.272,1.4-0.272c0.434,0,0.834,0.071,1.2,0.213c0.366,0.143,0.683,0.35,0.948,0.62
		c0.267,0.271,0.476,0.604,0.627,1.001s0.228,0.849,0.228,1.357c0,0.21-0.023,0.352-0.07,0.424s-0.133,0.108-0.259,0.108h-4.662
		c0.014,0.425,0.074,0.795,0.182,1.109c0.107,0.315,0.256,0.577,0.445,0.788c0.188,0.21,0.414,0.366,0.675,0.469
		c0.262,0.103,0.554,0.153,0.875,0.153c0.304,0,0.566-0.034,0.788-0.104s0.413-0.146,0.574-0.228
		c0.16-0.082,0.296-0.157,0.405-0.228c0.11-0.07,0.207-0.104,0.291-0.104c0.111,0,0.198,0.042,0.259,0.126L99.954,26.835z
		 M98.827,23.503c0-0.271-0.038-0.521-0.115-0.749s-0.19-0.428-0.34-0.596s-0.331-0.298-0.546-0.392s-0.462-0.14-0.742-0.14
		c-0.573,0-1.025,0.165-1.354,0.497c-0.328,0.331-0.537,0.791-0.626,1.379H98.827z"/>
	<path fill="#6F6F6F" d="M113.548,22.957v3.92c-0.509,0.363-1.05,0.636-1.624,0.815c-0.573,0.18-1.199,0.27-1.876,0.27
		c-0.812,0-1.546-0.126-2.201-0.378s-1.215-0.604-1.677-1.058c-0.462-0.452-0.817-0.994-1.067-1.624s-0.374-1.322-0.374-2.079
		c0-0.76,0.12-1.457,0.36-2.089c0.24-0.633,0.584-1.174,1.032-1.624s0.99-0.801,1.628-1.05c0.637-0.25,1.352-0.375,2.146-0.375
		c0.401,0,0.773,0.03,1.116,0.091c0.343,0.062,0.661,0.147,0.955,0.26c0.294,0.111,0.566,0.246,0.815,0.402
		c0.25,0.156,0.482,0.332,0.697,0.528l-0.428,0.672c-0.065,0.107-0.151,0.175-0.259,0.203c-0.107,0.027-0.224,0.003-0.35-0.077
		c-0.121-0.07-0.256-0.152-0.402-0.245c-0.147-0.093-0.322-0.18-0.525-0.259c-0.203-0.08-0.439-0.146-0.71-0.203
		c-0.271-0.057-0.591-0.084-0.959-0.084c-0.551,0-1.048,0.09-1.491,0.27s-0.821,0.438-1.134,0.773
		c-0.313,0.336-0.554,0.741-0.722,1.215s-0.252,1.004-0.252,1.592c0,0.616,0.089,1.168,0.267,1.656
		c0.177,0.487,0.428,0.9,0.752,1.238c0.324,0.339,0.719,0.597,1.183,0.773c0.465,0.178,0.984,0.267,1.558,0.267
		c0.225,0,0.434-0.013,0.627-0.039c0.193-0.025,0.379-0.062,0.557-0.108c0.177-0.046,0.349-0.104,0.515-0.175
		c0.165-0.07,0.33-0.146,0.493-0.23v-2.107h-1.484c-0.093,0-0.169-0.028-0.228-0.084c-0.058-0.056-0.087-0.126-0.087-0.21v-0.847
		H113.548z"/>
	<path fill="#6F6F6F" d="M115.095,21.731c0.397-0.378,0.827-0.66,1.292-0.847c0.464-0.187,0.974-0.28,1.529-0.28
		c0.406,0,0.766,0.066,1.078,0.199c0.312,0.134,0.576,0.319,0.791,0.557c0.215,0.238,0.377,0.523,0.486,0.854
		s0.165,0.697,0.165,1.099v4.536h-0.609c-0.136,0-0.238-0.022-0.308-0.066c-0.07-0.044-0.126-0.127-0.168-0.249l-0.147-0.623
		c-0.182,0.169-0.361,0.316-0.539,0.445c-0.178,0.128-0.363,0.237-0.557,0.329c-0.193,0.091-0.4,0.159-0.619,0.206
		c-0.22,0.047-0.462,0.07-0.729,0.07c-0.279,0-0.542-0.039-0.787-0.116c-0.245-0.076-0.459-0.194-0.641-0.354
		c-0.182-0.158-0.325-0.356-0.431-0.595c-0.104-0.238-0.157-0.516-0.157-0.833c0-0.28,0.076-0.55,0.228-0.809
		s0.399-0.491,0.742-0.696s0.791-0.373,1.344-0.504s1.233-0.205,2.04-0.224v-0.519c0-0.536-0.114-0.938-0.343-1.204
		c-0.229-0.266-0.564-0.398-1.008-0.398c-0.299,0-0.55,0.037-0.752,0.111c-0.203,0.075-0.379,0.158-0.525,0.249
		c-0.147,0.091-0.275,0.174-0.385,0.248c-0.11,0.075-0.224,0.112-0.34,0.112c-0.094,0-0.174-0.025-0.241-0.077
		c-0.068-0.051-0.123-0.112-0.165-0.182L115.095,21.731z M119.099,24.692c-0.555,0.019-1.026,0.062-1.413,0.13
		c-0.388,0.067-0.703,0.157-0.945,0.27c-0.243,0.111-0.418,0.244-0.525,0.396s-0.161,0.32-0.161,0.507
		c0,0.178,0.029,0.331,0.088,0.459s0.138,0.233,0.238,0.315c0.1,0.081,0.218,0.141,0.354,0.178c0.135,0.038,0.282,0.057,0.44,0.057
		c0.21,0,0.402-0.021,0.578-0.063c0.175-0.042,0.339-0.102,0.493-0.179c0.154-0.076,0.301-0.171,0.441-0.283
		c0.14-0.112,0.277-0.24,0.412-0.385V24.692z"/>
	<path fill="#6F6F6F" d="M123.558,22.103c0.229-0.467,0.504-0.833,0.826-1.099c0.322-0.267,0.709-0.399,1.162-0.399
		c0.154,0,0.3,0.018,0.438,0.053s0.258,0.087,0.36,0.157l-0.091,1.029c-0.033,0.126-0.109,0.188-0.231,0.188
		c-0.065,0-0.163-0.013-0.294-0.038s-0.271-0.038-0.42-0.038c-0.219,0-0.413,0.031-0.581,0.094c-0.168,0.063-0.318,0.156-0.451,0.28
		s-0.251,0.275-0.354,0.455s-0.198,0.384-0.287,0.612v4.452h-1.365v-7.112h0.784c0.149,0,0.251,0.027,0.305,0.081
		s0.092,0.148,0.115,0.283L123.558,22.103z"/>
	<path fill="#6F6F6F" d="M127.219,21.731c0.396-0.378,0.827-0.66,1.291-0.847c0.465-0.187,0.975-0.28,1.53-0.28
		c0.405,0,0.765,0.066,1.077,0.199c0.313,0.134,0.577,0.319,0.791,0.557c0.215,0.238,0.377,0.523,0.487,0.854
		c0.109,0.331,0.164,0.697,0.164,1.099v4.536h-0.609c-0.135,0-0.237-0.022-0.308-0.066s-0.126-0.127-0.168-0.249l-0.146-0.623
		c-0.183,0.169-0.362,0.316-0.539,0.445c-0.178,0.128-0.363,0.237-0.557,0.329c-0.194,0.091-0.4,0.159-0.62,0.206
		c-0.219,0.047-0.462,0.07-0.728,0.07c-0.28,0-0.543-0.039-0.788-0.116c-0.244-0.076-0.458-0.194-0.64-0.354
		c-0.183-0.158-0.326-0.356-0.431-0.595c-0.105-0.238-0.158-0.516-0.158-0.833c0-0.28,0.076-0.55,0.228-0.809
		c0.152-0.259,0.399-0.491,0.742-0.696s0.791-0.373,1.345-0.504c0.553-0.131,1.232-0.205,2.04-0.224v-0.519
		c0-0.536-0.114-0.938-0.343-1.204c-0.229-0.266-0.564-0.398-1.008-0.398c-0.299,0-0.55,0.037-0.753,0.111
		c-0.203,0.075-0.378,0.158-0.525,0.249c-0.146,0.091-0.275,0.174-0.385,0.248c-0.109,0.075-0.223,0.112-0.339,0.112
		c-0.094,0-0.175-0.025-0.242-0.077c-0.067-0.051-0.122-0.112-0.164-0.182L127.219,21.731z M131.223,24.692
		c-0.556,0.019-1.026,0.062-1.414,0.13s-0.702,0.157-0.945,0.27c-0.242,0.111-0.417,0.244-0.524,0.396s-0.161,0.32-0.161,0.507
		c0,0.178,0.029,0.331,0.088,0.459c0.058,0.128,0.137,0.233,0.237,0.315c0.101,0.081,0.219,0.141,0.354,0.178
		c0.136,0.038,0.282,0.057,0.441,0.057c0.21,0,0.402-0.021,0.577-0.063s0.34-0.102,0.493-0.179c0.154-0.076,0.302-0.171,0.441-0.283
		s0.277-0.24,0.413-0.385V24.692z"/>
	<path fill="#6F6F6F" d="M135.675,21.725c0.154-0.163,0.315-0.312,0.483-0.448c0.168-0.135,0.346-0.251,0.535-0.347
		c0.188-0.095,0.392-0.17,0.609-0.224c0.217-0.054,0.448-0.08,0.696-0.08c0.392,0,0.736,0.065,1.032,0.195
		c0.296,0.131,0.545,0.314,0.745,0.55c0.201,0.235,0.353,0.52,0.455,0.851s0.154,0.697,0.154,1.099v4.529h-1.372V23.32
		c0-0.508-0.116-0.903-0.35-1.187c-0.233-0.282-0.591-0.423-1.071-0.423c-0.35,0-0.678,0.083-0.983,0.248
		c-0.306,0.166-0.589,0.391-0.851,0.676v5.215h-1.365v-7.112h0.819c0.191,0,0.311,0.091,0.356,0.273L135.675,21.725z"/>
	<path fill="#6F6F6F" d="M148.968,27.85h-1.372v-6.006h-3.57v4.165c0,0.28,0.068,0.488,0.206,0.626s0.314,0.207,0.529,0.207
		c0.126,0,0.234-0.017,0.325-0.049c0.091-0.033,0.169-0.069,0.234-0.108c0.065-0.04,0.121-0.076,0.168-0.109
		c0.047-0.032,0.089-0.049,0.126-0.049c0.047,0,0.083,0.011,0.108,0.032c0.025,0.021,0.053,0.055,0.081,0.101l0.405,0.658
		c-0.224,0.206-0.489,0.364-0.798,0.477c-0.308,0.111-0.628,0.168-0.959,0.168c-0.574,0-1.016-0.161-1.326-0.483
		s-0.466-0.781-0.466-1.379v-4.256h-0.826c-0.079,0-0.146-0.024-0.199-0.073c-0.054-0.05-0.08-0.123-0.08-0.221v-0.553l1.162-0.161
		l0.301-2.121c0.019-0.079,0.055-0.141,0.108-0.186c0.054-0.044,0.122-0.066,0.206-0.066h0.693v2.387h4.942V27.85z M149.275,18.498
		c0,0.126-0.025,0.246-0.077,0.36s-0.12,0.215-0.206,0.301c-0.087,0.086-0.188,0.154-0.305,0.203
		c-0.117,0.049-0.238,0.073-0.364,0.073s-0.245-0.024-0.356-0.073c-0.112-0.049-0.212-0.117-0.298-0.203
		c-0.087-0.086-0.154-0.187-0.203-0.301s-0.073-0.234-0.073-0.36c0-0.131,0.024-0.255,0.073-0.371s0.116-0.218,0.203-0.305
		c0.086-0.086,0.186-0.154,0.298-0.203c0.111-0.049,0.23-0.073,0.356-0.073s0.247,0.024,0.364,0.073
		c0.116,0.049,0.218,0.117,0.305,0.203c0.086,0.087,0.154,0.188,0.206,0.305S149.275,18.367,149.275,18.498z"/>
	<path fill="#6F6F6F" d="M156.905,17.518V27.85h-0.826c-0.191,0-0.31-0.091-0.356-0.273l-0.119-0.818
		c-0.304,0.359-0.647,0.647-1.032,0.864c-0.386,0.217-0.83,0.325-1.334,0.325c-0.406,0-0.773-0.079-1.103-0.237
		c-0.329-0.159-0.61-0.392-0.844-0.697s-0.412-0.685-0.538-1.137c-0.126-0.453-0.189-0.974-0.189-1.562
		c0-0.527,0.07-1.018,0.21-1.47c0.14-0.453,0.343-0.845,0.609-1.176c0.266-0.332,0.588-0.592,0.966-0.781
		c0.378-0.188,0.805-0.283,1.281-0.283c0.429,0,0.794,0.07,1.095,0.21c0.302,0.141,0.571,0.339,0.809,0.595v-3.892H156.905z
		 M155.533,22.46c-0.224-0.294-0.465-0.5-0.725-0.616c-0.259-0.117-0.549-0.175-0.871-0.175c-0.625,0-1.109,0.225-1.452,0.675
		c-0.344,0.451-0.515,1.107-0.515,1.971c0,0.453,0.038,0.839,0.115,1.158c0.077,0.32,0.189,0.581,0.336,0.784
		c0.147,0.203,0.328,0.353,0.543,0.448c0.214,0.096,0.457,0.144,0.728,0.144c0.396,0,0.739-0.089,1.029-0.266
		c0.289-0.178,0.56-0.428,0.812-0.749V22.46z"/>
	<path fill="#6F6F6F" d="M158.634,21.731c0.397-0.378,0.827-0.66,1.292-0.847c0.464-0.187,0.974-0.28,1.529-0.28
		c0.406,0,0.766,0.066,1.078,0.199c0.312,0.134,0.576,0.319,0.791,0.557c0.215,0.238,0.377,0.523,0.486,0.854
		s0.165,0.697,0.165,1.099v4.536h-0.609c-0.136,0-0.238-0.022-0.308-0.066c-0.07-0.044-0.126-0.127-0.168-0.249l-0.147-0.623
		c-0.182,0.169-0.361,0.316-0.539,0.445c-0.178,0.128-0.363,0.237-0.557,0.329c-0.193,0.091-0.4,0.159-0.619,0.206
		c-0.22,0.047-0.462,0.07-0.729,0.07c-0.279,0-0.542-0.039-0.787-0.116c-0.245-0.076-0.459-0.194-0.641-0.354
		c-0.182-0.158-0.325-0.356-0.431-0.595c-0.104-0.238-0.157-0.516-0.157-0.833c0-0.28,0.076-0.55,0.228-0.809
		s0.399-0.491,0.742-0.696s0.791-0.373,1.344-0.504s1.233-0.205,2.04-0.224v-0.519c0-0.536-0.114-0.938-0.343-1.204
		c-0.229-0.266-0.564-0.398-1.008-0.398c-0.299,0-0.55,0.037-0.752,0.111c-0.203,0.075-0.379,0.158-0.525,0.249
		c-0.147,0.091-0.275,0.174-0.385,0.248c-0.11,0.075-0.224,0.112-0.34,0.112c-0.094,0-0.174-0.025-0.241-0.077
		c-0.068-0.051-0.123-0.112-0.165-0.182L158.634,21.731z M162.638,24.692c-0.555,0.019-1.026,0.062-1.413,0.13
		c-0.388,0.067-0.703,0.157-0.945,0.27c-0.243,0.111-0.418,0.244-0.525,0.396s-0.161,0.32-0.161,0.507
		c0,0.178,0.029,0.331,0.088,0.459s0.138,0.233,0.238,0.315c0.1,0.081,0.218,0.141,0.354,0.178c0.135,0.038,0.282,0.057,0.44,0.057
		c0.21,0,0.402-0.021,0.578-0.063c0.175-0.042,0.339-0.102,0.493-0.179c0.154-0.076,0.301-0.171,0.441-0.283
		c0.14-0.112,0.277-0.24,0.412-0.385V24.692z"/>
</g>
</svg>
