<?xml version="1.0" encoding="utf-8"?>
<!-- Generator: Adobe Illustrator 19.0.0, SVG Export Plug-In . SVG Version: 6.00 Build 0)  -->
<svg version="1.1" id="Layer_1" xmlns="http://www.w3.org/2000/svg" xmlns:xlink="http://www.w3.org/1999/xlink" x="0px" y="0px"
	 viewBox="0 0 125 125" style="enable-background:new 0 0 125 125;" xml:space="preserve">
<style type="text/css">
	.st0{clip-path:url(#XMLID_24_);}
</style>
<g id="XMLID_22_">
	<g id="XMLID_46_">
		<defs>
			<rect id="XMLID_17_" x="2.1" y="6.4" width="120.8" height="112.3"/>
		</defs>
		<clipPath id="XMLID_24_">
			<use xlink:href="#XMLID_17_"  style="overflow:visible;"/>
		</clipPath>
		<path id="XMLID_48_" class="st0" d="M121.6,18.3c-0.9-0.8-2.1-1.2-3.3-1c-0.1,0-13.3,2.6-35.5,2.6c-7.1,0-13.8,2-20.1,5.8
			c-6.2-3.9-13-5.8-20.1-5.8c-22.2,0-35.8-2.6-36-2.6c-1.2-0.2-2.4,0.1-3.3,1c-0.9,0.8-1.3,2.1-1.2,3.3C2.2,22,3.6,32.5,8.4,43.7
			v70.9c0,2.1,1.7,3.8,3.8,3.8c2.1,0,3.8-1.7,3.8-3.8V57.2c7.1,9.4,16.1,14.3,26.6,14.3c7.8,0,14.5-1.6,20.1-4.9
			c5.5,3.2,12.3,4.9,20.1,4.9c13.9,0,25.2-8.8,32.9-25.5c5.5-12,7.1-23.9,7.2-24.4C122.9,20.3,122.5,19.1,121.6,18.3L121.6,18.3z
			 M82.7,63.8c-7.3,0-13.3-1.6-17.9-4.9c-0.7-0.5-1.4-0.7-2.2-0.7c-0.8,0-1.5,0.2-2.2,0.7c-4.6,3.3-10.6,4.9-17.9,4.9
			c-21.1,0-29.4-26.8-31.9-38.2c6.1,0.8,17.1,1.9,31.9,1.9c6.3,0,12.3,2,17.9,5.9c1.3,0.9,3.1,0.9,4.4,0c5.5-3.9,11.5-5.9,17.9-5.9
			c14.7,0,25.5-1.1,31.5-1.9C111.7,37.1,103.5,63.8,82.7,63.8L82.7,63.8z M82.7,63.8"/>
	</g>
	<path id="XMLID_42_" d="M39.5,32H24.7c-1.2,0-2.4,0.6-3.1,1.6c-0.7,1-0.9,2.2-0.5,3.4c0.2,0.7,5.9,18,18.4,18
		c9.9,0,14.9-0.4,15.1-0.4c1.2-0.1,2.2-0.7,2.9-1.7c0.6-1,0.8-2.2,0.4-3.3C57.7,48.9,52,32,39.5,32L39.5,32z M39.5,47.4
		c-3.8,0-6.9-4-9-7.8h9c4,0,7.1,4.1,9,7.6C46.3,47.3,43.3,47.4,39.5,47.4L39.5,47.4z M39.5,47.4"/>
	<path id="XMLID_38_" d="M66.9,49.6c-0.4,1.1-0.2,2.3,0.4,3.3c0.6,1,1.7,1.6,2.9,1.7c0.2,0,5.2,0.4,15.1,0.4
		c12.5,0,18.2-17.3,18.4-18c0.4-1.2,0.2-2.4-0.5-3.4c-0.7-1-1.9-1.6-3.1-1.6H85.3C72.9,32,67.1,48.9,66.9,49.6L66.9,49.6z
		 M85.3,39.6h9c-2,3.7-5.2,7.8-9,7.8c-3.7,0-6.7-0.1-9-0.1C78.2,43.8,81.3,39.6,85.3,39.6L85.3,39.6z M85.3,39.6"/>
	<path id="XMLID_35_" d="M62.4,20.1c1,0,2-0.4,2.7-1.1c0.7-0.7,1.1-1.7,1.1-2.7c0-1-0.4-2-1.1-2.7c-0.7-0.7-1.7-1.1-2.7-1.1
		s-2,0.4-2.7,1.1c-0.7,0.7-1.1,1.7-1.1,2.7c0,1,0.4,2,1.1,2.7C60.5,19.7,61.4,20.1,62.4,20.1L62.4,20.1z M62.4,20.1"/>
	<path id="XMLID_32_" d="M49.9,17.8c1,0,2-0.4,2.7-1.1c0.7-0.7,1.1-1.7,1.1-2.7c0-1-0.4-2-1.1-2.7c-0.7-0.7-1.7-1.1-2.7-1.1
		c-1,0-2,0.4-2.7,1.1C46.5,12,46.1,13,46.1,14c0,1,0.4,2,1.1,2.7C47.9,17.4,48.9,17.8,49.9,17.8L49.9,17.8z M49.9,17.8"/>
	<path id="XMLID_29_" d="M37.3,14c1,0,2-0.4,2.7-1.1c0.7-0.7,1.1-1.7,1.1-2.7c0-1-0.4-2-1.1-2.7c-0.7-0.7-1.7-1.1-2.7-1.1
		c-1,0-2,0.4-2.7,1.1c-0.7,0.7-1.1,1.7-1.1,2.7c0,1,0.4,2,1.1,2.7C35.3,13.6,36.3,14,37.3,14L37.3,14z M37.3,14"/>
	<path id="XMLID_26_" d="M75,17.8c1,0,2-0.4,2.7-1.1c0.7-0.7,1.1-1.7,1.1-2.7c0-1-0.4-2-1.1-2.7C77,10.6,76,10.2,75,10.2
		c-1,0-2,0.4-2.7,1.1C71.6,12,71.2,13,71.2,14c0,1,0.4,2,1.1,2.7C73,17.4,74,17.8,75,17.8L75,17.8z M75,17.8"/>
	<path id="XMLID_23_" d="M87.6,14c1,0,2-0.4,2.7-1.1c0.7-0.7,1.1-1.7,1.1-2.7c0-1-0.4-2-1.1-2.7c-0.7-0.7-1.7-1.1-2.7-1.1
		c-1,0-2,0.4-2.7,1.1c-0.7,0.7-1.1,1.7-1.1,2.7c0,1,0.4,2,1.1,2.7C85.6,13.6,86.6,14,87.6,14L87.6,14z M87.6,14"/>
</g>
</svg>
