<?xml version="1.0" encoding="utf-8"?>
<!-- Generator: Adobe Illustrator 15.0.0, SVG Export Plug-In . SVG Version: 6.00 Build 0)  -->
<!DOCTYPE svg PUBLIC "-//W3C//DTD SVG 1.1//EN" "http://www.w3.org/Graphics/SVG/1.1/DTD/svg11.dtd">
<svg version="1.1" id="Layer_1" xmlns="http://www.w3.org/2000/svg" xmlns:xlink="http://www.w3.org/1999/xlink" x="0px" y="0px"
	 width="285px" height="101px" viewBox="0 0 285 101" enable-background="new 0 0 285 101" xml:space="preserve">
<g id="Layer_1_2_">
	<g>
		
			<linearGradient id="SVGID_1_" gradientUnits="userSpaceOnUse" x1="425" y1="-155.9531" x2="425" y2="-256.3179" gradientTransform="matrix(1 0 0 -1 -282.5 -155.5)">
			<stop  offset="0" style="stop-color:#B9519F"/>
			<stop  offset="1" style="stop-color:#A83B8D"/>
		</linearGradient>
		<rect fill="url(#SVGID_1_)" width="285" height="101"/>
	</g>
</g>
<g id="Layer_2" display="none">
	<rect display="inline" fill="#D2D3D2" width="101" height="101"/>
</g>
<g>
	<g>
		<path fill="#FFFFFF" d="M116.895,33.124c0,1.166-0.194,2.237-0.583,3.212c-0.389,0.976-0.935,1.815-1.639,2.519
			s-1.551,1.25-2.541,1.639c-0.99,0.389-2.09,0.583-3.3,0.583h-6.061V25.171h6.061c1.21,0,2.31,0.196,3.3,0.588
			c0.99,0.392,1.837,0.938,2.541,1.639s1.25,1.539,1.639,2.514C116.701,30.888,116.895,31.958,116.895,33.124z M113.859,33.124
			c0-0.873-0.115-1.655-0.346-2.348s-0.565-1.28-1.001-1.76c-0.437-0.48-0.965-0.849-1.584-1.105
			c-0.62-0.257-1.318-0.385-2.096-0.385h-3.091v11.198h3.091c0.777,0,1.476-0.128,2.096-0.385c0.619-0.257,1.147-0.625,1.584-1.106
			c0.436-0.48,0.77-1.067,1.001-1.76C113.744,34.78,113.859,33.997,113.859,33.124z"/>
		<path fill="#FFFFFF" d="M122.472,41.077h-2.97V25.171h2.97V41.077z"/>
		<path fill="#FFFFFF" d="M134.495,28.064c-0.088,0.154-0.182,0.266-0.28,0.335c-0.1,0.07-0.223,0.104-0.369,0.104
			c-0.153,0-0.32-0.057-0.5-0.17c-0.18-0.113-0.395-0.24-0.644-0.379c-0.25-0.139-0.541-0.266-0.875-0.379
			c-0.334-0.113-0.728-0.17-1.183-0.17c-0.41,0-0.77,0.049-1.077,0.148c-0.309,0.099-0.567,0.236-0.776,0.413
			c-0.209,0.176-0.364,0.387-0.467,0.632c-0.104,0.246-0.154,0.515-0.154,0.809c0,0.374,0.104,0.686,0.313,0.935
			s0.485,0.462,0.83,0.638c0.345,0.176,0.737,0.334,1.178,0.473c0.439,0.139,0.891,0.288,1.353,0.445
			c0.462,0.158,0.913,0.341,1.354,0.55c0.439,0.209,0.832,0.473,1.177,0.792c0.345,0.319,0.621,0.709,0.83,1.171
			s0.313,1.023,0.313,1.683c0,0.719-0.123,1.392-0.368,2.019c-0.246,0.627-0.605,1.173-1.078,1.639
			c-0.473,0.466-1.051,0.833-1.732,1.1c-0.681,0.267-1.463,0.401-2.343,0.401c-0.506,0-1.005-0.049-1.496-0.148
			s-0.963-0.24-1.414-0.423c-0.45-0.183-0.874-0.403-1.271-0.66c-0.396-0.256-0.747-0.542-1.056-0.858l0.869-1.419
			c0.073-0.103,0.169-0.188,0.286-0.258c0.117-0.07,0.242-0.104,0.374-0.104c0.183,0,0.381,0.075,0.594,0.225
			c0.213,0.15,0.466,0.317,0.759,0.5c0.294,0.184,0.637,0.351,1.028,0.5c0.393,0.15,0.864,0.226,1.414,0.226
			c0.843,0,1.496-0.2,1.958-0.599c0.462-0.4,0.693-0.974,0.693-1.722c0-0.418-0.104-0.759-0.313-1.023
			c-0.209-0.264-0.486-0.486-0.831-0.666c-0.345-0.18-0.737-0.332-1.177-0.457s-0.888-0.26-1.342-0.407
			c-0.455-0.146-0.902-0.322-1.343-0.528c-0.439-0.205-0.832-0.473-1.177-0.803c-0.345-0.33-0.621-0.742-0.83-1.237
			s-0.313-1.105-0.313-1.832c0-0.579,0.115-1.144,0.347-1.694c0.23-0.55,0.566-1.038,1.006-1.463
			c0.44-0.425,0.982-0.767,1.628-1.023c0.646-0.257,1.387-0.385,2.223-0.385c0.938,0,1.804,0.147,2.596,0.44
			s1.467,0.704,2.023,1.232L134.495,28.064z"/>
		<path fill="#FFFFFF" d="M149.016,37.326c0.16,0,0.303,0.062,0.428,0.187l1.166,1.265c-0.645,0.799-1.438,1.412-2.381,1.837
			c-0.941,0.425-2.074,0.638-3.395,0.638c-1.18,0-2.242-0.201-3.184-0.605c-0.942-0.403-1.747-0.964-2.414-1.683
			c-0.667-0.719-1.179-1.577-1.534-2.574c-0.356-0.997-0.534-2.086-0.534-3.267c0-1.195,0.191-2.29,0.572-3.283
			c0.381-0.993,0.919-1.85,1.611-2.569c0.693-0.718,1.52-1.277,2.48-1.677c0.96-0.4,2.024-0.6,3.19-0.6
			c1.158,0,2.188,0.191,3.086,0.572c0.896,0.381,1.662,0.88,2.293,1.496l-0.99,1.375c-0.059,0.088-0.133,0.165-0.225,0.231
			c-0.094,0.066-0.221,0.099-0.379,0.099c-0.111,0-0.227-0.031-0.344-0.093c-0.115-0.062-0.246-0.139-0.385-0.231
			c-0.143-0.092-0.303-0.193-0.482-0.303c-0.185-0.11-0.396-0.21-0.641-0.302c-0.243-0.092-0.521-0.169-0.84-0.231
			c-0.32-0.062-0.688-0.093-1.104-0.093c-0.714,0-1.362,0.126-1.952,0.379c-0.592,0.253-1.1,0.62-1.524,1.1
			c-0.425,0.48-0.755,1.067-0.99,1.76c-0.234,0.693-0.352,1.483-0.352,2.371c0,0.895,0.126,1.69,0.38,2.387
			c0.253,0.697,0.596,1.283,1.028,1.76c0.433,0.477,0.942,0.842,1.528,1.095c0.588,0.253,1.22,0.379,1.894,0.379
			c0.403,0,0.769-0.022,1.097-0.066c0.325-0.044,0.627-0.114,0.899-0.209c0.274-0.095,0.534-0.218,0.78-0.369
			c0.246-0.15,0.49-0.335,0.731-0.555c0.072-0.066,0.149-0.119,0.229-0.16S148.928,37.326,149.016,37.326z"/>
		<path fill="#FFFFFF" d="M165.064,41.077h-2.674c-0.508,0-0.873-0.198-1.102-0.594l-3.346-5.093
			c-0.125-0.19-0.264-0.326-0.412-0.407c-0.15-0.081-0.371-0.121-0.664-0.121H155.6v6.215h-2.959V25.171h4.854
			c1.078,0,2.004,0.112,2.775,0.335c0.773,0.223,1.408,0.537,1.902,0.94c0.496,0.403,0.859,0.885,1.096,1.446
			c0.234,0.561,0.354,1.179,0.354,1.854c0,0.536-0.08,1.042-0.236,1.518c-0.156,0.477-0.385,0.909-0.684,1.298
			s-0.662,0.73-1.102,1.023c-0.436,0.293-0.934,0.524-1.49,0.693c0.191,0.11,0.367,0.24,0.527,0.39
			c0.162,0.15,0.309,0.329,0.441,0.534L165.064,41.077z M157.451,32.739c0.557,0,1.043-0.07,1.457-0.209
			c0.416-0.139,0.756-0.332,1.023-0.578c0.267-0.246,0.469-0.537,0.6-0.875c0.133-0.337,0.199-0.708,0.199-1.111
			c0-0.807-0.27-1.426-0.799-1.859c-0.531-0.432-1.346-0.649-2.438-0.649H155.6v5.28h1.851L157.451,32.739L157.451,32.739z"/>
		<path fill="#FFFFFF" d="M169.76,41.077h-2.969V25.171h2.969V41.077z"/>
		<path fill="#FFFFFF" d="M185.832,38.778c-0.58,0.726-1.283,1.296-2.113,1.71c-0.828,0.414-1.807,0.662-2.936,0.742l-0.145,0.517
			c0.688,0.161,1.174,0.379,1.451,0.655c0.277,0.275,0.418,0.603,0.418,0.984c0,0.249-0.062,0.473-0.191,0.671
			c-0.127,0.198-0.312,0.367-0.549,0.506c-0.238,0.139-0.523,0.246-0.854,0.319c-0.33,0.073-0.692,0.11-1.088,0.11
			c-0.302,0-0.582-0.021-0.843-0.061c-0.262-0.041-0.521-0.101-0.774-0.182l0.252-0.847c0.045-0.169,0.149-0.253,0.319-0.253
			c0.103,0,0.214,0.027,0.334,0.083c0.121,0.055,0.3,0.082,0.535,0.082c0.24,0,0.422-0.046,0.543-0.137
			c0.121-0.092,0.183-0.204,0.183-0.335c0-0.213-0.131-0.365-0.396-0.457c-0.266-0.092-0.67-0.178-1.223-0.259l0.484-1.408
			c-1.059-0.095-2.01-0.361-2.854-0.797c-0.848-0.437-1.567-1.01-2.161-1.722c-0.595-0.712-1.05-1.54-1.363-2.486
			c-0.315-0.946-0.476-1.977-0.476-3.091c0-1.195,0.191-2.29,0.572-3.283c0.381-0.993,0.92-1.85,1.61-2.569
			c0.693-0.718,1.521-1.277,2.479-1.677c0.96-0.4,2.024-0.6,3.19-0.6c1.158,0,2.187,0.191,3.084,0.572s1.664,0.88,2.296,1.496
			l-0.99,1.375c-0.06,0.088-0.135,0.165-0.228,0.231c-0.092,0.066-0.217,0.099-0.379,0.099c-0.108,0-0.226-0.031-0.343-0.093
			c-0.116-0.062-0.243-0.139-0.385-0.231c-0.14-0.092-0.301-0.193-0.481-0.303c-0.185-0.11-0.396-0.21-0.64-0.302
			c-0.241-0.092-0.522-0.169-0.842-0.231s-0.688-0.093-1.104-0.093c-0.711,0-1.36,0.126-1.953,0.379
			c-0.59,0.253-1.099,0.62-1.522,1.1s-0.754,1.067-0.989,1.76c-0.234,0.693-0.353,1.483-0.353,2.371c0,0.895,0.127,1.69,0.381,2.387
			c0.252,0.697,0.597,1.283,1.026,1.76c0.435,0.477,0.942,0.842,1.528,1.095c0.587,0.253,1.218,0.379,1.894,0.379
			c0.402,0,0.769-0.022,1.095-0.066c0.326-0.044,0.627-0.114,0.901-0.209c0.274-0.095,0.535-0.218,0.781-0.369
			c0.243-0.15,0.487-0.335,0.729-0.555c0.073-0.066,0.149-0.119,0.231-0.16c0.08-0.041,0.164-0.061,0.252-0.061
			c0.162,0,0.306,0.062,0.431,0.187L185.832,38.778z"/>
		<path fill="#FFFFFF" d="M201.496,41.077h-2.289c-0.256,0-0.465-0.064-0.627-0.192c-0.162-0.128-0.283-0.288-0.363-0.479
			l-1.188-3.245h-6.59l-1.188,3.245c-0.06,0.168-0.172,0.323-0.34,0.462c-0.17,0.139-0.379,0.209-0.627,0.209h-2.312l6.258-15.906
			h3.017L201.496,41.077z M195.104,22.388c0.162,0,0.305-0.033,0.424-0.099c0.121-0.066,0.223-0.148,0.299-0.248
			c0.076-0.099,0.135-0.209,0.172-0.33c0.035-0.121,0.055-0.24,0.055-0.357h1.66c0,0.367-0.049,0.717-0.146,1.051
			c-0.102,0.333-0.246,0.631-0.439,0.891c-0.195,0.261-0.434,0.468-0.715,0.622c-0.283,0.154-0.607,0.231-0.975,0.231
			c-0.373,0-0.697-0.059-0.975-0.176c-0.275-0.117-0.525-0.244-0.754-0.379c-0.229-0.135-0.436-0.262-0.621-0.379
			c-0.188-0.118-0.379-0.176-0.578-0.176c-0.168,0-0.312,0.033-0.428,0.099c-0.119,0.066-0.213,0.15-0.287,0.253
			c-0.07,0.103-0.129,0.216-0.164,0.341c-0.037,0.125-0.058,0.246-0.058,0.363h-1.683c0-0.359,0.051-0.709,0.154-1.051
			c0.102-0.341,0.25-0.642,0.445-0.902c0.193-0.26,0.432-0.469,0.715-0.627c0.281-0.158,0.605-0.236,0.973-0.236
			c0.375,0,0.701,0.059,0.979,0.176c0.278,0.117,0.528,0.244,0.747,0.379c0.222,0.136,0.427,0.262,0.617,0.379
			C194.711,22.33,194.906,22.388,195.104,22.388z M196.27,35.071l-1.936-5.291c-0.096-0.235-0.193-0.513-0.297-0.836
			c-0.104-0.323-0.205-0.671-0.309-1.045c-0.096,0.374-0.193,0.725-0.297,1.051c-0.104,0.326-0.201,0.61-0.299,0.853l-1.924,5.269
			L196.27,35.071L196.27,35.071z"/>
		<path fill="#FFFFFF" d="M218.314,33.124c0,1.166-0.193,2.246-0.578,3.24c-0.385,0.994-0.93,1.854-1.635,2.58
			c-0.703,0.726-1.553,1.292-2.539,1.699c-0.99,0.407-2.092,0.61-3.301,0.61c-1.203,0-2.301-0.203-3.289-0.61
			c-0.99-0.407-1.842-0.974-2.549-1.699c-0.707-0.726-1.256-1.586-1.646-2.58c-0.389-0.994-0.58-2.074-0.58-3.24
			s0.191-2.246,0.58-3.239c0.391-0.993,0.938-1.854,1.646-2.58s1.559-1.292,2.549-1.7c0.988-0.407,2.086-0.61,3.289-0.61
			c0.807,0,1.562,0.094,2.275,0.281c0.711,0.187,1.361,0.451,1.957,0.792c0.594,0.341,1.129,0.755,1.604,1.243
			c0.473,0.488,0.873,1.032,1.201,1.634c0.33,0.601,0.582,1.254,0.756,1.958C218.227,31.606,218.314,32.347,218.314,33.124z
			 M215.289,33.124c0-0.873-0.117-1.655-0.352-2.348c-0.236-0.693-0.57-1.282-1.002-1.766c-0.436-0.484-0.959-0.854-1.578-1.111
			c-0.621-0.256-1.318-0.385-2.096-0.385c-0.779,0-1.479,0.128-2.098,0.385c-0.619,0.257-1.146,0.627-1.584,1.111
			c-0.438,0.484-0.771,1.072-1.006,1.766c-0.236,0.693-0.354,1.476-0.354,2.348c0,0.873,0.116,1.656,0.354,2.349
			c0.232,0.693,0.568,1.28,1.006,1.76s0.965,0.849,1.584,1.106c0.619,0.256,1.316,0.385,2.098,0.385
			c0.776,0,1.475-0.128,2.096-0.385c0.619-0.257,1.145-0.625,1.578-1.106c0.432-0.48,0.766-1.067,1.002-1.76
			C215.172,34.78,215.289,33.997,215.289,33.124z"/>
	</g>
	<g>
		<path fill="#FFFFFF" d="M108.476,60.668l-0.007,1.211h-6.23V51.827h6.23v1.211h-4.732v3.185h3.808v1.17h-3.808v3.275H108.476z"/>
		<path fill="#FFFFFF" d="M110.037,61.879v-7.111h0.819c0.191,0,0.311,0.09,0.357,0.272l0.098,0.679
			c0.261-0.312,0.552-0.568,0.872-0.767c0.32-0.199,0.694-0.298,1.124-0.298c0.471,0,0.854,0.13,1.148,0.389
			c0.294,0.26,0.509,0.609,0.644,1.055c0.103-0.252,0.235-0.47,0.399-0.649c0.164-0.185,0.345-0.332,0.546-0.448
			c0.201-0.117,0.414-0.203,0.641-0.259c0.227-0.058,0.456-0.084,0.689-0.084c0.378,0,0.715,0.06,1.012,0.178
			c0.296,0.119,0.547,0.293,0.752,0.521c0.205,0.229,0.361,0.513,0.469,0.849s0.161,0.719,0.161,1.146v4.529h-1.372V57.35
			c0-0.531-0.115-0.933-0.346-1.203c-0.231-0.271-0.568-0.404-1.012-0.404c-0.196,0-0.383,0.031-0.56,0.102
			c-0.177,0.067-0.333,0.17-0.465,0.305c-0.133,0.137-0.238,0.305-0.315,0.506c-0.077,0.199-0.116,0.434-0.116,0.699v4.527h-1.372
			v-4.529c0-0.552-0.109-0.955-0.329-1.219c-0.219-0.261-0.541-0.392-0.966-0.392c-0.294,0-0.567,0.075-0.819,0.229
			c-0.252,0.153-0.483,0.363-0.693,0.629v5.278L110.037,61.879L110.037,61.879z"/>
		<path fill="#FFFFFF" d="M122.973,55.747c0.294-0.327,0.627-0.591,1.001-0.791c0.373-0.201,0.798-0.302,1.274-0.302
			c0.415,0,0.79,0.08,1.124,0.242c0.333,0.16,0.617,0.392,0.851,0.691c0.233,0.303,0.413,0.666,0.539,1.096
			c0.126,0.431,0.189,0.916,0.189,1.457c0,0.572-0.071,1.096-0.213,1.566c-0.142,0.473-0.345,0.875-0.609,1.211
			c-0.264,0.336-0.584,0.598-0.962,0.78s-0.803,0.274-1.274,0.274c-0.229,0-0.439-0.021-0.63-0.064
			c-0.191-0.044-0.367-0.108-0.528-0.192c-0.161-0.084-0.309-0.188-0.444-0.308c-0.136-0.121-0.264-0.26-0.385-0.413l-0.063,0.595
			c-0.037,0.191-0.154,0.287-0.35,0.287h-0.882v-10.33h1.365v4.2H122.973z M122.973,60.129c0.224,0.294,0.466,0.499,0.728,0.616
			c0.262,0.116,0.546,0.175,0.854,0.175c0.635,0,1.124-0.227,1.467-0.679c0.343-0.453,0.515-1.138,0.515-2.052
			c0-0.844-0.152-1.465-0.455-1.858c-0.304-0.394-0.733-0.591-1.288-0.591c-0.392,0-0.731,0.088-1.019,0.266
			s-0.554,0.43-0.801,0.756L122.973,60.129L122.973,60.129z"/>
		<path fill="#FFFFFF" d="M129.293,55.761c0.397-0.378,0.827-0.659,1.292-0.847s0.975-0.28,1.529-0.28
			c0.406,0,0.766,0.066,1.078,0.199c0.312,0.134,0.576,0.319,0.791,0.558c0.215,0.237,0.377,0.522,0.486,0.854
			c0.109,0.331,0.164,0.696,0.164,1.099v4.536h-0.609c-0.135,0-0.236-0.021-0.307-0.065c-0.071-0.043-0.127-0.127-0.168-0.248
			l-0.148-0.623c-0.182,0.168-0.361,0.314-0.539,0.443c-0.176,0.129-0.361,0.237-0.557,0.329c-0.193,0.093-0.398,0.159-0.619,0.206
			c-0.219,0.047-0.461,0.07-0.727,0.07c-0.281,0-0.543-0.039-0.789-0.116c-0.244-0.076-0.457-0.192-0.641-0.354
			c-0.182-0.158-0.324-0.355-0.43-0.596c-0.105-0.238-0.158-0.516-0.158-0.833c0-0.28,0.076-0.55,0.228-0.809
			c0.151-0.259,0.398-0.491,0.742-0.696c0.342-0.205,0.791-0.373,1.344-0.504c0.553-0.131,1.232-0.205,2.041-0.225v-0.52
			c0-0.535-0.115-0.938-0.344-1.204c-0.229-0.266-0.564-0.396-1.008-0.396c-0.299,0-0.549,0.036-0.752,0.11s-0.379,0.157-0.525,0.25
			c-0.146,0.09-0.275,0.174-0.385,0.248c-0.109,0.073-0.223,0.11-0.34,0.11c-0.094,0-0.174-0.024-0.242-0.077
			c-0.066-0.051-0.121-0.111-0.164-0.182L129.293,55.761z M133.298,58.723c-0.557,0.02-1.027,0.062-1.414,0.129
			c-0.389,0.067-0.703,0.157-0.945,0.271c-0.242,0.109-0.418,0.244-0.525,0.396c-0.107,0.151-0.16,0.319-0.16,0.508
			c0,0.178,0.027,0.33,0.086,0.459c0.059,0.127,0.139,0.231,0.238,0.313c0.102,0.081,0.219,0.142,0.354,0.179
			c0.137,0.039,0.283,0.058,0.441,0.058c0.211,0,0.402-0.021,0.578-0.063c0.174-0.041,0.34-0.102,0.492-0.179
			c0.154-0.076,0.301-0.171,0.441-0.283c0.14-0.112,0.277-0.239,0.414-0.385V58.723z"/>
		<path fill="#FFFFFF" d="M137.869,51.547v10.332h-1.372V51.547H137.869z"/>
		<path fill="#FFFFFF" d="M139.633,55.761c0.396-0.378,0.827-0.659,1.291-0.847c0.465-0.188,0.975-0.28,1.529-0.28
			c0.406,0,0.765,0.066,1.078,0.199c0.312,0.134,0.576,0.319,0.791,0.558c0.215,0.237,0.377,0.522,0.486,0.854
			c0.109,0.331,0.166,0.696,0.166,1.099v4.536h-0.609c-0.135,0-0.238-0.021-0.309-0.065c-0.072-0.043-0.125-0.127-0.168-0.248
			l-0.146-0.623c-0.182,0.168-0.361,0.314-0.539,0.443s-0.363,0.237-0.557,0.329c-0.193,0.093-0.399,0.159-0.619,0.206
			c-0.22,0.047-0.462,0.07-0.728,0.07c-0.28,0-0.543-0.039-0.788-0.116c-0.245-0.076-0.458-0.192-0.641-0.354
			c-0.182-0.158-0.325-0.355-0.43-0.596c-0.105-0.238-0.158-0.516-0.158-0.833c0-0.28,0.076-0.55,0.228-0.809
			c0.152-0.259,0.399-0.491,0.742-0.696c0.343-0.205,0.791-0.373,1.344-0.504c0.554-0.131,1.233-0.205,2.041-0.225v-0.52
			c0-0.535-0.113-0.938-0.342-1.204c-0.23-0.266-0.566-0.396-1.009-0.396c-0.299,0-0.549,0.036-0.752,0.11
			c-0.203,0.074-0.378,0.157-0.525,0.25c-0.146,0.09-0.275,0.174-0.385,0.248c-0.109,0.073-0.223,0.11-0.34,0.11
			c-0.093,0-0.174-0.024-0.241-0.077c-0.067-0.051-0.122-0.111-0.164-0.182L139.633,55.761z M143.637,58.723
			c-0.555,0.02-1.027,0.062-1.414,0.129c-0.388,0.067-0.702,0.157-0.945,0.271c-0.242,0.109-0.418,0.244-0.524,0.396
			c-0.107,0.15-0.161,0.319-0.161,0.508c0,0.178,0.028,0.33,0.087,0.459c0.059,0.127,0.138,0.231,0.238,0.313
			c0.101,0.081,0.218,0.142,0.354,0.179c0.136,0.039,0.282,0.058,0.441,0.058c0.21,0,0.402-0.021,0.577-0.063
			c0.175-0.041,0.34-0.102,0.493-0.179c0.154-0.076,0.301-0.171,0.441-0.283c0.139-0.112,0.276-0.239,0.411-0.385L143.637,58.723
			L143.637,58.723z"/>
		<path fill="#FFFFFF" d="M152.871,55.033v0.511c0,0.168-0.105,0.272-0.316,0.315l-0.762,0.111c0.064,0.145,0.115,0.297,0.152,0.459
			c0.039,0.159,0.057,0.328,0.057,0.506c0,0.352-0.068,0.668-0.203,0.948c-0.135,0.282-0.322,0.523-0.561,0.726
			c-0.236,0.201-0.521,0.354-0.85,0.463c-0.33,0.107-0.689,0.16-1.082,0.16c-0.322,0-0.623-0.034-0.902-0.104
			c-0.141,0.084-0.246,0.177-0.318,0.276c-0.072,0.099-0.109,0.199-0.109,0.298c0,0.163,0.07,0.284,0.207,0.362
			c0.137,0.08,0.316,0.138,0.539,0.172c0.221,0.035,0.479,0.059,0.764,0.065c0.287,0.011,0.578,0.024,0.875,0.048
			c0.297,0.021,0.59,0.059,0.875,0.109c0.287,0.055,0.541,0.143,0.764,0.262c0.225,0.117,0.4,0.28,0.539,0.487
			c0.141,0.208,0.207,0.479,0.207,0.81c0,0.31-0.076,0.606-0.229,0.896c-0.151,0.289-0.373,0.546-0.662,0.771
			c-0.289,0.226-0.643,0.403-1.057,0.539c-0.416,0.137-0.887,0.202-1.414,0.202s-0.986-0.051-1.377-0.153
			c-0.389-0.104-0.713-0.239-0.973-0.412c-0.258-0.172-0.453-0.373-0.58-0.604c-0.129-0.229-0.193-0.467-0.193-0.714
			c0-0.347,0.107-0.64,0.322-0.879c0.215-0.24,0.512-0.429,0.889-0.562c-0.205-0.095-0.369-0.222-0.49-0.381
			c-0.121-0.162-0.182-0.375-0.182-0.643c0-0.104,0.02-0.209,0.057-0.316c0.037-0.111,0.096-0.222,0.173-0.33
			c0.075-0.108,0.173-0.215,0.286-0.312c0.113-0.1,0.246-0.188,0.396-0.268c-0.352-0.194-0.625-0.457-0.824-0.779
			c-0.201-0.324-0.303-0.703-0.303-1.139c0-0.351,0.066-0.666,0.203-0.943c0.135-0.28,0.32-0.521,0.562-0.723
			c0.24-0.201,0.525-0.354,0.859-0.463c0.334-0.106,0.699-0.16,1.096-0.16c0.617,0,1.146,0.129,1.59,0.387L152.871,55.033
			L152.871,55.033z M151.484,62.25c0-0.168-0.047-0.303-0.143-0.402c-0.094-0.101-0.221-0.18-0.381-0.238
			c-0.162-0.059-0.352-0.101-0.562-0.125c-0.215-0.024-0.439-0.047-0.676-0.061c-0.234-0.014-0.479-0.025-0.725-0.038
			c-0.248-0.012-0.484-0.034-0.715-0.065c-0.242,0.121-0.441,0.269-0.6,0.439c-0.158,0.174-0.234,0.376-0.234,0.609
			c0,0.148,0.037,0.289,0.115,0.42c0.076,0.131,0.195,0.243,0.355,0.339c0.162,0.097,0.365,0.171,0.609,0.226
			c0.246,0.055,0.539,0.08,0.879,0.08c0.336,0,0.633-0.029,0.889-0.088c0.258-0.059,0.473-0.141,0.648-0.244
			c0.174-0.104,0.307-0.229,0.397-0.375C151.436,62.581,151.484,62.423,151.484,62.25z M149.307,58.33
			c0.242,0,0.457-0.033,0.643-0.1c0.186-0.063,0.338-0.156,0.463-0.275c0.123-0.119,0.217-0.262,0.277-0.43
			c0.062-0.17,0.096-0.354,0.096-0.555c0-0.41-0.123-0.738-0.373-0.982c-0.25-0.245-0.617-0.367-1.104-0.367
			c-0.479,0-0.847,0.122-1.097,0.367c-0.248,0.244-0.373,0.572-0.373,0.982c0,0.2,0.031,0.385,0.095,0.551
			c0.062,0.166,0.155,0.308,0.278,0.427c0.125,0.118,0.276,0.213,0.463,0.28C148.857,58.296,149.068,58.33,149.307,58.33z"/>
		<path fill="#FFFFFF" d="M159.953,60.864c-0.168,0.194-0.361,0.364-0.58,0.507s-0.453,0.258-0.701,0.347
			c-0.246,0.089-0.502,0.154-0.766,0.196s-0.523,0.062-0.781,0.062c-0.49,0-0.943-0.084-1.361-0.248
			c-0.418-0.166-0.779-0.408-1.084-0.729c-0.307-0.319-0.545-0.716-0.715-1.188c-0.17-0.474-0.256-1.02-0.256-1.636
			c0-0.493,0.078-0.954,0.232-1.383c0.154-0.427,0.373-0.799,0.66-1.116c0.287-0.316,0.639-0.566,1.055-0.749
			c0.414-0.182,0.881-0.272,1.4-0.272c0.434,0,0.834,0.072,1.197,0.215c0.367,0.143,0.686,0.35,0.949,0.619
			c0.265,0.271,0.477,0.604,0.627,1.002c0.148,0.396,0.229,0.849,0.229,1.355c0,0.211-0.023,0.354-0.07,0.424
			c-0.047,0.072-0.133,0.108-0.258,0.108h-4.662c0.014,0.425,0.074,0.795,0.182,1.108c0.107,0.314,0.256,0.578,0.443,0.789
			c0.188,0.209,0.414,0.365,0.676,0.469s0.553,0.152,0.875,0.152c0.305,0,0.566-0.033,0.789-0.104
			c0.221-0.069,0.412-0.146,0.572-0.229c0.162-0.082,0.297-0.155,0.405-0.228c0.108-0.071,0.206-0.104,0.29-0.104
			c0.111,0,0.199,0.043,0.262,0.127L159.953,60.864z M158.826,57.532c0-0.271-0.037-0.521-0.115-0.749
			c-0.076-0.229-0.189-0.428-0.34-0.596c-0.148-0.168-0.33-0.299-0.545-0.394c-0.215-0.094-0.463-0.142-0.742-0.142
			c-0.574,0-1.025,0.166-1.355,0.498c-0.328,0.33-0.537,0.791-0.625,1.379L158.826,57.532L158.826,57.532z"/>
		<path fill="#FFFFFF" d="M161.529,61.879v-7.111h0.818c0.189,0,0.311,0.09,0.355,0.272l0.098,0.679
			c0.264-0.312,0.555-0.568,0.871-0.767c0.32-0.198,0.695-0.298,1.123-0.298c0.475,0,0.854,0.13,1.146,0.389
			c0.295,0.26,0.512,0.609,0.646,1.055c0.104-0.252,0.236-0.47,0.396-0.649c0.164-0.185,0.348-0.332,0.549-0.448
			c0.199-0.117,0.414-0.203,0.641-0.259c0.229-0.058,0.455-0.084,0.688-0.084c0.379,0,0.717,0.06,1.014,0.178
			c0.295,0.119,0.547,0.293,0.752,0.521c0.205,0.229,0.359,0.513,0.471,0.849c0.106,0.336,0.16,0.719,0.16,1.146v4.529h-1.373V57.35
			c0-0.531-0.113-0.933-0.346-1.203c-0.23-0.271-0.566-0.404-1.014-0.404c-0.195,0-0.383,0.031-0.561,0.102
			c-0.178,0.067-0.332,0.17-0.465,0.305c-0.133,0.137-0.238,0.305-0.316,0.506c-0.076,0.199-0.115,0.434-0.115,0.699v4.527h-1.369
			v-4.529c0-0.552-0.109-0.955-0.33-1.219c-0.221-0.261-0.541-0.392-0.967-0.392c-0.295,0-0.566,0.075-0.818,0.229
			c-0.252,0.153-0.48,0.363-0.689,0.629v5.278L161.529,61.879L161.529,61.879z"/>
		<path fill="#FFFFFF" d="M185.686,56.854c0,0.752-0.121,1.437-0.359,2.051c-0.24,0.615-0.58,1.146-1.02,1.587
			c-0.438,0.44-0.965,0.782-1.576,1.024c-0.609,0.242-1.289,0.363-2.037,0.363h-3.777V51.827h3.777c0.748,0,1.428,0.121,2.037,0.362
			c0.611,0.244,1.139,0.586,1.576,1.025c0.438,0.439,0.777,0.973,1.02,1.59C185.566,55.423,185.686,56.105,185.686,56.854z
			 M184.16,56.854c0-0.598-0.082-1.133-0.246-1.605s-0.395-0.875-0.695-1.204c-0.303-0.328-0.666-0.579-1.094-0.752
			c-0.426-0.173-0.904-0.259-1.432-0.259h-2.281v7.644h2.281c0.527,0,1.006-0.086,1.432-0.259c0.428-0.173,0.791-0.424,1.094-0.753
			c0.301-0.329,0.531-0.729,0.695-1.2C184.078,57.993,184.16,57.455,184.16,56.854z"/>
		<path fill="#FFFFFF" d="M188.969,52.568c0,0.127-0.027,0.246-0.078,0.361c-0.051,0.112-0.119,0.215-0.207,0.301
			c-0.086,0.086-0.188,0.152-0.305,0.203c-0.115,0.049-0.236,0.071-0.363,0.071c-0.125,0-0.244-0.022-0.355-0.071
			c-0.111-0.051-0.211-0.117-0.299-0.203c-0.086-0.086-0.152-0.188-0.201-0.301c-0.051-0.115-0.074-0.234-0.074-0.361
			c0-0.131,0.023-0.254,0.074-0.367c0.049-0.114,0.115-0.215,0.201-0.301c0.088-0.086,0.188-0.154,0.299-0.203
			s0.23-0.073,0.355-0.073c0.127,0,0.248,0.024,0.363,0.073c0.117,0.049,0.219,0.117,0.305,0.203
			c0.088,0.086,0.156,0.187,0.207,0.301C188.941,52.314,188.969,52.438,188.969,52.568z M188.709,54.768v7.111h-1.365v-7.111
			H188.709z"/>
		<path fill="#FFFFFF" d="M194.883,55.992c-0.037,0.061-0.076,0.104-0.119,0.129c-0.041,0.025-0.096,0.039-0.16,0.039
			c-0.076,0-0.158-0.025-0.25-0.077c-0.09-0.052-0.199-0.106-0.328-0.168s-0.277-0.117-0.449-0.168
			c-0.176-0.052-0.381-0.077-0.617-0.077c-0.193,0-0.373,0.023-0.535,0.073c-0.158,0.049-0.297,0.116-0.406,0.202
			c-0.113,0.088-0.199,0.188-0.262,0.31c-0.062,0.118-0.092,0.246-0.092,0.382c0,0.178,0.053,0.323,0.156,0.44
			c0.105,0.116,0.242,0.217,0.414,0.301c0.17,0.084,0.363,0.16,0.58,0.228c0.219,0.068,0.439,0.141,0.664,0.215
			c0.229,0.074,0.449,0.158,0.666,0.256c0.217,0.096,0.41,0.215,0.58,0.355c0.172,0.145,0.311,0.313,0.414,0.517
			c0.105,0.198,0.158,0.444,0.158,0.733c0,0.332-0.061,0.639-0.18,0.92c-0.119,0.282-0.293,0.526-0.525,0.731
			c-0.23,0.205-0.516,0.366-0.857,0.481c-0.34,0.117-0.729,0.177-1.168,0.177c-0.488,0-0.941-0.082-1.357-0.245
			c-0.414-0.163-0.764-0.371-1.043-0.623l0.32-0.525c0.037-0.063,0.084-0.115,0.143-0.148c0.059-0.035,0.131-0.055,0.227-0.055
			c0.088,0,0.18,0.033,0.271,0.101c0.095,0.063,0.207,0.137,0.336,0.213c0.131,0.077,0.291,0.146,0.478,0.21
			c0.188,0.062,0.42,0.096,0.701,0.096c0.231,0,0.437-0.029,0.606-0.088c0.174-0.059,0.315-0.138,0.433-0.236
			c0.112-0.103,0.198-0.217,0.256-0.349c0.056-0.131,0.084-0.271,0.084-0.413c0-0.187-0.054-0.342-0.158-0.466
			c-0.104-0.123-0.241-0.229-0.411-0.317c-0.173-0.088-0.365-0.164-0.587-0.229c-0.219-0.065-0.442-0.136-0.672-0.21
			c-0.229-0.075-0.453-0.161-0.672-0.26c-0.22-0.098-0.414-0.221-0.584-0.37s-0.31-0.332-0.414-0.546
			c-0.104-0.215-0.155-0.479-0.155-0.784c0-0.274,0.057-0.539,0.172-0.791c0.112-0.252,0.278-0.474,0.496-0.665
			c0.217-0.191,0.485-0.346,0.805-0.459c0.32-0.114,0.687-0.171,1.097-0.171c0.471,0,0.896,0.073,1.276,0.224
			c0.381,0.151,0.707,0.354,0.978,0.616L194.883,55.992z"/>
		<path fill="#FFFFFF" d="M201.758,56.098c-0.043,0.051-0.084,0.092-0.123,0.123c-0.039,0.029-0.098,0.045-0.172,0.045
			s-0.152-0.029-0.234-0.088s-0.184-0.121-0.309-0.188c-0.123-0.067-0.271-0.133-0.447-0.188c-0.176-0.059-0.391-0.088-0.646-0.088
			c-0.338,0-0.633,0.062-0.891,0.183c-0.256,0.123-0.471,0.295-0.641,0.52s-0.299,0.497-0.389,0.818
			c-0.088,0.322-0.133,0.685-0.133,1.084c0,0.416,0.047,0.787,0.141,1.109c0.094,0.324,0.227,0.598,0.398,0.818
			c0.174,0.222,0.383,0.39,0.631,0.504c0.246,0.115,0.521,0.172,0.826,0.172c0.293,0,0.535-0.036,0.727-0.107
			s0.352-0.149,0.477-0.233c0.127-0.084,0.23-0.162,0.314-0.233c0.084-0.072,0.172-0.109,0.26-0.109c0.111,0,0.199,0.044,0.26,0.128
			l0.391,0.504c-0.16,0.198-0.346,0.371-0.549,0.511c-0.203,0.141-0.418,0.254-0.646,0.344s-0.467,0.153-0.717,0.195
			s-0.502,0.062-0.762,0.062c-0.441,0-0.855-0.08-1.24-0.244c-0.387-0.164-0.721-0.4-1-0.715c-0.283-0.312-0.508-0.695-0.672-1.15
			c-0.16-0.455-0.242-0.973-0.242-1.551c0-0.526,0.072-1.016,0.221-1.463c0.146-0.447,0.363-0.834,0.648-1.158
			c0.287-0.324,0.643-0.578,1.062-0.764c0.422-0.186,0.9-0.275,1.441-0.275c0.51,0,0.955,0.08,1.346,0.244
			c0.389,0.164,0.73,0.395,1.035,0.693L201.758,56.098z"/>
		<path fill="#FFFFFF" d="M204.76,56.132c0.229-0.467,0.504-0.833,0.826-1.099c0.322-0.268,0.709-0.399,1.162-0.399
			c0.154,0,0.301,0.019,0.438,0.054c0.141,0.035,0.258,0.086,0.361,0.156l-0.092,1.029c-0.033,0.126-0.109,0.188-0.23,0.188
			c-0.064,0-0.164-0.013-0.295-0.037s-0.27-0.039-0.42-0.039c-0.219,0-0.412,0.031-0.58,0.096s-0.318,0.154-0.451,0.279
			c-0.135,0.123-0.252,0.274-0.354,0.455c-0.104,0.181-0.199,0.385-0.287,0.611v4.452h-1.365v-7.112h0.783
			c0.15,0,0.252,0.027,0.305,0.082c0.057,0.053,0.092,0.147,0.115,0.282L204.76,56.132z"/>
		<path fill="#FFFFFF" d="M214.441,60.864c-0.168,0.194-0.361,0.364-0.582,0.507c-0.219,0.143-0.451,0.258-0.699,0.347
			s-0.504,0.154-0.768,0.196c-0.266,0.042-0.523,0.062-0.779,0.062c-0.49,0-0.943-0.084-1.361-0.248
			c-0.418-0.166-0.779-0.408-1.086-0.729c-0.305-0.319-0.543-0.716-0.713-1.188c-0.172-0.475-0.256-1.02-0.256-1.636
			c0-0.493,0.076-0.954,0.229-1.383c0.154-0.427,0.375-0.799,0.662-1.116c0.287-0.316,0.641-0.566,1.055-0.749
			c0.416-0.182,0.883-0.272,1.398-0.272c0.436,0,0.834,0.072,1.201,0.215c0.363,0.143,0.682,0.35,0.945,0.619
			c0.27,0.271,0.477,0.604,0.627,1.002c0.152,0.396,0.229,0.849,0.229,1.355c0,0.211-0.022,0.354-0.069,0.424
			c-0.047,0.072-0.134,0.108-0.261,0.108h-4.661c0.014,0.425,0.073,0.795,0.182,1.108c0.106,0.314,0.257,0.578,0.445,0.789
			c0.188,0.209,0.414,0.365,0.676,0.469c0.263,0.104,0.554,0.152,0.875,0.152c0.304,0,0.563-0.033,0.787-0.104
			c0.222-0.069,0.412-0.146,0.573-0.229c0.16-0.082,0.298-0.155,0.406-0.228c0.108-0.071,0.205-0.104,0.291-0.104
			c0.11,0,0.196,0.043,0.258,0.127L214.441,60.864z M213.314,57.532c0-0.271-0.039-0.521-0.115-0.749
			c-0.078-0.229-0.191-0.428-0.34-0.596c-0.15-0.168-0.332-0.299-0.547-0.394c-0.215-0.094-0.461-0.142-0.742-0.142
			c-0.574,0-1.025,0.166-1.354,0.498c-0.33,0.33-0.539,0.791-0.627,1.379L213.314,57.532L213.314,57.532z"/>
		<path fill="#FFFFFF" d="M218.24,61.991c-0.572,0-1.016-0.161-1.326-0.483s-0.465-0.781-0.465-1.379v-4.256h-0.826
			c-0.08,0-0.146-0.023-0.199-0.073c-0.055-0.05-0.08-0.123-0.08-0.221v-0.554l1.154-0.16l0.309-2.121
			c0.02-0.079,0.055-0.143,0.107-0.186c0.055-0.045,0.123-0.066,0.207-0.066h0.693v2.387h2.016v0.994h-2.016v4.165
			c0,0.28,0.066,0.487,0.207,0.626c0.137,0.138,0.312,0.207,0.525,0.207c0.127,0,0.234-0.018,0.326-0.049
			c0.09-0.033,0.168-0.069,0.232-0.108c0.064-0.04,0.121-0.075,0.168-0.108c0.047-0.031,0.088-0.049,0.125-0.049
			c0.047,0,0.084,0.01,0.109,0.031s0.053,0.055,0.08,0.102l0.406,0.658c-0.225,0.205-0.49,0.363-0.799,0.478
			C218.893,61.936,218.572,61.991,218.24,61.991z"/>
		<path fill="#FFFFFF" d="M220.902,55.761c0.396-0.378,0.826-0.659,1.291-0.847s0.975-0.28,1.529-0.28
			c0.404,0,0.766,0.066,1.076,0.199c0.312,0.134,0.576,0.319,0.791,0.558c0.217,0.237,0.377,0.522,0.486,0.854
			c0.107,0.331,0.164,0.696,0.164,1.099v4.536h-0.609c-0.135,0-0.234-0.021-0.307-0.065c-0.071-0.043-0.127-0.127-0.168-0.248
			l-0.148-0.623c-0.182,0.168-0.359,0.314-0.537,0.443s-0.361,0.237-0.559,0.329c-0.191,0.093-0.396,0.159-0.619,0.206
			c-0.219,0.047-0.461,0.07-0.729,0.07c-0.279,0-0.543-0.039-0.789-0.116c-0.242-0.076-0.457-0.192-0.641-0.354
			c-0.182-0.158-0.324-0.355-0.43-0.596c-0.105-0.238-0.158-0.516-0.158-0.833c0-0.28,0.076-0.55,0.229-0.809
			c0.15-0.259,0.398-0.491,0.742-0.696c0.342-0.205,0.791-0.373,1.344-0.504c0.555-0.131,1.232-0.205,2.041-0.225v-0.52
			c0-0.535-0.113-0.938-0.344-1.204c-0.229-0.266-0.562-0.396-1.008-0.396c-0.299,0-0.549,0.036-0.752,0.11s-0.379,0.157-0.525,0.25
			c-0.146,0.09-0.273,0.174-0.385,0.248c-0.107,0.073-0.223,0.11-0.34,0.11c-0.094,0-0.174-0.024-0.242-0.077
			c-0.064-0.051-0.121-0.111-0.164-0.182L220.902,55.761z M224.906,58.723c-0.557,0.02-1.027,0.062-1.414,0.129
			c-0.389,0.067-0.703,0.157-0.945,0.271c-0.242,0.109-0.418,0.244-0.525,0.396c-0.105,0.151-0.16,0.319-0.16,0.508
			c0,0.178,0.027,0.33,0.088,0.459c0.059,0.127,0.139,0.231,0.236,0.313c0.104,0.081,0.219,0.142,0.354,0.179
			c0.137,0.039,0.283,0.058,0.44,0.058c0.211,0,0.401-0.021,0.578-0.063c0.174-0.041,0.34-0.102,0.491-0.179
			c0.154-0.076,0.302-0.171,0.441-0.283s0.276-0.239,0.413-0.385v-1.403H224.906z"/>
		<path fill="#FFFFFF" d="M105.284,65.827c0.644,0,1.204,0.073,1.68,0.224c0.476,0.151,0.871,0.36,1.183,0.635
			c0.312,0.271,0.545,0.604,0.696,0.989c0.152,0.388,0.228,0.816,0.228,1.288c0,0.473-0.082,0.904-0.245,1.299
			c-0.164,0.396-0.404,0.733-0.721,1.021c-0.317,0.282-0.713,0.505-1.187,0.659c-0.474,0.156-1.019,0.234-1.634,0.234h-1.554v3.703
			h-1.491V65.827H105.284z M105.284,71c0.378,0,0.71-0.049,0.998-0.146c0.287-0.099,0.527-0.235,0.721-0.416
			s0.339-0.396,0.438-0.646c0.098-0.249,0.147-0.524,0.147-0.829c0-0.611-0.19-1.092-0.57-1.441
			c-0.38-0.351-0.958-0.523-1.732-0.523h-1.554V71H105.284z"/>
		<path fill="#FFFFFF" d="M111.717,70.132c0.229-0.467,0.504-0.833,0.826-1.099c0.322-0.268,0.709-0.399,1.162-0.399
			c0.154,0,0.3,0.019,0.438,0.054s0.258,0.086,0.361,0.156l-0.091,1.029c-0.033,0.126-0.109,0.188-0.231,0.188
			c-0.065,0-0.164-0.013-0.294-0.037c-0.131-0.024-0.271-0.039-0.42-0.039c-0.219,0-0.413,0.031-0.581,0.096
			c-0.168,0.062-0.318,0.154-0.452,0.279c-0.133,0.123-0.251,0.274-0.354,0.455s-0.198,0.385-0.287,0.611v4.452h-1.365v-7.112h0.784
			c0.149,0,0.25,0.027,0.304,0.082c0.054,0.053,0.092,0.147,0.116,0.282L111.717,70.132z"/>
		<path fill="#FFFFFF" d="M117.247,66.568c0,0.127-0.026,0.246-0.077,0.361c-0.051,0.112-0.12,0.215-0.207,0.301
			s-0.188,0.152-0.304,0.203c-0.116,0.049-0.238,0.071-0.364,0.071s-0.245-0.022-0.357-0.071c-0.112-0.051-0.211-0.117-0.297-0.203
			s-0.154-0.188-0.203-0.301c-0.049-0.115-0.073-0.234-0.073-0.361c0-0.131,0.024-0.254,0.073-0.367
			c0.049-0.114,0.117-0.215,0.203-0.301s0.186-0.154,0.297-0.203c0.112-0.049,0.231-0.073,0.357-0.073s0.248,0.024,0.364,0.073
			c0.116,0.049,0.218,0.117,0.304,0.203s0.155,0.187,0.207,0.301C117.222,66.314,117.247,66.438,117.247,66.568z M116.988,68.768
			v7.111h-1.365v-7.111H116.988z"/>
		<path fill="#FFFFFF" d="M125.143,68.768l-2.884,7.111h-1.232l-2.884-7.111h1.127c0.107,0,0.196,0.025,0.266,0.076
			c0.07,0.053,0.117,0.117,0.14,0.196l1.701,4.368c0.061,0.182,0.113,0.361,0.157,0.542c0.044,0.18,0.085,0.358,0.123,0.536
			c0.037-0.178,0.079-0.355,0.126-0.532c0.047-0.179,0.103-0.358,0.168-0.546l1.722-4.368c0.028-0.079,0.077-0.146,0.147-0.196
			c0.07-0.051,0.154-0.076,0.252-0.076H125.143z"/>
		<path fill="#FFFFFF" d="M126.053,69.761c0.397-0.378,0.827-0.659,1.292-0.847c0.465-0.188,0.974-0.28,1.53-0.28
			c0.406,0,0.765,0.066,1.078,0.199c0.312,0.134,0.576,0.319,0.791,0.558c0.215,0.237,0.377,0.522,0.486,0.854
			c0.11,0.331,0.165,0.696,0.165,1.099v4.536h-0.609c-0.135,0-0.237-0.021-0.308-0.065c-0.071-0.043-0.126-0.127-0.168-0.248
			l-0.147-0.623c-0.182,0.168-0.361,0.314-0.539,0.443c-0.177,0.129-0.363,0.237-0.556,0.329c-0.194,0.093-0.4,0.159-0.62,0.206
			c-0.22,0.047-0.462,0.07-0.728,0.07c-0.28,0-0.542-0.039-0.788-0.116c-0.245-0.076-0.458-0.192-0.64-0.354
			c-0.182-0.157-0.326-0.355-0.431-0.596c-0.105-0.238-0.158-0.516-0.158-0.833c0-0.28,0.076-0.55,0.228-0.809
			c0.152-0.259,0.399-0.491,0.742-0.696c0.343-0.205,0.791-0.373,1.344-0.504c0.553-0.131,1.233-0.205,2.041-0.225v-0.52
			c0-0.535-0.114-0.938-0.343-1.203c-0.229-0.267-0.564-0.397-1.008-0.397c-0.299,0-0.55,0.036-0.752,0.11
			c-0.203,0.074-0.378,0.157-0.525,0.25c-0.147,0.09-0.275,0.174-0.385,0.248c-0.11,0.073-0.223,0.11-0.339,0.11
			c-0.094,0-0.174-0.024-0.242-0.077c-0.068-0.051-0.123-0.111-0.165-0.182L126.053,69.761z M130.057,72.723
			c-0.556,0.02-1.027,0.062-1.414,0.129c-0.388,0.067-0.703,0.157-0.945,0.271c-0.243,0.109-0.417,0.244-0.525,0.396
			c-0.108,0.151-0.161,0.319-0.161,0.508c0,0.178,0.029,0.33,0.088,0.459c0.058,0.127,0.137,0.231,0.238,0.313
			c0.1,0.081,0.218,0.142,0.354,0.179c0.135,0.039,0.282,0.058,0.441,0.058c0.21,0,0.402-0.021,0.578-0.063
			c0.175-0.041,0.339-0.102,0.493-0.179c0.154-0.076,0.301-0.171,0.441-0.282c0.14-0.113,0.277-0.24,0.413-0.386L130.057,72.723
			L130.057,72.723z"/>
		<path fill="#FFFFFF" d="M138.212,70.098c-0.042,0.051-0.083,0.092-0.123,0.123c-0.039,0.029-0.097,0.045-0.171,0.045
			c-0.075,0-0.153-0.029-0.235-0.088c-0.081-0.059-0.184-0.121-0.308-0.188c-0.124-0.067-0.272-0.133-0.448-0.188
			c-0.175-0.059-0.391-0.088-0.647-0.088c-0.336,0-0.632,0.062-0.889,0.183c-0.257,0.123-0.471,0.295-0.641,0.52
			s-0.3,0.497-0.389,0.818c-0.089,0.322-0.133,0.685-0.133,1.084c0,0.416,0.047,0.787,0.14,1.109
			c0.094,0.324,0.227,0.598,0.399,0.818s0.383,0.39,0.63,0.504c0.247,0.113,0.522,0.172,0.826,0.172
			c0.294,0,0.536-0.036,0.728-0.107c0.192-0.071,0.351-0.149,0.477-0.233c0.126-0.084,0.23-0.162,0.314-0.233
			c0.084-0.072,0.171-0.109,0.26-0.109c0.111,0,0.198,0.044,0.259,0.128l0.392,0.504c-0.163,0.198-0.347,0.371-0.549,0.511
			c-0.203,0.141-0.419,0.254-0.648,0.344s-0.468,0.153-0.717,0.195c-0.25,0.042-0.503,0.062-0.76,0.062
			c-0.443,0-0.857-0.08-1.242-0.244c-0.386-0.164-0.719-0.4-1.001-0.715c-0.282-0.312-0.506-0.695-0.669-1.15
			s-0.245-0.973-0.245-1.551c0-0.526,0.074-1.016,0.221-1.463s0.364-0.834,0.651-1.158c0.287-0.324,0.641-0.578,1.061-0.764
			s0.9-0.275,1.441-0.275c0.509,0,0.957,0.08,1.345,0.244c0.387,0.164,0.732,0.395,1.035,0.691L138.212,70.098z"/>
		<path fill="#FFFFFF" d="M141.614,66.568c0,0.127-0.026,0.246-0.077,0.361c-0.052,0.112-0.12,0.215-0.207,0.301
			c-0.086,0.086-0.188,0.152-0.305,0.203c-0.116,0.049-0.237,0.071-0.363,0.071s-0.245-0.022-0.357-0.071
			c-0.112-0.051-0.211-0.117-0.298-0.203c-0.086-0.086-0.153-0.188-0.202-0.301c-0.05-0.115-0.074-0.234-0.074-0.361
			c0-0.131,0.024-0.254,0.074-0.367c0.049-0.114,0.116-0.215,0.202-0.301c0.087-0.086,0.186-0.154,0.298-0.203
			c0.112-0.049,0.231-0.073,0.357-0.073s0.247,0.024,0.363,0.073c0.117,0.049,0.219,0.117,0.305,0.203
			c0.087,0.086,0.155,0.187,0.207,0.301C141.587,66.314,141.614,66.438,141.614,66.568z M141.354,68.768v7.111h-1.364v-7.111
			H141.354z"/>
		<path fill="#FFFFFF" d="M149.293,65.547v10.332h-0.826c-0.191,0-0.311-0.091-0.357-0.273l-0.117-0.816
			c-0.305,0.357-0.646,0.646-1.033,0.863c-0.385,0.218-0.828,0.324-1.332,0.324c-0.404,0-0.771-0.078-1.104-0.235
			c-0.328-0.159-0.608-0.394-0.844-0.697c-0.232-0.308-0.412-0.687-0.539-1.137c-0.125-0.453-0.188-0.976-0.188-1.562
			c0-0.527,0.067-1.019,0.209-1.471c0.141-0.453,0.344-0.846,0.608-1.176c0.267-0.332,0.588-0.594,0.967-0.781
			c0.377-0.188,0.806-0.283,1.279-0.283c0.43,0,0.795,0.07,1.096,0.211c0.302,0.141,0.57,0.34,0.81,0.596v-3.894L149.293,65.547
			L149.293,65.547z M147.92,70.489c-0.223-0.294-0.465-0.5-0.725-0.616c-0.258-0.117-0.549-0.175-0.871-0.175
			c-0.625,0-1.109,0.225-1.453,0.675c-0.342,0.451-0.514,1.107-0.514,1.971c0,0.453,0.039,0.84,0.115,1.158
			c0.076,0.32,0.188,0.581,0.336,0.784c0.146,0.202,0.326,0.353,0.543,0.448c0.215,0.095,0.457,0.144,0.729,0.144
			c0.396,0,0.738-0.089,1.029-0.267c0.289-0.178,0.559-0.428,0.811-0.748V70.489z"/>
		<path fill="#FFFFFF" d="M151.021,69.761c0.396-0.378,0.828-0.659,1.291-0.847c0.465-0.188,0.975-0.28,1.527-0.28
			c0.406,0,0.768,0.066,1.078,0.199c0.312,0.134,0.576,0.319,0.791,0.558c0.215,0.237,0.377,0.522,0.484,0.854
			c0.111,0.331,0.166,0.696,0.166,1.099v4.536h-0.607c-0.135,0-0.236-0.021-0.311-0.065c-0.069-0.043-0.125-0.127-0.168-0.248
			l-0.146-0.623c-0.183,0.168-0.36,0.314-0.539,0.443c-0.178,0.129-0.362,0.237-0.557,0.329c-0.193,0.093-0.4,0.159-0.619,0.206
			c-0.222,0.047-0.463,0.07-0.729,0.07c-0.277,0-0.543-0.039-0.787-0.116c-0.246-0.076-0.459-0.192-0.641-0.354
			c-0.182-0.157-0.326-0.355-0.43-0.596c-0.105-0.238-0.158-0.516-0.158-0.833c0-0.28,0.076-0.55,0.227-0.809
			c0.152-0.259,0.4-0.491,0.742-0.696c0.344-0.205,0.791-0.373,1.344-0.504c0.557-0.131,1.234-0.205,2.041-0.225v-0.52
			c0-0.535-0.111-0.938-0.342-1.203c-0.229-0.267-0.564-0.397-1.01-0.397c-0.299,0-0.549,0.036-0.752,0.11s-0.377,0.157-0.525,0.25
			c-0.146,0.09-0.273,0.174-0.385,0.248c-0.109,0.073-0.223,0.11-0.34,0.11c-0.092,0-0.174-0.024-0.24-0.077
			c-0.068-0.051-0.123-0.111-0.164-0.182L151.021,69.761z M155.025,72.723c-0.555,0.02-1.027,0.062-1.414,0.129
			c-0.387,0.068-0.701,0.157-0.945,0.271c-0.242,0.109-0.418,0.244-0.523,0.396c-0.105,0.15-0.162,0.319-0.162,0.508
			c0,0.178,0.029,0.33,0.088,0.459c0.061,0.127,0.139,0.231,0.238,0.313c0.102,0.081,0.217,0.142,0.354,0.179
			c0.135,0.039,0.28,0.058,0.44,0.058c0.209,0,0.401-0.021,0.575-0.063c0.177-0.041,0.341-0.102,0.494-0.179
			c0.154-0.076,0.302-0.171,0.44-0.282c0.14-0.113,0.277-0.24,0.412-0.386v-1.403H155.025z"/>
		<path fill="#FFFFFF" d="M164.154,65.547v10.332h-0.826c-0.191,0-0.311-0.091-0.357-0.273l-0.119-0.816
			c-0.303,0.357-0.646,0.646-1.033,0.863c-0.385,0.218-0.826,0.324-1.332,0.324c-0.404,0-0.771-0.078-1.104-0.235
			c-0.328-0.159-0.609-0.394-0.844-0.697c-0.232-0.308-0.412-0.687-0.539-1.137c-0.125-0.453-0.188-0.976-0.188-1.562
			c0-0.527,0.066-1.019,0.209-1.471c0.141-0.453,0.344-0.846,0.607-1.176c0.268-0.332,0.588-0.594,0.969-0.781
			c0.377-0.188,0.805-0.283,1.277-0.283c0.432,0,0.795,0.07,1.098,0.211c0.301,0.141,0.568,0.34,0.809,0.596v-3.894L164.154,65.547
			L164.154,65.547z M162.781,70.489c-0.223-0.294-0.465-0.5-0.725-0.616c-0.26-0.117-0.551-0.175-0.871-0.175
			c-0.625,0-1.109,0.225-1.453,0.675c-0.342,0.451-0.516,1.107-0.516,1.971c0,0.453,0.039,0.84,0.115,1.158
			c0.078,0.32,0.188,0.581,0.336,0.784c0.146,0.202,0.328,0.353,0.543,0.448c0.215,0.095,0.457,0.144,0.729,0.144
			c0.396,0,0.738-0.089,1.029-0.267c0.288-0.178,0.559-0.428,0.811-0.748v-3.374H162.781z"/>
		<path fill="#FFFFFF" d="M171.902,74.864c-0.168,0.194-0.361,0.364-0.582,0.507c-0.219,0.143-0.451,0.258-0.699,0.347
			s-0.504,0.154-0.768,0.196c-0.266,0.042-0.523,0.062-0.779,0.062c-0.49,0-0.943-0.084-1.361-0.248
			c-0.418-0.166-0.779-0.408-1.086-0.729c-0.305-0.319-0.543-0.716-0.713-1.188c-0.172-0.475-0.256-1.02-0.256-1.636
			c0-0.493,0.076-0.954,0.23-1.383c0.152-0.427,0.375-0.799,0.66-1.116c0.287-0.316,0.641-0.566,1.055-0.749
			c0.416-0.182,0.883-0.272,1.398-0.272c0.436,0,0.834,0.072,1.201,0.215c0.363,0.143,0.682,0.35,0.945,0.619
			c0.27,0.271,0.477,0.604,0.627,1c0.152,0.397,0.229,0.851,0.229,1.357c0,0.211-0.022,0.354-0.069,0.424
			c-0.047,0.072-0.133,0.108-0.261,0.108h-4.661c0.014,0.425,0.073,0.795,0.182,1.108c0.107,0.314,0.257,0.578,0.445,0.789
			c0.188,0.209,0.414,0.365,0.676,0.469c0.263,0.104,0.554,0.152,0.875,0.152c0.304,0,0.563-0.033,0.787-0.104
			c0.222-0.069,0.412-0.146,0.574-0.229c0.159-0.082,0.297-0.155,0.405-0.228c0.108-0.071,0.205-0.104,0.291-0.104
			c0.11,0,0.196,0.043,0.258,0.127L171.902,74.864z M170.775,71.532c0-0.271-0.039-0.521-0.115-0.749
			c-0.078-0.229-0.191-0.428-0.34-0.596c-0.15-0.168-0.332-0.299-0.547-0.394c-0.215-0.094-0.461-0.142-0.742-0.142
			c-0.574,0-1.025,0.166-1.354,0.498c-0.329,0.33-0.538,0.791-0.627,1.379L170.775,71.532L170.775,71.532z"/>
		<path fill="#FFFFFF" d="M185.496,70.986v3.92c-0.508,0.363-1.051,0.636-1.623,0.814c-0.574,0.18-1.201,0.271-1.877,0.271
			c-0.812,0-1.545-0.126-2.201-0.378s-1.215-0.604-1.676-1.059c-0.463-0.451-0.818-0.994-1.068-1.623
			c-0.25-0.632-0.375-1.322-0.375-2.08c0-0.761,0.121-1.457,0.361-2.088c0.24-0.635,0.584-1.176,1.031-1.625
			c0.449-0.449,0.992-0.802,1.629-1.051c0.637-0.25,1.352-0.375,2.145-0.375c0.402,0,0.773,0.03,1.117,0.092
			c0.342,0.062,0.662,0.146,0.955,0.26c0.295,0.11,0.566,0.246,0.816,0.401c0.248,0.156,0.479,0.332,0.693,0.528L185,67.668
			c-0.066,0.107-0.152,0.175-0.26,0.203c-0.107,0.027-0.225,0.002-0.35-0.077c-0.121-0.069-0.258-0.151-0.402-0.245
			c-0.148-0.093-0.322-0.18-0.525-0.259s-0.439-0.147-0.711-0.203c-0.27-0.056-0.59-0.084-0.959-0.084
			c-0.551,0-1.047,0.09-1.49,0.271s-0.822,0.438-1.135,0.772s-0.553,0.741-0.721,1.215s-0.252,1.005-0.252,1.593
			c0,0.615,0.088,1.168,0.266,1.655s0.428,0.9,0.752,1.238c0.324,0.339,0.719,0.597,1.184,0.772
			c0.465,0.179,0.984,0.268,1.561,0.268c0.225,0,0.434-0.014,0.625-0.039s0.379-0.062,0.559-0.107
			c0.178-0.047,0.35-0.104,0.516-0.176c0.164-0.07,0.33-0.146,0.492-0.23v-2.105h-1.482c-0.094,0-0.17-0.027-0.229-0.084
			c-0.061-0.057-0.088-0.126-0.088-0.21v-0.849H185.496L185.496,70.986z"/>
		<path fill="#FFFFFF" d="M187.043,69.761c0.396-0.378,0.828-0.659,1.291-0.847c0.465-0.188,0.975-0.28,1.529-0.28
			c0.406,0,0.766,0.066,1.078,0.199c0.312,0.134,0.576,0.319,0.791,0.558c0.215,0.237,0.377,0.522,0.484,0.854
			c0.111,0.331,0.166,0.696,0.166,1.099v4.536h-0.607c-0.135,0-0.238-0.021-0.311-0.065c-0.07-0.043-0.125-0.127-0.168-0.248
			l-0.146-0.623c-0.182,0.168-0.36,0.314-0.539,0.443c-0.178,0.129-0.362,0.237-0.557,0.329c-0.193,0.093-0.4,0.159-0.619,0.206
			c-0.222,0.047-0.463,0.07-0.729,0.07c-0.277,0-0.543-0.039-0.787-0.116c-0.246-0.076-0.459-0.192-0.643-0.354
			c-0.182-0.157-0.324-0.355-0.43-0.596c-0.104-0.238-0.158-0.516-0.158-0.833c0-0.28,0.076-0.55,0.229-0.809
			s0.398-0.491,0.742-0.696s0.791-0.373,1.344-0.504c0.557-0.131,1.232-0.205,2.041-0.225v-0.52c0-0.535-0.111-0.938-0.342-1.203
			c-0.23-0.267-0.564-0.397-1.012-0.397c-0.299,0-0.549,0.036-0.752,0.11s-0.377,0.157-0.523,0.25
			c-0.146,0.09-0.273,0.174-0.385,0.248c-0.109,0.073-0.225,0.11-0.342,0.11c-0.092,0-0.174-0.024-0.238-0.077
			c-0.068-0.051-0.123-0.111-0.164-0.182L187.043,69.761z M191.047,72.723c-0.555,0.02-1.027,0.062-1.414,0.129
			c-0.387,0.068-0.701,0.157-0.945,0.271c-0.242,0.109-0.418,0.244-0.521,0.396c-0.105,0.15-0.162,0.319-0.162,0.508
			c0,0.178,0.029,0.33,0.088,0.459c0.061,0.127,0.139,0.231,0.238,0.313c0.102,0.081,0.217,0.142,0.354,0.179
			c0.135,0.039,0.28,0.058,0.44,0.058c0.209,0,0.401-0.021,0.576-0.063c0.176-0.041,0.34-0.102,0.493-0.179
			c0.154-0.076,0.302-0.171,0.44-0.282c0.14-0.113,0.277-0.24,0.412-0.386L191.047,72.723L191.047,72.723z"/>
		<path fill="#FFFFFF" d="M195.506,70.132c0.229-0.467,0.504-0.833,0.826-1.099c0.322-0.268,0.709-0.399,1.162-0.399
			c0.154,0,0.301,0.019,0.438,0.054c0.139,0.035,0.258,0.086,0.361,0.156l-0.092,1.029c-0.033,0.126-0.109,0.188-0.23,0.188
			c-0.066,0-0.164-0.013-0.295-0.037s-0.27-0.039-0.42-0.039c-0.219,0-0.412,0.031-0.58,0.096s-0.318,0.154-0.451,0.279
			c-0.135,0.123-0.252,0.274-0.354,0.455c-0.104,0.181-0.199,0.385-0.287,0.611v4.452h-1.365v-7.112h0.783
			c0.15,0,0.252,0.027,0.305,0.082c0.055,0.053,0.092,0.147,0.115,0.282L195.506,70.132z"/>
		<path fill="#FFFFFF" d="M199.168,69.761c0.396-0.378,0.826-0.659,1.291-0.847s0.975-0.28,1.529-0.28
			c0.406,0,0.766,0.066,1.078,0.199c0.312,0.134,0.576,0.319,0.791,0.558c0.215,0.237,0.377,0.522,0.484,0.854
			c0.109,0.331,0.164,0.696,0.164,1.099v4.536h-0.607c-0.135,0-0.236-0.021-0.309-0.065c-0.07-0.043-0.127-0.127-0.168-0.248
			l-0.146-0.623c-0.184,0.168-0.361,0.314-0.539,0.443c-0.176,0.129-0.361,0.237-0.557,0.329c-0.193,0.093-0.398,0.159-0.619,0.206
			s-0.461,0.07-0.729,0.07c-0.281,0-0.543-0.039-0.789-0.116c-0.244-0.076-0.457-0.192-0.643-0.354
			c-0.182-0.157-0.322-0.355-0.43-0.596c-0.104-0.238-0.158-0.516-0.158-0.833c0-0.28,0.076-0.55,0.229-0.809
			c0.149-0.259,0.397-0.491,0.742-0.696c0.342-0.205,0.791-0.373,1.344-0.504c0.554-0.131,1.231-0.205,2.041-0.225v-0.52
			c0-0.535-0.114-0.938-0.344-1.203c-0.229-0.267-0.563-0.397-1.009-0.397c-0.299,0-0.549,0.036-0.752,0.11s-0.379,0.157-0.524,0.25
			c-0.146,0.09-0.274,0.174-0.386,0.248c-0.108,0.073-0.223,0.11-0.34,0.11c-0.094,0-0.174-0.024-0.241-0.077
			c-0.066-0.051-0.121-0.111-0.164-0.182L199.168,69.761z M203.172,72.723c-0.557,0.02-1.027,0.062-1.414,0.129
			c-0.389,0.067-0.703,0.157-0.945,0.271c-0.242,0.109-0.418,0.244-0.523,0.396c-0.105,0.151-0.16,0.319-0.16,0.508
			c0,0.178,0.025,0.33,0.086,0.459c0.061,0.127,0.141,0.231,0.238,0.313c0.104,0.081,0.219,0.142,0.354,0.179
			c0.137,0.039,0.282,0.058,0.44,0.058c0.211,0,0.401-0.021,0.578-0.063c0.174-0.041,0.34-0.102,0.491-0.179
			c0.154-0.076,0.302-0.171,0.44-0.282c0.142-0.113,0.277-0.24,0.414-0.386L203.172,72.723L203.172,72.723z"/>
		<path fill="#FFFFFF" d="M207.623,69.754c0.152-0.163,0.314-0.312,0.482-0.447c0.168-0.136,0.346-0.252,0.535-0.348
			c0.188-0.095,0.393-0.17,0.607-0.225c0.216-0.053,0.449-0.08,0.695-0.08c0.393,0,0.734,0.066,1.031,0.195
			c0.297,0.131,0.545,0.313,0.746,0.551c0.201,0.234,0.354,0.52,0.455,0.851s0.154,0.697,0.154,1.099v4.529h-1.373V71.35
			c0-0.508-0.117-0.901-0.35-1.187c-0.234-0.282-0.59-0.423-1.07-0.423c-0.352,0-0.678,0.083-0.984,0.248
			c-0.305,0.166-0.59,0.391-0.85,0.676v5.215h-1.365v-7.111h0.818c0.191,0,0.311,0.09,0.357,0.272L207.623,69.754z"/>
		<path fill="#FFFFFF" d="M220.916,75.879h-1.373v-6.006h-3.57v4.165c0,0.28,0.07,0.487,0.207,0.626
			c0.139,0.138,0.314,0.207,0.529,0.207c0.125,0,0.234-0.018,0.324-0.049c0.092-0.033,0.17-0.069,0.234-0.108
			c0.064-0.04,0.121-0.075,0.168-0.108c0.047-0.031,0.09-0.049,0.127-0.049c0.047,0,0.082,0.01,0.105,0.031
			c0.025,0.021,0.055,0.055,0.082,0.102l0.406,0.658c-0.227,0.205-0.49,0.363-0.801,0.478c-0.309,0.11-0.627,0.168-0.959,0.168
			c-0.572,0-1.016-0.161-1.324-0.483c-0.311-0.32-0.469-0.779-0.469-1.379v-4.256h-0.822c-0.08,0-0.146-0.023-0.201-0.073
			s-0.08-0.122-0.08-0.221v-0.554l1.162-0.16l0.301-2.121c0.021-0.079,0.057-0.143,0.107-0.188c0.055-0.045,0.123-0.064,0.207-0.064
			h0.691v2.387h4.943v6.999L220.916,75.879L220.916,75.879z M221.223,66.527c0,0.125-0.023,0.246-0.076,0.358
			c-0.051,0.114-0.121,0.216-0.207,0.302s-0.188,0.153-0.305,0.203c-0.115,0.049-0.238,0.072-0.363,0.072
			c-0.127,0-0.246-0.023-0.355-0.072c-0.109-0.05-0.211-0.117-0.297-0.203s-0.154-0.188-0.203-0.302
			c-0.049-0.112-0.074-0.233-0.074-0.358c0-0.131,0.025-0.256,0.074-0.371c0.049-0.117,0.117-0.219,0.203-0.305
			c0.086-0.088,0.188-0.154,0.297-0.203s0.229-0.073,0.355-0.073c0.125,0,0.248,0.024,0.363,0.073
			c0.117,0.049,0.219,0.115,0.305,0.203c0.086,0.086,0.156,0.188,0.207,0.305C221.197,66.271,221.223,66.396,221.223,66.527z"/>
		<path fill="#FFFFFF" d="M228.854,65.547v10.332h-0.826c-0.189,0-0.311-0.091-0.355-0.273l-0.119-0.816
			c-0.303,0.357-0.646,0.646-1.031,0.863c-0.387,0.218-0.828,0.324-1.332,0.324c-0.406,0-0.773-0.078-1.104-0.235
			c-0.328-0.159-0.608-0.394-0.845-0.697c-0.231-0.308-0.411-0.687-0.538-1.137c-0.125-0.453-0.188-0.976-0.188-1.562
			c0-0.527,0.068-1.019,0.209-1.471c0.141-0.453,0.344-0.846,0.609-1.176c0.266-0.332,0.588-0.594,0.967-0.781
			c0.377-0.188,0.805-0.283,1.279-0.283c0.43,0,0.795,0.07,1.096,0.211s0.57,0.34,0.809,0.596v-3.894L228.854,65.547L228.854,65.547
			z M227.48,70.489c-0.225-0.294-0.465-0.5-0.727-0.616c-0.258-0.117-0.549-0.175-0.871-0.175c-0.625,0-1.107,0.225-1.451,0.675
			c-0.344,0.451-0.516,1.107-0.516,1.971c0,0.453,0.039,0.84,0.115,1.158c0.076,0.32,0.188,0.581,0.336,0.784
			c0.146,0.202,0.326,0.353,0.543,0.448c0.215,0.095,0.457,0.144,0.729,0.144c0.396,0,0.737-0.089,1.028-0.267
			c0.289-0.178,0.56-0.428,0.812-0.748v-3.374H227.48z"/>
		<path fill="#FFFFFF" d="M230.582,69.761c0.396-0.378,0.828-0.659,1.291-0.847c0.465-0.188,0.975-0.28,1.529-0.28
			c0.406,0,0.766,0.066,1.078,0.199c0.312,0.134,0.576,0.319,0.791,0.558c0.215,0.237,0.377,0.522,0.484,0.854
			c0.111,0.331,0.166,0.696,0.166,1.099v4.536h-0.607c-0.135,0-0.238-0.021-0.311-0.065c-0.07-0.043-0.125-0.127-0.168-0.248
			l-0.146-0.623c-0.183,0.168-0.36,0.314-0.539,0.443c-0.178,0.129-0.362,0.237-0.557,0.329c-0.193,0.093-0.4,0.159-0.619,0.206
			c-0.222,0.047-0.463,0.07-0.729,0.07c-0.279,0-0.543-0.039-0.787-0.116c-0.246-0.076-0.459-0.192-0.643-0.354
			c-0.182-0.157-0.324-0.355-0.43-0.596c-0.104-0.238-0.158-0.516-0.158-0.833c0-0.28,0.076-0.55,0.229-0.809
			s0.398-0.491,0.742-0.696s0.791-0.373,1.344-0.504c0.557-0.131,1.232-0.205,2.041-0.225v-0.52c0-0.535-0.111-0.938-0.342-1.203
			c-0.23-0.267-0.566-0.397-1.012-0.397c-0.299,0-0.549,0.036-0.752,0.11s-0.377,0.157-0.523,0.25
			c-0.146,0.09-0.273,0.174-0.387,0.248c-0.107,0.073-0.223,0.11-0.34,0.11c-0.092,0-0.174-0.024-0.238-0.077
			c-0.068-0.051-0.123-0.111-0.164-0.182L230.582,69.761z M234.586,72.723c-0.555,0.02-1.027,0.062-1.414,0.129
			c-0.387,0.068-0.701,0.157-0.945,0.271c-0.242,0.109-0.418,0.244-0.521,0.396c-0.105,0.15-0.162,0.319-0.162,0.508
			c0,0.178,0.027,0.33,0.088,0.459c0.061,0.127,0.139,0.231,0.238,0.313c0.1,0.081,0.217,0.142,0.354,0.179
			c0.135,0.039,0.28,0.058,0.44,0.058c0.209,0,0.401-0.021,0.575-0.063c0.177-0.041,0.341-0.102,0.494-0.179
			c0.154-0.076,0.302-0.171,0.44-0.282c0.14-0.113,0.277-0.24,0.412-0.386L234.586,72.723L234.586,72.723z"/>
	</g>
	<path fill="#FFFFFF" d="M50.5,24.5l-30,8v36l30,8l30-8v-36L50.5,24.5z M24.492,65.559L24.469,38.5L48.5,44.908v27.053
		L24.492,65.559z M24.469,34.5l10.016-2.671L60.5,38.767v0.008l-10,2.667L24.469,34.5z M76.508,65.559L52.5,71.961V44.908l8-2.133
		v9.75l8-2.133v-9.75l8.031-2.142L76.508,65.559z M68.5,36.642v-0.008l-26.017-6.938l8.017-2.138L76.531,34.5L68.5,36.642z"/>
</g>
</svg>
