<?xml version="1.0" encoding="utf-8"?>
<!-- Generator: Adobe Illustrator 15.0.0, SVG Export Plug-In . SVG Version: 6.00 Build 0)  -->
<!DOCTYPE svg PUBLIC "-//W3C//DTD SVG 1.1//EN" "http://www.w3.org/Graphics/SVG/1.1/DTD/svg11.dtd">
<svg version="1.1" xmlns="http://www.w3.org/2000/svg" xmlns:xlink="http://www.w3.org/1999/xlink" x="0px" y="0px" width="285px"
	 height="101px" viewBox="0 0 285 101" enable-background="new 0 0 285 101" xml:space="preserve">
<g id="Layer_1">
	<g>
		<rect fill="#D2D3D2" width="285" height="101"/>
		<rect x="1" y="1" fill="#FFFFFF" width="283" height="99"/>
	</g>
</g>
<g id="Layer_2" display="none">
	<rect display="inline" fill="#D2D3D2" width="101" height="101"/>
</g>
<g id="Layer_3">
	<g>
		<path fill="#B9519F" d="M116.895,33.124c0,1.166-0.194,2.237-0.583,3.212c-0.389,0.976-0.935,1.815-1.639,2.519
			c-0.704,0.704-1.551,1.25-2.541,1.639c-0.99,0.389-2.09,0.583-3.3,0.583h-6.061V25.171h6.061c1.21,0,2.31,0.196,3.3,0.588
			c0.99,0.392,1.837,0.938,2.541,1.639c0.704,0.701,1.25,1.539,1.639,2.514C116.701,30.888,116.895,31.958,116.895,33.124z
			 M113.859,33.124c0-0.873-0.115-1.655-0.346-2.348c-0.231-0.693-0.565-1.28-1.001-1.76c-0.437-0.48-0.965-0.849-1.584-1.105
			c-0.62-0.257-1.318-0.385-2.096-0.385h-3.091v11.198h3.091c0.777,0,1.476-0.128,2.096-0.385c0.619-0.257,1.147-0.625,1.584-1.106
			c0.436-0.48,0.77-1.067,1.001-1.76S113.859,33.997,113.859,33.124z"/>
		<path fill="#B9519F" d="M122.472,41.077h-2.97V25.171h2.97V41.077z"/>
		<path fill="#B9519F" d="M134.495,28.064c-0.088,0.154-0.182,0.266-0.28,0.335c-0.1,0.07-0.223,0.104-0.369,0.104
			c-0.153,0-0.32-0.057-0.5-0.17c-0.18-0.113-0.395-0.24-0.644-0.379c-0.25-0.139-0.541-0.266-0.875-0.379s-0.728-0.17-1.183-0.17
			c-0.41,0-0.77,0.049-1.077,0.148c-0.309,0.099-0.567,0.236-0.776,0.413c-0.209,0.176-0.364,0.387-0.467,0.632
			c-0.104,0.246-0.154,0.515-0.154,0.809c0,0.374,0.104,0.686,0.313,0.935c0.209,0.249,0.485,0.462,0.83,0.638
			c0.345,0.176,0.737,0.334,1.178,0.473c0.439,0.139,0.891,0.288,1.353,0.445c0.462,0.158,0.913,0.341,1.354,0.55
			c0.439,0.209,0.832,0.473,1.177,0.792c0.345,0.319,0.621,0.709,0.83,1.171s0.313,1.023,0.313,1.683
			c0,0.719-0.123,1.392-0.368,2.019c-0.246,0.627-0.605,1.173-1.078,1.639c-0.473,0.466-1.051,0.833-1.732,1.1
			s-1.463,0.401-2.343,0.401c-0.506,0-1.005-0.049-1.496-0.148c-0.491-0.099-0.963-0.24-1.414-0.423
			c-0.45-0.183-0.874-0.403-1.271-0.66c-0.396-0.256-0.747-0.542-1.056-0.858l0.869-1.419c0.073-0.103,0.169-0.188,0.286-0.258
			s0.242-0.104,0.374-0.104c0.183,0,0.381,0.075,0.594,0.225c0.213,0.15,0.466,0.317,0.759,0.5c0.294,0.184,0.637,0.351,1.028,0.5
			c0.393,0.15,0.864,0.226,1.414,0.226c0.843,0,1.496-0.2,1.958-0.599c0.462-0.4,0.693-0.974,0.693-1.722
			c0-0.418-0.104-0.759-0.313-1.023c-0.209-0.264-0.486-0.486-0.831-0.666s-0.737-0.332-1.177-0.457
			c-0.44-0.125-0.888-0.26-1.342-0.407c-0.455-0.146-0.902-0.322-1.343-0.528c-0.439-0.205-0.832-0.473-1.177-0.803
			c-0.345-0.33-0.621-0.742-0.83-1.237s-0.313-1.105-0.313-1.832c0-0.579,0.115-1.144,0.347-1.694
			c0.23-0.55,0.566-1.038,1.006-1.463c0.44-0.425,0.982-0.767,1.628-1.023c0.646-0.257,1.387-0.385,2.223-0.385
			c0.938,0,1.804,0.147,2.596,0.44c0.792,0.293,1.467,0.704,2.023,1.232L134.495,28.064z"/>
		<path fill="#B9519F" d="M149.016,37.326c0.16,0,0.303,0.062,0.428,0.187l1.166,1.265c-0.645,0.799-1.439,1.412-2.381,1.837
			c-0.943,0.425-2.074,0.638-3.395,0.638c-1.18,0-2.242-0.201-3.184-0.605c-0.942-0.403-1.747-0.964-2.414-1.683
			s-1.179-1.577-1.534-2.574c-0.356-0.997-0.534-2.086-0.534-3.267c0-1.195,0.191-2.29,0.572-3.283s0.919-1.85,1.611-2.569
			c0.693-0.718,1.52-1.277,2.48-1.677s2.024-0.6,3.19-0.6c1.158,0,2.188,0.191,3.086,0.572s1.662,0.88,2.293,1.496l-0.99,1.375
			c-0.059,0.088-0.133,0.165-0.225,0.231c-0.092,0.066-0.219,0.099-0.379,0.099c-0.111,0-0.225-0.031-0.342-0.093
			c-0.117-0.062-0.246-0.139-0.385-0.231c-0.141-0.092-0.301-0.193-0.484-0.303s-0.396-0.21-0.639-0.302s-0.521-0.169-0.84-0.231
			c-0.32-0.062-0.688-0.093-1.105-0.093c-0.713,0-1.363,0.126-1.953,0.379c-0.59,0.253-1.098,0.62-1.524,1.1
			c-0.425,0.48-0.755,1.067-0.99,1.76c-0.234,0.693-0.352,1.483-0.352,2.371c0,0.895,0.126,1.69,0.38,2.387
			c0.253,0.697,0.596,1.283,1.028,1.76c0.433,0.477,0.942,0.842,1.528,1.095c0.588,0.253,1.219,0.379,1.893,0.379
			c0.404,0,0.768-0.022,1.096-0.066c0.326-0.044,0.627-0.114,0.9-0.209c0.275-0.095,0.535-0.218,0.781-0.369
			c0.246-0.15,0.49-0.335,0.732-0.555c0.072-0.066,0.15-0.119,0.23-0.16S148.928,37.326,149.016,37.326z"/>
		<path fill="#B9519F" d="M165.064,41.077h-2.674c-0.506,0-0.873-0.198-1.1-0.594l-3.344-5.093c-0.125-0.19-0.264-0.326-0.414-0.407
			c-0.15-0.081-0.371-0.121-0.664-0.121h-1.266v6.215h-2.959V25.171h4.852c1.078,0,2.004,0.112,2.777,0.335s1.408,0.537,1.902,0.94
			c0.496,0.403,0.859,0.885,1.096,1.446c0.234,0.561,0.352,1.179,0.352,1.854c0,0.536-0.08,1.042-0.236,1.518
			c-0.158,0.477-0.385,0.909-0.684,1.298c-0.297,0.389-0.662,0.73-1.1,1.023c-0.436,0.293-0.934,0.524-1.49,0.693
			c0.191,0.11,0.367,0.24,0.527,0.39c0.162,0.15,0.309,0.329,0.441,0.534L165.064,41.077z M157.451,32.739
			c0.557,0,1.043-0.07,1.457-0.209c0.416-0.139,0.756-0.332,1.023-0.578s0.469-0.537,0.6-0.875c0.133-0.337,0.199-0.708,0.199-1.111
			c0-0.807-0.268-1.426-0.799-1.859c-0.531-0.432-1.344-0.649-2.436-0.649h-1.893v5.28H157.451z"/>
		<path fill="#B9519F" d="M169.76,41.077h-2.969V25.171h2.969V41.077z"/>
		<path fill="#B9519F" d="M185.832,38.778c-0.58,0.726-1.283,1.296-2.113,1.71c-0.828,0.414-1.807,0.662-2.936,0.742l-0.145,0.517
			c0.689,0.161,1.174,0.379,1.453,0.655c0.277,0.275,0.418,0.603,0.418,0.984c0,0.249-0.064,0.473-0.193,0.671
			c-0.127,0.198-0.311,0.367-0.549,0.506s-0.523,0.246-0.854,0.319c-0.33,0.073-0.693,0.11-1.088,0.11
			c-0.301,0-0.582-0.021-0.842-0.061c-0.262-0.041-0.52-0.101-0.775-0.182l0.252-0.847c0.045-0.169,0.15-0.253,0.32-0.253
			c0.102,0,0.213,0.027,0.334,0.083c0.121,0.055,0.299,0.082,0.535,0.082c0.24,0,0.422-0.046,0.543-0.137
			c0.121-0.092,0.182-0.204,0.182-0.335c0-0.213-0.131-0.365-0.396-0.457c-0.264-0.092-0.67-0.178-1.221-0.259l0.484-1.408
			c-1.057-0.095-2.008-0.361-2.854-0.797c-0.848-0.437-1.568-1.01-2.162-1.722s-1.049-1.54-1.363-2.486
			c-0.316-0.946-0.475-1.977-0.475-3.091c0-1.195,0.191-2.29,0.572-3.283s0.92-1.85,1.611-2.569c0.693-0.718,1.52-1.277,2.48-1.677
			s2.025-0.6,3.191-0.6c1.158,0,2.186,0.191,3.084,0.572s1.664,0.88,2.295,1.496l-0.99,1.375c-0.059,0.088-0.135,0.165-0.227,0.231
			c-0.092,0.066-0.217,0.099-0.379,0.099c-0.109,0-0.225-0.031-0.342-0.093c-0.117-0.062-0.244-0.139-0.385-0.231
			c-0.139-0.092-0.301-0.193-0.482-0.303c-0.184-0.11-0.396-0.21-0.639-0.302s-0.523-0.169-0.842-0.231
			c-0.318-0.062-0.688-0.093-1.105-0.093c-0.711,0-1.361,0.126-1.953,0.379c-0.59,0.253-1.098,0.62-1.523,1.1
			c-0.424,0.48-0.754,1.067-0.99,1.76c-0.234,0.693-0.352,1.483-0.352,2.371c0,0.895,0.127,1.69,0.381,2.387
			c0.252,0.697,0.596,1.283,1.027,1.76c0.434,0.477,0.943,0.842,1.529,1.095s1.217,0.379,1.893,0.379
			c0.402,0,0.768-0.022,1.094-0.066s0.627-0.114,0.902-0.209s0.535-0.218,0.781-0.369c0.244-0.15,0.488-0.335,0.73-0.555
			c0.074-0.066,0.15-0.119,0.232-0.16c0.08-0.041,0.164-0.061,0.252-0.061c0.162,0,0.305,0.062,0.43,0.187L185.832,38.778z"/>
		<path fill="#B9519F" d="M201.496,41.077h-2.289c-0.256,0-0.465-0.064-0.627-0.192s-0.283-0.288-0.363-0.479l-1.188-3.245h-6.59
			l-1.188,3.245c-0.059,0.168-0.172,0.323-0.34,0.462c-0.17,0.139-0.379,0.209-0.627,0.209h-2.311l6.258-15.906h3.016
			L201.496,41.077z M195.104,22.388c0.162,0,0.303-0.033,0.424-0.099s0.221-0.148,0.297-0.248c0.078-0.099,0.135-0.209,0.172-0.33
			c0.035-0.121,0.055-0.24,0.055-0.357h1.66c0,0.367-0.049,0.717-0.148,1.051c-0.1,0.333-0.246,0.631-0.439,0.891
			c-0.195,0.261-0.434,0.468-0.715,0.622c-0.283,0.154-0.607,0.231-0.975,0.231c-0.373,0-0.697-0.059-0.973-0.176
			s-0.527-0.244-0.754-0.379s-0.434-0.262-0.621-0.379c-0.188-0.118-0.379-0.176-0.578-0.176c-0.168,0-0.311,0.033-0.428,0.099
			c-0.119,0.066-0.213,0.15-0.287,0.253c-0.072,0.103-0.129,0.216-0.164,0.341c-0.037,0.125-0.057,0.246-0.057,0.363h-1.682
			c0-0.359,0.051-0.709,0.154-1.051c0.102-0.341,0.25-0.642,0.445-0.902c0.193-0.26,0.432-0.469,0.715-0.627
			c0.281-0.158,0.605-0.236,0.973-0.236c0.375,0,0.701,0.059,0.979,0.176c0.279,0.117,0.529,0.244,0.748,0.379
			c0.221,0.136,0.426,0.262,0.617,0.379C194.711,22.33,194.906,22.388,195.104,22.388z M196.27,35.071l-1.936-5.291
			c-0.096-0.235-0.193-0.513-0.297-0.836s-0.205-0.671-0.309-1.045c-0.094,0.374-0.193,0.725-0.297,1.051
			c-0.102,0.326-0.201,0.61-0.297,0.853l-1.924,5.269H196.27z"/>
		<path fill="#B9519F" d="M218.314,33.124c0,1.166-0.193,2.246-0.578,3.24s-0.93,1.854-1.635,2.58
			c-0.703,0.726-1.551,1.292-2.539,1.699c-0.99,0.407-2.092,0.61-3.301,0.61c-1.203,0-2.299-0.203-3.289-0.61
			c-0.99-0.407-1.84-0.974-2.547-1.699c-0.707-0.726-1.256-1.586-1.645-2.58s-0.582-2.074-0.582-3.24s0.193-2.246,0.582-3.239
			s0.938-1.854,1.645-2.58s1.557-1.292,2.547-1.7c0.99-0.407,2.086-0.61,3.289-0.61c0.807,0,1.564,0.094,2.277,0.281
			c0.711,0.187,1.363,0.451,1.957,0.792c0.594,0.341,1.129,0.755,1.602,1.243c0.473,0.488,0.873,1.032,1.203,1.634
			c0.33,0.601,0.582,1.254,0.754,1.958C218.227,31.606,218.314,32.347,218.314,33.124z M215.289,33.124
			c0-0.873-0.117-1.655-0.352-2.348c-0.236-0.693-0.57-1.282-1.002-1.766c-0.434-0.484-0.959-0.854-1.578-1.111
			c-0.621-0.256-1.318-0.385-2.096-0.385s-1.477,0.128-2.096,0.385c-0.619,0.257-1.148,0.627-1.584,1.111s-0.771,1.072-1.006,1.766
			c-0.236,0.693-0.354,1.476-0.354,2.348c0,0.873,0.117,1.656,0.354,2.349c0.234,0.693,0.57,1.28,1.006,1.76
			c0.436,0.48,0.965,0.849,1.584,1.106c0.619,0.256,1.318,0.385,2.096,0.385s1.475-0.128,2.096-0.385
			c0.619-0.257,1.145-0.625,1.578-1.106c0.432-0.48,0.766-1.067,1.002-1.76C215.172,34.78,215.289,33.997,215.289,33.124z"/>
	</g>
	<g>
		<path fill="#5F5F5F" d="M108.476,60.668l-0.007,1.211h-6.23V51.827h6.23v1.211h-4.732v3.185h3.808v1.169h-3.808v3.276H108.476z"/>
		<path fill="#5F5F5F" d="M110.037,61.879v-7.112h0.819c0.191,0,0.311,0.091,0.357,0.273l0.098,0.679
			c0.261-0.312,0.552-0.568,0.872-0.767s0.694-0.297,1.124-0.297c0.471,0,0.854,0.129,1.148,0.388
			c0.294,0.26,0.509,0.61,0.644,1.054c0.103-0.252,0.235-0.469,0.399-0.65c0.164-0.183,0.345-0.332,0.546-0.448
			c0.201-0.117,0.414-0.203,0.641-0.259c0.227-0.057,0.456-0.084,0.689-0.084c0.378,0,0.715,0.06,1.012,0.178
			c0.296,0.119,0.547,0.293,0.752,0.521c0.205,0.229,0.361,0.512,0.469,0.848s0.161,0.719,0.161,1.147v4.529h-1.372V57.35
			c0-0.531-0.115-0.933-0.346-1.204c-0.231-0.271-0.568-0.405-1.012-0.405c-0.196,0-0.383,0.033-0.56,0.102
			c-0.177,0.067-0.333,0.169-0.465,0.304c-0.133,0.136-0.238,0.304-0.315,0.505c-0.077,0.2-0.116,0.434-0.116,0.699v4.529h-1.372
			V57.35c0-0.551-0.109-0.956-0.329-1.218c-0.219-0.261-0.541-0.392-0.966-0.392c-0.294,0-0.567,0.077-0.819,0.23
			c-0.252,0.154-0.483,0.364-0.693,0.63v5.278H110.037z"/>
		<path fill="#5F5F5F" d="M122.973,55.747c0.294-0.327,0.627-0.591,1.001-0.791c0.373-0.201,0.798-0.301,1.274-0.301
			c0.415,0,0.79,0.08,1.124,0.241c0.333,0.161,0.617,0.392,0.851,0.693c0.233,0.301,0.413,0.666,0.539,1.095
			c0.126,0.43,0.189,0.915,0.189,1.456c0,0.574-0.071,1.097-0.213,1.568c-0.142,0.472-0.345,0.875-0.609,1.211
			s-0.584,0.596-0.962,0.78s-0.803,0.276-1.274,0.276c-0.229,0-0.439-0.021-0.63-0.066c-0.191-0.044-0.367-0.108-0.528-0.192
			s-0.309-0.187-0.444-0.308c-0.136-0.121-0.264-0.259-0.385-0.413l-0.063,0.595c-0.037,0.191-0.154,0.287-0.35,0.287h-0.882V51.547
			h1.365V55.747z M122.973,60.129c0.224,0.294,0.466,0.499,0.728,0.616c0.262,0.116,0.546,0.175,0.854,0.175
			c0.635,0,1.124-0.227,1.467-0.679c0.343-0.453,0.515-1.137,0.515-2.052c0-0.844-0.152-1.464-0.455-1.858
			c-0.304-0.394-0.733-0.591-1.288-0.591c-0.392,0-0.731,0.088-1.019,0.266s-0.554,0.43-0.801,0.756V60.129z"/>
		<path fill="#5F5F5F" d="M129.293,55.761c0.397-0.378,0.827-0.66,1.292-0.847s0.975-0.28,1.529-0.28
			c0.406,0,0.766,0.066,1.078,0.199c0.312,0.134,0.576,0.319,0.791,0.557c0.215,0.238,0.377,0.523,0.486,0.854
			s0.164,0.697,0.164,1.099v4.536h-0.609c-0.135,0-0.236-0.022-0.307-0.066s-0.127-0.127-0.168-0.249l-0.148-0.623
			c-0.182,0.169-0.361,0.316-0.539,0.445c-0.176,0.128-0.361,0.237-0.557,0.329c-0.193,0.091-0.398,0.159-0.619,0.206
			c-0.219,0.047-0.461,0.07-0.727,0.07c-0.281,0-0.543-0.039-0.789-0.116c-0.244-0.076-0.457-0.194-0.641-0.354
			c-0.182-0.158-0.324-0.356-0.43-0.595c-0.105-0.238-0.158-0.516-0.158-0.833c0-0.28,0.076-0.55,0.228-0.809
			c0.151-0.259,0.398-0.491,0.742-0.696c0.342-0.205,0.791-0.373,1.344-0.504s1.232-0.205,2.041-0.224v-0.519
			c0-0.536-0.115-0.938-0.344-1.204c-0.229-0.266-0.564-0.398-1.008-0.398c-0.299,0-0.549,0.037-0.752,0.111
			c-0.203,0.075-0.379,0.158-0.525,0.249s-0.275,0.174-0.385,0.248c-0.109,0.075-0.223,0.112-0.34,0.112
			c-0.094,0-0.174-0.025-0.242-0.077c-0.066-0.051-0.121-0.112-0.164-0.182L129.293,55.761z M133.298,58.722
			c-0.557,0.019-1.027,0.062-1.414,0.13c-0.389,0.067-0.703,0.157-0.945,0.27c-0.242,0.111-0.418,0.244-0.525,0.396
			s-0.16,0.32-0.16,0.507c0,0.178,0.027,0.331,0.086,0.459s0.139,0.233,0.238,0.315c0.102,0.081,0.219,0.141,0.354,0.178
			c0.137,0.038,0.283,0.057,0.441,0.057c0.211,0,0.402-0.021,0.578-0.063c0.174-0.042,0.34-0.102,0.492-0.179
			c0.154-0.076,0.301-0.171,0.441-0.283s0.277-0.24,0.414-0.385V58.722z"/>
		<path fill="#5F5F5F" d="M137.869,51.547v10.332h-1.372V51.547H137.869z"/>
		<path fill="#5F5F5F" d="M139.633,55.761c0.396-0.378,0.827-0.66,1.291-0.847c0.465-0.187,0.975-0.28,1.529-0.28
			c0.406,0,0.765,0.066,1.078,0.199c0.312,0.134,0.576,0.319,0.791,0.557c0.215,0.238,0.377,0.523,0.486,0.854
			c0.111,0.331,0.166,0.697,0.166,1.099v4.536h-0.609c-0.135,0-0.238-0.022-0.309-0.066s-0.125-0.127-0.168-0.249l-0.146-0.623
			c-0.182,0.169-0.361,0.316-0.539,0.445c-0.178,0.128-0.363,0.237-0.557,0.329c-0.193,0.091-0.399,0.159-0.619,0.206
			s-0.462,0.07-0.728,0.07c-0.28,0-0.543-0.039-0.788-0.116c-0.245-0.076-0.458-0.194-0.641-0.354
			c-0.182-0.158-0.325-0.356-0.43-0.595c-0.105-0.238-0.158-0.516-0.158-0.833c0-0.28,0.076-0.55,0.228-0.809
			s0.399-0.491,0.742-0.696s0.791-0.373,1.344-0.504c0.554-0.131,1.233-0.205,2.041-0.224v-0.519c0-0.536-0.113-0.938-0.342-1.204
			c-0.23-0.266-0.566-0.398-1.009-0.398c-0.299,0-0.549,0.037-0.752,0.111c-0.203,0.075-0.378,0.158-0.525,0.249
			c-0.146,0.091-0.275,0.174-0.385,0.248c-0.109,0.075-0.223,0.112-0.34,0.112c-0.093,0-0.174-0.025-0.241-0.077
			c-0.067-0.051-0.122-0.112-0.164-0.182L139.633,55.761z M143.637,58.722c-0.555,0.019-1.027,0.062-1.414,0.13
			c-0.388,0.067-0.702,0.157-0.945,0.27c-0.242,0.111-0.418,0.244-0.524,0.396c-0.107,0.151-0.161,0.32-0.161,0.507
			c0,0.178,0.028,0.331,0.087,0.459s0.138,0.233,0.238,0.315c0.101,0.081,0.218,0.141,0.354,0.178
			c0.136,0.038,0.282,0.057,0.441,0.057c0.21,0,0.402-0.021,0.577-0.063s0.34-0.102,0.493-0.179
			c0.154-0.076,0.301-0.171,0.442-0.283c0.139-0.112,0.277-0.24,0.412-0.385V58.722z"/>
		<path fill="#5F5F5F" d="M152.871,55.033v0.511c0,0.168-0.105,0.273-0.316,0.315l-0.762,0.111c0.064,0.145,0.115,0.298,0.152,0.459
			c0.039,0.161,0.057,0.33,0.057,0.507c0,0.351-0.068,0.667-0.203,0.949s-0.322,0.523-0.561,0.725
			c-0.236,0.2-0.521,0.354-0.85,0.462s-0.689,0.16-1.082,0.16c-0.322,0-0.623-0.034-0.902-0.104
			c-0.141,0.084-0.246,0.176-0.318,0.276s-0.109,0.199-0.109,0.298c0,0.163,0.07,0.284,0.207,0.363
			c0.137,0.08,0.316,0.137,0.539,0.172c0.221,0.035,0.477,0.058,0.764,0.066c0.287,0.01,0.578,0.024,0.875,0.046
			c0.295,0.021,0.588,0.059,0.875,0.111c0.287,0.054,0.541,0.141,0.762,0.26c0.223,0.119,0.402,0.282,0.539,0.489
			c0.139,0.208,0.207,0.478,0.207,0.809c0,0.309-0.076,0.607-0.227,0.896c-0.152,0.289-0.373,0.546-0.662,0.77
			c-0.289,0.225-0.643,0.404-1.057,0.539c-0.416,0.136-0.887,0.203-1.414,0.203s-0.986-0.051-1.377-0.154
			c-0.389-0.103-0.713-0.24-0.973-0.412c-0.258-0.173-0.453-0.374-0.58-0.603c-0.129-0.229-0.193-0.467-0.193-0.714
			c0-0.346,0.107-0.639,0.322-0.879s0.512-0.428,0.889-0.563c-0.205-0.093-0.369-0.22-0.49-0.381s-0.182-0.375-0.182-0.641
			c0-0.103,0.02-0.209,0.057-0.318c0.037-0.11,0.094-0.22,0.172-0.329c0.076-0.109,0.172-0.214,0.287-0.312
			c0.113-0.099,0.246-0.187,0.395-0.267c-0.35-0.195-0.625-0.456-0.826-0.78s-0.301-0.703-0.301-1.138
			c0-0.35,0.068-0.665,0.203-0.944c0.135-0.28,0.322-0.521,0.564-0.722c0.24-0.2,0.525-0.354,0.859-0.462s0.699-0.161,1.096-0.161
			c0.617,0,1.146,0.129,1.59,0.386H152.871z M151.484,62.25c0-0.168-0.047-0.303-0.141-0.402c-0.094-0.101-0.221-0.18-0.381-0.238
			c-0.162-0.059-0.35-0.101-0.564-0.126s-0.439-0.046-0.676-0.06c-0.234-0.014-0.477-0.026-0.723-0.038
			c-0.248-0.012-0.486-0.034-0.715-0.066c-0.242,0.121-0.441,0.268-0.598,0.44c-0.158,0.173-0.236,0.376-0.236,0.609
			c0,0.149,0.039,0.289,0.117,0.42c0.076,0.131,0.195,0.243,0.355,0.339c0.162,0.096,0.365,0.171,0.609,0.225
			c0.246,0.054,0.539,0.08,0.879,0.08c0.336,0,0.633-0.029,0.889-0.087c0.258-0.059,0.473-0.141,0.648-0.245
			c0.174-0.105,0.307-0.23,0.398-0.375S151.484,62.423,151.484,62.25z M149.307,58.33c0.242,0,0.457-0.033,0.641-0.099
			c0.186-0.064,0.338-0.157,0.463-0.276c0.123-0.119,0.217-0.262,0.279-0.43c0.062-0.169,0.094-0.353,0.094-0.554
			c0-0.41-0.123-0.738-0.373-0.983s-0.617-0.367-1.104-0.367c-0.48,0-0.846,0.122-1.096,0.367c-0.248,0.245-0.373,0.573-0.373,0.983
			c0,0.201,0.031,0.384,0.094,0.55s0.156,0.308,0.279,0.427c0.125,0.119,0.277,0.213,0.463,0.28
			C148.857,58.296,149.068,58.33,149.307,58.33z"/>
		<path fill="#5F5F5F" d="M159.953,60.864c-0.168,0.195-0.361,0.365-0.58,0.507c-0.219,0.143-0.453,0.258-0.701,0.347
			c-0.246,0.089-0.502,0.154-0.766,0.196s-0.523,0.062-0.781,0.062c-0.49,0-0.943-0.083-1.361-0.248
			c-0.418-0.166-0.779-0.408-1.084-0.729c-0.307-0.319-0.545-0.716-0.715-1.189s-0.256-1.019-0.256-1.635
			c0-0.494,0.078-0.955,0.232-1.383c0.154-0.427,0.373-0.799,0.66-1.116s0.639-0.566,1.055-0.749c0.414-0.182,0.881-0.272,1.4-0.272
			c0.434,0,0.834,0.071,1.199,0.213c0.367,0.143,0.684,0.35,0.949,0.62s0.475,0.604,0.627,1.001c0.15,0.396,0.227,0.849,0.227,1.357
			c0,0.21-0.023,0.352-0.07,0.424s-0.133,0.108-0.258,0.108h-4.662c0.014,0.425,0.074,0.795,0.182,1.109
			c0.107,0.315,0.256,0.577,0.443,0.788c0.189,0.21,0.414,0.366,0.676,0.469s0.553,0.153,0.875,0.153
			c0.305,0,0.566-0.034,0.789-0.104c0.221-0.07,0.412-0.146,0.572-0.228c0.162-0.082,0.297-0.157,0.406-0.228
			s0.207-0.104,0.291-0.104c0.111,0,0.199,0.042,0.26,0.126L159.953,60.864z M158.826,57.532c0-0.271-0.037-0.521-0.115-0.749
			c-0.076-0.229-0.189-0.428-0.34-0.596c-0.148-0.168-0.33-0.298-0.545-0.392s-0.463-0.14-0.742-0.14
			c-0.574,0-1.025,0.165-1.355,0.497c-0.328,0.331-0.537,0.791-0.625,1.379H158.826z"/>
		<path fill="#5F5F5F" d="M161.529,61.879v-7.112h0.818c0.191,0,0.311,0.091,0.357,0.273l0.098,0.679
			c0.262-0.312,0.553-0.568,0.871-0.767c0.32-0.198,0.695-0.297,1.123-0.297c0.473,0,0.855,0.129,1.148,0.388
			c0.295,0.26,0.51,0.61,0.645,1.054c0.104-0.252,0.236-0.469,0.398-0.65c0.164-0.183,0.346-0.332,0.547-0.448
			c0.201-0.117,0.414-0.203,0.641-0.259c0.227-0.057,0.455-0.084,0.689-0.084c0.377,0,0.715,0.06,1.012,0.178
			c0.295,0.119,0.547,0.293,0.752,0.521c0.205,0.229,0.361,0.512,0.469,0.848s0.162,0.719,0.162,1.147v4.529h-1.373V57.35
			c0-0.531-0.115-0.933-0.346-1.204c-0.232-0.271-0.568-0.405-1.012-0.405c-0.197,0-0.383,0.033-0.561,0.102
			c-0.178,0.067-0.332,0.169-0.465,0.304c-0.133,0.136-0.238,0.304-0.316,0.505c-0.076,0.2-0.115,0.434-0.115,0.699v4.529h-1.371
			V57.35c0-0.551-0.109-0.956-0.33-1.218c-0.219-0.261-0.541-0.392-0.965-0.392c-0.295,0-0.568,0.077-0.82,0.23
			c-0.252,0.154-0.482,0.364-0.691,0.63v5.278H161.529z"/>
		<path fill="#5F5F5F" d="M185.686,56.853c0,0.752-0.121,1.436-0.361,2.052c-0.24,0.615-0.58,1.145-1.018,1.585
			c-0.439,0.441-0.965,0.783-1.576,1.025c-0.611,0.243-1.289,0.364-2.037,0.364h-3.779V51.827h3.779
			c0.748,0,1.426,0.121,2.037,0.363c0.611,0.243,1.137,0.585,1.576,1.026c0.438,0.44,0.777,0.971,1.018,1.589
			S185.686,56.106,185.686,56.853z M184.16,56.853c0-0.597-0.082-1.133-0.246-1.606s-0.395-0.875-0.695-1.204
			c-0.303-0.328-0.666-0.579-1.094-0.752c-0.426-0.173-0.904-0.259-1.432-0.259h-2.281v7.644h2.281c0.527,0,1.006-0.086,1.432-0.259
			c0.428-0.173,0.791-0.424,1.094-0.753c0.301-0.329,0.531-0.729,0.695-1.2S184.16,57.455,184.16,56.853z"/>
		<path fill="#5F5F5F" d="M188.969,52.569c0,0.126-0.027,0.246-0.078,0.36s-0.119,0.215-0.207,0.301
			c-0.086,0.086-0.188,0.154-0.305,0.203c-0.115,0.049-0.236,0.073-0.363,0.073c-0.125,0-0.244-0.024-0.357-0.073
			c-0.111-0.049-0.211-0.117-0.297-0.203s-0.154-0.187-0.203-0.301s-0.074-0.234-0.074-0.36c0-0.131,0.025-0.254,0.074-0.368
			s0.117-0.215,0.203-0.301s0.186-0.154,0.297-0.203c0.113-0.049,0.232-0.073,0.357-0.073c0.127,0,0.248,0.024,0.363,0.073
			c0.117,0.049,0.219,0.117,0.305,0.203c0.088,0.086,0.156,0.187,0.207,0.301S188.969,52.438,188.969,52.569z M188.709,54.767v7.112
			h-1.365v-7.112H188.709z"/>
		<path fill="#5F5F5F" d="M194.883,55.992c-0.037,0.061-0.076,0.104-0.119,0.129c-0.041,0.026-0.096,0.039-0.16,0.039
			c-0.076,0-0.158-0.025-0.25-0.077c-0.09-0.052-0.199-0.107-0.328-0.168s-0.279-0.117-0.451-0.168
			c-0.174-0.052-0.379-0.077-0.617-0.077c-0.195,0-0.373,0.024-0.535,0.073c-0.16,0.049-0.297,0.117-0.408,0.203
			c-0.113,0.087-0.199,0.189-0.26,0.309c-0.061,0.118-0.092,0.246-0.092,0.381c0,0.178,0.053,0.324,0.158,0.441
			c0.105,0.116,0.242,0.217,0.414,0.301c0.17,0.084,0.363,0.16,0.58,0.228s0.439,0.139,0.664,0.214
			c0.227,0.074,0.449,0.159,0.666,0.255s0.41,0.215,0.58,0.357c0.172,0.143,0.309,0.313,0.414,0.515
			c0.105,0.2,0.158,0.445,0.158,0.734c0,0.332-0.061,0.639-0.18,0.921s-0.293,0.526-0.525,0.731
			c-0.23,0.205-0.516,0.366-0.857,0.482c-0.34,0.117-0.73,0.176-1.168,0.176c-0.49,0-0.943-0.082-1.359-0.245
			c-0.414-0.163-0.762-0.371-1.043-0.623l0.322-0.525c0.037-0.065,0.084-0.115,0.141-0.15s0.131-0.053,0.225-0.053
			c0.088,0,0.18,0.033,0.271,0.099c0.094,0.065,0.207,0.137,0.336,0.213c0.131,0.077,0.291,0.147,0.477,0.21
			c0.188,0.063,0.42,0.095,0.701,0.095c0.232,0,0.436-0.029,0.607-0.087c0.174-0.059,0.316-0.138,0.432-0.238
			c0.113-0.101,0.199-0.216,0.256-0.347c0.055-0.131,0.084-0.269,0.084-0.413c0-0.187-0.053-0.342-0.158-0.466
			c-0.105-0.123-0.242-0.229-0.412-0.318c-0.172-0.088-0.365-0.165-0.586-0.23c-0.219-0.065-0.443-0.136-0.672-0.21
			c-0.229-0.075-0.453-0.161-0.672-0.259c-0.219-0.099-0.414-0.222-0.584-0.371s-0.309-0.332-0.414-0.546
			c-0.104-0.215-0.156-0.477-0.156-0.784c0-0.275,0.057-0.539,0.172-0.791c0.113-0.252,0.279-0.474,0.496-0.665
			s0.486-0.345,0.805-0.459c0.32-0.114,0.686-0.171,1.096-0.171c0.471,0,0.896,0.074,1.277,0.224s0.707,0.354,0.977,0.616
			L194.883,55.992z"/>
		<path fill="#5F5F5F" d="M201.758,56.097c-0.043,0.052-0.084,0.093-0.123,0.123s-0.098,0.045-0.172,0.045s-0.152-0.029-0.234-0.087
			c-0.082-0.059-0.184-0.122-0.309-0.189c-0.123-0.067-0.271-0.131-0.447-0.188c-0.176-0.059-0.391-0.088-0.648-0.088
			c-0.336,0-0.631,0.061-0.889,0.182c-0.256,0.122-0.471,0.294-0.641,0.519c-0.17,0.224-0.299,0.497-0.389,0.818
			c-0.088,0.322-0.133,0.685-0.133,1.085c0,0.416,0.047,0.786,0.141,1.11s0.227,0.597,0.398,0.818
			c0.174,0.222,0.383,0.39,0.631,0.504c0.246,0.115,0.521,0.172,0.826,0.172c0.293,0,0.535-0.036,0.727-0.108
			s0.352-0.15,0.477-0.234c0.127-0.084,0.23-0.162,0.314-0.234s0.172-0.108,0.26-0.108c0.111,0,0.199,0.042,0.26,0.126l0.391,0.504
			c-0.162,0.2-0.346,0.371-0.549,0.511s-0.418,0.254-0.648,0.343c-0.229,0.089-0.467,0.154-0.717,0.196s-0.502,0.062-0.76,0.062
			c-0.443,0-0.857-0.081-1.242-0.245c-0.385-0.163-0.719-0.4-1-0.714c-0.283-0.312-0.506-0.696-0.67-1.151
			c-0.162-0.455-0.244-0.972-0.244-1.551c0-0.526,0.074-1.015,0.221-1.463c0.146-0.447,0.363-0.834,0.65-1.158
			s0.641-0.578,1.061-0.763s0.9-0.276,1.441-0.276c0.51,0,0.957,0.081,1.346,0.245c0.387,0.163,0.732,0.394,1.035,0.692
			L201.758,56.097z"/>
		<path fill="#5F5F5F" d="M204.76,56.132c0.229-0.467,0.504-0.833,0.826-1.099c0.322-0.267,0.709-0.399,1.162-0.399
			c0.154,0,0.301,0.018,0.438,0.053c0.139,0.035,0.258,0.087,0.361,0.157l-0.092,1.029c-0.033,0.126-0.109,0.188-0.23,0.188
			c-0.066,0-0.164-0.013-0.295-0.038s-0.27-0.038-0.42-0.038c-0.219,0-0.412,0.031-0.58,0.094c-0.168,0.063-0.318,0.156-0.451,0.28
			c-0.135,0.124-0.252,0.275-0.354,0.455c-0.104,0.18-0.199,0.384-0.287,0.612v4.452h-1.365v-7.112h0.783
			c0.15,0,0.252,0.027,0.305,0.081c0.055,0.054,0.092,0.148,0.115,0.283L204.76,56.132z"/>
		<path fill="#5F5F5F" d="M214.441,60.864c-0.168,0.195-0.361,0.365-0.582,0.507c-0.219,0.143-0.451,0.258-0.699,0.347
			s-0.504,0.154-0.768,0.196s-0.523,0.062-0.779,0.062c-0.49,0-0.943-0.083-1.361-0.248c-0.418-0.166-0.779-0.408-1.086-0.729
			c-0.305-0.319-0.543-0.716-0.713-1.189c-0.172-0.474-0.256-1.019-0.256-1.635c0-0.494,0.076-0.955,0.23-1.383
			c0.154-0.427,0.375-0.799,0.662-1.116s0.639-0.566,1.053-0.749c0.416-0.182,0.883-0.272,1.4-0.272
			c0.434,0,0.834,0.071,1.201,0.213c0.365,0.143,0.682,0.35,0.947,0.62c0.268,0.271,0.475,0.604,0.627,1.001
			s0.229,0.849,0.229,1.357c0,0.21-0.023,0.352-0.07,0.424s-0.133,0.108-0.26,0.108h-4.662c0.014,0.425,0.074,0.795,0.182,1.109
			c0.107,0.315,0.256,0.577,0.445,0.788c0.189,0.21,0.414,0.366,0.676,0.469s0.553,0.153,0.875,0.153
			c0.303,0,0.564-0.034,0.787-0.104c0.221-0.07,0.412-0.146,0.574-0.228c0.16-0.082,0.297-0.157,0.406-0.228
			s0.205-0.104,0.291-0.104c0.111,0,0.197,0.042,0.258,0.126L214.441,60.864z M213.314,57.532c0-0.271-0.039-0.521-0.115-0.749
			c-0.078-0.229-0.191-0.428-0.34-0.596c-0.15-0.168-0.332-0.298-0.547-0.392s-0.461-0.14-0.742-0.14
			c-0.574,0-1.025,0.165-1.354,0.497c-0.33,0.331-0.539,0.791-0.627,1.379H213.314z"/>
		<path fill="#5F5F5F" d="M218.24,61.991c-0.572,0-1.016-0.161-1.326-0.483s-0.465-0.781-0.465-1.379v-4.256h-0.826
			c-0.08,0-0.146-0.024-0.199-0.073c-0.055-0.05-0.08-0.123-0.08-0.221v-0.553l1.154-0.161l0.309-2.121
			c0.018-0.079,0.055-0.142,0.107-0.186c0.055-0.045,0.123-0.066,0.207-0.066h0.693v2.387h2.016v0.994h-2.016v4.165
			c0,0.28,0.068,0.488,0.207,0.626c0.137,0.138,0.312,0.207,0.527,0.207c0.127,0,0.234-0.017,0.326-0.049
			c0.09-0.033,0.168-0.069,0.234-0.108c0.064-0.04,0.121-0.076,0.168-0.109c0.047-0.032,0.088-0.049,0.125-0.049
			c0.047,0,0.084,0.011,0.109,0.032c0.025,0.021,0.053,0.055,0.08,0.101l0.406,0.658c-0.225,0.206-0.49,0.364-0.799,0.477
			C218.893,61.935,218.572,61.991,218.24,61.991z"/>
		<path fill="#5F5F5F" d="M220.902,55.761c0.396-0.378,0.826-0.66,1.291-0.847s0.975-0.28,1.529-0.28
			c0.406,0,0.766,0.066,1.078,0.199c0.312,0.134,0.576,0.319,0.791,0.557c0.215,0.238,0.377,0.523,0.486,0.854
			s0.164,0.697,0.164,1.099v4.536h-0.609c-0.135,0-0.236-0.022-0.307-0.066s-0.127-0.127-0.168-0.249l-0.148-0.623
			c-0.182,0.169-0.361,0.316-0.539,0.445c-0.176,0.128-0.361,0.237-0.557,0.329c-0.193,0.091-0.398,0.159-0.619,0.206
			c-0.219,0.047-0.461,0.07-0.727,0.07c-0.281,0-0.543-0.039-0.789-0.116c-0.244-0.076-0.457-0.194-0.641-0.354
			c-0.182-0.158-0.324-0.356-0.43-0.595s-0.158-0.516-0.158-0.833c0-0.28,0.076-0.55,0.229-0.809
			c0.15-0.259,0.398-0.491,0.742-0.696c0.342-0.205,0.791-0.373,1.344-0.504s1.232-0.205,2.041-0.224v-0.519
			c0-0.536-0.115-0.938-0.344-1.204c-0.229-0.266-0.564-0.398-1.008-0.398c-0.299,0-0.549,0.037-0.752,0.111
			c-0.203,0.075-0.379,0.158-0.525,0.249s-0.275,0.174-0.385,0.248c-0.109,0.075-0.223,0.112-0.34,0.112
			c-0.094,0-0.174-0.025-0.242-0.077c-0.066-0.051-0.121-0.112-0.164-0.182L220.902,55.761z M224.906,58.722
			c-0.557,0.019-1.027,0.062-1.414,0.13c-0.389,0.067-0.703,0.157-0.945,0.27c-0.242,0.111-0.418,0.244-0.525,0.396
			s-0.16,0.32-0.16,0.507c0,0.178,0.027,0.331,0.086,0.459s0.139,0.233,0.238,0.315c0.102,0.081,0.219,0.141,0.354,0.178
			c0.137,0.038,0.283,0.057,0.441,0.057c0.211,0,0.402-0.021,0.578-0.063c0.174-0.042,0.34-0.102,0.492-0.179
			c0.154-0.076,0.301-0.171,0.441-0.283s0.277-0.24,0.414-0.385V58.722z"/>
		<path fill="#5F5F5F" d="M105.284,65.827c0.644,0,1.204,0.074,1.68,0.224s0.871,0.36,1.183,0.634
			c0.312,0.272,0.545,0.604,0.696,0.99c0.152,0.388,0.228,0.816,0.228,1.288s-0.082,0.904-0.245,1.299
			c-0.164,0.395-0.404,0.733-0.721,1.019c-0.317,0.284-0.713,0.505-1.187,0.661s-1.019,0.234-1.634,0.234h-1.554v3.703h-1.491
			V65.827H105.284z M105.284,71c0.378,0,0.71-0.049,0.998-0.147c0.287-0.098,0.527-0.236,0.721-0.416s0.339-0.395,0.438-0.645
			c0.098-0.249,0.147-0.525,0.147-0.829c0-0.611-0.19-1.092-0.57-1.442c-0.38-0.35-0.958-0.524-1.732-0.524h-1.554V71H105.284z"/>
		<path fill="#5F5F5F" d="M111.717,70.132c0.229-0.467,0.504-0.833,0.826-1.099c0.322-0.267,0.709-0.399,1.162-0.399
			c0.154,0,0.3,0.018,0.438,0.053s0.258,0.087,0.361,0.157l-0.091,1.029c-0.033,0.126-0.109,0.188-0.231,0.188
			c-0.065,0-0.164-0.013-0.294-0.038c-0.131-0.025-0.271-0.038-0.42-0.038c-0.219,0-0.413,0.031-0.581,0.094
			c-0.168,0.063-0.318,0.156-0.452,0.28c-0.133,0.124-0.251,0.275-0.354,0.455s-0.198,0.384-0.287,0.612v4.452h-1.365v-7.112h0.784
			c0.149,0,0.25,0.027,0.304,0.081s0.092,0.148,0.116,0.283L111.717,70.132z"/>
		<path fill="#5F5F5F" d="M117.247,66.569c0,0.126-0.026,0.246-0.077,0.36s-0.12,0.215-0.207,0.301s-0.188,0.154-0.304,0.203
			s-0.238,0.073-0.364,0.073s-0.245-0.024-0.357-0.073c-0.112-0.049-0.211-0.117-0.297-0.203s-0.154-0.187-0.203-0.301
			c-0.049-0.114-0.073-0.234-0.073-0.36c0-0.131,0.024-0.254,0.073-0.368c0.049-0.114,0.117-0.215,0.203-0.301
			s0.186-0.154,0.297-0.203c0.112-0.049,0.231-0.073,0.357-0.073s0.248,0.024,0.364,0.073s0.218,0.117,0.304,0.203
			s0.155,0.187,0.207,0.301S117.247,66.438,117.247,66.569z M116.988,68.767v7.112h-1.365v-7.112H116.988z"/>
		<path fill="#5F5F5F" d="M125.143,68.767l-2.884,7.112h-1.232l-2.884-7.112h1.127c0.107,0,0.196,0.026,0.266,0.077
			c0.07,0.052,0.117,0.117,0.14,0.196l1.701,4.368c0.061,0.182,0.113,0.362,0.157,0.542s0.085,0.358,0.123,0.536
			c0.037-0.178,0.079-0.355,0.126-0.532c0.047-0.178,0.103-0.359,0.168-0.546l1.722-4.368c0.028-0.079,0.077-0.145,0.147-0.196
			c0.07-0.051,0.154-0.077,0.252-0.077H125.143z"/>
		<path fill="#5F5F5F" d="M126.053,69.761c0.397-0.378,0.827-0.66,1.292-0.847s0.974-0.28,1.53-0.28
			c0.406,0,0.765,0.066,1.078,0.199c0.312,0.134,0.576,0.319,0.791,0.557c0.215,0.238,0.377,0.523,0.486,0.854
			c0.11,0.331,0.165,0.697,0.165,1.099v4.536h-0.609c-0.135,0-0.237-0.022-0.308-0.066s-0.126-0.127-0.168-0.249l-0.147-0.623
			c-0.182,0.169-0.361,0.316-0.539,0.445c-0.177,0.128-0.363,0.237-0.556,0.329c-0.194,0.091-0.4,0.159-0.62,0.206
			s-0.462,0.07-0.728,0.07c-0.28,0-0.542-0.039-0.788-0.116c-0.245-0.076-0.458-0.194-0.64-0.354
			c-0.182-0.158-0.326-0.356-0.431-0.595s-0.158-0.516-0.158-0.833c0-0.28,0.076-0.55,0.228-0.809
			c0.152-0.259,0.399-0.491,0.742-0.696s0.791-0.373,1.344-0.504c0.553-0.131,1.233-0.205,2.041-0.224v-0.519
			c0-0.536-0.114-0.938-0.343-1.204c-0.229-0.266-0.564-0.398-1.008-0.398c-0.299,0-0.55,0.037-0.752,0.111
			c-0.203,0.075-0.378,0.158-0.525,0.249s-0.275,0.174-0.385,0.248c-0.11,0.075-0.223,0.112-0.339,0.112
			c-0.094,0-0.174-0.025-0.242-0.077c-0.068-0.051-0.123-0.112-0.165-0.182L126.053,69.761z M130.057,72.722
			c-0.556,0.019-1.027,0.062-1.414,0.13c-0.388,0.067-0.703,0.157-0.945,0.27c-0.243,0.111-0.417,0.244-0.525,0.396
			s-0.161,0.32-0.161,0.507c0,0.178,0.029,0.331,0.088,0.459c0.058,0.128,0.137,0.233,0.238,0.315
			c0.1,0.081,0.218,0.141,0.354,0.178c0.135,0.038,0.282,0.057,0.441,0.057c0.21,0,0.402-0.021,0.578-0.063
			c0.175-0.042,0.339-0.102,0.493-0.179c0.154-0.076,0.301-0.171,0.441-0.283c0.14-0.112,0.277-0.24,0.413-0.385V72.722z"/>
		<path fill="#5F5F5F" d="M138.212,70.097c-0.042,0.052-0.083,0.093-0.123,0.123c-0.039,0.03-0.097,0.045-0.171,0.045
			c-0.075,0-0.153-0.029-0.235-0.087c-0.081-0.059-0.184-0.122-0.308-0.189s-0.272-0.131-0.448-0.188
			c-0.175-0.059-0.391-0.088-0.647-0.088c-0.336,0-0.632,0.061-0.889,0.182c-0.257,0.122-0.471,0.294-0.641,0.519
			c-0.17,0.224-0.3,0.497-0.389,0.818c-0.089,0.322-0.133,0.685-0.133,1.085c0,0.416,0.047,0.786,0.14,1.11
			c0.094,0.324,0.227,0.597,0.399,0.818s0.383,0.39,0.63,0.504c0.247,0.115,0.522,0.172,0.826,0.172
			c0.294,0,0.536-0.036,0.728-0.108s0.351-0.15,0.477-0.234s0.23-0.162,0.314-0.234s0.171-0.108,0.26-0.108
			c0.111,0,0.198,0.042,0.259,0.126l0.392,0.504c-0.163,0.2-0.347,0.371-0.549,0.511c-0.203,0.14-0.419,0.254-0.648,0.343
			c-0.229,0.089-0.468,0.154-0.717,0.196c-0.25,0.042-0.503,0.062-0.76,0.062c-0.443,0-0.857-0.081-1.242-0.245
			c-0.386-0.163-0.719-0.4-1.001-0.714c-0.282-0.312-0.506-0.696-0.669-1.151s-0.245-0.972-0.245-1.551
			c0-0.526,0.074-1.015,0.221-1.463c0.147-0.447,0.364-0.834,0.651-1.158s0.641-0.578,1.061-0.763s0.9-0.276,1.441-0.276
			c0.509,0,0.957,0.081,1.345,0.245c0.387,0.163,0.732,0.394,1.035,0.692L138.212,70.097z"/>
		<path fill="#5F5F5F" d="M141.614,66.569c0,0.126-0.026,0.246-0.077,0.36c-0.052,0.114-0.12,0.215-0.207,0.301
			c-0.086,0.086-0.188,0.154-0.305,0.203c-0.116,0.049-0.237,0.073-0.363,0.073s-0.245-0.024-0.357-0.073s-0.211-0.117-0.298-0.203
			c-0.086-0.086-0.153-0.187-0.202-0.301c-0.05-0.114-0.074-0.234-0.074-0.36c0-0.131,0.024-0.254,0.074-0.368
			c0.049-0.114,0.116-0.215,0.202-0.301c0.087-0.086,0.186-0.154,0.298-0.203s0.231-0.073,0.357-0.073s0.247,0.024,0.363,0.073
			c0.117,0.049,0.219,0.117,0.305,0.203c0.087,0.086,0.155,0.187,0.207,0.301C141.587,66.315,141.614,66.438,141.614,66.569z
			 M141.354,68.767v7.112h-1.364v-7.112H141.354z"/>
		<path fill="#5F5F5F" d="M149.293,65.547v10.332h-0.826c-0.191,0-0.311-0.091-0.357-0.273l-0.119-0.818
			c-0.303,0.359-0.646,0.647-1.033,0.864c-0.385,0.217-0.828,0.325-1.332,0.325c-0.406,0-0.773-0.079-1.104-0.237
			c-0.328-0.159-0.609-0.392-0.844-0.697c-0.232-0.306-0.412-0.685-0.539-1.137c-0.125-0.453-0.188-0.974-0.188-1.562
			c0-0.527,0.069-1.018,0.209-1.47c0.141-0.453,0.344-0.845,0.609-1.176c0.266-0.332,0.588-0.592,0.967-0.781
			c0.377-0.188,0.805-0.283,1.279-0.283c0.43,0,0.795,0.07,1.096,0.21c0.301,0.141,0.57,0.339,0.809,0.595v-3.892H149.293z
			 M147.92,70.489c-0.223-0.294-0.465-0.5-0.725-0.616c-0.258-0.117-0.549-0.175-0.871-0.175c-0.625,0-1.109,0.225-1.453,0.675
			c-0.342,0.451-0.514,1.107-0.514,1.971c0,0.453,0.039,0.839,0.115,1.158c0.078,0.32,0.189,0.581,0.336,0.784
			s0.328,0.353,0.543,0.448s0.457,0.144,0.729,0.144c0.396,0,0.738-0.089,1.029-0.266c0.289-0.178,0.559-0.428,0.811-0.749V70.489z"
			/>
		<path fill="#5F5F5F" d="M151.021,69.761c0.396-0.378,0.828-0.66,1.291-0.847c0.465-0.187,0.975-0.28,1.529-0.28
			c0.406,0,0.766,0.066,1.078,0.199c0.312,0.134,0.576,0.319,0.791,0.557c0.215,0.238,0.377,0.523,0.486,0.854
			c0.111,0.331,0.166,0.697,0.166,1.099v4.536h-0.609c-0.135,0-0.238-0.022-0.309-0.066s-0.125-0.127-0.168-0.249l-0.146-0.623
			c-0.182,0.169-0.361,0.316-0.539,0.445c-0.178,0.128-0.363,0.237-0.557,0.329c-0.193,0.091-0.4,0.159-0.619,0.206
			c-0.221,0.047-0.463,0.07-0.729,0.07c-0.279,0-0.543-0.039-0.787-0.116c-0.246-0.076-0.459-0.194-0.641-0.354
			c-0.182-0.158-0.326-0.356-0.43-0.595c-0.105-0.238-0.158-0.516-0.158-0.833c0-0.28,0.076-0.55,0.227-0.809
			c0.152-0.259,0.4-0.491,0.742-0.696c0.344-0.205,0.791-0.373,1.344-0.504c0.555-0.131,1.234-0.205,2.041-0.224v-0.519
			c0-0.536-0.113-0.938-0.342-1.204c-0.23-0.266-0.566-0.398-1.01-0.398c-0.299,0-0.549,0.037-0.752,0.111
			c-0.203,0.075-0.377,0.158-0.525,0.249c-0.146,0.091-0.275,0.174-0.385,0.248c-0.109,0.075-0.223,0.112-0.34,0.112
			c-0.092,0-0.174-0.025-0.24-0.077c-0.068-0.051-0.123-0.112-0.164-0.182L151.021,69.761z M155.025,72.722
			c-0.555,0.019-1.027,0.062-1.414,0.13s-0.701,0.157-0.945,0.27c-0.242,0.111-0.418,0.244-0.523,0.396
			c-0.107,0.151-0.162,0.32-0.162,0.507c0,0.178,0.029,0.331,0.088,0.459s0.137,0.233,0.238,0.315
			c0.1,0.081,0.217,0.141,0.354,0.178c0.135,0.038,0.281,0.057,0.441,0.057c0.209,0,0.402-0.021,0.576-0.063
			c0.176-0.042,0.34-0.102,0.494-0.179c0.154-0.076,0.301-0.171,0.441-0.283c0.139-0.112,0.277-0.24,0.412-0.385V72.722z"/>
		<path fill="#5F5F5F" d="M164.154,65.547v10.332h-0.826c-0.191,0-0.311-0.091-0.357-0.273l-0.119-0.818
			c-0.303,0.359-0.646,0.647-1.033,0.864c-0.385,0.217-0.828,0.325-1.332,0.325c-0.406,0-0.773-0.079-1.104-0.237
			c-0.328-0.159-0.609-0.392-0.844-0.697c-0.232-0.306-0.412-0.685-0.539-1.137c-0.125-0.453-0.188-0.974-0.188-1.562
			c0-0.527,0.068-1.018,0.209-1.47c0.141-0.453,0.344-0.845,0.609-1.176c0.266-0.332,0.588-0.592,0.967-0.781
			c0.377-0.188,0.805-0.283,1.279-0.283c0.43,0,0.795,0.07,1.096,0.21c0.301,0.141,0.57,0.339,0.809,0.595v-3.892H164.154z
			 M162.781,70.489c-0.223-0.294-0.465-0.5-0.725-0.616c-0.258-0.117-0.549-0.175-0.871-0.175c-0.625,0-1.109,0.225-1.453,0.675
			c-0.342,0.451-0.514,1.107-0.514,1.971c0,0.453,0.039,0.839,0.115,1.158c0.078,0.32,0.189,0.581,0.336,0.784
			s0.328,0.353,0.543,0.448s0.457,0.144,0.729,0.144c0.396,0,0.738-0.089,1.029-0.266c0.289-0.178,0.559-0.428,0.811-0.749V70.489z"
			/>
		<path fill="#5F5F5F" d="M171.902,74.864c-0.168,0.195-0.361,0.365-0.582,0.507c-0.219,0.143-0.451,0.258-0.699,0.347
			s-0.504,0.154-0.768,0.196s-0.523,0.062-0.779,0.062c-0.49,0-0.943-0.083-1.361-0.248c-0.418-0.166-0.779-0.408-1.086-0.729
			c-0.305-0.319-0.543-0.716-0.713-1.189c-0.172-0.474-0.256-1.019-0.256-1.635c0-0.494,0.076-0.955,0.23-1.383
			c0.154-0.427,0.375-0.799,0.662-1.116s0.639-0.566,1.053-0.749c0.416-0.182,0.883-0.272,1.4-0.272
			c0.434,0,0.834,0.071,1.201,0.213c0.365,0.143,0.682,0.35,0.947,0.62c0.268,0.271,0.475,0.604,0.627,1.001
			s0.229,0.849,0.229,1.357c0,0.21-0.023,0.352-0.07,0.424s-0.133,0.108-0.26,0.108h-4.662c0.014,0.425,0.074,0.795,0.182,1.109
			c0.107,0.315,0.256,0.577,0.445,0.788c0.189,0.21,0.414,0.366,0.676,0.469s0.553,0.153,0.875,0.153
			c0.303,0,0.564-0.034,0.787-0.104c0.221-0.07,0.412-0.146,0.574-0.228c0.16-0.082,0.297-0.157,0.406-0.228
			s0.205-0.104,0.291-0.104c0.111,0,0.197,0.042,0.258,0.126L171.902,74.864z M170.775,71.532c0-0.271-0.039-0.521-0.115-0.749
			c-0.078-0.229-0.191-0.428-0.34-0.596c-0.15-0.168-0.332-0.298-0.547-0.392s-0.461-0.14-0.742-0.14
			c-0.574,0-1.025,0.165-1.354,0.497c-0.33,0.331-0.539,0.791-0.627,1.379H170.775z"/>
		<path fill="#5F5F5F" d="M185.496,70.986v3.92c-0.508,0.363-1.051,0.636-1.623,0.815c-0.574,0.18-1.201,0.27-1.877,0.27
			c-0.812,0-1.545-0.126-2.201-0.378s-1.215-0.604-1.676-1.058c-0.463-0.452-0.818-0.994-1.068-1.624s-0.375-1.322-0.375-2.079
			c0-0.76,0.121-1.457,0.361-2.089c0.24-0.633,0.584-1.174,1.031-1.624c0.449-0.45,0.992-0.801,1.629-1.05
			c0.637-0.25,1.352-0.375,2.145-0.375c0.402,0,0.773,0.03,1.117,0.091c0.342,0.061,0.662,0.147,0.955,0.259
			c0.295,0.112,0.566,0.247,0.816,0.403c0.248,0.156,0.48,0.332,0.695,0.528L185,67.668c-0.066,0.107-0.152,0.175-0.26,0.203
			c-0.107,0.027-0.225,0.002-0.35-0.077c-0.121-0.07-0.256-0.151-0.402-0.245c-0.148-0.093-0.322-0.18-0.525-0.259
			s-0.439-0.147-0.711-0.203c-0.27-0.056-0.59-0.084-0.959-0.084c-0.551,0-1.047,0.09-1.49,0.27s-0.822,0.438-1.135,0.773
			s-0.553,0.741-0.721,1.215s-0.252,1.004-0.252,1.592c0,0.616,0.088,1.168,0.266,1.656c0.178,0.487,0.428,0.9,0.752,1.238
			c0.324,0.339,0.719,0.597,1.184,0.773c0.465,0.178,0.984,0.267,1.559,0.267c0.223,0,0.432-0.013,0.625-0.039
			c0.193-0.025,0.379-0.062,0.557-0.108c0.178-0.046,0.35-0.104,0.516-0.175c0.164-0.07,0.33-0.146,0.492-0.23v-2.107h-1.482
			c-0.094,0-0.17-0.028-0.229-0.084s-0.088-0.126-0.088-0.21v-0.847H185.496z"/>
		<path fill="#5F5F5F" d="M187.043,69.761c0.396-0.378,0.828-0.66,1.291-0.847c0.465-0.187,0.975-0.28,1.529-0.28
			c0.406,0,0.766,0.066,1.078,0.199c0.312,0.134,0.576,0.319,0.791,0.557c0.215,0.238,0.377,0.523,0.486,0.854
			c0.111,0.331,0.166,0.697,0.166,1.099v4.536h-0.609c-0.135,0-0.238-0.022-0.309-0.066s-0.125-0.127-0.168-0.249l-0.146-0.623
			c-0.182,0.169-0.361,0.316-0.539,0.445c-0.178,0.128-0.363,0.237-0.557,0.329c-0.193,0.091-0.4,0.159-0.619,0.206
			c-0.221,0.047-0.463,0.07-0.729,0.07c-0.279,0-0.543-0.039-0.787-0.116c-0.246-0.076-0.459-0.194-0.641-0.354
			c-0.182-0.158-0.326-0.356-0.43-0.595c-0.105-0.238-0.158-0.516-0.158-0.833c0-0.28,0.076-0.55,0.227-0.809
			c0.152-0.259,0.4-0.491,0.742-0.696c0.344-0.205,0.791-0.373,1.344-0.504c0.555-0.131,1.234-0.205,2.041-0.224v-0.519
			c0-0.536-0.113-0.938-0.342-1.204c-0.23-0.266-0.566-0.398-1.01-0.398c-0.299,0-0.549,0.037-0.752,0.111
			c-0.203,0.075-0.377,0.158-0.525,0.249c-0.146,0.091-0.275,0.174-0.385,0.248c-0.109,0.075-0.223,0.112-0.34,0.112
			c-0.092,0-0.174-0.025-0.24-0.077c-0.068-0.051-0.123-0.112-0.164-0.182L187.043,69.761z M191.047,72.722
			c-0.555,0.019-1.027,0.062-1.414,0.13s-0.701,0.157-0.945,0.27c-0.242,0.111-0.418,0.244-0.523,0.396
			c-0.107,0.151-0.162,0.32-0.162,0.507c0,0.178,0.029,0.331,0.088,0.459s0.137,0.233,0.238,0.315
			c0.1,0.081,0.217,0.141,0.354,0.178c0.135,0.038,0.281,0.057,0.441,0.057c0.209,0,0.402-0.021,0.576-0.063
			c0.176-0.042,0.34-0.102,0.494-0.179c0.154-0.076,0.301-0.171,0.441-0.283c0.139-0.112,0.277-0.24,0.412-0.385V72.722z"/>
		<path fill="#5F5F5F" d="M195.506,70.132c0.229-0.467,0.504-0.833,0.826-1.099c0.322-0.267,0.709-0.399,1.162-0.399
			c0.154,0,0.301,0.018,0.438,0.053c0.139,0.035,0.258,0.087,0.361,0.157l-0.092,1.029c-0.033,0.126-0.109,0.188-0.23,0.188
			c-0.066,0-0.164-0.013-0.295-0.038s-0.27-0.038-0.42-0.038c-0.219,0-0.412,0.031-0.58,0.094c-0.168,0.063-0.318,0.156-0.451,0.28
			c-0.135,0.124-0.252,0.275-0.354,0.455c-0.104,0.18-0.199,0.384-0.287,0.612v4.452h-1.365v-7.112h0.783
			c0.15,0,0.252,0.027,0.305,0.081c0.055,0.054,0.092,0.148,0.115,0.283L195.506,70.132z"/>
		<path fill="#5F5F5F" d="M199.168,69.761c0.396-0.378,0.826-0.66,1.291-0.847s0.975-0.28,1.529-0.28
			c0.406,0,0.766,0.066,1.078,0.199c0.312,0.134,0.576,0.319,0.791,0.557c0.215,0.238,0.377,0.523,0.486,0.854
			s0.164,0.697,0.164,1.099v4.536h-0.609c-0.135,0-0.236-0.022-0.307-0.066s-0.127-0.127-0.168-0.249l-0.148-0.623
			c-0.182,0.169-0.361,0.316-0.539,0.445c-0.176,0.128-0.361,0.237-0.557,0.329c-0.193,0.091-0.398,0.159-0.619,0.206
			c-0.219,0.047-0.461,0.07-0.727,0.07c-0.281,0-0.543-0.039-0.789-0.116c-0.244-0.076-0.457-0.194-0.641-0.354
			c-0.182-0.158-0.324-0.356-0.43-0.595s-0.158-0.516-0.158-0.833c0-0.28,0.076-0.55,0.229-0.809
			c0.15-0.259,0.398-0.491,0.742-0.696c0.342-0.205,0.791-0.373,1.344-0.504s1.232-0.205,2.041-0.224v-0.519
			c0-0.536-0.115-0.938-0.344-1.204c-0.229-0.266-0.564-0.398-1.008-0.398c-0.299,0-0.549,0.037-0.752,0.111
			c-0.203,0.075-0.379,0.158-0.525,0.249s-0.275,0.174-0.385,0.248c-0.109,0.075-0.223,0.112-0.34,0.112
			c-0.094,0-0.174-0.025-0.242-0.077c-0.066-0.051-0.121-0.112-0.164-0.182L199.168,69.761z M203.172,72.722
			c-0.557,0.019-1.027,0.062-1.414,0.13c-0.389,0.067-0.703,0.157-0.945,0.27c-0.242,0.111-0.418,0.244-0.525,0.396
			s-0.16,0.32-0.16,0.507c0,0.178,0.027,0.331,0.086,0.459s0.139,0.233,0.238,0.315c0.102,0.081,0.219,0.141,0.354,0.178
			c0.137,0.038,0.283,0.057,0.441,0.057c0.211,0,0.402-0.021,0.578-0.063c0.174-0.042,0.34-0.102,0.492-0.179
			c0.154-0.076,0.301-0.171,0.441-0.283s0.277-0.24,0.414-0.385V72.722z"/>
		<path fill="#5F5F5F" d="M207.623,69.754c0.152-0.163,0.314-0.312,0.482-0.448c0.168-0.135,0.346-0.251,0.535-0.347
			c0.189-0.095,0.393-0.17,0.609-0.224s0.449-0.08,0.697-0.08c0.391,0,0.734,0.065,1.031,0.195c0.297,0.131,0.545,0.314,0.746,0.55
			s0.352,0.52,0.455,0.851c0.102,0.331,0.154,0.697,0.154,1.099v4.529h-1.373V71.35c0-0.508-0.117-0.903-0.35-1.187
			c-0.234-0.282-0.59-0.423-1.07-0.423c-0.352,0-0.678,0.083-0.984,0.248c-0.305,0.166-0.59,0.391-0.85,0.676v5.215h-1.365v-7.112
			h0.818c0.191,0,0.311,0.091,0.357,0.273L207.623,69.754z"/>
		<path fill="#5F5F5F" d="M220.916,75.879h-1.373v-6.006h-3.57v4.165c0,0.28,0.07,0.488,0.207,0.626
			c0.139,0.138,0.314,0.207,0.529,0.207c0.125,0,0.234-0.017,0.324-0.049c0.092-0.033,0.17-0.069,0.234-0.108
			c0.066-0.04,0.121-0.076,0.168-0.109c0.047-0.032,0.09-0.049,0.127-0.049c0.047,0,0.082,0.011,0.107,0.032
			c0.027,0.021,0.053,0.055,0.082,0.101l0.406,0.658c-0.225,0.206-0.49,0.364-0.799,0.477c-0.309,0.111-0.627,0.168-0.959,0.168
			c-0.574,0-1.016-0.161-1.326-0.483s-0.467-0.781-0.467-1.379v-4.256h-0.824c-0.08,0-0.146-0.024-0.201-0.073
			c-0.053-0.05-0.08-0.123-0.08-0.221v-0.553l1.162-0.161l0.301-2.121c0.02-0.079,0.055-0.142,0.109-0.186
			c0.053-0.045,0.123-0.066,0.207-0.066h0.691v2.387h4.943V75.879z M221.223,66.527c0,0.126-0.025,0.246-0.076,0.36
			s-0.121,0.215-0.207,0.301s-0.188,0.154-0.305,0.203c-0.115,0.049-0.238,0.073-0.363,0.073c-0.127,0-0.246-0.024-0.357-0.073
			s-0.211-0.117-0.297-0.203s-0.154-0.187-0.203-0.301s-0.074-0.234-0.074-0.36c0-0.131,0.025-0.255,0.074-0.371
			c0.049-0.117,0.117-0.219,0.203-0.305c0.086-0.087,0.186-0.154,0.297-0.203s0.23-0.073,0.357-0.073
			c0.125,0,0.248,0.024,0.363,0.073c0.117,0.049,0.219,0.116,0.305,0.203c0.086,0.086,0.156,0.188,0.207,0.305
			C221.197,66.272,221.223,66.396,221.223,66.527z"/>
		<path fill="#5F5F5F" d="M228.854,65.547v10.332h-0.826c-0.191,0-0.311-0.091-0.357-0.273l-0.119-0.818
			c-0.303,0.359-0.646,0.647-1.033,0.864c-0.385,0.217-0.828,0.325-1.332,0.325c-0.406,0-0.773-0.079-1.104-0.237
			c-0.328-0.159-0.609-0.392-0.844-0.697c-0.232-0.306-0.412-0.685-0.539-1.137c-0.125-0.453-0.188-0.974-0.188-1.562
			c0-0.527,0.068-1.018,0.209-1.47c0.141-0.453,0.344-0.845,0.609-1.176c0.266-0.332,0.588-0.592,0.967-0.781
			c0.377-0.188,0.805-0.283,1.279-0.283c0.43,0,0.795,0.07,1.096,0.21c0.301,0.141,0.57,0.339,0.809,0.595v-3.892H228.854z
			 M227.48,70.489c-0.223-0.294-0.465-0.5-0.725-0.616c-0.258-0.117-0.549-0.175-0.871-0.175c-0.625,0-1.109,0.225-1.453,0.675
			c-0.342,0.451-0.514,1.107-0.514,1.971c0,0.453,0.039,0.839,0.115,1.158c0.078,0.32,0.189,0.581,0.336,0.784
			s0.328,0.353,0.543,0.448s0.457,0.144,0.729,0.144c0.396,0,0.738-0.089,1.029-0.266c0.289-0.178,0.559-0.428,0.811-0.749V70.489z"
			/>
		<path fill="#5F5F5F" d="M230.582,69.761c0.396-0.378,0.828-0.66,1.291-0.847c0.465-0.187,0.975-0.28,1.529-0.28
			c0.406,0,0.766,0.066,1.078,0.199c0.312,0.134,0.576,0.319,0.791,0.557c0.215,0.238,0.377,0.523,0.486,0.854
			c0.111,0.331,0.166,0.697,0.166,1.099v4.536h-0.609c-0.135,0-0.238-0.022-0.309-0.066s-0.125-0.127-0.168-0.249l-0.146-0.623
			c-0.182,0.169-0.361,0.316-0.539,0.445c-0.178,0.128-0.363,0.237-0.557,0.329c-0.193,0.091-0.4,0.159-0.619,0.206
			c-0.221,0.047-0.463,0.07-0.729,0.07c-0.279,0-0.543-0.039-0.787-0.116c-0.246-0.076-0.459-0.194-0.641-0.354
			c-0.182-0.158-0.326-0.356-0.43-0.595c-0.105-0.238-0.158-0.516-0.158-0.833c0-0.28,0.076-0.55,0.227-0.809
			c0.152-0.259,0.4-0.491,0.742-0.696c0.344-0.205,0.791-0.373,1.344-0.504c0.555-0.131,1.234-0.205,2.041-0.224v-0.519
			c0-0.536-0.113-0.938-0.342-1.204c-0.23-0.266-0.566-0.398-1.01-0.398c-0.299,0-0.549,0.037-0.752,0.111
			c-0.203,0.075-0.377,0.158-0.525,0.249c-0.146,0.091-0.275,0.174-0.385,0.248c-0.109,0.075-0.223,0.112-0.34,0.112
			c-0.092,0-0.174-0.025-0.24-0.077c-0.068-0.051-0.123-0.112-0.164-0.182L230.582,69.761z M234.586,72.722
			c-0.555,0.019-1.027,0.062-1.414,0.13s-0.701,0.157-0.945,0.27c-0.242,0.111-0.418,0.244-0.523,0.396
			c-0.107,0.151-0.162,0.32-0.162,0.507c0,0.178,0.029,0.331,0.088,0.459s0.137,0.233,0.238,0.315
			c0.1,0.081,0.217,0.141,0.354,0.178c0.135,0.038,0.281,0.057,0.441,0.057c0.209,0,0.402-0.021,0.576-0.063
			c0.176-0.042,0.34-0.102,0.494-0.179c0.154-0.076,0.301-0.171,0.441-0.283c0.139-0.112,0.277-0.24,0.412-0.385V72.722z"/>
	</g>
	<path fill="#BA539F" d="M50.5,24.5l-30,8v36l30,8l30-8v-36L50.5,24.5z M24.492,65.559L24.469,38.5L48.5,44.908v27.053
		L24.492,65.559z M24.469,34.5l10.016-2.671L60.5,38.767v0.008l-10,2.667L24.469,34.5z M76.508,65.559L52.5,71.961V44.908l8-2.133
		v9.75l8-2.133v-9.75l8.031-2.142L76.508,65.559z M68.5,36.642v-0.008l-26.017-6.938l8.017-2.138L76.531,34.5L68.5,36.642z"/>
</g>
</svg>
