<?xml version="1.0" encoding="utf-8"?>
<!-- Generator: Adobe Illustrator 15.0.0, SVG Export Plug-In . SVG Version: 6.00 Build 0)  -->
<!DOCTYPE svg PUBLIC "-//W3C//DTD SVG 1.1//EN" "http://www.w3.org/Graphics/SVG/1.1/DTD/svg11.dtd">
<svg version="1.1" xmlns="http://www.w3.org/2000/svg" xmlns:xlink="http://www.w3.org/1999/xlink" x="0px" y="0px" width="285px"
	 height="101px" viewBox="0 0 285 101" enable-background="new 0 0 285 101" xml:space="preserve">
<g id="Layer_1">
	<g>
		<rect fill="#D2D2D2" width="285" height="101"/>
		<rect x="1" y="1" fill="#FFFFFF" width="283" height="99"/>
	</g>
</g>
<g id="Layer_2" display="none">
	<rect display="inline" fill="#D2D2D2" width="101" height="101"/>
</g>
<g id="Layer_3">
	<g>
		<path fill="#B9529F" d="M105.741,27.525v4.708h5.962v2.365h-5.962v6.479h-2.97V25.171h10.032v2.354H105.741z"/>
		<path fill="#B9529F" d="M127.642,41.077h-2.674c-0.506,0-0.872-0.198-1.1-0.594l-3.344-5.093c-0.125-0.19-0.263-0.326-0.413-0.407
			c-0.15-0.081-0.373-0.121-0.666-0.121h-1.265v6.215h-2.959V25.171h4.851c1.078,0,2.003,0.112,2.777,0.335
			c0.773,0.224,1.408,0.537,1.903,0.94s0.859,0.885,1.095,1.446c0.234,0.561,0.352,1.179,0.352,1.854
			c0,0.536-0.079,1.042-0.236,1.518c-0.158,0.477-0.385,0.909-0.683,1.298c-0.297,0.389-0.663,0.73-1.1,1.023
			c-0.437,0.293-0.933,0.524-1.49,0.693c0.19,0.11,0.366,0.24,0.528,0.39c0.16,0.15,0.308,0.329,0.439,0.534L127.642,41.077z
			 M120.03,32.739c0.557,0,1.043-0.07,1.458-0.209c0.414-0.139,0.755-0.332,1.023-0.578c0.268-0.246,0.468-0.537,0.6-0.875
			s0.198-0.708,0.198-1.111c0-0.807-0.266-1.426-0.798-1.859c-0.532-0.432-1.344-0.649-2.437-0.649h-1.892v5.28H120.03z"/>
		<path fill="#B9529F" d="M132.338,27.525v4.411h5.565v2.277h-5.565v4.499h7.062v2.365h-10.031V25.171H139.4v2.354H132.338z"/>
		<path fill="#B9529F" d="M153.129,27.602h-4.797v13.475h-2.959V27.602h-4.795v-2.431h12.551V27.602z"/>
		<path fill="#B9529F" d="M158.189,27.525v4.411h5.564v2.277h-5.564v4.499h7.061v2.365h-10.031V25.171h10.031v2.354H158.189z"/>
		<path fill="#B9529F" d="M186.326,33.102v6.435c-0.807,0.594-1.666,1.028-2.58,1.304c-0.912,0.275-1.891,0.412-2.932,0.412
			c-1.297,0-2.473-0.201-3.525-0.605c-1.053-0.403-1.951-0.964-2.695-1.683s-1.318-1.577-1.721-2.574
			c-0.404-0.997-0.605-2.086-0.605-3.267c0-1.195,0.195-2.292,0.584-3.289c0.389-0.997,0.939-1.855,1.654-2.574
			s1.582-1.276,2.602-1.672s2.164-0.594,3.432-0.594c0.646,0,1.25,0.051,1.811,0.154c0.561,0.103,1.082,0.244,1.562,0.424
			c0.479,0.18,0.918,0.398,1.314,0.654c0.395,0.257,0.758,0.539,1.088,0.847l-0.846,1.342c-0.133,0.213-0.305,0.343-0.518,0.391
			c-0.213,0.048-0.443-0.005-0.693-0.16c-0.242-0.139-0.484-0.278-0.727-0.418c-0.242-0.139-0.512-0.26-0.809-0.363
			s-0.631-0.187-1-0.253c-0.371-0.066-0.797-0.099-1.281-0.099c-0.785,0-1.494,0.132-2.129,0.396s-1.176,0.642-1.623,1.133
			c-0.447,0.492-0.791,1.082-1.033,1.771c-0.242,0.689-0.363,1.459-0.363,2.31c0,0.91,0.131,1.722,0.391,2.437
			c0.26,0.715,0.627,1.32,1.1,1.815c0.473,0.495,1.043,0.873,1.711,1.133c0.666,0.26,1.412,0.39,2.232,0.39
			c0.588,0,1.111-0.062,1.574-0.187c0.461-0.125,0.912-0.293,1.352-0.506v-2.882h-2.002c-0.189,0-0.338-0.053-0.445-0.16
			c-0.105-0.106-0.16-0.236-0.16-0.391v-1.672H186.326z"/>
		<path fill="#B9529F" d="M201.605,41.077h-2.674c-0.506,0-0.871-0.198-1.1-0.594l-3.344-5.093c-0.125-0.19-0.262-0.326-0.412-0.407
			c-0.15-0.081-0.373-0.121-0.666-0.121h-1.264v6.215h-2.959V25.171h4.85c1.078,0,2.004,0.112,2.777,0.335s1.408,0.537,1.904,0.94
			c0.494,0.403,0.859,0.885,1.094,1.446s0.352,1.179,0.352,1.854c0,0.536-0.078,1.042-0.236,1.518s-0.385,0.909-0.682,1.298
			c-0.297,0.389-0.664,0.73-1.1,1.023c-0.438,0.293-0.934,0.524-1.49,0.693c0.189,0.11,0.365,0.24,0.527,0.39
			c0.162,0.15,0.309,0.329,0.439,0.534L201.605,41.077z M193.994,32.739c0.557,0,1.043-0.07,1.457-0.209s0.756-0.332,1.023-0.578
			s0.467-0.537,0.6-0.875c0.131-0.337,0.197-0.708,0.197-1.111c0-0.807-0.266-1.426-0.797-1.859
			c-0.533-0.432-1.344-0.649-2.438-0.649h-1.891v5.28H193.994z"/>
		<path fill="#B9529F" d="M216.961,41.077h-2.287c-0.258,0-0.467-0.064-0.627-0.192c-0.162-0.128-0.283-0.288-0.363-0.479
			l-1.189-3.245h-6.588l-1.188,3.245c-0.059,0.168-0.174,0.323-0.342,0.462s-0.377,0.209-0.627,0.209h-2.311l6.26-15.906h3.014
			L216.961,41.077z M211.736,35.071l-1.936-5.291c-0.096-0.235-0.195-0.513-0.297-0.836c-0.104-0.323-0.207-0.671-0.309-1.045
			c-0.096,0.374-0.195,0.725-0.297,1.051c-0.104,0.326-0.203,0.61-0.297,0.853l-1.926,5.269H211.736z M213.814,20.606l-3.562,3.146
			c-0.148,0.132-0.287,0.213-0.418,0.242c-0.133,0.029-0.301,0.044-0.508,0.044h-1.969l2.299-2.981
			c0.074-0.103,0.146-0.185,0.221-0.248c0.074-0.062,0.154-0.108,0.242-0.137s0.186-0.048,0.291-0.055
			c0.107-0.007,0.232-0.011,0.379-0.011H213.814z"/>
		<path fill="#B9529F" d="M229.721,27.602h-4.797v13.475h-2.959V27.602h-4.795v-2.431h12.551V27.602z"/>
		<path fill="#B9529F" d="M234.781,41.077h-2.971V25.171h2.971V41.077z"/>
		<path fill="#B9529F" d="M246.803,28.064c-0.088,0.154-0.182,0.266-0.279,0.335c-0.1,0.07-0.223,0.104-0.369,0.104
			c-0.154,0-0.32-0.057-0.5-0.17c-0.18-0.113-0.395-0.24-0.645-0.379c-0.25-0.139-0.541-0.266-0.875-0.379s-0.727-0.17-1.182-0.17
			c-0.41,0-0.77,0.049-1.078,0.148s-0.566,0.236-0.775,0.413c-0.209,0.176-0.365,0.387-0.467,0.632
			c-0.104,0.246-0.154,0.515-0.154,0.809c0,0.374,0.104,0.686,0.312,0.935c0.209,0.249,0.486,0.462,0.83,0.638
			c0.346,0.176,0.738,0.334,1.178,0.473s0.891,0.288,1.354,0.445c0.461,0.158,0.912,0.341,1.354,0.55
			c0.439,0.209,0.832,0.473,1.176,0.792c0.346,0.319,0.621,0.709,0.83,1.171s0.314,1.023,0.314,1.683
			c0,0.719-0.123,1.392-0.369,2.019s-0.605,1.173-1.078,1.639c-0.473,0.466-1.051,0.833-1.732,1.1s-1.463,0.401-2.342,0.401
			c-0.506,0-1.006-0.049-1.496-0.148c-0.492-0.099-0.963-0.24-1.414-0.423c-0.451-0.183-0.875-0.403-1.271-0.66
			c-0.395-0.256-0.746-0.542-1.055-0.858l0.869-1.419c0.072-0.103,0.168-0.188,0.285-0.258s0.242-0.104,0.375-0.104
			c0.182,0,0.381,0.075,0.594,0.225c0.213,0.15,0.465,0.317,0.758,0.5c0.295,0.184,0.637,0.351,1.029,0.5
			c0.393,0.15,0.863,0.226,1.414,0.226c0.842,0,1.496-0.2,1.957-0.599c0.463-0.4,0.693-0.974,0.693-1.722
			c0-0.418-0.104-0.759-0.312-1.023c-0.209-0.264-0.486-0.486-0.832-0.666c-0.344-0.18-0.736-0.332-1.176-0.457
			c-0.441-0.125-0.889-0.26-1.342-0.407c-0.455-0.146-0.902-0.322-1.344-0.528c-0.439-0.205-0.832-0.473-1.176-0.803
			c-0.346-0.33-0.621-0.742-0.83-1.237s-0.314-1.105-0.314-1.832c0-0.579,0.115-1.144,0.348-1.694
			c0.23-0.55,0.566-1.038,1.006-1.463s0.982-0.767,1.627-1.023c0.646-0.257,1.387-0.385,2.223-0.385c0.939,0,1.805,0.147,2.596,0.44
			c0.793,0.293,1.467,0.704,2.023,1.232L246.803,28.064z"/>
	</g>
	<g>
		<path fill="#5F5F5F" d="M103.737,53.038v3.367h4.032v1.211h-4.032v4.263h-1.498V51.827h6.23v1.211H103.737z"/>
		<path fill="#5F5F5F" d="M111.164,56.132c0.229-0.467,0.504-0.833,0.826-1.099c0.322-0.267,0.709-0.399,1.162-0.399
			c0.154,0,0.3,0.018,0.438,0.053s0.258,0.087,0.361,0.157l-0.091,1.029c-0.033,0.126-0.109,0.188-0.231,0.188
			c-0.065,0-0.164-0.013-0.294-0.038c-0.131-0.025-0.271-0.038-0.42-0.038c-0.219,0-0.413,0.031-0.581,0.094
			c-0.168,0.063-0.318,0.156-0.452,0.28c-0.133,0.124-0.251,0.275-0.354,0.455s-0.198,0.384-0.287,0.612v4.452h-1.365v-7.112h0.784
			c0.149,0,0.25,0.027,0.304,0.081s0.092,0.148,0.116,0.283L111.164,56.132z"/>
		<path fill="#5F5F5F" d="M120.845,60.864c-0.168,0.195-0.362,0.365-0.581,0.507c-0.219,0.143-0.453,0.258-0.7,0.347
			c-0.248,0.089-0.503,0.154-0.767,0.196s-0.524,0.062-0.78,0.062c-0.49,0-0.944-0.083-1.362-0.248
			c-0.417-0.166-0.779-0.408-1.085-0.729c-0.306-0.319-0.543-0.716-0.714-1.189s-0.255-1.019-0.255-1.635
			c0-0.494,0.077-0.955,0.231-1.383c0.154-0.427,0.375-0.799,0.661-1.116c0.287-0.317,0.638-0.566,1.054-0.749
			c0.415-0.182,0.882-0.272,1.4-0.272c0.434,0,0.834,0.071,1.201,0.213c0.366,0.143,0.683,0.35,0.948,0.62
			c0.266,0.271,0.475,0.604,0.626,1.001c0.152,0.396,0.228,0.849,0.228,1.357c0,0.21-0.023,0.352-0.07,0.424
			c-0.047,0.072-0.133,0.108-0.259,0.108h-4.662c0.014,0.425,0.074,0.795,0.182,1.109c0.107,0.315,0.256,0.577,0.445,0.788
			c0.189,0.21,0.414,0.366,0.675,0.469s0.553,0.153,0.875,0.153c0.303,0,0.566-0.034,0.788-0.104s0.413-0.146,0.574-0.228
			c0.161-0.082,0.296-0.157,0.406-0.228s0.207-0.104,0.291-0.104c0.112,0,0.198,0.042,0.259,0.126L120.845,60.864z M119.718,57.532
			c0-0.271-0.039-0.521-0.115-0.749c-0.077-0.229-0.19-0.428-0.34-0.596s-0.331-0.298-0.546-0.392s-0.462-0.14-0.742-0.14
			c-0.574,0-1.025,0.165-1.354,0.497c-0.329,0.331-0.538,0.791-0.626,1.379H119.718z"/>
		<path fill="#5F5F5F" d="M124.646,61.991c-0.574,0-1.016-0.161-1.327-0.483s-0.465-0.781-0.465-1.379v-4.256h-0.826
			c-0.079,0-0.146-0.024-0.199-0.073c-0.054-0.05-0.081-0.123-0.081-0.221v-0.553l1.155-0.161l0.308-2.121
			c0.019-0.079,0.055-0.142,0.108-0.186c0.054-0.045,0.123-0.066,0.207-0.066h0.693v2.387h2.016v0.994h-2.016v4.165
			c0,0.28,0.069,0.488,0.207,0.626s0.314,0.207,0.529,0.207c0.126,0,0.234-0.017,0.325-0.049c0.091-0.033,0.169-0.069,0.235-0.108
			c0.065-0.04,0.121-0.076,0.168-0.109c0.046-0.032,0.088-0.049,0.126-0.049c0.046,0,0.083,0.011,0.108,0.032
			c0.025,0.021,0.052,0.055,0.081,0.101l0.406,0.658c-0.224,0.206-0.49,0.364-0.798,0.477
			C125.296,61.935,124.977,61.991,124.646,61.991z"/>
		<path fill="#5F5F5F" d="M133.326,60.864c-0.168,0.195-0.361,0.365-0.581,0.507c-0.219,0.143-0.452,0.258-0.7,0.347
			c-0.247,0.089-0.503,0.154-0.767,0.196s-0.523,0.062-0.78,0.062c-0.49,0-0.943-0.083-1.361-0.248
			c-0.417-0.166-0.779-0.408-1.085-0.729c-0.306-0.319-0.543-0.716-0.714-1.189s-0.255-1.019-0.255-1.635
			c0-0.494,0.077-0.955,0.231-1.383c0.154-0.427,0.375-0.799,0.661-1.116c0.287-0.317,0.638-0.566,1.054-0.749
			c0.415-0.182,0.882-0.272,1.4-0.272c0.434,0,0.834,0.071,1.2,0.213c0.366,0.143,0.683,0.35,0.948,0.62
			c0.267,0.271,0.475,0.604,0.627,1.001c0.151,0.396,0.228,0.849,0.228,1.357c0,0.21-0.023,0.352-0.07,0.424
			s-0.133,0.108-0.259,0.108h-4.662c0.014,0.425,0.074,0.795,0.182,1.109c0.107,0.315,0.256,0.577,0.445,0.788
			c0.189,0.21,0.414,0.366,0.675,0.469s0.553,0.153,0.875,0.153c0.304,0,0.565-0.034,0.788-0.104
			c0.221-0.07,0.412-0.146,0.573-0.228s0.297-0.157,0.406-0.228s0.206-0.104,0.291-0.104c0.111,0,0.198,0.042,0.259,0.126
			L133.326,60.864z M132.199,57.532c0-0.271-0.038-0.521-0.115-0.749s-0.19-0.428-0.34-0.596s-0.331-0.298-0.546-0.392
			s-0.462-0.14-0.742-0.14c-0.574,0-1.025,0.165-1.354,0.497c-0.329,0.331-0.538,0.791-0.626,1.379H132.199z"/>
		<path fill="#5F5F5F" d="M146.92,56.986v3.92c-0.51,0.363-1.051,0.636-1.625,0.815s-1.199,0.27-1.875,0.27
			c-0.813,0-1.546-0.126-2.203-0.378c-0.655-0.252-1.214-0.604-1.676-1.058c-0.463-0.452-0.818-0.994-1.068-1.624
			c-0.249-0.63-0.374-1.322-0.374-2.079c0-0.76,0.12-1.457,0.36-2.089c0.24-0.633,0.585-1.174,1.032-1.624
			c0.448-0.45,0.991-0.801,1.628-1.05c0.637-0.25,1.352-0.375,2.146-0.375c0.4,0,0.773,0.03,1.115,0.091
			c0.344,0.062,0.662,0.147,0.957,0.259c0.293,0.112,0.564,0.247,0.814,0.403s0.482,0.332,0.697,0.528l-0.428,0.672
			c-0.064,0.107-0.152,0.175-0.26,0.203c-0.105,0.027-0.223,0.002-0.35-0.077c-0.121-0.07-0.256-0.151-0.402-0.245
			c-0.146-0.093-0.322-0.18-0.525-0.259s-0.439-0.147-0.709-0.203c-0.271-0.056-0.592-0.084-0.959-0.084
			c-0.551,0-1.048,0.09-1.492,0.27s-0.821,0.438-1.134,0.773s-0.554,0.741-0.722,1.215s-0.252,1.004-0.252,1.592
			c0,0.616,0.089,1.168,0.267,1.656c0.177,0.487,0.428,0.9,0.752,1.238c0.324,0.339,0.719,0.597,1.184,0.773
			c0.464,0.178,0.983,0.267,1.557,0.267c0.225,0,0.434-0.013,0.627-0.039c0.193-0.025,0.379-0.062,0.557-0.108
			c0.178-0.046,0.348-0.104,0.514-0.175s0.33-0.146,0.494-0.23v-2.107h-1.484c-0.094,0-0.17-0.028-0.227-0.084
			c-0.059-0.056-0.088-0.126-0.088-0.21v-0.847H146.92z"/>
		<path fill="#5F5F5F" d="M149.936,56.132c0.229-0.467,0.504-0.833,0.826-1.099c0.322-0.267,0.709-0.399,1.162-0.399
			c0.154,0,0.301,0.018,0.438,0.053c0.139,0.035,0.258,0.087,0.361,0.157l-0.092,1.029c-0.033,0.126-0.109,0.188-0.23,0.188
			c-0.066,0-0.164-0.013-0.295-0.038s-0.27-0.038-0.42-0.038c-0.219,0-0.412,0.031-0.58,0.094c-0.168,0.063-0.318,0.156-0.451,0.28
			c-0.135,0.124-0.252,0.275-0.354,0.455c-0.104,0.18-0.199,0.384-0.287,0.612v4.452h-1.365v-7.112h0.783
			c0.15,0,0.252,0.027,0.305,0.081c0.055,0.054,0.092,0.148,0.115,0.283L149.936,56.132z"/>
		<path fill="#5F5F5F" d="M153.598,55.761c0.396-0.378,0.826-0.66,1.291-0.847s0.975-0.28,1.529-0.28
			c0.406,0,0.766,0.066,1.078,0.199c0.312,0.134,0.576,0.319,0.791,0.557c0.215,0.238,0.377,0.523,0.486,0.854
			s0.164,0.697,0.164,1.099v4.536h-0.609c-0.135,0-0.236-0.022-0.307-0.066s-0.127-0.127-0.168-0.249l-0.148-0.623
			c-0.182,0.169-0.361,0.316-0.539,0.445c-0.176,0.128-0.361,0.237-0.557,0.329c-0.193,0.091-0.398,0.159-0.619,0.206
			c-0.219,0.047-0.461,0.07-0.727,0.07c-0.281,0-0.543-0.039-0.789-0.116c-0.244-0.076-0.457-0.194-0.641-0.354
			c-0.182-0.158-0.324-0.356-0.43-0.595s-0.158-0.516-0.158-0.833c0-0.28,0.076-0.55,0.229-0.809
			c0.15-0.259,0.398-0.491,0.742-0.696c0.342-0.205,0.791-0.373,1.344-0.504s1.232-0.205,2.041-0.224v-0.519
			c0-0.536-0.115-0.938-0.344-1.204c-0.229-0.266-0.564-0.398-1.008-0.398c-0.299,0-0.549,0.037-0.752,0.111
			c-0.203,0.075-0.379,0.158-0.525,0.249s-0.275,0.174-0.385,0.248c-0.109,0.075-0.223,0.112-0.34,0.112
			c-0.094,0-0.174-0.025-0.242-0.077c-0.066-0.051-0.121-0.112-0.164-0.182L153.598,55.761z M157.602,58.722
			c-0.557,0.019-1.027,0.062-1.414,0.13c-0.389,0.067-0.703,0.157-0.945,0.27c-0.242,0.111-0.418,0.244-0.525,0.396
			s-0.16,0.32-0.16,0.507c0,0.178,0.027,0.331,0.086,0.459s0.139,0.233,0.238,0.315c0.102,0.081,0.219,0.141,0.354,0.178
			c0.137,0.038,0.283,0.057,0.441,0.057c0.211,0,0.402-0.021,0.578-0.063c0.174-0.042,0.34-0.102,0.492-0.179
			c0.154-0.076,0.301-0.171,0.441-0.283s0.277-0.24,0.414-0.385V58.722z M158.398,51.715l-1.658,1.806
			c-0.07,0.08-0.139,0.135-0.203,0.165c-0.066,0.03-0.152,0.045-0.26,0.045h-0.826l1.037-1.693c0.064-0.107,0.137-0.188,0.213-0.242
			c0.078-0.053,0.197-0.08,0.361-0.08H158.398z"/>
		<path fill="#5F5F5F" d="M167.514,61.879h-1.373v-6.006h-3.57v4.165c0,0.28,0.07,0.488,0.207,0.626
			c0.139,0.138,0.314,0.207,0.529,0.207c0.125,0,0.234-0.017,0.324-0.049c0.092-0.033,0.17-0.069,0.234-0.108
			c0.066-0.04,0.121-0.076,0.168-0.109c0.047-0.032,0.09-0.049,0.127-0.049c0.047,0,0.082,0.011,0.107,0.032
			c0.027,0.021,0.053,0.055,0.082,0.101l0.406,0.658c-0.225,0.206-0.49,0.364-0.799,0.477c-0.309,0.111-0.627,0.168-0.959,0.168
			c-0.574,0-1.016-0.161-1.326-0.483s-0.467-0.781-0.467-1.379v-4.256h-0.824c-0.08,0-0.146-0.024-0.201-0.073
			c-0.053-0.05-0.08-0.123-0.08-0.221v-0.553l1.162-0.161l0.301-2.121c0.02-0.079,0.055-0.142,0.109-0.186
			c0.053-0.045,0.123-0.066,0.207-0.066h0.691v2.387h4.943V61.879z M167.82,52.527c0,0.126-0.025,0.246-0.076,0.36
			s-0.121,0.215-0.207,0.301s-0.188,0.154-0.305,0.203c-0.115,0.049-0.238,0.073-0.363,0.073c-0.127,0-0.246-0.024-0.357-0.073
			s-0.211-0.117-0.297-0.203s-0.154-0.187-0.203-0.301s-0.074-0.234-0.074-0.36c0-0.131,0.025-0.255,0.074-0.371
			c0.049-0.117,0.117-0.219,0.203-0.305s0.186-0.154,0.297-0.203s0.23-0.074,0.357-0.074c0.125,0,0.248,0.025,0.363,0.074
			c0.117,0.049,0.219,0.117,0.305,0.203s0.156,0.188,0.207,0.305C167.795,52.272,167.82,52.396,167.82,52.527z"/>
		<path fill="#5F5F5F" d="M173.688,55.992c-0.039,0.061-0.078,0.104-0.119,0.129c-0.043,0.026-0.096,0.039-0.162,0.039
			c-0.074,0-0.156-0.025-0.248-0.077s-0.201-0.107-0.328-0.168c-0.129-0.061-0.279-0.117-0.453-0.168
			c-0.172-0.052-0.377-0.077-0.615-0.077c-0.195,0-0.375,0.024-0.535,0.073c-0.162,0.049-0.299,0.117-0.41,0.203
			c-0.111,0.087-0.197,0.189-0.258,0.309c-0.062,0.118-0.092,0.246-0.092,0.381c0,0.178,0.053,0.324,0.158,0.441
			c0.104,0.116,0.242,0.217,0.412,0.301s0.363,0.16,0.582,0.228c0.217,0.067,0.438,0.139,0.664,0.214
			c0.227,0.074,0.447,0.159,0.664,0.255c0.219,0.096,0.412,0.215,0.582,0.357s0.309,0.313,0.412,0.515
			c0.105,0.2,0.158,0.445,0.158,0.734c0,0.332-0.059,0.639-0.178,0.921s-0.295,0.526-0.525,0.731s-0.518,0.366-0.857,0.482
			c-0.342,0.117-0.73,0.176-1.17,0.176c-0.49,0-0.941-0.082-1.357-0.245s-0.764-0.371-1.043-0.623l0.322-0.525
			c0.037-0.065,0.084-0.115,0.141-0.15c0.055-0.035,0.129-0.053,0.223-0.053c0.09,0,0.18,0.033,0.273,0.099s0.205,0.137,0.336,0.213
			c0.131,0.077,0.289,0.147,0.477,0.21c0.186,0.063,0.42,0.095,0.699,0.095c0.234,0,0.436-0.029,0.609-0.087
			c0.172-0.059,0.316-0.138,0.43-0.238c0.115-0.101,0.199-0.216,0.256-0.347s0.084-0.269,0.084-0.413
			c0-0.187-0.053-0.342-0.156-0.466c-0.105-0.123-0.244-0.229-0.414-0.318c-0.17-0.088-0.365-0.165-0.584-0.23
			c-0.221-0.065-0.443-0.136-0.672-0.21c-0.229-0.075-0.453-0.161-0.672-0.259c-0.221-0.099-0.414-0.222-0.586-0.371
			c-0.17-0.149-0.307-0.332-0.412-0.546c-0.105-0.215-0.158-0.477-0.158-0.784c0-0.275,0.059-0.539,0.172-0.791
			c0.115-0.252,0.279-0.474,0.498-0.665c0.217-0.191,0.484-0.345,0.805-0.459c0.318-0.114,0.684-0.171,1.096-0.171
			c0.471,0,0.896,0.074,1.277,0.224c0.379,0.149,0.705,0.354,0.977,0.616L173.688,55.992z"/>
		<path fill="#5F5F5F" d="M180.406,55.831c0.15-0.178,0.311-0.34,0.48-0.486c0.17-0.147,0.354-0.273,0.549-0.378
			c0.195-0.105,0.404-0.187,0.627-0.245c0.221-0.059,0.459-0.088,0.711-0.088c0.406,0,0.773,0.079,1.102,0.238
			c0.33,0.158,0.611,0.392,0.844,0.7c0.232,0.308,0.414,0.688,0.543,1.141c0.127,0.453,0.191,0.973,0.191,1.561
			c0,0.528-0.07,1.017-0.213,1.467s-0.346,0.842-0.609,1.173s-0.586,0.592-0.965,0.78c-0.381,0.189-0.809,0.283-1.285,0.283
			c-0.424,0-0.789-0.069-1.092-0.21c-0.303-0.14-0.574-0.336-0.812-0.588v3.087h-1.365v-9.499h0.82c0.191,0,0.309,0.091,0.355,0.273
			L180.406,55.831z M180.477,60.129c0.225,0.294,0.465,0.499,0.725,0.616c0.26,0.116,0.549,0.175,0.871,0.175
			c0.625,0,1.109-0.226,1.453-0.676s0.514-1.106,0.514-1.971c0-0.452-0.037-0.838-0.115-1.158c-0.076-0.319-0.189-0.581-0.336-0.784
			s-0.328-0.352-0.543-0.447c-0.213-0.096-0.457-0.144-0.727-0.144c-0.396,0-0.742,0.088-1.033,0.266s-0.561,0.43-0.809,0.756
			V60.129z"/>
		<path fill="#5F5F5F" d="M186.805,55.761c0.396-0.378,0.828-0.66,1.291-0.847c0.465-0.187,0.975-0.28,1.529-0.28
			c0.406,0,0.766,0.066,1.078,0.199c0.312,0.134,0.576,0.319,0.791,0.557c0.215,0.238,0.377,0.523,0.486,0.854
			c0.111,0.331,0.166,0.697,0.166,1.099v4.536h-0.609c-0.135,0-0.238-0.022-0.309-0.066s-0.125-0.127-0.168-0.249l-0.146-0.623
			c-0.182,0.169-0.361,0.316-0.539,0.445c-0.178,0.128-0.363,0.237-0.557,0.329c-0.193,0.091-0.4,0.159-0.619,0.206
			c-0.221,0.047-0.463,0.07-0.729,0.07c-0.279,0-0.543-0.039-0.787-0.116c-0.246-0.076-0.459-0.194-0.641-0.354
			c-0.182-0.158-0.326-0.356-0.43-0.595c-0.105-0.238-0.158-0.516-0.158-0.833c0-0.28,0.076-0.55,0.227-0.809
			c0.152-0.259,0.4-0.491,0.742-0.696c0.344-0.205,0.791-0.373,1.344-0.504c0.555-0.131,1.234-0.205,2.041-0.224v-0.519
			c0-0.536-0.113-0.938-0.342-1.204c-0.23-0.266-0.566-0.398-1.01-0.398c-0.299,0-0.549,0.037-0.752,0.111
			c-0.203,0.075-0.377,0.158-0.525,0.249c-0.146,0.091-0.275,0.174-0.385,0.248c-0.109,0.075-0.223,0.112-0.34,0.112
			c-0.092,0-0.174-0.025-0.24-0.077c-0.068-0.051-0.123-0.112-0.164-0.182L186.805,55.761z M190.809,58.722
			c-0.555,0.019-1.027,0.062-1.414,0.13s-0.701,0.157-0.945,0.27c-0.242,0.111-0.418,0.244-0.523,0.396
			c-0.107,0.151-0.162,0.32-0.162,0.507c0,0.178,0.029,0.331,0.088,0.459s0.137,0.233,0.238,0.315
			c0.1,0.081,0.217,0.141,0.354,0.178c0.135,0.038,0.281,0.057,0.441,0.057c0.209,0,0.402-0.021,0.576-0.063
			c0.176-0.042,0.34-0.102,0.494-0.179c0.154-0.076,0.301-0.171,0.441-0.283c0.139-0.112,0.277-0.24,0.412-0.385V58.722z"/>
		<path fill="#5F5F5F" d="M195.268,56.132c0.229-0.467,0.504-0.833,0.826-1.099c0.32-0.267,0.709-0.399,1.162-0.399
			c0.152,0,0.299,0.018,0.438,0.053c0.137,0.035,0.258,0.087,0.359,0.157l-0.09,1.029c-0.033,0.126-0.111,0.188-0.232,0.188
			c-0.064,0-0.162-0.013-0.293-0.038s-0.271-0.038-0.42-0.038c-0.221,0-0.414,0.031-0.582,0.094
			c-0.168,0.063-0.318,0.156-0.451,0.28s-0.25,0.275-0.354,0.455s-0.199,0.384-0.287,0.612v4.452h-1.365v-7.112h0.785
			c0.148,0,0.25,0.027,0.305,0.081c0.053,0.054,0.092,0.148,0.115,0.283L195.268,56.132z"/>
		<path fill="#5F5F5F" d="M198.928,55.761c0.396-0.378,0.828-0.66,1.291-0.847c0.465-0.187,0.975-0.28,1.529-0.28
			c0.406,0,0.766,0.066,1.078,0.199c0.312,0.134,0.576,0.319,0.791,0.557c0.215,0.238,0.377,0.523,0.486,0.854
			c0.111,0.331,0.166,0.697,0.166,1.099v4.536h-0.609c-0.135,0-0.238-0.022-0.309-0.066s-0.125-0.127-0.168-0.249l-0.146-0.623
			c-0.182,0.169-0.361,0.316-0.539,0.445c-0.178,0.128-0.363,0.237-0.557,0.329c-0.193,0.091-0.4,0.159-0.619,0.206
			c-0.221,0.047-0.463,0.07-0.729,0.07c-0.279,0-0.543-0.039-0.787-0.116c-0.246-0.076-0.459-0.194-0.641-0.354
			c-0.182-0.158-0.326-0.356-0.43-0.595c-0.105-0.238-0.158-0.516-0.158-0.833c0-0.28,0.076-0.55,0.227-0.809
			c0.152-0.259,0.4-0.491,0.742-0.696c0.344-0.205,0.791-0.373,1.344-0.504c0.555-0.131,1.234-0.205,2.041-0.224v-0.519
			c0-0.536-0.113-0.938-0.342-1.204c-0.23-0.266-0.566-0.398-1.01-0.398c-0.299,0-0.549,0.037-0.752,0.111
			c-0.203,0.075-0.377,0.158-0.525,0.249c-0.146,0.091-0.275,0.174-0.385,0.248c-0.109,0.075-0.223,0.112-0.34,0.112
			c-0.092,0-0.174-0.025-0.24-0.077c-0.068-0.051-0.123-0.112-0.164-0.182L198.928,55.761z M202.932,58.722
			c-0.555,0.019-1.027,0.062-1.414,0.13s-0.701,0.157-0.945,0.27c-0.242,0.111-0.418,0.244-0.523,0.396
			c-0.107,0.151-0.162,0.32-0.162,0.507c0,0.178,0.029,0.331,0.088,0.459s0.137,0.233,0.238,0.315
			c0.1,0.081,0.217,0.141,0.354,0.178c0.135,0.038,0.281,0.057,0.441,0.057c0.209,0,0.402-0.021,0.576-0.063
			c0.176-0.042,0.34-0.102,0.494-0.179c0.154-0.076,0.301-0.171,0.441-0.283c0.139-0.112,0.277-0.24,0.412-0.385V58.722z"/>
		<path fill="#5F5F5F" d="M211.863,61.991c-0.572,0-1.016-0.161-1.326-0.483s-0.465-0.781-0.465-1.379v-4.256h-0.826
			c-0.08,0-0.146-0.024-0.199-0.073c-0.055-0.05-0.08-0.123-0.08-0.221v-0.553l1.154-0.161l0.309-2.121
			c0.018-0.079,0.055-0.142,0.107-0.186c0.055-0.045,0.123-0.066,0.207-0.066h0.693v2.387h2.016v0.994h-2.016v4.165
			c0,0.28,0.068,0.488,0.207,0.626c0.137,0.138,0.312,0.207,0.527,0.207c0.127,0,0.234-0.017,0.326-0.049
			c0.09-0.033,0.168-0.069,0.234-0.108c0.064-0.04,0.121-0.076,0.168-0.109c0.047-0.032,0.088-0.049,0.125-0.049
			c0.047,0,0.084,0.011,0.109,0.032c0.025,0.021,0.053,0.055,0.08,0.101l0.406,0.658c-0.225,0.206-0.49,0.364-0.799,0.477
			C212.516,61.935,212.195,61.991,211.863,61.991z"/>
		<path fill="#5F5F5F" d="M217.736,54.655c0.523,0,0.996,0.085,1.418,0.255c0.422,0.171,0.781,0.416,1.078,0.735
			s0.523,0.705,0.682,1.155s0.238,0.955,0.238,1.515c0,0.561-0.08,1.066-0.238,1.52s-0.385,0.838-0.682,1.155
			s-0.656,0.561-1.078,0.731c-0.422,0.17-0.895,0.255-1.418,0.255c-0.527,0-1.002-0.085-1.424-0.255
			c-0.422-0.171-0.783-0.414-1.082-0.731s-0.529-0.702-0.689-1.155s-0.242-0.959-0.242-1.52c0-0.56,0.082-1.064,0.242-1.515
			s0.391-0.836,0.689-1.155s0.66-0.564,1.082-0.735C216.734,54.74,217.209,54.655,217.736,54.655z M217.736,60.913
			c0.672,0,1.174-0.227,1.506-0.679c0.33-0.453,0.496-1.09,0.496-1.911s-0.166-1.46-0.496-1.915
			c-0.332-0.455-0.834-0.683-1.506-0.683c-0.682,0-1.189,0.228-1.521,0.683c-0.334,0.455-0.502,1.094-0.502,1.915
			s0.168,1.458,0.502,1.911C216.547,60.687,217.055,60.913,217.736,60.913z"/>
		<path fill="#5F5F5F" d="M228.629,51.547v10.332h-0.826c-0.191,0-0.311-0.091-0.357-0.273l-0.119-0.818
			c-0.303,0.359-0.646,0.647-1.033,0.864c-0.385,0.217-0.828,0.325-1.332,0.325c-0.406,0-0.773-0.079-1.104-0.237
			c-0.328-0.159-0.609-0.392-0.844-0.697c-0.232-0.306-0.412-0.685-0.539-1.137c-0.125-0.453-0.188-0.974-0.188-1.562
			c0-0.527,0.068-1.018,0.209-1.47c0.141-0.453,0.344-0.845,0.609-1.176c0.266-0.332,0.588-0.592,0.967-0.781
			c0.377-0.188,0.805-0.283,1.279-0.283c0.43,0,0.795,0.07,1.096,0.21c0.301,0.141,0.57,0.339,0.809,0.595v-3.892H228.629z
			 M227.256,56.489c-0.223-0.294-0.465-0.5-0.725-0.616c-0.258-0.117-0.549-0.175-0.871-0.175c-0.625,0-1.109,0.225-1.453,0.675
			c-0.342,0.451-0.514,1.107-0.514,1.971c0,0.453,0.039,0.839,0.115,1.158c0.078,0.32,0.189,0.581,0.336,0.784
			s0.328,0.353,0.543,0.448s0.457,0.144,0.729,0.144c0.396,0,0.738-0.089,1.029-0.266c0.289-0.178,0.559-0.428,0.811-0.749V56.489z"
			/>
		<path fill="#5F5F5F" d="M233.57,54.655c0.523,0,0.996,0.085,1.418,0.255c0.422,0.171,0.781,0.416,1.078,0.735
			s0.523,0.705,0.682,1.155s0.238,0.955,0.238,1.515c0,0.561-0.08,1.066-0.238,1.52s-0.385,0.838-0.682,1.155
			s-0.656,0.561-1.078,0.731c-0.422,0.17-0.895,0.255-1.418,0.255c-0.527,0-1.002-0.085-1.424-0.255
			c-0.422-0.171-0.783-0.414-1.082-0.731s-0.529-0.702-0.689-1.155s-0.242-0.959-0.242-1.52c0-0.56,0.082-1.064,0.242-1.515
			s0.391-0.836,0.689-1.155s0.66-0.564,1.082-0.735C232.568,54.74,233.043,54.655,233.57,54.655z M233.57,60.913
			c0.672,0,1.174-0.227,1.506-0.679c0.33-0.453,0.496-1.09,0.496-1.911s-0.166-1.46-0.496-1.915
			c-0.332-0.455-0.834-0.683-1.506-0.683c-0.682,0-1.189,0.228-1.521,0.683c-0.334,0.455-0.502,1.094-0.502,1.915
			s0.168,1.458,0.502,1.911C232.381,60.687,232.889,60.913,233.57,60.913z"/>
		<path fill="#5F5F5F" d="M245.072,54.655c0.521,0,0.994,0.085,1.416,0.255c0.424,0.171,0.783,0.416,1.078,0.735
			c0.297,0.319,0.525,0.705,0.684,1.155s0.238,0.955,0.238,1.515c0,0.561-0.08,1.066-0.238,1.52s-0.387,0.838-0.684,1.155
			c-0.295,0.317-0.654,0.561-1.078,0.731c-0.422,0.17-0.895,0.255-1.416,0.255c-0.527,0-1.002-0.085-1.426-0.255
			c-0.422-0.171-0.783-0.414-1.08-0.731c-0.299-0.317-0.529-0.702-0.689-1.155c-0.162-0.453-0.242-0.959-0.242-1.52
			c0-0.56,0.08-1.064,0.242-1.515c0.16-0.45,0.391-0.836,0.689-1.155c0.297-0.319,0.658-0.564,1.08-0.735
			C244.07,54.74,244.545,54.655,245.072,54.655z M245.072,60.913c0.672,0,1.174-0.227,1.504-0.679
			c0.332-0.453,0.498-1.09,0.498-1.911s-0.166-1.46-0.498-1.915c-0.33-0.455-0.832-0.683-1.504-0.683
			c-0.682,0-1.189,0.228-1.523,0.683s-0.5,1.094-0.5,1.915s0.166,1.458,0.5,1.911C243.883,60.687,244.391,60.913,245.072,60.913z"/>
		<path fill="#5F5F5F" d="M105.515,65.827c0.63,0,1.17,0.061,1.621,0.182c0.45,0.121,0.82,0.297,1.109,0.525
			c0.289,0.229,0.502,0.505,0.641,0.829c0.137,0.324,0.206,0.692,0.206,1.103c0,0.243-0.037,0.477-0.112,0.7
			s-0.189,0.433-0.343,0.626c-0.154,0.194-0.348,0.368-0.581,0.521c-0.233,0.154-0.509,0.283-0.826,0.386
			c1.46,0.289,2.191,1.052,2.191,2.289c0,0.429-0.079,0.82-0.238,1.172c-0.159,0.353-0.39,0.657-0.693,0.914
			c-0.304,0.257-0.677,0.455-1.12,0.595s-0.948,0.21-1.512,0.21h-3.619V65.827H105.515z M103.73,66.996v3.29h1.715
			c0.733,0,1.278-0.148,1.635-0.444c0.357-0.297,0.536-0.697,0.536-1.201c0-0.573-0.17-0.991-0.511-1.253
			c-0.341-0.261-0.871-0.392-1.589-0.392H103.73z M105.83,74.696c0.378,0,0.701-0.045,0.969-0.134
			c0.269-0.088,0.488-0.21,0.658-0.363c0.17-0.154,0.295-0.338,0.375-0.55c0.079-0.212,0.119-0.444,0.119-0.696
			c0-0.5-0.173-0.893-0.518-1.18c-0.346-0.287-0.88-0.431-1.603-0.431h-2.1v3.354H105.83z"/>
		<path fill="#5F5F5F" d="M112.34,70.132c0.229-0.467,0.504-0.833,0.826-1.099c0.322-0.267,0.709-0.399,1.162-0.399
			c0.154,0,0.3,0.018,0.438,0.053s0.258,0.087,0.361,0.157l-0.091,1.029c-0.033,0.126-0.109,0.188-0.231,0.188
			c-0.065,0-0.164-0.013-0.294-0.038c-0.131-0.025-0.271-0.038-0.42-0.038c-0.219,0-0.413,0.031-0.581,0.094
			c-0.168,0.063-0.318,0.156-0.452,0.28c-0.133,0.124-0.251,0.275-0.354,0.455s-0.198,0.384-0.287,0.612v4.452h-1.365v-7.112h0.784
			c0.149,0,0.25,0.027,0.304,0.081s0.092,0.148,0.116,0.283L112.34,70.132z"/>
		<path fill="#5F5F5F" d="M116,69.761c0.397-0.378,0.827-0.66,1.292-0.847s0.974-0.28,1.53-0.28c0.406,0,0.765,0.066,1.078,0.199
			c0.313,0.134,0.577,0.319,0.791,0.557c0.215,0.238,0.377,0.523,0.487,0.854c0.109,0.331,0.165,0.697,0.165,1.099v4.536h-0.609
			c-0.135,0-0.238-0.022-0.308-0.066c-0.07-0.044-0.126-0.127-0.168-0.249l-0.147-0.623c-0.182,0.169-0.362,0.316-0.539,0.445
			c-0.178,0.128-0.363,0.237-0.557,0.329c-0.194,0.091-0.4,0.159-0.62,0.206s-0.462,0.07-0.728,0.07
			c-0.28,0-0.542-0.039-0.788-0.116c-0.245-0.076-0.458-0.194-0.64-0.354c-0.182-0.158-0.326-0.356-0.431-0.595
			s-0.158-0.516-0.158-0.833c0-0.28,0.076-0.55,0.228-0.809c0.152-0.259,0.399-0.491,0.742-0.696s0.791-0.373,1.344-0.504
			c0.553-0.131,1.233-0.205,2.04-0.224v-0.519c0-0.536-0.114-0.938-0.343-1.204c-0.229-0.266-0.564-0.398-1.008-0.398
			c-0.299,0-0.55,0.037-0.752,0.111c-0.203,0.075-0.378,0.158-0.525,0.249s-0.275,0.174-0.385,0.248
			c-0.11,0.075-0.223,0.112-0.339,0.112c-0.094,0-0.174-0.025-0.242-0.077c-0.068-0.051-0.123-0.112-0.165-0.182L116,69.761z
			 M120.004,72.722c-0.555,0.019-1.026,0.062-1.414,0.13c-0.388,0.067-0.703,0.157-0.945,0.27c-0.243,0.111-0.417,0.244-0.525,0.396
			s-0.161,0.32-0.161,0.507c0,0.178,0.029,0.331,0.088,0.459c0.058,0.128,0.137,0.233,0.238,0.315
			c0.1,0.081,0.218,0.141,0.354,0.178c0.135,0.038,0.282,0.057,0.441,0.057c0.21,0,0.402-0.021,0.578-0.063
			c0.175-0.042,0.339-0.102,0.493-0.179c0.154-0.076,0.301-0.171,0.441-0.283c0.14-0.112,0.277-0.24,0.413-0.385V72.722z"/>
		<path fill="#5F5F5F" d="M127.369,69.992c-0.037,0.061-0.077,0.104-0.119,0.129c-0.042,0.026-0.096,0.039-0.161,0.039
			c-0.075,0-0.158-0.025-0.249-0.077s-0.201-0.107-0.329-0.168s-0.279-0.117-0.452-0.168c-0.172-0.052-0.378-0.077-0.616-0.077
			c-0.196,0-0.375,0.024-0.536,0.073s-0.297,0.117-0.409,0.203c-0.112,0.087-0.199,0.189-0.259,0.309
			c-0.061,0.118-0.091,0.246-0.091,0.381c0,0.178,0.052,0.324,0.157,0.441c0.105,0.116,0.243,0.217,0.413,0.301
			s0.364,0.16,0.581,0.228s0.438,0.139,0.665,0.214c0.226,0.074,0.448,0.159,0.665,0.255c0.217,0.096,0.411,0.215,0.581,0.357
			s0.308,0.313,0.413,0.515c0.105,0.2,0.157,0.445,0.157,0.734c0,0.332-0.06,0.639-0.178,0.921
			c-0.119,0.282-0.294,0.526-0.525,0.731s-0.517,0.366-0.857,0.482c-0.341,0.117-0.73,0.176-1.169,0.176
			c-0.49,0-0.943-0.082-1.358-0.245c-0.416-0.163-0.763-0.371-1.043-0.623l0.322-0.525c0.038-0.065,0.084-0.115,0.14-0.15
			s0.13-0.053,0.224-0.053c0.088,0,0.18,0.033,0.273,0.099s0.205,0.137,0.336,0.213c0.13,0.077,0.289,0.147,0.476,0.21
			c0.187,0.063,0.42,0.095,0.7,0.095c0.233,0,0.437-0.029,0.609-0.087c0.172-0.059,0.316-0.138,0.43-0.238s0.2-0.216,0.256-0.347
			c0.056-0.131,0.084-0.269,0.084-0.413c0-0.187-0.053-0.342-0.158-0.466c-0.105-0.123-0.243-0.229-0.413-0.318
			c-0.17-0.088-0.365-0.165-0.584-0.23s-0.443-0.136-0.672-0.21c-0.229-0.075-0.453-0.161-0.672-0.259
			c-0.22-0.099-0.415-0.222-0.584-0.371c-0.17-0.149-0.308-0.332-0.413-0.546c-0.105-0.215-0.158-0.477-0.158-0.784
			c0-0.275,0.057-0.539,0.171-0.791c0.115-0.252,0.28-0.474,0.497-0.665c0.217-0.191,0.485-0.345,0.805-0.459
			c0.319-0.114,0.685-0.171,1.096-0.171c0.471,0,0.897,0.074,1.277,0.224s0.706,0.354,0.977,0.616L127.369,69.992z"/>
		<path fill="#5F5F5F" d="M130.946,66.569c0,0.126-0.026,0.246-0.077,0.36c-0.052,0.114-0.12,0.215-0.207,0.301
			c-0.086,0.086-0.188,0.154-0.305,0.203c-0.116,0.049-0.237,0.073-0.363,0.073s-0.245-0.024-0.357-0.073s-0.211-0.117-0.298-0.203
			c-0.086-0.086-0.153-0.187-0.202-0.301c-0.049-0.114-0.074-0.234-0.074-0.36c0-0.131,0.024-0.254,0.074-0.368
			c0.049-0.114,0.116-0.215,0.202-0.301c0.087-0.086,0.186-0.154,0.298-0.203s0.231-0.073,0.357-0.073s0.247,0.024,0.363,0.073
			c0.117,0.049,0.219,0.117,0.305,0.203c0.087,0.086,0.155,0.187,0.207,0.301C130.919,66.315,130.946,66.438,130.946,66.569z
			 M130.686,68.767v7.112h-1.364v-7.112H130.686z"/>
		<path fill="#5F5F5F" d="M134.068,65.547v10.332h-1.372V65.547H134.068z"/>
		<path fill="#5F5F5F" d="M140.125,72.111c0,0.848,0.105,1.674,0.317,2.478c0.213,0.804,0.522,1.566,0.931,2.286
			c0.067,0.132,0.086,0.234,0.054,0.306c-0.032,0.072-0.082,0.13-0.149,0.174l-0.522,0.318c-0.3-0.46-0.555-0.917-0.765-1.371
			s-0.381-0.91-0.511-1.368s-0.225-0.921-0.284-1.389c-0.061-0.468-0.091-0.946-0.091-1.434c0-0.492,0.03-0.973,0.091-1.44
			c0.06-0.468,0.154-0.931,0.284-1.389s0.301-0.914,0.511-1.368s0.465-0.911,0.765-1.371l0.522,0.318
			c0.067,0.044,0.117,0.102,0.149,0.174c0.032,0.071,0.014,0.174-0.054,0.306c-0.408,0.72-0.718,1.483-0.931,2.289
			C140.231,70.436,140.125,71.263,140.125,72.111z"/>
		<path fill="#5F5F5F" d="M148.896,74.031c0.072,0,0.135,0.027,0.186,0.084l0.504,0.552c-0.352,0.416-0.779,0.738-1.285,0.966
			c-0.508,0.229-1.115,0.342-1.828,0.342c-0.623,0-1.189-0.107-1.695-0.323c-0.506-0.217-0.938-0.519-1.295-0.906
			c-0.359-0.388-0.635-0.853-0.832-1.393s-0.294-1.134-0.294-1.781c0-0.648,0.103-1.242,0.309-1.782s0.495-1.004,0.868-1.393
			c0.371-0.388,0.816-0.689,1.334-0.905c0.52-0.216,1.092-0.324,1.719-0.324c0.613,0,1.156,0.1,1.633,0.3s0.891,0.466,1.242,0.798
			l-0.42,0.595c-0.027,0.044-0.062,0.08-0.105,0.107c-0.041,0.028-0.098,0.042-0.164,0.042c-0.076,0-0.166-0.038-0.268-0.114
			c-0.102-0.075-0.236-0.16-0.402-0.255c-0.166-0.094-0.371-0.179-0.615-0.255s-0.547-0.114-0.912-0.114
			c-0.428,0-0.82,0.075-1.176,0.226c-0.355,0.149-0.662,0.366-0.92,0.647c-0.258,0.282-0.459,0.628-0.602,1.038
			c-0.141,0.41-0.213,0.873-0.213,1.39c0,0.523,0.074,0.989,0.223,1.397s0.352,0.754,0.611,1.038c0.262,0.284,0.566,0.5,0.918,0.648
			c0.354,0.147,0.732,0.222,1.141,0.222c0.248,0,0.471-0.015,0.67-0.045c0.197-0.03,0.379-0.075,0.545-0.135
			c0.166-0.061,0.324-0.138,0.471-0.231c0.148-0.094,0.295-0.207,0.439-0.339c0.031-0.028,0.064-0.051,0.102-0.069
			C148.818,74.04,148.857,74.031,148.896,74.031z"/>
		<path fill="#5F5F5F" d="M153.234,69.687c0.449,0,0.854,0.073,1.215,0.22c0.363,0.146,0.67,0.355,0.924,0.63
			c0.254,0.273,0.449,0.604,0.586,0.99c0.137,0.386,0.203,0.818,0.203,1.299c0,0.479-0.066,0.914-0.203,1.302
			s-0.332,0.718-0.586,0.99c-0.254,0.271-0.561,0.48-0.924,0.627c-0.361,0.146-0.766,0.219-1.215,0.219
			c-0.451,0-0.859-0.073-1.221-0.219c-0.361-0.146-0.67-0.355-0.926-0.627c-0.258-0.272-0.453-0.603-0.592-0.99
			s-0.207-0.822-0.207-1.302c0-0.48,0.068-0.913,0.207-1.299c0.139-0.387,0.334-0.717,0.592-0.99
			c0.256-0.274,0.564-0.484,0.926-0.63C152.375,69.76,152.783,69.687,153.234,69.687z M153.234,75.051
			c0.576,0,1.006-0.193,1.291-0.582c0.283-0.388,0.426-0.934,0.426-1.638s-0.143-1.251-0.426-1.642
			c-0.285-0.39-0.715-0.585-1.291-0.585c-0.584,0-1.018,0.195-1.305,0.585c-0.285,0.391-0.43,0.938-0.43,1.642
			s0.145,1.25,0.43,1.638C152.217,74.857,152.65,75.051,153.234,75.051z"/>
		<path fill="#5F5F5F" d="M158.562,70.629c0.133-0.14,0.271-0.268,0.414-0.384c0.145-0.116,0.297-0.215,0.459-0.297
			s0.336-0.146,0.523-0.192c0.186-0.046,0.385-0.069,0.596-0.069c0.336,0,0.631,0.057,0.885,0.168
			c0.254,0.112,0.467,0.27,0.639,0.472c0.174,0.202,0.303,0.444,0.391,0.729s0.133,0.599,0.133,0.942v3.882h-1.176v-3.882
			c0-0.437-0.102-0.775-0.301-1.018c-0.199-0.241-0.506-0.362-0.918-0.362c-0.301,0-0.58,0.07-0.844,0.213
			c-0.262,0.142-0.504,0.335-0.729,0.579v4.47h-1.17v-6.096h0.703c0.162,0,0.266,0.078,0.305,0.233L158.562,70.629z"/>
		<path fill="#5F5F5F" d="M164.588,75.879v-5.136l-0.637-0.078c-0.092-0.021-0.168-0.053-0.225-0.1
			c-0.059-0.046-0.088-0.112-0.088-0.2v-0.486h0.949v-0.294c0-0.372,0.059-0.715,0.176-1.029c0.119-0.313,0.297-0.585,0.535-0.812
			c0.236-0.229,0.533-0.405,0.887-0.531s0.77-0.189,1.246-0.189c0.15,0,0.311,0.011,0.479,0.03c0.168,0.021,0.311,0.05,0.428,0.09
			l-0.043,0.612c-0.008,0.08-0.059,0.122-0.15,0.126s-0.219,0.006-0.383,0.006c-0.365,0-0.676,0.036-0.932,0.108
			s-0.465,0.18-0.629,0.324c-0.164,0.144-0.285,0.324-0.359,0.543c-0.076,0.218-0.115,0.471-0.115,0.759v0.258h3.709v6h-1.176V70.73
			h-2.496v5.148H164.588z"/>
		<path fill="#5F5F5F" d="M172.236,70.953c0.197-0.4,0.434-0.714,0.709-0.942c0.275-0.228,0.607-0.342,0.996-0.342
			c0.131,0,0.256,0.015,0.375,0.045c0.117,0.03,0.221,0.075,0.309,0.135l-0.078,0.882c-0.027,0.108-0.094,0.162-0.197,0.162
			c-0.057,0-0.141-0.011-0.252-0.032c-0.113-0.022-0.232-0.033-0.361-0.033c-0.188,0-0.354,0.026-0.498,0.081
			c-0.143,0.054-0.271,0.134-0.387,0.239c-0.113,0.106-0.215,0.236-0.303,0.391s-0.17,0.329-0.246,0.524v3.816h-1.17v-6.096h0.672
			c0.129,0,0.215,0.022,0.262,0.068c0.045,0.046,0.078,0.127,0.098,0.243L172.236,70.953z"/>
		<path fill="#5F5F5F" d="M175.375,70.635c0.34-0.324,0.709-0.565,1.107-0.726c0.396-0.16,0.834-0.24,1.311-0.24
			c0.348,0,0.656,0.057,0.924,0.171s0.494,0.273,0.678,0.478c0.184,0.203,0.322,0.447,0.416,0.731
			c0.096,0.284,0.143,0.598,0.143,0.942v3.888h-0.523c-0.115,0-0.203-0.019-0.264-0.057c-0.059-0.038-0.107-0.109-0.143-0.213
			l-0.127-0.534c-0.156,0.144-0.311,0.271-0.463,0.381c-0.15,0.11-0.311,0.204-0.477,0.282c-0.166,0.077-0.342,0.137-0.531,0.177
			c-0.188,0.04-0.395,0.06-0.623,0.06c-0.24,0-0.465-0.032-0.676-0.099c-0.209-0.066-0.393-0.167-0.549-0.303
			c-0.156-0.137-0.279-0.307-0.369-0.511c-0.09-0.203-0.135-0.441-0.135-0.714c0-0.239,0.064-0.471,0.195-0.692
			c0.131-0.223,0.342-0.421,0.637-0.598c0.293-0.176,0.678-0.319,1.15-0.432c0.475-0.112,1.059-0.176,1.75-0.192v-0.443
			c0-0.46-0.098-0.805-0.295-1.032c-0.195-0.229-0.482-0.342-0.863-0.342c-0.256,0-0.471,0.032-0.645,0.096
			c-0.174,0.064-0.324,0.135-0.451,0.213c-0.125,0.078-0.234,0.149-0.33,0.213c-0.094,0.064-0.189,0.097-0.291,0.097
			c-0.08,0-0.148-0.022-0.207-0.066c-0.057-0.044-0.104-0.096-0.141-0.156L175.375,70.635z M178.807,73.173
			c-0.477,0.016-0.881,0.053-1.213,0.111c-0.332,0.058-0.602,0.135-0.809,0.23c-0.209,0.097-0.359,0.209-0.451,0.339
			c-0.092,0.131-0.137,0.275-0.137,0.436c0,0.152,0.023,0.283,0.074,0.393c0.051,0.11,0.117,0.2,0.203,0.271
			c0.086,0.069,0.188,0.121,0.305,0.152c0.115,0.032,0.24,0.049,0.377,0.049c0.18,0,0.346-0.019,0.496-0.055
			c0.148-0.036,0.291-0.087,0.422-0.152c0.133-0.066,0.258-0.147,0.379-0.243c0.119-0.097,0.238-0.206,0.354-0.33V73.173z"/>
		<path fill="#5F5F5F" d="M184.398,70.635c0.34-0.324,0.709-0.565,1.107-0.726s0.836-0.24,1.311-0.24
			c0.348,0,0.656,0.057,0.924,0.171c0.27,0.114,0.494,0.273,0.678,0.478c0.186,0.203,0.324,0.447,0.418,0.731
			s0.141,0.598,0.141,0.942v3.888h-0.521c-0.117,0-0.205-0.019-0.264-0.057c-0.061-0.038-0.109-0.109-0.145-0.213l-0.125-0.534
			c-0.156,0.144-0.311,0.271-0.463,0.381s-0.311,0.204-0.477,0.282c-0.166,0.077-0.344,0.137-0.531,0.177s-0.396,0.06-0.625,0.06
			c-0.24,0-0.465-0.032-0.674-0.099c-0.211-0.066-0.393-0.167-0.549-0.303c-0.156-0.137-0.279-0.307-0.369-0.511
			c-0.09-0.203-0.135-0.441-0.135-0.714c0-0.239,0.064-0.471,0.193-0.692c0.131-0.223,0.344-0.421,0.637-0.598
			c0.295-0.176,0.678-0.319,1.152-0.432s1.057-0.176,1.748-0.192v-0.443c0-0.46-0.098-0.805-0.293-1.032
			c-0.195-0.229-0.484-0.342-0.863-0.342c-0.258,0-0.473,0.032-0.646,0.096c-0.174,0.064-0.324,0.135-0.449,0.213
			c-0.127,0.078-0.236,0.149-0.33,0.213c-0.094,0.064-0.191,0.097-0.291,0.097c-0.08,0-0.148-0.022-0.207-0.066
			s-0.105-0.096-0.141-0.156L184.398,70.635z M187.83,73.173c-0.475,0.016-0.879,0.053-1.211,0.111
			c-0.332,0.058-0.602,0.135-0.811,0.23c-0.207,0.097-0.357,0.209-0.449,0.339c-0.092,0.131-0.139,0.275-0.139,0.436
			c0,0.152,0.025,0.283,0.076,0.393c0.049,0.11,0.117,0.2,0.203,0.271c0.086,0.069,0.188,0.121,0.303,0.152
			c0.115,0.032,0.242,0.049,0.379,0.049c0.18,0,0.344-0.019,0.494-0.055s0.291-0.087,0.424-0.152
			c0.131-0.066,0.258-0.147,0.377-0.243c0.121-0.097,0.238-0.206,0.354-0.33V73.173z"/>
		<path fill="#5F5F5F" d="M194.143,70.833c-0.033,0.052-0.066,0.089-0.102,0.111c-0.037,0.021-0.082,0.032-0.139,0.032
			c-0.064,0-0.135-0.021-0.213-0.065s-0.172-0.092-0.283-0.145c-0.109-0.052-0.238-0.1-0.387-0.144s-0.324-0.066-0.527-0.066
			c-0.168,0-0.32,0.021-0.459,0.063s-0.256,0.1-0.352,0.174s-0.17,0.162-0.221,0.264c-0.053,0.103-0.078,0.211-0.078,0.327
			c0,0.152,0.045,0.278,0.135,0.378c0.09,0.101,0.207,0.187,0.354,0.258c0.146,0.072,0.312,0.138,0.498,0.195
			c0.186,0.059,0.375,0.119,0.57,0.183c0.193,0.064,0.383,0.138,0.57,0.22c0.186,0.082,0.352,0.184,0.498,0.306
			c0.145,0.122,0.264,0.27,0.354,0.441s0.135,0.382,0.135,0.63c0,0.284-0.051,0.547-0.152,0.789
			c-0.104,0.242-0.252,0.451-0.451,0.627c-0.197,0.176-0.443,0.313-0.734,0.414c-0.293,0.1-0.627,0.149-1.002,0.149
			c-0.42,0-0.809-0.069-1.164-0.21c-0.355-0.14-0.654-0.317-0.895-0.534l0.277-0.449c0.031-0.057,0.07-0.1,0.119-0.129
			c0.049-0.03,0.111-0.046,0.191-0.046c0.076,0,0.154,0.028,0.234,0.084c0.08,0.057,0.176,0.117,0.289,0.184
			c0.111,0.065,0.246,0.126,0.406,0.18s0.361,0.081,0.602,0.081c0.199,0,0.373-0.024,0.521-0.075
			c0.148-0.05,0.271-0.117,0.369-0.204c0.098-0.086,0.17-0.185,0.219-0.297c0.049-0.111,0.072-0.229,0.072-0.354
			c0-0.16-0.045-0.293-0.135-0.399c-0.09-0.105-0.209-0.196-0.355-0.272c-0.145-0.076-0.312-0.143-0.5-0.198
			s-0.381-0.116-0.576-0.18c-0.195-0.064-0.389-0.139-0.576-0.223s-0.355-0.189-0.5-0.317c-0.146-0.128-0.266-0.284-0.355-0.469
			c-0.09-0.184-0.135-0.407-0.135-0.672c0-0.235,0.049-0.462,0.146-0.678c0.1-0.216,0.24-0.406,0.428-0.57
			c0.186-0.164,0.416-0.295,0.689-0.393s0.586-0.147,0.939-0.147c0.402,0,0.768,0.064,1.094,0.192s0.605,0.304,0.838,0.528
			L194.143,70.833z"/>
		<path fill="#5F5F5F" d="M205.494,75.879h-1.141c-0.227,0-0.393-0.09-0.498-0.27l-2.129-2.988
			c-0.068-0.101-0.143-0.171-0.223-0.213s-0.199-0.063-0.359-0.063h-0.834v3.534h-1.279v-8.616h2.484
			c0.557,0,1.035,0.058,1.438,0.171c0.402,0.114,0.734,0.276,0.996,0.486s0.455,0.463,0.582,0.759
			c0.125,0.296,0.189,0.628,0.189,0.996c0,0.3-0.047,0.582-0.139,0.846c-0.092,0.265-0.227,0.501-0.404,0.711
			c-0.178,0.211-0.396,0.392-0.652,0.544c-0.256,0.151-0.545,0.268-0.869,0.348c0.16,0.096,0.299,0.229,0.414,0.402L205.494,75.879z
			 M201.475,71.415c0.328,0,0.617-0.04,0.867-0.12s0.459-0.193,0.627-0.339c0.168-0.146,0.293-0.32,0.377-0.522
			c0.084-0.201,0.127-0.425,0.127-0.669c0-0.496-0.164-0.87-0.49-1.122s-0.814-0.378-1.467-0.378h-1.205v3.15H201.475z"/>
		<path fill="#5F5F5F" d="M211.363,75.009c-0.145,0.168-0.311,0.313-0.498,0.436c-0.189,0.122-0.389,0.221-0.602,0.297
			c-0.211,0.076-0.43,0.132-0.656,0.168s-0.449,0.054-0.668,0.054c-0.42,0-0.811-0.071-1.168-0.213s-0.668-0.35-0.93-0.624
			s-0.467-0.614-0.611-1.021c-0.146-0.405-0.221-0.873-0.221-1.4c0-0.424,0.066-0.819,0.199-1.186
			c0.131-0.365,0.32-0.685,0.566-0.957c0.246-0.271,0.547-0.485,0.902-0.642c0.357-0.156,0.758-0.234,1.201-0.234
			c0.371,0,0.715,0.062,1.029,0.184c0.312,0.122,0.584,0.299,0.812,0.531c0.229,0.231,0.406,0.518,0.537,0.857
			c0.129,0.34,0.195,0.729,0.195,1.164c0,0.18-0.021,0.301-0.061,0.363c-0.039,0.062-0.113,0.093-0.223,0.093h-3.996
			c0.014,0.364,0.064,0.681,0.156,0.951c0.092,0.27,0.219,0.495,0.381,0.675s0.355,0.314,0.58,0.402
			c0.223,0.088,0.473,0.132,0.75,0.132c0.26,0,0.484-0.03,0.674-0.09c0.191-0.061,0.355-0.125,0.492-0.195
			c0.139-0.07,0.254-0.135,0.348-0.195c0.096-0.06,0.178-0.09,0.25-0.09c0.096,0,0.17,0.036,0.223,0.108L211.363,75.009z
			 M210.396,72.153c0-0.232-0.033-0.446-0.1-0.643c-0.064-0.195-0.162-0.366-0.291-0.51c-0.127-0.145-0.283-0.256-0.467-0.336
			s-0.396-0.12-0.637-0.12c-0.492,0-0.879,0.142-1.16,0.426c-0.283,0.284-0.461,0.678-0.537,1.183H210.396z"/>
		<path fill="#5F5F5F" d="M217.908,70.011v0.438c0,0.144-0.09,0.233-0.27,0.27l-0.654,0.096c0.057,0.124,0.1,0.256,0.131,0.394
			c0.033,0.138,0.049,0.283,0.049,0.435c0,0.301-0.059,0.571-0.174,0.813s-0.275,0.449-0.48,0.621
			c-0.203,0.172-0.447,0.304-0.729,0.396c-0.281,0.093-0.592,0.139-0.928,0.139c-0.275,0-0.533-0.03-0.773-0.091
			c-0.119,0.072-0.211,0.151-0.273,0.237s-0.092,0.171-0.092,0.255c0,0.141,0.059,0.244,0.176,0.312
			c0.119,0.067,0.273,0.117,0.463,0.146c0.189,0.03,0.408,0.049,0.654,0.058c0.246,0.008,0.496,0.021,0.75,0.039
			c0.254,0.018,0.504,0.05,0.75,0.096s0.463,0.12,0.654,0.222c0.189,0.103,0.344,0.242,0.461,0.42
			c0.117,0.179,0.178,0.409,0.178,0.693c0,0.264-0.066,0.52-0.195,0.768c-0.131,0.248-0.32,0.469-0.566,0.66
			c-0.248,0.192-0.551,0.346-0.906,0.462c-0.357,0.116-0.76,0.174-1.213,0.174c-0.451,0-0.846-0.044-1.18-0.132
			s-0.611-0.206-0.834-0.354c-0.221-0.148-0.387-0.32-0.498-0.517c-0.109-0.195-0.164-0.399-0.164-0.611
			c0-0.296,0.092-0.547,0.275-0.753s0.439-0.367,0.762-0.483c-0.176-0.08-0.314-0.189-0.42-0.327
			c-0.104-0.138-0.154-0.321-0.154-0.549c0-0.088,0.016-0.179,0.047-0.273c0.031-0.094,0.082-0.188,0.146-0.281
			c0.066-0.095,0.148-0.184,0.246-0.268s0.211-0.16,0.34-0.228c-0.301-0.168-0.537-0.392-0.709-0.669
			c-0.172-0.278-0.258-0.604-0.258-0.976c0-0.3,0.059-0.569,0.174-0.81c0.117-0.24,0.277-0.446,0.484-0.618
			c0.205-0.172,0.451-0.304,0.738-0.396c0.285-0.093,0.598-0.139,0.938-0.139c0.529,0,0.982,0.11,1.363,0.33H217.908z
			 M216.721,76.197c0-0.145-0.041-0.26-0.121-0.346s-0.188-0.153-0.326-0.204c-0.139-0.05-0.299-0.086-0.482-0.107
			c-0.186-0.022-0.379-0.039-0.58-0.051c-0.201-0.013-0.408-0.023-0.621-0.033c-0.211-0.01-0.416-0.029-0.611-0.058
			c-0.209,0.104-0.379,0.23-0.514,0.379c-0.133,0.147-0.201,0.321-0.201,0.521c0,0.128,0.033,0.248,0.1,0.36
			c0.066,0.111,0.168,0.209,0.307,0.291c0.137,0.082,0.311,0.146,0.521,0.191c0.209,0.046,0.461,0.069,0.752,0.069
			c0.289,0,0.543-0.025,0.764-0.075c0.219-0.05,0.404-0.12,0.555-0.21s0.264-0.197,0.342-0.321S216.721,76.345,216.721,76.197z
			 M214.854,72.837c0.209,0,0.391-0.028,0.549-0.084s0.291-0.135,0.396-0.237c0.105-0.102,0.186-0.225,0.24-0.369
			c0.055-0.144,0.082-0.302,0.082-0.474c0-0.352-0.107-0.633-0.322-0.843c-0.213-0.21-0.529-0.315-0.945-0.315
			c-0.412,0-0.725,0.105-0.938,0.315c-0.215,0.21-0.322,0.491-0.322,0.843c0,0.172,0.027,0.329,0.082,0.471
			c0.053,0.143,0.133,0.265,0.24,0.366c0.105,0.103,0.236,0.183,0.395,0.24S214.65,72.837,214.854,72.837z"/>
		<path fill="#5F5F5F" d="M220.08,70.953c0.195-0.4,0.432-0.714,0.707-0.942c0.277-0.228,0.609-0.342,0.996-0.342
			c0.133,0,0.258,0.015,0.375,0.045c0.119,0.03,0.221,0.075,0.311,0.135l-0.078,0.882c-0.029,0.108-0.096,0.162-0.199,0.162
			c-0.055,0-0.141-0.011-0.252-0.032c-0.111-0.022-0.232-0.033-0.359-0.033c-0.188,0-0.354,0.026-0.498,0.081
			c-0.145,0.054-0.273,0.134-0.387,0.239c-0.115,0.106-0.215,0.236-0.303,0.391s-0.17,0.329-0.246,0.524v3.816h-1.17v-6.096h0.672
			c0.127,0,0.215,0.022,0.26,0.068c0.047,0.046,0.08,0.127,0.1,0.243L220.08,70.953z"/>
		<path fill="#5F5F5F" d="M223.219,70.635c0.34-0.324,0.709-0.565,1.107-0.726c0.396-0.16,0.834-0.24,1.311-0.24
			c0.348,0,0.656,0.057,0.924,0.171s0.494,0.273,0.678,0.478c0.184,0.203,0.322,0.447,0.416,0.731
			c0.096,0.284,0.143,0.598,0.143,0.942v3.888h-0.523c-0.115,0-0.203-0.019-0.264-0.057c-0.059-0.038-0.107-0.109-0.143-0.213
			l-0.127-0.534c-0.156,0.144-0.311,0.271-0.463,0.381c-0.15,0.11-0.311,0.204-0.477,0.282c-0.166,0.077-0.342,0.137-0.531,0.177
			c-0.188,0.04-0.395,0.06-0.623,0.06c-0.24,0-0.465-0.032-0.676-0.099c-0.209-0.066-0.393-0.167-0.549-0.303
			c-0.156-0.137-0.279-0.307-0.369-0.511c-0.09-0.203-0.135-0.441-0.135-0.714c0-0.239,0.064-0.471,0.195-0.692
			c0.131-0.223,0.342-0.421,0.637-0.598c0.293-0.176,0.678-0.319,1.15-0.432c0.475-0.112,1.059-0.176,1.75-0.192v-0.443
			c0-0.46-0.098-0.805-0.295-1.032c-0.195-0.229-0.482-0.342-0.863-0.342c-0.256,0-0.471,0.032-0.645,0.096
			c-0.174,0.064-0.324,0.135-0.451,0.213c-0.125,0.078-0.234,0.149-0.33,0.213c-0.094,0.064-0.189,0.097-0.291,0.097
			c-0.08,0-0.148-0.022-0.207-0.066c-0.057-0.044-0.104-0.096-0.141-0.156L223.219,70.635z M226.65,73.173
			c-0.477,0.016-0.881,0.053-1.213,0.111c-0.332,0.058-0.602,0.135-0.809,0.23c-0.209,0.097-0.359,0.209-0.451,0.339
			c-0.092,0.131-0.137,0.275-0.137,0.436c0,0.152,0.023,0.283,0.074,0.393c0.051,0.11,0.117,0.2,0.203,0.271
			c0.086,0.069,0.188,0.121,0.305,0.152c0.115,0.032,0.24,0.049,0.377,0.049c0.18,0,0.346-0.019,0.496-0.055
			c0.148-0.036,0.291-0.087,0.422-0.152c0.133-0.066,0.258-0.147,0.379-0.243c0.119-0.097,0.238-0.206,0.354-0.33V73.173z"/>
		<path fill="#5F5F5F" d="M232.961,70.833c-0.031,0.052-0.066,0.089-0.102,0.111c-0.035,0.021-0.082,0.032-0.139,0.032
			c-0.062,0-0.135-0.021-0.213-0.065s-0.172-0.092-0.281-0.145c-0.109-0.052-0.238-0.1-0.387-0.144s-0.324-0.066-0.529-0.066
			c-0.168,0-0.32,0.021-0.459,0.063c-0.137,0.042-0.254,0.1-0.35,0.174s-0.17,0.162-0.223,0.264
			c-0.053,0.103-0.078,0.211-0.078,0.327c0,0.152,0.045,0.278,0.135,0.378c0.09,0.101,0.209,0.187,0.354,0.258
			c0.146,0.072,0.312,0.138,0.498,0.195c0.188,0.059,0.377,0.119,0.57,0.183c0.195,0.064,0.385,0.138,0.57,0.22
			s0.352,0.184,0.498,0.306s0.264,0.27,0.354,0.441s0.135,0.382,0.135,0.63c0,0.284-0.051,0.547-0.152,0.789
			s-0.252,0.451-0.449,0.627c-0.199,0.176-0.443,0.313-0.736,0.414c-0.291,0.1-0.625,0.149-1.002,0.149
			c-0.42,0-0.807-0.069-1.164-0.21c-0.355-0.14-0.652-0.317-0.893-0.534l0.275-0.449c0.031-0.057,0.072-0.1,0.119-0.129
			c0.049-0.03,0.113-0.046,0.193-0.046c0.076,0,0.154,0.028,0.234,0.084c0.08,0.057,0.176,0.117,0.287,0.184
			c0.111,0.065,0.248,0.126,0.408,0.18s0.359,0.081,0.6,0.081c0.201,0,0.375-0.024,0.521-0.075c0.148-0.05,0.271-0.117,0.369-0.204
			c0.098-0.086,0.172-0.185,0.219-0.297c0.049-0.111,0.072-0.229,0.072-0.354c0-0.16-0.045-0.293-0.135-0.399
			c-0.09-0.105-0.207-0.196-0.354-0.272s-0.312-0.143-0.502-0.198c-0.188-0.056-0.379-0.116-0.574-0.18
			c-0.197-0.064-0.389-0.139-0.576-0.223c-0.189-0.084-0.355-0.189-0.502-0.317s-0.264-0.284-0.354-0.469
			c-0.09-0.184-0.135-0.407-0.135-0.672c0-0.235,0.049-0.462,0.146-0.678s0.24-0.406,0.426-0.57s0.416-0.295,0.689-0.393
			c0.275-0.098,0.588-0.147,0.939-0.147c0.404,0,0.77,0.064,1.096,0.192s0.605,0.304,0.836,0.528L232.961,70.833z"/>
		<path fill="#5F5F5F" d="M235.451,72.111c0-0.849-0.107-1.676-0.32-2.481c-0.215-0.806-0.525-1.569-0.934-2.289
			c-0.068-0.132-0.086-0.234-0.051-0.306c0.033-0.072,0.084-0.13,0.152-0.174l0.521-0.318c0.301,0.46,0.555,0.917,0.764,1.371
			c0.207,0.454,0.377,0.91,0.51,1.368c0.131,0.458,0.227,0.921,0.287,1.389s0.09,0.948,0.09,1.44c0,0.487-0.029,0.966-0.09,1.434
			s-0.156,0.931-0.287,1.389c-0.133,0.458-0.303,0.914-0.51,1.368c-0.209,0.454-0.463,0.911-0.764,1.371l-0.521-0.318
			c-0.068-0.044-0.119-0.102-0.152-0.174c-0.035-0.071-0.018-0.174,0.051-0.306c0.408-0.72,0.719-1.482,0.934-2.286
			C235.344,73.785,235.451,72.959,235.451,72.111z"/>
		<path fill="#5F5F5F" d="M237.723,75.06c0-0.126,0.023-0.245,0.07-0.356c0.047-0.112,0.111-0.21,0.191-0.294
			c0.082-0.084,0.18-0.15,0.291-0.2c0.113-0.049,0.234-0.073,0.365-0.073c0.125,0,0.244,0.024,0.355,0.073
			c0.113,0.05,0.211,0.116,0.295,0.2s0.15,0.182,0.199,0.294c0.049,0.111,0.074,0.23,0.074,0.356c0,0.131-0.025,0.252-0.074,0.364
			s-0.115,0.21-0.199,0.294s-0.182,0.149-0.295,0.196c-0.111,0.047-0.23,0.07-0.355,0.07c-0.131,0-0.252-0.023-0.365-0.07
			c-0.111-0.047-0.209-0.112-0.291-0.196c-0.08-0.084-0.145-0.182-0.191-0.294S237.723,75.19,237.723,75.06z"/>
	</g>
	<g id="truck_1_">
		<path fill="#B9529F" d="M67.485,41.74c-0.357-0.534-0.959-0.855-1.601-0.855h-1.923c-1.063,0-1.924,0.859-1.924,1.923v11.538
			c0,1.062,0.86,1.924,1.924,1.924h7.692c1.062,0,1.923-0.861,1.923-1.924v-2.885c0-0.379-0.112-0.751-0.322-1.066L67.485,41.74z
			 M71.654,54.346h-7.692V42.808h1.923l5.77,8.653V54.346z"/>
		<path fill="#B9529F" d="M80.299,49.223l-7.692-11.538c-1.074-1.61-2.868-2.569-4.8-2.569h-7.692v-3.846
			c0-3.18-2.588-5.769-5.769-5.769H25.5c-3.181,0-5.769,2.589-5.769,5.769v21.153c0,3.182,2.588,5.77,5.769,5.77l0,0v5.77
			c0,3.182,2.589,5.77,5.769,5.77h2.197c0.859,3.309,3.846,5.77,7.421,5.77c3.571,0,6.558-2.461,7.417-5.77h10.159
			c0.858,3.309,3.846,5.77,7.42,5.77c3.569,0,6.559-2.461,7.416-5.77H75.5c3.181,0,5.77-2.588,5.77-5.77V52.422
			C81.269,51.281,80.934,50.174,80.299,49.223z M25.5,54.346c-1.061,0-1.923-0.861-1.923-1.924V31.269
			c0-1.063,0.862-1.923,1.923-1.923h28.846c1.062,0,1.923,0.859,1.923,1.923v3.846v3.846v13.46c0,1.062-0.86,1.924-1.923,1.924H25.5
			z M40.886,71.654c-2.125,0-3.846-1.725-3.846-3.848c0-2.121,1.721-3.846,3.846-3.846c2.123,0,3.846,1.725,3.846,3.846
			C44.732,69.93,43.007,71.654,40.886,71.654z M65.884,71.654c-2.126,0-3.847-1.725-3.847-3.848c0-2.121,1.721-3.846,3.847-3.846
			c2.122,0,3.846,1.725,3.846,3.846C69.73,69.93,68.006,71.654,65.884,71.654z M77.422,63.961c0,1.062-0.86,1.924-1.923,1.924
			h-2.197c-0.859-3.311-3.847-5.77-7.418-5.77c-3.576,0-6.562,2.459-7.422,5.77H48.305c-0.859-3.311-3.846-5.77-7.417-5.77
			c-3.575,0-6.562,2.459-7.421,5.77h-2.198c-1.061,0-1.923-0.861-1.923-1.924v-5.77h25c3.181,0,5.769-2.588,5.769-5.77v-13.46h7.692
			c0.643,0,1.243,0.321,1.601,0.855L77.1,51.355c0.21,0.316,0.322,0.688,0.322,1.066V63.961z"/>
	</g>
</g>
</svg>
