<?xml version="1.0" encoding="utf-8"?>
<!-- Generator: Adobe Illustrator 15.0.0, SVG Export Plug-In . SVG Version: 6.00 Build 0)  -->
<!DOCTYPE svg PUBLIC "-//W3C//DTD SVG 1.1//EN" "http://www.w3.org/Graphics/SVG/1.1/DTD/svg11.dtd">
<svg version="1.1" id="Layer_1" xmlns="http://www.w3.org/2000/svg" xmlns:xlink="http://www.w3.org/1999/xlink" x="0px" y="0px"
	 width="285px" height="101px" viewBox="0 0 285 101" enable-background="new 0 0 285 101" xml:space="preserve">
<g id="Layer_1_2_">
	<g>
		
			<linearGradient id="SVGID_1_" gradientUnits="userSpaceOnUse" x1="425" y1="-155.9531" x2="425" y2="-256.3179" gradientTransform="matrix(1 0 0 -1 -282.5 -155.5)">
			<stop  offset="0" style="stop-color:#B9519F"/>
			<stop  offset="1" style="stop-color:#A83B8D"/>
		</linearGradient>
		<rect fill="url(#SVGID_1_)" width="285" height="101"/>
	</g>
</g>
<g id="Layer_2" display="none">
	<rect display="inline" fill="#D2D2D2" width="101" height="101"/>
</g>
<g>
	<g>
		<path fill="#FFFFFF" d="M105.741,27.525v4.708h5.962v2.365h-5.962v6.479h-2.97V25.171h10.032v2.354H105.741z"/>
		<path fill="#FFFFFF" d="M127.642,41.077h-2.674c-0.506,0-0.872-0.198-1.1-0.594l-3.344-5.093c-0.125-0.19-0.263-0.326-0.413-0.407
			s-0.373-0.121-0.666-0.121h-1.265v6.215h-2.959V25.171h4.851c1.078,0,2.003,0.112,2.777,0.335c0.773,0.224,1.408,0.537,1.903,0.94
			c0.495,0.403,0.859,0.885,1.095,1.446c0.234,0.561,0.352,1.179,0.352,1.854c0,0.536-0.079,1.042-0.236,1.518
			c-0.158,0.477-0.385,0.909-0.683,1.298c-0.297,0.389-0.663,0.73-1.1,1.023s-0.933,0.524-1.49,0.693
			c0.19,0.11,0.366,0.24,0.528,0.39c0.16,0.15,0.308,0.329,0.439,0.534L127.642,41.077z M120.03,32.739
			c0.557,0,1.043-0.07,1.458-0.209c0.414-0.139,0.755-0.332,1.023-0.578c0.268-0.246,0.468-0.537,0.6-0.875
			c0.132-0.338,0.198-0.708,0.198-1.111c0-0.807-0.266-1.426-0.798-1.859c-0.532-0.432-1.344-0.649-2.437-0.649h-1.892v5.28h1.848
			V32.739z"/>
		<path fill="#FFFFFF" d="M132.338,27.525v4.411h5.565v2.277h-5.565v4.499h7.062v2.365h-10.031V25.171H139.4v2.354H132.338z"/>
		<path fill="#FFFFFF" d="M153.129,27.602h-4.797v13.475h-2.959V27.602h-4.795v-2.431h12.551V27.602z"/>
		<path fill="#FFFFFF" d="M158.189,27.525v4.411h5.562v2.277h-5.562v4.499h7.061v2.365h-10.031V25.171h10.031v2.354H158.189z"/>
		<path fill="#FFFFFF" d="M186.326,33.102v6.435c-0.807,0.594-1.666,1.028-2.58,1.304c-0.912,0.275-1.891,0.412-2.932,0.412
			c-1.297,0-2.475-0.201-3.525-0.605c-1.053-0.403-1.951-0.964-2.695-1.683c-0.744-0.719-1.318-1.577-1.721-2.574
			c-0.404-0.997-0.605-2.086-0.605-3.267c0-1.195,0.195-2.292,0.584-3.289c0.391-0.997,0.939-1.855,1.654-2.574
			c0.715-0.719,1.582-1.276,2.602-1.672c1.021-0.396,2.164-0.594,3.434-0.594c0.646,0,1.25,0.051,1.812,0.154
			c0.561,0.103,1.082,0.244,1.562,0.424c0.479,0.18,0.918,0.398,1.313,0.654c0.396,0.257,0.758,0.539,1.088,0.847l-0.846,1.342
			c-0.134,0.213-0.306,0.343-0.519,0.391c-0.213,0.048-0.443-0.005-0.693-0.16c-0.241-0.139-0.483-0.278-0.727-0.418
			c-0.242-0.139-0.513-0.26-0.81-0.363c-0.298-0.103-0.632-0.187-1-0.253c-0.371-0.066-0.798-0.099-1.281-0.099
			c-0.784,0-1.493,0.132-2.129,0.396c-0.635,0.264-1.176,0.642-1.623,1.133c-0.446,0.492-0.791,1.082-1.032,1.771
			c-0.242,0.689-0.363,1.459-0.363,2.31c0,0.91,0.131,1.722,0.392,2.437c0.26,0.715,0.627,1.32,1.101,1.815
			c0.473,0.495,1.043,0.873,1.711,1.133c0.666,0.26,1.412,0.39,2.231,0.39c0.588,0,1.11-0.062,1.573-0.187
			c0.462-0.125,0.912-0.293,1.353-0.506v-2.882h-2.002c-0.188,0-0.338-0.053-0.444-0.16c-0.104-0.106-0.16-0.236-0.16-0.391v-1.672
			L186.326,33.102L186.326,33.102z"/>
		<path fill="#FFFFFF" d="M201.605,41.077h-2.674c-0.508,0-0.871-0.198-1.102-0.594l-3.346-5.093
			c-0.125-0.19-0.262-0.326-0.41-0.407c-0.15-0.081-0.373-0.121-0.666-0.121h-1.266v6.215h-2.959V25.171h4.852
			c1.076,0,2.004,0.112,2.775,0.335c0.773,0.223,1.408,0.537,1.904,0.94c0.494,0.403,0.859,0.885,1.094,1.446
			c0.235,0.561,0.354,1.179,0.354,1.854c0,0.536-0.078,1.042-0.236,1.518c-0.156,0.476-0.385,0.909-0.682,1.298
			s-0.664,0.73-1.102,1.023s-0.934,0.524-1.49,0.693c0.189,0.11,0.365,0.24,0.527,0.39s0.311,0.329,0.439,0.534L201.605,41.077z
			 M193.994,32.739c0.557,0,1.043-0.07,1.457-0.209c0.414-0.139,0.756-0.332,1.023-0.578c0.267-0.246,0.467-0.537,0.6-0.875
			c0.131-0.337,0.197-0.708,0.197-1.111c0-0.807-0.268-1.426-0.797-1.859c-0.533-0.432-1.346-0.649-2.438-0.649h-1.892v5.28h1.85
			V32.739L193.994,32.739z"/>
		<path fill="#FFFFFF" d="M216.961,41.077h-2.287c-0.258,0-0.467-0.064-0.627-0.192c-0.162-0.128-0.283-0.288-0.363-0.479
			l-1.188-3.245h-6.588l-1.188,3.245c-0.06,0.168-0.175,0.323-0.343,0.462c-0.168,0.139-0.377,0.209-0.627,0.209h-2.312
			l6.261-15.906h3.014L216.961,41.077z M211.736,35.071L209.8,29.78c-0.096-0.235-0.194-0.513-0.297-0.836
			c-0.104-0.323-0.207-0.671-0.31-1.045c-0.096,0.374-0.194,0.725-0.297,1.051c-0.104,0.326-0.203,0.61-0.297,0.853l-1.927,5.269
			L211.736,35.071L211.736,35.071z M213.814,20.606l-3.562,3.146c-0.148,0.132-0.287,0.213-0.418,0.242
			c-0.133,0.029-0.301,0.044-0.508,0.044h-1.969l2.299-2.981c0.074-0.103,0.146-0.185,0.221-0.248
			c0.074-0.062,0.154-0.108,0.242-0.137c0.088-0.029,0.186-0.048,0.291-0.055c0.107-0.007,0.232-0.011,0.379-0.011H213.814
			L213.814,20.606z"/>
		<path fill="#FFFFFF" d="M229.721,27.602h-4.797v13.475h-2.959V27.602h-4.795v-2.431h12.551V27.602z"/>
		<path fill="#FFFFFF" d="M234.781,41.077h-2.971V25.171h2.971V41.077z"/>
		<path fill="#FFFFFF" d="M246.803,28.064c-0.088,0.154-0.182,0.266-0.279,0.335c-0.1,0.07-0.223,0.104-0.369,0.104
			c-0.152,0-0.318-0.057-0.5-0.17c-0.18-0.113-0.395-0.24-0.645-0.379c-0.25-0.139-0.541-0.266-0.875-0.379
			c-0.334-0.113-0.727-0.17-1.182-0.17c-0.41,0-0.77,0.049-1.078,0.148c-0.309,0.099-0.566,0.236-0.775,0.413
			c-0.209,0.176-0.365,0.387-0.467,0.632c-0.104,0.246-0.154,0.515-0.154,0.809c0,0.374,0.104,0.686,0.312,0.935
			c0.209,0.249,0.486,0.462,0.83,0.638c0.346,0.176,0.738,0.334,1.178,0.473c0.439,0.139,0.891,0.288,1.354,0.445
			c0.461,0.158,0.912,0.341,1.354,0.55c0.438,0.209,0.832,0.473,1.177,0.792c0.346,0.319,0.621,0.709,0.83,1.171
			s0.313,1.023,0.313,1.683c0,0.719-0.123,1.392-0.369,2.019c-0.246,0.627-0.604,1.173-1.078,1.639s-1.051,0.833-1.731,1.1
			c-0.682,0.267-1.463,0.401-2.342,0.401c-0.507,0-1.007-0.049-1.496-0.148c-0.492-0.099-0.963-0.24-1.414-0.423
			s-0.875-0.403-1.271-0.66c-0.396-0.256-0.746-0.542-1.056-0.858l0.869-1.419c0.071-0.103,0.168-0.188,0.285-0.258
			c0.116-0.07,0.241-0.104,0.375-0.104c0.183,0,0.381,0.075,0.594,0.225c0.214,0.15,0.466,0.317,0.759,0.5
			c0.295,0.184,0.637,0.351,1.028,0.5c0.394,0.15,0.862,0.226,1.414,0.226c0.842,0,1.496-0.2,1.957-0.599
			c0.463-0.4,0.692-0.974,0.692-1.722c0-0.418-0.104-0.759-0.312-1.023c-0.209-0.264-0.486-0.486-0.832-0.666
			c-0.344-0.18-0.736-0.332-1.176-0.457c-0.441-0.125-0.891-0.26-1.344-0.407c-0.455-0.146-0.9-0.322-1.344-0.528
			c-0.438-0.205-0.832-0.473-1.178-0.803s-0.619-0.742-0.828-1.237s-0.314-1.105-0.314-1.832c0-0.579,0.115-1.144,0.35-1.694
			c0.229-0.55,0.564-1.038,1.006-1.463c0.439-0.425,0.982-0.767,1.627-1.023c0.646-0.257,1.387-0.385,2.223-0.385
			c0.939,0,1.805,0.147,2.596,0.44c0.793,0.293,1.467,0.704,2.023,1.232L246.803,28.064z"/>
	</g>
	<g>
		<path fill="#FFFFFF" d="M103.737,53.038v3.366h4.032v1.212h-4.032v4.263h-1.498V51.827h6.23v1.211H103.737z"/>
		<path fill="#FFFFFF" d="M111.164,56.132c0.229-0.467,0.504-0.833,0.826-1.099c0.322-0.268,0.709-0.399,1.162-0.399
			c0.154,0,0.3,0.019,0.438,0.054c0.138,0.035,0.258,0.086,0.361,0.156l-0.091,1.029c-0.033,0.126-0.109,0.188-0.231,0.188
			c-0.065,0-0.164-0.013-0.294-0.037c-0.131-0.024-0.271-0.039-0.42-0.039c-0.219,0-0.413,0.031-0.581,0.096
			s-0.318,0.154-0.452,0.279c-0.133,0.123-0.251,0.274-0.354,0.455s-0.198,0.385-0.287,0.611v4.452h-1.365v-7.112h0.784
			c0.149,0,0.25,0.027,0.304,0.082c0.054,0.053,0.092,0.147,0.116,0.282L111.164,56.132z"/>
		<path fill="#FFFFFF" d="M120.845,60.864c-0.168,0.194-0.362,0.364-0.581,0.507c-0.219,0.143-0.453,0.258-0.7,0.347
			c-0.248,0.089-0.503,0.154-0.767,0.196c-0.264,0.042-0.524,0.062-0.78,0.062c-0.49,0-0.944-0.084-1.362-0.248
			c-0.417-0.166-0.779-0.408-1.085-0.729c-0.306-0.319-0.543-0.716-0.714-1.188c-0.171-0.474-0.255-1.02-0.255-1.636
			c0-0.493,0.077-0.954,0.231-1.383c0.154-0.427,0.375-0.799,0.661-1.116c0.287-0.316,0.638-0.566,1.054-0.749
			c0.415-0.182,0.882-0.272,1.4-0.272c0.434,0,0.834,0.072,1.201,0.215c0.366,0.143,0.683,0.35,0.948,0.619
			c0.266,0.271,0.475,0.604,0.626,1.002c0.152,0.396,0.228,0.849,0.228,1.355c0,0.211-0.023,0.354-0.07,0.424
			c-0.047,0.072-0.133,0.108-0.259,0.108h-4.662c0.014,0.425,0.074,0.795,0.182,1.108c0.107,0.314,0.256,0.578,0.445,0.789
			c0.189,0.209,0.414,0.365,0.675,0.469c0.261,0.104,0.553,0.152,0.875,0.152c0.303,0,0.566-0.033,0.788-0.104
			c0.222-0.069,0.413-0.146,0.574-0.229c0.161-0.082,0.296-0.155,0.406-0.228c0.11-0.071,0.207-0.104,0.291-0.104
			c0.112,0,0.198,0.043,0.259,0.127L120.845,60.864z M119.718,57.532c0-0.271-0.039-0.521-0.115-0.749
			c-0.077-0.229-0.19-0.428-0.34-0.596c-0.15-0.168-0.331-0.299-0.546-0.394c-0.215-0.094-0.462-0.142-0.742-0.142
			c-0.574,0-1.025,0.166-1.354,0.498c-0.329,0.33-0.538,0.791-0.626,1.379L119.718,57.532L119.718,57.532z"/>
		<path fill="#FFFFFF" d="M124.646,61.991c-0.574,0-1.016-0.161-1.327-0.483s-0.465-0.781-0.465-1.379v-4.256h-0.826
			c-0.079,0-0.146-0.023-0.199-0.073c-0.054-0.05-0.081-0.123-0.081-0.221v-0.554l1.155-0.16l0.308-2.121
			c0.019-0.079,0.055-0.143,0.108-0.186c0.054-0.045,0.123-0.066,0.207-0.066h0.693v2.387h2.016v0.994h-2.016v4.165
			c0,0.28,0.069,0.487,0.207,0.626c0.138,0.138,0.314,0.207,0.529,0.207c0.126,0,0.234-0.018,0.325-0.049
			c0.091-0.033,0.169-0.069,0.235-0.108c0.065-0.04,0.121-0.075,0.168-0.108c0.046-0.031,0.088-0.049,0.126-0.049
			c0.046,0,0.083,0.01,0.108,0.031s0.052,0.055,0.081,0.102l0.406,0.658c-0.224,0.205-0.49,0.363-0.798,0.478
			C125.296,61.936,124.977,61.991,124.646,61.991z"/>
		<path fill="#FFFFFF" d="M133.326,60.864c-0.168,0.194-0.361,0.364-0.581,0.507c-0.219,0.143-0.452,0.258-0.7,0.347
			c-0.247,0.089-0.503,0.154-0.767,0.196c-0.264,0.042-0.523,0.062-0.78,0.062c-0.49,0-0.943-0.084-1.361-0.248
			c-0.417-0.166-0.779-0.408-1.085-0.729c-0.306-0.319-0.543-0.716-0.714-1.188c-0.171-0.474-0.255-1.02-0.255-1.636
			c0-0.493,0.077-0.954,0.231-1.383c0.154-0.427,0.375-0.799,0.661-1.116c0.287-0.316,0.638-0.566,1.054-0.749
			c0.415-0.182,0.882-0.272,1.4-0.272c0.434,0,0.834,0.072,1.2,0.215c0.366,0.143,0.683,0.35,0.948,0.619
			c0.267,0.271,0.475,0.604,0.627,1.002c0.151,0.396,0.228,0.849,0.228,1.355c0,0.211-0.023,0.354-0.07,0.424
			c-0.047,0.072-0.133,0.108-0.259,0.108h-4.662c0.014,0.425,0.074,0.795,0.182,1.108c0.107,0.314,0.256,0.578,0.445,0.789
			c0.189,0.209,0.414,0.365,0.675,0.469c0.261,0.104,0.553,0.152,0.875,0.152c0.304,0,0.565-0.033,0.788-0.104
			c0.221-0.069,0.412-0.146,0.573-0.229c0.161-0.082,0.297-0.155,0.406-0.228c0.109-0.071,0.206-0.104,0.291-0.104
			c0.111,0,0.198,0.043,0.259,0.127L133.326,60.864z M132.199,57.532c0-0.271-0.038-0.521-0.115-0.749
			c-0.077-0.229-0.19-0.428-0.34-0.596s-0.331-0.299-0.546-0.394c-0.215-0.094-0.462-0.142-0.742-0.142
			c-0.574,0-1.025,0.166-1.354,0.498c-0.329,0.33-0.538,0.791-0.626,1.379L132.199,57.532L132.199,57.532z"/>
		<path fill="#FFFFFF" d="M146.92,56.986v3.92c-0.51,0.363-1.051,0.636-1.625,0.814c-0.574,0.18-1.199,0.271-1.875,0.271
			c-0.813,0-1.546-0.126-2.203-0.378c-0.655-0.252-1.214-0.604-1.676-1.059c-0.463-0.451-0.818-0.994-1.068-1.623
			c-0.249-0.632-0.374-1.322-0.374-2.08c0-0.761,0.12-1.457,0.36-2.088c0.24-0.635,0.585-1.176,1.032-1.625
			c0.448-0.449,0.991-0.802,1.628-1.051c0.637-0.25,1.352-0.375,2.146-0.375c0.398,0,0.771,0.03,1.113,0.092
			c0.346,0.062,0.662,0.146,0.957,0.26c0.293,0.11,0.562,0.246,0.812,0.401c0.25,0.156,0.482,0.332,0.697,0.528l-0.428,0.672
			c-0.064,0.105-0.152,0.175-0.26,0.203c-0.105,0.025-0.223,0.002-0.35-0.077c-0.121-0.069-0.256-0.149-0.402-0.245
			c-0.146-0.093-0.322-0.18-0.525-0.259s-0.439-0.146-0.709-0.203c-0.271-0.058-0.592-0.084-0.959-0.084
			c-0.551,0-1.048,0.09-1.492,0.271c-0.444,0.181-0.821,0.438-1.134,0.772s-0.554,0.741-0.722,1.215
			c-0.168,0.476-0.252,1.005-0.252,1.593c0,0.615,0.089,1.168,0.267,1.655c0.177,0.487,0.428,0.9,0.752,1.238
			c0.324,0.339,0.719,0.597,1.184,0.772c0.464,0.178,0.983,0.268,1.557,0.268c0.225,0,0.434-0.014,0.627-0.039
			c0.193-0.023,0.379-0.062,0.557-0.107c0.178-0.047,0.35-0.104,0.516-0.176c0.166-0.07,0.328-0.146,0.492-0.229v-2.107h-1.482
			c-0.094,0-0.17-0.027-0.229-0.084s-0.088-0.126-0.088-0.21v-0.847H146.92z"/>
		<path fill="#FFFFFF" d="M149.936,56.132c0.229-0.467,0.504-0.833,0.826-1.099c0.322-0.268,0.709-0.399,1.162-0.399
			c0.154,0,0.301,0.019,0.438,0.054c0.141,0.035,0.26,0.086,0.361,0.156l-0.092,1.029c-0.033,0.126-0.109,0.188-0.23,0.188
			c-0.064,0-0.164-0.013-0.295-0.037s-0.27-0.039-0.42-0.039c-0.219,0-0.412,0.031-0.58,0.096s-0.316,0.154-0.451,0.279
			c-0.135,0.123-0.252,0.274-0.354,0.455c-0.104,0.181-0.199,0.385-0.287,0.611v4.452h-1.365v-7.112h0.783
			c0.15,0,0.252,0.027,0.305,0.082c0.057,0.053,0.094,0.147,0.115,0.282L149.936,56.132z"/>
		<path fill="#FFFFFF" d="M153.598,55.761c0.396-0.378,0.826-0.659,1.291-0.847s0.977-0.28,1.529-0.28
			c0.406,0,0.766,0.066,1.078,0.199c0.312,0.134,0.576,0.319,0.791,0.558c0.215,0.237,0.377,0.522,0.486,0.854
			c0.107,0.331,0.164,0.696,0.164,1.099v4.536h-0.609c-0.135,0-0.236-0.021-0.307-0.065c-0.071-0.043-0.127-0.127-0.168-0.248
			l-0.148-0.623c-0.182,0.168-0.361,0.314-0.539,0.443c-0.176,0.129-0.361,0.237-0.557,0.329c-0.193,0.093-0.398,0.159-0.619,0.206
			c-0.219,0.047-0.461,0.07-0.727,0.07c-0.281,0-0.543-0.039-0.789-0.116c-0.244-0.076-0.457-0.192-0.643-0.354
			c-0.184-0.158-0.324-0.355-0.432-0.596c-0.104-0.238-0.156-0.516-0.156-0.833c0-0.28,0.074-0.55,0.229-0.809
			c0.149-0.259,0.397-0.491,0.741-0.696c0.343-0.205,0.791-0.373,1.345-0.504c0.553-0.131,1.231-0.205,2.041-0.225v-0.52
			c0-0.535-0.115-0.938-0.345-1.204c-0.229-0.266-0.563-0.396-1.008-0.396c-0.299,0-0.549,0.036-0.752,0.11s-0.379,0.157-0.524,0.25
			c-0.146,0.09-0.275,0.174-0.386,0.248c-0.108,0.073-0.224,0.11-0.34,0.11c-0.095,0-0.175-0.024-0.242-0.077
			c-0.065-0.051-0.121-0.111-0.164-0.182L153.598,55.761z M157.602,58.723c-0.557,0.02-1.025,0.062-1.414,0.129
			c-0.389,0.067-0.703,0.157-0.943,0.271c-0.242,0.109-0.418,0.244-0.525,0.396c-0.105,0.151-0.158,0.319-0.158,0.508
			c0,0.178,0.025,0.33,0.086,0.459c0.059,0.127,0.139,0.231,0.236,0.313c0.104,0.081,0.221,0.142,0.354,0.179
			c0.138,0.039,0.283,0.058,0.441,0.058c0.211,0,0.401-0.021,0.577-0.063c0.175-0.041,0.341-0.102,0.492-0.179
			c0.153-0.076,0.301-0.171,0.44-0.283c0.141-0.112,0.276-0.239,0.414-0.385V58.723L157.602,58.723z M158.398,51.715l-1.658,1.807
			c-0.07,0.08-0.139,0.136-0.203,0.164c-0.066,0.03-0.152,0.045-0.26,0.045h-0.826l1.037-1.691c0.062-0.105,0.137-0.188,0.213-0.242
			c0.078-0.053,0.197-0.08,0.361-0.08L158.398,51.715L158.398,51.715z"/>
		<path fill="#FFFFFF" d="M167.514,61.879h-1.373v-6.006h-3.57v4.165c0,0.28,0.07,0.487,0.207,0.626
			c0.141,0.138,0.314,0.207,0.529,0.207c0.125,0,0.234-0.018,0.324-0.049c0.092-0.033,0.17-0.069,0.234-0.108
			c0.066-0.04,0.121-0.075,0.168-0.108c0.047-0.031,0.09-0.049,0.127-0.049c0.047,0,0.082,0.01,0.107,0.031s0.053,0.055,0.082,0.102
			l0.404,0.658c-0.227,0.205-0.488,0.363-0.799,0.478c-0.311,0.11-0.627,0.168-0.959,0.168c-0.574,0-1.018-0.161-1.326-0.483
			c-0.311-0.32-0.467-0.779-0.467-1.379v-4.256h-0.824c-0.08,0-0.146-0.023-0.199-0.073c-0.055-0.05-0.08-0.122-0.08-0.221v-0.554
			l1.162-0.16l0.301-2.121c0.02-0.079,0.055-0.143,0.107-0.188s0.123-0.064,0.207-0.064h0.689v2.387h4.943v6.999L167.514,61.879
			L167.514,61.879z M167.82,52.527c0,0.125-0.025,0.246-0.076,0.358c-0.051,0.114-0.121,0.216-0.207,0.302s-0.188,0.153-0.305,0.203
			c-0.115,0.049-0.238,0.072-0.363,0.072c-0.127,0-0.246-0.023-0.357-0.072c-0.111-0.05-0.211-0.117-0.297-0.203
			s-0.154-0.188-0.203-0.302c-0.049-0.112-0.074-0.233-0.074-0.358c0-0.131,0.025-0.256,0.074-0.371
			c0.049-0.117,0.117-0.219,0.203-0.305s0.186-0.154,0.297-0.203s0.23-0.074,0.357-0.074c0.125,0,0.248,0.025,0.363,0.074
			c0.117,0.049,0.219,0.117,0.305,0.203s0.156,0.188,0.207,0.305C167.795,52.271,167.82,52.396,167.82,52.527z"/>
		<path fill="#FFFFFF" d="M173.688,55.992c-0.039,0.061-0.078,0.104-0.119,0.129c-0.043,0.025-0.096,0.039-0.16,0.039
			c-0.074,0-0.156-0.025-0.248-0.077c-0.094-0.052-0.201-0.106-0.328-0.168c-0.129-0.062-0.279-0.117-0.453-0.168
			c-0.172-0.052-0.377-0.077-0.613-0.077c-0.195,0-0.375,0.023-0.535,0.073c-0.162,0.049-0.299,0.116-0.41,0.202
			c-0.111,0.088-0.197,0.188-0.258,0.31c-0.062,0.118-0.094,0.246-0.094,0.382c0,0.178,0.055,0.323,0.158,0.44
			c0.104,0.116,0.242,0.217,0.412,0.301s0.361,0.16,0.582,0.228c0.217,0.067,0.438,0.141,0.664,0.215
			c0.229,0.074,0.445,0.158,0.664,0.256c0.219,0.096,0.41,0.215,0.58,0.355c0.172,0.144,0.311,0.313,0.412,0.517
			c0.105,0.198,0.158,0.444,0.158,0.733c0,0.332-0.059,0.639-0.178,0.92c-0.119,0.282-0.295,0.526-0.525,0.731
			c-0.229,0.205-0.518,0.366-0.855,0.481c-0.342,0.117-0.729,0.177-1.17,0.177c-0.49,0-0.939-0.082-1.355-0.245
			s-0.766-0.371-1.043-0.623l0.32-0.525c0.037-0.063,0.084-0.115,0.143-0.148c0.055-0.035,0.129-0.055,0.223-0.055
			c0.09,0,0.18,0.033,0.273,0.101c0.092,0.065,0.205,0.137,0.336,0.213c0.131,0.077,0.289,0.146,0.477,0.21
			c0.186,0.062,0.42,0.096,0.699,0.096c0.232,0,0.436-0.029,0.607-0.088c0.174-0.059,0.316-0.138,0.432-0.236
			c0.115-0.103,0.199-0.217,0.256-0.349c0.057-0.131,0.084-0.271,0.084-0.413c0-0.187-0.053-0.342-0.156-0.466
			c-0.105-0.123-0.244-0.229-0.414-0.317s-0.365-0.164-0.584-0.229c-0.221-0.065-0.443-0.136-0.672-0.21
			c-0.229-0.075-0.453-0.161-0.672-0.26c-0.221-0.098-0.414-0.221-0.586-0.37c-0.17-0.149-0.307-0.332-0.412-0.546
			c-0.105-0.215-0.158-0.479-0.158-0.784c0-0.274,0.059-0.539,0.172-0.791c0.115-0.252,0.279-0.474,0.498-0.665
			c0.217-0.191,0.484-0.346,0.805-0.459c0.318-0.114,0.686-0.171,1.096-0.171c0.473,0,0.896,0.073,1.277,0.224
			c0.379,0.148,0.705,0.354,0.979,0.616L173.688,55.992z"/>
		<path fill="#FFFFFF" d="M180.406,55.831c0.15-0.179,0.311-0.34,0.48-0.485c0.17-0.146,0.354-0.272,0.549-0.379
			c0.193-0.105,0.402-0.188,0.627-0.244c0.221-0.06,0.459-0.089,0.711-0.089c0.406,0,0.771,0.079,1.102,0.238
			c0.33,0.157,0.611,0.392,0.844,0.7c0.232,0.308,0.414,0.688,0.543,1.141c0.127,0.453,0.191,0.973,0.191,1.561
			c0,0.528-0.07,1.019-0.213,1.469c-0.143,0.449-0.346,0.842-0.609,1.173c-0.263,0.331-0.586,0.592-0.965,0.778
			c-0.381,0.189-0.809,0.283-1.285,0.283c-0.424,0-0.789-0.067-1.092-0.209c-0.303-0.141-0.574-0.336-0.812-0.588v3.086h-1.365
			v-9.498h0.82c0.191,0,0.311,0.09,0.355,0.272L180.406,55.831z M180.477,60.129c0.227,0.294,0.465,0.499,0.727,0.616
			c0.26,0.116,0.549,0.175,0.871,0.175c0.625,0,1.107-0.227,1.451-0.676c0.346-0.45,0.516-1.105,0.516-1.971
			c0-0.453-0.037-0.838-0.115-1.158c-0.074-0.319-0.188-0.581-0.336-0.784s-0.326-0.353-0.543-0.447
			c-0.213-0.096-0.457-0.144-0.729-0.144c-0.396,0-0.74,0.088-1.031,0.266s-0.562,0.43-0.811,0.756V60.129z"/>
		<path fill="#FFFFFF" d="M186.805,55.761c0.396-0.378,0.828-0.659,1.291-0.847c0.465-0.188,0.975-0.28,1.529-0.28
			c0.406,0,0.766,0.066,1.078,0.199c0.312,0.134,0.576,0.319,0.791,0.558c0.215,0.237,0.377,0.522,0.486,0.854
			c0.109,0.331,0.166,0.696,0.166,1.099v4.536h-0.609c-0.135,0-0.238-0.021-0.309-0.065c-0.071-0.043-0.125-0.127-0.168-0.248
			l-0.146-0.623c-0.182,0.168-0.361,0.314-0.539,0.443s-0.363,0.237-0.557,0.329c-0.194,0.093-0.4,0.159-0.619,0.206
			c-0.221,0.047-0.463,0.07-0.729,0.07c-0.279,0-0.545-0.039-0.787-0.116c-0.246-0.076-0.459-0.192-0.643-0.354
			c-0.184-0.158-0.326-0.355-0.432-0.596c-0.104-0.238-0.156-0.516-0.156-0.833c0-0.28,0.074-0.55,0.229-0.809
			c0.15-0.259,0.398-0.491,0.74-0.696c0.346-0.205,0.791-0.373,1.346-0.504s1.232-0.205,2.041-0.225v-0.52
			c0-0.535-0.113-0.938-0.344-1.204c-0.23-0.266-0.564-0.396-1.01-0.396c-0.299,0-0.549,0.036-0.752,0.11s-0.377,0.157-0.523,0.25
			c-0.146,0.09-0.275,0.174-0.387,0.248c-0.107,0.073-0.225,0.11-0.34,0.11c-0.094,0-0.176-0.024-0.24-0.077
			c-0.066-0.051-0.123-0.111-0.164-0.182L186.805,55.761z M190.809,58.723c-0.555,0.02-1.025,0.062-1.414,0.129
			c-0.387,0.068-0.701,0.157-0.943,0.271c-0.242,0.109-0.418,0.244-0.523,0.396c-0.105,0.15-0.16,0.319-0.16,0.508
			c0,0.178,0.027,0.33,0.088,0.459c0.059,0.127,0.137,0.231,0.236,0.313c0.102,0.081,0.219,0.142,0.354,0.179
			c0.136,0.039,0.281,0.058,0.441,0.058c0.209,0,0.401-0.021,0.575-0.063c0.177-0.041,0.34-0.102,0.494-0.179
			c0.153-0.076,0.301-0.171,0.44-0.283c0.139-0.112,0.276-0.239,0.412-0.385V58.723L190.809,58.723z"/>
		<path fill="#FFFFFF" d="M195.268,56.132c0.229-0.467,0.504-0.833,0.826-1.099c0.32-0.268,0.709-0.399,1.162-0.399
			c0.152,0,0.299,0.019,0.438,0.054s0.26,0.086,0.359,0.156l-0.09,1.029c-0.033,0.126-0.111,0.188-0.232,0.188
			c-0.062,0-0.162-0.013-0.293-0.037s-0.271-0.039-0.42-0.039c-0.221,0-0.414,0.031-0.582,0.096s-0.316,0.154-0.451,0.279
			c-0.133,0.123-0.25,0.274-0.354,0.455s-0.199,0.385-0.287,0.611v4.452h-1.365v-7.112h0.785c0.148,0,0.25,0.027,0.305,0.082
			c0.055,0.053,0.094,0.147,0.115,0.282L195.268,56.132z"/>
		<path fill="#FFFFFF" d="M198.928,55.761c0.396-0.378,0.828-0.659,1.291-0.847c0.465-0.188,0.975-0.28,1.529-0.28
			c0.406,0,0.766,0.066,1.078,0.199c0.312,0.134,0.576,0.319,0.791,0.558c0.215,0.237,0.377,0.522,0.486,0.854
			c0.109,0.331,0.166,0.696,0.166,1.099v4.536h-0.609c-0.135,0-0.238-0.021-0.309-0.065c-0.072-0.043-0.125-0.127-0.168-0.248
			l-0.146-0.623c-0.182,0.168-0.361,0.314-0.539,0.443s-0.363,0.237-0.557,0.329c-0.194,0.093-0.4,0.159-0.619,0.206
			c-0.221,0.047-0.463,0.07-0.729,0.07c-0.278,0-0.543-0.039-0.786-0.116c-0.246-0.076-0.459-0.192-0.642-0.354
			c-0.183-0.158-0.326-0.355-0.431-0.596c-0.104-0.238-0.157-0.516-0.157-0.833c0-0.28,0.075-0.55,0.228-0.809
			c0.151-0.259,0.399-0.491,0.741-0.696c0.345-0.205,0.791-0.373,1.345-0.504c0.555-0.131,1.233-0.205,2.041-0.225v-0.52
			c0-0.535-0.113-0.938-0.343-1.204c-0.229-0.266-0.565-0.396-1.01-0.396c-0.3,0-0.55,0.036-0.752,0.11
			c-0.203,0.074-0.377,0.157-0.525,0.25c-0.146,0.09-0.274,0.174-0.385,0.248c-0.108,0.073-0.224,0.11-0.34,0.11
			c-0.093,0-0.175-0.024-0.24-0.077c-0.067-0.051-0.123-0.111-0.164-0.182L198.928,55.761z M202.932,58.723
			c-0.555,0.02-1.027,0.062-1.414,0.129c-0.387,0.068-0.701,0.157-0.943,0.271c-0.242,0.109-0.42,0.244-0.523,0.396
			c-0.105,0.15-0.16,0.319-0.16,0.508c0,0.178,0.027,0.33,0.088,0.459c0.059,0.127,0.137,0.231,0.236,0.313
			c0.102,0.081,0.219,0.142,0.354,0.179c0.136,0.039,0.281,0.058,0.44,0.058c0.209,0,0.402-0.021,0.576-0.063
			c0.177-0.041,0.34-0.102,0.494-0.179c0.153-0.076,0.301-0.171,0.44-0.283c0.139-0.112,0.276-0.239,0.412-0.385V58.723
			L202.932,58.723z"/>
		<path fill="#FFFFFF" d="M211.863,61.991c-0.572,0-1.016-0.161-1.326-0.483s-0.465-0.781-0.465-1.379v-4.256h-0.826
			c-0.08,0-0.146-0.023-0.199-0.073c-0.055-0.05-0.08-0.123-0.08-0.221v-0.554l1.154-0.16l0.309-2.121
			c0.02-0.079,0.055-0.143,0.107-0.186c0.055-0.045,0.123-0.066,0.207-0.066h0.693v2.387h2.016v0.994h-2.016v4.165
			c0,0.28,0.066,0.487,0.207,0.626c0.137,0.138,0.312,0.207,0.525,0.207c0.127,0,0.232-0.018,0.326-0.049
			c0.09-0.033,0.168-0.069,0.232-0.108c0.064-0.04,0.121-0.075,0.168-0.108c0.047-0.031,0.088-0.049,0.125-0.049
			c0.047,0,0.084,0.01,0.109,0.031s0.053,0.055,0.08,0.102l0.406,0.658c-0.225,0.205-0.49,0.363-0.799,0.478
			C212.516,61.936,212.195,61.991,211.863,61.991z"/>
		<path fill="#FFFFFF" d="M217.736,54.654c0.521,0,0.996,0.086,1.418,0.256c0.422,0.171,0.781,0.416,1.078,0.734
			s0.521,0.705,0.682,1.154c0.16,0.45,0.238,0.955,0.238,1.516c0,0.562-0.08,1.065-0.238,1.521s-0.385,0.838-0.682,1.155
			c-0.297,0.316-0.656,0.561-1.078,0.73c-0.422,0.168-0.896,0.256-1.418,0.256c-0.527,0-1.002-0.086-1.424-0.256
			c-0.422-0.172-0.783-0.414-1.082-0.73c-0.299-0.317-0.529-0.702-0.689-1.155s-0.242-0.959-0.242-1.521
			c0-0.561,0.082-1.063,0.242-1.516c0.16-0.449,0.391-0.836,0.689-1.154c0.297-0.318,0.66-0.563,1.082-0.734
			C216.734,54.74,217.209,54.654,217.736,54.654z M217.736,60.913c0.672,0,1.174-0.228,1.506-0.679
			c0.33-0.453,0.496-1.09,0.496-1.911s-0.166-1.46-0.496-1.915c-0.332-0.455-0.834-0.684-1.506-0.684
			c-0.682,0-1.189,0.229-1.521,0.684c-0.334,0.455-0.502,1.094-0.502,1.915s0.168,1.458,0.502,1.911
			C216.547,60.688,217.055,60.913,217.736,60.913z"/>
		<path fill="#FFFFFF" d="M228.629,51.547v10.332h-0.826c-0.191,0-0.311-0.091-0.357-0.273l-0.117-0.816
			c-0.305,0.357-0.646,0.646-1.033,0.863c-0.385,0.218-0.828,0.324-1.332,0.324c-0.404,0-0.771-0.078-1.104-0.235
			c-0.328-0.159-0.608-0.394-0.844-0.697c-0.231-0.308-0.412-0.687-0.539-1.137c-0.125-0.453-0.188-0.976-0.188-1.562
			c0-0.527,0.067-1.019,0.209-1.471c0.142-0.453,0.344-0.846,0.608-1.176c0.267-0.332,0.588-0.594,0.967-0.781
			c0.378-0.188,0.806-0.283,1.279-0.283c0.431,0,0.795,0.07,1.096,0.211c0.302,0.141,0.57,0.34,0.81,0.596v-3.894L228.629,51.547
			L228.629,51.547z M227.256,56.489c-0.223-0.294-0.465-0.5-0.725-0.616c-0.258-0.117-0.549-0.175-0.871-0.175
			c-0.625,0-1.109,0.225-1.453,0.675c-0.342,0.451-0.514,1.107-0.514,1.971c0,0.453,0.039,0.84,0.115,1.158
			c0.076,0.32,0.188,0.581,0.336,0.784c0.146,0.203,0.328,0.353,0.543,0.448c0.215,0.095,0.457,0.144,0.729,0.144
			c0.396,0,0.738-0.089,1.029-0.267c0.289-0.178,0.559-0.428,0.811-0.748V56.489z"/>
		<path fill="#FFFFFF" d="M233.57,54.654c0.521,0,0.996,0.086,1.418,0.256c0.422,0.171,0.781,0.416,1.078,0.734
			s0.521,0.705,0.682,1.154c0.16,0.45,0.238,0.955,0.238,1.516c0,0.562-0.08,1.065-0.238,1.521s-0.385,0.838-0.682,1.155
			c-0.297,0.316-0.656,0.561-1.078,0.73c-0.422,0.168-0.896,0.256-1.418,0.256c-0.527,0-1.002-0.086-1.424-0.256
			c-0.422-0.172-0.783-0.414-1.082-0.73c-0.299-0.317-0.529-0.702-0.689-1.155s-0.242-0.959-0.242-1.521
			c0-0.561,0.082-1.063,0.242-1.516c0.16-0.449,0.391-0.836,0.689-1.154c0.297-0.318,0.66-0.563,1.082-0.734
			C232.568,54.74,233.043,54.654,233.57,54.654z M233.57,60.913c0.672,0,1.174-0.228,1.506-0.679c0.33-0.453,0.496-1.09,0.496-1.911
			s-0.166-1.46-0.496-1.915c-0.332-0.455-0.834-0.684-1.506-0.684c-0.682,0-1.189,0.229-1.521,0.684
			c-0.334,0.455-0.502,1.094-0.502,1.915s0.168,1.458,0.502,1.911C232.381,60.688,232.889,60.913,233.57,60.913z"/>
		<path fill="#FFFFFF" d="M245.072,54.654c0.521,0,0.994,0.086,1.416,0.256c0.424,0.171,0.783,0.416,1.078,0.734
			c0.297,0.318,0.523,0.705,0.684,1.154c0.16,0.45,0.238,0.955,0.238,1.516c0,0.562-0.08,1.065-0.238,1.521
			s-0.387,0.838-0.684,1.155c-0.295,0.316-0.654,0.561-1.078,0.73c-0.422,0.17-0.896,0.256-1.416,0.256
			c-0.527,0-1.002-0.086-1.426-0.256c-0.422-0.172-0.783-0.414-1.08-0.73c-0.299-0.317-0.529-0.702-0.689-1.155
			c-0.162-0.453-0.242-0.959-0.242-1.521c0-0.561,0.08-1.063,0.242-1.516c0.16-0.449,0.391-0.836,0.689-1.154
			c0.297-0.318,0.658-0.563,1.08-0.734C244.07,54.74,244.545,54.654,245.072,54.654z M245.072,60.913
			c0.672,0,1.174-0.228,1.504-0.679c0.332-0.453,0.498-1.09,0.498-1.911s-0.166-1.46-0.498-1.915
			c-0.33-0.455-0.832-0.684-1.504-0.684c-0.682,0-1.189,0.229-1.523,0.684s-0.5,1.094-0.5,1.915s0.166,1.458,0.5,1.911
			S244.391,60.913,245.072,60.913z"/>
		<path fill="#FFFFFF" d="M105.515,65.827c0.63,0,1.17,0.062,1.621,0.182c0.45,0.121,0.82,0.298,1.109,0.525
			c0.289,0.229,0.502,0.505,0.641,0.829c0.137,0.324,0.206,0.691,0.206,1.103c0,0.243-0.037,0.478-0.112,0.7
			s-0.189,0.434-0.343,0.626c-0.154,0.194-0.348,0.368-0.581,0.521c-0.233,0.154-0.509,0.283-0.826,0.388
			c1.46,0.289,2.191,1.052,2.191,2.289c0,0.429-0.079,0.819-0.238,1.172c-0.159,0.354-0.39,0.655-0.693,0.914
			c-0.304,0.257-0.677,0.454-1.12,0.595c-0.443,0.141-0.948,0.21-1.512,0.21h-3.619V65.827H105.515z M103.73,66.996v3.29h1.715
			c0.733,0,1.278-0.147,1.635-0.444s0.536-0.697,0.536-1.201c0-0.572-0.17-0.99-0.511-1.252s-0.871-0.393-1.589-0.393H103.73z
			 M105.83,74.695c0.378,0,0.701-0.045,0.969-0.133c0.269-0.088,0.488-0.211,0.658-0.363c0.17-0.154,0.295-0.338,0.375-0.551
			c0.079-0.211,0.119-0.443,0.119-0.695c0-0.5-0.173-0.893-0.518-1.18c-0.346-0.287-0.88-0.433-1.603-0.433h-2.1v3.354H105.83z"/>
		<path fill="#FFFFFF" d="M112.34,70.132c0.229-0.467,0.504-0.833,0.826-1.099c0.322-0.268,0.709-0.399,1.162-0.399
			c0.154,0,0.3,0.019,0.438,0.054c0.138,0.035,0.258,0.086,0.361,0.156l-0.091,1.029c-0.033,0.126-0.109,0.188-0.231,0.188
			c-0.065,0-0.164-0.013-0.294-0.037c-0.131-0.024-0.271-0.039-0.42-0.039c-0.219,0-0.413,0.031-0.581,0.096
			c-0.168,0.062-0.318,0.154-0.452,0.279c-0.133,0.123-0.251,0.274-0.354,0.455s-0.198,0.385-0.287,0.611v4.452h-1.365v-7.112h0.784
			c0.149,0,0.25,0.027,0.304,0.082c0.054,0.053,0.092,0.147,0.116,0.282L112.34,70.132z"/>
		<path fill="#FFFFFF" d="M116,69.761c0.397-0.378,0.827-0.659,1.292-0.847s0.974-0.28,1.53-0.28c0.406,0,0.765,0.066,1.078,0.199
			c0.313,0.134,0.577,0.319,0.791,0.558c0.215,0.237,0.377,0.522,0.487,0.854c0.109,0.331,0.165,0.696,0.165,1.099v4.536h-0.609
			c-0.135,0-0.238-0.021-0.308-0.065c-0.07-0.043-0.126-0.127-0.168-0.248l-0.147-0.623c-0.182,0.168-0.362,0.314-0.539,0.443
			c-0.178,0.129-0.363,0.237-0.557,0.329c-0.194,0.093-0.4,0.159-0.62,0.206s-0.462,0.07-0.728,0.07
			c-0.28,0-0.542-0.039-0.788-0.116c-0.245-0.076-0.458-0.192-0.64-0.354c-0.182-0.157-0.326-0.355-0.431-0.596
			c-0.105-0.238-0.158-0.516-0.158-0.833c0-0.28,0.076-0.55,0.228-0.809s0.399-0.491,0.742-0.696
			c0.343-0.205,0.791-0.373,1.344-0.504c0.553-0.131,1.233-0.205,2.04-0.225v-0.52c0-0.535-0.114-0.938-0.343-1.203
			c-0.229-0.267-0.564-0.397-1.008-0.397c-0.299,0-0.55,0.036-0.752,0.11c-0.203,0.074-0.378,0.157-0.525,0.25
			c-0.147,0.09-0.275,0.174-0.385,0.248c-0.11,0.073-0.223,0.11-0.339,0.11c-0.094,0-0.174-0.024-0.242-0.077
			c-0.068-0.051-0.123-0.111-0.165-0.182L116,69.761z M120.004,72.723c-0.555,0.02-1.026,0.062-1.414,0.129
			c-0.388,0.067-0.703,0.157-0.945,0.271c-0.243,0.109-0.417,0.244-0.525,0.396c-0.108,0.151-0.161,0.319-0.161,0.508
			c0,0.178,0.029,0.33,0.088,0.459c0.058,0.127,0.137,0.231,0.238,0.313c0.1,0.081,0.218,0.142,0.354,0.179
			c0.135,0.039,0.282,0.058,0.441,0.058c0.21,0,0.402-0.021,0.578-0.063c0.175-0.041,0.339-0.102,0.493-0.179
			c0.154-0.076,0.301-0.171,0.441-0.282c0.14-0.113,0.277-0.24,0.413-0.386L120.004,72.723L120.004,72.723z"/>
		<path fill="#FFFFFF" d="M127.369,69.992c-0.037,0.061-0.077,0.104-0.119,0.129s-0.096,0.039-0.161,0.039
			c-0.075,0-0.158-0.025-0.249-0.077c-0.091-0.052-0.201-0.106-0.329-0.168c-0.128-0.062-0.279-0.117-0.452-0.168
			c-0.172-0.052-0.378-0.077-0.616-0.077c-0.196,0-0.375,0.023-0.536,0.073c-0.161,0.049-0.297,0.116-0.409,0.202
			c-0.112,0.088-0.199,0.188-0.259,0.31c-0.061,0.118-0.091,0.246-0.091,0.381c0,0.179,0.052,0.324,0.157,0.441
			c0.105,0.116,0.243,0.217,0.413,0.301c0.17,0.084,0.364,0.16,0.581,0.228c0.217,0.068,0.438,0.141,0.665,0.215
			c0.226,0.074,0.448,0.158,0.665,0.256c0.217,0.096,0.411,0.215,0.581,0.355c0.17,0.144,0.308,0.313,0.413,0.517
			c0.105,0.198,0.157,0.444,0.157,0.733c0,0.332-0.06,0.639-0.178,0.92c-0.119,0.282-0.294,0.526-0.525,0.731
			s-0.517,0.366-0.857,0.481c-0.341,0.117-0.73,0.177-1.169,0.177c-0.49,0-0.943-0.082-1.358-0.245
			c-0.416-0.163-0.763-0.371-1.043-0.623l0.322-0.525c0.038-0.063,0.084-0.115,0.14-0.148c0.056-0.035,0.13-0.055,0.224-0.055
			c0.088,0,0.18,0.033,0.273,0.101c0.093,0.065,0.205,0.137,0.336,0.213c0.13,0.077,0.289,0.146,0.476,0.21s0.42,0.096,0.7,0.096
			c0.233,0,0.437-0.029,0.609-0.088s0.316-0.138,0.43-0.236c0.114-0.102,0.2-0.217,0.256-0.349c0.056-0.131,0.084-0.271,0.084-0.413
			c0-0.187-0.053-0.342-0.158-0.466c-0.105-0.123-0.243-0.229-0.413-0.317c-0.17-0.088-0.365-0.164-0.584-0.229
			c-0.219-0.065-0.443-0.136-0.672-0.21c-0.229-0.075-0.453-0.161-0.672-0.26c-0.22-0.1-0.415-0.221-0.584-0.371
			c-0.17-0.148-0.308-0.331-0.413-0.545c-0.105-0.215-0.158-0.479-0.158-0.784c0-0.275,0.057-0.539,0.171-0.791
			c0.115-0.252,0.28-0.474,0.497-0.665c0.217-0.191,0.485-0.346,0.805-0.459c0.319-0.114,0.685-0.171,1.096-0.171
			c0.471,0,0.897,0.073,1.277,0.224c0.38,0.151,0.706,0.354,0.977,0.616L127.369,69.992z"/>
		<path fill="#FFFFFF" d="M130.946,66.568c0,0.127-0.026,0.246-0.077,0.361c-0.052,0.112-0.12,0.215-0.207,0.301
			c-0.086,0.086-0.188,0.152-0.305,0.203c-0.116,0.049-0.237,0.071-0.363,0.071s-0.245-0.022-0.357-0.071
			c-0.112-0.051-0.211-0.117-0.298-0.203c-0.086-0.086-0.153-0.188-0.202-0.301c-0.049-0.115-0.074-0.234-0.074-0.361
			c0-0.131,0.024-0.254,0.074-0.367c0.049-0.114,0.116-0.215,0.202-0.301c0.087-0.086,0.186-0.154,0.298-0.203
			c0.112-0.049,0.231-0.073,0.357-0.073s0.247,0.024,0.363,0.073c0.117,0.049,0.219,0.117,0.305,0.203
			c0.087,0.086,0.155,0.187,0.207,0.301C130.919,66.314,130.946,66.438,130.946,66.568z M130.686,68.768v7.111h-1.364v-7.111
			H130.686z"/>
		<path fill="#FFFFFF" d="M134.068,65.547v10.332h-1.372V65.547H134.068z"/>
		<path fill="#FFFFFF" d="M140.125,72.111c0,0.848,0.105,1.674,0.317,2.478c0.213,0.804,0.522,1.565,0.931,2.286
			c0.067,0.132,0.086,0.234,0.054,0.307c-0.032,0.071-0.082,0.129-0.149,0.174l-0.522,0.317c-0.3-0.46-0.555-0.917-0.765-1.371
			c-0.21-0.454-0.381-0.909-0.511-1.368c-0.13-0.457-0.225-0.92-0.284-1.389c-0.061-0.468-0.091-0.945-0.091-1.434
			c0-0.492,0.03-0.973,0.091-1.44c0.06-0.468,0.154-0.931,0.284-1.389s0.301-0.914,0.511-1.368c0.21-0.454,0.465-0.911,0.765-1.371
			l0.522,0.318c0.067,0.043,0.117,0.102,0.149,0.174c0.032,0.07,0.014,0.174-0.054,0.306c-0.408,0.72-0.718,1.483-0.931,2.289
			C140.231,70.436,140.125,71.264,140.125,72.111z"/>
		<path fill="#FFFFFF" d="M148.896,74.031c0.07,0,0.135,0.027,0.186,0.084l0.504,0.552c-0.352,0.416-0.779,0.737-1.285,0.966
			c-0.508,0.229-1.115,0.342-1.828,0.342c-0.623,0-1.188-0.105-1.695-0.322c-0.506-0.217-0.938-0.52-1.295-0.905
			c-0.357-0.39-0.633-0.854-0.832-1.394c-0.197-0.541-0.294-1.135-0.294-1.78c0-0.648,0.103-1.242,0.309-1.782
			s0.495-1.004,0.868-1.395c0.37-0.388,0.815-0.688,1.334-0.903c0.521-0.218,1.092-0.324,1.719-0.324c0.613,0,1.156,0.101,1.633,0.3
			c0.478,0.2,0.892,0.467,1.242,0.799l-0.42,0.596c-0.026,0.044-0.062,0.08-0.104,0.105c-0.041,0.028-0.099,0.043-0.164,0.043
			c-0.076,0-0.166-0.037-0.269-0.113c-0.103-0.075-0.235-0.16-0.401-0.256c-0.166-0.095-0.371-0.18-0.615-0.254
			c-0.243-0.076-0.547-0.115-0.911-0.115c-0.429,0-0.82,0.076-1.177,0.227c-0.354,0.148-0.662,0.366-0.92,0.646
			c-0.258,0.283-0.459,0.629-0.603,1.039c-0.142,0.41-0.213,0.873-0.213,1.39c0,0.522,0.073,0.989,0.224,1.397
			c0.148,0.406,0.353,0.754,0.61,1.036c0.262,0.284,0.565,0.5,0.918,0.648c0.354,0.146,0.731,0.222,1.142,0.222
			c0.248,0,0.471-0.015,0.67-0.045c0.196-0.029,0.379-0.075,0.545-0.135c0.166-0.062,0.324-0.139,0.472-0.23
			c0.147-0.095,0.295-0.207,0.438-0.34c0.03-0.027,0.063-0.051,0.103-0.068C148.818,74.04,148.857,74.031,148.896,74.031z"/>
		<path fill="#FFFFFF" d="M153.234,69.688c0.449,0,0.854,0.072,1.215,0.221c0.363,0.146,0.67,0.354,0.924,0.63
			c0.254,0.272,0.449,0.604,0.586,0.989c0.137,0.387,0.203,0.818,0.203,1.3c0,0.479-0.066,0.914-0.203,1.302
			c-0.137,0.389-0.332,0.719-0.586,0.99s-0.561,0.479-0.924,0.627c-0.361,0.146-0.766,0.219-1.215,0.219
			c-0.451,0-0.859-0.072-1.221-0.219c-0.363-0.146-0.672-0.354-0.928-0.627c-0.258-0.271-0.453-0.604-0.592-0.99
			c-0.141-0.387-0.207-0.82-0.207-1.302s0.066-0.913,0.207-1.3c0.139-0.387,0.334-0.717,0.592-0.989
			c0.256-0.272,0.562-0.483,0.928-0.63C152.375,69.76,152.783,69.688,153.234,69.688z M153.234,75.051
			c0.576,0,1.006-0.193,1.291-0.582c0.283-0.388,0.426-0.934,0.426-1.638s-0.143-1.251-0.426-1.642
			c-0.285-0.392-0.715-0.586-1.291-0.586c-0.584,0-1.02,0.194-1.305,0.586c-0.285,0.391-0.432,0.938-0.432,1.642
			s0.146,1.25,0.432,1.638C152.217,74.857,152.65,75.051,153.234,75.051z"/>
		<path fill="#FFFFFF" d="M158.562,70.629c0.133-0.14,0.271-0.268,0.414-0.384c0.145-0.116,0.297-0.216,0.459-0.297
			c0.162-0.082,0.336-0.146,0.521-0.192s0.385-0.068,0.598-0.068c0.336,0,0.631,0.058,0.885,0.168
			c0.254,0.111,0.467,0.271,0.639,0.473c0.174,0.201,0.303,0.443,0.391,0.729c0.088,0.284,0.133,0.598,0.133,0.941v3.882h-1.176
			v-3.882c0-0.438-0.102-0.775-0.301-1.018c-0.199-0.244-0.506-0.362-0.918-0.362c-0.301,0-0.58,0.069-0.844,0.213
			c-0.262,0.142-0.504,0.335-0.729,0.579v4.47h-1.17v-6.096h0.703c0.162,0,0.267,0.077,0.306,0.233L158.562,70.629z"/>
		<path fill="#FFFFFF" d="M164.588,75.879v-5.136l-0.637-0.078c-0.092-0.021-0.168-0.054-0.225-0.101
			c-0.061-0.045-0.088-0.111-0.088-0.199v-0.486h0.947v-0.294c0-0.372,0.061-0.715,0.178-1.028c0.117-0.312,0.297-0.586,0.533-0.812
			c0.236-0.229,0.533-0.405,0.889-0.531c0.354-0.126,0.77-0.188,1.246-0.188c0.148,0,0.311,0.012,0.479,0.031
			c0.168,0.021,0.311,0.049,0.428,0.09l-0.043,0.61c-0.008,0.08-0.059,0.122-0.15,0.126c-0.09,0.004-0.219,0.008-0.383,0.008
			c-0.365,0-0.676,0.034-0.932,0.106c-0.256,0.071-0.465,0.18-0.629,0.323c-0.164,0.145-0.285,0.324-0.359,0.544
			c-0.076,0.218-0.115,0.471-0.115,0.759v0.258h3.709v6h-1.176v-5.15h-2.496v5.146L164.588,75.879L164.588,75.879z"/>
		<path fill="#FFFFFF" d="M172.236,70.953c0.197-0.4,0.434-0.714,0.709-0.942c0.275-0.228,0.605-0.342,0.996-0.342
			c0.131,0,0.256,0.015,0.375,0.045c0.117,0.03,0.221,0.075,0.309,0.136l-0.078,0.881c-0.027,0.108-0.094,0.162-0.197,0.162
			c-0.057,0-0.141-0.011-0.252-0.031c-0.113-0.021-0.23-0.032-0.361-0.032c-0.188,0-0.354,0.024-0.498,0.081
			c-0.143,0.054-0.271,0.134-0.387,0.238c-0.113,0.105-0.215,0.235-0.303,0.392c-0.088,0.153-0.17,0.329-0.246,0.522v3.816h-1.17
			v-6.096h0.672c0.129,0,0.215,0.021,0.262,0.068c0.045,0.045,0.078,0.127,0.1,0.241L172.236,70.953z"/>
		<path fill="#FFFFFF" d="M175.375,70.635c0.34-0.324,0.709-0.564,1.107-0.726c0.396-0.16,0.834-0.24,1.311-0.24
			c0.348,0,0.656,0.058,0.924,0.171c0.268,0.114,0.494,0.273,0.678,0.479c0.186,0.203,0.322,0.447,0.416,0.73
			c0.098,0.284,0.145,0.598,0.145,0.942v3.888h-0.521c-0.115,0-0.203-0.02-0.266-0.057c-0.061-0.038-0.105-0.109-0.145-0.213
			l-0.127-0.534c-0.154,0.144-0.311,0.271-0.463,0.381c-0.148,0.11-0.311,0.204-0.477,0.282c-0.166,0.076-0.342,0.137-0.531,0.177
			c-0.188,0.04-0.395,0.06-0.623,0.06c-0.24,0-0.465-0.031-0.676-0.099c-0.209-0.065-0.393-0.167-0.549-0.303
			c-0.156-0.138-0.279-0.308-0.369-0.511s-0.135-0.441-0.135-0.715c0-0.238,0.064-0.472,0.195-0.691
			c0.131-0.223,0.342-0.422,0.637-0.598c0.293-0.178,0.678-0.319,1.15-0.434c0.475-0.111,1.059-0.176,1.75-0.191v-0.442
			c0-0.46-0.1-0.806-0.297-1.032c-0.193-0.229-0.48-0.342-0.861-0.342c-0.256,0-0.473,0.031-0.646,0.096s-0.322,0.135-0.451,0.213
			c-0.125,0.078-0.232,0.149-0.328,0.213c-0.096,0.064-0.189,0.098-0.291,0.098c-0.08,0-0.148-0.021-0.207-0.065
			s-0.104-0.096-0.143-0.155L175.375,70.635z M178.807,73.173c-0.477,0.017-0.881,0.054-1.213,0.111
			c-0.332,0.057-0.602,0.135-0.809,0.229c-0.209,0.098-0.359,0.209-0.451,0.34s-0.137,0.273-0.137,0.436
			c0,0.152,0.023,0.283,0.074,0.393c0.051,0.11,0.117,0.2,0.203,0.271c0.086,0.068,0.188,0.121,0.305,0.152
			c0.115,0.03,0.24,0.049,0.377,0.049c0.18,0,0.346-0.021,0.496-0.055c0.146-0.037,0.291-0.089,0.422-0.152
			c0.133-0.066,0.258-0.147,0.379-0.243c0.119-0.097,0.238-0.206,0.354-0.33V73.173z"/>
		<path fill="#FFFFFF" d="M184.398,70.635c0.34-0.324,0.709-0.564,1.105-0.726c0.396-0.162,0.836-0.24,1.312-0.24
			c0.348,0,0.656,0.058,0.924,0.171c0.27,0.114,0.494,0.273,0.678,0.479c0.186,0.203,0.324,0.447,0.418,0.73
			c0.094,0.284,0.141,0.598,0.141,0.942v3.888h-0.521c-0.117,0-0.205-0.02-0.265-0.057c-0.062-0.038-0.108-0.109-0.146-0.213
			l-0.125-0.534c-0.155,0.144-0.312,0.271-0.463,0.381s-0.312,0.204-0.478,0.282c-0.166,0.076-0.344,0.137-0.53,0.177
			s-0.396,0.06-0.625,0.06c-0.24,0-0.466-0.031-0.675-0.099c-0.211-0.065-0.394-0.167-0.549-0.303
			c-0.156-0.138-0.279-0.308-0.369-0.511s-0.135-0.441-0.135-0.715c0-0.238,0.063-0.472,0.192-0.691
			c0.131-0.223,0.344-0.422,0.638-0.598c0.295-0.178,0.678-0.319,1.151-0.434c0.474-0.111,1.058-0.176,1.748-0.191v-0.442
			c0-0.46-0.099-0.806-0.293-1.032c-0.195-0.229-0.484-0.342-0.863-0.342c-0.258,0-0.474,0.031-0.646,0.096
			c-0.174,0.064-0.324,0.135-0.449,0.213c-0.127,0.078-0.236,0.149-0.33,0.213c-0.094,0.064-0.191,0.098-0.291,0.098
			c-0.08,0-0.148-0.021-0.207-0.065s-0.105-0.096-0.141-0.155L184.398,70.635z M187.83,73.173c-0.475,0.017-0.879,0.054-1.211,0.111
			c-0.332,0.057-0.602,0.135-0.811,0.229c-0.207,0.098-0.357,0.209-0.449,0.34s-0.139,0.273-0.139,0.436
			c0,0.152,0.023,0.283,0.074,0.393c0.051,0.11,0.117,0.2,0.203,0.271c0.086,0.068,0.188,0.121,0.303,0.152
			c0.115,0.03,0.242,0.049,0.381,0.049c0.18,0,0.344-0.021,0.492-0.055c0.15-0.037,0.291-0.089,0.426-0.152
			c0.131-0.066,0.258-0.147,0.377-0.243c0.121-0.097,0.236-0.206,0.354-0.33V73.173L187.83,73.173z"/>
		<path fill="#FFFFFF" d="M194.143,70.833c-0.033,0.052-0.064,0.089-0.102,0.11c-0.037,0.021-0.082,0.033-0.139,0.033
			c-0.064,0-0.135-0.021-0.213-0.065s-0.172-0.093-0.283-0.146c-0.109-0.053-0.238-0.101-0.387-0.145
			c-0.149-0.044-0.324-0.064-0.527-0.064c-0.168,0-0.32,0.021-0.459,0.062s-0.256,0.1-0.352,0.174
			c-0.098,0.074-0.17,0.162-0.223,0.265c-0.053,0.104-0.078,0.211-0.078,0.326c0,0.152,0.045,0.278,0.137,0.378
			c0.09,0.103,0.207,0.188,0.354,0.259c0.146,0.071,0.312,0.139,0.498,0.194c0.186,0.06,0.375,0.119,0.57,0.185
			c0.191,0.062,0.383,0.138,0.568,0.22s0.354,0.184,0.498,0.306s0.266,0.27,0.354,0.441c0.091,0.171,0.136,0.382,0.136,0.63
			c0,0.284-0.052,0.547-0.152,0.789c-0.104,0.241-0.252,0.45-0.45,0.627c-0.197,0.176-0.442,0.313-0.733,0.414
			c-0.293,0.1-0.627,0.149-1.002,0.149c-0.421,0-0.81-0.07-1.164-0.211s-0.654-0.316-0.896-0.533l0.276-0.449
			c0.03-0.057,0.069-0.1,0.119-0.129c0.049-0.03,0.11-0.047,0.19-0.047c0.076,0,0.153,0.027,0.233,0.084
			c0.08,0.058,0.177,0.117,0.289,0.185c0.11,0.065,0.246,0.126,0.405,0.181c0.16,0.053,0.361,0.08,0.603,0.08
			c0.199,0,0.373-0.023,0.521-0.074c0.148-0.051,0.271-0.117,0.369-0.205c0.1-0.086,0.17-0.185,0.221-0.297
			c0.049-0.109,0.07-0.229,0.07-0.354c0-0.16-0.045-0.293-0.135-0.398c-0.09-0.104-0.209-0.197-0.354-0.271
			c-0.146-0.076-0.312-0.145-0.5-0.198c-0.188-0.054-0.383-0.114-0.576-0.18s-0.391-0.14-0.576-0.224s-0.354-0.188-0.5-0.316
			s-0.266-0.284-0.354-0.471c-0.09-0.184-0.135-0.405-0.135-0.672c0-0.233,0.049-0.461,0.146-0.678
			c0.101-0.216,0.239-0.406,0.428-0.57c0.187-0.164,0.416-0.295,0.688-0.393s0.587-0.146,0.938-0.146
			c0.402,0,0.769,0.063,1.095,0.191c0.325,0.128,0.604,0.305,0.838,0.528L194.143,70.833z"/>
		<path fill="#FFFFFF" d="M205.494,75.879h-1.141c-0.229,0-0.395-0.09-0.498-0.27l-2.129-2.988
			c-0.068-0.102-0.145-0.171-0.225-0.213s-0.197-0.062-0.357-0.062h-0.834v3.533h-1.279v-8.615h2.484
			c0.557,0,1.033,0.057,1.438,0.17c0.402,0.114,0.734,0.276,0.996,0.486s0.455,0.463,0.582,0.76
			c0.125,0.295,0.189,0.627,0.189,0.995c0,0.3-0.049,0.582-0.141,0.847c-0.094,0.266-0.229,0.5-0.404,0.711
			c-0.178,0.211-0.396,0.393-0.65,0.543c-0.256,0.151-0.545,0.27-0.869,0.35c0.16,0.098,0.299,0.229,0.414,0.4L205.494,75.879z
			 M201.475,71.415c0.328,0,0.617-0.04,0.867-0.12s0.459-0.193,0.627-0.339s0.293-0.32,0.377-0.522
			c0.084-0.201,0.127-0.425,0.127-0.668c0-0.496-0.164-0.871-0.49-1.123c-0.324-0.252-0.812-0.377-1.467-0.377h-1.205v3.149H201.475
			z"/>
		<path fill="#FFFFFF" d="M211.363,75.009c-0.146,0.168-0.312,0.313-0.498,0.437c-0.189,0.121-0.389,0.222-0.602,0.298
			c-0.213,0.075-0.432,0.132-0.656,0.168c-0.228,0.034-0.449,0.054-0.668,0.054c-0.42,0-0.812-0.07-1.168-0.213
			c-0.357-0.143-0.668-0.352-0.932-0.624c-0.262-0.272-0.467-0.612-0.609-1.021c-0.146-0.404-0.223-0.873-0.223-1.399
			c0-0.424,0.066-0.819,0.199-1.187c0.131-0.365,0.318-0.686,0.564-0.957s0.547-0.484,0.902-0.643
			c0.357-0.154,0.758-0.232,1.201-0.232c0.371,0,0.715,0.062,1.029,0.184c0.312,0.122,0.584,0.299,0.812,0.531
			c0.229,0.229,0.406,0.518,0.537,0.855c0.129,0.342,0.195,0.729,0.195,1.164c0,0.182-0.021,0.303-0.062,0.363
			c-0.039,0.062-0.113,0.093-0.224,0.093h-3.996c0.015,0.364,0.063,0.683,0.156,0.951c0.092,0.269,0.219,0.495,0.381,0.675
			c0.162,0.182,0.354,0.312,0.58,0.402c0.223,0.088,0.473,0.132,0.75,0.132c0.26,0,0.483-0.03,0.674-0.09
			c0.19-0.062,0.354-0.125,0.492-0.195c0.139-0.069,0.254-0.135,0.348-0.194c0.097-0.061,0.179-0.09,0.25-0.09
			c0.097,0,0.17,0.035,0.224,0.107L211.363,75.009z M210.396,72.152c0-0.231-0.033-0.445-0.102-0.644
			c-0.062-0.194-0.162-0.364-0.291-0.51c-0.127-0.146-0.281-0.256-0.467-0.336s-0.396-0.12-0.639-0.12
			c-0.49,0-0.879,0.143-1.158,0.428c-0.283,0.282-0.463,0.678-0.537,1.182H210.396z"/>
		<path fill="#FFFFFF" d="M217.908,70.011v0.438c0,0.144-0.09,0.232-0.27,0.27l-0.654,0.096c0.057,0.125,0.1,0.256,0.131,0.396
			c0.033,0.14,0.049,0.283,0.049,0.437c0,0.301-0.059,0.569-0.174,0.812s-0.275,0.449-0.48,0.621
			c-0.203,0.172-0.447,0.304-0.729,0.396s-0.592,0.14-0.928,0.14c-0.275,0-0.533-0.03-0.773-0.093
			c-0.119,0.072-0.211,0.151-0.273,0.237c-0.062,0.087-0.092,0.171-0.092,0.255c0,0.141,0.059,0.244,0.176,0.312
			c0.119,0.066,0.273,0.117,0.463,0.146c0.19,0.028,0.408,0.049,0.654,0.057c0.246,0.009,0.496,0.021,0.75,0.039
			s0.504,0.051,0.75,0.097s0.463,0.12,0.654,0.222c0.189,0.104,0.344,0.242,0.461,0.42c0.117,0.18,0.178,0.409,0.178,0.693
			c0,0.264-0.066,0.52-0.195,0.768c-0.131,0.248-0.318,0.469-0.564,0.66c-0.248,0.192-0.551,0.346-0.906,0.463
			c-0.355,0.115-0.76,0.174-1.213,0.174c-0.449,0-0.846-0.045-1.18-0.133s-0.611-0.205-0.834-0.354s-0.389-0.32-0.498-0.518
			c-0.109-0.194-0.164-0.398-0.164-0.61c0-0.296,0.092-0.548,0.273-0.753c0.185-0.206,0.439-0.367,0.764-0.483
			c-0.178-0.08-0.314-0.188-0.422-0.327c-0.104-0.138-0.152-0.32-0.152-0.549c0-0.088,0.018-0.179,0.047-0.273
			c0.031-0.094,0.082-0.188,0.146-0.279c0.065-0.096,0.147-0.186,0.246-0.27s0.211-0.16,0.34-0.228
			c-0.301-0.168-0.536-0.392-0.709-0.669c-0.172-0.278-0.258-0.604-0.258-0.977c0-0.301,0.06-0.568,0.174-0.811
			c0.117-0.24,0.277-0.446,0.484-0.618c0.204-0.172,0.45-0.304,0.737-0.396c0.285-0.092,0.599-0.139,0.938-0.139
			c0.528,0,0.981,0.109,1.362,0.329L217.908,70.011L217.908,70.011z M216.721,76.197c0-0.146-0.041-0.26-0.121-0.346
			s-0.188-0.153-0.326-0.205c-0.139-0.049-0.299-0.086-0.48-0.106c-0.188-0.022-0.379-0.039-0.58-0.052
			c-0.201-0.012-0.406-0.022-0.621-0.032c-0.211-0.011-0.416-0.029-0.609-0.058c-0.209,0.104-0.379,0.229-0.516,0.379
			c-0.133,0.146-0.199,0.32-0.199,0.521c0,0.128,0.031,0.248,0.1,0.36c0.066,0.111,0.168,0.209,0.307,0.291
			c0.137,0.082,0.311,0.146,0.521,0.191c0.209,0.045,0.461,0.067,0.752,0.067c0.289,0,0.543-0.024,0.764-0.075
			c0.219-0.05,0.404-0.119,0.555-0.21c0.151-0.09,0.264-0.196,0.342-0.319C216.684,76.479,216.721,76.346,216.721,76.197z
			 M214.854,72.837c0.209,0,0.393-0.028,0.549-0.084c0.158-0.056,0.291-0.135,0.396-0.237c0.105-0.102,0.186-0.225,0.24-0.369
			c0.055-0.144,0.082-0.301,0.082-0.474c0-0.353-0.107-0.633-0.322-0.843c-0.213-0.21-0.529-0.314-0.945-0.314
			c-0.412,0-0.725,0.104-0.938,0.314c-0.215,0.21-0.322,0.49-0.322,0.843c0,0.173,0.027,0.329,0.082,0.472
			c0.053,0.144,0.133,0.266,0.24,0.365c0.105,0.104,0.236,0.184,0.395,0.24C214.471,72.807,214.65,72.837,214.854,72.837z"/>
		<path fill="#FFFFFF" d="M220.08,70.953c0.195-0.4,0.432-0.714,0.707-0.942c0.277-0.228,0.609-0.342,0.996-0.342
			c0.133,0,0.258,0.015,0.375,0.045c0.119,0.03,0.221,0.075,0.311,0.136l-0.078,0.881c-0.029,0.108-0.096,0.162-0.199,0.162
			c-0.055,0-0.141-0.011-0.252-0.031c-0.109-0.021-0.23-0.032-0.357-0.032c-0.188,0-0.354,0.024-0.498,0.081
			c-0.146,0.054-0.271,0.134-0.389,0.238c-0.113,0.105-0.215,0.235-0.303,0.392c-0.088,0.153-0.17,0.329-0.246,0.522v3.816h-1.17
			v-6.096h0.672c0.127,0,0.217,0.021,0.262,0.068c0.047,0.045,0.08,0.127,0.1,0.241L220.08,70.953z"/>
		<path fill="#FFFFFF" d="M223.219,70.635c0.34-0.324,0.709-0.564,1.107-0.726c0.396-0.16,0.834-0.24,1.311-0.24
			c0.348,0,0.656,0.058,0.924,0.171c0.27,0.114,0.494,0.273,0.678,0.479c0.186,0.203,0.322,0.447,0.416,0.73
			c0.098,0.284,0.145,0.598,0.145,0.942v3.888h-0.521c-0.115,0-0.203-0.02-0.266-0.057c-0.059-0.038-0.105-0.109-0.143-0.213
			l-0.127-0.534c-0.156,0.144-0.312,0.271-0.465,0.381c-0.148,0.11-0.311,0.204-0.477,0.282c-0.166,0.076-0.342,0.137-0.531,0.177
			c-0.188,0.04-0.395,0.06-0.623,0.06c-0.24,0-0.465-0.031-0.676-0.099c-0.209-0.065-0.393-0.167-0.549-0.303
			c-0.156-0.138-0.279-0.308-0.369-0.511s-0.135-0.441-0.135-0.715c0-0.238,0.064-0.472,0.195-0.691
			c0.131-0.223,0.342-0.422,0.637-0.598c0.293-0.178,0.678-0.319,1.15-0.434c0.475-0.111,1.059-0.176,1.75-0.191v-0.442
			c0-0.46-0.1-0.806-0.295-1.032c-0.195-0.229-0.482-0.342-0.863-0.342c-0.256,0-0.471,0.031-0.645,0.096
			c-0.176,0.064-0.324,0.135-0.451,0.213c-0.125,0.078-0.234,0.149-0.33,0.213c-0.094,0.064-0.189,0.098-0.291,0.098
			c-0.08,0-0.148-0.021-0.207-0.065s-0.104-0.096-0.143-0.155L223.219,70.635z M226.65,73.173c-0.479,0.017-0.881,0.054-1.213,0.111
			c-0.332,0.057-0.604,0.135-0.811,0.229c-0.209,0.098-0.357,0.209-0.451,0.34c-0.092,0.131-0.137,0.273-0.137,0.436
			c0,0.152,0.021,0.283,0.072,0.393c0.053,0.11,0.117,0.2,0.203,0.271c0.086,0.068,0.188,0.121,0.307,0.152
			c0.113,0.03,0.238,0.049,0.377,0.049c0.182,0,0.348-0.021,0.496-0.055c0.146-0.037,0.291-0.089,0.422-0.152
			c0.133-0.066,0.258-0.147,0.379-0.243c0.119-0.097,0.238-0.206,0.354-0.33v-1.201H226.65z"/>
		<path fill="#FFFFFF" d="M232.961,70.833c-0.031,0.052-0.066,0.089-0.102,0.11c-0.037,0.021-0.082,0.033-0.139,0.033
			c-0.062,0-0.137-0.021-0.215-0.065c-0.076-0.044-0.172-0.093-0.279-0.146c-0.109-0.053-0.238-0.101-0.389-0.145
			s-0.322-0.064-0.527-0.064c-0.168,0-0.32,0.021-0.459,0.062c-0.139,0.042-0.254,0.1-0.352,0.174s-0.17,0.162-0.225,0.265
			c-0.053,0.104-0.076,0.211-0.076,0.326c0,0.152,0.045,0.278,0.135,0.378c0.09,0.103,0.209,0.188,0.354,0.259
			c0.146,0.071,0.312,0.139,0.498,0.194c0.188,0.06,0.377,0.119,0.569,0.185c0.195,0.062,0.386,0.138,0.57,0.22
			c0.184,0.082,0.353,0.184,0.498,0.306c0.145,0.122,0.264,0.27,0.354,0.441c0.091,0.171,0.136,0.382,0.136,0.63
			c0,0.284-0.051,0.547-0.152,0.789c-0.102,0.241-0.252,0.45-0.449,0.627c-0.199,0.176-0.443,0.313-0.736,0.414
			c-0.291,0.1-0.625,0.149-1.002,0.149c-0.42,0-0.807-0.07-1.164-0.211c-0.354-0.141-0.65-0.316-0.893-0.533l0.275-0.449
			c0.031-0.057,0.072-0.1,0.119-0.129c0.049-0.03,0.111-0.047,0.191-0.047c0.076,0,0.154,0.027,0.232,0.084
			c0.08,0.058,0.178,0.117,0.287,0.185c0.111,0.065,0.248,0.126,0.408,0.181c0.16,0.053,0.359,0.08,0.602,0.08
			c0.199,0,0.375-0.023,0.521-0.074c0.148-0.051,0.271-0.117,0.369-0.205c0.099-0.086,0.172-0.185,0.22-0.297
			c0.049-0.109,0.071-0.229,0.071-0.354c0-0.16-0.045-0.293-0.135-0.398c-0.091-0.104-0.207-0.197-0.354-0.271
			c-0.146-0.076-0.312-0.145-0.502-0.198c-0.188-0.056-0.379-0.114-0.574-0.18c-0.196-0.064-0.39-0.14-0.576-0.224
			c-0.188-0.084-0.354-0.188-0.502-0.316c-0.146-0.128-0.264-0.284-0.354-0.471c-0.09-0.184-0.135-0.405-0.135-0.672
			c0-0.233,0.049-0.461,0.146-0.678c0.098-0.216,0.239-0.406,0.426-0.57s0.416-0.295,0.688-0.393
			c0.275-0.098,0.589-0.146,0.938-0.146c0.404,0,0.771,0.063,1.097,0.191s0.604,0.305,0.836,0.528L232.961,70.833z"/>
		<path fill="#FFFFFF" d="M235.451,72.111c0-0.851-0.107-1.676-0.32-2.481c-0.215-0.806-0.525-1.569-0.934-2.289
			c-0.068-0.132-0.086-0.233-0.051-0.306c0.033-0.072,0.084-0.131,0.15-0.174l0.521-0.318c0.302,0.46,0.556,0.917,0.765,1.371
			c0.207,0.454,0.377,0.91,0.51,1.368c0.132,0.458,0.228,0.921,0.287,1.389s0.091,0.948,0.091,1.44c0,0.486-0.029,0.966-0.091,1.434
			c-0.062,0.469-0.155,0.932-0.287,1.389c-0.133,0.459-0.303,0.914-0.51,1.368c-0.209,0.454-0.463,0.911-0.765,1.371l-0.521-0.317
			c-0.066-0.045-0.117-0.103-0.15-0.174c-0.035-0.072-0.02-0.175,0.051-0.307c0.408-0.721,0.719-1.482,0.934-2.286
			C235.344,73.785,235.451,72.959,235.451,72.111z"/>
		<path fill="#FFFFFF" d="M237.723,75.061c0-0.127,0.023-0.246,0.07-0.355c0.047-0.112,0.111-0.21,0.191-0.294
			c0.082-0.084,0.18-0.15,0.291-0.2c0.113-0.049,0.232-0.072,0.365-0.072c0.125,0,0.242,0.023,0.354,0.072
			c0.111,0.05,0.211,0.116,0.295,0.2s0.148,0.182,0.199,0.294c0.049,0.109,0.072,0.229,0.072,0.355c0,0.131-0.023,0.252-0.072,0.363
			c-0.051,0.112-0.115,0.21-0.199,0.294s-0.184,0.149-0.295,0.196s-0.229,0.07-0.354,0.07c-0.133,0-0.252-0.023-0.365-0.07
			c-0.111-0.047-0.209-0.112-0.291-0.196c-0.08-0.084-0.146-0.182-0.191-0.294C237.747,75.312,237.723,75.189,237.723,75.061z"/>
	</g>
	<g id="truck_1_">
		<path fill="#FFFFFF" d="M67.485,41.74c-0.357-0.534-0.959-0.855-1.601-0.855h-1.923c-1.063,0-1.924,0.859-1.924,1.923v11.538
			c0,1.062,0.86,1.924,1.924,1.924h7.692c1.062,0,1.923-0.859,1.923-1.924v-2.885c0-0.379-0.112-0.751-0.322-1.066L67.485,41.74z
			 M71.654,54.346h-7.692V42.808h1.923l5.77,8.653L71.654,54.346L71.654,54.346z"/>
		<path fill="#FFFFFF" d="M80.299,49.223l-7.692-11.538c-1.074-1.61-2.868-2.569-4.8-2.569h-7.692V31.27
			c0-3.18-2.588-5.769-5.769-5.769H25.5c-3.181,0-5.769,2.589-5.769,5.769v21.153c0,3.183,2.588,5.771,5.769,5.771l0,0v5.771
			c0,3.183,2.589,5.771,5.769,5.771h2.197c0.859,3.31,3.846,5.771,7.421,5.771c3.571,0,6.558-2.461,7.417-5.771h10.159
			c0.858,3.31,3.846,5.771,7.42,5.771c3.569,0,6.559-2.461,7.416-5.771H75.5c3.181,0,5.77-2.588,5.77-5.771V52.422
			C81.269,51.281,80.934,50.174,80.299,49.223z M25.5,54.346c-1.061,0-1.923-0.861-1.923-1.924V31.269
			c0-1.063,0.862-1.923,1.923-1.923h28.846c1.062,0,1.923,0.859,1.923,1.923v3.846v3.846v13.46c0,1.062-0.86,1.925-1.923,1.925H25.5
			L25.5,54.346z M40.886,71.654c-2.125,0-3.846-1.725-3.846-3.848c0-2.121,1.721-3.848,3.846-3.848c2.123,0,3.846,1.727,3.846,3.848
			C44.732,69.93,43.007,71.654,40.886,71.654z M65.884,71.654c-2.126,0-3.847-1.725-3.847-3.848c0-2.121,1.721-3.848,3.847-3.848
			c2.122,0,3.846,1.727,3.846,3.848C69.73,69.93,68.006,71.654,65.884,71.654z M77.422,63.961c0,1.062-0.86,1.924-1.923,1.924
			h-2.197c-0.859-3.311-3.847-5.77-7.418-5.77c-3.576,0-6.562,2.459-7.422,5.77H48.305c-0.859-3.311-3.846-5.77-7.417-5.77
			c-3.575,0-6.562,2.459-7.421,5.77h-2.198c-1.061,0-1.923-0.861-1.923-1.924v-5.77h25c3.181,0,5.769-2.588,5.769-5.771V38.96h7.692
			c0.643,0,1.243,0.321,1.601,0.855L77.1,51.355c0.21,0.314,0.322,0.688,0.322,1.064V63.961z"/>
	</g>
</g>
</svg>
