<?xml version="1.0" encoding="utf-8"?>
<!-- Generator: Adobe Illustrator 15.0.0, SVG Export Plug-In . SVG Version: 6.00 Build 0)  -->
<!DOCTYPE svg PUBLIC "-//W3C//DTD SVG 1.1//EN" "http://www.w3.org/Graphics/SVG/1.1/DTD/svg11.dtd">
<svg version="1.1" id="Layer_1" xmlns="http://www.w3.org/2000/svg" xmlns:xlink="http://www.w3.org/1999/xlink" x="0px" y="0px"
	 width="285px" height="101px" viewBox="0 0 285 101" enable-background="new 0 0 285 101" xml:space="preserve">
<g id="Layer_1_2_">
	<g>
		
			<linearGradient id="SVGID_1_" gradientUnits="userSpaceOnUse" x1="425" y1="-155.9531" x2="425" y2="-256.3179" gradientTransform="matrix(1 0 0 -1 -282.5 -155.5)">
			<stop  offset="0" style="stop-color:#B9519F"/>
			<stop  offset="1" style="stop-color:#A83B8D"/>
		</linearGradient>
		<rect fill="url(#SVGID_1_)" width="285" height="101"/>
	</g>
</g>
<g id="Layer_2" display="none">
	<rect display="inline" fill="#D2D2D2" width="101" height="101"/>
</g>
<g>
	<path fill="#FFFFFF" d="M55.739,46.98l0.406-0.403c0.204-0.204,0.204-0.408,0.204-0.609c0-0.201,0-0.403-0.204-0.607
		c-0.202-0.203-0.406-0.203-0.607-0.203c-0.201,0-0.405,0-0.607,0.203l-0.405,0.405c-1.013-0.811-2.025-1.418-3.241-1.418
		c-1.013,0-2.025,0.405-2.835,1.216c-0.81,0.809-1.215,1.822-1.215,2.63c0,1.013,0.406,2.229,1.215,3.647l-3.038,3.038
		c-0.607-0.812-1.013-2.025-1.215-3.242c0-0.201-0.203-0.404-0.405-0.607c-0.203-0.604-0.405-0.604-0.811-0.604
		c-0.404,0-0.607,0.203-0.81,0.405c-0.203,0.199-0.405,0.605-0.203,1.013c0.203,1.62,1.012,3.038,1.823,4.253l-1.013,1.014
		c-0.203,0.203-0.203,0.404-0.203,0.605c0,0.204,0,0.405,0.203,0.609c0.202,0.199,0.405,0.199,0.607,0.199
		c0.202,0,0.405,0,0.607-0.199l0.811-0.812c1.013,0.812,2.227,1.42,3.24,1.42s2.025-0.406,2.836-1.218
		c0.809-0.81,1.214-1.62,1.214-2.633c0-1.015-0.406-2.228-1.417-3.646l2.835-2.834c0.405,0.605,0.607,1.416,0.811,2.228
		c0,0.2,0.202,0.401,0.403,0.606c0.204,0.2,0.406,0.2,0.811,0.2c0.405,0,0.607-0.2,0.811-0.405c0.202-0.201,0.403-0.604,0.202-1.213
		C56.955,48.804,56.348,47.791,55.739,46.98z M49.461,56.094c-0.405,0.405-0.81,0.405-1.418,0.405c-0.404,0-1.013-0.201-1.62-0.606
		l2.835-2.836c0.406,0.812,0.608,1.418,0.608,1.823S49.664,55.688,49.461,56.094z M50.271,49.816
		c-0.404-0.811-0.607-1.418-0.607-1.823c0-0.404,0.203-0.812,0.607-1.215c0.406-0.405,0.81-0.405,1.215-0.405
		c0.406,0,1.013,0.204,1.418,0.607L50.271,49.816z M41.765,62.777c-0.608-0.607-1.621-0.607-2.228,0
		c-0.608,0.607-0.608,1.621,0,2.229l3.241,3.24c0.202,0.203,0.607,0.404,1.013,0.404c0.405,0,0.81-0.201,1.013-0.404
		c0.607-0.607,0.607-1.62,0-2.229L41.765,62.777z M35.081,56.094c-0.607-0.607-1.62-0.607-2.228,0c-0.607,0.607-0.607,1.62,0,2.229
		l3.241,3.239c0.203,0.201,0.608,0.403,1.013,0.403c0.406,0,0.81-0.202,1.013-0.403c0.608-0.607,0.608-1.619,0-2.229L35.081,56.094z
		 M80.042,20.651c-0.607-0.607-1.62-0.607-2.227,0l-6.481,6.481c-1.013-0.607-2.431-1.013-4.05-1.013
		c-3.443-0.203-5.265-0.203-7.291-0.203h-3.242c-2.429,0-4.051,0.608-5.468,2.228l-29.57,29.167c-0.81,0.81-1.214,1.82-1.214,3.037
		c0,1.215,0.404,2.229,1.214,3.038l16.203,16.202c0.811,0.809,1.824,1.215,3.038,1.215c1.215,0,2.228-0.406,3.038-1.215
		l29.166-29.165c2.025-2.025,2.025-4.255,2.025-6.482l-0.204-2.227c-0.202-4.05-0.202-5.671-0.404-8.506
		c-0.204-1.418-0.405-2.633-1.013-3.646l6.479-6.481C80.652,22.272,80.652,21.259,80.042,20.651z M70.929,47.993L49.056,70.068
		l-0.607-0.606c-0.607-0.608-1.62-0.608-2.228,0c-0.607,0.606-0.607,1.62,0,2.228l0.608,0.607l-5.063,5.062
		c-0.405,0.406-1.215,0.406-1.621,0L23.942,61.157c-0.203-0.202-0.404-0.607-0.404-0.81c0-0.203,0.202-0.608,0.404-0.812
		l5.063-5.062l0.405,0.404c0.203,0.201,0.607,0.405,1.013,0.405c0.404,0,0.81-0.204,1.013-0.405c0.607-0.607,0.607-1.62,0-2.229
		l-0.405-0.403L53.106,30.17c1.013-1.013,1.823-1.215,3.443-1.215h3.24c2.025,0,3.849,0,7.292,0.203
		c0.809,0,1.418,0.203,2.025,0.405l-3.242,3.24c-1.821-0.81-4.05-0.607-5.467,0.811c-0.811,0.81-1.418,2.025-1.418,3.442
		c0,1.418,0.405,2.431,1.418,3.443c0.809,0.81,2.025,1.417,3.442,1.417c1.216,0,2.431-0.405,3.443-1.417
		c0.811-0.81,1.418-2.025,1.418-3.443c0-0.81-0.202-1.417-0.607-2.025l3.24-3.241c0.204,0.406,0.204,1.013,0.406,1.621
		c0.202,2.835,0.202,4.253,0.405,8.304l0.202,2.227C72.145,45.967,71.941,46.98,70.929,47.993z M63.031,37.665
		c0.202,0.202,0.607,0.404,1.013,0.404c0.405,0,0.809-0.203,1.013-0.404l0.405-0.406c0,0.203-0.204,0.406-0.405,0.607
		c-0.607,0.608-1.824,0.608-2.431,0c-0.405-0.405-0.405-0.81-0.405-1.214c0-0.406,0.204-0.811,0.405-1.215
		c0.202-0.203,0.406-0.406,0.607-0.406l-0.405,0.406C62.424,36.043,62.424,37.056,63.031,37.665z"/>
	<g>
		<path fill="#FFFFFF" d="M115.883,33.102v6.435c-0.807,0.594-1.667,1.028-2.579,1.304c-0.913,0.275-1.891,0.412-2.932,0.412
			c-1.298,0-2.473-0.201-3.525-0.605c-1.053-0.403-1.951-0.964-2.695-1.683c-0.744-0.719-1.318-1.577-1.721-2.574
			c-0.404-0.997-0.605-2.086-0.605-3.267c0-1.195,0.194-2.292,0.583-3.289c0.388-0.997,0.94-1.855,1.655-2.574
			c0.715-0.719,1.582-1.276,2.602-1.672c1.019-0.396,2.163-0.594,3.432-0.594c0.645,0,1.249,0.051,1.81,0.154
			c0.561,0.103,1.082,0.244,1.562,0.424c0.48,0.18,0.919,0.398,1.315,0.654c0.396,0.257,0.759,0.539,1.089,0.847l-0.847,1.342
			c-0.132,0.213-0.304,0.343-0.517,0.391c-0.212,0.048-0.443-0.005-0.693-0.16c-0.242-0.139-0.484-0.278-0.726-0.418
			c-0.242-0.139-0.511-0.26-0.809-0.363c-0.297-0.103-0.63-0.187-1.001-0.253c-0.37-0.066-0.797-0.099-1.281-0.099
			c-0.785,0-1.494,0.132-2.128,0.396c-0.634,0.264-1.175,0.642-1.623,1.133c-0.447,0.492-0.792,1.082-1.034,1.771
			c-0.242,0.689-0.363,1.459-0.363,2.31c0,0.91,0.13,1.722,0.391,2.437c0.26,0.715,0.627,1.32,1.1,1.815
			c0.473,0.495,1.043,0.873,1.71,1.133c0.667,0.26,1.412,0.39,2.233,0.39c0.586,0,1.111-0.062,1.573-0.187s0.913-0.293,1.353-0.506
			v-2.882h-2.002c-0.191,0-0.339-0.053-0.445-0.16c-0.106-0.106-0.16-0.236-0.16-0.391v-1.672L115.883,33.102L115.883,33.102z"/>
		<path fill="#FFFFFF" d="M132.373,41.077h-2.288c-0.257,0-0.466-0.064-0.627-0.192c-0.162-0.128-0.283-0.288-0.363-0.479
			l-1.188-3.245h-6.588l-1.188,3.245c-0.059,0.168-0.173,0.323-0.341,0.462c-0.168,0.139-0.378,0.209-0.627,0.209h-2.31
			l6.259-15.906h3.015L132.373,41.077z M127.147,35.071l-1.936-5.291c-0.096-0.235-0.194-0.513-0.297-0.836
			c-0.104-0.323-0.206-0.671-0.309-1.045c-0.095,0.374-0.194,0.725-0.297,1.051c-0.103,0.326-0.202,0.61-0.297,0.853l-1.925,5.269
			L127.147,35.071L127.147,35.071z"/>
		<path fill="#FFFFFF" d="M147.43,25.171v15.906h-1.518c-0.234,0-0.43-0.039-0.588-0.116s-0.311-0.207-0.457-0.39l-8.305-10.604
			c0.045,0.484,0.066,0.931,0.066,1.342v9.768h-2.606V25.171h1.551c0.124,0,0.232,0.005,0.324,0.016s0.172,0.033,0.242,0.066
			c0.069,0.033,0.138,0.081,0.203,0.143c0.066,0.062,0.14,0.145,0.22,0.248l8.338,10.648c-0.021-0.256-0.041-0.509-0.055-0.759
			c-0.018-0.25-0.021-0.48-0.021-0.693v-9.669H147.43z"/>
		<path fill="#FFFFFF" d="M164.381,25.171v15.906h-2.969v-6.952h-7.469v6.952h-2.971V25.171h2.971v6.842h7.469v-6.842H164.381z"/>
		<path fill="#FFFFFF" d="M170.895,27.525v4.411h5.564v2.277h-5.564v4.499h7.062v2.365h-10.031V25.171h10.031v2.354H170.895z"/>
		<path fill="#FFFFFF" d="M188.613,30.946c0.354-0.073,0.688-0.126,1.012-0.16c0.324-0.033,0.635-0.049,0.936-0.049
			c0.836,0,1.574,0.125,2.211,0.374c0.641,0.249,1.174,0.594,1.607,1.034c0.432,0.44,0.758,0.956,0.979,1.545
			c0.221,0.591,0.33,1.227,0.33,1.909c0,0.843-0.146,1.613-0.443,2.31c-0.299,0.697-0.711,1.292-1.238,1.788
			c-0.525,0.495-1.15,0.878-1.875,1.149c-0.723,0.271-1.51,0.407-2.357,0.407c-0.5,0-0.975-0.051-1.42-0.154
			c-0.447-0.103-0.867-0.24-1.262-0.413c-0.393-0.172-0.754-0.37-1.088-0.594c-0.334-0.224-0.633-0.46-0.896-0.709l0.836-1.155
			c0.177-0.249,0.406-0.374,0.693-0.374c0.182,0,0.368,0.059,0.562,0.176c0.188,0.117,0.407,0.246,0.653,0.385
			c0.246,0.14,0.535,0.268,0.869,0.385c0.334,0.117,0.733,0.176,1.204,0.176c0.498,0,0.938-0.081,1.318-0.242
			c0.383-0.162,0.698-0.387,0.952-0.677c0.253-0.29,0.443-0.634,0.57-1.034c0.129-0.399,0.192-0.834,0.192-1.303
			c0-0.865-0.252-1.542-0.754-2.03c-0.502-0.487-1.244-0.731-2.228-0.731c-0.756,0-1.529,0.14-2.322,0.418l-1.692-0.484l1.32-7.722
			h7.854v1.155c0,0.389-0.121,0.704-0.363,0.946c-0.241,0.242-0.651,0.363-1.231,0.363h-4.364L188.613,30.946z"/>
		<path fill="#FFFFFF" d="M205.104,29.021c0,0.602-0.102,1.144-0.303,1.628c-0.203,0.484-0.473,0.896-0.809,1.238
			c-0.338,0.341-0.73,0.603-1.178,0.787c-0.447,0.183-0.912,0.275-1.396,0.275c-0.527,0-1.016-0.092-1.463-0.275
			c-0.447-0.184-0.834-0.446-1.16-0.787c-0.326-0.341-0.582-0.753-0.766-1.238c-0.184-0.484-0.275-1.026-0.275-1.628
			c0-0.616,0.092-1.173,0.275-1.672c0.183-0.499,0.438-0.92,0.766-1.265c0.326-0.344,0.713-0.61,1.16-0.797s0.936-0.28,1.463-0.28
			s1.018,0.093,1.469,0.28s0.842,0.453,1.172,0.797c0.33,0.345,0.586,0.767,0.771,1.265
			C205.012,27.848,205.104,28.405,205.104,29.021z M210.395,25.6c0.094-0.11,0.207-0.209,0.334-0.297
			c0.129-0.088,0.312-0.132,0.545-0.132h1.98L201.439,40.67c-0.098,0.118-0.209,0.215-0.34,0.292
			c-0.135,0.077-0.295,0.116-0.484,0.116h-2.025L210.395,25.6z M203.014,29.021c0-0.425-0.043-0.781-0.127-1.067
			s-0.199-0.517-0.342-0.693c-0.143-0.176-0.311-0.303-0.506-0.379c-0.193-0.077-0.4-0.116-0.621-0.116s-0.426,0.039-0.617,0.116
			c-0.189,0.077-0.354,0.203-0.488,0.379c-0.137,0.176-0.244,0.407-0.324,0.693s-0.119,0.642-0.119,1.067
			c0,0.411,0.039,0.753,0.119,1.029c0.08,0.275,0.188,0.497,0.324,0.666c0.137,0.168,0.299,0.29,0.488,0.363
			c0.191,0.073,0.396,0.11,0.617,0.11s0.428-0.037,0.621-0.11c0.195-0.073,0.363-0.194,0.506-0.363s0.258-0.391,0.342-0.666
			C202.971,29.774,203.014,29.432,203.014,29.021z M214.09,37.337c0,0.602-0.102,1.144-0.303,1.628
			c-0.201,0.484-0.471,0.896-0.809,1.237c-0.338,0.341-0.73,0.605-1.18,0.792s-0.91,0.281-1.396,0.281
			c-0.526,0-1.016-0.094-1.463-0.281c-0.446-0.187-0.834-0.451-1.16-0.792c-0.325-0.341-0.581-0.753-0.764-1.237
			c-0.185-0.484-0.274-1.027-0.274-1.628c0-0.616,0.092-1.173,0.274-1.672s0.438-0.92,0.764-1.265
			c0.326-0.345,0.714-0.611,1.16-0.798c0.447-0.187,0.937-0.28,1.463-0.28c0.529,0,1.019,0.093,1.47,0.28
			c0.45,0.187,0.84,0.453,1.166,0.798c0.325,0.345,0.584,0.766,0.771,1.265C213.996,36.164,214.09,36.721,214.09,37.337z
			 M211.988,37.337c0-0.425-0.039-0.781-0.121-1.067c-0.08-0.286-0.191-0.517-0.336-0.693c-0.143-0.176-0.311-0.303-0.506-0.379
			c-0.193-0.077-0.4-0.116-0.621-0.116c-0.219,0-0.426,0.039-0.615,0.116c-0.191,0.077-0.355,0.204-0.496,0.379
			c-0.139,0.176-0.246,0.407-0.324,0.693c-0.076,0.286-0.115,0.642-0.115,1.067c0,0.411,0.039,0.756,0.115,1.034
			c0.078,0.279,0.186,0.502,0.324,0.671c0.141,0.169,0.305,0.29,0.496,0.363c0.189,0.073,0.396,0.11,0.615,0.11
			c0.221,0,0.428-0.037,0.621-0.11c0.195-0.073,0.363-0.194,0.506-0.363c0.145-0.168,0.256-0.392,0.336-0.671
			C211.949,38.093,211.988,37.748,211.988,37.337z"/>
	</g>
	<g>
		<path fill="#FFFFFF" d="M105.284,51.827c0.644,0,1.204,0.073,1.68,0.224c0.476,0.151,0.871,0.36,1.183,0.635
			c0.312,0.271,0.545,0.604,0.696,0.989c0.152,0.388,0.228,0.816,0.228,1.288c0,0.473-0.082,0.904-0.245,1.299
			c-0.164,0.396-0.404,0.733-0.721,1.021c-0.317,0.282-0.713,0.505-1.187,0.659c-0.474,0.156-1.019,0.234-1.634,0.234h-1.554v3.703
			h-1.491V51.827H105.284z M105.284,57c0.378,0,0.71-0.049,0.998-0.146c0.287-0.099,0.527-0.235,0.721-0.416
			s0.339-0.396,0.438-0.646c0.098-0.249,0.147-0.524,0.147-0.829c0-0.611-0.19-1.092-0.57-1.441
			c-0.38-0.351-0.958-0.523-1.732-0.523h-1.554V57H105.284z"/>
		<path fill="#FFFFFF" d="M110.247,55.761c0.397-0.378,0.827-0.659,1.292-0.847s0.974-0.28,1.53-0.28
			c0.406,0,0.765,0.066,1.078,0.199c0.313,0.134,0.577,0.319,0.791,0.558c0.215,0.237,0.377,0.522,0.487,0.854
			c0.109,0.331,0.165,0.696,0.165,1.099v4.536h-0.609c-0.135,0-0.238-0.021-0.308-0.065c-0.07-0.043-0.126-0.127-0.168-0.248
			l-0.147-0.623c-0.182,0.168-0.362,0.314-0.539,0.443c-0.178,0.129-0.363,0.237-0.557,0.329c-0.194,0.093-0.4,0.159-0.62,0.206
			c-0.22,0.047-0.462,0.07-0.728,0.07c-0.28,0-0.542-0.039-0.788-0.116c-0.245-0.076-0.458-0.192-0.64-0.354
			c-0.182-0.158-0.326-0.355-0.431-0.596c-0.105-0.238-0.158-0.516-0.158-0.833c0-0.28,0.076-0.55,0.228-0.809
			s0.399-0.491,0.742-0.696c0.343-0.205,0.791-0.373,1.344-0.504c0.553-0.131,1.233-0.205,2.04-0.225v-0.52
			c0-0.535-0.114-0.938-0.343-1.204c-0.229-0.266-0.564-0.396-1.008-0.396c-0.299,0-0.55,0.036-0.752,0.11
			c-0.203,0.074-0.378,0.157-0.525,0.25c-0.147,0.09-0.275,0.174-0.385,0.248c-0.11,0.073-0.223,0.11-0.339,0.11
			c-0.094,0-0.174-0.024-0.242-0.077c-0.068-0.051-0.123-0.111-0.165-0.182L110.247,55.761z M114.25,58.723
			c-0.555,0.02-1.026,0.062-1.414,0.129c-0.388,0.067-0.703,0.157-0.945,0.271c-0.243,0.109-0.417,0.244-0.525,0.396
			c-0.108,0.151-0.161,0.319-0.161,0.508c0,0.178,0.029,0.33,0.088,0.459c0.058,0.127,0.137,0.231,0.238,0.313
			c0.1,0.081,0.218,0.142,0.354,0.179c0.135,0.039,0.282,0.058,0.441,0.058c0.21,0,0.402-0.021,0.578-0.063
			c0.175-0.041,0.339-0.102,0.493-0.179c0.154-0.076,0.301-0.171,0.441-0.283c0.14-0.112,0.277-0.239,0.413-0.385L114.25,58.723
			L114.25,58.723z"/>
		<path fill="#FFFFFF" d="M123.484,55.033v0.511c0,0.168-0.105,0.272-0.315,0.315l-0.763,0.111c0.065,0.145,0.117,0.297,0.154,0.459
			c0.037,0.159,0.056,0.328,0.056,0.506c0,0.352-0.067,0.668-0.203,0.948c-0.136,0.282-0.322,0.523-0.56,0.726
			c-0.238,0.201-0.521,0.354-0.851,0.463c-0.33,0.107-0.689,0.16-1.082,0.16c-0.322,0-0.623-0.034-0.903-0.104
			c-0.14,0.084-0.247,0.177-0.319,0.276c-0.072,0.1-0.108,0.199-0.108,0.298c0,0.163,0.069,0.284,0.207,0.362
			c0.138,0.08,0.317,0.138,0.539,0.172c0.222,0.035,0.476,0.059,0.763,0.065c0.287,0.011,0.579,0.024,0.875,0.048
			c0.296,0.021,0.588,0.059,0.875,0.109c0.287,0.055,0.541,0.143,0.763,0.262c0.222,0.117,0.401,0.28,0.539,0.487
			c0.138,0.208,0.207,0.479,0.207,0.81c0,0.31-0.076,0.606-0.228,0.896c-0.152,0.289-0.372,0.546-0.662,0.771
			c-0.289,0.226-0.642,0.403-1.057,0.539c-0.416,0.137-0.887,0.202-1.414,0.202s-0.986-0.051-1.375-0.153
			c-0.39-0.104-0.714-0.239-0.973-0.412c-0.259-0.172-0.453-0.373-0.581-0.604s-0.192-0.467-0.192-0.714
			c0-0.347,0.107-0.64,0.322-0.879c0.215-0.24,0.511-0.429,0.889-0.562c-0.206-0.095-0.369-0.222-0.49-0.381
			c-0.121-0.162-0.182-0.375-0.182-0.643c0-0.104,0.019-0.209,0.056-0.316c0.038-0.111,0.095-0.222,0.172-0.33
			s0.172-0.215,0.287-0.312c0.114-0.1,0.246-0.188,0.396-0.268c-0.35-0.194-0.625-0.457-0.826-0.779
			c-0.201-0.324-0.301-0.703-0.301-1.139c0-0.351,0.068-0.666,0.203-0.943c0.135-0.28,0.323-0.521,0.563-0.723
			c0.24-0.201,0.527-0.354,0.861-0.463c0.334-0.105,0.699-0.16,1.096-0.16c0.616,0,1.146,0.129,1.589,0.387L123.484,55.033
			L123.484,55.033z M122.098,62.25c0-0.168-0.046-0.303-0.14-0.402c-0.094-0.101-0.221-0.18-0.382-0.238
			c-0.161-0.059-0.349-0.101-0.563-0.125c-0.214-0.024-0.44-0.047-0.675-0.061c-0.236-0.014-0.477-0.025-0.725-0.038
			c-0.247-0.012-0.485-0.034-0.714-0.065c-0.243,0.121-0.442,0.269-0.599,0.439c-0.157,0.172-0.234,0.376-0.234,0.609
			c0,0.148,0.039,0.289,0.115,0.42c0.077,0.131,0.196,0.243,0.357,0.339c0.161,0.097,0.364,0.171,0.609,0.226s0.538,0.08,0.878,0.08
			c0.336,0,0.632-0.029,0.889-0.088c0.256-0.059,0.472-0.141,0.647-0.244c0.175-0.104,0.308-0.229,0.399-0.375
			S122.098,62.423,122.098,62.25z M119.921,58.33c0.243,0,0.456-0.033,0.641-0.1c0.184-0.063,0.338-0.156,0.462-0.275
			s0.217-0.262,0.28-0.43c0.063-0.17,0.095-0.354,0.095-0.555c0-0.41-0.125-0.738-0.375-0.982c-0.25-0.245-0.617-0.367-1.103-0.367
			c-0.48,0-0.846,0.122-1.096,0.367c-0.25,0.244-0.375,0.572-0.375,0.982c0,0.2,0.032,0.385,0.095,0.551s0.156,0.308,0.28,0.427
			c0.124,0.118,0.278,0.213,0.462,0.28C119.472,58.296,119.683,58.33,119.921,58.33z"/>
		<path fill="#FFFFFF" d="M130.644,54.768v7.111h-0.818c-0.188,0-0.309-0.091-0.364-0.273l-0.099-0.713
			c-0.153,0.164-0.314,0.312-0.482,0.447c-0.168,0.137-0.348,0.251-0.539,0.348c-0.191,0.097-0.394,0.17-0.609,0.225
			c-0.215,0.054-0.446,0.081-0.693,0.081c-0.392,0-0.736-0.065-1.033-0.196c-0.297-0.131-0.545-0.312-0.745-0.55
			c-0.201-0.235-0.353-0.521-0.455-0.853c-0.103-0.33-0.154-0.695-0.154-1.099v-4.528h1.372v4.528c0,0.509,0.117,0.904,0.35,1.187
			c0.233,0.283,0.59,0.426,1.071,0.426c0.35,0,0.677-0.083,0.98-0.249c0.304-0.165,0.588-0.394,0.854-0.685v-5.207H130.644z"/>
		<path fill="#FFFFFF" d="M138.393,60.864c-0.168,0.194-0.361,0.364-0.581,0.507c-0.219,0.143-0.452,0.258-0.7,0.347
			c-0.247,0.089-0.503,0.154-0.767,0.196c-0.264,0.042-0.523,0.062-0.78,0.062c-0.49,0-0.943-0.084-1.361-0.248
			c-0.418-0.166-0.779-0.408-1.085-0.729c-0.306-0.319-0.544-0.716-0.714-1.188c-0.171-0.475-0.256-1.02-0.256-1.636
			c0-0.493,0.077-0.954,0.231-1.383c0.154-0.427,0.374-0.799,0.661-1.116c0.287-0.316,0.639-0.566,1.054-0.749
			c0.415-0.182,0.882-0.272,1.4-0.272c0.434,0,0.834,0.072,1.2,0.215c0.366,0.143,0.683,0.35,0.948,0.619
			c0.267,0.271,0.475,0.604,0.627,1.002c0.151,0.396,0.228,0.849,0.228,1.355c0,0.211-0.023,0.354-0.07,0.424
			c-0.047,0.072-0.133,0.108-0.259,0.108h-4.662c0.014,0.425,0.074,0.795,0.182,1.108c0.107,0.314,0.256,0.578,0.444,0.789
			c0.189,0.209,0.414,0.365,0.676,0.469c0.262,0.104,0.553,0.152,0.875,0.152c0.304,0,0.565-0.033,0.788-0.104
			c0.221-0.069,0.412-0.146,0.573-0.229c0.161-0.082,0.297-0.155,0.406-0.228c0.109-0.071,0.206-0.104,0.291-0.104
			c0.111,0,0.198,0.043,0.259,0.127L138.393,60.864z M137.266,57.532c0-0.271-0.038-0.521-0.115-0.749
			c-0.077-0.229-0.19-0.428-0.34-0.596s-0.331-0.299-0.546-0.394c-0.215-0.094-0.462-0.142-0.742-0.142
			c-0.574,0-1.025,0.166-1.354,0.498c-0.329,0.33-0.538,0.791-0.626,1.379L137.266,57.532L137.266,57.532z"/>
		<path fill="#FFFFFF" d="M143.322,55.761c0.396-0.378,0.826-0.659,1.291-0.847s0.975-0.28,1.529-0.28
			c0.404,0,0.766,0.066,1.078,0.199c0.312,0.134,0.574,0.319,0.791,0.558c0.215,0.237,0.377,0.522,0.484,0.854
			s0.164,0.696,0.164,1.099v4.536h-0.607c-0.137,0-0.236-0.021-0.309-0.065c-0.071-0.043-0.127-0.127-0.168-0.248l-0.146-0.623
			c-0.184,0.168-0.361,0.314-0.539,0.443s-0.361,0.237-0.559,0.329c-0.191,0.093-0.396,0.159-0.619,0.206
			c-0.219,0.047-0.461,0.07-0.729,0.07c-0.279,0-0.543-0.039-0.787-0.116c-0.244-0.076-0.457-0.192-0.643-0.354
			c-0.182-0.158-0.324-0.355-0.43-0.596c-0.105-0.238-0.158-0.516-0.158-0.833c0-0.28,0.076-0.55,0.229-0.809
			c0.15-0.259,0.398-0.491,0.742-0.696c0.343-0.205,0.791-0.373,1.345-0.504c0.553-0.131,1.231-0.205,2.041-0.225v-0.52
			c0-0.535-0.115-0.938-0.345-1.204c-0.229-0.266-0.563-0.396-1.008-0.396c-0.3,0-0.55,0.036-0.752,0.11
			c-0.203,0.074-0.38,0.157-0.525,0.25c-0.146,0.09-0.274,0.174-0.385,0.248c-0.109,0.073-0.224,0.11-0.34,0.11
			c-0.095,0-0.175-0.024-0.242-0.077c-0.065-0.051-0.121-0.111-0.164-0.182L143.322,55.761z M145.309,51.715
			c0.164,0,0.285,0.027,0.365,0.08c0.078,0.055,0.15,0.135,0.217,0.242l1.029,1.693h-0.777c-0.105,0-0.193-0.017-0.262-0.045
			c-0.068-0.031-0.137-0.086-0.207-0.166l-1.66-1.807L145.309,51.715L145.309,51.715z M147.326,58.723
			c-0.557,0.02-1.027,0.062-1.414,0.129c-0.389,0.067-0.703,0.157-0.945,0.271c-0.242,0.109-0.418,0.244-0.525,0.396
			c-0.105,0.151-0.158,0.319-0.158,0.508c0,0.178,0.025,0.33,0.086,0.459c0.059,0.127,0.139,0.231,0.236,0.313
			c0.104,0.081,0.221,0.142,0.354,0.179c0.138,0.039,0.283,0.058,0.44,0.058c0.211,0,0.401-0.021,0.578-0.063
			c0.174-0.041,0.34-0.102,0.492-0.179c0.153-0.076,0.301-0.171,0.44-0.283s0.276-0.239,0.414-0.385L147.326,58.723L147.326,58.723z
			"/>
		<path fill="#FFFFFF" d="M160.205,54.768l-2.885,7.111h-1.232l-2.883-7.111h1.127c0.107,0,0.195,0.025,0.266,0.076
			c0.07,0.053,0.117,0.117,0.143,0.196l1.699,4.368c0.062,0.182,0.113,0.361,0.156,0.542c0.045,0.18,0.086,0.358,0.123,0.536
			c0.037-0.178,0.08-0.355,0.127-0.532c0.045-0.179,0.104-0.358,0.168-0.546l1.721-4.368c0.029-0.079,0.078-0.146,0.146-0.196
			c0.07-0.051,0.154-0.076,0.252-0.076H160.205z"/>
		<path fill="#FFFFFF" d="M162.984,52.568c0,0.127-0.025,0.246-0.076,0.361c-0.053,0.112-0.121,0.215-0.207,0.301
			s-0.188,0.152-0.305,0.203c-0.117,0.049-0.238,0.071-0.363,0.071c-0.127,0-0.246-0.022-0.357-0.071
			c-0.113-0.051-0.211-0.117-0.299-0.203c-0.086-0.086-0.152-0.188-0.201-0.301c-0.051-0.115-0.074-0.234-0.074-0.361
			c0-0.131,0.023-0.254,0.074-0.367c0.049-0.114,0.115-0.215,0.201-0.301c0.088-0.086,0.186-0.154,0.299-0.203
			c0.111-0.049,0.23-0.073,0.357-0.073c0.125,0,0.246,0.024,0.363,0.073s0.219,0.117,0.305,0.203s0.154,0.187,0.207,0.301
			C162.959,52.314,162.984,52.438,162.984,52.568z M162.725,54.768v7.111h-1.363v-7.111H162.725z"/>
		<path fill="#FFFFFF" d="M168.9,55.992c-0.039,0.061-0.078,0.104-0.119,0.129c-0.043,0.025-0.096,0.039-0.162,0.039
			c-0.074,0-0.156-0.025-0.248-0.077s-0.201-0.106-0.328-0.168c-0.129-0.062-0.279-0.117-0.453-0.168
			c-0.172-0.052-0.377-0.077-0.615-0.077c-0.195,0-0.375,0.023-0.535,0.073c-0.162,0.049-0.299,0.116-0.41,0.202
			c-0.109,0.088-0.195,0.188-0.258,0.31c-0.062,0.118-0.092,0.246-0.092,0.382c0,0.178,0.053,0.323,0.158,0.44
			c0.104,0.116,0.242,0.217,0.412,0.301s0.363,0.16,0.582,0.228c0.217,0.067,0.438,0.141,0.664,0.215s0.447,0.158,0.664,0.256
			c0.219,0.096,0.412,0.215,0.582,0.355c0.17,0.144,0.309,0.313,0.412,0.517c0.104,0.198,0.158,0.444,0.158,0.733
			c0,0.332-0.061,0.639-0.18,0.92c-0.117,0.282-0.295,0.526-0.523,0.731c-0.23,0.205-0.52,0.366-0.857,0.481
			c-0.342,0.117-0.73,0.177-1.17,0.177c-0.49,0-0.941-0.082-1.357-0.245s-0.764-0.371-1.043-0.623l0.322-0.525
			c0.037-0.063,0.084-0.115,0.141-0.148c0.057-0.035,0.129-0.055,0.225-0.055c0.09,0,0.18,0.033,0.271,0.101
			c0.094,0.065,0.205,0.137,0.336,0.213c0.131,0.077,0.289,0.146,0.479,0.21c0.188,0.062,0.42,0.096,0.697,0.096
			c0.234,0,0.438-0.029,0.609-0.088s0.316-0.138,0.43-0.236c0.115-0.103,0.199-0.217,0.258-0.349
			c0.057-0.131,0.084-0.271,0.084-0.413c0-0.187-0.055-0.342-0.156-0.466c-0.104-0.123-0.244-0.229-0.414-0.317
			s-0.363-0.164-0.584-0.229s-0.441-0.136-0.672-0.21c-0.229-0.075-0.453-0.161-0.672-0.26c-0.223-0.098-0.414-0.221-0.586-0.37
			s-0.309-0.332-0.412-0.546c-0.104-0.215-0.158-0.479-0.158-0.784c0-0.274,0.061-0.539,0.172-0.791
			c0.115-0.252,0.279-0.474,0.498-0.665s0.484-0.346,0.807-0.459c0.316-0.114,0.684-0.171,1.096-0.171
			c0.471,0,0.896,0.073,1.277,0.224c0.379,0.148,0.705,0.354,0.977,0.616L168.9,55.992z"/>
		<path fill="#FFFFFF" d="M173.014,61.991c-0.572,0-1.016-0.161-1.326-0.483c-0.31-0.322-0.465-0.781-0.465-1.379v-4.256h-0.826
			c-0.08,0-0.146-0.023-0.197-0.073c-0.057-0.05-0.08-0.123-0.08-0.221v-0.554l1.152-0.16l0.311-2.121
			c0.02-0.079,0.057-0.143,0.105-0.186c0.057-0.045,0.123-0.066,0.207-0.066h0.693v2.387h2.016v0.994h-2.016v4.165
			c0,0.28,0.068,0.487,0.207,0.626c0.137,0.138,0.312,0.207,0.527,0.207c0.127,0,0.234-0.018,0.326-0.049
			c0.09-0.033,0.168-0.069,0.232-0.108c0.062-0.04,0.121-0.075,0.168-0.108c0.049-0.031,0.09-0.049,0.125-0.049
			c0.049,0,0.084,0.01,0.109,0.031c0.023,0.021,0.053,0.055,0.078,0.102l0.406,0.658c-0.225,0.205-0.49,0.363-0.799,0.478
			C173.666,61.936,173.346,61.991,173.014,61.991z"/>
		<path fill="#FFFFFF" d="M175.676,55.761c0.396-0.378,0.826-0.659,1.291-0.847s0.975-0.28,1.529-0.28
			c0.406,0,0.766,0.066,1.078,0.199c0.312,0.134,0.576,0.319,0.791,0.558c0.215,0.237,0.377,0.522,0.486,0.854
			c0.107,0.331,0.164,0.696,0.164,1.099v4.536h-0.609c-0.135,0-0.236-0.021-0.307-0.065c-0.072-0.043-0.127-0.127-0.168-0.248
			l-0.148-0.623c-0.182,0.168-0.361,0.314-0.539,0.443c-0.176,0.129-0.361,0.237-0.557,0.329c-0.193,0.093-0.398,0.159-0.619,0.206
			c-0.219,0.047-0.461,0.07-0.729,0.07c-0.279,0-0.543-0.039-0.789-0.116c-0.242-0.076-0.455-0.192-0.641-0.354
			c-0.184-0.158-0.324-0.355-0.432-0.596c-0.104-0.238-0.158-0.516-0.158-0.833c0-0.28,0.076-0.55,0.229-0.809
			c0.15-0.259,0.397-0.491,0.742-0.696c0.342-0.205,0.791-0.373,1.345-0.504c0.553-0.131,1.231-0.205,2.041-0.225v-0.52
			c0-0.535-0.115-0.938-0.345-1.204c-0.229-0.266-0.563-0.396-1.008-0.396c-0.3,0-0.55,0.036-0.752,0.11
			c-0.203,0.074-0.38,0.157-0.525,0.25c-0.146,0.09-0.274,0.174-0.385,0.248c-0.108,0.073-0.224,0.11-0.34,0.11
			c-0.095,0-0.175-0.024-0.242-0.077c-0.065-0.051-0.121-0.111-0.164-0.182L175.676,55.761z M179.68,58.723
			c-0.557,0.02-1.027,0.062-1.414,0.129c-0.389,0.067-0.703,0.157-0.945,0.271c-0.24,0.109-0.418,0.244-0.523,0.396
			c-0.105,0.151-0.16,0.319-0.16,0.508c0,0.178,0.027,0.33,0.088,0.459c0.059,0.127,0.139,0.231,0.236,0.313
			c0.104,0.081,0.221,0.142,0.354,0.179c0.138,0.039,0.283,0.058,0.44,0.058c0.211,0,0.402-0.021,0.578-0.063
			c0.174-0.041,0.34-0.102,0.492-0.179c0.153-0.076,0.301-0.171,0.44-0.283c0.141-0.112,0.276-0.239,0.414-0.385V58.723
			L179.68,58.723z"/>
		<path fill="#FFFFFF" d="M187.666,55.754c0.152-0.163,0.314-0.312,0.482-0.447c0.168-0.136,0.346-0.252,0.535-0.348
			c0.188-0.095,0.393-0.17,0.607-0.225c0.216-0.053,0.449-0.08,0.695-0.08c0.393,0,0.734,0.066,1.031,0.195
			c0.297,0.131,0.545,0.313,0.746,0.551c0.201,0.234,0.354,0.52,0.455,0.851s0.154,0.697,0.154,1.099v4.529H191V57.35
			c0-0.508-0.117-0.901-0.35-1.187c-0.234-0.282-0.59-0.423-1.07-0.423c-0.352,0-0.678,0.083-0.984,0.248
			c-0.305,0.166-0.59,0.391-0.85,0.676v5.215h-1.365v-7.111h0.818c0.191,0,0.311,0.09,0.357,0.272L187.666,55.754z"/>
		<path fill="#FFFFFF" d="M197.248,54.654c0.523,0,0.996,0.086,1.418,0.256c0.422,0.171,0.781,0.416,1.078,0.734
			s0.523,0.705,0.682,1.154c0.159,0.45,0.238,0.955,0.238,1.516c0,0.562-0.08,1.065-0.238,1.521s-0.385,0.838-0.682,1.155
			c-0.297,0.316-0.656,0.561-1.078,0.73c-0.422,0.168-0.895,0.256-1.418,0.256c-0.527,0-1.002-0.086-1.424-0.256
			c-0.422-0.172-0.783-0.414-1.082-0.73c-0.299-0.317-0.529-0.702-0.689-1.155s-0.242-0.959-0.242-1.521
			c0-0.561,0.082-1.063,0.242-1.516c0.16-0.449,0.391-0.836,0.689-1.154c0.298-0.318,0.66-0.563,1.082-0.734
			C196.246,54.74,196.721,54.654,197.248,54.654z M197.248,60.913c0.672,0,1.174-0.228,1.506-0.679
			c0.33-0.453,0.496-1.09,0.496-1.911s-0.166-1.46-0.496-1.915c-0.332-0.455-0.834-0.684-1.506-0.684
			c-0.682,0-1.189,0.229-1.521,0.684c-0.334,0.455-0.502,1.094-0.502,1.915s0.168,1.458,0.502,1.911
			C196.059,60.688,196.566,60.913,197.248,60.913z"/>
		<path fill="#FFFFFF" d="M207.084,55.747c0.293-0.327,0.627-0.591,1-0.791c0.373-0.201,0.799-0.302,1.273-0.302
			c0.416,0,0.791,0.08,1.125,0.242c0.332,0.16,0.617,0.392,0.85,0.691c0.234,0.303,0.414,0.666,0.539,1.096
			c0.127,0.431,0.189,0.916,0.189,1.457c0,0.572-0.072,1.096-0.213,1.566c-0.145,0.473-0.348,0.875-0.609,1.211
			c-0.264,0.336-0.586,0.598-0.963,0.78c-0.379,0.185-0.803,0.274-1.273,0.274c-0.229,0-0.439-0.021-0.631-0.064
			s-0.367-0.108-0.527-0.192c-0.162-0.084-0.311-0.188-0.445-0.308c-0.133-0.121-0.264-0.26-0.385-0.413l-0.062,0.595
			c-0.039,0.191-0.154,0.287-0.353,0.287h-0.881v-10.33h1.364L207.084,55.747L207.084,55.747z M207.084,60.129
			c0.223,0.294,0.467,0.499,0.727,0.616c0.264,0.116,0.547,0.175,0.855,0.175c0.635,0,1.123-0.227,1.465-0.679
			c0.344-0.453,0.516-1.138,0.516-2.052c0-0.844-0.15-1.465-0.455-1.858c-0.303-0.394-0.73-0.591-1.289-0.591
			c-0.391,0-0.729,0.088-1.018,0.266c-0.287,0.178-0.555,0.43-0.801,0.756V60.129z"/>
		<path fill="#FFFFFF" d="M216.617,54.654c0.523,0,0.996,0.086,1.418,0.256c0.422,0.171,0.781,0.416,1.078,0.734
			s0.523,0.705,0.682,1.154c0.159,0.45,0.238,0.955,0.238,1.516c0,0.562-0.08,1.065-0.238,1.521s-0.385,0.838-0.682,1.155
			c-0.297,0.316-0.656,0.561-1.078,0.73c-0.422,0.168-0.895,0.256-1.418,0.256c-0.527,0-1.002-0.086-1.424-0.256
			c-0.422-0.172-0.783-0.414-1.082-0.73c-0.299-0.317-0.529-0.702-0.689-1.155s-0.242-0.959-0.242-1.521
			c0-0.561,0.082-1.063,0.242-1.516c0.16-0.449,0.391-0.836,0.689-1.154c0.298-0.318,0.66-0.563,1.082-0.734
			C215.615,54.74,216.09,54.654,216.617,54.654z M216.617,60.913c0.672,0,1.174-0.228,1.506-0.679
			c0.33-0.453,0.496-1.09,0.496-1.911s-0.166-1.46-0.496-1.915c-0.332-0.455-0.834-0.684-1.506-0.684
			c-0.682,0-1.189,0.229-1.521,0.684c-0.334,0.455-0.502,1.094-0.502,1.915s0.168,1.458,0.502,1.911
			C215.428,60.688,215.936,60.913,216.617,60.913z"/>
		<path fill="#FFFFFF" d="M222.953,51.547v10.332h-1.373V51.547H222.953z"/>
		<path fill="#FFFFFF" d="M230.736,60.864c-0.168,0.194-0.361,0.364-0.582,0.507c-0.219,0.143-0.451,0.258-0.699,0.347
			s-0.504,0.154-0.768,0.196c-0.266,0.042-0.523,0.062-0.779,0.062c-0.49,0-0.943-0.084-1.361-0.248
			c-0.418-0.166-0.779-0.408-1.086-0.729c-0.305-0.319-0.543-0.716-0.713-1.188c-0.172-0.475-0.256-1.02-0.256-1.636
			c0-0.493,0.076-0.954,0.23-1.383c0.152-0.427,0.375-0.799,0.66-1.116c0.287-0.316,0.641-0.566,1.055-0.749
			c0.416-0.182,0.883-0.272,1.398-0.272c0.436,0,0.834,0.072,1.201,0.215c0.363,0.143,0.684,0.35,0.945,0.619
			c0.27,0.271,0.477,0.604,0.627,1.002c0.152,0.396,0.229,0.849,0.229,1.355c0,0.211-0.022,0.354-0.069,0.424
			c-0.047,0.072-0.133,0.108-0.261,0.108h-4.661c0.014,0.425,0.073,0.795,0.182,1.108c0.107,0.314,0.257,0.578,0.445,0.789
			c0.188,0.209,0.414,0.365,0.676,0.469c0.263,0.104,0.554,0.152,0.875,0.152c0.304,0,0.563-0.033,0.787-0.104
			c0.222-0.069,0.412-0.146,0.574-0.229c0.159-0.082,0.297-0.155,0.405-0.228c0.108-0.071,0.205-0.104,0.291-0.104
			c0.11,0,0.196,0.043,0.258,0.127L230.736,60.864z M229.609,57.532c0-0.271-0.039-0.521-0.115-0.749
			c-0.078-0.229-0.191-0.428-0.34-0.596c-0.15-0.168-0.332-0.299-0.547-0.394c-0.215-0.094-0.461-0.142-0.742-0.142
			c-0.574,0-1.025,0.166-1.354,0.498c-0.329,0.33-0.538,0.791-0.627,1.379L229.609,57.532L229.609,57.532z"/>
		<path fill="#FFFFFF" d="M234.537,61.991c-0.574,0-1.016-0.161-1.326-0.483s-0.467-0.781-0.467-1.379v-4.256h-0.824
			c-0.08,0-0.146-0.023-0.201-0.073c-0.053-0.05-0.08-0.123-0.08-0.221v-0.554l1.156-0.16l0.307-2.121
			c0.021-0.079,0.057-0.143,0.109-0.186c0.053-0.045,0.123-0.066,0.207-0.066h0.691v2.387h2.018v0.994h-2.018v4.165
			c0,0.28,0.07,0.487,0.207,0.626c0.139,0.138,0.312,0.207,0.529,0.207c0.125,0,0.232-0.018,0.322-0.049
			c0.094-0.033,0.17-0.069,0.232-0.108c0.066-0.04,0.121-0.075,0.168-0.108c0.049-0.031,0.092-0.049,0.129-0.049
			c0.047,0,0.08,0.01,0.105,0.031c0.027,0.021,0.053,0.055,0.082,0.102l0.406,0.658c-0.225,0.205-0.49,0.363-0.799,0.478
			C235.188,61.936,234.869,61.991,234.537,61.991z"/>
		<path fill="#FFFFFF" d="M240.41,54.654c0.521,0,0.994,0.086,1.416,0.256c0.424,0.171,0.783,0.416,1.078,0.734
			c0.297,0.318,0.525,0.705,0.684,1.154c0.159,0.45,0.238,0.955,0.238,1.516c0,0.562-0.08,1.065-0.238,1.521
			s-0.387,0.838-0.684,1.155c-0.295,0.316-0.654,0.561-1.078,0.73c-0.422,0.17-0.895,0.256-1.416,0.256
			c-0.527,0-1.002-0.086-1.426-0.256c-0.422-0.172-0.783-0.414-1.08-0.73c-0.299-0.317-0.529-0.702-0.689-1.155
			c-0.162-0.453-0.242-0.959-0.242-1.521c0-0.561,0.08-1.063,0.242-1.516c0.16-0.449,0.391-0.836,0.689-1.154
			c0.297-0.318,0.658-0.563,1.08-0.734C239.408,54.74,239.883,54.654,240.41,54.654z M240.41,60.913
			c0.672,0,1.174-0.228,1.504-0.679c0.332-0.453,0.498-1.09,0.498-1.911s-0.166-1.46-0.498-1.915
			c-0.33-0.455-0.832-0.684-1.504-0.684c-0.682,0-1.189,0.229-1.523,0.684s-0.5,1.094-0.5,1.915s0.166,1.458,0.5,1.911
			S239.729,60.913,240.41,60.913z"/>
		<path fill="#FFFFFF" d="M104.99,68.654c0.522,0,0.995,0.086,1.417,0.256c0.422,0.171,0.781,0.416,1.078,0.734
			c0.297,0.318,0.524,0.705,0.683,1.154c0.159,0.45,0.238,0.955,0.238,1.516c0,0.562-0.079,1.065-0.238,1.521
			s-0.386,0.838-0.683,1.155c-0.297,0.316-0.656,0.561-1.078,0.73c-0.423,0.17-0.895,0.256-1.417,0.256
			c-0.528,0-1.002-0.086-1.425-0.256c-0.422-0.172-0.783-0.414-1.082-0.73c-0.299-0.317-0.528-0.702-0.689-1.155
			s-0.241-0.959-0.241-1.521c0-0.561,0.08-1.063,0.241-1.516c0.161-0.449,0.391-0.836,0.689-1.154s0.659-0.563,1.082-0.734
			C103.988,68.74,104.462,68.654,104.99,68.654z M104.99,74.913c0.672,0,1.173-0.228,1.505-0.679
			c0.331-0.453,0.497-1.09,0.497-1.911s-0.166-1.46-0.497-1.915c-0.332-0.455-0.833-0.684-1.505-0.684
			c-0.682,0-1.189,0.229-1.523,0.684c-0.333,0.455-0.5,1.094-0.5,1.915s0.167,1.458,0.5,1.911
			C103.801,74.688,104.309,74.913,104.99,74.913z"/>
		<path fill="#FFFFFF" d="M115.84,68.768v7.111h-0.819c-0.187,0-0.308-0.091-0.364-0.273l-0.098-0.713
			c-0.154,0.164-0.315,0.312-0.483,0.447c-0.168,0.137-0.348,0.251-0.539,0.348s-0.394,0.17-0.609,0.225
			c-0.215,0.054-0.446,0.081-0.693,0.081c-0.392,0-0.736-0.065-1.033-0.196c-0.297-0.131-0.545-0.312-0.745-0.55
			c-0.201-0.235-0.353-0.521-0.455-0.853c-0.103-0.33-0.154-0.695-0.154-1.099v-4.528h1.372v4.528c0,0.509,0.117,0.904,0.35,1.187
			c0.233,0.283,0.59,0.426,1.071,0.426c0.35,0,0.677-0.083,0.98-0.249c0.304-0.165,0.588-0.394,0.854-0.685v-5.207H115.84z"/>
		<path fill="#FFFFFF" d="M127.243,65.547v10.332h-0.826c-0.191,0-0.31-0.091-0.357-0.273l-0.119-0.816
			c-0.303,0.357-0.647,0.646-1.032,0.863c-0.385,0.218-0.83,0.324-1.333,0.324c-0.406,0-0.773-0.078-1.103-0.235
			c-0.329-0.159-0.61-0.394-0.844-0.697s-0.413-0.687-0.539-1.137c-0.126-0.453-0.189-0.976-0.189-1.562
			c0-0.527,0.07-1.019,0.21-1.471c0.14-0.453,0.343-0.846,0.609-1.176c0.266-0.332,0.588-0.594,0.966-0.781s0.805-0.283,1.281-0.283
			c0.429,0,0.794,0.07,1.095,0.211c0.301,0.141,0.571,0.34,0.809,0.596v-3.894L127.243,65.547L127.243,65.547z M125.871,70.489
			c-0.224-0.294-0.465-0.5-0.725-0.616c-0.259-0.117-0.549-0.175-0.871-0.175c-0.625,0-1.11,0.225-1.453,0.675
			c-0.343,0.451-0.515,1.107-0.515,1.971c0,0.453,0.039,0.84,0.116,1.158c0.077,0.32,0.189,0.581,0.336,0.784
			c0.147,0.202,0.328,0.353,0.542,0.448c0.214,0.096,0.457,0.144,0.728,0.144c0.396,0,0.739-0.089,1.029-0.267
			s0.56-0.428,0.812-0.748L125.871,70.489L125.871,70.489z"/>
		<path fill="#FFFFFF" d="M134.992,74.864c-0.168,0.194-0.361,0.364-0.582,0.507c-0.219,0.143-0.451,0.258-0.699,0.347
			s-0.504,0.154-0.768,0.196c-0.264,0.042-0.523,0.062-0.779,0.062c-0.49,0-0.943-0.084-1.361-0.248
			c-0.418-0.166-0.779-0.408-1.086-0.729c-0.305-0.319-0.543-0.716-0.713-1.188c-0.17-0.474-0.255-1.02-0.255-1.636
			c0-0.493,0.077-0.954,0.231-1.383c0.154-0.427,0.375-0.799,0.662-1.116c0.287-0.316,0.639-0.566,1.053-0.749
			c0.416-0.182,0.883-0.272,1.4-0.272c0.434,0,0.834,0.072,1.201,0.215c0.365,0.143,0.682,0.35,0.947,0.619
			c0.268,0.271,0.475,0.604,0.627,1c0.152,0.397,0.229,0.851,0.229,1.357c0,0.211-0.023,0.354-0.07,0.424
			c-0.047,0.072-0.133,0.108-0.26,0.108h-4.662c0.014,0.425,0.074,0.795,0.182,1.108c0.107,0.314,0.256,0.578,0.445,0.789
			c0.189,0.209,0.414,0.365,0.676,0.469c0.262,0.104,0.553,0.152,0.875,0.152c0.303,0,0.564-0.033,0.787-0.104
			c0.221-0.069,0.412-0.146,0.574-0.229c0.16-0.082,0.297-0.155,0.406-0.228c0.109-0.071,0.205-0.104,0.291-0.104
			c0.111,0,0.197,0.043,0.258,0.127L134.992,74.864z M133.865,71.532c0-0.271-0.039-0.521-0.115-0.749
			c-0.078-0.229-0.191-0.428-0.34-0.596c-0.15-0.168-0.332-0.299-0.547-0.394c-0.215-0.094-0.461-0.142-0.742-0.142
			c-0.574,0-1.025,0.166-1.354,0.498c-0.33,0.33-0.539,0.791-0.627,1.379L133.865,71.532L133.865,71.532z"/>
		<path fill="#FFFFFF" d="M137.861,69.831c0.149-0.179,0.31-0.34,0.479-0.485c0.17-0.146,0.354-0.272,0.55-0.379
			c0.195-0.105,0.404-0.188,0.626-0.244c0.222-0.059,0.459-0.089,0.711-0.089c0.406,0,0.773,0.079,1.103,0.238
			c0.329,0.157,0.61,0.392,0.844,0.7c0.232,0.308,0.414,0.688,0.542,1.141c0.128,0.453,0.192,0.973,0.192,1.561
			c0,0.528-0.071,1.019-0.213,1.469c-0.143,0.449-0.346,0.842-0.609,1.173c-0.263,0.331-0.586,0.592-0.966,0.778
			c-0.381,0.189-0.809,0.283-1.285,0.283c-0.424,0-0.788-0.067-1.092-0.209c-0.303-0.141-0.574-0.336-0.812-0.588v3.086h-1.365
			v-9.498h0.819c0.191,0,0.31,0.09,0.356,0.272L137.861,69.831z M137.931,74.129c0.224,0.294,0.465,0.499,0.725,0.616
			c0.259,0.116,0.549,0.175,0.871,0.175c0.625,0,1.109-0.227,1.452-0.676c0.344-0.45,0.515-1.105,0.515-1.971
			c0-0.453-0.038-0.838-0.115-1.158c-0.077-0.319-0.189-0.581-0.336-0.784s-0.328-0.353-0.543-0.447
			c-0.214-0.096-0.457-0.144-0.728-0.144c-0.396,0-0.741,0.088-1.032,0.266c-0.292,0.178-0.562,0.43-0.809,0.756V74.129z"/>
		<path fill="#FFFFFF" d="M147.473,68.654c0.521,0,0.994,0.086,1.416,0.256c0.424,0.171,0.783,0.416,1.078,0.734
			c0.297,0.318,0.525,0.705,0.684,1.154c0.16,0.45,0.238,0.955,0.238,1.516c0,0.562-0.08,1.065-0.238,1.521
			c-0.156,0.454-0.387,0.838-0.684,1.155c-0.295,0.316-0.654,0.561-1.078,0.73c-0.422,0.17-0.895,0.256-1.416,0.256
			c-0.527,0-1.002-0.086-1.426-0.256c-0.422-0.172-0.783-0.414-1.08-0.73c-0.299-0.317-0.529-0.702-0.689-1.155
			s-0.24-0.959-0.24-1.521c0-0.561,0.08-1.063,0.24-1.516c0.16-0.449,0.393-0.836,0.689-1.154s0.658-0.563,1.08-0.734
			C146.471,68.74,146.945,68.654,147.473,68.654z M147.473,74.913c0.672,0,1.174-0.228,1.504-0.679
			c0.332-0.453,0.498-1.09,0.498-1.911s-0.166-1.46-0.498-1.915c-0.33-0.455-0.832-0.684-1.504-0.684
			c-0.682,0-1.188,0.229-1.521,0.684s-0.5,1.094-0.5,1.915s0.166,1.458,0.5,1.911C146.283,74.688,146.791,74.913,147.473,74.913z
			 M149.613,65.715l-1.658,1.807c-0.07,0.08-0.139,0.136-0.203,0.164c-0.064,0.03-0.152,0.045-0.26,0.045h-0.826l1.037-1.691
			c0.064-0.105,0.137-0.188,0.213-0.242c0.078-0.053,0.197-0.08,0.361-0.08L149.613,65.715L149.613,65.715z"/>
		<path fill="#FFFFFF" d="M156.6,69.992c-0.037,0.061-0.076,0.104-0.119,0.129c-0.041,0.025-0.096,0.039-0.16,0.039
			c-0.074,0-0.156-0.025-0.25-0.077c-0.09-0.052-0.197-0.106-0.326-0.168c-0.131-0.062-0.279-0.117-0.451-0.168
			c-0.174-0.052-0.379-0.077-0.617-0.077c-0.193,0-0.373,0.023-0.533,0.073c-0.16,0.049-0.299,0.116-0.408,0.202
			c-0.113,0.088-0.199,0.188-0.26,0.31c-0.062,0.118-0.094,0.246-0.094,0.381c0,0.179,0.055,0.324,0.158,0.441
			c0.104,0.116,0.24,0.217,0.414,0.301c0.17,0.084,0.361,0.16,0.58,0.228c0.217,0.068,0.438,0.141,0.662,0.215
			c0.229,0.074,0.449,0.158,0.666,0.256c0.219,0.096,0.41,0.215,0.58,0.355c0.172,0.145,0.311,0.313,0.414,0.517
			c0.105,0.198,0.158,0.444,0.158,0.733c0,0.332-0.061,0.639-0.18,0.92c-0.119,0.282-0.293,0.526-0.525,0.731
			c-0.229,0.205-0.516,0.366-0.855,0.481c-0.342,0.117-0.729,0.177-1.168,0.177c-0.49,0-0.943-0.082-1.359-0.245
			c-0.412-0.163-0.762-0.371-1.043-0.623l0.322-0.525c0.037-0.063,0.084-0.115,0.143-0.148c0.057-0.035,0.131-0.055,0.225-0.055
			c0.088,0,0.18,0.033,0.271,0.101c0.094,0.063,0.206,0.137,0.336,0.213c0.131,0.077,0.291,0.146,0.478,0.21
			c0.188,0.062,0.42,0.096,0.7,0.096c0.231,0,0.437-0.029,0.606-0.088c0.175-0.059,0.315-0.138,0.433-0.236
			c0.113-0.103,0.199-0.217,0.256-0.349c0.056-0.131,0.084-0.271,0.084-0.413c0-0.187-0.053-0.342-0.157-0.466
			c-0.104-0.123-0.242-0.229-0.412-0.317c-0.172-0.088-0.364-0.164-0.586-0.229c-0.22-0.065-0.442-0.136-0.672-0.21
			c-0.229-0.075-0.453-0.161-0.673-0.26c-0.219-0.1-0.413-0.221-0.584-0.371c-0.17-0.148-0.309-0.331-0.413-0.545
			c-0.104-0.215-0.156-0.479-0.156-0.784c0-0.275,0.058-0.539,0.172-0.791c0.113-0.252,0.279-0.474,0.496-0.665
			c0.218-0.191,0.485-0.346,0.806-0.459c0.319-0.114,0.687-0.171,1.096-0.171c0.472,0,0.896,0.073,1.277,0.224
			c0.381,0.151,0.707,0.354,0.977,0.616L156.6,69.992z"/>
		<path fill="#FFFFFF" d="M160.178,66.568c0,0.127-0.027,0.246-0.078,0.361c-0.051,0.112-0.119,0.215-0.207,0.301
			c-0.086,0.086-0.188,0.152-0.305,0.203c-0.115,0.049-0.236,0.071-0.363,0.071c-0.125,0-0.244-0.022-0.355-0.071
			c-0.111-0.051-0.211-0.117-0.299-0.203c-0.086-0.086-0.152-0.188-0.201-0.301c-0.051-0.115-0.074-0.234-0.074-0.361
			c0-0.131,0.023-0.254,0.074-0.367c0.049-0.114,0.115-0.215,0.201-0.301c0.088-0.086,0.188-0.154,0.299-0.203
			s0.23-0.073,0.355-0.073c0.127,0,0.248,0.024,0.363,0.073c0.117,0.049,0.219,0.117,0.305,0.203
			c0.088,0.086,0.156,0.187,0.207,0.301C160.15,66.314,160.178,66.438,160.178,66.568z M159.918,68.768v7.111h-1.365v-7.111H159.918
			z"/>
		<path fill="#FFFFFF" d="M164.125,75.991c-0.574,0-1.016-0.161-1.326-0.483s-0.467-0.781-0.467-1.379v-4.256h-0.824
			c-0.08,0-0.146-0.023-0.201-0.073c-0.053-0.05-0.08-0.123-0.08-0.221v-0.554l1.156-0.16l0.307-2.121
			c0.021-0.079,0.057-0.143,0.109-0.186c0.053-0.045,0.123-0.066,0.207-0.066h0.691v2.387h2.018v0.994h-2.018v4.165
			c0,0.28,0.07,0.487,0.207,0.626c0.139,0.138,0.312,0.207,0.529,0.207c0.125,0,0.232-0.018,0.322-0.049
			c0.094-0.033,0.17-0.069,0.234-0.108c0.064-0.04,0.119-0.075,0.168-0.108c0.047-0.031,0.09-0.049,0.127-0.049
			c0.047,0,0.082,0.01,0.105,0.031c0.027,0.021,0.053,0.055,0.082,0.102l0.406,0.658c-0.225,0.205-0.49,0.363-0.799,0.478
			C164.775,75.936,164.457,75.991,164.125,75.991z"/>
		<path fill="#FFFFFF" d="M169.998,68.654c0.523,0,0.996,0.086,1.418,0.256c0.422,0.171,0.781,0.416,1.078,0.734
			s0.523,0.705,0.682,1.154c0.159,0.45,0.238,0.955,0.238,1.516c0,0.562-0.08,1.065-0.238,1.521s-0.385,0.838-0.682,1.155
			c-0.297,0.316-0.656,0.561-1.078,0.73c-0.422,0.168-0.895,0.256-1.418,0.256c-0.527,0-1.002-0.086-1.424-0.256
			c-0.422-0.172-0.783-0.414-1.082-0.73c-0.299-0.317-0.529-0.702-0.689-1.155s-0.242-0.959-0.242-1.521
			c0-0.561,0.082-1.063,0.242-1.516c0.16-0.449,0.391-0.836,0.689-1.154c0.298-0.318,0.66-0.563,1.082-0.734
			C168.996,68.74,169.471,68.654,169.998,68.654z M169.998,74.913c0.672,0,1.174-0.228,1.506-0.679
			c0.33-0.453,0.496-1.09,0.496-1.911s-0.166-1.46-0.496-1.915c-0.332-0.455-0.834-0.684-1.506-0.684
			c-0.682,0-1.189,0.229-1.521,0.684c-0.334,0.455-0.502,1.094-0.502,1.915s0.168,1.458,0.502,1.911
			C168.809,74.688,169.316,74.913,169.998,74.913z"/>
		<path fill="#FFFFFF" d="M184.305,74.864c-0.168,0.194-0.361,0.364-0.58,0.507s-0.453,0.258-0.701,0.347
			c-0.246,0.089-0.502,0.154-0.766,0.196s-0.523,0.062-0.781,0.062c-0.49,0-0.941-0.084-1.359-0.248
			c-0.42-0.166-0.779-0.408-1.084-0.729c-0.309-0.319-0.547-0.716-0.717-1.188c-0.17-0.474-0.256-1.02-0.256-1.636
			c0-0.493,0.078-0.954,0.232-1.383c0.154-0.427,0.373-0.799,0.66-1.116c0.287-0.316,0.639-0.566,1.055-0.749
			c0.414-0.182,0.881-0.272,1.4-0.272c0.434,0,0.834,0.072,1.199,0.215c0.367,0.143,0.684,0.35,0.949,0.619
			c0.264,0.271,0.475,0.604,0.627,1c0.148,0.396,0.227,0.851,0.227,1.357c0,0.211-0.023,0.354-0.07,0.424
			c-0.047,0.072-0.133,0.108-0.258,0.108h-4.662c0.014,0.425,0.074,0.795,0.182,1.108c0.107,0.314,0.256,0.578,0.443,0.789
			c0.189,0.209,0.414,0.365,0.676,0.469s0.553,0.152,0.875,0.152c0.305,0,0.566-0.033,0.789-0.104
			c0.221-0.069,0.412-0.146,0.572-0.229c0.162-0.082,0.297-0.155,0.406-0.228c0.109-0.071,0.207-0.104,0.291-0.104
			c0.111,0,0.199,0.043,0.26,0.127L184.305,74.864z M183.178,71.532c0-0.271-0.037-0.521-0.115-0.749
			c-0.076-0.229-0.188-0.428-0.34-0.596c-0.146-0.168-0.33-0.299-0.545-0.394c-0.215-0.094-0.463-0.142-0.742-0.142
			c-0.574,0-1.023,0.166-1.354,0.498c-0.328,0.33-0.537,0.791-0.625,1.379L183.178,71.532L183.178,71.532z"/>
		<path fill="#FFFFFF" d="M197.9,70.986v3.92c-0.51,0.363-1.051,0.636-1.625,0.814c-0.574,0.18-1.199,0.271-1.875,0.271
			c-0.812,0-1.547-0.126-2.203-0.378c-0.654-0.252-1.213-0.604-1.676-1.059c-0.463-0.451-0.818-0.994-1.068-1.623
			c-0.248-0.632-0.373-1.322-0.373-2.08c0-0.761,0.119-1.457,0.359-2.088c0.24-0.635,0.586-1.176,1.033-1.625
			c0.445-0.449,0.988-0.802,1.627-1.051c0.637-0.25,1.352-0.375,2.146-0.375c0.399,0,0.772,0.03,1.114,0.092
			c0.345,0.062,0.662,0.146,0.957,0.26c0.293,0.11,0.563,0.246,0.813,0.401c0.25,0.156,0.481,0.332,0.697,0.528l-0.429,0.672
			c-0.063,0.105-0.151,0.175-0.26,0.203c-0.104,0.025-0.224,0.002-0.351-0.077c-0.121-0.069-0.256-0.149-0.401-0.245
			c-0.146-0.093-0.322-0.18-0.525-0.259c-0.202-0.079-0.438-0.146-0.709-0.203s-0.592-0.084-0.959-0.084
			c-0.551,0-1.049,0.09-1.491,0.271c-0.443,0.181-0.82,0.438-1.134,0.772c-0.312,0.335-0.555,0.741-0.723,1.215
			c-0.168,0.476-0.252,1.005-0.252,1.593c0,0.615,0.09,1.168,0.268,1.655c0.177,0.487,0.429,0.9,0.753,1.238
			c0.323,0.339,0.719,0.597,1.184,0.772c0.464,0.178,0.981,0.268,1.558,0.268c0.226,0,0.435-0.014,0.627-0.039
			c0.192-0.023,0.379-0.062,0.558-0.107c0.179-0.047,0.349-0.104,0.515-0.176c0.166-0.07,0.33-0.146,0.493-0.229v-2.107h-1.483
			c-0.094,0-0.17-0.027-0.228-0.084c-0.06-0.057-0.088-0.126-0.088-0.21v-0.847H197.9L197.9,70.986z"/>
		<path fill="#FFFFFF" d="M199.447,69.761c0.396-0.378,0.826-0.659,1.291-0.847s0.975-0.28,1.529-0.28
			c0.404,0,0.766,0.066,1.078,0.199c0.312,0.134,0.574,0.319,0.791,0.558c0.215,0.237,0.377,0.522,0.484,0.854
			s0.164,0.696,0.164,1.099v4.536h-0.607c-0.137,0-0.236-0.021-0.309-0.065c-0.071-0.043-0.127-0.127-0.168-0.248l-0.146-0.623
			c-0.184,0.168-0.361,0.314-0.539,0.443s-0.361,0.237-0.559,0.329c-0.191,0.093-0.396,0.159-0.619,0.206
			c-0.219,0.047-0.461,0.07-0.729,0.07c-0.279,0-0.543-0.039-0.787-0.116c-0.244-0.076-0.457-0.192-0.643-0.354
			c-0.182-0.157-0.324-0.355-0.43-0.596c-0.105-0.238-0.158-0.516-0.158-0.833c0-0.28,0.076-0.55,0.229-0.809
			c0.15-0.259,0.398-0.491,0.742-0.696c0.343-0.205,0.791-0.373,1.345-0.504c0.553-0.131,1.231-0.205,2.041-0.225v-0.52
			c0-0.535-0.115-0.938-0.345-1.203c-0.229-0.267-0.563-0.397-1.008-0.397c-0.3,0-0.55,0.036-0.752,0.11
			c-0.203,0.074-0.38,0.157-0.525,0.25c-0.146,0.09-0.274,0.174-0.385,0.248c-0.108,0.073-0.224,0.11-0.34,0.11
			c-0.095,0-0.175-0.024-0.242-0.077c-0.065-0.051-0.121-0.111-0.164-0.182L199.447,69.761z M203.451,72.723
			c-0.557,0.02-1.027,0.062-1.414,0.129c-0.389,0.067-0.703,0.157-0.945,0.271c-0.242,0.109-0.418,0.244-0.525,0.396
			c-0.105,0.151-0.158,0.319-0.158,0.508c0,0.178,0.025,0.33,0.086,0.459c0.059,0.127,0.139,0.231,0.236,0.313
			c0.104,0.081,0.221,0.142,0.354,0.179c0.138,0.039,0.283,0.058,0.44,0.058c0.211,0,0.401-0.021,0.578-0.063
			c0.174-0.041,0.34-0.102,0.492-0.179c0.153-0.076,0.301-0.171,0.44-0.282c0.14-0.113,0.276-0.24,0.414-0.386L203.451,72.723
			L203.451,72.723z"/>
		<path fill="#FFFFFF" d="M207.902,69.754c0.154-0.163,0.312-0.312,0.48-0.447c0.168-0.136,0.35-0.252,0.537-0.348
			c0.188-0.095,0.393-0.17,0.605-0.225c0.221-0.053,0.449-0.08,0.697-0.08c0.395,0,0.736,0.066,1.033,0.195
			c0.295,0.131,0.545,0.313,0.744,0.551c0.201,0.233,0.354,0.52,0.455,0.851c0.104,0.331,0.154,0.697,0.154,1.099v4.529h-1.371
			V71.35c0-0.508-0.117-0.901-0.352-1.187c-0.232-0.282-0.592-0.423-1.07-0.423c-0.352,0-0.678,0.083-0.982,0.248
			c-0.307,0.166-0.59,0.391-0.852,0.676v5.215h-1.365v-7.111h0.82c0.189,0,0.309,0.09,0.354,0.272L207.902,69.754z"/>
		<path fill="#FFFFFF" d="M215.82,69.67c0.299-0.304,0.629-0.548,0.99-0.734c0.359-0.188,0.775-0.278,1.25-0.278
			c0.391,0,0.732,0.063,1.029,0.194c0.299,0.131,0.547,0.313,0.746,0.549c0.201,0.236,0.354,0.521,0.455,0.853
			s0.152,0.697,0.152,1.101v4.527h-1.371v-4.529c0-0.509-0.117-0.902-0.352-1.188c-0.232-0.282-0.59-0.423-1.07-0.423
			c-0.352,0-0.678,0.083-0.982,0.248s-0.59,0.391-0.852,0.676v5.215h-1.363V65.547h1.363v4.123H215.82z"/>
		<path fill="#FFFFFF" d="M228.125,74.864c-0.168,0.194-0.361,0.364-0.582,0.507c-0.219,0.143-0.451,0.258-0.699,0.347
			s-0.504,0.154-0.768,0.196s-0.523,0.062-0.779,0.062c-0.49,0-0.943-0.084-1.361-0.248c-0.418-0.166-0.777-0.408-1.086-0.729
			c-0.305-0.319-0.543-0.716-0.713-1.188c-0.172-0.475-0.256-1.02-0.256-1.636c0-0.493,0.076-0.954,0.23-1.383
			c0.154-0.427,0.375-0.799,0.662-1.116c0.287-0.316,0.639-0.566,1.053-0.749c0.416-0.182,0.883-0.272,1.4-0.272
			c0.434,0,0.834,0.072,1.199,0.215s0.684,0.35,0.947,0.619c0.27,0.271,0.477,0.604,0.627,1c0.15,0.397,0.229,0.851,0.229,1.357
			c0,0.211-0.022,0.354-0.069,0.424c-0.048,0.072-0.134,0.108-0.261,0.108h-4.662c0.015,0.425,0.074,0.795,0.183,1.108
			c0.106,0.314,0.256,0.578,0.444,0.789c0.189,0.209,0.414,0.365,0.677,0.469c0.262,0.104,0.553,0.152,0.875,0.152
			c0.303,0,0.563-0.033,0.787-0.104c0.221-0.069,0.411-0.146,0.573-0.229c0.16-0.082,0.298-0.155,0.406-0.228
			c0.108-0.071,0.205-0.104,0.291-0.104c0.11,0,0.196,0.043,0.258,0.127L228.125,74.864z M226.998,71.532
			c0-0.271-0.039-0.521-0.115-0.749c-0.078-0.229-0.191-0.428-0.34-0.596c-0.15-0.168-0.332-0.299-0.547-0.394
			c-0.215-0.094-0.461-0.142-0.742-0.142c-0.574,0-1.025,0.166-1.354,0.498c-0.33,0.33-0.539,0.791-0.627,1.379L226.998,71.532
			L226.998,71.532z"/>
		<path fill="#FFFFFF" d="M234.887,69.579c0.514-0.106,0.979-0.161,1.393-0.161c0.523,0,0.984,0.078,1.389,0.234
			c0.398,0.156,0.736,0.371,1.014,0.645c0.271,0.271,0.479,0.596,0.613,0.967c0.141,0.37,0.207,0.772,0.207,1.207
			c0,0.531-0.094,1.016-0.277,1.448c-0.188,0.435-0.443,0.806-0.771,1.113c-0.326,0.308-0.713,0.545-1.158,0.71
			c-0.445,0.166-0.926,0.249-1.438,0.249c-0.307,0-0.592-0.03-0.865-0.091c-0.273-0.062-0.529-0.144-0.766-0.242
			c-0.238-0.1-0.459-0.217-0.662-0.348c-0.203-0.129-0.387-0.269-0.543-0.412l0.42-0.588c0.09-0.131,0.207-0.195,0.355-0.195
			c0.1,0,0.207,0.035,0.326,0.107c0.119,0.071,0.26,0.151,0.422,0.24c0.164,0.089,0.355,0.169,0.582,0.241
			c0.227,0.071,0.49,0.106,0.799,0.106c0.342,0,0.646-0.055,0.92-0.164c0.274-0.107,0.506-0.265,0.693-0.465
			c0.188-0.201,0.332-0.439,0.436-0.722c0.1-0.28,0.148-0.59,0.148-0.931c0-0.305-0.045-0.576-0.135-0.819
			c-0.09-0.241-0.223-0.45-0.396-0.623c-0.178-0.173-0.398-0.305-0.666-0.396c-0.266-0.092-0.574-0.137-0.932-0.137
			c-0.494,0-1.021,0.088-1.582,0.266l-0.859-0.252l0.818-4.745h4.814v0.595c0,0.195-0.062,0.355-0.186,0.479
			c-0.125,0.125-0.33,0.188-0.621,0.188h-3.059L234.887,69.579z"/>
		<path fill="#FFFFFF" d="M245.492,68.256c0,0.393-0.062,0.742-0.186,1.051c-0.125,0.31-0.289,0.567-0.494,0.779
			c-0.205,0.213-0.443,0.376-0.717,0.49c-0.275,0.113-0.561,0.172-0.857,0.172c-0.322,0-0.619-0.059-0.893-0.172
			c-0.275-0.114-0.512-0.277-0.713-0.49c-0.199-0.212-0.355-0.472-0.473-0.779c-0.113-0.309-0.174-0.658-0.174-1.051
			c0-0.4,0.061-0.758,0.174-1.07c0.113-0.312,0.271-0.578,0.473-0.795c0.202-0.217,0.438-0.383,0.713-0.496
			c0.271-0.115,0.568-0.172,0.893-0.172c0.322,0,0.619,0.057,0.893,0.172c0.273,0.113,0.51,0.279,0.713,0.496
			s0.363,0.481,0.477,0.795C245.436,67.498,245.492,67.854,245.492,68.256z M248.992,66.051c0.051-0.061,0.111-0.113,0.178-0.156
			c0.068-0.045,0.162-0.065,0.283-0.065h0.988l-7.379,9.835c-0.051,0.064-0.111,0.118-0.184,0.156
			c-0.068,0.039-0.152,0.061-0.252,0.061h-1.018L248.992,66.051z M244.428,68.256c0-0.299-0.031-0.552-0.094-0.76
			c-0.064-0.207-0.148-0.375-0.256-0.504c-0.107-0.128-0.234-0.223-0.379-0.279c-0.145-0.059-0.299-0.088-0.461-0.088
			c-0.164,0-0.318,0.029-0.463,0.088c-0.146,0.059-0.271,0.151-0.373,0.279c-0.105,0.129-0.189,0.297-0.25,0.504
			c-0.062,0.208-0.09,0.461-0.09,0.76c0,0.289,0.027,0.535,0.09,0.738c0.061,0.203,0.145,0.367,0.25,0.494
			c0.104,0.126,0.229,0.217,0.373,0.271c0.145,0.058,0.299,0.084,0.463,0.084c0.162,0,0.316-0.026,0.461-0.084
			c0.145-0.056,0.271-0.146,0.379-0.271c0.107-0.127,0.191-0.291,0.256-0.494C244.396,68.791,244.428,68.545,244.428,68.256z
			 M251.086,73.506c0,0.393-0.062,0.742-0.186,1.051c-0.125,0.31-0.289,0.567-0.494,0.779c-0.205,0.213-0.445,0.376-0.717,0.49
			c-0.273,0.113-0.562,0.172-0.859,0.172c-0.32,0-0.619-0.059-0.891-0.172c-0.273-0.114-0.514-0.277-0.711-0.49
			c-0.201-0.212-0.359-0.472-0.475-0.779c-0.113-0.309-0.172-0.658-0.172-1.051c0-0.4,0.059-0.758,0.172-1.07
			c0.113-0.312,0.271-0.578,0.475-0.795c0.197-0.217,0.438-0.382,0.711-0.494c0.271-0.109,0.568-0.168,0.891-0.168
			s0.621,0.059,0.893,0.168c0.273,0.112,0.512,0.277,0.715,0.494s0.361,0.481,0.479,0.795
			C251.027,72.748,251.086,73.104,251.086,73.506z M250.021,73.506c0-0.299-0.031-0.551-0.098-0.756
			c-0.062-0.205-0.146-0.372-0.254-0.501c-0.105-0.128-0.232-0.222-0.379-0.278c-0.146-0.06-0.299-0.089-0.463-0.089
			c-0.168,0-0.322,0.029-0.465,0.089c-0.145,0.057-0.268,0.15-0.371,0.278c-0.104,0.129-0.188,0.296-0.248,0.501
			s-0.094,0.457-0.094,0.756c0,0.294,0.031,0.541,0.094,0.742c0.062,0.2,0.145,0.363,0.248,0.49
			c0.104,0.125,0.229,0.217,0.371,0.271c0.143,0.058,0.297,0.084,0.465,0.084c0.164,0,0.316-0.026,0.463-0.084
			c0.146-0.056,0.271-0.146,0.379-0.271c0.104-0.127,0.189-0.29,0.254-0.49C249.99,74.047,250.021,73.8,250.021,73.506z"/>
	</g>
</g>
</svg>
