<?xml version="1.0" encoding="utf-8"?>
<!-- Generator: Adobe Illustrator 15.0.0, SVG Export Plug-In . SVG Version: 6.00 Build 0)  -->
<!DOCTYPE svg PUBLIC "-//W3C//DTD SVG 1.1//EN" "http://www.w3.org/Graphics/SVG/1.1/DTD/svg11.dtd">
<svg version="1.1" xmlns="http://www.w3.org/2000/svg" xmlns:xlink="http://www.w3.org/1999/xlink" x="0px" y="0px" width="285px"
	 height="101px" viewBox="0 0 285 101" enable-background="new 0 0 285 101" xml:space="preserve">
<g id="Layer_1">
	<g>
		<rect fill="#D1D2D1" width="285" height="101"/>
		<rect x="1" y="1" fill="#FFFFFF" width="283" height="99"/>
	</g>
</g>
<g id="Layer_2" display="none">
	<rect display="inline" fill="#D1D2D1" width="101" height="101"/>
</g>
<g id="Layer_3">
	<path fill="#B9519E" d="M55.739,46.98l0.406-0.403c0.204-0.204,0.204-0.408,0.204-0.609s0-0.403-0.204-0.607
		c-0.202-0.203-0.406-0.203-0.607-0.203s-0.405,0-0.607,0.203l-0.405,0.405c-1.013-0.811-2.025-1.418-3.241-1.418
		c-1.013,0-2.025,0.405-2.835,1.216c-0.81,0.809-1.215,1.822-1.215,2.63c0,1.013,0.406,2.229,1.215,3.647l-3.038,3.038
		c-0.607-0.812-1.013-2.025-1.215-3.242c0-0.201-0.203-0.405-0.405-0.607c-0.203-0.606-0.405-0.606-0.811-0.606
		c-0.404,0-0.607,0.203-0.81,0.405c-0.203,0.201-0.405,0.607-0.203,1.013c0.203,1.62,1.012,3.038,1.823,4.252l-1.013,1.013
		c-0.203,0.204-0.203,0.405-0.203,0.607c0,0.204,0,0.405,0.203,0.609c0.202,0.201,0.405,0.201,0.607,0.201s0.405,0,0.607-0.201
		l0.811-0.812c1.013,0.812,2.227,1.419,3.24,1.419s2.025-0.406,2.836-1.217c0.809-0.809,1.214-1.62,1.214-2.633
		s-0.406-2.227-1.417-3.645l2.835-2.835c0.405,0.605,0.607,1.416,0.811,2.228c0,0.201,0.202,0.403,0.403,0.607
		c0.204,0.201,0.406,0.201,0.811,0.201s0.607-0.201,0.811-0.405c0.202-0.202,0.403-0.605,0.202-1.215
		C56.955,48.804,56.348,47.791,55.739,46.98z M49.461,56.094c-0.405,0.405-0.81,0.405-1.418,0.405c-0.404,0-1.013-0.201-1.62-0.606
		l2.835-2.837c0.406,0.812,0.608,1.419,0.608,1.824S49.664,55.688,49.461,56.094z M50.271,49.816
		c-0.404-0.811-0.607-1.418-0.607-1.823c0-0.404,0.203-0.812,0.607-1.215c0.406-0.405,0.81-0.405,1.215-0.405
		c0.406,0,1.013,0.204,1.418,0.607L50.271,49.816z M41.765,62.777c-0.608-0.607-1.621-0.607-2.228,0
		c-0.608,0.609-0.608,1.622,0,2.229l3.241,3.24c0.202,0.203,0.607,0.405,1.013,0.405c0.405,0,0.81-0.202,1.013-0.405
		c0.607-0.607,0.607-1.62,0-2.228L41.765,62.777z M35.081,56.094c-0.607-0.607-1.62-0.607-2.228,0c-0.607,0.607-0.607,1.62,0,2.229
		l3.241,3.239c0.203,0.202,0.608,0.405,1.013,0.405c0.406,0,0.81-0.203,1.013-0.405c0.608-0.607,0.608-1.619,0-2.227L35.081,56.094z
		 M80.042,20.651c-0.607-0.607-1.62-0.607-2.227,0l-6.481,6.481c-1.013-0.607-2.431-1.013-4.05-1.013
		c-3.443-0.203-5.265-0.203-7.291-0.203h-3.242c-2.429,0-4.051,0.608-5.468,2.228l-29.57,29.166
		c-0.81,0.809-1.214,1.821-1.214,3.038c0,1.214,0.404,2.227,1.214,3.038l16.203,16.202c0.811,0.809,1.824,1.215,3.038,1.215
		c1.215,0,2.228-0.406,3.038-1.215l29.166-29.165c2.025-2.025,2.025-4.255,2.025-6.482l-0.204-2.227
		c-0.202-4.05-0.202-5.671-0.404-8.506c-0.204-1.418-0.405-2.633-1.013-3.646l6.479-6.481
		C80.652,22.272,80.652,21.259,80.042,20.651z M70.929,47.993L49.056,70.069l-0.607-0.607c-0.607-0.608-1.62-0.608-2.228,0
		c-0.607,0.607-0.607,1.62,0,2.228l0.608,0.607l-5.063,5.062c-0.405,0.406-1.215,0.406-1.621,0L23.942,61.157
		c-0.203-0.202-0.404-0.607-0.404-0.809c0-0.204,0.202-0.609,0.404-0.812l5.063-5.062l0.405,0.405
		c0.203,0.201,0.607,0.405,1.013,0.405c0.404,0,0.81-0.204,1.013-0.405c0.607-0.607,0.607-1.62,0-2.229l-0.405-0.403L53.106,30.17
		c1.013-1.013,1.823-1.215,3.443-1.215h3.24c2.025,0,3.849,0,7.292,0.203c0.809,0,1.418,0.203,2.025,0.405l-3.242,3.24
		c-1.821-0.81-4.05-0.607-5.467,0.811c-0.811,0.81-1.418,2.025-1.418,3.442c0,1.418,0.405,2.431,1.418,3.443
		c0.809,0.81,2.025,1.417,3.442,1.417c1.216,0,2.431-0.405,3.443-1.417c0.811-0.81,1.418-2.025,1.418-3.443
		c0-0.81-0.202-1.417-0.607-2.025l3.24-3.241c0.204,0.406,0.204,1.013,0.406,1.621c0.202,2.835,0.202,4.253,0.405,8.304l0.202,2.227
		C72.145,45.967,71.941,46.98,70.929,47.993z M63.031,37.665c0.202,0.202,0.607,0.404,1.013,0.404c0.405,0,0.809-0.203,1.013-0.404
		l0.405-0.406c0,0.203-0.204,0.406-0.405,0.607c-0.607,0.608-1.824,0.608-2.431,0c-0.405-0.405-0.405-0.81-0.405-1.214
		c0-0.406,0.204-0.811,0.405-1.215c0.202-0.203,0.406-0.406,0.607-0.406l-0.405,0.406C62.424,36.043,62.424,37.056,63.031,37.665z"
		/>
	<g>
		<path fill="#B9519F" d="M115.883,33.102v6.435c-0.807,0.594-1.667,1.028-2.579,1.304c-0.913,0.275-1.891,0.412-2.932,0.412
			c-1.298,0-2.473-0.201-3.525-0.605c-1.053-0.403-1.951-0.964-2.695-1.683s-1.318-1.577-1.721-2.574
			c-0.404-0.997-0.605-2.086-0.605-3.267c0-1.195,0.194-2.292,0.583-3.289c0.388-0.997,0.94-1.855,1.655-2.574
			s1.582-1.276,2.602-1.672c1.019-0.396,2.163-0.594,3.432-0.594c0.645,0,1.249,0.051,1.81,0.154
			c0.561,0.103,1.082,0.244,1.562,0.424c0.48,0.18,0.919,0.398,1.315,0.654c0.396,0.257,0.759,0.539,1.089,0.847l-0.847,1.342
			c-0.132,0.213-0.304,0.343-0.517,0.391c-0.212,0.048-0.443-0.005-0.693-0.16c-0.242-0.139-0.484-0.278-0.726-0.418
			c-0.242-0.139-0.511-0.26-0.809-0.363c-0.297-0.103-0.63-0.187-1.001-0.253c-0.37-0.066-0.797-0.099-1.281-0.099
			c-0.785,0-1.494,0.132-2.128,0.396s-1.175,0.642-1.623,1.133c-0.447,0.492-0.792,1.082-1.034,1.771
			c-0.242,0.689-0.363,1.459-0.363,2.31c0,0.91,0.13,1.722,0.391,2.437c0.26,0.715,0.627,1.32,1.1,1.815
			c0.473,0.495,1.043,0.873,1.71,1.133c0.667,0.26,1.412,0.39,2.233,0.39c0.586,0,1.111-0.062,1.573-0.187
			c0.462-0.125,0.913-0.293,1.353-0.506v-2.882h-2.002c-0.191,0-0.339-0.053-0.445-0.16c-0.106-0.106-0.16-0.236-0.16-0.391v-1.672
			H115.883z"/>
		<path fill="#B9519F" d="M132.373,41.077h-2.288c-0.257,0-0.466-0.064-0.627-0.192c-0.162-0.128-0.283-0.288-0.363-0.479
			l-1.188-3.245h-6.588l-1.188,3.245c-0.059,0.168-0.173,0.323-0.341,0.462s-0.378,0.209-0.627,0.209h-2.31l6.259-15.906h3.015
			L132.373,41.077z M127.147,35.071l-1.936-5.291c-0.096-0.235-0.194-0.513-0.297-0.836c-0.104-0.323-0.206-0.671-0.309-1.045
			c-0.095,0.374-0.194,0.725-0.297,1.051s-0.202,0.61-0.297,0.853l-1.925,5.269H127.147z"/>
		<path fill="#B9519F" d="M147.43,25.171v15.906h-1.518c-0.234,0-0.43-0.039-0.588-0.116c-0.158-0.077-0.311-0.207-0.457-0.39
			l-8.305-10.604c0.045,0.484,0.066,0.931,0.066,1.342v9.768h-2.606V25.171h1.551c0.124,0,0.232,0.005,0.324,0.016
			c0.092,0.011,0.172,0.033,0.242,0.066c0.069,0.033,0.138,0.081,0.203,0.143c0.066,0.062,0.14,0.145,0.22,0.248l8.338,10.648
			c-0.021-0.256-0.041-0.509-0.055-0.759c-0.016-0.25-0.021-0.48-0.021-0.693v-9.669H147.43z"/>
		<path fill="#B9519F" d="M164.381,25.171v15.906h-2.969v-6.952h-7.469v6.952h-2.971V25.171h2.971v6.842h7.469v-6.842H164.381z"/>
		<path fill="#B9519F" d="M170.895,27.525v4.411h5.564v2.277h-5.564v4.499h7.061v2.365h-10.031V25.171h10.031v2.354H170.895z"/>
		<path fill="#B9519F" d="M195.533,39.042v2.035h-8.801v-2.035h3.223v-9.273c0-0.367,0.012-0.744,0.033-1.133l-2.287,1.914
			c-0.133,0.103-0.262,0.167-0.391,0.192s-0.25,0.027-0.363,0.005s-0.215-0.061-0.303-0.115c-0.088-0.055-0.154-0.116-0.197-0.182
			l-0.857-1.177l4.85-4.125h2.234v13.893H195.533z"/>
		<path fill="#B9519F" d="M209.117,33.124c0,1.386-0.148,2.591-0.445,3.614s-0.707,1.868-1.232,2.535
			c-0.523,0.667-1.143,1.165-1.857,1.491s-1.488,0.489-2.316,0.489s-1.598-0.163-2.305-0.489s-1.322-0.823-1.842-1.491
			c-0.521-0.667-0.928-1.512-1.221-2.535c-0.295-1.023-0.441-2.228-0.441-3.614c0-1.393,0.146-2.6,0.441-3.619
			c0.293-1.02,0.699-1.863,1.221-2.53c0.52-0.667,1.135-1.164,1.842-1.49c0.707-0.327,1.477-0.49,2.305-0.49s1.602,0.163,2.316,0.49
			c0.715,0.326,1.334,0.823,1.857,1.49c0.525,0.667,0.936,1.511,1.232,2.53C208.969,30.524,209.117,31.731,209.117,33.124z
			 M206.312,33.124c0-1.151-0.084-2.104-0.252-2.86c-0.17-0.755-0.395-1.356-0.678-1.804c-0.281-0.447-0.607-0.761-0.973-0.94
			c-0.367-0.18-0.748-0.27-1.145-0.27c-0.389,0-0.764,0.09-1.127,0.27s-0.684,0.493-0.963,0.94c-0.279,0.448-0.5,1.049-0.666,1.804
			c-0.164,0.755-0.246,1.709-0.246,2.86c0,1.151,0.082,2.105,0.246,2.86c0.166,0.755,0.387,1.356,0.666,1.804s0.6,0.761,0.963,0.94
			s0.738,0.27,1.127,0.27c0.396,0,0.777-0.09,1.145-0.27c0.365-0.18,0.691-0.493,0.973-0.94c0.283-0.447,0.508-1.048,0.678-1.804
			C206.229,35.229,206.312,34.275,206.312,33.124z"/>
		<path fill="#B9519F" d="M217.863,29.021c0,0.602-0.102,1.144-0.303,1.628c-0.203,0.484-0.473,0.896-0.809,1.238
			c-0.338,0.341-0.73,0.603-1.178,0.787c-0.447,0.183-0.912,0.275-1.396,0.275c-0.527,0-1.016-0.092-1.463-0.275
			c-0.447-0.184-0.834-0.446-1.16-0.787c-0.326-0.341-0.582-0.753-0.766-1.238c-0.184-0.484-0.275-1.026-0.275-1.628
			c0-0.616,0.092-1.173,0.275-1.672c0.184-0.499,0.439-0.92,0.766-1.265c0.326-0.344,0.713-0.61,1.16-0.797s0.936-0.28,1.463-0.28
			s1.018,0.093,1.469,0.28s0.842,0.453,1.172,0.797c0.33,0.345,0.586,0.767,0.77,1.265
			C217.771,27.848,217.863,28.405,217.863,29.021z M223.154,25.6c0.094-0.11,0.207-0.209,0.334-0.297
			c0.129-0.088,0.311-0.132,0.545-0.132h1.98L214.199,40.67c-0.096,0.118-0.209,0.215-0.34,0.292
			c-0.133,0.077-0.295,0.116-0.484,0.116h-2.025L223.154,25.6z M215.773,29.021c0-0.425-0.043-0.781-0.127-1.067
			s-0.199-0.517-0.342-0.693c-0.143-0.176-0.311-0.303-0.506-0.379c-0.193-0.077-0.4-0.116-0.621-0.116s-0.426,0.039-0.617,0.116
			c-0.189,0.077-0.354,0.203-0.488,0.379c-0.137,0.176-0.244,0.407-0.324,0.693c-0.082,0.286-0.121,0.642-0.121,1.067
			c0,0.411,0.039,0.753,0.121,1.029c0.08,0.275,0.188,0.497,0.324,0.666c0.135,0.168,0.299,0.29,0.488,0.363
			c0.191,0.073,0.396,0.11,0.617,0.11s0.428-0.037,0.621-0.11c0.195-0.073,0.363-0.194,0.506-0.363
			c0.143-0.169,0.258-0.391,0.342-0.666C215.73,29.774,215.773,29.432,215.773,29.021z M226.85,37.337
			c0,0.602-0.102,1.144-0.303,1.628c-0.201,0.484-0.471,0.896-0.809,1.237s-0.73,0.605-1.178,0.792s-0.912,0.281-1.396,0.281
			c-0.527,0-1.016-0.094-1.463-0.281s-0.834-0.451-1.16-0.792s-0.582-0.753-0.764-1.237c-0.184-0.484-0.275-1.027-0.275-1.628
			c0-0.616,0.092-1.173,0.275-1.672c0.182-0.499,0.438-0.92,0.764-1.265s0.713-0.611,1.16-0.798s0.936-0.28,1.463-0.28
			c0.529,0,1.018,0.093,1.469,0.28s0.84,0.453,1.166,0.798s0.584,0.766,0.77,1.265C226.756,36.164,226.85,36.721,226.85,37.337z
			 M224.748,37.337c0-0.425-0.039-0.781-0.121-1.067c-0.08-0.286-0.191-0.517-0.336-0.693c-0.143-0.176-0.311-0.303-0.506-0.379
			c-0.193-0.077-0.4-0.116-0.621-0.116c-0.219,0-0.426,0.039-0.615,0.116c-0.191,0.077-0.355,0.204-0.496,0.379
			c-0.139,0.176-0.246,0.407-0.324,0.693c-0.076,0.286-0.115,0.642-0.115,1.067c0,0.411,0.039,0.756,0.115,1.034
			c0.078,0.279,0.186,0.502,0.324,0.671c0.141,0.169,0.305,0.29,0.496,0.363c0.189,0.073,0.396,0.11,0.615,0.11
			c0.221,0,0.428-0.037,0.621-0.11c0.195-0.073,0.363-0.194,0.506-0.363c0.145-0.168,0.256-0.392,0.336-0.671
			C224.709,38.093,224.748,37.748,224.748,37.337z"/>
	</g>
	<g>
		<path fill="#5F5F5F" d="M105.284,51.827c0.644,0,1.204,0.074,1.68,0.224s0.871,0.36,1.183,0.634
			c0.312,0.272,0.545,0.604,0.696,0.99c0.152,0.388,0.228,0.816,0.228,1.288s-0.082,0.904-0.245,1.299
			c-0.164,0.395-0.404,0.733-0.721,1.019c-0.317,0.284-0.713,0.505-1.187,0.661s-1.019,0.234-1.634,0.234h-1.554v3.703h-1.491
			V51.827H105.284z M105.284,57c0.378,0,0.71-0.049,0.998-0.147c0.287-0.098,0.527-0.236,0.721-0.416s0.339-0.395,0.438-0.645
			c0.098-0.249,0.147-0.525,0.147-0.829c0-0.611-0.19-1.092-0.57-1.442c-0.38-0.35-0.958-0.524-1.732-0.524h-1.554V57H105.284z"/>
		<path fill="#5F5F5F" d="M110.247,55.761c0.397-0.378,0.827-0.66,1.292-0.847s0.974-0.28,1.53-0.28
			c0.406,0,0.765,0.066,1.078,0.199c0.313,0.134,0.577,0.319,0.791,0.557c0.215,0.238,0.377,0.523,0.487,0.854
			c0.109,0.331,0.165,0.697,0.165,1.099v4.536h-0.609c-0.135,0-0.238-0.022-0.308-0.066c-0.07-0.044-0.126-0.127-0.168-0.249
			l-0.147-0.623c-0.182,0.169-0.362,0.316-0.539,0.445c-0.178,0.128-0.363,0.237-0.557,0.329c-0.194,0.091-0.4,0.159-0.62,0.206
			s-0.462,0.07-0.728,0.07c-0.28,0-0.542-0.039-0.788-0.116c-0.245-0.076-0.458-0.194-0.64-0.354
			c-0.182-0.158-0.326-0.356-0.431-0.595s-0.158-0.516-0.158-0.833c0-0.28,0.076-0.55,0.228-0.809
			c0.152-0.259,0.399-0.491,0.742-0.696s0.791-0.373,1.344-0.504c0.553-0.131,1.233-0.205,2.04-0.224v-0.519
			c0-0.536-0.114-0.938-0.343-1.204c-0.229-0.266-0.564-0.398-1.008-0.398c-0.299,0-0.55,0.037-0.752,0.111
			c-0.203,0.075-0.378,0.158-0.525,0.249s-0.275,0.174-0.385,0.248c-0.11,0.075-0.223,0.112-0.339,0.112
			c-0.094,0-0.174-0.025-0.242-0.077c-0.068-0.051-0.123-0.112-0.165-0.182L110.247,55.761z M114.25,58.722
			c-0.555,0.019-1.026,0.062-1.414,0.13c-0.388,0.067-0.703,0.157-0.945,0.27c-0.243,0.111-0.417,0.244-0.525,0.396
			s-0.161,0.32-0.161,0.507c0,0.178,0.029,0.331,0.088,0.459c0.058,0.128,0.137,0.233,0.238,0.315
			c0.1,0.081,0.218,0.141,0.354,0.178c0.135,0.038,0.282,0.057,0.441,0.057c0.21,0,0.402-0.021,0.578-0.063
			c0.175-0.042,0.339-0.102,0.493-0.179c0.154-0.076,0.301-0.171,0.441-0.283c0.14-0.112,0.277-0.24,0.413-0.385V58.722z"/>
		<path fill="#5F5F5F" d="M123.484,55.033v0.511c0,0.168-0.105,0.273-0.315,0.315l-0.763,0.111c0.065,0.145,0.117,0.298,0.154,0.459
			c0.037,0.161,0.056,0.33,0.056,0.507c0,0.351-0.067,0.667-0.203,0.949c-0.136,0.282-0.322,0.523-0.56,0.725
			c-0.238,0.2-0.521,0.354-0.851,0.462s-0.689,0.16-1.082,0.16c-0.322,0-0.623-0.034-0.903-0.104
			c-0.14,0.084-0.247,0.176-0.319,0.276s-0.108,0.199-0.108,0.298c0,0.163,0.069,0.284,0.207,0.363
			c0.138,0.08,0.317,0.137,0.539,0.172s0.476,0.058,0.763,0.066c0.287,0.01,0.579,0.024,0.875,0.046
			c0.296,0.021,0.588,0.059,0.875,0.111c0.287,0.054,0.541,0.141,0.763,0.26s0.401,0.282,0.539,0.489
			c0.138,0.208,0.207,0.478,0.207,0.809c0,0.309-0.076,0.607-0.228,0.896s-0.372,0.546-0.662,0.77
			c-0.289,0.225-0.642,0.404-1.057,0.539c-0.416,0.136-0.887,0.203-1.414,0.203s-0.986-0.051-1.375-0.154
			c-0.39-0.103-0.714-0.24-0.973-0.412c-0.259-0.173-0.453-0.374-0.581-0.603s-0.192-0.467-0.192-0.714
			c0-0.346,0.107-0.639,0.322-0.879c0.215-0.24,0.511-0.428,0.889-0.563c-0.206-0.093-0.369-0.22-0.49-0.381
			c-0.121-0.161-0.182-0.375-0.182-0.641c0-0.103,0.019-0.209,0.056-0.318c0.038-0.11,0.095-0.22,0.172-0.329
			c0.077-0.109,0.172-0.214,0.287-0.312c0.114-0.099,0.246-0.187,0.396-0.267c-0.35-0.195-0.625-0.456-0.826-0.78
			s-0.301-0.703-0.301-1.138c0-0.35,0.068-0.665,0.203-0.944c0.135-0.28,0.323-0.521,0.563-0.722c0.24-0.2,0.527-0.354,0.861-0.462
			c0.334-0.107,0.699-0.161,1.096-0.161c0.616,0,1.146,0.129,1.589,0.386H123.484z M122.098,62.25c0-0.168-0.046-0.303-0.14-0.402
			c-0.094-0.101-0.221-0.18-0.382-0.238c-0.161-0.059-0.349-0.101-0.563-0.126c-0.214-0.025-0.44-0.046-0.675-0.06
			c-0.236-0.014-0.477-0.026-0.725-0.038c-0.247-0.012-0.485-0.034-0.714-0.066c-0.243,0.121-0.442,0.268-0.599,0.44
			s-0.234,0.376-0.234,0.609c0,0.149,0.039,0.289,0.115,0.42c0.077,0.131,0.196,0.243,0.357,0.339
			c0.161,0.096,0.364,0.171,0.609,0.225s0.538,0.08,0.878,0.08c0.336,0,0.632-0.029,0.889-0.087
			c0.256-0.059,0.472-0.141,0.647-0.245c0.175-0.105,0.308-0.23,0.399-0.375S122.098,62.423,122.098,62.25z M119.921,58.33
			c0.243,0,0.456-0.033,0.641-0.099c0.184-0.064,0.338-0.157,0.462-0.276s0.217-0.262,0.28-0.43
			c0.063-0.169,0.095-0.353,0.095-0.554c0-0.41-0.125-0.738-0.375-0.983s-0.617-0.367-1.103-0.367c-0.48,0-0.846,0.122-1.096,0.367
			c-0.25,0.245-0.375,0.573-0.375,0.983c0,0.201,0.032,0.384,0.095,0.55s0.156,0.308,0.28,0.427c0.124,0.119,0.278,0.213,0.462,0.28
			C119.472,58.296,119.683,58.33,119.921,58.33z"/>
		<path fill="#5F5F5F" d="M130.644,54.767v7.112h-0.818c-0.188,0-0.309-0.091-0.364-0.273l-0.099-0.714
			c-0.153,0.164-0.314,0.313-0.482,0.448c-0.168,0.136-0.348,0.251-0.539,0.347s-0.394,0.17-0.609,0.224s-0.446,0.081-0.693,0.081
			c-0.392,0-0.736-0.065-1.033-0.196s-0.545-0.313-0.745-0.55c-0.201-0.235-0.353-0.519-0.455-0.851
			c-0.103-0.331-0.154-0.697-0.154-1.099v-4.529h1.372v4.529c0,0.509,0.117,0.904,0.35,1.187s0.59,0.424,1.071,0.424
			c0.35,0,0.677-0.083,0.98-0.249c0.304-0.165,0.588-0.393,0.854-0.683v-5.208H130.644z"/>
		<path fill="#5F5F5F" d="M138.393,60.864c-0.168,0.195-0.361,0.365-0.581,0.507c-0.219,0.143-0.452,0.258-0.7,0.347
			c-0.247,0.089-0.503,0.154-0.767,0.196s-0.523,0.062-0.78,0.062c-0.49,0-0.943-0.083-1.361-0.248
			c-0.418-0.166-0.779-0.408-1.085-0.729c-0.306-0.319-0.544-0.716-0.714-1.189c-0.171-0.474-0.256-1.019-0.256-1.635
			c0-0.494,0.077-0.955,0.231-1.383c0.154-0.427,0.374-0.799,0.661-1.116s0.639-0.566,1.054-0.749
			c0.415-0.182,0.882-0.272,1.4-0.272c0.434,0,0.834,0.071,1.2,0.213c0.366,0.143,0.683,0.35,0.948,0.62
			c0.267,0.271,0.475,0.604,0.627,1.001c0.151,0.396,0.228,0.849,0.228,1.357c0,0.21-0.023,0.352-0.07,0.424
			s-0.133,0.108-0.259,0.108h-4.662c0.014,0.425,0.074,0.795,0.182,1.109c0.107,0.315,0.256,0.577,0.444,0.788
			c0.189,0.21,0.414,0.366,0.676,0.469s0.553,0.153,0.875,0.153c0.304,0,0.565-0.034,0.788-0.104
			c0.221-0.07,0.412-0.146,0.573-0.228s0.297-0.157,0.406-0.228s0.206-0.104,0.291-0.104c0.111,0,0.198,0.042,0.259,0.126
			L138.393,60.864z M137.266,57.532c0-0.271-0.038-0.521-0.115-0.749s-0.19-0.428-0.34-0.596s-0.331-0.298-0.546-0.392
			s-0.462-0.14-0.742-0.14c-0.574,0-1.025,0.165-1.354,0.497c-0.329,0.331-0.538,0.791-0.626,1.379H137.266z"/>
		<path fill="#5F5F5F" d="M143.322,55.761c0.396-0.378,0.826-0.66,1.291-0.847s0.975-0.28,1.529-0.28
			c0.406,0,0.766,0.066,1.078,0.199c0.312,0.134,0.576,0.319,0.791,0.557c0.215,0.238,0.377,0.523,0.486,0.854
			s0.164,0.697,0.164,1.099v4.536h-0.609c-0.135,0-0.236-0.022-0.307-0.066s-0.127-0.127-0.168-0.249l-0.148-0.623
			c-0.182,0.169-0.361,0.316-0.539,0.445c-0.176,0.128-0.361,0.237-0.557,0.329c-0.193,0.091-0.398,0.159-0.619,0.206
			c-0.219,0.047-0.461,0.07-0.727,0.07c-0.281,0-0.543-0.039-0.789-0.116c-0.244-0.076-0.457-0.194-0.641-0.354
			c-0.182-0.158-0.324-0.356-0.43-0.595s-0.158-0.516-0.158-0.833c0-0.28,0.076-0.55,0.228-0.809
			c0.15-0.259,0.398-0.491,0.742-0.696c0.342-0.205,0.791-0.373,1.344-0.504s1.232-0.205,2.041-0.224v-0.519
			c0-0.536-0.115-0.938-0.344-1.204c-0.229-0.266-0.564-0.398-1.008-0.398c-0.299,0-0.549,0.037-0.752,0.111
			c-0.203,0.075-0.379,0.158-0.525,0.249s-0.275,0.174-0.385,0.248c-0.109,0.075-0.223,0.112-0.34,0.112
			c-0.094,0-0.174-0.025-0.242-0.077c-0.066-0.051-0.121-0.112-0.164-0.182L143.322,55.761z M145.309,51.715
			c0.164,0,0.285,0.027,0.365,0.08c0.078,0.055,0.15,0.135,0.217,0.242l1.029,1.693h-0.777c-0.107,0-0.195-0.015-0.262-0.045
			c-0.068-0.03-0.137-0.085-0.207-0.165l-1.66-1.806H145.309z M147.326,58.722c-0.557,0.019-1.027,0.062-1.414,0.13
			c-0.389,0.067-0.703,0.157-0.945,0.27c-0.242,0.111-0.418,0.244-0.525,0.396s-0.16,0.32-0.16,0.507
			c0,0.178,0.027,0.331,0.086,0.459s0.139,0.233,0.238,0.315c0.102,0.081,0.219,0.141,0.354,0.178
			c0.137,0.038,0.283,0.057,0.441,0.057c0.211,0,0.402-0.021,0.578-0.063c0.174-0.042,0.34-0.102,0.492-0.179
			c0.154-0.076,0.301-0.171,0.441-0.283s0.277-0.24,0.414-0.385V58.722z"/>
		<path fill="#5F5F5F" d="M160.205,54.767l-2.885,7.112h-1.232l-2.883-7.112h1.127c0.107,0,0.195,0.026,0.266,0.077
			c0.07,0.052,0.117,0.117,0.141,0.196l1.701,4.368c0.061,0.182,0.113,0.362,0.156,0.542c0.045,0.18,0.086,0.358,0.123,0.536
			c0.037-0.178,0.08-0.355,0.127-0.532c0.045-0.178,0.102-0.359,0.168-0.546l1.721-4.368c0.029-0.079,0.078-0.145,0.146-0.196
			c0.07-0.051,0.154-0.077,0.252-0.077H160.205z"/>
		<path fill="#5F5F5F" d="M162.984,52.569c0,0.126-0.025,0.246-0.076,0.36c-0.053,0.114-0.121,0.215-0.207,0.301
			s-0.188,0.154-0.305,0.203s-0.238,0.073-0.363,0.073c-0.127,0-0.246-0.024-0.357-0.073c-0.113-0.049-0.211-0.117-0.299-0.203
			c-0.086-0.086-0.152-0.187-0.201-0.301c-0.051-0.114-0.074-0.234-0.074-0.36c0-0.131,0.023-0.254,0.074-0.368
			c0.049-0.114,0.115-0.215,0.201-0.301c0.088-0.086,0.186-0.154,0.299-0.203c0.111-0.049,0.23-0.073,0.357-0.073
			c0.125,0,0.246,0.024,0.363,0.073s0.219,0.117,0.305,0.203s0.154,0.187,0.207,0.301C162.959,52.315,162.984,52.438,162.984,52.569
			z M162.725,54.767v7.112h-1.363v-7.112H162.725z"/>
		<path fill="#5F5F5F" d="M168.9,55.992c-0.039,0.061-0.078,0.104-0.119,0.129c-0.043,0.026-0.096,0.039-0.162,0.039
			c-0.074,0-0.156-0.025-0.248-0.077s-0.201-0.107-0.328-0.168c-0.129-0.061-0.279-0.117-0.453-0.168
			c-0.172-0.052-0.377-0.077-0.615-0.077c-0.195,0-0.375,0.024-0.535,0.073c-0.162,0.049-0.299,0.117-0.41,0.203
			c-0.111,0.087-0.197,0.189-0.258,0.309c-0.062,0.118-0.092,0.246-0.092,0.381c0,0.178,0.053,0.324,0.158,0.441
			c0.104,0.116,0.242,0.217,0.412,0.301s0.363,0.16,0.582,0.228c0.217,0.067,0.438,0.139,0.664,0.214
			c0.227,0.074,0.447,0.159,0.664,0.255c0.219,0.096,0.412,0.215,0.582,0.357s0.309,0.313,0.412,0.515
			c0.105,0.2,0.158,0.445,0.158,0.734c0,0.332-0.059,0.639-0.178,0.921s-0.295,0.526-0.525,0.731s-0.518,0.366-0.857,0.482
			c-0.342,0.117-0.73,0.176-1.17,0.176c-0.49,0-0.941-0.082-1.357-0.245s-0.764-0.371-1.043-0.623l0.322-0.525
			c0.037-0.065,0.084-0.115,0.141-0.15c0.055-0.035,0.129-0.053,0.223-0.053c0.09,0,0.18,0.033,0.273,0.099s0.205,0.137,0.336,0.213
			c0.131,0.077,0.289,0.147,0.477,0.21c0.186,0.063,0.42,0.095,0.699,0.095c0.234,0,0.436-0.029,0.609-0.087
			c0.172-0.059,0.316-0.138,0.43-0.238c0.115-0.101,0.199-0.216,0.256-0.347s0.084-0.269,0.084-0.413
			c0-0.187-0.053-0.342-0.156-0.466c-0.105-0.123-0.244-0.229-0.414-0.318c-0.17-0.088-0.365-0.165-0.584-0.23
			c-0.221-0.065-0.443-0.136-0.672-0.21c-0.229-0.075-0.453-0.161-0.672-0.259c-0.221-0.099-0.414-0.222-0.586-0.371
			c-0.17-0.149-0.307-0.332-0.412-0.546c-0.105-0.215-0.158-0.477-0.158-0.784c0-0.275,0.059-0.539,0.172-0.791
			c0.115-0.252,0.279-0.474,0.498-0.665c0.217-0.191,0.484-0.345,0.805-0.459c0.318-0.114,0.684-0.171,1.096-0.171
			c0.471,0,0.896,0.074,1.277,0.224c0.379,0.149,0.705,0.354,0.977,0.616L168.9,55.992z"/>
		<path fill="#5F5F5F" d="M173.014,61.991c-0.572,0-1.016-0.161-1.326-0.483s-0.465-0.781-0.465-1.379v-4.256h-0.826
			c-0.08,0-0.146-0.024-0.199-0.073c-0.055-0.05-0.08-0.123-0.08-0.221v-0.553l1.154-0.161l0.309-2.121
			c0.018-0.079,0.055-0.142,0.107-0.186c0.055-0.045,0.123-0.066,0.207-0.066h0.693v2.387h2.016v0.994h-2.016v4.165
			c0,0.28,0.068,0.488,0.207,0.626c0.137,0.138,0.312,0.207,0.527,0.207c0.127,0,0.234-0.017,0.326-0.049
			c0.09-0.033,0.168-0.069,0.234-0.108c0.064-0.04,0.121-0.076,0.168-0.109c0.047-0.032,0.088-0.049,0.125-0.049
			c0.047,0,0.084,0.011,0.109,0.032c0.025,0.021,0.053,0.055,0.08,0.101l0.406,0.658c-0.225,0.206-0.49,0.364-0.799,0.477
			C173.666,61.935,173.346,61.991,173.014,61.991z"/>
		<path fill="#5F5F5F" d="M175.676,55.761c0.396-0.378,0.826-0.66,1.291-0.847s0.975-0.28,1.529-0.28
			c0.406,0,0.766,0.066,1.078,0.199c0.312,0.134,0.576,0.319,0.791,0.557c0.215,0.238,0.377,0.523,0.486,0.854
			s0.164,0.697,0.164,1.099v4.536h-0.609c-0.135,0-0.236-0.022-0.307-0.066s-0.127-0.127-0.168-0.249l-0.148-0.623
			c-0.182,0.169-0.361,0.316-0.539,0.445c-0.176,0.128-0.361,0.237-0.557,0.329c-0.193,0.091-0.398,0.159-0.619,0.206
			c-0.219,0.047-0.461,0.07-0.727,0.07c-0.281,0-0.543-0.039-0.789-0.116c-0.244-0.076-0.457-0.194-0.641-0.354
			c-0.182-0.158-0.324-0.356-0.43-0.595s-0.158-0.516-0.158-0.833c0-0.28,0.076-0.55,0.229-0.809
			c0.15-0.259,0.398-0.491,0.742-0.696c0.342-0.205,0.791-0.373,1.344-0.504s1.232-0.205,2.041-0.224v-0.519
			c0-0.536-0.115-0.938-0.344-1.204c-0.229-0.266-0.564-0.398-1.008-0.398c-0.299,0-0.549,0.037-0.752,0.111
			c-0.203,0.075-0.379,0.158-0.525,0.249s-0.275,0.174-0.385,0.248c-0.109,0.075-0.223,0.112-0.34,0.112
			c-0.094,0-0.174-0.025-0.242-0.077c-0.066-0.051-0.121-0.112-0.164-0.182L175.676,55.761z M179.68,58.722
			c-0.557,0.019-1.027,0.062-1.414,0.13c-0.389,0.067-0.703,0.157-0.945,0.27c-0.242,0.111-0.418,0.244-0.525,0.396
			s-0.16,0.32-0.16,0.507c0,0.178,0.027,0.331,0.086,0.459s0.139,0.233,0.238,0.315c0.102,0.081,0.219,0.141,0.354,0.178
			c0.137,0.038,0.283,0.057,0.441,0.057c0.211,0,0.402-0.021,0.578-0.063c0.174-0.042,0.34-0.102,0.492-0.179
			c0.154-0.076,0.301-0.171,0.441-0.283s0.277-0.24,0.414-0.385V58.722z"/>
		<path fill="#5F5F5F" d="M187.666,55.754c0.152-0.163,0.314-0.312,0.482-0.448c0.168-0.135,0.346-0.251,0.535-0.347
			c0.189-0.095,0.393-0.17,0.609-0.224s0.449-0.08,0.697-0.08c0.391,0,0.734,0.065,1.031,0.195c0.297,0.131,0.545,0.314,0.746,0.55
			s0.352,0.52,0.455,0.851c0.102,0.331,0.154,0.697,0.154,1.099v4.529h-1.373V57.35c0-0.508-0.117-0.903-0.35-1.187
			c-0.234-0.282-0.59-0.423-1.07-0.423c-0.352,0-0.678,0.083-0.984,0.248c-0.305,0.166-0.59,0.391-0.85,0.676v5.215h-1.365v-7.112
			h0.818c0.191,0,0.311,0.091,0.357,0.273L187.666,55.754z"/>
		<path fill="#5F5F5F" d="M197.248,54.655c0.523,0,0.996,0.085,1.418,0.255c0.422,0.171,0.781,0.416,1.078,0.735
			s0.523,0.705,0.682,1.155s0.238,0.955,0.238,1.515c0,0.561-0.08,1.066-0.238,1.52s-0.385,0.838-0.682,1.155
			s-0.656,0.561-1.078,0.731c-0.422,0.17-0.895,0.255-1.418,0.255c-0.527,0-1.002-0.085-1.424-0.255
			c-0.422-0.171-0.783-0.414-1.082-0.731s-0.529-0.702-0.689-1.155s-0.242-0.959-0.242-1.52c0-0.56,0.082-1.064,0.242-1.515
			s0.391-0.836,0.689-1.155s0.66-0.564,1.082-0.735C196.246,54.74,196.721,54.655,197.248,54.655z M197.248,60.913
			c0.672,0,1.174-0.227,1.506-0.679c0.33-0.453,0.496-1.09,0.496-1.911s-0.166-1.46-0.496-1.915
			c-0.332-0.455-0.834-0.683-1.506-0.683c-0.682,0-1.189,0.228-1.521,0.683c-0.334,0.455-0.502,1.094-0.502,1.915
			s0.168,1.458,0.502,1.911C196.059,60.687,196.566,60.913,197.248,60.913z"/>
		<path fill="#5F5F5F" d="M207.084,55.747c0.293-0.327,0.627-0.591,1-0.791c0.373-0.201,0.799-0.301,1.273-0.301
			c0.416,0,0.791,0.08,1.125,0.241c0.332,0.161,0.617,0.392,0.85,0.693c0.234,0.301,0.414,0.666,0.539,1.095
			c0.127,0.43,0.189,0.915,0.189,1.456c0,0.574-0.072,1.097-0.213,1.568c-0.143,0.472-0.346,0.875-0.609,1.211
			s-0.586,0.596-0.963,0.78c-0.379,0.185-0.803,0.276-1.273,0.276c-0.229,0-0.439-0.021-0.631-0.066
			c-0.191-0.044-0.367-0.108-0.527-0.192c-0.162-0.084-0.311-0.187-0.445-0.308s-0.264-0.259-0.385-0.413l-0.062,0.595
			c-0.039,0.191-0.154,0.287-0.352,0.287h-0.881V51.547h1.365V55.747z M207.084,60.129c0.223,0.294,0.467,0.499,0.727,0.616
			c0.262,0.116,0.547,0.175,0.855,0.175c0.635,0,1.123-0.227,1.465-0.679c0.344-0.453,0.516-1.137,0.516-2.052
			c0-0.844-0.152-1.464-0.455-1.858c-0.303-0.394-0.732-0.591-1.289-0.591c-0.391,0-0.73,0.088-1.018,0.266s-0.555,0.43-0.801,0.756
			V60.129z"/>
		<path fill="#5F5F5F" d="M216.617,54.655c0.523,0,0.996,0.085,1.418,0.255c0.422,0.171,0.781,0.416,1.078,0.735
			s0.523,0.705,0.682,1.155s0.238,0.955,0.238,1.515c0,0.561-0.08,1.066-0.238,1.52s-0.385,0.838-0.682,1.155
			s-0.656,0.561-1.078,0.731c-0.422,0.17-0.895,0.255-1.418,0.255c-0.527,0-1.002-0.085-1.424-0.255
			c-0.422-0.171-0.783-0.414-1.082-0.731s-0.529-0.702-0.689-1.155s-0.242-0.959-0.242-1.52c0-0.56,0.082-1.064,0.242-1.515
			s0.391-0.836,0.689-1.155s0.66-0.564,1.082-0.735C215.615,54.74,216.09,54.655,216.617,54.655z M216.617,60.913
			c0.672,0,1.174-0.227,1.506-0.679c0.33-0.453,0.496-1.09,0.496-1.911s-0.166-1.46-0.496-1.915
			c-0.332-0.455-0.834-0.683-1.506-0.683c-0.682,0-1.189,0.228-1.521,0.683c-0.334,0.455-0.502,1.094-0.502,1.915
			s0.168,1.458,0.502,1.911C215.428,60.687,215.936,60.913,216.617,60.913z"/>
		<path fill="#5F5F5F" d="M222.953,51.547v10.332h-1.373V51.547H222.953z"/>
		<path fill="#5F5F5F" d="M230.736,60.864c-0.168,0.195-0.361,0.365-0.582,0.507c-0.219,0.143-0.451,0.258-0.699,0.347
			s-0.504,0.154-0.768,0.196s-0.523,0.062-0.779,0.062c-0.49,0-0.943-0.083-1.361-0.248c-0.418-0.166-0.779-0.408-1.086-0.729
			c-0.305-0.319-0.543-0.716-0.713-1.189c-0.172-0.474-0.256-1.019-0.256-1.635c0-0.494,0.076-0.955,0.23-1.383
			c0.154-0.427,0.375-0.799,0.662-1.116s0.639-0.566,1.053-0.749c0.416-0.182,0.883-0.272,1.4-0.272
			c0.434,0,0.834,0.071,1.201,0.213c0.365,0.143,0.682,0.35,0.947,0.62c0.268,0.271,0.475,0.604,0.627,1.001
			s0.229,0.849,0.229,1.357c0,0.21-0.023,0.352-0.07,0.424s-0.133,0.108-0.26,0.108h-4.662c0.014,0.425,0.074,0.795,0.182,1.109
			c0.107,0.315,0.256,0.577,0.445,0.788c0.189,0.21,0.414,0.366,0.676,0.469s0.553,0.153,0.875,0.153
			c0.303,0,0.564-0.034,0.787-0.104c0.221-0.07,0.412-0.146,0.574-0.228c0.16-0.082,0.297-0.157,0.406-0.228
			s0.205-0.104,0.291-0.104c0.111,0,0.197,0.042,0.258,0.126L230.736,60.864z M229.609,57.532c0-0.271-0.039-0.521-0.115-0.749
			c-0.078-0.229-0.191-0.428-0.34-0.596c-0.15-0.168-0.332-0.298-0.547-0.392s-0.461-0.14-0.742-0.14
			c-0.574,0-1.025,0.165-1.354,0.497c-0.33,0.331-0.539,0.791-0.627,1.379H229.609z"/>
		<path fill="#5F5F5F" d="M234.537,61.991c-0.574,0-1.016-0.161-1.326-0.483s-0.467-0.781-0.467-1.379v-4.256h-0.824
			c-0.08,0-0.146-0.024-0.201-0.073c-0.053-0.05-0.08-0.123-0.08-0.221v-0.553l1.156-0.161l0.307-2.121
			c0.02-0.079,0.055-0.142,0.109-0.186c0.053-0.045,0.123-0.066,0.207-0.066h0.691v2.387h2.018v0.994h-2.018v4.165
			c0,0.28,0.07,0.488,0.207,0.626c0.139,0.138,0.314,0.207,0.529,0.207c0.125,0,0.234-0.017,0.324-0.049
			c0.092-0.033,0.17-0.069,0.234-0.108c0.066-0.04,0.121-0.076,0.168-0.109c0.047-0.032,0.09-0.049,0.127-0.049
			c0.047,0,0.082,0.011,0.107,0.032c0.027,0.021,0.053,0.055,0.082,0.101l0.406,0.658c-0.225,0.206-0.49,0.364-0.799,0.477
			C235.188,61.935,234.869,61.991,234.537,61.991z"/>
		<path fill="#5F5F5F" d="M240.41,54.655c0.521,0,0.994,0.085,1.416,0.255c0.424,0.171,0.783,0.416,1.078,0.735
			c0.297,0.319,0.525,0.705,0.684,1.155s0.238,0.955,0.238,1.515c0,0.561-0.08,1.066-0.238,1.52s-0.387,0.838-0.684,1.155
			c-0.295,0.317-0.654,0.561-1.078,0.731c-0.422,0.17-0.895,0.255-1.416,0.255c-0.527,0-1.002-0.085-1.426-0.255
			c-0.422-0.171-0.783-0.414-1.08-0.731c-0.299-0.317-0.529-0.702-0.689-1.155c-0.162-0.453-0.242-0.959-0.242-1.52
			c0-0.56,0.08-1.064,0.242-1.515c0.16-0.45,0.391-0.836,0.689-1.155c0.297-0.319,0.658-0.564,1.08-0.735
			C239.408,54.74,239.883,54.655,240.41,54.655z M240.41,60.913c0.672,0,1.174-0.227,1.504-0.679
			c0.332-0.453,0.498-1.09,0.498-1.911s-0.166-1.46-0.498-1.915c-0.33-0.455-0.832-0.683-1.504-0.683
			c-0.682,0-1.189,0.228-1.523,0.683s-0.5,1.094-0.5,1.915s0.166,1.458,0.5,1.911C239.221,60.687,239.729,60.913,240.41,60.913z"/>
		<path fill="#5F5F5F" d="M104.99,68.655c0.522,0,0.995,0.085,1.417,0.255c0.422,0.171,0.781,0.416,1.078,0.735
			s0.524,0.705,0.683,1.155s0.238,0.955,0.238,1.515c0,0.561-0.079,1.066-0.238,1.52s-0.386,0.838-0.683,1.155
			s-0.656,0.561-1.078,0.731c-0.423,0.17-0.895,0.255-1.417,0.255c-0.528,0-1.002-0.085-1.425-0.255
			c-0.422-0.171-0.783-0.414-1.082-0.731s-0.528-0.702-0.689-1.155s-0.241-0.959-0.241-1.52c0-0.56,0.08-1.064,0.241-1.515
			s0.391-0.836,0.689-1.155s0.659-0.564,1.082-0.735C103.988,68.74,104.462,68.655,104.99,68.655z M104.99,74.913
			c0.672,0,1.173-0.227,1.505-0.679c0.331-0.453,0.497-1.09,0.497-1.911s-0.166-1.46-0.497-1.915
			c-0.332-0.455-0.833-0.683-1.505-0.683c-0.682,0-1.189,0.228-1.523,0.683c-0.333,0.455-0.5,1.094-0.5,1.915s0.167,1.458,0.5,1.911
			C103.801,74.687,104.309,74.913,104.99,74.913z"/>
		<path fill="#5F5F5F" d="M115.84,68.767v7.112h-0.819c-0.187,0-0.308-0.091-0.364-0.273l-0.098-0.714
			c-0.154,0.164-0.315,0.313-0.483,0.448c-0.168,0.136-0.348,0.251-0.539,0.347s-0.394,0.17-0.609,0.224s-0.446,0.081-0.693,0.081
			c-0.392,0-0.736-0.065-1.033-0.196s-0.545-0.313-0.745-0.55c-0.201-0.235-0.353-0.519-0.455-0.851
			c-0.103-0.331-0.154-0.697-0.154-1.099v-4.529h1.372v4.529c0,0.509,0.117,0.904,0.35,1.187s0.59,0.424,1.071,0.424
			c0.35,0,0.677-0.083,0.98-0.249c0.304-0.165,0.588-0.393,0.854-0.683v-5.208H115.84z"/>
		<path fill="#5F5F5F" d="M127.243,65.547v10.332h-0.826c-0.191,0-0.31-0.091-0.357-0.273l-0.119-0.818
			c-0.303,0.359-0.647,0.647-1.032,0.864c-0.385,0.217-0.83,0.325-1.333,0.325c-0.406,0-0.773-0.079-1.103-0.237
			c-0.329-0.159-0.61-0.392-0.844-0.697s-0.413-0.685-0.539-1.137c-0.126-0.453-0.189-0.974-0.189-1.562
			c0-0.527,0.07-1.018,0.21-1.47c0.14-0.453,0.343-0.845,0.609-1.176c0.266-0.332,0.588-0.592,0.966-0.781
			c0.378-0.188,0.805-0.283,1.281-0.283c0.429,0,0.794,0.07,1.095,0.21c0.301,0.141,0.571,0.339,0.809,0.595v-3.892H127.243z
			 M125.871,70.489c-0.224-0.294-0.465-0.5-0.725-0.616c-0.259-0.117-0.549-0.175-0.871-0.175c-0.625,0-1.11,0.225-1.453,0.675
			c-0.343,0.451-0.515,1.107-0.515,1.971c0,0.453,0.039,0.839,0.116,1.158c0.077,0.32,0.189,0.581,0.336,0.784
			s0.328,0.353,0.542,0.448c0.214,0.096,0.457,0.144,0.728,0.144c0.396,0,0.739-0.089,1.029-0.266
			c0.29-0.178,0.56-0.428,0.812-0.749V70.489z"/>
		<path fill="#5F5F5F" d="M134.992,74.864c-0.168,0.195-0.361,0.365-0.582,0.507c-0.219,0.143-0.451,0.258-0.699,0.347
			s-0.504,0.154-0.768,0.196s-0.523,0.062-0.779,0.062c-0.49,0-0.943-0.083-1.361-0.248c-0.418-0.166-0.779-0.408-1.086-0.729
			c-0.305-0.319-0.543-0.716-0.713-1.189s-0.255-1.019-0.255-1.635c0-0.494,0.077-0.955,0.231-1.383
			c0.154-0.427,0.375-0.799,0.662-1.116s0.639-0.566,1.053-0.749c0.416-0.182,0.883-0.272,1.4-0.272
			c0.434,0,0.834,0.071,1.201,0.213c0.365,0.143,0.682,0.35,0.947,0.62c0.268,0.271,0.475,0.604,0.627,1.001
			s0.229,0.849,0.229,1.357c0,0.21-0.023,0.352-0.07,0.424s-0.133,0.108-0.26,0.108h-4.662c0.014,0.425,0.074,0.795,0.182,1.109
			c0.107,0.315,0.256,0.577,0.445,0.788c0.189,0.21,0.414,0.366,0.676,0.469s0.553,0.153,0.875,0.153
			c0.303,0,0.564-0.034,0.787-0.104c0.221-0.07,0.412-0.146,0.574-0.228c0.16-0.082,0.297-0.157,0.406-0.228
			s0.205-0.104,0.291-0.104c0.111,0,0.197,0.042,0.258,0.126L134.992,74.864z M133.865,71.532c0-0.271-0.039-0.521-0.115-0.749
			c-0.078-0.229-0.191-0.428-0.34-0.596c-0.15-0.168-0.332-0.298-0.547-0.392s-0.461-0.14-0.742-0.14
			c-0.574,0-1.025,0.165-1.354,0.497c-0.33,0.331-0.539,0.791-0.627,1.379H133.865z"/>
		<path fill="#5F5F5F" d="M137.861,69.831c0.149-0.178,0.31-0.34,0.479-0.486c0.17-0.147,0.354-0.273,0.55-0.378
			c0.195-0.105,0.404-0.187,0.626-0.245s0.459-0.088,0.711-0.088c0.406,0,0.773,0.079,1.103,0.238c0.329,0.158,0.61,0.392,0.844,0.7
			c0.232,0.308,0.414,0.688,0.542,1.141c0.128,0.453,0.192,0.973,0.192,1.561c0,0.528-0.071,1.017-0.213,1.467
			c-0.143,0.45-0.346,0.842-0.609,1.173s-0.586,0.592-0.966,0.78c-0.381,0.189-0.809,0.283-1.285,0.283
			c-0.424,0-0.788-0.069-1.092-0.21c-0.303-0.14-0.574-0.336-0.812-0.588v3.087h-1.365v-9.499h0.819c0.191,0,0.31,0.091,0.356,0.273
			L137.861,69.831z M137.931,74.129c0.224,0.294,0.465,0.499,0.725,0.616c0.259,0.116,0.549,0.175,0.871,0.175
			c0.625,0,1.109-0.226,1.452-0.676c0.344-0.45,0.515-1.106,0.515-1.971c0-0.452-0.038-0.838-0.115-1.158
			c-0.077-0.319-0.189-0.581-0.336-0.784c-0.147-0.203-0.328-0.352-0.543-0.447c-0.214-0.096-0.457-0.144-0.728-0.144
			c-0.396,0-0.741,0.088-1.032,0.266c-0.292,0.178-0.562,0.43-0.809,0.756V74.129z"/>
		<path fill="#5F5F5F" d="M147.473,68.655c0.521,0,0.994,0.085,1.416,0.255c0.424,0.171,0.783,0.416,1.078,0.735
			c0.297,0.319,0.525,0.705,0.684,1.155s0.238,0.955,0.238,1.515c0,0.561-0.08,1.066-0.238,1.52s-0.387,0.838-0.684,1.155
			c-0.295,0.317-0.654,0.561-1.078,0.731c-0.422,0.17-0.895,0.255-1.416,0.255c-0.527,0-1.002-0.085-1.426-0.255
			c-0.422-0.171-0.783-0.414-1.08-0.731c-0.299-0.317-0.529-0.702-0.689-1.155c-0.162-0.453-0.242-0.959-0.242-1.52
			c0-0.56,0.08-1.064,0.242-1.515c0.16-0.45,0.391-0.836,0.689-1.155c0.297-0.319,0.658-0.564,1.08-0.735
			C146.471,68.74,146.945,68.655,147.473,68.655z M147.473,74.913c0.672,0,1.174-0.227,1.504-0.679
			c0.332-0.453,0.498-1.09,0.498-1.911s-0.166-1.46-0.498-1.915c-0.33-0.455-0.832-0.683-1.504-0.683
			c-0.682,0-1.189,0.228-1.523,0.683s-0.5,1.094-0.5,1.915s0.166,1.458,0.5,1.911C146.283,74.687,146.791,74.913,147.473,74.913z
			 M149.613,65.715l-1.658,1.806c-0.07,0.08-0.139,0.135-0.203,0.165s-0.152,0.045-0.26,0.045h-0.826l1.037-1.693
			c0.064-0.107,0.137-0.188,0.213-0.242c0.078-0.053,0.197-0.08,0.361-0.08H149.613z"/>
		<path fill="#5F5F5F" d="M156.6,69.992c-0.037,0.061-0.076,0.104-0.119,0.129c-0.041,0.026-0.096,0.039-0.16,0.039
			c-0.076,0-0.158-0.025-0.25-0.077c-0.09-0.052-0.199-0.107-0.328-0.168s-0.279-0.117-0.451-0.168
			c-0.174-0.052-0.379-0.077-0.617-0.077c-0.195,0-0.373,0.024-0.535,0.073c-0.16,0.049-0.297,0.117-0.408,0.203
			c-0.113,0.087-0.199,0.189-0.26,0.309c-0.061,0.118-0.092,0.246-0.092,0.381c0,0.178,0.053,0.324,0.158,0.441
			c0.105,0.116,0.242,0.217,0.414,0.301c0.17,0.084,0.363,0.16,0.58,0.228s0.439,0.139,0.664,0.214
			c0.227,0.074,0.449,0.159,0.666,0.255s0.41,0.215,0.58,0.357c0.172,0.143,0.309,0.313,0.414,0.515
			c0.105,0.2,0.158,0.445,0.158,0.734c0,0.332-0.061,0.639-0.18,0.921s-0.293,0.526-0.525,0.731
			c-0.23,0.205-0.516,0.366-0.857,0.482c-0.34,0.117-0.73,0.176-1.168,0.176c-0.49,0-0.943-0.082-1.359-0.245
			c-0.414-0.163-0.762-0.371-1.043-0.623l0.322-0.525c0.037-0.065,0.084-0.115,0.141-0.15s0.131-0.053,0.225-0.053
			c0.088,0,0.18,0.033,0.271,0.099c0.094,0.065,0.207,0.137,0.336,0.213c0.131,0.077,0.291,0.147,0.477,0.21
			c0.188,0.063,0.42,0.095,0.701,0.095c0.232,0,0.436-0.029,0.607-0.087c0.174-0.059,0.316-0.138,0.432-0.238
			c0.113-0.101,0.199-0.216,0.256-0.347c0.055-0.131,0.084-0.269,0.084-0.413c0-0.187-0.053-0.342-0.158-0.466
			c-0.105-0.123-0.242-0.229-0.412-0.318c-0.172-0.088-0.365-0.165-0.586-0.23c-0.219-0.065-0.443-0.136-0.672-0.21
			c-0.229-0.075-0.453-0.161-0.672-0.259c-0.219-0.099-0.414-0.222-0.584-0.371s-0.309-0.332-0.414-0.546
			c-0.104-0.215-0.156-0.477-0.156-0.784c0-0.275,0.057-0.539,0.172-0.791c0.113-0.252,0.279-0.474,0.496-0.665
			s0.486-0.345,0.805-0.459c0.32-0.114,0.686-0.171,1.096-0.171c0.471,0,0.896,0.074,1.277,0.224s0.707,0.354,0.977,0.616
			L156.6,69.992z"/>
		<path fill="#5F5F5F" d="M160.178,66.569c0,0.126-0.027,0.246-0.078,0.36s-0.119,0.215-0.207,0.301
			c-0.086,0.086-0.188,0.154-0.305,0.203c-0.115,0.049-0.236,0.073-0.363,0.073c-0.125,0-0.244-0.024-0.357-0.073
			c-0.111-0.049-0.211-0.117-0.297-0.203s-0.154-0.187-0.203-0.301s-0.074-0.234-0.074-0.36c0-0.131,0.025-0.254,0.074-0.368
			s0.117-0.215,0.203-0.301s0.186-0.154,0.297-0.203c0.113-0.049,0.232-0.073,0.357-0.073c0.127,0,0.248,0.024,0.363,0.073
			c0.117,0.049,0.219,0.117,0.305,0.203c0.088,0.086,0.156,0.187,0.207,0.301S160.178,66.438,160.178,66.569z M159.918,68.767v7.112
			h-1.365v-7.112H159.918z"/>
		<path fill="#5F5F5F" d="M164.125,75.991c-0.574,0-1.016-0.161-1.326-0.483s-0.467-0.781-0.467-1.379v-4.256h-0.824
			c-0.08,0-0.146-0.024-0.201-0.073c-0.053-0.05-0.08-0.123-0.08-0.221v-0.553l1.156-0.161l0.307-2.121
			c0.02-0.079,0.055-0.142,0.109-0.186c0.053-0.045,0.123-0.066,0.207-0.066h0.691v2.387h2.018v0.994h-2.018v4.165
			c0,0.28,0.07,0.488,0.207,0.626c0.139,0.138,0.314,0.207,0.529,0.207c0.125,0,0.234-0.017,0.324-0.049
			c0.092-0.033,0.17-0.069,0.234-0.108c0.066-0.04,0.121-0.076,0.168-0.109c0.047-0.032,0.09-0.049,0.127-0.049
			c0.047,0,0.082,0.011,0.107,0.032c0.027,0.021,0.053,0.055,0.082,0.101l0.406,0.658c-0.225,0.206-0.49,0.364-0.799,0.477
			C164.775,75.935,164.457,75.991,164.125,75.991z"/>
		<path fill="#5F5F5F" d="M169.998,68.655c0.523,0,0.996,0.085,1.418,0.255c0.422,0.171,0.781,0.416,1.078,0.735
			s0.523,0.705,0.682,1.155s0.238,0.955,0.238,1.515c0,0.561-0.08,1.066-0.238,1.52s-0.385,0.838-0.682,1.155
			s-0.656,0.561-1.078,0.731c-0.422,0.17-0.895,0.255-1.418,0.255c-0.527,0-1.002-0.085-1.424-0.255
			c-0.422-0.171-0.783-0.414-1.082-0.731s-0.529-0.702-0.689-1.155s-0.242-0.959-0.242-1.52c0-0.56,0.082-1.064,0.242-1.515
			s0.391-0.836,0.689-1.155s0.66-0.564,1.082-0.735C168.996,68.74,169.471,68.655,169.998,68.655z M169.998,74.913
			c0.672,0,1.174-0.227,1.506-0.679c0.33-0.453,0.496-1.09,0.496-1.911s-0.166-1.46-0.496-1.915
			c-0.332-0.455-0.834-0.683-1.506-0.683c-0.682,0-1.189,0.228-1.521,0.683c-0.334,0.455-0.502,1.094-0.502,1.915
			s0.168,1.458,0.502,1.911C168.809,74.687,169.316,74.913,169.998,74.913z"/>
		<path fill="#5F5F5F" d="M184.305,74.864c-0.168,0.195-0.361,0.365-0.58,0.507c-0.219,0.143-0.453,0.258-0.701,0.347
			c-0.246,0.089-0.502,0.154-0.766,0.196s-0.523,0.062-0.781,0.062c-0.49,0-0.943-0.083-1.361-0.248
			c-0.418-0.166-0.779-0.408-1.084-0.729c-0.307-0.319-0.545-0.716-0.715-1.189s-0.256-1.019-0.256-1.635
			c0-0.494,0.078-0.955,0.232-1.383c0.154-0.427,0.373-0.799,0.66-1.116s0.639-0.566,1.055-0.749c0.414-0.182,0.881-0.272,1.4-0.272
			c0.434,0,0.834,0.071,1.199,0.213c0.367,0.143,0.684,0.35,0.949,0.62s0.475,0.604,0.627,1.001c0.15,0.396,0.227,0.849,0.227,1.357
			c0,0.21-0.023,0.352-0.07,0.424s-0.133,0.108-0.258,0.108h-4.662c0.014,0.425,0.074,0.795,0.182,1.109
			c0.107,0.315,0.256,0.577,0.443,0.788c0.189,0.21,0.414,0.366,0.676,0.469s0.553,0.153,0.875,0.153
			c0.305,0,0.566-0.034,0.789-0.104c0.221-0.07,0.412-0.146,0.572-0.228c0.162-0.082,0.297-0.157,0.406-0.228
			s0.207-0.104,0.291-0.104c0.111,0,0.199,0.042,0.26,0.126L184.305,74.864z M183.178,71.532c0-0.271-0.037-0.521-0.115-0.749
			c-0.076-0.229-0.189-0.428-0.34-0.596c-0.148-0.168-0.33-0.298-0.545-0.392s-0.463-0.14-0.742-0.14
			c-0.574,0-1.025,0.165-1.355,0.497c-0.328,0.331-0.537,0.791-0.625,1.379H183.178z"/>
		<path fill="#5F5F5F" d="M197.9,70.986v3.92c-0.51,0.363-1.051,0.636-1.625,0.815s-1.199,0.27-1.875,0.27
			c-0.812,0-1.547-0.126-2.203-0.378c-0.654-0.252-1.213-0.604-1.676-1.058c-0.463-0.452-0.818-0.994-1.068-1.624
			c-0.248-0.63-0.373-1.322-0.373-2.079c0-0.76,0.119-1.457,0.359-2.089c0.24-0.633,0.586-1.174,1.033-1.624s0.99-0.801,1.627-1.05
			c0.637-0.25,1.352-0.375,2.146-0.375c0.4,0,0.773,0.03,1.115,0.091c0.344,0.061,0.662,0.147,0.957,0.259
			c0.293,0.112,0.564,0.247,0.814,0.403s0.482,0.332,0.697,0.528l-0.428,0.672c-0.064,0.107-0.152,0.175-0.26,0.203
			c-0.105,0.027-0.223,0.002-0.35-0.077c-0.121-0.07-0.256-0.151-0.402-0.245c-0.146-0.093-0.322-0.18-0.525-0.259
			s-0.439-0.147-0.709-0.203c-0.271-0.056-0.592-0.084-0.959-0.084c-0.551,0-1.049,0.09-1.492,0.27s-0.82,0.438-1.133,0.773
			s-0.555,0.741-0.723,1.215s-0.252,1.004-0.252,1.592c0,0.616,0.09,1.168,0.268,1.656c0.176,0.487,0.428,0.9,0.752,1.238
			c0.324,0.339,0.719,0.597,1.184,0.773c0.463,0.178,0.982,0.267,1.557,0.267c0.225,0,0.434-0.013,0.627-0.039
			c0.193-0.025,0.379-0.062,0.557-0.108c0.178-0.046,0.348-0.104,0.514-0.175s0.33-0.146,0.494-0.23v-2.107h-1.484
			c-0.094,0-0.17-0.028-0.227-0.084c-0.059-0.056-0.088-0.126-0.088-0.21v-0.847H197.9z"/>
		<path fill="#5F5F5F" d="M199.447,69.761c0.396-0.378,0.826-0.66,1.291-0.847s0.975-0.28,1.529-0.28
			c0.406,0,0.766,0.066,1.078,0.199c0.312,0.134,0.576,0.319,0.791,0.557c0.215,0.238,0.377,0.523,0.486,0.854
			s0.164,0.697,0.164,1.099v4.536h-0.609c-0.135,0-0.236-0.022-0.307-0.066s-0.127-0.127-0.168-0.249l-0.148-0.623
			c-0.182,0.169-0.361,0.316-0.539,0.445c-0.176,0.128-0.361,0.237-0.557,0.329c-0.193,0.091-0.398,0.159-0.619,0.206
			c-0.219,0.047-0.461,0.07-0.727,0.07c-0.281,0-0.543-0.039-0.789-0.116c-0.244-0.076-0.457-0.194-0.641-0.354
			c-0.182-0.158-0.324-0.356-0.43-0.595s-0.158-0.516-0.158-0.833c0-0.28,0.076-0.55,0.229-0.809
			c0.15-0.259,0.398-0.491,0.742-0.696c0.342-0.205,0.791-0.373,1.344-0.504s1.232-0.205,2.041-0.224v-0.519
			c0-0.536-0.115-0.938-0.344-1.204c-0.229-0.266-0.564-0.398-1.008-0.398c-0.299,0-0.549,0.037-0.752,0.111
			c-0.203,0.075-0.379,0.158-0.525,0.249s-0.275,0.174-0.385,0.248c-0.109,0.075-0.223,0.112-0.34,0.112
			c-0.094,0-0.174-0.025-0.242-0.077c-0.066-0.051-0.121-0.112-0.164-0.182L199.447,69.761z M203.451,72.722
			c-0.557,0.019-1.027,0.062-1.414,0.13c-0.389,0.067-0.703,0.157-0.945,0.27c-0.242,0.111-0.418,0.244-0.525,0.396
			s-0.16,0.32-0.16,0.507c0,0.178,0.027,0.331,0.086,0.459s0.139,0.233,0.238,0.315c0.102,0.081,0.219,0.141,0.354,0.178
			c0.137,0.038,0.283,0.057,0.441,0.057c0.211,0,0.402-0.021,0.578-0.063c0.174-0.042,0.34-0.102,0.492-0.179
			c0.154-0.076,0.301-0.171,0.441-0.283s0.277-0.24,0.414-0.385V72.722z"/>
		<path fill="#5F5F5F" d="M207.902,69.754c0.154-0.163,0.314-0.312,0.482-0.448c0.168-0.135,0.348-0.251,0.537-0.347
			c0.188-0.095,0.391-0.17,0.607-0.224c0.219-0.054,0.449-0.08,0.697-0.08c0.393,0,0.736,0.065,1.033,0.195
			c0.295,0.131,0.545,0.314,0.744,0.55c0.201,0.235,0.354,0.52,0.455,0.851c0.104,0.331,0.154,0.697,0.154,1.099v4.529h-1.371V71.35
			c0-0.508-0.117-0.903-0.352-1.187c-0.232-0.282-0.59-0.423-1.07-0.423c-0.35,0-0.678,0.083-0.982,0.248
			c-0.307,0.166-0.59,0.391-0.852,0.676v5.215h-1.365v-7.112h0.82c0.191,0,0.309,0.091,0.355,0.273L207.902,69.754z"/>
		<path fill="#5F5F5F" d="M215.82,69.67c0.299-0.304,0.629-0.548,0.99-0.735c0.361-0.187,0.777-0.279,1.25-0.279
			c0.391,0,0.734,0.065,1.031,0.195c0.297,0.131,0.545,0.314,0.746,0.55s0.352,0.52,0.455,0.851
			c0.102,0.331,0.154,0.697,0.154,1.099v4.529h-1.373V71.35c0-0.508-0.117-0.903-0.35-1.187c-0.234-0.282-0.59-0.423-1.07-0.423
			c-0.352,0-0.678,0.083-0.984,0.248c-0.305,0.166-0.59,0.391-0.85,0.676v5.215h-1.365V65.547h1.365V69.67z"/>
		<path fill="#5F5F5F" d="M228.125,74.864c-0.168,0.195-0.361,0.365-0.582,0.507c-0.219,0.143-0.451,0.258-0.699,0.347
			s-0.504,0.154-0.768,0.196s-0.523,0.062-0.779,0.062c-0.49,0-0.943-0.083-1.361-0.248c-0.418-0.166-0.779-0.408-1.086-0.729
			c-0.305-0.319-0.543-0.716-0.713-1.189c-0.172-0.474-0.256-1.019-0.256-1.635c0-0.494,0.076-0.955,0.23-1.383
			c0.154-0.427,0.375-0.799,0.662-1.116s0.639-0.566,1.053-0.749c0.416-0.182,0.883-0.272,1.4-0.272
			c0.434,0,0.834,0.071,1.201,0.213c0.365,0.143,0.682,0.35,0.947,0.62c0.268,0.271,0.475,0.604,0.627,1.001
			s0.229,0.849,0.229,1.357c0,0.21-0.023,0.352-0.07,0.424s-0.133,0.108-0.26,0.108h-4.662c0.014,0.425,0.074,0.795,0.182,1.109
			c0.107,0.315,0.256,0.577,0.445,0.788c0.189,0.21,0.414,0.366,0.676,0.469s0.553,0.153,0.875,0.153
			c0.303,0,0.564-0.034,0.787-0.104c0.221-0.07,0.412-0.146,0.574-0.228c0.16-0.082,0.297-0.157,0.406-0.228
			s0.205-0.104,0.291-0.104c0.111,0,0.197,0.042,0.258,0.126L228.125,74.864z M226.998,71.532c0-0.271-0.039-0.521-0.115-0.749
			c-0.078-0.229-0.191-0.428-0.34-0.596c-0.15-0.168-0.332-0.298-0.547-0.392s-0.461-0.14-0.742-0.14
			c-0.574,0-1.025,0.165-1.354,0.497c-0.33,0.331-0.539,0.791-0.627,1.379H226.998z"/>
		<path fill="#5F5F5F" d="M239.43,74.836v1.043h-5.432v-1.043h2.127v-6.587c0-0.21,0.008-0.427,0.021-0.651l-1.707,1.449
			c-0.066,0.052-0.131,0.084-0.197,0.098c-0.064,0.015-0.127,0.017-0.186,0.008c-0.059-0.01-0.109-0.029-0.152-0.06
			c-0.045-0.03-0.082-0.062-0.109-0.095l-0.428-0.595l3.01-2.598h1.113v9.03H239.43z"/>
		<path fill="#5F5F5F" d="M248.109,70.853c0,0.878-0.094,1.639-0.283,2.282c-0.189,0.645-0.447,1.178-0.777,1.6
			c-0.328,0.423-0.715,0.736-1.162,0.941c-0.445,0.205-0.924,0.309-1.438,0.309s-0.992-0.104-1.439-0.309
			c-0.445-0.205-0.832-0.519-1.158-0.941c-0.326-0.422-0.582-0.955-0.77-1.6c-0.188-0.644-0.279-1.404-0.279-2.282
			c0-0.877,0.092-1.639,0.279-2.285s0.443-1.181,0.77-1.603c0.326-0.423,0.713-0.736,1.158-0.942
			c0.447-0.205,0.926-0.308,1.439-0.308s0.992,0.103,1.438,0.308c0.447,0.206,0.834,0.52,1.162,0.942
			c0.33,0.422,0.588,0.956,0.777,1.603S248.109,69.976,248.109,70.853z M246.695,70.853c0-0.756-0.061-1.388-0.186-1.896
			c-0.123-0.509-0.289-0.918-0.496-1.229s-0.447-0.531-0.717-0.662c-0.271-0.13-0.555-0.195-0.848-0.195
			c-0.295,0-0.576,0.065-0.848,0.195c-0.27,0.131-0.51,0.352-0.717,0.662s-0.373,0.72-0.494,1.229s-0.182,1.141-0.182,1.896
			c0,0.757,0.061,1.389,0.182,1.897s0.287,0.917,0.494,1.225c0.207,0.309,0.447,0.527,0.717,0.658
			c0.271,0.131,0.553,0.196,0.848,0.196c0.293,0,0.576-0.065,0.848-0.196c0.27-0.131,0.51-0.35,0.717-0.658
			c0.207-0.308,0.373-0.716,0.496-1.225C246.635,72.241,246.695,71.609,246.695,70.853z"/>
		<path fill="#5F5F5F" d="M253.611,68.256c0,0.392-0.062,0.742-0.186,1.05c-0.123,0.309-0.289,0.568-0.494,0.78
			c-0.205,0.213-0.443,0.376-0.717,0.49s-0.559,0.172-0.857,0.172c-0.322,0-0.619-0.058-0.893-0.172s-0.51-0.277-0.711-0.49
			c-0.201-0.212-0.357-0.472-0.473-0.78c-0.113-0.308-0.172-0.658-0.172-1.05c0-0.401,0.059-0.758,0.172-1.071
			c0.115-0.312,0.271-0.577,0.473-0.794s0.438-0.383,0.711-0.497s0.57-0.172,0.893-0.172s0.619,0.058,0.893,0.172
			s0.51,0.28,0.713,0.497s0.363,0.481,0.477,0.794C253.555,67.498,253.611,67.854,253.611,68.256z M257.111,66.051
			c0.051-0.061,0.111-0.113,0.178-0.157c0.068-0.045,0.162-0.066,0.283-0.066h0.988l-7.379,9.835
			c-0.051,0.065-0.111,0.118-0.182,0.157c-0.07,0.04-0.154,0.06-0.252,0.06h-1.016L257.111,66.051z M252.547,68.256
			c0-0.299-0.031-0.552-0.094-0.76c-0.064-0.207-0.148-0.375-0.256-0.504c-0.107-0.128-0.234-0.222-0.379-0.279
			c-0.145-0.059-0.299-0.088-0.461-0.088c-0.164,0-0.318,0.029-0.463,0.088c-0.145,0.058-0.27,0.151-0.373,0.279
			c-0.105,0.129-0.189,0.297-0.25,0.504c-0.061,0.208-0.09,0.461-0.09,0.76c0,0.289,0.029,0.535,0.09,0.738s0.145,0.368,0.25,0.494
			c0.104,0.126,0.229,0.217,0.373,0.272c0.145,0.057,0.299,0.084,0.463,0.084c0.162,0,0.316-0.027,0.461-0.084
			c0.145-0.056,0.271-0.146,0.379-0.272s0.191-0.291,0.256-0.494C252.516,68.791,252.547,68.545,252.547,68.256z M259.205,73.506
			c0,0.392-0.062,0.742-0.186,1.05c-0.125,0.309-0.289,0.568-0.494,0.78c-0.205,0.213-0.445,0.376-0.717,0.49
			c-0.273,0.114-0.561,0.172-0.859,0.172c-0.32,0-0.619-0.058-0.891-0.172c-0.273-0.114-0.512-0.277-0.711-0.49
			c-0.201-0.212-0.359-0.472-0.473-0.78c-0.115-0.308-0.172-0.658-0.172-1.05c0-0.401,0.057-0.758,0.172-1.071
			c0.113-0.312,0.271-0.577,0.473-0.794c0.199-0.217,0.438-0.382,0.711-0.494c0.271-0.111,0.57-0.168,0.891-0.168
			c0.322,0,0.621,0.057,0.893,0.168c0.273,0.112,0.512,0.277,0.715,0.494s0.361,0.481,0.477,0.794
			C259.146,72.748,259.205,73.104,259.205,73.506z M258.141,73.506c0-0.299-0.031-0.551-0.096-0.756
			c-0.062-0.205-0.148-0.372-0.254-0.501c-0.107-0.128-0.234-0.222-0.379-0.279c-0.145-0.059-0.299-0.088-0.463-0.088
			c-0.168,0-0.322,0.029-0.465,0.088c-0.143,0.058-0.266,0.151-0.371,0.279c-0.105,0.129-0.188,0.296-0.248,0.501
			s-0.092,0.457-0.092,0.756c0,0.294,0.031,0.541,0.092,0.742c0.061,0.2,0.143,0.364,0.248,0.49s0.229,0.217,0.371,0.272
			c0.143,0.057,0.297,0.084,0.465,0.084c0.164,0,0.318-0.027,0.463-0.084c0.145-0.056,0.271-0.146,0.379-0.272
			c0.105-0.126,0.191-0.29,0.254-0.49C258.109,74.047,258.141,73.8,258.141,73.506z"/>
	</g>
</g>
</svg>
