<?xml version="1.0" encoding="utf-8"?>
<!-- Generator: Adobe Illustrator 15.0.0, SVG Export Plug-In . SVG Version: 6.00 Build 0)  -->
<!DOCTYPE svg PUBLIC "-//W3C//DTD SVG 1.1//EN" "http://www.w3.org/Graphics/SVG/1.1/DTD/svg11.dtd">
<svg version="1.1" id="Layer_1" xmlns="http://www.w3.org/2000/svg" xmlns:xlink="http://www.w3.org/1999/xlink" x="0px" y="0px"
	 width="285px" height="101px" viewBox="0 0 285 101" enable-background="new 0 0 285 101" xml:space="preserve">
<g id="Layer_2_1_">
	<g id="Layer_1_2_">
		<g>
			
				<linearGradient id="SVGID_1_" gradientUnits="userSpaceOnUse" x1="425" y1="-155.9531" x2="425" y2="-256.3179" gradientTransform="matrix(1 0 0 -1 -282.5 -155.5)">
				<stop  offset="0" style="stop-color:#B9519F"/>
				<stop  offset="1" style="stop-color:#A83B8D"/>
			</linearGradient>
			<rect fill="url(#SVGID_1_)" width="285" height="101"/>
		</g>
	</g>
</g>
<g id="Layer_1_1_">
	<g id="Layer_2" display="none">
		<rect display="inline" fill="#FFFFFF" width="101" height="101"/>
	</g>
	<g>
		<g>
			<path fill="#FFFFFF" d="M106.742,30.946l-0.55,0.682c0.308-0.154,0.64-0.273,0.996-0.357c0.355-0.084,0.739-0.126,1.149-0.126
				c0.601,0,1.186,0.099,1.754,0.297c0.568,0.198,1.069,0.497,1.501,0.897c0.433,0.399,0.781,0.896,1.045,1.49
				c0.264,0.594,0.396,1.287,0.396,2.079c0,0.741-0.136,1.436-0.407,2.084c-0.271,0.648-0.653,1.215-1.144,1.699
				c-0.491,0.484-1.083,0.866-1.776,1.144c-0.693,0.279-1.458,0.418-2.293,0.418c-0.851,0-1.613-0.136-2.288-0.407
				s-1.25-0.651-1.727-1.139c-0.477-0.487-0.841-1.074-1.094-1.76c-0.253-0.686-0.38-1.447-0.38-2.283
				c0-0.748,0.152-1.516,0.457-2.304c0.304-0.789,0.775-1.608,1.414-2.458l3.795-5.093c0.132-0.176,0.325-0.326,0.578-0.451
				s0.544-0.187,0.875-0.187h2.42L106.742,30.946z M107.358,39.031c0.433,0,0.831-0.073,1.193-0.22
				c0.363-0.146,0.675-0.352,0.935-0.616c0.26-0.264,0.464-0.574,0.611-0.93c0.146-0.355,0.22-0.743,0.22-1.161
				c0-0.455-0.07-0.863-0.209-1.227c-0.139-0.363-0.337-0.671-0.594-0.924c-0.257-0.253-0.565-0.445-0.924-0.578
				c-0.359-0.132-0.755-0.198-1.188-0.198s-0.825,0.073-1.177,0.22s-0.653,0.351-0.902,0.611c-0.25,0.26-0.444,0.568-0.583,0.924
				c-0.14,0.356-0.209,0.739-0.209,1.149c0,0.44,0.061,0.842,0.182,1.205c0.121,0.363,0.301,0.673,0.539,0.93
				c0.238,0.257,0.534,0.457,0.886,0.599C106.489,38.959,106.896,39.031,107.358,39.031z"/>
			<path fill="#FFFFFF" d="M128.457,41.077h-2.949c-0.205,0-0.367-0.051-0.488-0.154s-0.219-0.22-0.293-0.352l-3.684-6.105
				c-0.059,0.183-0.128,0.341-0.209,0.473l-3.531,5.632c-0.088,0.125-0.189,0.24-0.303,0.346c-0.114,0.106-0.262,0.16-0.445,0.16
				h-2.761l5.28-8.184l-5.071-7.722h2.948c0.205,0,0.354,0.027,0.446,0.082c0.091,0.055,0.177,0.145,0.258,0.27l3.619,5.83
				c0.073-0.183,0.161-0.367,0.264-0.55l3.322-5.225c0.08-0.139,0.168-0.242,0.264-0.308s0.217-0.099,0.363-0.099h2.826
				l-5.113,7.601L128.457,41.077z"/>
			<path fill="#FFFFFF" d="M144.098,28.064c-0.088,0.154-0.182,0.266-0.281,0.335c-0.1,0.07-0.223,0.104-0.367,0.104
				c-0.152,0-0.32-0.057-0.5-0.17c-0.18-0.113-0.395-0.24-0.644-0.379c-0.25-0.139-0.541-0.266-0.875-0.379
				c-0.334-0.113-0.728-0.17-1.183-0.17c-0.41,0-0.77,0.049-1.077,0.148c-0.309,0.099-0.567,0.236-0.776,0.413
				c-0.209,0.176-0.364,0.387-0.467,0.632c-0.104,0.246-0.154,0.515-0.154,0.809c0,0.374,0.104,0.686,0.313,0.935
				s0.485,0.462,0.83,0.638c0.345,0.176,0.737,0.334,1.178,0.473c0.439,0.139,0.891,0.288,1.353,0.445
				c0.462,0.158,0.913,0.341,1.354,0.55c0.438,0.209,0.832,0.473,1.178,0.792c0.344,0.319,0.621,0.709,0.83,1.171
				s0.312,1.023,0.312,1.683c0,0.719-0.123,1.392-0.367,2.019c-0.246,0.627-0.604,1.173-1.078,1.639
				c-0.473,0.466-1.051,0.833-1.733,1.1s-1.463,0.401-2.343,0.401c-0.506,0-1.005-0.049-1.496-0.148
				c-0.491-0.099-0.963-0.24-1.414-0.423c-0.45-0.183-0.874-0.403-1.271-0.66c-0.396-0.256-0.747-0.542-1.056-0.858l0.869-1.419
				c0.073-0.103,0.169-0.188,0.286-0.258c0.117-0.07,0.242-0.104,0.374-0.104c0.183,0,0.381,0.075,0.594,0.225
				s0.466,0.317,0.759,0.5c0.294,0.184,0.637,0.351,1.028,0.5c0.393,0.15,0.864,0.226,1.414,0.226c0.843,0,1.496-0.2,1.958-0.599
				c0.462-0.4,0.693-0.974,0.693-1.722c0-0.418-0.104-0.759-0.313-1.023c-0.209-0.264-0.486-0.486-0.831-0.666
				c-0.345-0.18-0.737-0.332-1.177-0.457s-0.888-0.26-1.342-0.407c-0.455-0.146-0.902-0.322-1.343-0.528
				c-0.439-0.205-0.832-0.473-1.177-0.803c-0.345-0.33-0.621-0.742-0.83-1.237c-0.209-0.495-0.313-1.105-0.313-1.832
				c0-0.579,0.115-1.144,0.347-1.694c0.23-0.55,0.566-1.038,1.006-1.463c0.44-0.425,0.982-0.767,1.628-1.023
				c0.646-0.257,1.387-0.385,2.223-0.385c0.938,0,1.804,0.147,2.596,0.44c0.792,0.293,1.466,0.704,2.024,1.232L144.098,28.064z"/>
			<path fill="#FFFFFF" d="M150.664,27.525v4.411h5.566v2.277h-5.566v4.499h7.062v2.365h-10.031V25.171h10.031v2.354H150.664z"/>
			<path fill="#FFFFFF" d="M177.592,25.171v15.906h-2.607V30.803c0-0.411,0.021-0.854,0.066-1.331l-4.807,9.031
				c-0.229,0.433-0.576,0.649-1.045,0.649h-0.418c-0.471,0-0.818-0.216-1.045-0.649l-4.863-9.064
				c0.023,0.242,0.041,0.48,0.057,0.715c0.014,0.235,0.021,0.451,0.021,0.649v10.274h-2.607V25.171h2.232
				c0.133,0,0.246,0.003,0.342,0.011c0.096,0.008,0.182,0.026,0.258,0.055c0.078,0.029,0.146,0.077,0.209,0.143
				s0.123,0.154,0.182,0.264l4.766,8.833c0.125,0.235,0.238,0.477,0.346,0.726c0.107,0.25,0.213,0.506,0.314,0.77
				c0.102-0.271,0.209-0.534,0.316-0.787c0.109-0.253,0.229-0.497,0.354-0.731l4.695-8.811c0.061-0.11,0.121-0.198,0.188-0.264
				c0.065-0.066,0.138-0.114,0.215-0.143c0.076-0.029,0.162-0.048,0.259-0.055c0.097-0.007,0.209-0.011,0.342-0.011H177.592z"/>
			<path fill="#FFFFFF" d="M192.541,35.423c0,0.895-0.111,1.701-0.33,2.42c-0.221,0.719-0.549,1.331-0.984,1.837
				c-0.438,0.506-0.98,0.895-1.635,1.166c-0.652,0.271-1.41,0.407-2.275,0.407c-0.396,0-0.783-0.023-1.166-0.071
				c-0.383-0.048-0.779-0.123-1.197-0.226c0.021-0.293,0.047-0.586,0.074-0.88c0.029-0.294,0.057-0.586,0.078-0.88
				c0.021-0.161,0.086-0.292,0.191-0.391c0.105-0.099,0.258-0.148,0.457-0.148c0.125,0,0.287,0.026,0.488,0.077
				c0.203,0.051,0.457,0.077,0.766,0.077c0.418,0,0.787-0.061,1.111-0.181c0.322-0.121,0.592-0.314,0.809-0.578
				c0.215-0.264,0.379-0.607,0.488-1.029c0.111-0.421,0.166-0.933,0.166-1.534V25.171h2.959V35.423L192.541,35.423z"/>
			<path fill="#FFFFFF" d="M202.33,38.69c0.572,0,1.084-0.095,1.535-0.286c0.451-0.191,0.83-0.458,1.139-0.803
				c0.309-0.345,0.545-0.763,0.709-1.254c0.166-0.491,0.248-1.041,0.248-1.65v-9.526h2.959v9.526c0,0.946-0.152,1.82-0.457,2.624
				c-0.305,0.803-0.74,1.496-1.309,2.079c-0.569,0.583-1.26,1.038-2.074,1.364c-0.812,0.326-1.73,0.489-2.75,0.489
				c-1.025,0-1.947-0.163-2.76-0.489c-0.814-0.326-1.506-0.781-2.074-1.364s-1.004-1.276-1.309-2.079
				c-0.307-0.803-0.457-1.678-0.457-2.624v-9.526h2.959v9.515c0,0.609,0.082,1.159,0.248,1.65c0.164,0.492,0.4,0.912,0.715,1.26
				c0.311,0.348,0.693,0.618,1.145,0.809C201.248,38.595,201.758,38.69,202.33,38.69z"/>
			<path fill="#FFFFFF" d="M224.684,41.077h-2.674c-0.506,0-0.873-0.198-1.1-0.594l-3.344-5.093
				c-0.125-0.19-0.266-0.326-0.414-0.407c-0.15-0.081-0.371-0.121-0.664-0.121h-1.266v6.215h-2.959V25.171h4.852
				c1.078,0,2.004,0.112,2.777,0.335c0.771,0.223,1.406,0.537,1.9,0.94c0.496,0.403,0.857,0.885,1.098,1.446
				c0.232,0.561,0.352,1.179,0.352,1.854c0,0.536-0.08,1.042-0.236,1.518c-0.158,0.477-0.385,0.909-0.684,1.298
				c-0.297,0.389-0.662,0.73-1.1,1.023s-0.936,0.524-1.49,0.693c0.189,0.11,0.367,0.24,0.525,0.39
				c0.162,0.15,0.311,0.329,0.441,0.534L224.684,41.077z M217.07,32.739c0.557,0,1.043-0.07,1.457-0.209
				c0.416-0.139,0.756-0.332,1.021-0.578s0.471-0.537,0.602-0.875c0.133-0.337,0.199-0.708,0.199-1.111
				c0-0.807-0.27-1.426-0.801-1.859c-0.529-0.432-1.344-0.649-2.436-0.649h-1.895v5.28h1.85v0.001H217.07z"/>
			<path fill="#FFFFFF" d="M241.578,33.124c0,1.166-0.193,2.246-0.578,3.24c-0.385,0.994-0.93,1.854-1.633,2.58
				s-1.551,1.292-2.541,1.699c-0.99,0.407-2.09,0.61-3.301,0.61c-1.201,0-2.299-0.203-3.289-0.61
				c-0.988-0.407-1.838-0.974-2.545-1.699c-0.709-0.726-1.256-1.586-1.646-2.58c-0.389-0.994-0.584-2.074-0.584-3.24
				s0.195-2.246,0.584-3.239c0.391-0.993,0.938-1.854,1.646-2.58c0.707-0.726,1.557-1.292,2.545-1.7
				c0.99-0.407,2.088-0.61,3.289-0.61c0.807,0,1.564,0.094,2.275,0.281c0.713,0.187,1.365,0.451,1.961,0.792
				c0.594,0.341,1.127,0.755,1.6,1.243s0.875,1.032,1.205,1.634c0.33,0.601,0.58,1.254,0.754,1.958
				C241.492,31.606,241.578,32.347,241.578,33.124z M238.553,33.124c0-0.873-0.117-1.655-0.352-2.348
				c-0.235-0.693-0.568-1.282-1.002-1.766c-0.432-0.484-0.957-0.854-1.578-1.111c-0.619-0.256-1.318-0.385-2.096-0.385
				c-0.778,0-1.477,0.128-2.094,0.385c-0.621,0.257-1.148,0.627-1.584,1.111c-0.438,0.484-0.773,1.072-1.01,1.766
				c-0.232,0.693-0.354,1.476-0.354,2.348c0,0.873,0.117,1.656,0.354,2.349c0.235,0.693,0.57,1.28,1.01,1.76
				c0.436,0.48,0.963,0.849,1.584,1.106c0.617,0.256,1.314,0.385,2.094,0.385c0.776,0,1.477-0.128,2.096-0.385
				c0.621-0.257,1.146-0.625,1.578-1.106c0.434-0.48,0.768-1.067,1.002-1.76C238.436,34.78,238.553,33.997,238.553,33.124z"/>
			<path fill="#FFFFFF" d="M252.656,28.064c-0.088,0.154-0.182,0.266-0.281,0.335c-0.1,0.07-0.223,0.104-0.369,0.104
				c-0.152,0-0.32-0.057-0.5-0.17s-0.395-0.24-0.643-0.379c-0.25-0.139-0.541-0.266-0.875-0.379c-0.334-0.113-0.729-0.17-1.184-0.17
				c-0.41,0-0.771,0.049-1.076,0.148c-0.311,0.099-0.568,0.236-0.777,0.413c-0.209,0.176-0.363,0.387-0.467,0.632
				c-0.104,0.245-0.154,0.515-0.154,0.809c0,0.374,0.105,0.686,0.314,0.935s0.482,0.462,0.83,0.638
				c0.344,0.176,0.734,0.334,1.178,0.473c0.438,0.139,0.891,0.288,1.352,0.445c0.463,0.158,0.914,0.341,1.354,0.55
				c0.44,0.209,0.832,0.473,1.18,0.792c0.344,0.319,0.621,0.709,0.83,1.171s0.312,1.023,0.312,1.683
				c0,0.719-0.123,1.392-0.367,2.019c-0.246,0.627-0.604,1.173-1.078,1.639s-1.051,0.833-1.731,1.1s-1.463,0.401-2.344,0.401
				c-0.507,0-1.005-0.049-1.496-0.148c-0.49-0.099-0.964-0.24-1.414-0.423c-0.449-0.183-0.873-0.403-1.271-0.66
				c-0.396-0.256-0.748-0.542-1.058-0.858l0.869-1.419c0.073-0.103,0.17-0.188,0.287-0.258c0.116-0.07,0.241-0.104,0.373-0.104
				c0.184,0,0.381,0.075,0.594,0.225s0.467,0.317,0.761,0.5c0.293,0.184,0.637,0.351,1.026,0.5c0.394,0.15,0.864,0.226,1.414,0.226
				c0.844,0,1.496-0.2,1.959-0.599c0.461-0.4,0.692-0.974,0.692-1.722c0-0.418-0.104-0.759-0.313-1.023
				c-0.209-0.264-0.485-0.486-0.83-0.666c-0.347-0.18-0.737-0.332-1.178-0.457s-0.888-0.26-1.343-0.407
				c-0.455-0.146-0.901-0.322-1.342-0.528c-0.438-0.205-0.832-0.473-1.179-0.803c-0.344-0.33-0.621-0.742-0.83-1.237
				s-0.312-1.105-0.312-1.832c0-0.579,0.115-1.144,0.346-1.694c0.23-0.55,0.566-1.038,1.006-1.463
				c0.441-0.425,0.982-0.767,1.629-1.023c0.645-0.257,1.387-0.385,2.223-0.385c0.938,0,1.805,0.147,2.598,0.44
				c0.791,0.293,1.467,0.704,2.021,1.232L252.656,28.064z"/>
		</g>
		<g>
			<path fill="#FFFFFF" d="M30.8,44.32l-1.5,1.86c0.84-0.42,1.745-0.745,2.715-0.975c0.97-0.229,2.015-0.345,3.135-0.345
				c1.64,0,3.235,0.27,4.785,0.81c1.55,0.54,2.915,1.355,4.095,2.445c1.18,1.09,2.13,2.445,2.85,4.064
				c0.72,1.619,1.08,3.51,1.08,5.67c0,2.021-0.37,3.916-1.11,5.686c-0.74,1.77-1.78,3.314-3.12,4.635
				c-1.34,1.321-2.955,2.359-4.845,3.12c-1.89,0.76-3.975,1.14-6.255,1.14c-2.32,0-4.4-0.369-6.24-1.109
				c-1.84-0.738-3.41-1.773-4.71-3.104c-1.3-1.33-2.295-2.93-2.985-4.8s-1.035-3.942-1.035-6.226c0-2.041,0.415-4.137,1.245-6.284
				c0.83-2.15,2.115-4.385,3.855-6.705l10.35-13.89c0.36-0.48,0.885-0.89,1.575-1.23s1.485-0.51,2.385-0.51h6.6L30.8,44.32z
				 M32.48,66.37c1.18,0,2.265-0.2,3.255-0.601c0.99-0.399,1.84-0.959,2.55-1.682c0.709-0.72,1.265-1.562,1.665-2.533
				c0.4-0.971,0.6-2.025,0.6-3.164c0-1.24-0.19-2.355-0.57-3.348s-0.92-1.83-1.62-2.521c-0.701-0.688-1.541-1.215-2.52-1.573
				c-0.98-0.36-2.061-0.54-3.24-0.54c-1.18,0-2.25,0.2-3.21,0.6c-0.96,0.4-1.78,0.955-2.46,1.666c-0.68,0.709-1.21,1.551-1.59,2.521
				c-0.38,0.971-0.57,2.016-0.57,3.135c0,1.199,0.165,2.295,0.495,3.285s0.82,1.835,1.47,2.535c0.649,0.699,1.455,1.244,2.415,1.635
				S31.22,66.37,32.48,66.37z"/>
			<path fill="#FFFFFF" d="M83.34,71.95h-6.701c-0.467,0-0.838-0.116-1.111-0.351c-0.275-0.232-0.496-0.5-0.664-0.801l-8.375-13.875
				C66.356,57.342,66.198,57.7,66.015,58L57.99,70.801c-0.2,0.283-0.429,0.545-0.688,0.787c-0.259,0.242-0.596,0.362-1.012,0.362
				h-6.275l12-18.601L50.489,35.8h6.7c0.466,0,0.804,0.062,1.013,0.188c0.208,0.125,0.404,0.329,0.587,0.612l8.225,13.25
				c0.166-0.417,0.366-0.833,0.6-1.25l7.55-11.875c0.184-0.316,0.383-0.55,0.6-0.7c0.217-0.15,0.492-0.225,0.826-0.225h6.424
				L71.389,53.075L83.34,71.95z"/>
		</g>
		<g>
			<path fill="#FFFFFF" d="M105.284,51.827c0.644,0,1.204,0.073,1.68,0.224c0.476,0.151,0.871,0.36,1.183,0.635
				c0.312,0.271,0.545,0.604,0.696,0.989c0.152,0.388,0.228,0.816,0.228,1.288c0,0.473-0.082,0.904-0.245,1.299
				c-0.164,0.396-0.404,0.733-0.721,1.021c-0.317,0.282-0.713,0.505-1.187,0.659c-0.474,0.156-1.019,0.234-1.634,0.234h-1.554v3.703
				h-1.491V51.827H105.284z M105.284,57c0.378,0,0.71-0.049,0.998-0.146c0.287-0.099,0.527-0.235,0.721-0.416
				s0.339-0.396,0.438-0.646c0.098-0.249,0.147-0.524,0.147-0.829c0-0.611-0.19-1.092-0.57-1.441
				c-0.38-0.351-0.958-0.523-1.732-0.523h-1.554V57H105.284z"/>
			<path fill="#FFFFFF" d="M110.247,55.761c0.397-0.378,0.827-0.659,1.292-0.847s0.974-0.28,1.53-0.28
				c0.406,0,0.765,0.066,1.078,0.199c0.313,0.134,0.577,0.319,0.791,0.558c0.215,0.237,0.377,0.522,0.487,0.854
				c0.109,0.331,0.165,0.696,0.165,1.099v4.536h-0.609c-0.135,0-0.238-0.021-0.308-0.065c-0.07-0.043-0.126-0.127-0.168-0.248
				l-0.147-0.623c-0.182,0.168-0.362,0.314-0.539,0.443c-0.178,0.129-0.363,0.237-0.557,0.329c-0.194,0.093-0.4,0.159-0.62,0.206
				c-0.22,0.047-0.462,0.07-0.728,0.07c-0.28,0-0.542-0.039-0.788-0.116c-0.245-0.076-0.458-0.192-0.64-0.354
				c-0.182-0.158-0.326-0.355-0.431-0.596c-0.105-0.238-0.158-0.516-0.158-0.833c0-0.28,0.076-0.55,0.228-0.809
				s0.399-0.491,0.742-0.696c0.343-0.205,0.791-0.373,1.344-0.504c0.553-0.131,1.233-0.205,2.04-0.225v-0.52
				c0-0.535-0.114-0.938-0.343-1.204c-0.229-0.266-0.564-0.396-1.008-0.396c-0.299,0-0.55,0.036-0.752,0.11
				c-0.203,0.074-0.378,0.157-0.525,0.25c-0.147,0.09-0.275,0.174-0.385,0.248c-0.11,0.073-0.223,0.11-0.339,0.11
				c-0.094,0-0.174-0.024-0.242-0.077c-0.068-0.051-0.123-0.111-0.165-0.182L110.247,55.761z M114.25,58.723
				c-0.555,0.02-1.026,0.062-1.414,0.129c-0.388,0.067-0.703,0.157-0.945,0.271c-0.243,0.109-0.417,0.244-0.525,0.396
				c-0.108,0.151-0.161,0.319-0.161,0.508c0,0.178,0.029,0.33,0.088,0.459c0.058,0.127,0.137,0.231,0.238,0.313
				c0.1,0.081,0.218,0.142,0.354,0.179c0.135,0.039,0.282,0.058,0.441,0.058c0.21,0,0.402-0.021,0.578-0.063
				c0.175-0.041,0.339-0.102,0.493-0.179c0.154-0.076,0.301-0.171,0.441-0.283c0.14-0.112,0.277-0.239,0.413-0.385L114.25,58.723
				L114.25,58.723z"/>
			<path fill="#FFFFFF" d="M118.71,56.132c0.229-0.467,0.504-0.833,0.826-1.099c0.322-0.268,0.709-0.399,1.162-0.399
				c0.154,0,0.3,0.019,0.438,0.054c0.138,0.035,0.258,0.086,0.361,0.156l-0.091,1.029c-0.033,0.126-0.109,0.188-0.231,0.188
				c-0.065,0-0.164-0.013-0.294-0.037c-0.131-0.024-0.271-0.039-0.42-0.039c-0.219,0-0.413,0.031-0.581,0.096
				s-0.318,0.154-0.452,0.279c-0.133,0.123-0.251,0.274-0.354,0.455c-0.103,0.181-0.198,0.385-0.287,0.611v4.452h-1.365v-7.112
				h0.784c0.149,0,0.25,0.027,0.304,0.082c0.054,0.053,0.092,0.147,0.116,0.282L118.71,56.132z"/>
			<path fill="#FFFFFF" d="M127.537,56.098c-0.042,0.051-0.083,0.092-0.123,0.123c-0.04,0.029-0.097,0.045-0.171,0.045
				c-0.074,0-0.153-0.029-0.234-0.088c-0.082-0.059-0.185-0.121-0.308-0.188c-0.123-0.067-0.273-0.133-0.448-0.188
				c-0.175-0.059-0.391-0.088-0.647-0.088c-0.336,0-0.633,0.062-0.889,0.183c-0.257,0.123-0.47,0.295-0.641,0.52
				c-0.17,0.225-0.3,0.497-0.389,0.818c-0.088,0.322-0.133,0.685-0.133,1.084c0,0.416,0.047,0.787,0.14,1.109
				c0.093,0.324,0.226,0.598,0.399,0.818c0.172,0.222,0.383,0.39,0.63,0.504c0.248,0.115,0.522,0.172,0.826,0.172
				c0.294,0,0.537-0.036,0.728-0.107s0.35-0.149,0.476-0.233s0.231-0.162,0.315-0.233c0.084-0.072,0.17-0.109,0.259-0.109
				c0.112,0,0.198,0.044,0.259,0.128l0.392,0.504c-0.163,0.198-0.346,0.371-0.549,0.511c-0.203,0.141-0.419,0.254-0.647,0.344
				c-0.228,0.09-0.468,0.153-0.717,0.195c-0.25,0.042-0.503,0.062-0.76,0.062c-0.443,0-0.857-0.08-1.243-0.244
				c-0.385-0.164-0.718-0.4-1.001-0.715c-0.282-0.312-0.505-0.695-0.668-1.15s-0.245-0.973-0.245-1.551
				c0-0.526,0.073-1.016,0.22-1.463s0.364-0.834,0.651-1.158s0.641-0.578,1.061-0.764s0.901-0.275,1.442-0.275
				c0.509,0,0.957,0.08,1.344,0.244c0.387,0.164,0.732,0.395,1.036,0.693L127.537,56.098z"/>
			<path fill="#FFFFFF" d="M135.089,60.864c-0.168,0.194-0.361,0.364-0.581,0.507c-0.219,0.143-0.452,0.258-0.7,0.347
				c-0.247,0.089-0.503,0.154-0.767,0.196s-0.523,0.062-0.78,0.062c-0.49,0-0.943-0.084-1.361-0.248
				c-0.418-0.166-0.779-0.408-1.085-0.729c-0.306-0.319-0.544-0.716-0.714-1.188c-0.17-0.475-0.255-1.02-0.255-1.636
				c0-0.493,0.077-0.954,0.231-1.383c0.153-0.427,0.374-0.799,0.661-1.116c0.287-0.316,0.639-0.566,1.054-0.749
				c0.415-0.182,0.882-0.272,1.4-0.272c0.434,0,0.834,0.072,1.2,0.215c0.366,0.143,0.683,0.35,0.948,0.619
				c0.267,0.271,0.475,0.604,0.627,1.002c0.151,0.396,0.228,0.849,0.228,1.355c0,0.211-0.023,0.354-0.07,0.424
				c-0.047,0.072-0.133,0.108-0.259,0.108h-4.662c0.014,0.425,0.074,0.795,0.182,1.108c0.107,0.314,0.256,0.578,0.444,0.789
				c0.189,0.209,0.414,0.365,0.676,0.469c0.262,0.104,0.553,0.152,0.875,0.152c0.304,0,0.565-0.033,0.788-0.104
				c0.221-0.069,0.412-0.146,0.573-0.229c0.161-0.082,0.297-0.155,0.406-0.228c0.109-0.071,0.206-0.104,0.291-0.104
				c0.111,0,0.198,0.043,0.259,0.127L135.089,60.864z M133.962,57.532c0-0.271-0.038-0.521-0.115-0.749
				c-0.077-0.229-0.19-0.428-0.34-0.596c-0.15-0.168-0.331-0.299-0.546-0.394c-0.215-0.094-0.462-0.142-0.742-0.142
				c-0.574,0-1.025,0.166-1.354,0.498c-0.329,0.33-0.538,0.791-0.626,1.379L133.962,57.532L133.962,57.532z"/>
			<path fill="#FFFFFF" d="M138.065,51.547v10.332h-1.372V51.547H138.065z"/>
			<path fill="#FFFFFF" d="M145.848,60.864c-0.168,0.194-0.361,0.364-0.58,0.507s-0.453,0.258-0.701,0.347
				c-0.246,0.089-0.502,0.154-0.766,0.196s-0.523,0.062-0.781,0.062c-0.49,0-0.941-0.084-1.359-0.248
				c-0.418-0.166-0.779-0.408-1.085-0.729c-0.306-0.319-0.544-0.716-0.714-1.188c-0.171-0.475-0.256-1.02-0.256-1.636
				c0-0.493,0.077-0.954,0.231-1.383c0.154-0.427,0.374-0.799,0.661-1.116c0.287-0.316,0.639-0.566,1.054-0.749
				c0.415-0.182,0.882-0.272,1.4-0.272c0.434,0,0.834,0.072,1.199,0.215c0.367,0.143,0.685,0.35,0.949,0.619
				c0.264,0.271,0.476,0.604,0.627,1.002c0.149,0.396,0.228,0.849,0.228,1.355c0,0.211-0.022,0.354-0.07,0.424
				c-0.047,0.072-0.133,0.108-0.258,0.108h-4.663c0.014,0.425,0.074,0.795,0.182,1.108c0.107,0.314,0.256,0.578,0.444,0.789
				c0.189,0.209,0.414,0.365,0.676,0.469c0.262,0.104,0.553,0.152,0.875,0.152c0.305,0,0.565-0.033,0.789-0.104
				c0.221-0.069,0.411-0.146,0.571-0.229c0.162-0.082,0.297-0.155,0.406-0.228c0.108-0.071,0.206-0.104,0.291-0.104
				c0.11,0,0.198,0.043,0.26,0.127L145.848,60.864z M144.721,57.532c0-0.271-0.037-0.521-0.115-0.749
				c-0.076-0.229-0.188-0.428-0.34-0.596c-0.146-0.168-0.33-0.299-0.545-0.394c-0.215-0.094-0.463-0.142-0.743-0.142
				c-0.574,0-1.025,0.166-1.354,0.498c-0.329,0.33-0.538,0.791-0.626,1.379L144.721,57.532L144.721,57.532z"/>
			<path fill="#FFFFFF" d="M152.24,55.754c0.152-0.163,0.314-0.312,0.482-0.447c0.168-0.136,0.346-0.252,0.533-0.348
				c0.188-0.095,0.395-0.17,0.609-0.225c0.216-0.053,0.447-0.08,0.695-0.08c0.393,0,0.734,0.066,1.031,0.195
				c0.297,0.131,0.545,0.313,0.746,0.551c0.201,0.234,0.352,0.52,0.455,0.851c0.102,0.331,0.154,0.697,0.154,1.099v4.529h-1.373
				V57.35c0-0.508-0.117-0.901-0.35-1.187c-0.234-0.282-0.591-0.423-1.07-0.423c-0.353,0-0.678,0.083-0.984,0.248
				c-0.305,0.166-0.59,0.391-0.85,0.676v5.215h-1.365v-7.111h0.818c0.189,0,0.311,0.09,0.355,0.272L152.24,55.754z"/>
			<path fill="#FFFFFF" d="M161.822,54.654c0.523,0,0.996,0.086,1.418,0.256c0.422,0.171,0.781,0.416,1.078,0.734
				s0.521,0.705,0.682,1.154c0.16,0.45,0.238,0.955,0.238,1.516c0,0.562-0.08,1.065-0.238,1.521s-0.385,0.838-0.682,1.155
				c-0.297,0.316-0.656,0.561-1.078,0.73c-0.422,0.168-0.895,0.256-1.418,0.256c-0.527,0-1.002-0.086-1.424-0.256
				c-0.422-0.172-0.783-0.414-1.082-0.73c-0.299-0.317-0.529-0.702-0.689-1.155s-0.242-0.959-0.242-1.521
				c0-0.561,0.082-1.063,0.242-1.516c0.16-0.449,0.391-0.836,0.689-1.154c0.297-0.318,0.66-0.563,1.082-0.734
				C160.82,54.74,161.295,54.654,161.822,54.654z M161.822,60.913c0.672,0,1.174-0.228,1.506-0.679
				c0.33-0.453,0.496-1.09,0.496-1.911s-0.166-1.46-0.496-1.915c-0.332-0.455-0.834-0.684-1.506-0.684
				c-0.682,0-1.189,0.229-1.521,0.684c-0.334,0.455-0.502,1.094-0.502,1.915s0.168,1.458,0.502,1.911
				C160.633,60.688,161.141,60.913,161.822,60.913z"/>
			<path fill="#FFFFFF" d="M175.275,56.098c-0.041,0.051-0.082,0.092-0.123,0.123c-0.039,0.029-0.096,0.045-0.17,0.045
				c-0.076,0-0.154-0.029-0.236-0.088c-0.08-0.059-0.184-0.121-0.307-0.188c-0.125-0.067-0.273-0.133-0.449-0.188
				c-0.174-0.059-0.391-0.088-0.646-0.088c-0.336,0-0.633,0.062-0.889,0.183c-0.258,0.123-0.471,0.295-0.641,0.52
				s-0.301,0.497-0.391,0.818c-0.09,0.322-0.133,0.685-0.133,1.084c0,0.416,0.047,0.787,0.141,1.109
				c0.094,0.324,0.227,0.598,0.398,0.818c0.172,0.222,0.383,0.39,0.629,0.504c0.248,0.115,0.521,0.172,0.826,0.172
				c0.295,0,0.535-0.036,0.729-0.107c0.191-0.071,0.35-0.149,0.478-0.233c0.125-0.084,0.229-0.162,0.313-0.233
				c0.084-0.072,0.17-0.109,0.26-0.109c0.11,0,0.197,0.044,0.258,0.128l0.394,0.504c-0.164,0.198-0.348,0.371-0.549,0.511
				c-0.203,0.141-0.42,0.254-0.647,0.344c-0.229,0.09-0.47,0.153-0.718,0.195c-0.25,0.042-0.504,0.062-0.76,0.062
				c-0.442,0-0.856-0.08-1.242-0.244c-0.387-0.164-0.719-0.4-1.002-0.715c-0.28-0.312-0.506-0.695-0.668-1.15
				c-0.164-0.455-0.246-0.973-0.246-1.551c0-0.526,0.074-1.016,0.222-1.463s0.365-0.834,0.651-1.158
				c0.287-0.324,0.642-0.578,1.062-0.764s0.899-0.275,1.44-0.275c0.509,0,0.957,0.08,1.345,0.244s0.731,0.395,1.035,0.693
				L175.275,56.098z"/>
			<path fill="#FFFFFF" d="M176.809,55.761c0.396-0.378,0.828-0.659,1.291-0.847c0.465-0.188,0.977-0.28,1.529-0.28
				c0.406,0,0.766,0.066,1.078,0.199c0.312,0.134,0.576,0.319,0.791,0.558c0.215,0.237,0.377,0.522,0.486,0.854
				c0.111,0.331,0.166,0.696,0.166,1.099v4.536h-0.609c-0.135,0-0.238-0.021-0.309-0.065c-0.071-0.043-0.125-0.127-0.168-0.248
				l-0.146-0.623c-0.182,0.168-0.361,0.314-0.539,0.443s-0.363,0.237-0.557,0.329c-0.194,0.093-0.4,0.159-0.619,0.206
				c-0.221,0.047-0.463,0.07-0.729,0.07c-0.279,0-0.543-0.039-0.787-0.116c-0.246-0.076-0.459-0.192-0.643-0.354
				c-0.184-0.158-0.324-0.355-0.43-0.596c-0.104-0.238-0.158-0.516-0.158-0.833c0-0.28,0.076-0.55,0.229-0.809
				c0.151-0.259,0.398-0.491,0.74-0.696c0.346-0.205,0.791-0.373,1.346-0.504s1.232-0.205,2.041-0.225v-0.52
				c0-0.535-0.113-0.938-0.342-1.204c-0.23-0.266-0.566-0.396-1.012-0.396c-0.299,0-0.549,0.036-0.752,0.11s-0.377,0.157-0.523,0.25
				c-0.146,0.09-0.275,0.174-0.387,0.248c-0.107,0.073-0.223,0.11-0.34,0.11c-0.092,0-0.174-0.024-0.24-0.077
				c-0.066-0.051-0.121-0.111-0.162-0.182L176.809,55.761z M180.812,58.723c-0.557,0.02-1.027,0.062-1.414,0.129
				c-0.389,0.068-0.701,0.157-0.945,0.271c-0.242,0.109-0.418,0.244-0.523,0.396c-0.105,0.15-0.162,0.319-0.162,0.508
				c0,0.178,0.029,0.33,0.088,0.459c0.061,0.127,0.139,0.231,0.238,0.313c0.1,0.081,0.217,0.142,0.354,0.179
				c0.135,0.039,0.28,0.058,0.44,0.058c0.209,0,0.401-0.021,0.575-0.063c0.177-0.041,0.341-0.102,0.494-0.179
				c0.153-0.076,0.301-0.171,0.44-0.283s0.276-0.239,0.412-0.385v-1.403H180.812z"/>
			<path fill="#FFFFFF" d="M185.271,56.132c0.229-0.467,0.504-0.833,0.826-1.099c0.32-0.268,0.709-0.399,1.16-0.399
				c0.154,0,0.303,0.019,0.438,0.054c0.14,0.035,0.259,0.086,0.361,0.156l-0.093,1.029c-0.032,0.126-0.108,0.188-0.229,0.188
				c-0.065,0-0.164-0.013-0.295-0.037s-0.271-0.039-0.42-0.039c-0.219,0-0.412,0.031-0.58,0.096s-0.317,0.154-0.451,0.279
				c-0.135,0.123-0.252,0.274-0.354,0.455c-0.104,0.181-0.199,0.385-0.287,0.611v4.452h-1.365v-7.112h0.783
				c0.149,0,0.252,0.027,0.305,0.082c0.056,0.053,0.093,0.147,0.115,0.282L185.271,56.132z"/>
			<path fill="#FFFFFF" d="M191.34,61.991c-0.574,0-1.016-0.161-1.326-0.483c-0.31-0.322-0.467-0.781-0.467-1.379v-4.256h-0.824
				c-0.08,0-0.146-0.023-0.201-0.073c-0.053-0.05-0.08-0.123-0.08-0.221v-0.554l1.156-0.16l0.307-2.121
				c0.021-0.079,0.057-0.143,0.109-0.186c0.053-0.045,0.123-0.066,0.207-0.066h0.691v2.387h2.018v0.994h-2.018v4.165
				c0,0.28,0.07,0.487,0.207,0.626c0.139,0.138,0.314,0.207,0.529,0.207c0.125,0,0.232-0.018,0.324-0.049
				c0.092-0.033,0.17-0.069,0.232-0.108c0.064-0.04,0.121-0.075,0.168-0.108c0.047-0.031,0.09-0.049,0.127-0.049
				c0.047,0,0.082,0.01,0.105,0.031c0.027,0.021,0.055,0.055,0.082,0.102l0.406,0.658c-0.225,0.205-0.49,0.363-0.799,0.478
				C191.99,61.936,191.672,61.991,191.34,61.991z"/>
			<path fill="#FFFFFF" d="M194,55.761c0.396-0.378,0.828-0.659,1.291-0.847c0.465-0.188,0.975-0.28,1.529-0.28
				c0.406,0,0.766,0.066,1.078,0.199c0.312,0.134,0.576,0.319,0.791,0.558c0.215,0.237,0.377,0.522,0.484,0.854
				c0.111,0.331,0.166,0.696,0.166,1.099v4.536h-0.607c-0.135,0-0.238-0.021-0.311-0.065c-0.07-0.043-0.125-0.127-0.168-0.248
				l-0.146-0.623c-0.183,0.168-0.36,0.314-0.539,0.443c-0.178,0.129-0.362,0.237-0.557,0.329c-0.193,0.093-0.4,0.159-0.619,0.206
				c-0.222,0.047-0.463,0.07-0.729,0.07c-0.279,0-0.543-0.039-0.787-0.116c-0.246-0.076-0.459-0.192-0.643-0.354
				c-0.182-0.158-0.324-0.355-0.43-0.596c-0.104-0.238-0.158-0.516-0.158-0.833c0-0.28,0.076-0.55,0.229-0.809
				s0.398-0.491,0.742-0.696s0.791-0.373,1.344-0.504c0.557-0.131,1.232-0.205,2.041-0.225v-0.52c0-0.535-0.111-0.938-0.342-1.204
				c-0.23-0.266-0.564-0.396-1.012-0.396c-0.299,0-0.549,0.036-0.752,0.11s-0.377,0.157-0.523,0.25
				c-0.146,0.09-0.273,0.174-0.385,0.248c-0.109,0.073-0.225,0.11-0.342,0.11c-0.092,0-0.174-0.024-0.238-0.077
				c-0.068-0.051-0.123-0.111-0.164-0.182L194,55.761z M197.438,52.541c0.158,0,0.281-0.047,0.367-0.141s0.131-0.242,0.137-0.447
				h0.832c0,0.232-0.029,0.445-0.094,0.637c-0.062,0.192-0.15,0.355-0.262,0.493c-0.113,0.138-0.248,0.244-0.406,0.319
				c-0.16,0.074-0.334,0.111-0.525,0.111c-0.162,0-0.314-0.033-0.459-0.1c-0.143-0.064-0.273-0.139-0.4-0.217
				c-0.125-0.08-0.246-0.152-0.359-0.219c-0.113-0.063-0.225-0.099-0.324-0.099c-0.154,0-0.275,0.05-0.361,0.147
				c-0.086,0.097-0.131,0.246-0.137,0.447H194.6c0-0.229,0.029-0.439,0.094-0.635c0.062-0.193,0.152-0.357,0.27-0.492
				c0.117-0.137,0.254-0.242,0.41-0.318c0.156-0.077,0.33-0.115,0.521-0.115c0.168,0,0.32,0.031,0.465,0.098
				c0.143,0.066,0.275,0.137,0.4,0.215c0.129,0.076,0.246,0.147,0.357,0.213C197.227,52.508,197.334,52.541,197.438,52.541z
				 M198.004,58.723c-0.555,0.02-1.027,0.062-1.414,0.129c-0.387,0.068-0.701,0.157-0.945,0.271
				c-0.242,0.109-0.418,0.244-0.521,0.396c-0.105,0.15-0.162,0.319-0.162,0.508c0,0.178,0.027,0.33,0.088,0.459
				c0.061,0.127,0.139,0.231,0.238,0.313c0.102,0.081,0.217,0.142,0.354,0.179c0.135,0.039,0.28,0.058,0.44,0.058
				c0.209,0,0.401-0.021,0.576-0.063c0.176-0.041,0.34-0.102,0.493-0.179c0.154-0.076,0.302-0.171,0.44-0.283
				c0.14-0.112,0.277-0.239,0.412-0.385L198.004,58.723L198.004,58.723z"/>
			<path fill="#FFFFFF" d="M204.207,54.654c0.521,0,0.994,0.086,1.416,0.256c0.424,0.171,0.783,0.416,1.078,0.734
				c0.297,0.318,0.525,0.705,0.684,1.154c0.159,0.45,0.238,0.955,0.238,1.516c0,0.562-0.08,1.065-0.238,1.521
				s-0.387,0.838-0.684,1.155c-0.295,0.316-0.654,0.561-1.078,0.73c-0.422,0.17-0.895,0.256-1.416,0.256
				c-0.527,0-1.002-0.086-1.426-0.256c-0.422-0.172-0.783-0.414-1.08-0.73c-0.299-0.317-0.529-0.702-0.689-1.155
				c-0.162-0.453-0.242-0.959-0.242-1.521c0-0.561,0.08-1.063,0.242-1.516c0.16-0.449,0.391-0.836,0.689-1.154
				c0.297-0.318,0.658-0.563,1.08-0.734C203.205,54.74,203.68,54.654,204.207,54.654z M204.207,60.913
				c0.672,0,1.174-0.228,1.504-0.679c0.332-0.453,0.498-1.09,0.498-1.911s-0.166-1.46-0.498-1.915
				c-0.33-0.455-0.832-0.684-1.504-0.684c-0.682,0-1.189,0.229-1.523,0.684s-0.5,1.094-0.5,1.915s0.166,1.458,0.5,1.911
				S203.525,60.913,204.207,60.913z"/>
			<path fill="#FFFFFF" d="M218.514,60.864c-0.168,0.194-0.361,0.364-0.582,0.507c-0.219,0.143-0.451,0.258-0.699,0.347
				s-0.504,0.154-0.768,0.196s-0.523,0.062-0.779,0.062c-0.49,0-0.941-0.084-1.359-0.248c-0.418-0.166-0.779-0.408-1.088-0.729
				c-0.305-0.319-0.543-0.716-0.713-1.188c-0.172-0.475-0.256-1.02-0.256-1.636c0-0.493,0.076-0.954,0.23-1.383
				c0.154-0.427,0.375-0.799,0.662-1.116c0.287-0.316,0.639-0.566,1.053-0.749c0.416-0.182,0.883-0.272,1.4-0.272
				c0.434,0,0.834,0.072,1.201,0.215c0.365,0.143,0.682,0.35,0.947,0.619c0.268,0.271,0.475,0.604,0.627,1.002
				c0.15,0.396,0.229,0.849,0.229,1.355c0,0.211-0.023,0.354-0.07,0.424c-0.047,0.072-0.133,0.108-0.26,0.108h-4.662
				c0.014,0.425,0.074,0.795,0.182,1.108c0.107,0.314,0.256,0.578,0.445,0.789c0.189,0.209,0.414,0.365,0.676,0.469
				s0.553,0.152,0.875,0.152c0.303,0,0.564-0.033,0.787-0.104c0.221-0.069,0.412-0.146,0.574-0.229
				c0.16-0.082,0.297-0.155,0.406-0.228c0.109-0.071,0.205-0.104,0.291-0.104c0.111,0,0.197,0.043,0.258,0.127L218.514,60.864z
				 M217.387,57.532c0-0.271-0.039-0.521-0.115-0.749c-0.078-0.229-0.189-0.428-0.34-0.596c-0.149-0.168-0.332-0.299-0.547-0.394
				c-0.215-0.094-0.461-0.142-0.742-0.142c-0.574,0-1.023,0.166-1.354,0.498c-0.33,0.33-0.539,0.791-0.627,1.379L217.387,57.532
				L217.387,57.532z"/>
			<path fill="#FFFFFF" d="M220.088,61.879v-7.111h0.82c0.191,0,0.309,0.09,0.355,0.272l0.1,0.679
				c0.26-0.312,0.551-0.568,0.871-0.767c0.316-0.198,0.691-0.298,1.123-0.298c0.471,0,0.854,0.13,1.146,0.389
				c0.293,0.26,0.51,0.609,0.645,1.055c0.104-0.252,0.234-0.47,0.398-0.649c0.162-0.185,0.348-0.332,0.545-0.448
				c0.201-0.117,0.414-0.203,0.643-0.259c0.227-0.058,0.457-0.084,0.688-0.084c0.379,0,0.717,0.06,1.014,0.178
				c0.297,0.119,0.547,0.293,0.752,0.521c0.207,0.229,0.361,0.513,0.471,0.849c0.107,0.336,0.16,0.719,0.16,1.146v4.529h-1.371
				V57.35c0-0.531-0.117-0.933-0.348-1.203s-0.568-0.404-1.014-0.404c-0.193,0-0.383,0.031-0.561,0.102
				c-0.178,0.067-0.334,0.17-0.467,0.305c-0.133,0.137-0.238,0.305-0.312,0.506c-0.078,0.199-0.115,0.434-0.115,0.699v4.527h-1.373
				v-4.529c0-0.552-0.107-0.955-0.326-1.219c-0.221-0.261-0.541-0.392-0.969-0.392c-0.293,0-0.564,0.075-0.816,0.229
				c-0.252,0.153-0.482,0.363-0.693,0.629v5.278L220.088,61.879L220.088,61.879z"/>
			<path fill="#FFFFFF" d="M235.014,55.761c0.396-0.378,0.826-0.659,1.291-0.847s0.975-0.28,1.529-0.28
				c0.406,0,0.766,0.066,1.078,0.199c0.312,0.134,0.576,0.319,0.791,0.558c0.215,0.237,0.377,0.522,0.486,0.854
				c0.107,0.331,0.164,0.696,0.164,1.099v4.536h-0.609c-0.135,0-0.236-0.021-0.307-0.065c-0.071-0.043-0.127-0.127-0.168-0.248
				l-0.148-0.623c-0.182,0.168-0.361,0.314-0.539,0.443c-0.176,0.129-0.361,0.237-0.557,0.329c-0.193,0.093-0.398,0.159-0.619,0.206
				c-0.219,0.047-0.461,0.07-0.727,0.07c-0.281,0-0.543-0.039-0.789-0.116c-0.244-0.076-0.457-0.192-0.643-0.354
				c-0.184-0.158-0.324-0.355-0.432-0.596c-0.104-0.238-0.156-0.516-0.156-0.833c0-0.28,0.074-0.55,0.229-0.809
				c0.149-0.259,0.397-0.491,0.741-0.696c0.343-0.205,0.791-0.373,1.345-0.504c0.553-0.131,1.231-0.205,2.041-0.225v-0.52
				c0-0.535-0.115-0.938-0.345-1.204c-0.229-0.266-0.563-0.396-1.008-0.396c-0.299,0-0.549,0.036-0.752,0.11
				s-0.379,0.157-0.524,0.25c-0.146,0.09-0.275,0.174-0.386,0.248c-0.108,0.073-0.224,0.11-0.34,0.11
				c-0.095,0-0.175-0.024-0.242-0.077c-0.065-0.051-0.121-0.111-0.164-0.182L235.014,55.761z M239.018,58.723
				c-0.557,0.02-1.025,0.062-1.414,0.129c-0.389,0.067-0.703,0.157-0.943,0.271c-0.242,0.109-0.418,0.244-0.525,0.396
				c-0.105,0.151-0.158,0.319-0.158,0.508c0,0.178,0.025,0.33,0.086,0.459c0.059,0.127,0.139,0.231,0.236,0.313
				c0.104,0.081,0.221,0.142,0.354,0.179c0.138,0.039,0.283,0.058,0.44,0.058c0.212,0,0.402-0.021,0.578-0.063
				c0.175-0.041,0.341-0.102,0.492-0.179c0.153-0.076,0.301-0.171,0.44-0.283c0.141-0.112,0.276-0.239,0.414-0.385V58.723
				L239.018,58.723z"/>
			<path fill="#FFFFFF" d="M244.412,61.991c-0.572,0-1.016-0.161-1.326-0.483s-0.465-0.781-0.465-1.379v-4.256h-0.826
				c-0.08,0-0.146-0.023-0.199-0.073c-0.055-0.05-0.08-0.123-0.08-0.221v-0.554l1.154-0.16l0.309-2.121
				c0.02-0.079,0.057-0.143,0.107-0.186c0.055-0.045,0.123-0.066,0.207-0.066h0.693v2.387h2.016v0.994h-2.016v4.165
				c0,0.28,0.068,0.487,0.207,0.626c0.137,0.138,0.312,0.207,0.527,0.207c0.127,0,0.232-0.018,0.324-0.049
				c0.09-0.033,0.168-0.069,0.232-0.108c0.064-0.04,0.121-0.075,0.168-0.108c0.049-0.031,0.09-0.049,0.125-0.049
				c0.049,0,0.086,0.01,0.109,0.031c0.025,0.021,0.053,0.055,0.08,0.102l0.406,0.658c-0.225,0.205-0.49,0.363-0.799,0.478
				C245.064,61.936,244.744,61.991,244.412,61.991z"/>
			<path fill="#FFFFFF" d="M253.094,60.864c-0.168,0.194-0.361,0.364-0.582,0.507c-0.219,0.143-0.451,0.258-0.699,0.347
				s-0.504,0.154-0.768,0.196s-0.523,0.062-0.779,0.062c-0.49,0-0.943-0.084-1.361-0.248c-0.418-0.166-0.777-0.408-1.086-0.729
				c-0.305-0.319-0.543-0.716-0.713-1.188c-0.172-0.475-0.256-1.02-0.256-1.636c0-0.493,0.076-0.954,0.23-1.383
				c0.154-0.427,0.375-0.799,0.662-1.116c0.287-0.316,0.639-0.566,1.053-0.749c0.416-0.182,0.883-0.272,1.4-0.272
				c0.434,0,0.834,0.072,1.201,0.215c0.363,0.143,0.682,0.35,0.945,0.619c0.27,0.271,0.477,0.604,0.629,1.002
				c0.15,0.396,0.229,0.849,0.229,1.355c0,0.211-0.023,0.354-0.07,0.424c-0.047,0.072-0.133,0.108-0.26,0.108h-4.662
				c0.014,0.425,0.074,0.795,0.182,1.108c0.107,0.314,0.256,0.578,0.445,0.789c0.189,0.209,0.414,0.365,0.676,0.469
				s0.553,0.152,0.875,0.152c0.303,0,0.564-0.033,0.787-0.104c0.221-0.069,0.412-0.146,0.574-0.229
				c0.16-0.082,0.297-0.155,0.406-0.228c0.109-0.071,0.205-0.104,0.291-0.104c0.111,0,0.197,0.043,0.258,0.127L253.094,60.864z
				 M251.967,57.532c0-0.271-0.039-0.521-0.115-0.749c-0.078-0.229-0.189-0.428-0.34-0.596s-0.332-0.299-0.547-0.394
				c-0.215-0.094-0.461-0.142-0.742-0.142c-0.574,0-1.023,0.166-1.354,0.498c-0.33,0.33-0.539,0.791-0.627,1.379L251.967,57.532
				L251.967,57.532z M252.357,51.715l-1.658,1.807c-0.07,0.08-0.137,0.136-0.203,0.164c-0.064,0.03-0.152,0.045-0.258,0.045h-0.826
				l1.035-1.691c0.062-0.105,0.137-0.188,0.213-0.242c0.078-0.053,0.197-0.08,0.361-0.08L252.357,51.715L252.357,51.715z"/>
			<path fill="#FFFFFF" d="M104.402,69.564c-0.079,0.104-0.157,0.201-0.234,0.297c-0.077,0.097-0.15,0.189-0.221,0.283
				c0.224-0.146,0.473-0.256,0.746-0.336c0.273-0.078,0.568-0.119,0.886-0.119c0.396,0,0.774,0.064,1.134,0.195
				c0.36,0.133,0.676,0.322,0.949,0.574s0.489,0.562,0.647,0.938c0.159,0.373,0.238,0.804,0.238,1.287
				c0,0.463-0.084,0.896-0.252,1.299c-0.168,0.404-0.405,0.756-0.71,1.052c-0.306,0.297-0.671,0.528-1.096,0.698
				c-0.424,0.17-0.896,0.258-1.414,0.258c-0.514,0-0.977-0.082-1.39-0.245s-0.766-0.396-1.057-0.696
				c-0.292-0.302-0.517-0.665-0.675-1.093c-0.159-0.429-0.238-0.899-0.238-1.424c0-0.448,0.097-0.923,0.291-1.418
				c0.194-0.497,0.5-1.027,0.92-1.595l2.513-3.365c0.07-0.094,0.168-0.172,0.294-0.233s0.271-0.095,0.434-0.095h1.218
				L104.402,69.564z M105.046,74.85c0.322,0,0.614-0.052,0.875-0.156c0.261-0.104,0.485-0.248,0.672-0.432
				c0.187-0.182,0.332-0.396,0.434-0.65c0.102-0.252,0.154-0.523,0.154-0.817c0-0.321-0.05-0.608-0.151-0.862
				c-0.1-0.257-0.24-0.473-0.42-0.647c-0.18-0.179-0.396-0.312-0.647-0.406c-0.251-0.094-0.532-0.14-0.84-0.14
				c-0.322,0-0.611,0.055-0.868,0.164c-0.256,0.107-0.476,0.257-0.658,0.439c-0.182,0.186-0.322,0.399-0.42,0.647
				c-0.098,0.245-0.147,0.506-0.147,0.774c0,0.311,0.044,0.592,0.133,0.848c0.088,0.258,0.219,0.478,0.392,0.658
				c0.172,0.184,0.384,0.324,0.633,0.429C104.437,74.8,104.724,74.85,105.046,74.85z"/>
			<path fill="#FFFFFF" d="M118.157,75.879h-1.477c-0.107,0-0.194-0.029-0.259-0.088s-0.117-0.12-0.154-0.186l-2.597-4.139
				c-0.037,0.117-0.082,0.219-0.133,0.303l-2.527,3.836c-0.047,0.063-0.101,0.127-0.161,0.186c-0.061,0.059-0.138,0.088-0.231,0.088
				h-1.393l3.437-5.173l-3.29-4.879h1.477c0.107,0,0.187,0.017,0.238,0.049c0.051,0.032,0.096,0.082,0.133,0.146l2.541,3.941
				c0.037-0.121,0.088-0.232,0.154-0.336l2.38-3.577c0.042-0.073,0.089-0.131,0.14-0.168c0.051-0.036,0.117-0.056,0.196-0.056h1.421
				l-3.311,4.814L118.157,75.879z"/>
			<path fill="#FFFFFF" d="M126.962,69.992c-0.037,0.061-0.077,0.104-0.119,0.129s-0.096,0.039-0.161,0.039
				c-0.075,0-0.158-0.025-0.249-0.077c-0.091-0.052-0.201-0.106-0.329-0.168s-0.279-0.117-0.452-0.168
				c-0.172-0.052-0.378-0.077-0.616-0.077c-0.196,0-0.375,0.023-0.536,0.073c-0.161,0.049-0.297,0.116-0.409,0.202
				c-0.112,0.088-0.199,0.188-0.259,0.31c-0.061,0.118-0.091,0.246-0.091,0.381c0,0.179,0.052,0.324,0.157,0.441
				c0.105,0.116,0.243,0.217,0.413,0.301s0.364,0.16,0.581,0.228c0.217,0.068,0.438,0.141,0.665,0.215
				c0.226,0.074,0.448,0.158,0.665,0.256c0.217,0.096,0.411,0.215,0.581,0.355c0.17,0.144,0.308,0.313,0.413,0.517
				c0.105,0.198,0.157,0.444,0.157,0.733c0,0.332-0.06,0.639-0.178,0.92c-0.119,0.282-0.294,0.526-0.525,0.731
				s-0.517,0.366-0.857,0.481c-0.341,0.117-0.73,0.177-1.169,0.177c-0.49,0-0.943-0.082-1.358-0.245
				c-0.416-0.163-0.763-0.371-1.043-0.623l0.322-0.525c0.038-0.063,0.084-0.115,0.14-0.148c0.056-0.035,0.13-0.055,0.224-0.055
				c0.088,0,0.18,0.033,0.273,0.101c0.093,0.065,0.205,0.137,0.336,0.213c0.13,0.077,0.289,0.146,0.476,0.21s0.42,0.096,0.7,0.096
				c0.233,0,0.437-0.029,0.609-0.088c0.172-0.059,0.316-0.138,0.43-0.236c0.114-0.102,0.2-0.217,0.256-0.349
				c0.056-0.131,0.084-0.271,0.084-0.413c0-0.187-0.053-0.342-0.158-0.466c-0.105-0.123-0.243-0.229-0.413-0.317
				s-0.365-0.164-0.584-0.229s-0.443-0.136-0.672-0.21c-0.229-0.075-0.453-0.161-0.672-0.26c-0.22-0.1-0.415-0.221-0.584-0.371
				c-0.17-0.148-0.308-0.331-0.413-0.545c-0.105-0.215-0.158-0.479-0.158-0.784c0-0.275,0.057-0.539,0.171-0.791
				c0.115-0.252,0.28-0.474,0.497-0.665c0.217-0.191,0.485-0.346,0.805-0.459c0.319-0.114,0.685-0.171,1.096-0.171
				c0.471,0,0.897,0.073,1.277,0.224c0.38,0.15,0.706,0.354,0.977,0.616L126.962,69.992z"/>
			<path fill="#FFFFFF" d="M134.691,74.864c-0.168,0.194-0.361,0.364-0.582,0.507c-0.219,0.143-0.451,0.258-0.699,0.347
				s-0.504,0.154-0.768,0.196c-0.264,0.042-0.523,0.062-0.779,0.062c-0.49,0-0.943-0.084-1.361-0.248
				c-0.418-0.166-0.779-0.408-1.086-0.729c-0.305-0.319-0.543-0.716-0.713-1.188c-0.17-0.474-0.255-1.02-0.255-1.636
				c0-0.493,0.077-0.954,0.231-1.383c0.154-0.427,0.375-0.799,0.662-1.116c0.287-0.316,0.639-0.566,1.053-0.749
				c0.416-0.182,0.883-0.272,1.4-0.272c0.434,0,0.834,0.072,1.201,0.215c0.365,0.143,0.682,0.35,0.947,0.619
				c0.268,0.271,0.475,0.604,0.627,1c0.152,0.397,0.229,0.851,0.229,1.357c0,0.211-0.023,0.354-0.07,0.424
				c-0.047,0.072-0.133,0.108-0.26,0.108h-4.662c0.014,0.425,0.074,0.795,0.182,1.108c0.107,0.314,0.256,0.578,0.445,0.789
				c0.189,0.209,0.414,0.365,0.676,0.469c0.262,0.104,0.553,0.152,0.875,0.152c0.303,0,0.564-0.033,0.787-0.104
				c0.221-0.069,0.412-0.146,0.574-0.229c0.16-0.082,0.297-0.155,0.406-0.228c0.109-0.071,0.205-0.104,0.291-0.104
				c0.111,0,0.197,0.043,0.258,0.127L134.691,74.864z M133.564,71.532c0-0.271-0.039-0.521-0.115-0.749
				c-0.078-0.229-0.191-0.428-0.34-0.596c-0.15-0.168-0.332-0.299-0.547-0.394c-0.215-0.094-0.461-0.142-0.742-0.142
				c-0.574,0-1.025,0.166-1.354,0.498c-0.33,0.33-0.539,0.791-0.627,1.379L133.564,71.532L133.564,71.532z"/>
			<path fill="#FFFFFF" d="M136.265,75.879v-7.111h0.819c0.191,0,0.31,0.09,0.356,0.272l0.099,0.679
				c0.261-0.312,0.552-0.568,0.871-0.767c0.319-0.199,0.694-0.298,1.123-0.298c0.472,0,0.854,0.13,1.148,0.389
				c0.294,0.26,0.509,0.609,0.644,1.055c0.104-0.252,0.236-0.47,0.399-0.649c0.163-0.185,0.346-0.332,0.546-0.448
				c0.201-0.117,0.414-0.203,0.641-0.259c0.228-0.058,0.456-0.084,0.69-0.084c0.377,0,0.715,0.06,1.012,0.178
				c0.295,0.119,0.547,0.293,0.752,0.521c0.205,0.229,0.361,0.513,0.469,0.849s0.162,0.719,0.162,1.146v4.529h-1.373V71.35
				c0-0.531-0.115-0.933-0.346-1.203c-0.232-0.271-0.568-0.404-1.012-0.404c-0.197,0-0.385,0.031-0.562,0.102
				c-0.178,0.067-0.333,0.17-0.466,0.305c-0.133,0.137-0.238,0.305-0.315,0.506c-0.077,0.199-0.115,0.434-0.115,0.699v4.527h-1.372
				v-4.529c0-0.552-0.109-0.955-0.329-1.219c-0.219-0.261-0.541-0.392-0.966-0.392c-0.294,0-0.567,0.075-0.819,0.229
				c-0.252,0.153-0.482,0.363-0.692,0.629v5.278L136.265,75.879L136.265,75.879z"/>
			<path fill="#FFFFFF" d="M152.799,68.768v7.562c0,0.294-0.039,0.565-0.115,0.821c-0.078,0.254-0.199,0.477-0.365,0.664
				c-0.164,0.188-0.379,0.338-0.643,0.444c-0.264,0.107-0.582,0.161-0.957,0.161c-0.152,0-0.295-0.012-0.422-0.035
				c-0.129-0.023-0.258-0.056-0.389-0.098l0.055-0.742c0.02-0.089,0.061-0.138,0.123-0.146c0.062-0.01,0.184-0.015,0.361-0.015
				c0.359,0,0.613-0.082,0.762-0.245c0.15-0.162,0.225-0.434,0.225-0.812v-7.562h1.365V68.768L152.799,68.768z M153.059,66.568
				c0,0.127-0.025,0.246-0.078,0.361c-0.051,0.112-0.121,0.215-0.209,0.301c-0.09,0.086-0.189,0.152-0.305,0.203
				c-0.115,0.049-0.238,0.071-0.369,0.071c-0.125,0-0.244-0.022-0.354-0.071c-0.113-0.051-0.211-0.117-0.301-0.203
				c-0.086-0.086-0.15-0.188-0.201-0.301c-0.051-0.115-0.072-0.234-0.072-0.361c0-0.131,0.021-0.254,0.072-0.367
				c0.051-0.114,0.115-0.215,0.201-0.301c0.09-0.086,0.188-0.154,0.301-0.203c0.109-0.049,0.229-0.073,0.354-0.073
				c0.131,0,0.254,0.024,0.369,0.073c0.113,0.049,0.215,0.117,0.305,0.203c0.088,0.086,0.158,0.187,0.209,0.301
				C153.032,66.314,153.059,66.438,153.059,66.568z"/>
			<path fill="#FFFFFF" d="M160.695,68.768v7.111h-0.82c-0.186,0-0.307-0.091-0.363-0.273l-0.098-0.713
				c-0.154,0.164-0.314,0.312-0.482,0.447c-0.168,0.137-0.348,0.251-0.539,0.348c-0.189,0.097-0.395,0.17-0.607,0.225
				c-0.213,0.054-0.445,0.081-0.693,0.081c-0.393,0-0.734-0.065-1.031-0.196c-0.295-0.131-0.545-0.312-0.744-0.55
				c-0.201-0.235-0.354-0.521-0.455-0.853c-0.104-0.33-0.154-0.695-0.154-1.099v-4.528h1.371v4.528c0,0.509,0.117,0.904,0.35,1.187
				c0.234,0.283,0.592,0.426,1.072,0.426c0.35,0,0.676-0.083,0.98-0.249c0.303-0.165,0.588-0.394,0.854-0.685v-5.207H160.695z"/>
			<path fill="#FFFFFF" d="M163.895,70.132c0.229-0.467,0.504-0.833,0.826-1.099c0.32-0.268,0.709-0.399,1.162-0.399
				c0.152,0,0.299,0.019,0.438,0.054s0.26,0.086,0.359,0.156l-0.09,1.029c-0.033,0.126-0.111,0.188-0.232,0.188
				c-0.062,0-0.162-0.013-0.293-0.037s-0.271-0.039-0.42-0.039c-0.221,0-0.414,0.031-0.582,0.096s-0.316,0.154-0.451,0.279
				c-0.133,0.123-0.25,0.274-0.354,0.455s-0.199,0.385-0.287,0.611v4.452h-1.365v-7.112h0.785c0.148,0,0.25,0.027,0.305,0.082
				c0.055,0.053,0.094,0.147,0.115,0.282L163.895,70.132z"/>
			<path fill="#FFFFFF" d="M170.768,68.654c0.523,0,0.996,0.086,1.418,0.256c0.422,0.171,0.781,0.416,1.078,0.734
				s0.523,0.705,0.682,1.154c0.16,0.45,0.238,0.955,0.238,1.516c0,0.562-0.08,1.065-0.238,1.521
				c-0.156,0.454-0.385,0.838-0.682,1.155c-0.297,0.316-0.656,0.561-1.078,0.73c-0.422,0.168-0.895,0.256-1.418,0.256
				c-0.525,0-1.002-0.086-1.424-0.256c-0.422-0.172-0.783-0.414-1.082-0.73c-0.299-0.317-0.529-0.702-0.688-1.155
				c-0.16-0.453-0.242-0.959-0.242-1.521c0-0.561,0.082-1.063,0.242-1.516c0.158-0.449,0.391-0.836,0.688-1.154
				c0.299-0.318,0.66-0.563,1.082-0.734C169.766,68.74,170.24,68.654,170.768,68.654z M170.768,74.913
				c0.672,0,1.174-0.228,1.506-0.679c0.33-0.453,0.496-1.09,0.496-1.911s-0.166-1.46-0.496-1.915
				c-0.332-0.455-0.834-0.684-1.506-0.684c-0.682,0-1.188,0.229-1.521,0.684c-0.334,0.455-0.502,1.094-0.502,1.915
				s0.168,1.458,0.502,1.911C169.578,74.688,170.086,74.913,170.768,74.913z"/>
			<path fill="#FFFFFF" d="M179.896,69.992c-0.039,0.061-0.078,0.104-0.119,0.129c-0.043,0.025-0.096,0.039-0.162,0.039
				c-0.074,0-0.156-0.025-0.248-0.077s-0.201-0.106-0.328-0.168c-0.129-0.062-0.279-0.117-0.453-0.168
				c-0.172-0.052-0.377-0.077-0.615-0.077c-0.195,0-0.375,0.023-0.535,0.073c-0.162,0.049-0.299,0.116-0.41,0.202
				c-0.109,0.088-0.195,0.188-0.258,0.31c-0.062,0.118-0.092,0.246-0.092,0.381c0,0.179,0.053,0.324,0.158,0.441
				c0.104,0.116,0.242,0.217,0.412,0.301s0.363,0.16,0.582,0.228c0.217,0.067,0.438,0.141,0.664,0.215s0.447,0.158,0.664,0.256
				c0.219,0.096,0.412,0.215,0.582,0.355c0.17,0.144,0.309,0.313,0.412,0.517c0.104,0.198,0.158,0.444,0.158,0.733
				c0,0.332-0.061,0.639-0.18,0.92c-0.117,0.282-0.295,0.526-0.523,0.731c-0.23,0.205-0.52,0.366-0.857,0.481
				c-0.342,0.117-0.73,0.177-1.17,0.177c-0.49,0-0.941-0.082-1.357-0.245s-0.764-0.371-1.043-0.623l0.322-0.525
				c0.037-0.063,0.084-0.115,0.141-0.148c0.055-0.035,0.129-0.055,0.225-0.055c0.09,0,0.18,0.033,0.271,0.101
				c0.094,0.065,0.205,0.137,0.336,0.213c0.131,0.077,0.289,0.146,0.479,0.21c0.188,0.062,0.42,0.096,0.697,0.096
				c0.234,0,0.438-0.029,0.609-0.088s0.316-0.138,0.43-0.236c0.115-0.103,0.199-0.217,0.256-0.349
				c0.059-0.131,0.084-0.271,0.084-0.413c0-0.187-0.053-0.342-0.154-0.466c-0.104-0.123-0.244-0.229-0.414-0.317
				s-0.365-0.164-0.584-0.229c-0.223-0.065-0.441-0.136-0.672-0.21c-0.229-0.075-0.453-0.161-0.672-0.26
				c-0.223-0.1-0.414-0.221-0.588-0.371c-0.17-0.148-0.307-0.331-0.41-0.545c-0.104-0.215-0.158-0.479-0.158-0.784
				c0-0.275,0.061-0.539,0.172-0.791c0.115-0.252,0.279-0.474,0.498-0.665s0.482-0.346,0.807-0.459
				c0.316-0.114,0.684-0.171,1.096-0.171c0.471,0,0.896,0.073,1.277,0.224c0.379,0.148,0.703,0.354,0.977,0.616L179.896,69.992z"/>
			<path fill="#FFFFFF" d="M185.896,72.111c0,0.848,0.104,1.674,0.316,2.478s0.521,1.565,0.932,2.286
				c0.066,0.132,0.086,0.234,0.055,0.307c-0.033,0.071-0.082,0.129-0.15,0.174l-0.521,0.317c-0.301-0.46-0.555-0.917-0.766-1.371
				c-0.209-0.454-0.381-0.909-0.51-1.368c-0.131-0.457-0.225-0.92-0.285-1.389c-0.06-0.468-0.09-0.945-0.09-1.434
				c0-0.492,0.029-0.973,0.09-1.44c0.061-0.467,0.154-0.931,0.285-1.389c0.129-0.458,0.301-0.914,0.51-1.368
				c0.211-0.454,0.465-0.911,0.766-1.371l0.521,0.318c0.068,0.043,0.117,0.102,0.15,0.174c0.031,0.07,0.014,0.174-0.055,0.306
				c-0.408,0.72-0.719,1.483-0.932,2.289S185.896,71.264,185.896,72.111z"/>
			<path fill="#FFFFFF" d="M195.113,75.879h-1.141c-0.229,0-0.395-0.09-0.498-0.27l-2.129-2.988
				c-0.068-0.102-0.145-0.171-0.225-0.213s-0.199-0.062-0.357-0.062h-0.834v3.533h-1.279v-8.615h2.482
				c0.559,0,1.035,0.057,1.438,0.17c0.402,0.114,0.734,0.276,0.996,0.486c0.263,0.21,0.455,0.463,0.582,0.76
				c0.125,0.295,0.188,0.627,0.188,0.995c0,0.3-0.047,0.582-0.139,0.847c-0.093,0.266-0.228,0.5-0.404,0.711
				c-0.178,0.211-0.396,0.393-0.651,0.543c-0.254,0.151-0.545,0.27-0.869,0.35c0.16,0.098,0.299,0.229,0.414,0.4L195.113,75.879z
				 M191.094,71.415c0.328,0,0.617-0.04,0.867-0.12s0.459-0.193,0.627-0.339s0.293-0.32,0.377-0.522
				c0.084-0.201,0.127-0.425,0.127-0.668c0-0.496-0.164-0.871-0.49-1.123s-0.812-0.377-1.467-0.377h-1.205v3.149H191.094z"/>
			<path fill="#FFFFFF" d="M200.98,75.009c-0.146,0.168-0.312,0.313-0.498,0.437c-0.188,0.123-0.387,0.222-0.602,0.298
				c-0.213,0.075-0.432,0.132-0.654,0.168c-0.229,0.034-0.449,0.054-0.67,0.054c-0.422,0-0.811-0.07-1.166-0.213
				c-0.359-0.143-0.668-0.352-0.934-0.624c-0.264-0.272-0.465-0.612-0.609-1.021c-0.146-0.404-0.221-0.873-0.221-1.399
				c0-0.424,0.064-0.819,0.197-1.187c0.133-0.365,0.32-0.686,0.566-0.957s0.547-0.484,0.902-0.643s0.756-0.232,1.199-0.232
				c0.373,0,0.715,0.062,1.029,0.184c0.312,0.122,0.586,0.299,0.812,0.531c0.229,0.229,0.408,0.518,0.537,0.855
				c0.131,0.342,0.194,0.729,0.194,1.164c0,0.182-0.021,0.303-0.06,0.363c-0.041,0.062-0.114,0.093-0.223,0.093h-3.996
				c0.012,0.364,0.063,0.683,0.155,0.951c0.093,0.269,0.22,0.495,0.382,0.675c0.161,0.182,0.354,0.312,0.577,0.402
				c0.226,0.088,0.476,0.132,0.75,0.132c0.261,0,0.486-0.03,0.677-0.09c0.188-0.062,0.354-0.125,0.491-0.195
				c0.138-0.069,0.255-0.135,0.349-0.194c0.095-0.061,0.179-0.09,0.248-0.09c0.099,0,0.17,0.035,0.224,0.107L200.98,75.009z
				 M200.016,72.152c0-0.231-0.033-0.445-0.1-0.644c-0.066-0.194-0.164-0.364-0.291-0.51c-0.129-0.146-0.285-0.256-0.469-0.336
				s-0.395-0.12-0.635-0.12c-0.492,0-0.879,0.143-1.162,0.428c-0.281,0.282-0.461,0.678-0.537,1.182H200.016z"/>
			<path fill="#FFFFFF" d="M207.527,70.011v0.438c0,0.144-0.09,0.232-0.271,0.27l-0.652,0.096c0.057,0.125,0.1,0.256,0.131,0.396
				c0.033,0.14,0.049,0.283,0.049,0.437c0,0.301-0.059,0.569-0.174,0.812s-0.275,0.449-0.48,0.621
				c-0.203,0.172-0.447,0.304-0.729,0.396s-0.592,0.14-0.928,0.14c-0.275,0-0.533-0.03-0.773-0.093
				c-0.119,0.072-0.211,0.151-0.273,0.237c-0.062,0.087-0.092,0.171-0.092,0.255c0,0.141,0.059,0.244,0.176,0.312
				c0.119,0.066,0.273,0.117,0.463,0.146c0.19,0.028,0.408,0.049,0.654,0.057c0.246,0.009,0.496,0.021,0.75,0.039
				s0.504,0.051,0.75,0.097s0.463,0.12,0.654,0.222c0.189,0.104,0.344,0.242,0.461,0.42c0.117,0.18,0.178,0.409,0.178,0.693
				c0,0.264-0.066,0.52-0.195,0.768c-0.131,0.248-0.32,0.469-0.564,0.66c-0.248,0.192-0.553,0.346-0.906,0.463
				c-0.355,0.115-0.76,0.174-1.213,0.174c-0.451,0-0.848-0.045-1.182-0.133s-0.609-0.205-0.834-0.354
				c-0.221-0.148-0.387-0.32-0.498-0.518c-0.107-0.194-0.164-0.398-0.164-0.61c0-0.296,0.094-0.548,0.275-0.753
				c0.185-0.206,0.439-0.367,0.762-0.483c-0.176-0.08-0.312-0.188-0.42-0.327c-0.104-0.138-0.152-0.32-0.152-0.549
				c0-0.088,0.016-0.179,0.047-0.273c0.029-0.094,0.082-0.188,0.146-0.279c0.065-0.096,0.147-0.186,0.246-0.27
				c0.098-0.084,0.211-0.16,0.34-0.228c-0.301-0.168-0.537-0.392-0.709-0.669c-0.172-0.278-0.258-0.604-0.258-0.977
				c0-0.301,0.059-0.568,0.174-0.811c0.117-0.24,0.276-0.446,0.483-0.618c0.205-0.172,0.451-0.304,0.738-0.396
				c0.284-0.092,0.598-0.139,0.938-0.139c0.528,0,0.981,0.109,1.362,0.329L207.527,70.011L207.527,70.011z M206.34,76.197
				c0-0.146-0.041-0.26-0.121-0.346s-0.188-0.153-0.326-0.205c-0.139-0.049-0.299-0.086-0.48-0.106
				c-0.188-0.022-0.379-0.039-0.58-0.052c-0.201-0.012-0.408-0.022-0.621-0.032c-0.211-0.011-0.416-0.029-0.609-0.058
				c-0.209,0.104-0.379,0.229-0.516,0.379c-0.133,0.146-0.201,0.32-0.201,0.521c0,0.128,0.033,0.248,0.102,0.36
				c0.064,0.111,0.168,0.209,0.307,0.291c0.137,0.082,0.311,0.146,0.521,0.191c0.209,0.045,0.461,0.067,0.752,0.067
				c0.289,0,0.543-0.024,0.764-0.075c0.219-0.05,0.404-0.119,0.555-0.21c0.151-0.09,0.264-0.196,0.342-0.319
				C206.303,76.479,206.34,76.346,206.34,76.197z M204.473,72.837c0.209,0,0.393-0.028,0.549-0.084
				c0.158-0.056,0.291-0.135,0.396-0.237c0.105-0.102,0.186-0.225,0.24-0.369c0.055-0.144,0.082-0.301,0.082-0.474
				c0-0.353-0.107-0.633-0.322-0.843c-0.213-0.21-0.529-0.314-0.945-0.314c-0.412,0-0.725,0.104-0.938,0.314
				c-0.215,0.21-0.322,0.49-0.322,0.843c0,0.173,0.027,0.329,0.082,0.472c0.053,0.144,0.133,0.266,0.24,0.365
				c0.105,0.104,0.236,0.184,0.395,0.24C204.089,72.807,204.27,72.837,204.473,72.837z"/>
			<path fill="#FFFFFF" d="M209.699,70.953c0.195-0.4,0.432-0.714,0.707-0.942c0.277-0.228,0.609-0.342,0.996-0.342
				c0.133,0,0.258,0.015,0.375,0.045c0.119,0.03,0.221,0.075,0.311,0.136l-0.078,0.881c-0.029,0.108-0.096,0.162-0.199,0.162
				c-0.055,0-0.141-0.011-0.252-0.031c-0.109-0.021-0.23-0.032-0.357-0.032c-0.188,0-0.354,0.024-0.498,0.081
				c-0.146,0.054-0.271,0.134-0.389,0.238c-0.113,0.105-0.215,0.235-0.303,0.392c-0.088,0.153-0.17,0.329-0.246,0.522v3.816h-1.17
				v-6.096h0.672c0.127,0,0.215,0.021,0.26,0.068c0.049,0.045,0.08,0.127,0.102,0.241L209.699,70.953z"/>
			<path fill="#FFFFFF" d="M212.836,70.635c0.34-0.324,0.709-0.564,1.107-0.726c0.396-0.161,0.836-0.24,1.311-0.24
				c0.348,0,0.656,0.058,0.924,0.171c0.271,0.114,0.494,0.273,0.678,0.479c0.188,0.203,0.324,0.447,0.418,0.73
				c0.096,0.284,0.143,0.598,0.143,0.942v3.888h-0.521c-0.117,0-0.205-0.02-0.265-0.057c-0.062-0.038-0.108-0.109-0.146-0.213
				l-0.125-0.534c-0.155,0.144-0.312,0.271-0.463,0.381s-0.312,0.204-0.478,0.282c-0.166,0.076-0.344,0.137-0.53,0.177
				c-0.188,0.04-0.396,0.06-0.625,0.06c-0.24,0-0.466-0.031-0.675-0.099c-0.211-0.065-0.394-0.167-0.549-0.303
				c-0.156-0.138-0.279-0.308-0.369-0.511s-0.135-0.441-0.135-0.715c0-0.238,0.063-0.472,0.192-0.691
				c0.131-0.223,0.344-0.422,0.638-0.598c0.295-0.178,0.678-0.319,1.151-0.434c0.475-0.111,1.058-0.176,1.748-0.191v-0.442
				c0-0.46-0.099-0.806-0.293-1.032c-0.195-0.229-0.484-0.342-0.863-0.342c-0.258,0-0.473,0.031-0.646,0.096
				s-0.323,0.135-0.448,0.213c-0.127,0.078-0.236,0.149-0.33,0.213c-0.095,0.064-0.19,0.098-0.291,0.098
				c-0.08,0-0.147-0.021-0.207-0.065s-0.104-0.096-0.142-0.155L212.836,70.635z M216.268,73.173
				c-0.475,0.017-0.879,0.054-1.211,0.111c-0.332,0.057-0.602,0.135-0.811,0.229c-0.207,0.098-0.357,0.209-0.449,0.34
				s-0.139,0.273-0.139,0.436c0,0.152,0.025,0.283,0.076,0.393c0.049,0.11,0.117,0.2,0.203,0.271
				c0.086,0.068,0.188,0.121,0.303,0.152c0.115,0.03,0.242,0.049,0.379,0.049c0.18,0,0.344-0.021,0.494-0.055
				c0.15-0.037,0.291-0.089,0.424-0.152c0.131-0.066,0.258-0.147,0.377-0.243c0.121-0.097,0.238-0.206,0.354-0.33V73.173
				L216.268,73.173z"/>
			<path fill="#FFFFFF" d="M222.58,70.833c-0.031,0.052-0.066,0.089-0.102,0.11c-0.037,0.021-0.082,0.033-0.141,0.033
				c-0.062,0-0.135-0.021-0.213-0.065s-0.172-0.093-0.279-0.146c-0.109-0.053-0.238-0.101-0.389-0.145s-0.324-0.064-0.527-0.064
				c-0.17,0-0.32,0.021-0.459,0.062c-0.139,0.042-0.256,0.1-0.352,0.174c-0.098,0.074-0.17,0.162-0.225,0.265
				c-0.053,0.104-0.078,0.211-0.078,0.326c0,0.152,0.045,0.278,0.137,0.378c0.09,0.103,0.209,0.188,0.354,0.259
				c0.146,0.071,0.312,0.139,0.498,0.194c0.188,0.06,0.377,0.119,0.569,0.185c0.194,0.062,0.385,0.138,0.569,0.22
				c0.186,0.082,0.353,0.184,0.498,0.306s0.265,0.27,0.354,0.441c0.092,0.171,0.137,0.382,0.137,0.63
				c0,0.284-0.053,0.547-0.152,0.789c-0.102,0.241-0.252,0.45-0.449,0.627c-0.199,0.176-0.443,0.313-0.736,0.414
				c-0.291,0.1-0.625,0.149-1.002,0.149c-0.42,0-0.807-0.07-1.164-0.211c-0.354-0.141-0.652-0.316-0.893-0.533l0.275-0.449
				c0.029-0.057,0.07-0.1,0.119-0.129c0.049-0.03,0.111-0.047,0.191-0.047c0.076,0,0.152,0.027,0.232,0.084
				c0.08,0.058,0.178,0.117,0.287,0.185c0.111,0.065,0.248,0.126,0.408,0.181c0.16,0.053,0.359,0.08,0.6,0.08
				c0.201,0,0.375-0.023,0.521-0.074c0.148-0.051,0.271-0.117,0.369-0.205c0.098-0.086,0.172-0.185,0.219-0.297
				c0.049-0.109,0.072-0.229,0.072-0.354c0-0.16-0.045-0.293-0.135-0.398c-0.09-0.104-0.207-0.197-0.354-0.271
				c-0.147-0.076-0.312-0.145-0.503-0.198c-0.188-0.056-0.379-0.114-0.572-0.18c-0.197-0.064-0.391-0.14-0.576-0.224
				c-0.189-0.084-0.355-0.188-0.502-0.316c-0.147-0.128-0.266-0.284-0.354-0.471c-0.09-0.184-0.135-0.405-0.135-0.672
				c0-0.233,0.049-0.461,0.146-0.678c0.098-0.216,0.24-0.406,0.426-0.57c0.188-0.164,0.416-0.295,0.689-0.393
				c0.275-0.098,0.588-0.146,0.939-0.146c0.404,0,0.77,0.063,1.096,0.191s0.605,0.305,0.836,0.528L222.58,70.833z"/>
			<path fill="#FFFFFF" d="M225.07,72.111c0-0.851-0.107-1.676-0.32-2.481c-0.215-0.806-0.525-1.569-0.934-2.289
				c-0.068-0.132-0.086-0.233-0.051-0.306c0.031-0.072,0.084-0.131,0.15-0.174l0.521-0.318c0.301,0.46,0.556,0.917,0.765,1.371
				c0.207,0.454,0.377,0.91,0.51,1.368c0.131,0.458,0.228,0.921,0.287,1.389s0.09,0.948,0.09,1.44c0,0.486-0.028,0.966-0.09,1.434
				c-0.062,0.469-0.156,0.932-0.287,1.389c-0.133,0.459-0.303,0.914-0.51,1.368c-0.209,0.454-0.464,0.911-0.765,1.371l-0.521-0.317
				c-0.066-0.045-0.119-0.103-0.15-0.174c-0.035-0.072-0.02-0.175,0.051-0.307c0.408-0.721,0.719-1.482,0.934-2.286
				C224.963,73.785,225.07,72.959,225.07,72.111z"/>
			<path fill="#FFFFFF" d="M227.342,75.061c0-0.127,0.023-0.246,0.07-0.355c0.047-0.112,0.111-0.21,0.191-0.294
				c0.082-0.084,0.18-0.15,0.291-0.2c0.111-0.049,0.232-0.072,0.363-0.072c0.125,0,0.244,0.023,0.354,0.072
				c0.113,0.05,0.213,0.116,0.297,0.2s0.148,0.182,0.197,0.294c0.051,0.109,0.074,0.229,0.074,0.355
				c0,0.131-0.023,0.252-0.074,0.363c-0.049,0.112-0.113,0.21-0.197,0.294s-0.184,0.149-0.297,0.196
				c-0.109,0.047-0.229,0.07-0.354,0.07c-0.131,0-0.252-0.023-0.363-0.07s-0.209-0.112-0.291-0.196
				c-0.08-0.084-0.146-0.182-0.191-0.294C227.366,75.312,227.342,75.189,227.342,75.061z"/>
		</g>
	</g>
</g>
</svg>
