<?xml version="1.0" encoding="utf-8"?>
<!-- Generator: Adobe Illustrator 15.0.0, SVG Export Plug-In . SVG Version: 6.00 Build 0)  -->
<!DOCTYPE svg PUBLIC "-//W3C//DTD SVG 1.1//EN" "http://www.w3.org/Graphics/SVG/1.1/DTD/svg11.dtd">
<svg version="1.1" xmlns="http://www.w3.org/2000/svg" xmlns:xlink="http://www.w3.org/1999/xlink" x="0px" y="0px" width="285px"
	 height="101px" viewBox="0 0 285 101" enable-background="new 0 0 285 101" xml:space="preserve">
<g id="Layer_1">
	<g>
		<rect fill="#D2D3D2" width="285" height="101"/>
		<rect x="1" y="1" fill="#FFFFFF" width="283" height="99"/>
	</g>
</g>
<g id="Layer_2" display="none">
	<rect display="inline" fill="#D2D3D2" width="101" height="101"/>
</g>
<g id="Layer_3">
	<g>
		<path fill="#B9519F" d="M106.742,30.946l-0.55,0.682c0.308-0.154,0.64-0.273,0.996-0.357c0.355-0.084,0.739-0.126,1.149-0.126
			c0.601,0,1.186,0.099,1.754,0.297c0.568,0.198,1.069,0.497,1.501,0.897c0.433,0.399,0.781,0.896,1.045,1.49
			c0.264,0.594,0.396,1.287,0.396,2.079c0,0.741-0.136,1.436-0.407,2.084s-0.653,1.215-1.144,1.699
			c-0.491,0.484-1.083,0.866-1.776,1.144c-0.693,0.279-1.458,0.418-2.293,0.418c-0.851,0-1.613-0.136-2.288-0.407
			c-0.675-0.271-1.25-0.651-1.727-1.139c-0.477-0.487-0.841-1.074-1.094-1.76c-0.253-0.686-0.38-1.447-0.38-2.283
			c0-0.748,0.152-1.516,0.457-2.304c0.304-0.789,0.775-1.608,1.414-2.458l3.795-5.093c0.132-0.176,0.325-0.326,0.578-0.451
			c0.253-0.125,0.544-0.187,0.875-0.187h2.42L106.742,30.946z M107.358,39.031c0.433,0,0.831-0.073,1.193-0.22
			c0.363-0.146,0.675-0.352,0.935-0.616c0.26-0.264,0.464-0.574,0.611-0.93c0.146-0.355,0.22-0.743,0.22-1.161
			c0-0.455-0.07-0.863-0.209-1.227c-0.139-0.363-0.337-0.671-0.594-0.924c-0.257-0.253-0.565-0.445-0.924-0.578
			c-0.359-0.132-0.755-0.198-1.188-0.198s-0.825,0.073-1.177,0.22c-0.352,0.147-0.653,0.351-0.902,0.611
			c-0.25,0.26-0.444,0.568-0.583,0.924c-0.14,0.356-0.209,0.739-0.209,1.149c0,0.44,0.061,0.842,0.182,1.205
			c0.121,0.363,0.301,0.673,0.539,0.93s0.534,0.457,0.886,0.599C106.489,38.959,106.896,39.031,107.358,39.031z"/>
		<path fill="#B9519F" d="M128.457,41.077h-2.949c-0.205,0-0.367-0.051-0.488-0.154c-0.121-0.103-0.219-0.22-0.293-0.352
			l-3.684-6.105c-0.059,0.183-0.128,0.341-0.209,0.473l-3.531,5.632c-0.088,0.125-0.189,0.24-0.303,0.346
			c-0.114,0.106-0.262,0.16-0.445,0.16h-2.761l5.28-8.184l-5.071-7.722h2.948c0.205,0,0.354,0.027,0.446,0.082
			c0.091,0.055,0.177,0.145,0.258,0.27l3.619,5.83c0.073-0.183,0.161-0.367,0.264-0.55l3.322-5.225
			c0.08-0.139,0.168-0.242,0.264-0.308s0.217-0.099,0.363-0.099h2.826l-5.113,7.601L128.457,41.077z"/>
		<path fill="#B9519F" d="M144.098,28.064c-0.088,0.154-0.182,0.266-0.281,0.335c-0.1,0.07-0.223,0.104-0.369,0.104
			c-0.152,0-0.32-0.057-0.5-0.17c-0.18-0.113-0.395-0.24-0.644-0.379c-0.25-0.139-0.541-0.266-0.875-0.379s-0.728-0.17-1.183-0.17
			c-0.41,0-0.77,0.049-1.077,0.148c-0.309,0.099-0.567,0.236-0.776,0.413c-0.209,0.176-0.364,0.387-0.467,0.632
			c-0.104,0.246-0.154,0.515-0.154,0.809c0,0.374,0.104,0.686,0.313,0.935c0.209,0.249,0.485,0.462,0.83,0.638
			c0.345,0.176,0.737,0.334,1.178,0.473c0.439,0.139,0.891,0.288,1.353,0.445c0.462,0.158,0.913,0.341,1.354,0.55
			c0.439,0.209,0.832,0.473,1.177,0.792c0.344,0.319,0.621,0.709,0.83,1.171s0.312,1.023,0.312,1.683
			c0,0.719-0.123,1.392-0.367,2.019c-0.246,0.627-0.605,1.173-1.078,1.639c-0.473,0.466-1.051,0.833-1.733,1.1
			s-1.463,0.401-2.343,0.401c-0.506,0-1.005-0.049-1.496-0.148c-0.491-0.099-0.963-0.24-1.414-0.423
			c-0.45-0.183-0.874-0.403-1.271-0.66c-0.396-0.256-0.747-0.542-1.056-0.858l0.869-1.419c0.073-0.103,0.169-0.188,0.286-0.258
			s0.242-0.104,0.374-0.104c0.183,0,0.381,0.075,0.594,0.225c0.213,0.15,0.466,0.317,0.759,0.5c0.294,0.184,0.637,0.351,1.028,0.5
			c0.393,0.15,0.864,0.226,1.414,0.226c0.843,0,1.496-0.2,1.958-0.599c0.462-0.4,0.693-0.974,0.693-1.722
			c0-0.418-0.104-0.759-0.313-1.023c-0.209-0.264-0.486-0.486-0.831-0.666s-0.737-0.332-1.177-0.457
			c-0.44-0.125-0.888-0.26-1.342-0.407c-0.455-0.146-0.902-0.322-1.343-0.528c-0.439-0.205-0.832-0.473-1.177-0.803
			c-0.345-0.33-0.621-0.742-0.83-1.237s-0.313-1.105-0.313-1.832c0-0.579,0.115-1.144,0.347-1.694
			c0.23-0.55,0.566-1.038,1.006-1.463c0.44-0.425,0.982-0.767,1.628-1.023c0.646-0.257,1.387-0.385,2.223-0.385
			c0.938,0,1.804,0.147,2.596,0.44c0.792,0.293,1.467,0.704,2.024,1.232L144.098,28.064z"/>
		<path fill="#B9519F" d="M150.664,27.525v4.411h5.566v2.277h-5.566v4.499h7.062v2.365h-10.031V25.171h10.031v2.354H150.664z"/>
		<path fill="#B9519F" d="M177.592,25.171v15.906h-2.607V30.803c0-0.411,0.021-0.854,0.066-1.331l-4.807,9.031
			c-0.229,0.433-0.576,0.649-1.045,0.649h-0.418c-0.471,0-0.818-0.216-1.045-0.649l-4.863-9.064c0.023,0.242,0.041,0.48,0.057,0.715
			c0.014,0.235,0.021,0.451,0.021,0.649v10.274h-2.607V25.171h2.232c0.133,0,0.246,0.003,0.342,0.011s0.182,0.026,0.258,0.055
			c0.078,0.029,0.146,0.077,0.209,0.143c0.062,0.066,0.123,0.154,0.182,0.264l4.764,8.833c0.125,0.235,0.24,0.477,0.346,0.726
			c0.107,0.25,0.211,0.506,0.314,0.77c0.102-0.271,0.209-0.534,0.318-0.787s0.227-0.497,0.352-0.731l4.697-8.811
			c0.059-0.11,0.121-0.198,0.188-0.264c0.066-0.066,0.137-0.114,0.215-0.143c0.076-0.029,0.162-0.048,0.258-0.055
			s0.209-0.011,0.342-0.011H177.592z"/>
		<path fill="#B9519F" d="M192.541,35.423c0,0.895-0.111,1.701-0.33,2.42c-0.221,0.719-0.549,1.331-0.984,1.837
			c-0.438,0.506-0.982,0.895-1.635,1.166c-0.652,0.271-1.41,0.407-2.275,0.407c-0.396,0-0.785-0.023-1.166-0.071
			c-0.383-0.048-0.781-0.123-1.199-0.226c0.021-0.293,0.047-0.586,0.076-0.88s0.055-0.586,0.078-0.88
			c0.021-0.161,0.086-0.292,0.191-0.391s0.258-0.148,0.457-0.148c0.125,0,0.287,0.026,0.488,0.077
			c0.203,0.051,0.457,0.077,0.766,0.077c0.418,0,0.787-0.061,1.111-0.181c0.322-0.121,0.592-0.314,0.809-0.578
			c0.215-0.264,0.379-0.607,0.488-1.029c0.111-0.421,0.166-0.933,0.166-1.534V25.171h2.959V35.423z"/>
		<path fill="#B9519F" d="M202.33,38.69c0.572,0,1.084-0.095,1.535-0.286c0.451-0.191,0.83-0.458,1.139-0.803
			s0.545-0.763,0.709-1.254c0.166-0.491,0.248-1.041,0.248-1.65v-9.526h2.959v9.526c0,0.946-0.152,1.82-0.457,2.624
			c-0.305,0.803-0.74,1.496-1.309,2.079s-1.26,1.038-2.074,1.364c-0.812,0.326-1.73,0.489-2.75,0.489
			c-1.025,0-1.947-0.163-2.76-0.489c-0.814-0.326-1.506-0.781-2.074-1.364s-1.004-1.276-1.309-2.079
			c-0.305-0.803-0.457-1.678-0.457-2.624v-9.526h2.959v9.515c0,0.609,0.082,1.159,0.248,1.65c0.164,0.492,0.402,0.912,0.715,1.26
			c0.311,0.348,0.693,0.618,1.145,0.809C201.248,38.595,201.758,38.69,202.33,38.69z"/>
		<path fill="#B9519F" d="M224.684,41.077h-2.674c-0.506,0-0.873-0.198-1.1-0.594l-3.344-5.093c-0.125-0.19-0.264-0.326-0.414-0.407
			c-0.15-0.081-0.371-0.121-0.664-0.121h-1.266v6.215h-2.959V25.171h4.852c1.078,0,2.004,0.112,2.777,0.335s1.408,0.537,1.902,0.94
			c0.496,0.403,0.859,0.885,1.096,1.446c0.234,0.561,0.352,1.179,0.352,1.854c0,0.536-0.08,1.042-0.236,1.518
			c-0.158,0.477-0.385,0.909-0.684,1.298c-0.297,0.389-0.662,0.73-1.1,1.023c-0.436,0.293-0.934,0.524-1.49,0.693
			c0.191,0.11,0.367,0.24,0.527,0.39c0.162,0.15,0.309,0.329,0.441,0.534L224.684,41.077z M217.07,32.739
			c0.557,0,1.043-0.07,1.457-0.209c0.416-0.139,0.756-0.332,1.023-0.578s0.469-0.537,0.6-0.875c0.133-0.337,0.199-0.708,0.199-1.111
			c0-0.807-0.268-1.426-0.799-1.859c-0.531-0.432-1.344-0.649-2.436-0.649h-1.893v5.28H217.07z"/>
		<path fill="#B9519F" d="M241.578,33.124c0,1.166-0.193,2.246-0.578,3.24s-0.93,1.854-1.633,2.58
			c-0.703,0.726-1.551,1.292-2.541,1.699c-0.99,0.407-2.09,0.61-3.301,0.61c-1.201,0-2.299-0.203-3.289-0.61
			c-0.988-0.407-1.838-0.974-2.545-1.699c-0.709-0.726-1.256-1.586-1.645-2.58s-0.584-2.074-0.584-3.24s0.195-2.246,0.584-3.239
			s0.936-1.854,1.645-2.58c0.707-0.726,1.557-1.292,2.545-1.7c0.99-0.407,2.088-0.61,3.289-0.61c0.807,0,1.566,0.094,2.277,0.281
			s1.365,0.451,1.959,0.792c0.594,0.341,1.127,0.755,1.6,1.243c0.473,0.488,0.875,1.032,1.205,1.634
			c0.33,0.601,0.58,1.254,0.754,1.958C241.492,31.606,241.578,32.347,241.578,33.124z M238.553,33.124
			c0-0.873-0.117-1.655-0.352-2.348c-0.234-0.693-0.568-1.282-1.002-1.766c-0.432-0.484-0.957-0.854-1.578-1.111
			c-0.619-0.256-1.318-0.385-2.096-0.385s-1.475,0.128-2.094,0.385c-0.621,0.257-1.148,0.627-1.584,1.111
			c-0.438,0.484-0.773,1.072-1.008,1.766c-0.234,0.693-0.352,1.476-0.352,2.348c0,0.873,0.117,1.656,0.352,2.349
			s0.57,1.28,1.008,1.76c0.436,0.48,0.963,0.849,1.584,1.106c0.619,0.256,1.316,0.385,2.094,0.385s1.477-0.128,2.096-0.385
			c0.621-0.257,1.146-0.625,1.578-1.106c0.434-0.48,0.768-1.067,1.002-1.76S238.553,33.997,238.553,33.124z"/>
		<path fill="#B9519F" d="M252.656,28.064c-0.088,0.154-0.182,0.266-0.281,0.335c-0.1,0.07-0.223,0.104-0.369,0.104
			c-0.152,0-0.32-0.057-0.5-0.17c-0.18-0.113-0.395-0.24-0.643-0.379c-0.25-0.139-0.541-0.266-0.875-0.379s-0.729-0.17-1.184-0.17
			c-0.41,0-0.77,0.049-1.076,0.148c-0.309,0.099-0.568,0.236-0.777,0.413c-0.209,0.176-0.363,0.387-0.467,0.632
			s-0.154,0.515-0.154,0.809c0,0.374,0.105,0.686,0.314,0.935c0.209,0.249,0.484,0.462,0.83,0.638
			c0.344,0.176,0.736,0.334,1.178,0.473c0.439,0.139,0.891,0.288,1.352,0.445c0.463,0.158,0.914,0.341,1.354,0.55
			s0.832,0.473,1.178,0.792c0.344,0.319,0.621,0.709,0.83,1.171s0.312,1.023,0.312,1.683c0,0.719-0.123,1.392-0.367,2.019
			c-0.246,0.627-0.605,1.173-1.078,1.639c-0.473,0.466-1.051,0.833-1.732,1.1s-1.463,0.401-2.344,0.401
			c-0.506,0-1.004-0.049-1.496-0.148c-0.49-0.099-0.963-0.24-1.414-0.423c-0.449-0.183-0.873-0.403-1.27-0.66
			c-0.396-0.256-0.748-0.542-1.057-0.858l0.869-1.419c0.074-0.103,0.17-0.188,0.287-0.258s0.242-0.104,0.373-0.104
			c0.184,0,0.381,0.075,0.594,0.225c0.213,0.15,0.467,0.317,0.76,0.5c0.293,0.184,0.637,0.351,1.027,0.5
			c0.393,0.15,0.865,0.226,1.414,0.226c0.844,0,1.496-0.2,1.959-0.599c0.461-0.4,0.693-0.974,0.693-1.722
			c0-0.418-0.105-0.759-0.314-1.023c-0.209-0.264-0.486-0.486-0.83-0.666c-0.346-0.18-0.738-0.332-1.178-0.457
			s-0.887-0.26-1.342-0.407c-0.455-0.146-0.902-0.322-1.342-0.528c-0.439-0.205-0.832-0.473-1.178-0.803
			c-0.344-0.33-0.621-0.742-0.83-1.237s-0.312-1.105-0.312-1.832c0-0.579,0.115-1.144,0.346-1.694
			c0.23-0.55,0.566-1.038,1.006-1.463c0.441-0.425,0.982-0.767,1.629-1.023c0.645-0.257,1.387-0.385,2.223-0.385
			c0.938,0,1.803,0.147,2.596,0.44c0.791,0.293,1.467,0.704,2.023,1.232L252.656,28.064z"/>
	</g>
	<g>
		<path fill="#B9519F" d="M30.8,44.32l-1.5,1.86c0.84-0.42,1.745-0.745,2.715-0.975c0.97-0.229,2.015-0.345,3.135-0.345
			c1.64,0,3.235,0.27,4.785,0.81c1.55,0.54,2.915,1.355,4.095,2.445c1.18,1.09,2.13,2.445,2.85,4.064
			c0.72,1.621,1.08,3.511,1.08,5.67c0,2.021-0.37,3.916-1.11,5.686c-0.74,1.77-1.78,3.314-3.12,4.635s-2.955,2.36-4.845,3.12
			c-1.89,0.76-3.975,1.14-6.255,1.14c-2.32,0-4.4-0.369-6.24-1.109c-1.84-0.74-3.41-1.775-4.71-3.105
			c-1.3-1.33-2.295-2.93-2.985-4.8s-1.035-3.944-1.035-6.225c0-2.04,0.415-4.136,1.245-6.285c0.83-2.15,2.115-4.385,3.855-6.705
			l10.35-13.89c0.36-0.48,0.885-0.89,1.575-1.23c0.69-0.34,1.485-0.51,2.385-0.51h6.6L30.8,44.32z M32.48,66.37
			c1.18,0,2.265-0.2,3.255-0.601c0.99-0.399,1.84-0.959,2.55-1.68c0.709-0.72,1.265-1.564,1.665-2.535
			c0.4-0.969,0.6-2.024,0.6-3.164c0-1.24-0.19-2.355-0.57-3.346s-0.92-1.83-1.62-2.52c-0.701-0.69-1.541-1.215-2.52-1.575
			c-0.98-0.36-2.061-0.54-3.24-0.54c-1.18,0-2.25,0.2-3.21,0.6c-0.96,0.4-1.78,0.955-2.46,1.666c-0.68,0.709-1.21,1.55-1.59,2.52
			c-0.38,0.971-0.57,2.016-0.57,3.135c0,1.2,0.165,2.295,0.495,3.285s0.82,1.835,1.47,2.535c0.649,0.7,1.455,1.244,2.415,1.635
			C30.11,66.176,31.22,66.37,32.48,66.37z"/>
		<path fill="#B9519F" d="M83.34,71.95h-6.701c-0.467,0-0.838-0.116-1.111-0.351c-0.275-0.232-0.496-0.5-0.664-0.799l-8.375-13.875
			C66.356,57.342,66.198,57.7,66.015,58l-8.025,12.801c-0.2,0.283-0.429,0.545-0.688,0.787s-0.596,0.362-1.012,0.362h-6.275
			l12-18.601L50.489,35.8h6.7c0.466,0,0.804,0.062,1.013,0.188c0.208,0.125,0.404,0.329,0.587,0.612l8.225,13.25
			c0.166-0.417,0.366-0.833,0.6-1.25l7.55-11.875c0.184-0.316,0.383-0.55,0.6-0.7c0.217-0.15,0.492-0.225,0.826-0.225h6.424
			L71.389,53.075L83.34,71.95z"/>
	</g>
	<g>
		<path fill="#5F5F5F" d="M105.284,51.827c0.644,0,1.204,0.074,1.68,0.224s0.871,0.36,1.183,0.634
			c0.312,0.272,0.545,0.604,0.696,0.99c0.152,0.388,0.228,0.816,0.228,1.288s-0.082,0.904-0.245,1.299
			c-0.164,0.395-0.404,0.733-0.721,1.019c-0.317,0.284-0.713,0.505-1.187,0.661s-1.019,0.234-1.634,0.234h-1.554v3.703h-1.491
			V51.827H105.284z M105.284,57c0.378,0,0.71-0.049,0.998-0.147c0.287-0.098,0.527-0.236,0.721-0.416s0.339-0.395,0.438-0.645
			c0.098-0.249,0.147-0.525,0.147-0.829c0-0.611-0.19-1.092-0.57-1.442c-0.38-0.35-0.958-0.524-1.732-0.524h-1.554V57H105.284z"/>
		<path fill="#5F5F5F" d="M110.247,55.761c0.397-0.378,0.827-0.66,1.292-0.847s0.974-0.28,1.53-0.28
			c0.406,0,0.765,0.066,1.078,0.199c0.313,0.134,0.577,0.319,0.791,0.557c0.215,0.238,0.377,0.523,0.487,0.854
			c0.109,0.331,0.165,0.697,0.165,1.099v4.536h-0.609c-0.135,0-0.238-0.022-0.308-0.066c-0.07-0.044-0.126-0.127-0.168-0.249
			l-0.147-0.623c-0.182,0.169-0.362,0.316-0.539,0.445c-0.178,0.128-0.363,0.237-0.557,0.329c-0.194,0.091-0.4,0.159-0.62,0.206
			s-0.462,0.07-0.728,0.07c-0.28,0-0.542-0.039-0.788-0.116c-0.245-0.076-0.458-0.194-0.64-0.354
			c-0.182-0.158-0.326-0.356-0.431-0.595s-0.158-0.516-0.158-0.833c0-0.28,0.076-0.55,0.228-0.809
			c0.152-0.259,0.399-0.491,0.742-0.696s0.791-0.373,1.344-0.504c0.553-0.131,1.233-0.205,2.04-0.224v-0.519
			c0-0.536-0.114-0.938-0.343-1.204c-0.229-0.266-0.564-0.398-1.008-0.398c-0.299,0-0.55,0.037-0.752,0.111
			c-0.203,0.075-0.378,0.158-0.525,0.249s-0.275,0.174-0.385,0.248c-0.11,0.075-0.223,0.112-0.339,0.112
			c-0.094,0-0.174-0.025-0.242-0.077c-0.068-0.051-0.123-0.112-0.165-0.182L110.247,55.761z M114.25,58.722
			c-0.555,0.019-1.026,0.062-1.414,0.13c-0.388,0.067-0.703,0.157-0.945,0.27c-0.243,0.111-0.417,0.244-0.525,0.396
			s-0.161,0.32-0.161,0.507c0,0.178,0.029,0.331,0.088,0.459c0.058,0.128,0.137,0.233,0.238,0.315
			c0.1,0.081,0.218,0.141,0.354,0.178c0.135,0.038,0.282,0.057,0.441,0.057c0.21,0,0.402-0.021,0.578-0.063
			c0.175-0.042,0.339-0.102,0.493-0.179c0.154-0.076,0.301-0.171,0.441-0.283c0.14-0.112,0.277-0.24,0.413-0.385V58.722z"/>
		<path fill="#5F5F5F" d="M118.71,56.132c0.229-0.467,0.504-0.833,0.826-1.099c0.322-0.267,0.709-0.399,1.162-0.399
			c0.154,0,0.3,0.018,0.438,0.053s0.258,0.087,0.361,0.157l-0.091,1.029c-0.033,0.126-0.109,0.188-0.231,0.188
			c-0.065,0-0.164-0.013-0.294-0.038c-0.131-0.025-0.271-0.038-0.42-0.038c-0.219,0-0.413,0.031-0.581,0.094
			c-0.168,0.063-0.318,0.156-0.452,0.28c-0.133,0.124-0.251,0.275-0.354,0.455s-0.198,0.384-0.287,0.612v4.452h-1.365v-7.112h0.784
			c0.149,0,0.25,0.027,0.304,0.081s0.092,0.148,0.116,0.283L118.71,56.132z"/>
		<path fill="#5F5F5F" d="M127.537,56.097c-0.042,0.052-0.083,0.093-0.123,0.123s-0.097,0.045-0.171,0.045s-0.153-0.029-0.234-0.087
			c-0.082-0.059-0.185-0.122-0.308-0.189s-0.273-0.131-0.448-0.188c-0.175-0.059-0.391-0.088-0.647-0.088
			c-0.336,0-0.633,0.061-0.889,0.182c-0.257,0.122-0.47,0.294-0.641,0.519c-0.17,0.224-0.3,0.497-0.389,0.818
			c-0.088,0.322-0.133,0.685-0.133,1.085c0,0.416,0.047,0.786,0.14,1.11s0.226,0.597,0.399,0.818c0.172,0.222,0.383,0.39,0.63,0.504
			c0.248,0.115,0.522,0.172,0.826,0.172c0.294,0,0.537-0.036,0.728-0.108s0.35-0.15,0.476-0.234s0.231-0.162,0.315-0.234
			s0.17-0.108,0.259-0.108c0.112,0,0.198,0.042,0.259,0.126l0.392,0.504c-0.163,0.2-0.346,0.371-0.549,0.511
			s-0.419,0.254-0.647,0.343s-0.468,0.154-0.717,0.196c-0.25,0.042-0.503,0.062-0.76,0.062c-0.443,0-0.857-0.081-1.243-0.245
			c-0.385-0.163-0.718-0.4-1.001-0.714c-0.282-0.312-0.505-0.696-0.668-1.151c-0.163-0.455-0.245-0.972-0.245-1.551
			c0-0.526,0.073-1.015,0.22-1.463c0.147-0.447,0.364-0.834,0.651-1.158c0.287-0.324,0.641-0.578,1.061-0.763
			s0.901-0.276,1.442-0.276c0.509,0,0.957,0.081,1.344,0.245c0.387,0.163,0.732,0.394,1.036,0.692L127.537,56.097z"/>
		<path fill="#5F5F5F" d="M135.089,60.864c-0.168,0.195-0.361,0.365-0.581,0.507c-0.219,0.143-0.452,0.258-0.7,0.347
			c-0.247,0.089-0.503,0.154-0.767,0.196s-0.523,0.062-0.78,0.062c-0.49,0-0.943-0.083-1.361-0.248
			c-0.418-0.166-0.779-0.408-1.085-0.729c-0.306-0.319-0.544-0.716-0.714-1.189c-0.17-0.474-0.255-1.019-0.255-1.635
			c0-0.494,0.077-0.955,0.231-1.383c0.153-0.427,0.374-0.799,0.661-1.116s0.639-0.566,1.054-0.749
			c0.415-0.182,0.882-0.272,1.4-0.272c0.434,0,0.834,0.071,1.2,0.213c0.366,0.143,0.683,0.35,0.948,0.62
			c0.267,0.271,0.475,0.604,0.627,1.001c0.151,0.396,0.228,0.849,0.228,1.357c0,0.21-0.023,0.352-0.07,0.424
			s-0.133,0.108-0.259,0.108h-4.662c0.014,0.425,0.074,0.795,0.182,1.109c0.107,0.315,0.256,0.577,0.444,0.788
			c0.189,0.21,0.414,0.366,0.676,0.469s0.553,0.153,0.875,0.153c0.304,0,0.565-0.034,0.788-0.104
			c0.221-0.07,0.412-0.146,0.573-0.228s0.297-0.157,0.406-0.228s0.206-0.104,0.291-0.104c0.111,0,0.198,0.042,0.259,0.126
			L135.089,60.864z M133.962,57.532c0-0.271-0.038-0.521-0.115-0.749s-0.19-0.428-0.34-0.596s-0.331-0.298-0.546-0.392
			s-0.462-0.14-0.742-0.14c-0.574,0-1.025,0.165-1.354,0.497c-0.329,0.331-0.538,0.791-0.626,1.379H133.962z"/>
		<path fill="#5F5F5F" d="M138.065,51.547v10.332h-1.372V51.547H138.065z"/>
		<path fill="#5F5F5F" d="M145.848,60.864c-0.168,0.195-0.361,0.365-0.58,0.507c-0.219,0.143-0.453,0.258-0.701,0.347
			c-0.246,0.089-0.502,0.154-0.766,0.196s-0.523,0.062-0.781,0.062c-0.49,0-0.943-0.083-1.361-0.248
			c-0.418-0.166-0.779-0.408-1.085-0.729c-0.306-0.319-0.544-0.716-0.714-1.189c-0.171-0.474-0.256-1.019-0.256-1.635
			c0-0.494,0.077-0.955,0.231-1.383c0.154-0.427,0.374-0.799,0.661-1.116s0.639-0.566,1.054-0.749
			c0.415-0.182,0.882-0.272,1.4-0.272c0.434,0,0.834,0.071,1.2,0.213c0.367,0.143,0.684,0.35,0.949,0.62s0.475,0.604,0.627,1.001
			c0.15,0.396,0.227,0.849,0.227,1.357c0,0.21-0.023,0.352-0.07,0.424s-0.133,0.108-0.258,0.108h-4.663
			c0.014,0.425,0.074,0.795,0.182,1.109c0.107,0.315,0.256,0.577,0.444,0.788c0.189,0.21,0.414,0.366,0.676,0.469
			s0.553,0.153,0.875,0.153c0.305,0,0.566-0.034,0.789-0.104c0.221-0.07,0.412-0.146,0.572-0.228
			c0.162-0.082,0.297-0.157,0.406-0.228s0.207-0.104,0.291-0.104c0.111,0,0.199,0.042,0.26,0.126L145.848,60.864z M144.721,57.532
			c0-0.271-0.037-0.521-0.115-0.749c-0.076-0.229-0.189-0.428-0.34-0.596c-0.148-0.168-0.33-0.298-0.545-0.392
			s-0.463-0.14-0.743-0.14c-0.574,0-1.025,0.165-1.354,0.497c-0.329,0.331-0.538,0.791-0.626,1.379H144.721z"/>
		<path fill="#5F5F5F" d="M152.24,55.754c0.152-0.163,0.314-0.312,0.482-0.448c0.168-0.135,0.346-0.251,0.535-0.347
			c0.189-0.095,0.393-0.17,0.609-0.224s0.449-0.08,0.697-0.08c0.391,0,0.734,0.065,1.031,0.195c0.297,0.131,0.545,0.314,0.746,0.55
			s0.352,0.52,0.455,0.851c0.102,0.331,0.154,0.697,0.154,1.099v4.529h-1.373V57.35c0-0.508-0.117-0.903-0.35-1.187
			c-0.234-0.282-0.59-0.423-1.07-0.423c-0.352,0-0.678,0.083-0.984,0.248c-0.305,0.166-0.59,0.391-0.85,0.676v5.215h-1.365v-7.112
			h0.818c0.191,0,0.311,0.091,0.357,0.273L152.24,55.754z"/>
		<path fill="#5F5F5F" d="M161.822,54.655c0.523,0,0.996,0.085,1.418,0.255c0.422,0.171,0.781,0.416,1.078,0.735
			s0.523,0.705,0.682,1.155s0.238,0.955,0.238,1.515c0,0.561-0.08,1.066-0.238,1.52s-0.385,0.838-0.682,1.155
			s-0.656,0.561-1.078,0.731c-0.422,0.17-0.895,0.255-1.418,0.255c-0.527,0-1.002-0.085-1.424-0.255
			c-0.422-0.171-0.783-0.414-1.082-0.731s-0.529-0.702-0.689-1.155s-0.242-0.959-0.242-1.52c0-0.56,0.082-1.064,0.242-1.515
			s0.391-0.836,0.689-1.155s0.66-0.564,1.082-0.735C160.82,54.74,161.295,54.655,161.822,54.655z M161.822,60.913
			c0.672,0,1.174-0.227,1.506-0.679c0.33-0.453,0.496-1.09,0.496-1.911s-0.166-1.46-0.496-1.915
			c-0.332-0.455-0.834-0.683-1.506-0.683c-0.682,0-1.189,0.228-1.521,0.683c-0.334,0.455-0.502,1.094-0.502,1.915
			s0.168,1.458,0.502,1.911C160.633,60.687,161.141,60.913,161.822,60.913z"/>
		<path fill="#5F5F5F" d="M175.275,56.097c-0.041,0.052-0.082,0.093-0.123,0.123c-0.039,0.03-0.096,0.045-0.17,0.045
			c-0.076,0-0.154-0.029-0.236-0.087c-0.08-0.059-0.184-0.122-0.307-0.189c-0.125-0.067-0.273-0.131-0.449-0.188
			c-0.174-0.059-0.391-0.088-0.646-0.088c-0.336,0-0.633,0.061-0.889,0.182c-0.258,0.122-0.471,0.294-0.641,0.519
			c-0.17,0.224-0.301,0.497-0.389,0.818c-0.09,0.322-0.133,0.685-0.133,1.085c0,0.416,0.047,0.786,0.139,1.11
			c0.094,0.324,0.227,0.597,0.4,0.818c0.172,0.222,0.383,0.39,0.629,0.504c0.248,0.115,0.523,0.172,0.826,0.172
			c0.295,0,0.537-0.036,0.729-0.108s0.35-0.15,0.477-0.234c0.125-0.084,0.23-0.162,0.314-0.234s0.17-0.108,0.26-0.108
			c0.111,0,0.197,0.042,0.258,0.126l0.393,0.504c-0.164,0.2-0.348,0.371-0.549,0.511c-0.203,0.14-0.42,0.254-0.648,0.343
			s-0.469,0.154-0.717,0.196c-0.25,0.042-0.504,0.062-0.76,0.062c-0.443,0-0.857-0.081-1.242-0.245
			c-0.387-0.163-0.719-0.4-1.002-0.714c-0.281-0.312-0.506-0.696-0.668-1.151c-0.164-0.455-0.246-0.972-0.246-1.551
			c0-0.526,0.074-1.015,0.221-1.463c0.148-0.447,0.365-0.834,0.652-1.158s0.641-0.578,1.061-0.763s0.9-0.276,1.441-0.276
			c0.508,0,0.957,0.081,1.344,0.245c0.387,0.163,0.732,0.394,1.035,0.692L175.275,56.097z"/>
		<path fill="#5F5F5F" d="M176.809,55.761c0.396-0.378,0.828-0.66,1.291-0.847c0.465-0.187,0.975-0.28,1.529-0.28
			c0.406,0,0.766,0.066,1.078,0.199c0.312,0.134,0.576,0.319,0.791,0.557c0.215,0.238,0.377,0.523,0.486,0.854
			c0.111,0.331,0.166,0.697,0.166,1.099v4.536h-0.609c-0.135,0-0.238-0.022-0.309-0.066s-0.125-0.127-0.168-0.249l-0.146-0.623
			c-0.182,0.169-0.361,0.316-0.539,0.445c-0.178,0.128-0.363,0.237-0.557,0.329c-0.193,0.091-0.4,0.159-0.619,0.206
			c-0.221,0.047-0.463,0.07-0.729,0.07c-0.279,0-0.543-0.039-0.787-0.116c-0.246-0.076-0.459-0.194-0.641-0.354
			c-0.182-0.158-0.326-0.356-0.43-0.595c-0.105-0.238-0.158-0.516-0.158-0.833c0-0.28,0.076-0.55,0.227-0.809
			c0.152-0.259,0.4-0.491,0.742-0.696c0.344-0.205,0.791-0.373,1.344-0.504c0.555-0.131,1.234-0.205,2.041-0.224v-0.519
			c0-0.536-0.113-0.938-0.342-1.204c-0.23-0.266-0.566-0.398-1.01-0.398c-0.299,0-0.549,0.037-0.752,0.111
			c-0.203,0.075-0.377,0.158-0.525,0.249c-0.146,0.091-0.275,0.174-0.385,0.248c-0.109,0.075-0.223,0.112-0.34,0.112
			c-0.092,0-0.174-0.025-0.24-0.077c-0.068-0.051-0.123-0.112-0.164-0.182L176.809,55.761z M180.812,58.722
			c-0.555,0.019-1.027,0.062-1.414,0.13s-0.701,0.157-0.945,0.27c-0.242,0.111-0.418,0.244-0.523,0.396
			c-0.107,0.151-0.162,0.32-0.162,0.507c0,0.178,0.029,0.331,0.088,0.459s0.137,0.233,0.238,0.315
			c0.1,0.081,0.217,0.141,0.354,0.178c0.135,0.038,0.281,0.057,0.441,0.057c0.209,0,0.402-0.021,0.576-0.063
			c0.176-0.042,0.34-0.102,0.494-0.179c0.154-0.076,0.301-0.171,0.441-0.283c0.139-0.112,0.277-0.24,0.412-0.385V58.722z"/>
		<path fill="#5F5F5F" d="M185.271,56.132c0.229-0.467,0.504-0.833,0.826-1.099c0.322-0.267,0.709-0.399,1.162-0.399
			c0.154,0,0.301,0.018,0.438,0.053c0.139,0.035,0.258,0.087,0.361,0.157l-0.092,1.029c-0.033,0.126-0.109,0.188-0.23,0.188
			c-0.066,0-0.164-0.013-0.295-0.038s-0.27-0.038-0.42-0.038c-0.219,0-0.412,0.031-0.58,0.094c-0.168,0.063-0.318,0.156-0.451,0.28
			c-0.135,0.124-0.252,0.275-0.354,0.455c-0.104,0.18-0.199,0.384-0.287,0.612v4.452h-1.365v-7.112h0.783
			c0.15,0,0.252,0.027,0.305,0.081c0.055,0.054,0.092,0.148,0.115,0.283L185.271,56.132z"/>
		<path fill="#5F5F5F" d="M191.34,61.991c-0.574,0-1.016-0.161-1.326-0.483s-0.467-0.781-0.467-1.379v-4.256h-0.824
			c-0.08,0-0.146-0.024-0.201-0.073c-0.053-0.05-0.08-0.123-0.08-0.221v-0.553l1.156-0.161l0.307-2.121
			c0.02-0.079,0.055-0.142,0.109-0.186c0.053-0.045,0.123-0.066,0.207-0.066h0.691v2.387h2.018v0.994h-2.018v4.165
			c0,0.28,0.07,0.488,0.207,0.626c0.139,0.138,0.314,0.207,0.529,0.207c0.125,0,0.234-0.017,0.324-0.049
			c0.092-0.033,0.17-0.069,0.234-0.108c0.066-0.04,0.121-0.076,0.168-0.109c0.047-0.032,0.09-0.049,0.127-0.049
			c0.047,0,0.082,0.011,0.107,0.032c0.027,0.021,0.053,0.055,0.082,0.101l0.406,0.658c-0.225,0.206-0.49,0.364-0.799,0.477
			C191.99,61.935,191.672,61.991,191.34,61.991z"/>
		<path fill="#5F5F5F" d="M194,55.761c0.396-0.378,0.828-0.66,1.291-0.847c0.465-0.187,0.975-0.28,1.529-0.28
			c0.406,0,0.766,0.066,1.078,0.199c0.312,0.134,0.576,0.319,0.791,0.557c0.215,0.238,0.377,0.523,0.486,0.854
			c0.111,0.331,0.166,0.697,0.166,1.099v4.536h-0.609c-0.135,0-0.238-0.022-0.309-0.066s-0.125-0.127-0.168-0.249l-0.146-0.623
			c-0.182,0.169-0.361,0.316-0.539,0.445c-0.178,0.128-0.363,0.237-0.557,0.329c-0.193,0.091-0.4,0.159-0.619,0.206
			c-0.221,0.047-0.463,0.07-0.729,0.07c-0.279,0-0.543-0.039-0.787-0.116c-0.246-0.076-0.459-0.194-0.641-0.354
			c-0.182-0.158-0.326-0.356-0.43-0.595c-0.105-0.238-0.158-0.516-0.158-0.833c0-0.28,0.076-0.55,0.227-0.809
			c0.152-0.259,0.4-0.491,0.742-0.696c0.344-0.205,0.791-0.373,1.344-0.504c0.555-0.131,1.234-0.205,2.041-0.224v-0.519
			c0-0.536-0.113-0.938-0.342-1.204c-0.23-0.266-0.566-0.398-1.01-0.398c-0.299,0-0.549,0.037-0.752,0.111
			c-0.203,0.075-0.377,0.158-0.525,0.249c-0.146,0.091-0.275,0.174-0.385,0.248c-0.109,0.075-0.223,0.112-0.34,0.112
			c-0.092,0-0.174-0.025-0.24-0.077c-0.068-0.051-0.123-0.112-0.164-0.182L194,55.761z M197.438,52.541
			c0.158,0,0.281-0.047,0.367-0.14c0.086-0.094,0.131-0.243,0.137-0.448h0.832c0,0.233-0.031,0.445-0.094,0.637
			s-0.15,0.356-0.262,0.493c-0.113,0.138-0.248,0.244-0.406,0.319c-0.16,0.074-0.334,0.111-0.525,0.111
			c-0.164,0-0.316-0.032-0.459-0.098s-0.275-0.138-0.402-0.217c-0.125-0.08-0.246-0.152-0.361-0.218
			c-0.113-0.064-0.223-0.098-0.324-0.098c-0.154,0-0.275,0.049-0.361,0.147c-0.086,0.098-0.131,0.247-0.137,0.447h-0.846
			c0-0.229,0.031-0.439,0.094-0.633c0.062-0.194,0.152-0.358,0.27-0.494c0.117-0.135,0.254-0.241,0.41-0.318s0.33-0.115,0.521-0.115
			c0.168,0,0.322,0.032,0.465,0.098s0.277,0.137,0.402,0.214c0.127,0.077,0.246,0.148,0.357,0.214S197.334,52.541,197.438,52.541z
			 M198.004,58.722c-0.555,0.019-1.027,0.062-1.414,0.13s-0.701,0.157-0.945,0.27c-0.242,0.111-0.418,0.244-0.523,0.396
			c-0.107,0.151-0.162,0.32-0.162,0.507c0,0.178,0.029,0.331,0.088,0.459s0.137,0.233,0.238,0.315
			c0.1,0.081,0.217,0.141,0.354,0.178c0.135,0.038,0.281,0.057,0.441,0.057c0.209,0,0.402-0.021,0.576-0.063
			c0.176-0.042,0.34-0.102,0.494-0.179c0.154-0.076,0.301-0.171,0.441-0.283c0.139-0.112,0.277-0.24,0.412-0.385V58.722z"/>
		<path fill="#5F5F5F" d="M204.207,54.655c0.521,0,0.994,0.085,1.416,0.255c0.424,0.171,0.783,0.416,1.078,0.735
			c0.297,0.319,0.525,0.705,0.684,1.155s0.238,0.955,0.238,1.515c0,0.561-0.08,1.066-0.238,1.52s-0.387,0.838-0.684,1.155
			c-0.295,0.317-0.654,0.561-1.078,0.731c-0.422,0.17-0.895,0.255-1.416,0.255c-0.527,0-1.002-0.085-1.426-0.255
			c-0.422-0.171-0.783-0.414-1.08-0.731c-0.299-0.317-0.529-0.702-0.689-1.155c-0.162-0.453-0.242-0.959-0.242-1.52
			c0-0.56,0.08-1.064,0.242-1.515c0.16-0.45,0.391-0.836,0.689-1.155c0.297-0.319,0.658-0.564,1.08-0.735
			C203.205,54.74,203.68,54.655,204.207,54.655z M204.207,60.913c0.672,0,1.174-0.227,1.504-0.679
			c0.332-0.453,0.498-1.09,0.498-1.911s-0.166-1.46-0.498-1.915c-0.33-0.455-0.832-0.683-1.504-0.683
			c-0.682,0-1.189,0.228-1.523,0.683s-0.5,1.094-0.5,1.915s0.166,1.458,0.5,1.911C203.018,60.687,203.525,60.913,204.207,60.913z"/>
		<path fill="#5F5F5F" d="M218.514,60.864c-0.168,0.195-0.361,0.365-0.582,0.507c-0.219,0.143-0.451,0.258-0.699,0.347
			s-0.504,0.154-0.768,0.196s-0.523,0.062-0.779,0.062c-0.49,0-0.943-0.083-1.361-0.248c-0.418-0.166-0.779-0.408-1.086-0.729
			c-0.305-0.319-0.543-0.716-0.713-1.189c-0.172-0.474-0.256-1.019-0.256-1.635c0-0.494,0.076-0.955,0.23-1.383
			c0.154-0.427,0.375-0.799,0.662-1.116s0.639-0.566,1.053-0.749c0.416-0.182,0.883-0.272,1.4-0.272
			c0.434,0,0.834,0.071,1.201,0.213c0.365,0.143,0.682,0.35,0.947,0.62c0.268,0.271,0.475,0.604,0.627,1.001
			s0.229,0.849,0.229,1.357c0,0.21-0.023,0.352-0.07,0.424s-0.133,0.108-0.26,0.108h-4.662c0.014,0.425,0.074,0.795,0.182,1.109
			c0.107,0.315,0.256,0.577,0.445,0.788c0.189,0.21,0.414,0.366,0.676,0.469s0.553,0.153,0.875,0.153
			c0.303,0,0.564-0.034,0.787-0.104c0.221-0.07,0.412-0.146,0.574-0.228c0.16-0.082,0.297-0.157,0.406-0.228
			s0.205-0.104,0.291-0.104c0.111,0,0.197,0.042,0.258,0.126L218.514,60.864z M217.387,57.532c0-0.271-0.039-0.521-0.115-0.749
			c-0.078-0.229-0.191-0.428-0.34-0.596c-0.15-0.168-0.332-0.298-0.547-0.392s-0.461-0.14-0.742-0.14
			c-0.574,0-1.025,0.165-1.354,0.497c-0.33,0.331-0.539,0.791-0.627,1.379H217.387z"/>
		<path fill="#5F5F5F" d="M220.088,61.879v-7.112h0.82c0.191,0,0.309,0.091,0.355,0.273l0.1,0.679
			c0.26-0.312,0.551-0.568,0.871-0.767c0.318-0.198,0.693-0.297,1.123-0.297c0.471,0,0.854,0.129,1.148,0.388
			c0.293,0.26,0.508,0.61,0.643,1.054c0.104-0.252,0.236-0.469,0.4-0.65c0.162-0.183,0.346-0.332,0.545-0.448
			c0.201-0.117,0.414-0.203,0.641-0.259c0.227-0.057,0.457-0.084,0.689-0.084c0.379,0,0.715,0.06,1.012,0.178
			c0.297,0.119,0.547,0.293,0.752,0.521c0.207,0.229,0.363,0.512,0.471,0.848s0.16,0.719,0.16,1.147v4.529h-1.371V57.35
			c0-0.531-0.117-0.933-0.348-1.204c-0.23-0.271-0.568-0.405-1.012-0.405c-0.195,0-0.383,0.033-0.559,0.102
			c-0.178,0.067-0.334,0.169-0.467,0.304c-0.133,0.136-0.238,0.304-0.314,0.505c-0.078,0.2-0.115,0.434-0.115,0.699v4.529h-1.373
			V57.35c0-0.551-0.109-0.956-0.328-1.218c-0.219-0.261-0.541-0.392-0.967-0.392c-0.293,0-0.566,0.077-0.818,0.23
			c-0.252,0.154-0.482,0.364-0.693,0.63v5.278H220.088z"/>
		<path fill="#5F5F5F" d="M235.014,55.761c0.396-0.378,0.826-0.66,1.291-0.847s0.975-0.28,1.529-0.28
			c0.406,0,0.766,0.066,1.078,0.199c0.312,0.134,0.576,0.319,0.791,0.557c0.215,0.238,0.377,0.523,0.486,0.854
			s0.164,0.697,0.164,1.099v4.536h-0.609c-0.135,0-0.236-0.022-0.307-0.066s-0.127-0.127-0.168-0.249l-0.148-0.623
			c-0.182,0.169-0.361,0.316-0.539,0.445c-0.176,0.128-0.361,0.237-0.557,0.329c-0.193,0.091-0.398,0.159-0.619,0.206
			c-0.219,0.047-0.461,0.07-0.727,0.07c-0.281,0-0.543-0.039-0.789-0.116c-0.244-0.076-0.457-0.194-0.641-0.354
			c-0.182-0.158-0.324-0.356-0.43-0.595s-0.158-0.516-0.158-0.833c0-0.28,0.076-0.55,0.229-0.809
			c0.15-0.259,0.398-0.491,0.742-0.696c0.342-0.205,0.791-0.373,1.344-0.504s1.232-0.205,2.041-0.224v-0.519
			c0-0.536-0.115-0.938-0.344-1.204c-0.229-0.266-0.564-0.398-1.008-0.398c-0.299,0-0.549,0.037-0.752,0.111
			c-0.203,0.075-0.379,0.158-0.525,0.249s-0.275,0.174-0.385,0.248c-0.109,0.075-0.223,0.112-0.34,0.112
			c-0.094,0-0.174-0.025-0.242-0.077c-0.066-0.051-0.121-0.112-0.164-0.182L235.014,55.761z M239.018,58.722
			c-0.557,0.019-1.027,0.062-1.414,0.13c-0.389,0.067-0.703,0.157-0.945,0.27c-0.242,0.111-0.418,0.244-0.525,0.396
			s-0.16,0.32-0.16,0.507c0,0.178,0.027,0.331,0.086,0.459s0.139,0.233,0.238,0.315c0.102,0.081,0.219,0.141,0.354,0.178
			c0.137,0.038,0.283,0.057,0.441,0.057c0.211,0,0.402-0.021,0.578-0.063c0.174-0.042,0.34-0.102,0.492-0.179
			c0.154-0.076,0.301-0.171,0.441-0.283s0.277-0.24,0.414-0.385V58.722z"/>
		<path fill="#5F5F5F" d="M244.412,61.991c-0.572,0-1.016-0.161-1.326-0.483s-0.465-0.781-0.465-1.379v-4.256h-0.826
			c-0.08,0-0.146-0.024-0.199-0.073c-0.055-0.05-0.08-0.123-0.08-0.221v-0.553l1.154-0.161l0.309-2.121
			c0.018-0.079,0.055-0.142,0.107-0.186c0.055-0.045,0.123-0.066,0.207-0.066h0.693v2.387h2.016v0.994h-2.016v4.165
			c0,0.28,0.068,0.488,0.207,0.626c0.137,0.138,0.312,0.207,0.527,0.207c0.127,0,0.234-0.017,0.326-0.049
			c0.09-0.033,0.168-0.069,0.234-0.108c0.064-0.04,0.121-0.076,0.168-0.109c0.047-0.032,0.088-0.049,0.125-0.049
			c0.047,0,0.084,0.011,0.109,0.032c0.025,0.021,0.053,0.055,0.08,0.101l0.406,0.658c-0.225,0.206-0.49,0.364-0.799,0.477
			C245.064,61.935,244.744,61.991,244.412,61.991z"/>
		<path fill="#5F5F5F" d="M253.094,60.864c-0.168,0.195-0.361,0.365-0.582,0.507c-0.219,0.143-0.451,0.258-0.699,0.347
			s-0.504,0.154-0.768,0.196s-0.523,0.062-0.779,0.062c-0.49,0-0.943-0.083-1.361-0.248c-0.418-0.166-0.779-0.408-1.086-0.729
			c-0.305-0.319-0.543-0.716-0.713-1.189c-0.172-0.474-0.256-1.019-0.256-1.635c0-0.494,0.076-0.955,0.23-1.383
			c0.154-0.427,0.375-0.799,0.662-1.116s0.639-0.566,1.053-0.749c0.416-0.182,0.883-0.272,1.4-0.272
			c0.434,0,0.834,0.071,1.201,0.213c0.365,0.143,0.682,0.35,0.947,0.62c0.268,0.271,0.475,0.604,0.627,1.001
			s0.229,0.849,0.229,1.357c0,0.21-0.023,0.352-0.07,0.424s-0.133,0.108-0.26,0.108h-4.662c0.014,0.425,0.074,0.795,0.182,1.109
			c0.107,0.315,0.256,0.577,0.445,0.788c0.189,0.21,0.414,0.366,0.676,0.469s0.553,0.153,0.875,0.153
			c0.303,0,0.564-0.034,0.787-0.104c0.221-0.07,0.412-0.146,0.574-0.228c0.16-0.082,0.297-0.157,0.406-0.228
			s0.205-0.104,0.291-0.104c0.111,0,0.197,0.042,0.258,0.126L253.094,60.864z M251.967,57.532c0-0.271-0.039-0.521-0.115-0.749
			c-0.078-0.229-0.191-0.428-0.34-0.596c-0.15-0.168-0.332-0.298-0.547-0.392s-0.461-0.14-0.742-0.14
			c-0.574,0-1.025,0.165-1.354,0.497c-0.33,0.331-0.539,0.791-0.627,1.379H251.967z M252.357,51.715l-1.658,1.806
			c-0.07,0.08-0.137,0.135-0.203,0.165c-0.064,0.03-0.152,0.045-0.258,0.045h-0.826l1.035-1.693
			c0.064-0.107,0.137-0.188,0.213-0.242c0.078-0.053,0.197-0.08,0.361-0.08H252.357z"/>
		<path fill="#5F5F5F" d="M104.402,69.564c-0.079,0.104-0.157,0.202-0.234,0.298s-0.15,0.19-0.221,0.283
			c0.224-0.145,0.473-0.256,0.746-0.336c0.273-0.079,0.568-0.119,0.886-0.119c0.396,0,0.774,0.065,1.134,0.196
			s0.676,0.322,0.949,0.574s0.489,0.564,0.647,0.938c0.159,0.374,0.238,0.803,0.238,1.288c0,0.462-0.084,0.896-0.252,1.299
			s-0.405,0.754-0.71,1.05c-0.306,0.297-0.671,0.53-1.096,0.7c-0.424,0.17-0.896,0.256-1.414,0.256c-0.514,0-0.977-0.082-1.39-0.245
			s-0.766-0.396-1.057-0.696c-0.292-0.302-0.517-0.665-0.675-1.093c-0.159-0.427-0.238-0.901-0.238-1.424
			c0-0.448,0.097-0.921,0.291-1.418c0.194-0.497,0.5-1.027,0.92-1.593l2.513-3.366c0.07-0.094,0.168-0.172,0.294-0.234
			c0.126-0.063,0.271-0.095,0.434-0.095h1.218L104.402,69.564z M105.046,74.85c0.322,0,0.614-0.052,0.875-0.157
			c0.261-0.104,0.485-0.248,0.672-0.431c0.187-0.182,0.332-0.398,0.434-0.65s0.154-0.525,0.154-0.819c0-0.322-0.05-0.61-0.151-0.864
			c-0.1-0.255-0.24-0.471-0.42-0.647c-0.18-0.178-0.396-0.312-0.647-0.406s-0.532-0.14-0.84-0.14c-0.322,0-0.611,0.055-0.868,0.164
			c-0.256,0.109-0.476,0.257-0.658,0.441c-0.182,0.184-0.322,0.399-0.42,0.647c-0.098,0.247-0.147,0.506-0.147,0.776
			c0,0.309,0.044,0.591,0.133,0.848c0.088,0.256,0.219,0.476,0.392,0.657c0.172,0.183,0.384,0.325,0.633,0.428
			S104.724,74.85,105.046,74.85z"/>
		<path fill="#5F5F5F" d="M118.157,75.879h-1.477c-0.107,0-0.194-0.029-0.259-0.088c-0.065-0.058-0.117-0.12-0.154-0.186
			l-2.597-4.137c-0.037,0.117-0.082,0.217-0.133,0.301l-2.527,3.836c-0.047,0.065-0.101,0.128-0.161,0.186
			c-0.061,0.059-0.138,0.088-0.231,0.088h-1.393l3.437-5.173l-3.29-4.879h1.477c0.107,0,0.187,0.017,0.238,0.049
			s0.096,0.082,0.133,0.146l2.541,3.941c0.037-0.121,0.088-0.233,0.154-0.336l2.38-3.577c0.042-0.074,0.089-0.131,0.14-0.168
			s0.117-0.056,0.196-0.056h1.421l-3.311,4.815L118.157,75.879z"/>
		<path fill="#5F5F5F" d="M126.962,69.992c-0.037,0.061-0.077,0.104-0.119,0.129c-0.042,0.026-0.096,0.039-0.161,0.039
			c-0.075,0-0.158-0.025-0.249-0.077s-0.201-0.107-0.329-0.168s-0.279-0.117-0.452-0.168c-0.172-0.052-0.378-0.077-0.616-0.077
			c-0.196,0-0.375,0.024-0.536,0.073s-0.297,0.117-0.409,0.203c-0.112,0.087-0.199,0.189-0.259,0.309
			c-0.061,0.118-0.091,0.246-0.091,0.381c0,0.178,0.052,0.324,0.157,0.441c0.105,0.116,0.243,0.217,0.413,0.301
			s0.364,0.16,0.581,0.228s0.438,0.139,0.665,0.214c0.226,0.074,0.448,0.159,0.665,0.255c0.217,0.096,0.411,0.215,0.581,0.357
			s0.308,0.313,0.413,0.515c0.105,0.2,0.157,0.445,0.157,0.734c0,0.332-0.06,0.639-0.178,0.921
			c-0.119,0.282-0.294,0.526-0.525,0.731s-0.517,0.366-0.857,0.482c-0.341,0.117-0.73,0.176-1.169,0.176
			c-0.49,0-0.943-0.082-1.358-0.245c-0.416-0.163-0.763-0.371-1.043-0.623l0.322-0.525c0.038-0.065,0.084-0.115,0.14-0.15
			s0.13-0.053,0.224-0.053c0.088,0,0.18,0.033,0.273,0.099s0.205,0.137,0.336,0.213c0.13,0.077,0.289,0.147,0.476,0.21
			c0.187,0.063,0.42,0.095,0.7,0.095c0.233,0,0.437-0.029,0.609-0.087c0.172-0.059,0.316-0.138,0.43-0.238s0.2-0.216,0.256-0.347
			c0.056-0.131,0.084-0.269,0.084-0.413c0-0.187-0.053-0.342-0.158-0.466c-0.105-0.123-0.243-0.229-0.413-0.318
			c-0.17-0.088-0.365-0.165-0.584-0.23s-0.443-0.136-0.672-0.21c-0.229-0.075-0.453-0.161-0.672-0.259
			c-0.22-0.099-0.415-0.222-0.584-0.371c-0.17-0.149-0.308-0.332-0.413-0.546c-0.105-0.215-0.158-0.477-0.158-0.784
			c0-0.275,0.057-0.539,0.171-0.791c0.115-0.252,0.28-0.474,0.497-0.665c0.217-0.191,0.485-0.345,0.805-0.459
			c0.319-0.114,0.685-0.171,1.096-0.171c0.471,0,0.897,0.074,1.277,0.224s0.706,0.354,0.977,0.616L126.962,69.992z"/>
		<path fill="#5F5F5F" d="M134.691,74.864c-0.168,0.195-0.361,0.365-0.582,0.507c-0.219,0.143-0.451,0.258-0.699,0.347
			s-0.504,0.154-0.768,0.196s-0.523,0.062-0.779,0.062c-0.49,0-0.943-0.083-1.361-0.248c-0.418-0.166-0.779-0.408-1.086-0.729
			c-0.305-0.319-0.543-0.716-0.713-1.189s-0.255-1.019-0.255-1.635c0-0.494,0.077-0.955,0.231-1.383
			c0.154-0.427,0.375-0.799,0.662-1.116s0.639-0.566,1.053-0.749c0.416-0.182,0.883-0.272,1.4-0.272
			c0.434,0,0.834,0.071,1.201,0.213c0.365,0.143,0.682,0.35,0.947,0.62c0.268,0.271,0.475,0.604,0.627,1.001
			s0.229,0.849,0.229,1.357c0,0.21-0.023,0.352-0.07,0.424s-0.133,0.108-0.26,0.108h-4.662c0.014,0.425,0.074,0.795,0.182,1.109
			c0.107,0.315,0.256,0.577,0.445,0.788c0.189,0.21,0.414,0.366,0.676,0.469s0.553,0.153,0.875,0.153
			c0.303,0,0.564-0.034,0.787-0.104c0.221-0.07,0.412-0.146,0.574-0.228c0.16-0.082,0.297-0.157,0.406-0.228
			s0.205-0.104,0.291-0.104c0.111,0,0.197,0.042,0.258,0.126L134.691,74.864z M133.564,71.532c0-0.271-0.039-0.521-0.115-0.749
			c-0.078-0.229-0.191-0.428-0.34-0.596c-0.15-0.168-0.332-0.298-0.547-0.392s-0.461-0.14-0.742-0.14
			c-0.574,0-1.025,0.165-1.354,0.497c-0.33,0.331-0.539,0.791-0.627,1.379H133.564z"/>
		<path fill="#5F5F5F" d="M136.265,75.879v-7.112h0.819c0.191,0,0.31,0.091,0.356,0.273l0.099,0.679
			c0.261-0.312,0.552-0.568,0.871-0.767s0.694-0.297,1.123-0.297c0.472,0,0.854,0.129,1.148,0.388
			c0.294,0.26,0.509,0.61,0.644,1.054c0.104-0.252,0.236-0.469,0.399-0.65c0.163-0.183,0.346-0.332,0.546-0.448
			c0.201-0.117,0.414-0.203,0.641-0.259c0.227-0.057,0.456-0.084,0.69-0.084c0.377,0,0.715,0.06,1.012,0.178
			c0.295,0.119,0.547,0.293,0.752,0.521c0.205,0.229,0.361,0.512,0.469,0.848s0.162,0.719,0.162,1.147v4.529h-1.373V71.35
			c0-0.531-0.115-0.933-0.346-1.204c-0.232-0.271-0.568-0.405-1.012-0.405c-0.197,0-0.383,0.033-0.56,0.102
			c-0.178,0.067-0.333,0.169-0.466,0.304c-0.133,0.136-0.238,0.304-0.315,0.505c-0.077,0.2-0.115,0.434-0.115,0.699v4.529h-1.372
			V71.35c0-0.551-0.109-0.956-0.329-1.218c-0.219-0.261-0.541-0.392-0.966-0.392c-0.294,0-0.567,0.077-0.819,0.23
			c-0.252,0.154-0.482,0.364-0.692,0.63v5.278H136.265z"/>
		<path fill="#5F5F5F" d="M152.799,68.767v7.561c0,0.294-0.039,0.567-0.115,0.822c-0.078,0.254-0.199,0.476-0.365,0.665
			c-0.164,0.188-0.379,0.337-0.643,0.444s-0.582,0.161-0.957,0.161c-0.152,0-0.295-0.012-0.422-0.035
			c-0.129-0.023-0.258-0.056-0.389-0.098l0.055-0.742c0.02-0.089,0.061-0.138,0.123-0.147c0.062-0.009,0.184-0.014,0.361-0.014
			c0.359,0,0.613-0.082,0.762-0.245c0.15-0.163,0.225-0.434,0.225-0.812v-7.561H152.799z M153.059,66.569
			c0,0.126-0.027,0.246-0.078,0.36s-0.121,0.215-0.209,0.301c-0.09,0.086-0.191,0.154-0.305,0.203
			c-0.115,0.049-0.238,0.073-0.369,0.073c-0.125,0-0.244-0.024-0.355-0.073c-0.113-0.049-0.211-0.117-0.299-0.203
			c-0.086-0.086-0.152-0.187-0.203-0.301c-0.049-0.114-0.072-0.234-0.072-0.36c0-0.131,0.023-0.254,0.072-0.368
			c0.051-0.114,0.117-0.215,0.203-0.301c0.088-0.086,0.186-0.154,0.299-0.203c0.111-0.049,0.23-0.073,0.355-0.073
			c0.131,0,0.254,0.024,0.369,0.073c0.113,0.049,0.215,0.117,0.305,0.203c0.088,0.086,0.158,0.187,0.209,0.301
			S153.059,66.438,153.059,66.569z"/>
		<path fill="#5F5F5F" d="M160.695,68.767v7.112h-0.82c-0.186,0-0.307-0.091-0.363-0.273l-0.098-0.714
			c-0.154,0.164-0.314,0.313-0.482,0.448c-0.168,0.136-0.348,0.251-0.539,0.347s-0.395,0.17-0.609,0.224s-0.445,0.081-0.693,0.081
			c-0.393,0-0.736-0.065-1.033-0.196c-0.295-0.131-0.545-0.313-0.744-0.55c-0.201-0.235-0.354-0.519-0.455-0.851
			c-0.104-0.331-0.154-0.697-0.154-1.099v-4.529h1.371v4.529c0,0.509,0.117,0.904,0.35,1.187c0.234,0.282,0.592,0.424,1.072,0.424
			c0.35,0,0.676-0.083,0.98-0.249c0.303-0.165,0.588-0.393,0.854-0.683v-5.208H160.695z"/>
		<path fill="#5F5F5F" d="M163.895,70.132c0.229-0.467,0.504-0.833,0.826-1.099c0.32-0.267,0.709-0.399,1.162-0.399
			c0.152,0,0.299,0.018,0.438,0.053c0.137,0.035,0.258,0.087,0.359,0.157l-0.09,1.029c-0.033,0.126-0.111,0.188-0.232,0.188
			c-0.064,0-0.162-0.013-0.293-0.038s-0.271-0.038-0.42-0.038c-0.221,0-0.414,0.031-0.582,0.094
			c-0.168,0.063-0.318,0.156-0.451,0.28s-0.25,0.275-0.354,0.455s-0.199,0.384-0.287,0.612v4.452h-1.365v-7.112h0.785
			c0.148,0,0.25,0.027,0.305,0.081c0.053,0.054,0.092,0.148,0.115,0.283L163.895,70.132z"/>
		<path fill="#5F5F5F" d="M170.768,68.655c0.523,0,0.996,0.085,1.418,0.255c0.422,0.171,0.781,0.416,1.078,0.735
			s0.523,0.705,0.682,1.155s0.238,0.955,0.238,1.515c0,0.561-0.08,1.066-0.238,1.52s-0.385,0.838-0.682,1.155
			s-0.656,0.561-1.078,0.731c-0.422,0.17-0.895,0.255-1.418,0.255c-0.527,0-1.002-0.085-1.424-0.255
			c-0.422-0.171-0.783-0.414-1.082-0.731s-0.529-0.702-0.689-1.155s-0.242-0.959-0.242-1.52c0-0.56,0.082-1.064,0.242-1.515
			s0.391-0.836,0.689-1.155s0.66-0.564,1.082-0.735C169.766,68.74,170.24,68.655,170.768,68.655z M170.768,74.913
			c0.672,0,1.174-0.227,1.506-0.679c0.33-0.453,0.496-1.09,0.496-1.911s-0.166-1.46-0.496-1.915
			c-0.332-0.455-0.834-0.683-1.506-0.683c-0.682,0-1.189,0.228-1.521,0.683c-0.334,0.455-0.502,1.094-0.502,1.915
			s0.168,1.458,0.502,1.911C169.578,74.687,170.086,74.913,170.768,74.913z"/>
		<path fill="#5F5F5F" d="M179.896,69.992c-0.039,0.061-0.078,0.104-0.119,0.129c-0.043,0.026-0.096,0.039-0.162,0.039
			c-0.074,0-0.156-0.025-0.248-0.077s-0.201-0.107-0.328-0.168c-0.129-0.061-0.279-0.117-0.453-0.168
			c-0.172-0.052-0.377-0.077-0.615-0.077c-0.195,0-0.375,0.024-0.535,0.073c-0.162,0.049-0.299,0.117-0.41,0.203
			c-0.111,0.087-0.197,0.189-0.258,0.309c-0.062,0.118-0.092,0.246-0.092,0.381c0,0.178,0.053,0.324,0.158,0.441
			c0.104,0.116,0.242,0.217,0.412,0.301s0.363,0.16,0.582,0.228c0.217,0.067,0.438,0.139,0.664,0.214
			c0.227,0.074,0.447,0.159,0.664,0.255c0.219,0.096,0.412,0.215,0.582,0.357s0.309,0.313,0.412,0.515
			c0.105,0.2,0.158,0.445,0.158,0.734c0,0.332-0.059,0.639-0.178,0.921s-0.295,0.526-0.525,0.731s-0.518,0.366-0.857,0.482
			c-0.342,0.117-0.73,0.176-1.17,0.176c-0.49,0-0.941-0.082-1.357-0.245s-0.764-0.371-1.043-0.623l0.322-0.525
			c0.037-0.065,0.084-0.115,0.141-0.15c0.055-0.035,0.129-0.053,0.223-0.053c0.09,0,0.18,0.033,0.273,0.099s0.205,0.137,0.336,0.213
			c0.131,0.077,0.289,0.147,0.477,0.21c0.186,0.063,0.42,0.095,0.699,0.095c0.234,0,0.436-0.029,0.609-0.087
			c0.172-0.059,0.316-0.138,0.43-0.238c0.115-0.101,0.199-0.216,0.256-0.347s0.084-0.269,0.084-0.413
			c0-0.187-0.053-0.342-0.156-0.466c-0.105-0.123-0.244-0.229-0.414-0.318c-0.17-0.088-0.365-0.165-0.584-0.23
			c-0.221-0.065-0.443-0.136-0.672-0.21c-0.229-0.075-0.453-0.161-0.672-0.259c-0.221-0.099-0.414-0.222-0.586-0.371
			c-0.17-0.149-0.307-0.332-0.412-0.546c-0.105-0.215-0.158-0.477-0.158-0.784c0-0.275,0.059-0.539,0.172-0.791
			c0.115-0.252,0.279-0.474,0.498-0.665c0.217-0.191,0.484-0.345,0.805-0.459c0.318-0.114,0.684-0.171,1.096-0.171
			c0.471,0,0.896,0.074,1.277,0.224c0.379,0.149,0.705,0.354,0.977,0.616L179.896,69.992z"/>
		<path fill="#5F5F5F" d="M185.896,72.111c0,0.848,0.105,1.674,0.318,2.478s0.521,1.566,0.93,2.286
			c0.068,0.132,0.086,0.234,0.055,0.306c-0.033,0.072-0.082,0.13-0.15,0.174l-0.521,0.318c-0.301-0.46-0.555-0.917-0.766-1.371
			c-0.209-0.454-0.381-0.91-0.51-1.368c-0.131-0.458-0.225-0.921-0.285-1.389s-0.09-0.946-0.09-1.434c0-0.492,0.029-0.973,0.09-1.44
			s0.154-0.931,0.285-1.389c0.129-0.458,0.301-0.914,0.51-1.368c0.211-0.454,0.465-0.911,0.766-1.371l0.521,0.318
			c0.068,0.044,0.117,0.102,0.15,0.174c0.031,0.071,0.014,0.174-0.055,0.306c-0.408,0.72-0.717,1.483-0.93,2.289
			S185.896,71.263,185.896,72.111z"/>
		<path fill="#5F5F5F" d="M195.113,75.879h-1.141c-0.227,0-0.393-0.09-0.498-0.27l-2.129-2.988
			c-0.068-0.101-0.143-0.171-0.223-0.213s-0.199-0.063-0.359-0.063h-0.834v3.534h-1.279v-8.616h2.484
			c0.557,0,1.035,0.058,1.438,0.171c0.402,0.114,0.734,0.276,0.996,0.486s0.455,0.463,0.582,0.759
			c0.125,0.296,0.189,0.628,0.189,0.996c0,0.3-0.047,0.582-0.139,0.846c-0.092,0.265-0.227,0.501-0.404,0.711
			c-0.178,0.211-0.396,0.392-0.652,0.544c-0.256,0.151-0.545,0.268-0.869,0.348c0.16,0.096,0.299,0.229,0.414,0.402L195.113,75.879z
			 M191.094,71.415c0.328,0,0.617-0.04,0.867-0.12s0.459-0.193,0.627-0.339c0.168-0.146,0.293-0.32,0.377-0.522
			c0.084-0.201,0.127-0.425,0.127-0.669c0-0.496-0.164-0.87-0.49-1.122s-0.814-0.378-1.467-0.378h-1.205v3.15H191.094z"/>
		<path fill="#5F5F5F" d="M200.98,75.009c-0.145,0.168-0.311,0.313-0.498,0.436s-0.387,0.221-0.6,0.297s-0.432,0.132-0.656,0.168
			c-0.227,0.036-0.449,0.054-0.67,0.054c-0.42,0-0.809-0.071-1.166-0.213c-0.359-0.142-0.668-0.35-0.932-0.624
			c-0.262-0.274-0.465-0.614-0.611-1.021c-0.146-0.405-0.219-0.873-0.219-1.4c0-0.424,0.066-0.819,0.197-1.186
			c0.133-0.365,0.322-0.685,0.568-0.957c0.246-0.271,0.547-0.485,0.902-0.642s0.756-0.234,1.199-0.234
			c0.373,0,0.715,0.062,1.029,0.184s0.586,0.299,0.812,0.531c0.229,0.231,0.408,0.518,0.537,0.857
			c0.131,0.34,0.195,0.729,0.195,1.164c0,0.18-0.02,0.301-0.059,0.363c-0.041,0.062-0.115,0.093-0.223,0.093h-3.996
			c0.012,0.364,0.064,0.681,0.156,0.951c0.092,0.27,0.219,0.495,0.381,0.675s0.355,0.314,0.578,0.402
			c0.225,0.088,0.475,0.132,0.75,0.132c0.26,0,0.486-0.03,0.676-0.09c0.189-0.061,0.354-0.125,0.492-0.195
			c0.137-0.07,0.254-0.135,0.348-0.195c0.094-0.06,0.178-0.09,0.248-0.09c0.098,0,0.17,0.036,0.223,0.108L200.98,75.009z
			 M200.016,72.153c0-0.232-0.033-0.446-0.1-0.643c-0.066-0.195-0.164-0.366-0.291-0.51c-0.129-0.145-0.285-0.256-0.469-0.336
			s-0.395-0.12-0.635-0.12c-0.492,0-0.879,0.142-1.162,0.426c-0.281,0.284-0.461,0.678-0.537,1.183H200.016z"/>
		<path fill="#5F5F5F" d="M207.527,70.011v0.438c0,0.144-0.09,0.233-0.27,0.27l-0.654,0.096c0.057,0.124,0.1,0.256,0.131,0.394
			c0.033,0.138,0.049,0.283,0.049,0.435c0,0.301-0.059,0.571-0.174,0.813s-0.275,0.449-0.48,0.621
			c-0.203,0.172-0.447,0.304-0.729,0.396c-0.281,0.093-0.592,0.139-0.928,0.139c-0.275,0-0.533-0.03-0.773-0.091
			c-0.119,0.072-0.211,0.151-0.273,0.237s-0.092,0.171-0.092,0.255c0,0.141,0.059,0.244,0.176,0.312
			c0.119,0.067,0.273,0.117,0.463,0.146c0.189,0.03,0.408,0.049,0.654,0.058c0.246,0.008,0.496,0.021,0.75,0.039
			c0.254,0.018,0.504,0.05,0.75,0.096s0.463,0.12,0.654,0.222c0.189,0.103,0.344,0.242,0.461,0.42
			c0.117,0.179,0.178,0.409,0.178,0.693c0,0.264-0.066,0.52-0.195,0.768c-0.131,0.248-0.32,0.469-0.566,0.66
			c-0.248,0.192-0.551,0.346-0.906,0.462c-0.357,0.116-0.76,0.174-1.213,0.174c-0.451,0-0.846-0.044-1.18-0.132
			s-0.611-0.206-0.834-0.354c-0.221-0.148-0.387-0.32-0.498-0.517c-0.109-0.195-0.164-0.399-0.164-0.611
			c0-0.296,0.092-0.547,0.275-0.753s0.439-0.367,0.762-0.483c-0.176-0.08-0.314-0.189-0.42-0.327
			c-0.104-0.138-0.154-0.321-0.154-0.549c0-0.088,0.016-0.179,0.047-0.273c0.031-0.094,0.082-0.188,0.146-0.281
			c0.066-0.095,0.148-0.184,0.246-0.268s0.211-0.16,0.34-0.228c-0.301-0.168-0.537-0.392-0.709-0.669
			c-0.172-0.278-0.258-0.604-0.258-0.976c0-0.3,0.059-0.569,0.174-0.81c0.117-0.24,0.277-0.446,0.484-0.618
			c0.205-0.172,0.451-0.304,0.738-0.396c0.285-0.093,0.598-0.139,0.938-0.139c0.529,0,0.982,0.11,1.363,0.33H207.527z
			 M206.34,76.197c0-0.145-0.041-0.26-0.121-0.346s-0.188-0.153-0.326-0.204c-0.139-0.05-0.299-0.086-0.482-0.107
			c-0.186-0.022-0.379-0.039-0.58-0.051c-0.201-0.013-0.408-0.023-0.621-0.033c-0.211-0.01-0.416-0.029-0.611-0.058
			c-0.209,0.104-0.379,0.23-0.514,0.379c-0.133,0.147-0.201,0.321-0.201,0.521c0,0.128,0.033,0.248,0.1,0.36
			c0.066,0.111,0.168,0.209,0.307,0.291c0.137,0.082,0.311,0.146,0.521,0.191c0.209,0.046,0.461,0.069,0.752,0.069
			c0.289,0,0.543-0.025,0.764-0.075c0.219-0.05,0.404-0.12,0.555-0.21s0.264-0.197,0.342-0.321S206.34,76.345,206.34,76.197z
			 M204.473,72.837c0.209,0,0.391-0.028,0.549-0.084s0.291-0.135,0.396-0.237c0.105-0.102,0.186-0.225,0.24-0.369
			c0.055-0.144,0.082-0.302,0.082-0.474c0-0.352-0.107-0.633-0.322-0.843c-0.213-0.21-0.529-0.315-0.945-0.315
			c-0.412,0-0.725,0.105-0.938,0.315c-0.215,0.21-0.322,0.491-0.322,0.843c0,0.172,0.027,0.329,0.082,0.471
			c0.053,0.143,0.133,0.265,0.24,0.366c0.105,0.103,0.236,0.183,0.395,0.24S204.27,72.837,204.473,72.837z"/>
		<path fill="#5F5F5F" d="M209.699,70.953c0.195-0.4,0.432-0.714,0.707-0.942c0.277-0.228,0.609-0.342,0.996-0.342
			c0.133,0,0.258,0.015,0.375,0.045c0.119,0.03,0.221,0.075,0.311,0.135l-0.078,0.882c-0.029,0.108-0.096,0.162-0.199,0.162
			c-0.055,0-0.141-0.011-0.252-0.032c-0.111-0.022-0.232-0.033-0.359-0.033c-0.188,0-0.354,0.026-0.498,0.081
			c-0.145,0.054-0.273,0.134-0.387,0.239c-0.115,0.106-0.215,0.236-0.303,0.391s-0.17,0.329-0.246,0.524v3.816h-1.17v-6.096h0.672
			c0.127,0,0.215,0.022,0.26,0.068c0.047,0.046,0.08,0.127,0.1,0.243L209.699,70.953z"/>
		<path fill="#5F5F5F" d="M212.836,70.635c0.34-0.324,0.709-0.565,1.107-0.726s0.836-0.24,1.311-0.24
			c0.348,0,0.656,0.057,0.924,0.171c0.27,0.114,0.494,0.273,0.678,0.478c0.186,0.203,0.324,0.447,0.418,0.731
			s0.141,0.598,0.141,0.942v3.888h-0.521c-0.117,0-0.205-0.019-0.264-0.057c-0.061-0.038-0.109-0.109-0.145-0.213l-0.125-0.534
			c-0.156,0.144-0.311,0.271-0.463,0.381s-0.311,0.204-0.477,0.282c-0.166,0.077-0.344,0.137-0.531,0.177s-0.396,0.06-0.625,0.06
			c-0.24,0-0.465-0.032-0.674-0.099c-0.211-0.066-0.393-0.167-0.549-0.303c-0.156-0.137-0.279-0.307-0.369-0.511
			c-0.09-0.203-0.135-0.441-0.135-0.714c0-0.239,0.064-0.471,0.193-0.692c0.131-0.223,0.344-0.421,0.637-0.598
			c0.295-0.176,0.678-0.319,1.152-0.432s1.057-0.176,1.748-0.192v-0.443c0-0.46-0.098-0.805-0.293-1.032
			c-0.195-0.229-0.484-0.342-0.863-0.342c-0.258,0-0.473,0.032-0.646,0.096c-0.174,0.064-0.324,0.135-0.449,0.213
			c-0.127,0.078-0.236,0.149-0.33,0.213c-0.094,0.064-0.191,0.097-0.291,0.097c-0.08,0-0.148-0.022-0.207-0.066
			s-0.105-0.096-0.141-0.156L212.836,70.635z M216.268,73.173c-0.475,0.016-0.879,0.053-1.211,0.111
			c-0.332,0.058-0.602,0.135-0.811,0.23c-0.207,0.097-0.357,0.209-0.449,0.339c-0.092,0.131-0.139,0.275-0.139,0.436
			c0,0.152,0.025,0.283,0.076,0.393c0.049,0.11,0.117,0.2,0.203,0.271c0.086,0.069,0.188,0.121,0.303,0.152
			c0.115,0.032,0.242,0.049,0.379,0.049c0.18,0,0.344-0.019,0.494-0.055s0.291-0.087,0.424-0.152
			c0.131-0.066,0.258-0.147,0.377-0.243c0.121-0.097,0.238-0.206,0.354-0.33V73.173z"/>
		<path fill="#5F5F5F" d="M222.58,70.833c-0.031,0.052-0.066,0.089-0.102,0.111c-0.035,0.021-0.082,0.032-0.139,0.032
			c-0.062,0-0.135-0.021-0.213-0.065s-0.172-0.092-0.281-0.145c-0.109-0.052-0.238-0.1-0.387-0.144s-0.324-0.066-0.529-0.066
			c-0.168,0-0.32,0.021-0.459,0.063c-0.137,0.042-0.254,0.1-0.35,0.174s-0.17,0.162-0.223,0.264
			c-0.053,0.103-0.078,0.211-0.078,0.327c0,0.152,0.045,0.278,0.135,0.378c0.09,0.101,0.209,0.187,0.354,0.258
			c0.146,0.072,0.312,0.138,0.498,0.195c0.188,0.059,0.377,0.119,0.57,0.183c0.195,0.064,0.385,0.138,0.57,0.22
			s0.352,0.184,0.498,0.306s0.264,0.27,0.354,0.441s0.135,0.382,0.135,0.63c0,0.284-0.051,0.547-0.152,0.789
			s-0.252,0.451-0.449,0.627c-0.199,0.176-0.443,0.313-0.736,0.414c-0.291,0.1-0.625,0.149-1.002,0.149
			c-0.42,0-0.807-0.069-1.164-0.21c-0.355-0.14-0.652-0.317-0.893-0.534l0.275-0.449c0.031-0.057,0.072-0.1,0.119-0.129
			c0.049-0.03,0.113-0.046,0.193-0.046c0.076,0,0.154,0.028,0.234,0.084c0.08,0.057,0.176,0.117,0.287,0.184
			c0.111,0.065,0.248,0.126,0.408,0.18s0.359,0.081,0.6,0.081c0.201,0,0.375-0.024,0.521-0.075c0.148-0.05,0.271-0.117,0.369-0.204
			c0.098-0.086,0.172-0.185,0.219-0.297c0.049-0.111,0.072-0.229,0.072-0.354c0-0.16-0.045-0.293-0.135-0.399
			c-0.09-0.105-0.207-0.196-0.354-0.272s-0.312-0.143-0.502-0.198c-0.188-0.056-0.379-0.116-0.574-0.18
			c-0.197-0.064-0.389-0.139-0.576-0.223c-0.189-0.084-0.355-0.189-0.502-0.317s-0.264-0.284-0.354-0.469
			c-0.09-0.184-0.135-0.407-0.135-0.672c0-0.235,0.049-0.462,0.146-0.678s0.24-0.406,0.426-0.57s0.416-0.295,0.689-0.393
			c0.275-0.098,0.588-0.147,0.939-0.147c0.404,0,0.77,0.064,1.096,0.192s0.605,0.304,0.836,0.528L222.58,70.833z"/>
		<path fill="#5F5F5F" d="M225.07,72.111c0-0.849-0.107-1.676-0.32-2.481c-0.215-0.806-0.525-1.569-0.934-2.289
			c-0.068-0.132-0.086-0.234-0.051-0.306c0.033-0.072,0.084-0.13,0.152-0.174l0.521-0.318c0.301,0.46,0.555,0.917,0.764,1.371
			c0.207,0.454,0.377,0.91,0.51,1.368c0.131,0.458,0.227,0.921,0.287,1.389s0.09,0.948,0.09,1.44c0,0.487-0.029,0.966-0.09,1.434
			s-0.156,0.931-0.287,1.389c-0.133,0.458-0.303,0.914-0.51,1.368c-0.209,0.454-0.463,0.911-0.764,1.371l-0.521-0.318
			c-0.068-0.044-0.119-0.102-0.152-0.174c-0.035-0.071-0.018-0.174,0.051-0.306c0.408-0.72,0.719-1.482,0.934-2.286
			C224.963,73.785,225.07,72.959,225.07,72.111z"/>
		<path fill="#5F5F5F" d="M227.342,75.06c0-0.126,0.023-0.245,0.07-0.356c0.047-0.112,0.111-0.21,0.191-0.294
			c0.082-0.084,0.18-0.15,0.291-0.2c0.113-0.049,0.234-0.073,0.365-0.073c0.125,0,0.244,0.024,0.355,0.073
			c0.113,0.05,0.211,0.116,0.295,0.2s0.15,0.182,0.199,0.294c0.049,0.111,0.074,0.23,0.074,0.356c0,0.131-0.025,0.252-0.074,0.364
			s-0.115,0.21-0.199,0.294s-0.182,0.149-0.295,0.196c-0.111,0.047-0.23,0.07-0.355,0.07c-0.131,0-0.252-0.023-0.365-0.07
			c-0.111-0.047-0.209-0.112-0.291-0.196c-0.08-0.084-0.145-0.182-0.191-0.294S227.342,75.19,227.342,75.06z"/>
	</g>
</g>
</svg>
