<?xml version="1.0" encoding="utf-8"?>
<!-- Generator: Adobe Illustrator 15.0.0, SVG Export Plug-In . SVG Version: 6.00 Build 0)  -->
<!DOCTYPE svg PUBLIC "-//W3C//DTD SVG 1.1//EN" "http://www.w3.org/Graphics/SVG/1.1/DTD/svg11.dtd">
<svg version="1.1" id="Layer_1" xmlns="http://www.w3.org/2000/svg" xmlns:xlink="http://www.w3.org/1999/xlink" x="0px" y="0px"
	 width="24px" height="24px" viewBox="52 52 24 24" enable-background="new 52 52 24 24" xml:space="preserve">
<g>
	<g>
		
			<linearGradient id="SVGID_1_" gradientUnits="userSpaceOnUse" x1="-537.0234" y1="282.7764" x2="-523.2567" y2="263.1153" gradientTransform="matrix(1 0 0 1 594.1406 -208.9453)">
			<stop  offset="0" style="stop-color:#FFB900"/>
			<stop  offset="1" style="stop-color:#9100EB"/>
		</linearGradient>
		<circle fill="url(#SVGID_1_)" cx="64" cy="64" r="12"/>
	</g>
	<g>
		<g>
			<path fill="#FFFFFF" d="M67.438,71.5h-6.875c-2.24,0-4.062-1.822-4.062-4.062v-6.875c0-2.24,1.823-4.062,4.062-4.062h6.875
				c2.24,0,4.062,1.822,4.062,4.062v6.875C71.5,69.678,69.678,71.5,67.438,71.5z M60.562,57.75c-1.551,0-2.812,1.262-2.812,2.812
				v6.875c0,1.551,1.262,2.812,2.812,2.812h6.875c1.551,0,2.812-1.262,2.812-2.812v-6.875c0-1.551-1.262-2.812-2.812-2.812H60.562z"
				/>
		</g>
		<g>
			<path fill="#FFFFFF" d="M64,67.75c-2.068,0-3.75-1.683-3.75-3.75c0-2.068,1.682-3.75,3.75-3.75c2.067,0,3.75,1.682,3.75,3.75
				C67.75,66.067,66.067,67.75,64,67.75z M64,61.5c-1.378,0-2.5,1.122-2.5,2.5c0,1.379,1.122,2.5,2.5,2.5c1.379,0,2.5-1.121,2.5-2.5
				C66.5,62.622,65.379,61.5,64,61.5z"/>
		</g>
		<g>
			<circle fill="#FFFFFF" cx="67.984" cy="60.016" r="0.859"/>
		</g>
	</g>
</g>
</svg>
