<?xml version="1.0" encoding="utf-8"?>
<!-- Generator: Adobe Illustrator 15.0.0, SVG Export Plug-In . SVG Version: 6.00 Build 0)  -->
<!DOCTYPE svg PUBLIC "-//W3C//DTD SVG 1.1//EN" "http://www.w3.org/Graphics/SVG/1.1/DTD/svg11.dtd">
<svg version="1.1" id="Layer_1" xmlns="http://www.w3.org/2000/svg" xmlns:xlink="http://www.w3.org/1999/xlink" x="0px" y="0px"
	 width="42px" height="34.125px" viewBox="-5 -1.062 42 34.125" enable-background="new -5 -1.062 42 34.125" xml:space="preserve">
<g id="truck_1_">
	<path fill="#8D161A" d="M27.592,10.021c-0.243-0.365-0.653-0.584-1.092-0.584h-1.312c-0.726,0-1.312,0.587-1.312,1.312v7.875
		c0,0.726,0.587,1.312,1.312,1.312h5.25c0.726,0,1.312-0.587,1.312-1.312v-1.969c0-0.259-0.077-0.513-0.221-0.729L27.592,10.021z
		 M30.438,18.625h-5.25V10.75H26.5l3.938,5.906V18.625z"/>
	<path fill="#8D161A" d="M36.339,15.128l-5.25-7.875C30.355,6.155,29.13,5.5,27.812,5.5h-5.25V2.875c0-2.17-1.767-3.938-3.938-3.938
		H-1.062C-3.233-1.062-5,0.705-5,2.875v14.438c0,2.171,1.767,3.938,3.938,3.938l0,0v3.938c0,2.171,1.767,3.938,3.938,3.938h1.499
		c0.586,2.259,2.625,3.938,5.065,3.938c2.437,0,4.476-1.679,5.062-3.938h6.934c0.586,2.259,2.625,3.938,5.064,3.938
		c2.437,0,4.476-1.679,5.062-3.938h1.502c2.171,0,3.938-1.767,3.938-3.938v-7.875C37,16.533,36.771,15.777,36.339,15.128z
		 M-1.062,18.625c-0.724,0-1.312-0.587-1.312-1.312V2.875c0-0.726,0.588-1.312,1.312-1.312h19.688c0.726,0,1.312,0.587,1.312,1.312
		V5.5v2.625v9.188c0,0.726-0.587,1.312-1.312,1.312H-1.062z M9.439,30.438c-1.451,0-2.625-1.177-2.625-2.625
		s1.174-2.625,2.625-2.625c1.449,0,2.625,1.177,2.625,2.625S10.887,30.438,9.439,30.438z M26.5,30.438
		c-1.451,0-2.625-1.177-2.625-2.625s1.174-2.625,2.625-2.625c1.448,0,2.625,1.177,2.625,2.625S27.948,30.438,26.5,30.438z
		 M34.375,25.188c0,0.726-0.587,1.312-1.312,1.312h-1.5c-0.587-2.259-2.625-3.938-5.062-3.938c-2.44,0-4.479,1.679-5.065,3.938
		h-6.932c-0.586-2.259-2.625-3.938-5.062-3.938c-2.439,0-4.478,1.679-5.064,3.938h-1.5c-0.724,0-1.312-0.587-1.312-1.312V21.25
		h17.062c2.171,0,3.938-1.767,3.938-3.938V8.125h5.25c0.438,0,0.849,0.219,1.092,0.584l5.25,7.875
		c0.144,0.216,0.221,0.47,0.221,0.729V25.188z"/>
</g>
</svg>
