<?xml version="1.0" encoding="utf-8"?>
<!-- Generator: Adobe Illustrator 15.0.0, SVG Export Plug-In . SVG Version: 6.00 Build 0)  -->
<!DOCTYPE svg PUBLIC "-//W3C//DTD SVG 1.1//EN" "http://www.w3.org/Graphics/SVG/1.1/DTD/svg11.dtd">
<svg version="1.1" id="Layer_1" xmlns="http://www.w3.org/2000/svg" xmlns:xlink="http://www.w3.org/1999/xlink" x="0px" y="0px"
	 width="14px" height="15px" viewBox="249 248.5 14 15" enable-background="new 249 248.5 14 15" xml:space="preserve">
<g>
	<path fill="#42B854" d="M255.439,256.357c-0.357-0.331-0.754-0.794-0.926-1.204c-0.026-0.053-0.079-0.185,0-0.291
		c0.158-0.211,0.186-0.225,0.356-0.423c0.119-0.146,0.212-0.278,0.172-0.397l-0.595-1.547c-0.053-0.106-0.211-0.119-0.396-0.132
		c-0.158,0-0.33,0-0.449,0.026c-0.265,0.093-0.807,0.807-0.873,1.323c-0.146,1.124,0.873,2.619,1.891,3.544
		c1.019,0.939,2.592,1.826,3.702,1.574c0.516-0.119,1.177-0.714,1.229-0.992c0.026-0.119,0.013-0.29-0.014-0.449
		c-0.013-0.186-0.053-0.317-0.159-0.37l-1.348-0.622c-0.119-0.066-0.238-0.013-0.357,0.133c-0.145,0.198-0.211,0.277-0.383,0.489
		c-0.093,0.119-0.159,0.198-0.265,0.211c-0.119,0.026-0.277-0.039-0.304-0.039C256.297,257.045,255.809,256.688,255.439,256.357
		L255.439,256.357z M250.996,261.105l0.767-1.944c-0.846-0.979-1.361-2.262-1.361-3.664c0-3.095,2.512-5.595,5.605-5.595
		c3.093,0,5.592,2.5,5.592,5.595c0,3.096-2.499,5.608-5.592,5.608c-1.243,0-2.38-0.396-3.306-1.085L250.996,261.105z M250.058,259.2
		L249,263.434l3.781-1.72c0.965,0.503,2.062,0.794,3.226,0.794c3.859,0,6.993-3.136,6.993-7.011c0-3.862-3.134-6.997-6.993-6.997
		c-3.874,0-7.007,3.135-7.007,6.997C249,256.859,249.397,258.129,250.058,259.2L250.058,259.2z"/>
</g>
</svg>
