<?xml version="1.0" encoding="utf-8"?>
<!-- Generator: Adobe Illustrator 15.0.0, SVG Export Plug-In . SVG Version: 6.00 Build 0)  -->
<!DOCTYPE svg PUBLIC "-//W3C//DTD SVG 1.1//EN" "http://www.w3.org/Graphics/SVG/1.1/DTD/svg11.dtd">
<svg version="1.1" id="Layer_1" xmlns="http://www.w3.org/2000/svg" xmlns:xlink="http://www.w3.org/1999/xlink" x="0px" y="0px"
	 width="26px" height="26px" viewBox="4 0 26 26" enable-background="new 4 0 26 26" xml:space="preserve">
<g>
	<g>
		<path fill="#B9519E" d="M17.233,0C10.24,0,4.568,5.67,4.568,12.666c0,2.393,0.664,4.631,1.817,6.54L4.101,26l7.012-2.244
			c1.814,1.003,3.901,1.575,6.121,1.575c6.995,0,12.666-5.671,12.666-12.666S24.229,0,17.233,0z M17.233,23.209
			c-2.141,0-4.135-0.643-5.8-1.743l-4.051,1.298L8.7,18.848c-1.262-1.738-2.008-3.875-2.008-6.182
			c0-5.814,4.729-10.543,10.542-10.543c5.814,0,10.544,4.729,10.544,10.543C27.777,18.48,23.048,23.209,17.233,23.209z
			 M23.173,15.544c-0.318-0.175-1.877-1.017-2.17-1.135c-0.293-0.119-0.506-0.181-0.733,0.135c-0.229,0.313-0.875,1.021-1.071,1.229
			c-0.197,0.209-0.386,0.229-0.703,0.054c-0.316-0.173-1.348-0.554-2.541-1.701c-0.929-0.893-1.537-1.976-1.715-2.306
			c-0.176-0.331,0-0.499,0.168-0.654c0.15-0.139,0.338-0.365,0.506-0.548c0.168-0.183,0.228-0.315,0.344-0.527
			c0.115-0.211,0.068-0.402-0.006-0.567c-0.075-0.165-0.662-1.78-0.907-2.438c-0.245-0.658-0.519-0.56-0.707-0.567
			s-0.403-0.042-0.619-0.05c-0.215-0.009-0.568,0.059-0.876,0.372c-0.31,0.312-1.174,1.062-1.233,2.654
			c-0.06,1.591,1.042,3.171,1.194,3.393c0.154,0.222,2.102,3.67,5.34,5.086c3.238,1.418,3.256,0.985,3.85,0.955
			c0.595-0.031,1.941-0.712,2.24-1.455c0.297-0.746,0.32-1.393,0.245-1.529S23.489,15.717,23.173,15.544z"/>
	</g>
</g>
</svg>
