<?xml version="1.0" encoding="utf-8"?>
<!-- Generator: Adobe Illustrator 19.0.0, SVG Export Plug-In . SVG Version: 6.00 Build 0)  -->
<svg version="1.1" id="Layer_1" xmlns="http://www.w3.org/2000/svg" xmlns:xlink="http://www.w3.org/1999/xlink" x="0px" y="0px"
	 viewBox="0 0 36 36" style="enable-background:new 0 0 36 36;" xml:space="preserve">
<style type="text/css">
	.st0{fill:#010101;}
	.st1{fill:none;stroke:#010101;stroke-miterlimit:10;}
</style>
<g id="XMLID_2_">
	<g id="XMLID_15_">
		<polygon id="XMLID_21_" class="st0" points="27.4,3.3 8.8,3.3 8.4,2.1 27.6,2.1 		"/>
		<path id="XMLID_20_" class="st0" d="M21.1,33.9h-5.8c-1.1,0-2-0.9-2-2v0c0-1.1,0.9-2,2-2h5.8c1.1,0,2,0.9,2,2v0
			C23.1,33.1,22.2,33.9,21.1,33.9z"/>
		<g id="XMLID_16_">
			<path id="XMLID_17_" class="st0" d="M8.9,3.6L13.6,29l9.3,0l4.2-25.4H8.9z M21.9,24h-7.5L11.9,7.5h12.4L21.9,24z"/>
		</g>
	</g>
	<g id="XMLID_13_">
		<path id="XMLID_14_" class="st0" d="M18.1,14.3c-0.4-0.4-0.9-0.7-1.5-0.7c-1.2,0-2.1,0.9-2.1,2.1c0,1.2,0.9,2.1,2.1,2.1
			c0.3,0,0.5,0,0.7-0.1c-0.2-0.4-0.4-0.8-0.4-1.3C16.9,15.5,17.3,14.7,18.1,14.3z"/>
	</g>
	<circle id="XMLID_12_" class="st0" cx="19.3" cy="16.3" r="2.1"/>
	<path id="XMLID_11_" class="st1" d="M17.1,13.9c0,0,2.1-3.1,2.1-4.3"/>
	<path id="XMLID_10_" class="st1" d="M19.7,14.8c0,0-0.9-3.9-0.5-5.1"/>
	<line id="XMLID_9_" class="st1" x1="14.4" y1="19.7" x2="21.7" y2="19.7"/>
	<line id="XMLID_8_" class="st1" x1="15.1" y1="21" x2="21" y2="21"/>
	<g id="XMLID_5_">
		<line id="XMLID_7_" class="st1" x1="15.5" y1="22.2" x2="17.2" y2="22.2"/>
		<line id="XMLID_6_" class="st1" x1="18.2" y1="22.2" x2="20.6" y2="22.2"/>
	</g>
	<path id="XMLID_4_" class="st0" d="M19.5,10.8c0,0-0.9,0.6-2.2-0.1c-0.6-0.3-2.4-2.6-2.4-2.6s2.8,0.3,3.4,0.7
		C19.8,9.7,19.5,10.8,19.5,10.8z"/>
	<path id="XMLID_3_" class="st0" d="M18.7,10.7c0,0,0.7,0.9,2.1,0.6c0.7-0.1,3.1-1.7,3.1-1.7s-2.8-0.6-3.5-0.4
		C18.8,9.5,18.7,10.7,18.7,10.7z"/>
</g>
</svg>
