<?xml version="1.0" encoding="utf-8"?>
<!-- Generator: Adobe Illustrator 15.0.0, SVG Export Plug-In . SVG Version: 6.00 Build 0)  -->
<!DOCTYPE svg PUBLIC "-//W3C//DTD SVG 1.1//EN" "http://www.w3.org/Graphics/SVG/1.1/DTD/svg11.dtd">
<svg version="1.1" xmlns="http://www.w3.org/2000/svg" xmlns:xlink="http://www.w3.org/1999/xlink" x="0px" y="0px" width="53px"
	 height="50px" viewBox="0.167 0 53 50" enable-background="new 0.167 0 53 50" xml:space="preserve">
<g id="Layer_2">
</g>
<g id="Capa_1">
	<g>
		<path fill="#4E4E4E" d="M40.744,16.563c-1.368,0-2.483,1.114-2.483,2.484c0,1.37,1.115,2.484,2.483,2.484
			c1.37,0,2.485-1.115,2.485-2.484C43.229,17.677,42.114,16.563,40.744,16.563z M40.744,19.875c-0.455,0-0.826-0.373-0.826-0.828
			c0-0.457,0.371-0.827,0.826-0.827c0.457,0,0.829,0.371,0.829,0.827C41.573,19.503,41.201,19.875,40.744,19.875z"/>
		<path fill="#4E4E4E" d="M49.855,19.047h-1.321c-1.489-3.607-4.187-6.79-7.79-9.152V0.827C40.744,0.371,40.375,0,39.917,0
			c-3.771,0-6.898,2.815-7.388,6.453c-1.936-0.435-3.906-0.657-5.863-0.657c-6.169,0-11.975,2.052-16.348,5.776
			c-2.263,1.927-4.002,4.185-5.164,6.646c-0.006,0-0.013,0-0.02,0c-1.828,0-3.312-1.486-3.312-3.313
			c0-0.723,0.229-1.411,0.662-1.987c0.274-0.365,0.202-0.884-0.165-1.158c-0.367-0.274-0.885-0.201-1.16,0.165
			c-0.65,0.866-0.994,1.896-0.994,2.981c0,2.522,1.888,4.609,4.324,4.927c-0.666,1.868-1.011,3.83-1.011,5.841
			c0,6.523,3.705,12.59,9.938,16.312v4.391c0,1.826,1.486,3.312,3.312,3.312h1.656c1.826,0,3.312-1.486,3.312-3.312v-1.289
			c3.271,0.611,6.692,0.607,9.938,0.004v1.285c0,1.826,1.485,3.312,3.313,3.312h1.655c1.825,0,3.313-1.486,3.313-3.312v-4.396
			c3.445-2.059,6.133-4.824,7.841-8.025h2.097c1.827,0,3.311-1.486,3.311-3.312v-8.282C53.167,20.534,51.682,19.047,49.855,19.047z
			 M51.511,30.643c0,0.912-0.743,1.656-1.656,1.656h-1.317c0.304-0.74,0.559-1.5,0.76-2.277c0.115-0.441-0.149-0.895-0.592-1.012
			c-0.443-0.113-0.896,0.15-1.01,0.594c-0.279,1.072-0.67,2.109-1.162,3.105c-0.021,0.033-0.038,0.068-0.055,0.105
			c-1.618,3.217-4.315,5.986-7.833,7.986c-0.339,0.193-0.492,0.588-0.387,0.951v4.623c0,0.912-0.743,1.656-1.656,1.656h-1.656
			c-0.912,0-1.656-0.744-1.656-1.656v-2.303c0-0.252-0.115-0.49-0.311-0.648c-0.196-0.154-0.456-0.215-0.701-0.158
			c-1.821,0.416-3.709,0.625-5.612,0.625c-1.894,0-3.782-0.211-5.612-0.631c-0.246-0.055-0.504,0.006-0.701,0.16
			c-0.198,0.158-0.312,0.396-0.312,0.648v2.307c0,0.912-0.743,1.656-1.656,1.656h-1.657c-0.913,0-1.657-0.744-1.657-1.656V41.51
			c0-0.299-0.16-0.572-0.417-0.721c-5.961-3.4-9.521-9.051-9.521-15.117c0-10.047,9.659-18.221,21.532-18.221
			c1.938,0,3.884,0.233,5.797,0.688V9.11c0,0.457,0.37,0.826,0.828,0.826c0.457,0,0.828-0.369,0.828-0.826V7.713
			c0.039-0.143,0.04-0.291,0.002-0.426c0.08-2.84,2.216-5.178,4.967-5.572v8.24c-0.173,0.375-0.04,0.827,0.315,1.048
			c3.687,2.298,6.397,5.489,7.771,9.111c0.012,0.033,0.023,0.067,0.038,0.098c0.187,0.501,0.348,1.012,0.482,1.526
			c0.114,0.443,0.565,0.708,1.009,0.592c0.442-0.116,0.707-0.566,0.593-1.01c-0.054-0.208-0.111-0.413-0.175-0.617h0.732
			c0.913,0,1.655,0.743,1.655,1.656v8.282H51.511z"/>
		<path fill="#4E4E4E" d="M26.667,19.875c1.505,0,2.898,0.717,3.241,1.67c0.048,0.13,0.071,0.266,0.071,0.399
			c0,1.371,1.114,2.484,2.484,2.484s2.484-1.114,2.484-2.484c0-0.708-0.123-1.41-0.366-2.084c-0.815-2.263-2.84-3.962-5.482-4.632
			c-0.234-1.128-1.236-1.979-2.433-1.979c-1.195,0-2.193,0.847-2.431,1.972c-1.54,0.403-2.927,1.188-3.959,2.251
			c-1.219,1.254-1.89,2.841-1.89,4.472c0,3.88,3.714,7.04,8.281,7.04c1.563,0,3.312,0.887,3.312,2.07s-1.749,2.07-3.312,2.07
			s-3.312-0.887-3.312-2.07c0-1.371-1.114-2.484-2.485-2.484c-1.369,0-2.484,1.113-2.484,2.484c0,1.629,0.671,3.217,1.89,4.471
			c1.033,1.062,2.421,1.85,3.959,2.254c0.238,1.123,1.237,1.971,2.431,1.971c1.193,0,2.193-0.848,2.431-1.971
			c1.54-0.404,2.927-1.191,3.961-2.254c1.219-1.254,1.889-2.842,1.889-4.471c0-3.883-3.715-7.04-8.281-7.04
			c-1.563,0-3.312-0.886-3.312-2.07C23.354,20.761,25.103,19.875,26.667,19.875z M26.667,25.672c3.652,0,6.625,2.416,6.625,5.385
			c0,2.467-2.155,4.672-5.123,5.236c-0.391,0.074-0.674,0.416-0.674,0.812v0.162c0,0.455-0.372,0.828-0.828,0.828
			s-0.828-0.373-0.828-0.828v-0.162c0-0.396-0.283-0.738-0.674-0.812c-2.968-0.564-5.124-2.768-5.124-5.236
			c0-0.457,0.372-0.828,0.829-0.828c0.456,0,0.828,0.371,0.828,0.828c0,2.055,2.229,3.727,4.969,3.727
			c2.74,0,4.969-1.672,4.969-3.727c0-2.057-2.229-3.727-4.969-3.727c-3.654,0-6.626-2.415-6.626-5.386
			c0-2.47,2.155-4.672,5.125-5.237c0.39-0.075,0.673-0.416,0.673-0.814v-0.16c0-0.457,0.372-0.829,0.828-0.829
			s0.828,0.373,0.828,0.829v0.17c0,0.398,0.285,0.74,0.676,0.815c2.327,0.434,4.187,1.851,4.853,3.702
			c0.18,0.494,0.27,1.006,0.27,1.524c0,0.457-0.371,0.828-0.828,0.828c-0.456,0-0.828-0.371-0.828-0.828
			c0-0.327-0.059-0.652-0.17-0.962c-0.586-1.628-2.56-2.764-4.799-2.764c-2.74,0-4.969,1.671-4.969,3.727
			C21.698,24,23.927,25.672,26.667,25.672z"/>
		<path fill="#4E4E4E" d="M17.215,11.102c-2.631,1.189-4.947,2.891-6.698,4.918c-0.299,0.348-0.26,0.87,0.086,1.169
			c0.156,0.134,0.349,0.199,0.541,0.199c0.233,0,0.464-0.096,0.627-0.286c1.593-1.848,3.712-3.401,6.126-4.492
			c0.417-0.188,0.601-0.68,0.415-1.095C18.123,11.099,17.632,10.913,17.215,11.102z"/>
		<path fill="#4E4E4E" d="M20.563,11.594c0.075,0,0.149-0.011,0.224-0.031c0.618-0.172,1.252-0.32,1.888-0.435
			c0.451-0.084,0.748-0.516,0.666-0.965c-0.083-0.451-0.515-0.748-0.965-0.665c-0.684,0.125-1.369,0.285-2.035,0.47
			c-0.439,0.124-0.697,0.581-0.574,1.021C19.87,11.355,20.202,11.594,20.563,11.594z"/>
	</g>
</g>
</svg>
