<?xml version="1.0" encoding="utf-8"?>
<!-- Generator: Adobe Illustrator 15.0.0, SVG Export Plug-In . SVG Version: 6.00 Build 0)  -->
<!DOCTYPE svg PUBLIC "-//W3C//DTD SVG 1.1//EN" "http://www.w3.org/Graphics/SVG/1.1/DTD/svg11.dtd">
<svg version="1.1" id="Capa_1" xmlns="http://www.w3.org/2000/svg" xmlns:xlink="http://www.w3.org/1999/xlink" x="0px" y="0px"
	 width="78px" height="50px" viewBox="258.639 165.676 78 50" enable-background="new 258.639 165.676 78 50" xml:space="preserve">
<g>
	<path fill="#4E4E4E" d="M275.703,205.91c-0.673,0-1.218,0.547-1.218,1.219c0,0.674-0.547,1.219-1.219,1.219
		s-1.218-0.545-1.218-1.219c0-0.672,0.546-1.219,1.218-1.219c0.673,0,1.219-0.545,1.219-1.219s-0.546-1.219-1.219-1.219
		c-2.016,0-3.656,1.641-3.656,3.656c0,2.017,1.64,3.656,3.656,3.656c2.017,0,3.657-1.64,3.657-3.656
		C276.922,206.457,276.376,205.91,275.703,205.91z"/>
	<path fill="#4E4E4E" d="M324.453,205.91c-0.672,0-1.218,0.547-1.218,1.219c0,0.674-0.548,1.219-1.22,1.219
		s-1.219-0.545-1.219-1.219c0-0.672,0.547-1.219,1.219-1.219c0.674,0,1.22-0.545,1.22-1.219s-0.546-1.219-1.22-1.219
		c-2.015,0-3.656,1.641-3.656,3.656c0,2.017,1.642,3.656,3.656,3.656c2.018,0,3.656-1.64,3.656-3.656
		C325.672,206.457,325.126,205.91,324.453,205.91z"/>
	<path fill="#4E4E4E" d="M336.64,190.067c0-0.34-0.139-0.647-0.362-0.868c-0.521-1.44-1.578-2.65-3.006-3.364
		c-0.038-0.019-0.076-0.036-0.116-0.05l-4.027-1.513l-2.455-9.322c-0.003-0.014-0.007-0.027-0.011-0.041
		c-0.779-2.597-3.126-4.342-5.837-4.342h-8.561v-2.438c0-1.344-1.094-2.438-2.438-2.438h-48.75c-1.343,0-2.438,1.094-2.438,2.438
		v34.125c0,1.346,1.094,2.438,2.438,2.438h4.013c-0.06,0.201-0.112,0.405-0.158,0.611h-0.003c-0.018,0.087-0.033,0.174-0.049,0.26
		c-0.003,0.017-0.007,0.035-0.01,0.052c-0.016,0.089-0.03,0.179-0.043,0.267c-0.001,0.01-0.003,0.02-0.005,0.029v0.006
		c-0.056,0.398-0.088,0.802-0.088,1.213c0,0.924,0.146,1.812,0.418,2.644h0.004c1.115,3.414,4.327,5.888,8.109,5.888
		c4.291,0,7.85-3.183,8.443-7.312h2.526c0,2.017,1.64,3.656,3.656,3.656h7.313c2.017,0,3.656-1.64,3.656-3.656h14.715
		c0.593,4.13,4.151,7.312,8.441,7.312c3.783,0,6.996-2.474,8.109-5.888h0.005c0.271-0.832,0.417-1.722,0.417-2.644
		c0-0.411-0.031-0.816-0.088-1.211v-0.008c-0.002-0.01-0.003-0.02-0.005-0.03c-0.014-0.089-0.027-0.177-0.042-0.266
		c-0.004-0.017-0.008-0.033-0.011-0.05c-0.016-0.088-0.031-0.175-0.049-0.262h-0.003c-0.046-0.206-0.098-0.41-0.159-0.611h4.015
		c1.344,0,2.436-1.092,2.436-2.438v-10.968c0-0.287-0.02-0.569-0.058-0.848C336.621,190.322,336.64,190.198,336.64,190.067z
		 M312.265,173.005h8.561c1.621,0,3.023,1.039,3.498,2.586l2.205,8.382h-14.264V173.005z M312.265,186.411h15.624l4.346,1.631
		c0.401,0.208,0.749,0.483,1.039,0.806h-21.009V186.411z M273.265,213.224c-3.359,0-6.094-2.734-6.094-6.095
		c0-3.358,2.734-6.094,6.094-6.094c3.36,0,6.094,2.735,6.094,6.094C279.359,210.49,276.626,213.224,273.265,213.224z
		 M284.235,205.91h-2.526c-0.06-0.416-0.149-0.822-0.269-1.219h3.004C284.309,205.074,284.235,205.485,284.235,205.91z
		 M296.423,208.348c0,0.672-0.547,1.219-1.219,1.219h-7.313c-0.671,0-1.218-0.547-1.218-1.219v-1.216c0,0,0-0.002,0-0.003v-0.002
		v-1.216c0-0.673,0.547-1.22,1.218-1.22h7.313c0.672,0,1.219,0.547,1.219,1.22V208.348L296.423,208.348z M295.203,202.254h-7.313
		h-7.312c-0.101,0-0.198,0.015-0.292,0.037c-1.54-2.229-4.112-3.693-7.021-3.693s-5.48,1.464-7.021,3.693
		c-0.094-0.022-0.191-0.037-0.292-0.037h-4.875v-6.095h37.782c0.674,0,1.219-0.544,1.219-1.218c0-0.672-0.545-1.218-1.219-1.218
		h-37.782V168.13h48.75v34.125H295.203z M313.573,205.91h-14.714c0-0.426-0.073-0.836-0.209-1.219h12.396h2.795
		C313.723,205.088,313.634,205.494,313.573,205.91z M322.015,213.224c-3.358,0-6.094-2.734-6.094-6.095
		c0-3.358,2.735-6.094,6.094-6.094c3.36,0,6.094,2.735,6.094,6.094C328.109,210.49,325.376,213.224,322.015,213.224z
		 M334.205,193.724h-1.221c-1.344,0-2.438,1.093-2.438,2.436v1.22c0,1.346,1.094,2.438,2.438,2.438h1.221v2.439h-4.876
		c-0.101,0-0.197,0.013-0.292,0.036c-1.54-2.229-4.112-3.694-7.021-3.694c-2.908,0-5.479,1.466-7.02,3.694
		c-0.095-0.023-0.19-0.036-0.293-0.036h-2.438v-10.97h21.938L334.205,193.724L334.205,193.724z M334.204,196.159v1.22h-1.22v-1.22
		H334.204z"/>
	<path fill="#4E4E4E" d="M289.11,205.91c-0.322,0-0.635,0.131-0.862,0.356c-0.227,0.228-0.357,0.544-0.357,0.862
		c0,0.321,0.13,0.636,0.357,0.862c0.227,0.228,0.541,0.356,0.862,0.356s0.635-0.128,0.862-0.356
		c0.227-0.227,0.356-0.543,0.356-0.862s-0.129-0.635-0.356-0.862C289.745,206.041,289.431,205.91,289.11,205.91z"/>
	<path fill="#4E4E4E" d="M306.172,193.724h-2.437c-0.673,0-1.218,0.546-1.218,1.218c0,0.674,0.545,1.218,1.218,1.218h2.437
		c0.673,0,1.219-0.544,1.219-1.218C307.39,194.27,306.844,193.724,306.172,193.724z"/>
</g>
</svg>
