<?xml version="1.0" encoding="utf-8"?>
<!-- Generator: Adobe Illustrator 15.0.0, SVG Export Plug-In . SVG Version: 6.00 Build 0)  -->
<!DOCTYPE svg PUBLIC "-//W3C//DTD SVG 1.1//EN" "http://www.w3.org/Graphics/SVG/1.1/DTD/svg11.dtd">
<svg version="1.1" id="Capa_1" xmlns="http://www.w3.org/2000/svg" xmlns:xlink="http://www.w3.org/1999/xlink" x="0px" y="0px"
	 width="46.872px" height="50px" viewBox="272.64 395.945 46.872 50" enable-background="new 272.64 395.945 46.872 50"
	 xml:space="preserve">
<g>
	<path fill="#4E4E4E" d="M318.018,436.379c-1.053-1.542-2.521-2.613-4.247-3.097c-0.018-0.005-0.034-0.009-0.051-0.013l-6.232-1.304
		l-1.678-2.543c-0.008-0.014-0.018-0.026-0.026-0.039c-0.255-0.339-0.642-0.562-1.062-0.613c-0.42-0.051-0.85,0.073-1.177,0.342
		c-0.006,0.004-0.011,0.008-0.016,0.013l-7.453,6.415l-7.453-6.415c-0.005-0.005-0.01-0.009-0.015-0.013
		c-0.328-0.269-0.757-0.393-1.178-0.342s-0.807,0.274-1.062,0.613c-0.009,0.013-0.019,0.025-0.027,0.039l-1.678,2.543l-6.232,1.304
		c-0.017,0.004-0.034,0.008-0.051,0.013c-1.726,0.483-3.194,1.555-4.248,3.097c-0.963,1.411-1.494,3.114-1.494,4.796v1.938
		c0,1.562,1.402,2.833,3.125,2.833h17.965c0.001,0,0.002,0,0.003,0c0,0,0.002,0,0.003,0h4.679c0.001,0,0.002,0,0.003,0
		s0.002,0,0.002,0h17.967c1.723,0,3.125-1.271,3.125-2.833v-1.938C319.512,439.493,318.982,437.79,318.018,436.379z
		 M304.532,430.322l1.53,2.321l-5.394,7.416l-1.697-1.697l0,0l-1.748-1.748L304.532,430.322z M295.295,442.039h1.563
		c0.047,0,0.093-0.002,0.14-0.004l0.47,2.348h-2.782l0.47-2.348C295.201,442.037,295.248,442.039,295.295,442.039z M297.639,439.695
		c0,0.431-0.351,0.781-0.781,0.781h-1.563c-0.431,0-0.781-0.351-0.781-0.781v-0.457l1.562-1.562l1.563,1.562V439.695
		L297.639,439.695z M287.62,430.322l7.309,6.292l-1.748,1.748h0l-1.697,1.697l-5.394-7.416L287.62,430.322z M274.202,443.112v-1.938
		c0-2.527,1.572-5.526,4.576-6.382l6.026-1.26l5.953,8.185c0.134,0.185,0.343,0.301,0.571,0.319c0.02,0.001,0.041,0.002,0.061,0.002
		c0.206,0,0.405-0.082,0.552-0.229l1.197-1.197c0.128,0.299,0.316,0.566,0.55,0.786l-0.597,2.983h-17.327
		C274.904,444.383,274.202,443.812,274.202,443.112z M317.949,443.112c0,0.7-0.701,1.271-1.562,1.271H299.06l-0.597-2.983
		c0.233-0.22,0.423-0.487,0.551-0.786l1.197,1.197c0.146,0.147,0.346,0.229,0.552,0.229c0.021,0,0.041-0.001,0.062-0.002
		c0.228-0.019,0.437-0.135,0.57-0.319l5.952-8.185l6.026,1.26c3.005,0.855,4.576,3.854,4.576,6.382V443.112z"/>
	<path fill="#4E4E4E" d="M284.358,420.949h0.716c0.58,1.829,1.484,3.547,2.665,5.009c2.272,2.813,5.235,4.363,8.345,4.363
		c2.408,0,4.745-0.937,6.758-2.709c0.01-0.008,0.018-0.018,0.027-0.026c0.125,0.008,0.25,0.014,0.376,0.014
		c0.912,0,1.841-0.216,2.743-0.653c2.949-1.427,4.931-4.779,4.931-8.341v-4.688c0-1.292-1.052-2.343-2.344-2.343h-0.32
		c1.731-6.602,0.947-12.021,0.254-13.597c-0.001-0.002-0.003-0.005-0.004-0.008c-0.007-0.015-0.015-0.03-0.022-0.044
		c-0.005-0.009-0.009-0.018-0.014-0.026c-0.008-0.013-0.016-0.025-0.023-0.037c-0.007-0.01-0.013-0.02-0.02-0.029
		c-0.007-0.009-0.015-0.019-0.022-0.027c-0.009-0.011-0.018-0.022-0.026-0.033c-0.007-0.007-0.013-0.013-0.019-0.02
		c-0.012-0.012-0.023-0.024-0.035-0.035c-0.006-0.005-0.012-0.009-0.017-0.014c-0.014-0.012-0.027-0.023-0.041-0.034
		c-0.007-0.005-0.013-0.009-0.02-0.013c-0.014-0.01-0.027-0.02-0.042-0.029c-0.008-0.005-0.017-0.009-0.024-0.014
		c-0.014-0.007-0.026-0.015-0.04-0.022c-0.011-0.005-0.021-0.009-0.032-0.014c-0.012-0.005-0.024-0.011-0.036-0.016
		c-0.012-0.004-0.024-0.008-0.036-0.012s-0.023-0.008-0.035-0.011c-0.013-0.003-0.024-0.006-0.037-0.009
		c-0.013-0.002-0.024-0.006-0.038-0.008c-0.011-0.002-0.021-0.003-0.032-0.004c-0.015-0.002-0.029-0.004-0.045-0.005
		c-0.009,0-0.019,0-0.027-0.001c-0.017,0-0.034-0.001-0.051,0c-0.008,0-0.017,0.001-0.024,0.001
		c-0.018,0.001-0.036,0.002-0.054,0.005c-0.003,0-0.006,0-0.008,0.001c-1.959,0.28-4.331-0.197-6.842-0.701
		c-4.211-0.846-8.561-1.717-11.962,0.709c-0.051-0.011-0.104-0.016-0.159-0.016c-3.489,0-5.925,2.891-5.925,7.031
		c0,1.917,0.483,4.827,0.912,7.032h-0.13c-1.292,0-2.344,1.052-2.344,2.344v4.687c0,1.019,0.653,1.887,1.562,2.209
		C282.796,420.814,283.12,420.949,284.358,420.949z M305.308,425.54c-1.648,0.798-3.339,0.633-4.771-0.463
		c0.145-0.305,0.226-0.645,0.226-1.004c0-1.292-1.051-2.343-2.344-2.343c-1.292,0-2.343,1.051-2.343,2.343
		c0,1.293,1.051,2.344,2.343,2.344c0.362,0,0.705-0.082,1.011-0.229c0.021,0.021,0.043,0.041,0.067,0.061
		c0.461,0.364,0.947,0.654,1.452,0.871c-1.509,1.074-3.172,1.639-4.866,1.639c-2.627,0-5.16-1.343-7.129-3.782
		c-1.944-2.407-3.059-5.594-3.059-8.741v-0.89c0-2.783,1.578-6.541,2.115-7.737c5.397-0.634,9.697-0.001,12.378,0.654
		c2.353,0.575,3.896,1.263,4.452,1.533l1.409,3.352v3.093c0,2.584-0.752,5.22-2.116,7.421c-0.228,0.367-0.114,0.849,0.253,1.076
		c0.128,0.079,0.271,0.117,0.41,0.117c0.262,0,0.518-0.132,0.665-0.37c0.681-1.098,1.223-2.293,1.614-3.537h1.499
		c0.15,0,0.298-0.015,0.441-0.042C308.414,422.938,307.054,424.695,305.308,425.54z M299.2,424.073c0,0.431-0.35,0.781-0.781,0.781
		c-0.431,0-0.78-0.351-0.78-0.781s0.35-0.781,0.78-0.781C298.851,423.292,299.2,423.643,299.2,424.073z M309.357,413.918v4.688
		c0,0.431-0.351,0.781-0.781,0.781h-1.092c0.216-1.038,0.329-2.095,0.329-3.145v-3.104h0.763
		C309.006,413.137,309.357,413.487,309.357,413.918z M288.721,399.073c0.076,0,0.148-0.011,0.217-0.031
		c0.229,0.066,0.484,0.027,0.688-0.128c2.868-2.178,6.955-1.357,10.908-0.564c2.073,0.417,4.057,0.814,5.889,0.814
		c0.282,0,0.561-0.01,0.835-0.031c0.48,1.734,0.937,6.105-0.374,11.491l-0.714-1.699c-0.067-0.162-0.188-0.296-0.342-0.381
		c-0.289-0.159-7.188-3.883-18.445-2.435c-0.002,0-0.003,0-0.005,0.001c-0.015,0.002-0.03,0.005-0.044,0.008
		c-0.011,0.002-0.022,0.004-0.033,0.006c-0.01,0.002-0.019,0.006-0.029,0.008c-0.089,0.025-0.171,0.064-0.244,0.116
		c0,0,0,0-0.001,0.001c-0.006,0.004-0.012,0.009-0.018,0.014c-0.051,0.039-0.098,0.085-0.139,0.137
		c-0.001,0.002-0.003,0.004-0.004,0.006c-0.008,0.01-0.016,0.021-0.023,0.033c-0.007,0.01-0.015,0.021-0.021,0.031
		c-0.005,0.008-0.009,0.016-0.014,0.024c-0.008,0.015-0.017,0.029-0.024,0.044c0,0.001-0.001,0.003-0.002,0.004
		c-0.061,0.125-0.945,1.971-1.633,4.228c-0.389-2.064-0.789-4.585-0.789-6.231C284.358,400.764,286.55,399.073,288.721,399.073z
		 M282.796,413.918c0-0.431,0.351-0.781,0.781-0.781h0.447c0.147,0.698,0.263,1.206,0.309,1.408v1.69
		c0,1.055,0.114,2.113,0.331,3.151h-1.087c-0.431,0-0.781-0.35-0.781-0.781V413.918z"/>
</g>
</svg>
