<?xml version="1.0" encoding="utf-8"?>
<!-- Generator: Adobe Illustrator 15.0.0, SVG Export Plug-In . SVG Version: 6.00 Build 0)  -->
<!DOCTYPE svg PUBLIC "-//W3C//DTD SVG 1.1//EN" "http://www.w3.org/Graphics/SVG/1.1/DTD/svg11.dtd">
<svg version="1.1" id="Capa_1" xmlns="http://www.w3.org/2000/svg" xmlns:xlink="http://www.w3.org/1999/xlink" x="0px" y="0px"
	 width="73px" height="50px" viewBox="261.14 395.945 73 50" enable-background="new 261.14 395.945 73 50" xml:space="preserve">
<g>
	<path fill="#4E4E4E" d="M313.549,426.627v-27.273c0-1.88-1.529-3.409-3.409-3.409h-45.454c-1.88,0-3.409,1.529-3.409,3.409v27.273
		c0,1.88,1.529,3.409,3.409,3.409h45.454C312.02,430.036,313.549,428.507,313.549,426.627z M263.549,426.627v-27.273
		c0-0.626,0.51-1.136,1.137-1.136h45.454c0.626,0,1.137,0.51,1.137,1.136v27.273c0,0.627-0.511,1.137-1.137,1.137h-45.454
		C264.059,427.764,263.549,427.254,263.549,426.627z"/>
	<path fill="#4E4E4E" d="M330.594,411.854h-13.636c-0.628,0-1.137,0.508-1.137,1.136c0,0.627,0.509,1.137,1.137,1.137h13.636
		c0.627,0,1.137,0.51,1.137,1.136v5.682h-14.772c-0.628,0-1.137,0.508-1.137,1.137c0,0.626,0.509,1.136,1.137,1.136h14.772v19.318
		c0,0.626-0.51,1.136-1.137,1.136H285.14c-0.626,0-1.136-0.51-1.136-1.136v-9.091c0-0.628-0.508-1.137-1.136-1.137
		s-1.137,0.509-1.137,1.137v9.091c0,1.88,1.529,3.409,3.409,3.409h45.454c1.88,0,3.409-1.529,3.409-3.409v-27.273
		C334.003,413.383,332.474,411.854,330.594,411.854z"/>
	<path fill="#4E4E4E" d="M285.14,419.809h-5.682c-0.628,0-1.136,0.508-1.136,1.136c0,0.628,0.508,1.137,1.136,1.137h5.682
		c0.628,0,1.137-0.509,1.137-1.137C286.277,420.317,285.768,419.809,285.14,419.809z"/>
	<path fill="#4E4E4E" d="M274.913,419.809h-5.682c-0.628,0-1.136,0.508-1.136,1.136c0,0.628,0.508,1.137,1.136,1.137h5.682
		c0.628,0,1.136-0.509,1.136-1.137C276.049,420.317,275.541,419.809,274.913,419.809z"/>
	<path fill="#4E4E4E" d="M305.594,419.809h-5.682c-0.627,0-1.136,0.508-1.136,1.136c0,0.628,0.509,1.137,1.136,1.137h5.682
		c0.628,0,1.137-0.509,1.137-1.137C306.731,420.317,306.222,419.809,305.594,419.809z"/>
	<path fill="#4E4E4E" d="M295.367,419.809h-5.682c-0.628,0-1.136,0.508-1.136,1.136c0,0.628,0.508,1.137,1.136,1.137h5.682
		c0.628,0,1.136-0.509,1.136-1.137C296.504,420.317,295.995,419.809,295.367,419.809z"/>
	<path fill="#4E4E4E" d="M273.777,401.627h-3.409c-1.88,0-3.409,1.529-3.409,3.409v1.136c0,1.879,1.529,3.409,3.409,3.409h3.409
		c1.88,0,3.409-1.53,3.409-3.409v-1.136C277.186,403.156,275.656,401.627,273.777,401.627z M274.913,406.172
		c0,0.626-0.51,1.136-1.136,1.136h-3.409c-0.626,0-1.136-0.51-1.136-1.136v-1.136c0-0.627,0.51-1.137,1.136-1.137h3.409
		c0.626,0,1.136,0.51,1.136,1.137V406.172z"/>
	<path fill="#4E4E4E" d="M303.322,401.627c-1.356,0-2.575,0.598-3.409,1.544c-0.834-0.946-2.052-1.544-3.409-1.544
		c-2.506,0-4.545,2.039-4.545,4.545c0,2.506,2.039,4.545,4.545,4.545c1.356,0,2.575-0.599,3.409-1.544
		c0.834,0.945,2.053,1.544,3.409,1.544c2.507,0,4.546-2.04,4.546-4.545C307.867,403.666,305.828,401.627,303.322,401.627z
		 M296.504,408.445c-1.253,0-2.273-1.02-2.273-2.272c0-1.253,1.02-2.273,2.273-2.273c1.252,0,2.273,1.02,2.273,2.273
		C298.777,407.425,297.756,408.445,296.504,408.445z M303.322,408.445c-1.253,0-2.272-1.02-2.272-2.272
		c0-1.253,1.02-2.273,2.272-2.273s2.272,1.02,2.272,2.273C305.594,407.425,304.574,408.445,303.322,408.445z"/>
	<path fill="#4E4E4E" d="M316.958,418.672h12.5c0.627,0,1.136-0.509,1.136-1.137c0-0.628-0.509-1.136-1.136-1.136h-12.5
		c-0.628,0-1.137,0.508-1.137,1.136C315.822,418.163,316.33,418.672,316.958,418.672z"/>
	<path fill="#4E4E4E" d="M326.049,432.309h-21.591c-0.628,0-1.137,0.509-1.137,1.137c0,0.626,0.509,1.137,1.137,1.137h21.591
		c0.627,0,1.136-0.511,1.136-1.137C327.185,432.817,326.676,432.309,326.049,432.309z"/>
	<path fill="#4E4E4E" d="M326.049,436.854h-13.637c-0.627,0-1.136,0.509-1.136,1.136s0.509,1.137,1.136,1.137h13.637
		c0.627,0,1.136-0.51,1.136-1.137S326.676,436.854,326.049,436.854z"/>
</g>
</svg>
