<?xml version="1.0" encoding="utf-8"?>
<!-- Generator: Adobe Illustrator 15.0.0, SVG Export Plug-In . SVG Version: 6.00 Build 0)  -->
<!DOCTYPE svg PUBLIC "-//W3C//DTD SVG 1.1//EN" "http://www.w3.org/Graphics/SVG/1.1/DTD/svg11.dtd">
<svg version="1.1" id="Isolation_Mode" xmlns="http://www.w3.org/2000/svg" xmlns:xlink="http://www.w3.org/1999/xlink" x="0px"
	 y="0px" width="38px" height="38px" viewBox="0 0 38 38" enable-background="new 0 0 38 38" xml:space="preserve">
<path fill-rule="evenodd" clip-rule="evenodd" fill="#FFFFFF" d="M32.092,5.836c-3.474-3.477-8.094-5.392-13.015-5.395
	c-10.141,0-18.395,8.25-18.398,18.392c-0.001,3.241,0.846,6.405,2.456,9.194l-2.61,9.531l9.753-2.557
	c2.688,1.463,5.713,2.238,8.791,2.238h0.009l0,0c10.14,0,18.394-8.25,18.398-18.394C37.478,13.934,35.564,9.312,32.092,5.836
	 M19.077,34.135h-0.006c-2.744-0.004-5.435-0.738-7.784-2.131l-0.558-0.332l-5.788,1.518l1.545-5.641l-0.363-0.58
	c-1.531-2.434-2.339-5.246-2.338-8.136c0.003-8.428,6.863-15.285,15.298-15.285c4.085,0.002,7.924,1.595,10.811,4.483
	c2.888,2.89,4.477,6.73,4.476,10.815C34.366,27.275,27.506,34.135,19.077,34.135 M27.465,22.684c-0.459-0.229-2.72-1.34-3.142-1.494
	c-0.421-0.154-0.728-0.23-1.034,0.23c-0.306,0.461-1.188,1.496-1.455,1.803c-0.269,0.305-0.536,0.344-0.997,0.113
	c-0.459-0.229-1.939-0.715-3.696-2.281c-1.366-1.219-2.29-2.723-2.558-3.184c-0.268-0.46-0.028-0.707,0.202-0.938
	c0.208-0.205,0.46-0.537,0.689-0.806c0.23-0.268,0.307-0.459,0.46-0.767c0.153-0.306,0.077-0.574-0.039-0.805
	c-0.114-0.229-1.034-2.492-1.417-3.412c-0.374-0.896-0.752-0.775-1.034-0.789c-0.268-0.014-0.575-0.017-0.882-0.017
	c-0.306,0-0.804,0.115-1.225,0.576c-0.422,0.46-1.609,1.571-1.609,3.833s1.647,4.447,1.877,4.754
	c0.23,0.307,3.242,4.949,7.854,6.941c1.097,0.471,1.953,0.756,2.621,0.965c1.101,0.352,2.103,0.303,2.895,0.184
	c0.884-0.133,2.721-1.113,3.103-2.184c0.384-1.074,0.384-1.996,0.27-2.186C28.23,23.029,27.925,22.916,27.465,22.684"/>
</svg>
