<?xml version="1.0" encoding="utf-8"?>
<!-- Generator: Adobe Illustrator 15.0.0, SVG Export Plug-In . SVG Version: 6.00 Build 0)  -->
<!DOCTYPE svg PUBLIC "-//W3C//DTD SVG 1.1//EN" "http://www.w3.org/Graphics/SVG/1.1/DTD/svg11.dtd">
<svg version="1.1" id="Layer_1" xmlns="http://www.w3.org/2000/svg" xmlns:xlink="http://www.w3.org/1999/xlink" x="0px" y="0px"
	 width="270px" height="85px" viewBox="0 0 270 85" enable-background="new 0 0 270 85" xml:space="preserve">
<path fill="#B9529F" d="M37.341,42.918c0.006-0.006-0.154,0.058-0.332,0.049c-0.087-0.006-0.195-0.017-0.267-0.078
	c-0.067-0.062-0.146-0.132-0.235-0.213c-0.381-0.303-0.735-0.894-1.221-1.625c-0.459-0.748-0.963-1.704-1.376-2.896
	c-0.396-1.191-0.646-2.676-0.404-4.312c0.236-1.629,1.058-3.34,2.311-4.727c0.306-0.352,0.664-0.643,1.006-0.974l0.262-0.241
	l0.133-0.122l0.066-0.061l0.033-0.03l0.017-0.015l0.086-0.06l0.479-0.377c0.654-0.517,1.309-1.077,1.947-1.674
	c1.28-1.189,2.509-2.51,3.666-3.871c1.152-1.361,2.26-2.75,3.179-4.132c0.944-1.359,1.593-2.792,1.825-3.929
	c0.124-0.573,0.128-1.045,0.059-1.482c0.003-0.116-0.038-0.221-0.063-0.332l-0.035-0.166l-0.002-0.011
	c0.034,0.073-0.079-0.18,0.075,0.162l-0.017-0.04L48.5,11.685l-0.067-0.157l-0.262-0.628l-0.13-0.312l-0.063-0.151l-0.054-0.084
	c-0.147-0.226-0.238-0.465-0.386-0.722c-0.184-0.264-0.365-0.524-0.545-0.783c-0.208-0.235-0.416-0.468-0.619-0.699
	c-0.234-0.195-0.464-0.395-0.689-0.608c-0.956-0.754-2.072-1.231-3.192-1.456c-1.119-0.211-2.25-0.203-3.243,0.022
	c-0.484,0.131-0.958,0.267-1.376,0.441c-0.4,0.206-0.815,0.352-1.135,0.57c-0.331,0.216-0.624,0.408-0.88,0.576
	c-0.241,0.192-0.435,0.371-0.6,0.511c-0.161,0.144-0.28,0.26-0.453,0.268c-0.164,0.017-0.311-0.017-0.312-0.017L34.306,8.32
	c-0.001,0-0.072-0.125-0.088-0.288c-0.026-0.168,0.075-0.317,0.198-0.519s0.269-0.459,0.459-0.751
	c0.218-0.276,0.469-0.592,0.749-0.947c0.282-0.365,0.678-0.685,1.081-1.085c0.423-0.37,0.932-0.726,1.495-1.09
	c1.151-0.678,2.628-1.268,4.375-1.444c1.737-0.186,3.737,0.095,5.627,0.997c0.458,0.24,0.917,0.509,1.381,0.784
	c0.434,0.312,0.862,0.649,1.297,0.992c0.404,0.37,0.778,0.778,1.171,1.185c0.38,0.446,0.744,0.974,1.097,1.489l0.131,0.195
	l0.086,0.151l0.166,0.294l0.333,0.594l0.081,0.15l0.041,0.075l0.02,0.038l0.102,0.233l0.183,0.483
	c0.12,0.323,0.242,0.649,0.308,0.993c0.329,1.359,0.31,2.8,0.022,4.061c-0.574,2.553-1.884,4.509-3.228,6.188
	c-2.77,3.343-6.242,5.461-9.443,7.329c-0.806,0.462-1.592,0.915-2.377,1.347l-0.6,0.321l-0.386,0.273
	c-0.295,0.219-0.624,0.411-0.891,0.644c-1.105,0.913-1.791,2.061-2.091,3.237c-0.302,1.18-0.221,2.378,0.024,3.416
	c0.26,1.038,0.626,1.928,0.982,2.637c0.354,0.713,0.731,1.215,0.896,1.622c0.043,0.101,0.086,0.19,0.124,0.259
	c0.034,0.073,0.016,0.173,0.002,0.257c-0.032,0.172-0.112,0.324-0.108,0.318L37.341,42.918z"/>
<path fill="#B9529F" d="M58.923,84.884l-0.073-0.398l0.124-0.284c0.082-0.189,0.156-0.384,0.23-0.578
	c0.146-0.389,0.287-0.778,0.412-1.176c0.251-0.79,0.442-1.601,0.587-2.413c0.146-0.813,0.224-1.636,0.258-2.456
	c0.021-0.822-0.003-1.641-0.091-2.453c-0.089-0.81-0.221-1.613-0.42-2.401c-0.188-0.788-0.437-1.562-0.729-2.313
	c-0.285-0.755-0.643-1.481-1.009-2.198l-0.604-1.048c-0.208-0.347-0.446-0.675-0.667-1.012c-0.215-0.341-0.468-0.657-0.716-0.977
	c-0.253-0.316-0.479-0.65-0.758-0.945c-0.531-0.613-1.066-1.218-1.655-1.779c-0.557-0.588-1.188-1.111-1.792-1.651
	c-0.619-0.527-1.277-1.016-1.914-1.52c-0.676-0.465-1.332-0.948-2.017-1.396c-0.702-0.43-1.379-0.884-2.092-1.292
	c-0.72-0.398-1.426-0.815-2.153-1.198L41.64,54.28l0.182,0.09c-2.616-0.998-5.167-2.036-7.721-3.135
	c-2.549-1.095-5.087-2.232-7.615-3.422c-1.262-0.604-2.523-1.21-3.777-1.855c-0.628-0.313-1.258-0.634-1.878-0.983
	c-0.622-0.348-1.247-0.671-1.866-1.039l-1.859-1.099l-1.857-1.203c-0.62-0.409-1.243-0.902-1.864-1.353
	c-0.624-0.47-1.264-1.101-1.885-1.66l0.358,0.335c-0.671-0.553-1.108-0.958-1.613-1.444c-0.487-0.468-0.952-0.948-1.398-1.441
	c-0.905-0.979-1.734-2.016-2.528-3.088c-0.771-1.088-1.52-2.203-2.15-3.397c-0.346-0.578-0.617-1.203-0.908-1.816
	c-0.294-0.61-0.552-1.238-0.765-1.891c-0.211-0.651-0.485-1.277-0.634-1.95l-0.459-2.007c-0.149-0.669-0.177-1.368-0.264-2.047
	l-0.106-1.023c-0.023-0.342-0.004-0.689-0.004-1.032l0.038-2.053l0.255-2.029l0.134-1.005c0.069-0.331,0.156-0.657,0.235-0.984
	l0.492-1.949l0.062-0.243l0.007-0.03l0.003-0.015c0.027-0.115-0.03,0.138-0.022,0.107l0.015-0.054l0.046-0.171
	c0.073-0.273,0.136-0.44,0.203-0.634c0.139-0.373,0.28-0.729,0.445-1.071C3.256,6.999,3.639,6.355,4.05,5.731
	C4.886,4.494,5.94,3.39,7.145,2.51c1.205-0.868,2.531-1.579,3.917-1.937c0.68-0.24,1.379-0.306,2.061-0.445
	c0.341-0.055,0.684-0.059,1.022-0.089l0.509-0.034l0.253-0.015l0.126-0.008c-0.018,0.001,0.212-0.014,0.122-0.007l0.013,0.001
	l0.028,0.001l0.056,0.002l0.892,0.047c0.297,0.016,0.578,0.023,0.961,0.084c0.716,0.095,1.426,0.192,2.061,0.394
	c1.307,0.33,2.547,0.902,3.655,1.615c1.113,0.711,2.097,1.583,2.916,2.562c0.407,0.493,0.785,1.001,1.112,1.543
	c0.165,0.269,0.318,0.545,0.469,0.82c0.189,0.252,0.05,0.715-0.085,1.116c-0.409-0.126-0.851-0.174-0.988-0.417
	c-0.169-0.225-0.368-0.427-0.56-0.632c-0.39-0.404-0.807-0.777-1.235-1.127c-0.864-0.695-1.818-1.241-2.809-1.623
	c-0.99-0.384-2.012-0.627-3.05-0.671c-0.525-0.061-1.003-0.01-1.472,0.01c-0.209-0.006-0.521,0.045-0.817,0.088l-0.885,0.124
	L15.364,3.92l-0.028,0.004l-0.014,0.001c-0.1,0.007,0.12-0.008,0.093-0.005l-0.093,0.026l-0.187,0.05l-0.371,0.098
	c-0.245,0.071-0.498,0.115-0.731,0.204c-0.454,0.201-0.939,0.322-1.343,0.578c-0.862,0.416-1.583,0.984-2.209,1.61
	C9.858,7.119,9.356,7.855,8.989,8.662C8.812,9.067,8.645,9.478,8.536,9.896c-0.064,0.208-0.105,0.416-0.144,0.61
	c-0.014,0.091-0.037,0.208-0.027,0.224c-0.002,0.017,0,0.002-0.004,0.046l-0.007,0.055c0.005-0.021-0.052,0.24-0.028,0.135l0,0.012
	l-0.002,0.025l-0.017,0.195l-0.14,1.554l-0.071,0.769l0.021,0.77l0.029,1.524l0.207,1.502L8.45,18.06l0.168,0.735
	c0.119,0.488,0.198,0.978,0.337,1.459l0.437,1.437c0.145,0.477,0.349,0.944,0.517,1.417c0.091,0.235,0.166,0.475,0.268,0.706
	c0.108,0.23,0.222,0.458,0.322,0.691c0.208,0.463,0.39,0.938,0.648,1.384c0.466,0.912,0.98,1.809,1.537,2.686
	c0.574,0.866,1.182,1.719,1.848,2.52c0.329,0.406,0.669,0.796,1.019,1.172c0.327,0.359,0.749,0.772,0.979,0.992l0.14,0.135
	l0.217,0.201c0.394,0.363,0.699,0.735,1.144,1.125c0.467,0.384,0.891,0.783,1.393,1.166l1.523,1.144l1.613,1.109
	c0.535,0.373,1.109,0.72,1.663,1.082c0.555,0.359,1.114,0.721,1.688,1.071c1.128,0.715,2.286,1.403,3.445,2.092
	c2.331,1.364,4.697,2.691,7.091,3.982c2.393,1.279,4.817,2.556,7.221,3.776l0.183,0.089l2.227,1.43
	c0.735,0.488,1.449,1.014,2.172,1.519c0.718,0.515,1.405,1.083,2.104,1.62c0.689,0.557,1.35,1.155,2.022,1.731
	c0.641,0.621,1.296,1.221,1.91,1.865c0.602,0.661,1.233,1.288,1.786,1.995c0.584,0.674,1.114,1.398,1.632,2.127
	c0.273,0.354,0.494,0.749,0.738,1.124c0.241,0.379,0.484,0.753,0.689,1.155c0.21,0.397,0.436,0.784,0.631,1.188l0.56,1.226
	c0.333,0.835,0.649,1.674,0.887,2.54c0.245,0.862,0.438,1.739,0.562,2.624c0.136,0.883,0.197,1.775,0.209,2.664
	c0.012,0.889-0.047,1.774-0.153,2.651c-0.121,0.875-0.269,1.743-0.498,2.591c-0.225,0.849-0.497,1.683-0.829,2.49
	c-0.174,0.403-0.347,0.804-0.553,1.19c-0.104,0.192-0.208,0.385-0.321,0.573l-0.172,0.281c-0.118,0.06-0.262,0.113-0.388,0.158
	L58.923,84.884z"/>
<path fill="#414042" d="M86.927,46.343c0.259,0.259,0.387,0.559,0.387,0.902c0,0.387-0.128,0.698-0.387,0.936
	c-0.257,0.236-0.558,0.354-0.902,0.354H66.694c-0.344,0-0.645-0.117-0.902-0.354c-0.258-0.237-0.387-0.549-0.387-0.936
	c0-0.344,0.129-0.644,0.387-0.902c0.257-0.257,0.558-0.387,0.902-0.387h8.376V6.329h-8.376c-0.344,0-0.645-0.119-0.902-0.355
	c-0.258-0.235-0.387-0.547-0.387-0.934c0-0.344,0.129-0.646,0.387-0.902c0.257-0.259,0.558-0.387,0.902-0.387h19.331
	c0.344,0,0.645,0.128,0.902,0.387c0.259,0.256,0.387,0.558,0.387,0.902c0,0.386-0.128,0.699-0.387,0.934
	c-0.257,0.236-0.558,0.355-0.902,0.355h-8.376v39.627h8.376C86.369,45.956,86.669,46.086,86.927,46.343"/>
<path fill="none" stroke="#414042" stroke-miterlimit="10" d="M86.927,46.343c0.259,0.259,0.387,0.559,0.387,0.902
	c0,0.387-0.128,0.698-0.387,0.936c-0.257,0.236-0.558,0.354-0.902,0.354H66.694c-0.344,0-0.645-0.117-0.902-0.354
	c-0.258-0.237-0.387-0.549-0.387-0.936c0-0.344,0.129-0.644,0.387-0.902c0.257-0.257,0.558-0.387,0.902-0.387h8.376V6.329h-8.376
	c-0.344,0-0.645-0.119-0.902-0.355c-0.258-0.235-0.387-0.547-0.387-0.934c0-0.344,0.129-0.646,0.387-0.902
	c0.257-0.259,0.558-0.387,0.902-0.387h19.331c0.344,0,0.645,0.128,0.902,0.387c0.259,0.256,0.387,0.558,0.387,0.902
	c0,0.386-0.128,0.699-0.387,0.934c-0.257,0.236-0.558,0.355-0.902,0.355h-8.376v39.627h8.376
	C86.369,45.956,86.669,46.086,86.927,46.343z"/>
<path fill="#414042" d="M116.954,26.369c0.342,1.158,0.557,2.341,0.645,3.542c0.084,1.204,0.128,2.471,0.128,3.803l-0.064,13.661
	c0,0.344-0.129,0.634-0.386,0.868c-0.259,0.237-0.559,0.355-0.903,0.355c-0.344,0-0.645-0.128-0.901-0.387
	c-0.258-0.259-0.387-0.559-0.387-0.902l0.064-13.596c0-1.246-0.032-2.417-0.098-3.513c-0.064-1.095-0.247-2.135-0.546-3.124
	c-0.645-2.19-1.804-3.995-3.48-5.414c-0.902-0.73-1.923-1.288-3.06-1.676c-1.139-0.386-2.288-0.6-3.448-0.644
	c-2.32,0-4.361,0.644-6.122,1.933V47.31c0,0.388-0.129,0.699-0.387,0.934c-0.257,0.237-0.559,0.355-0.902,0.355
	c-0.343,0-0.644-0.118-0.902-0.355c-0.257-0.234-0.387-0.546-0.387-0.934V17.991c0-0.344,0.13-0.644,0.387-0.902
	c0.259-0.257,0.56-0.387,0.902-0.387c0.343,0,0.646,0.13,0.902,0.387c0.258,0.259,0.387,0.559,0.387,0.902v0.258
	c1.847-0.989,3.887-1.482,6.122-1.482c1.502,0.044,2.953,0.312,4.349,0.805c1.396,0.495,2.652,1.192,3.77,2.094
	C114.74,21.342,116.181,23.577,116.954,26.369"/>
<path fill="none" stroke="#414042" stroke-miterlimit="10" d="M116.954,26.369c0.342,1.158,0.557,2.341,0.645,3.542
	c0.084,1.204,0.128,2.471,0.128,3.803l-0.064,13.661c0,0.344-0.129,0.634-0.386,0.868c-0.259,0.237-0.559,0.355-0.903,0.355
	c-0.344,0-0.645-0.128-0.901-0.387c-0.258-0.259-0.387-0.559-0.387-0.902l0.064-13.596c0-1.246-0.032-2.417-0.098-3.513
	c-0.064-1.095-0.247-2.135-0.546-3.124c-0.645-2.19-1.804-3.995-3.48-5.414c-0.902-0.73-1.923-1.288-3.06-1.676
	c-1.139-0.386-2.288-0.6-3.448-0.644c-2.32,0-4.361,0.644-6.122,1.933V47.31c0,0.388-0.129,0.699-0.387,0.934
	c-0.257,0.237-0.559,0.355-0.902,0.355c-0.343,0-0.644-0.118-0.902-0.355c-0.257-0.234-0.387-0.546-0.387-0.934V17.991
	c0-0.344,0.13-0.644,0.387-0.902c0.259-0.257,0.56-0.387,0.902-0.387c0.343,0,0.646,0.13,0.902,0.387
	c0.258,0.259,0.387,0.559,0.387,0.902v0.258c1.847-0.989,3.887-1.482,6.122-1.482c1.502,0.044,2.953,0.312,4.349,0.805
	c1.396,0.495,2.652,1.192,3.77,2.094C114.74,21.342,116.181,23.577,116.954,26.369z"/>
<path fill="#414042" d="M145.453,45.937h0.47c0.343,0,0.644,0.128,0.902,0.385c0.257,0.259,0.387,0.561,0.387,0.903
	c0,0.344-0.13,0.644-0.387,0.902c-0.259,0.257-0.56,0.407-0.902,0.407h-0.497h-0.068c-14.062,0.013-14.991-12.042-14.991-12.042
	V5.104c0-0.343,0.13-0.644,0.387-0.902c0.259-0.256,0.559-0.386,0.902-0.386c0.343,0,0.645,0.13,0.903,0.386
	c0.257,0.259,0.386,0.56,0.386,0.902v10.121l11.124-0.02c0.343,0,0.645,0.128,0.901,0.385c0.257,0.258,0.388,0.56,0.388,0.903
	s-0.131,0.644-0.388,0.902c-0.257,0.257-0.559,0.388-0.901,0.388l-11.124,0.02v18.689c1.185,10.008,12.413,9.444,12.413,9.444
	H145.453z"/>
<path fill="none" stroke="#414042" stroke-miterlimit="10" d="M145.453,45.937h0.47c0.343,0,0.644,0.128,0.902,0.385
	c0.257,0.259,0.387,0.561,0.387,0.903c0,0.344-0.13,0.644-0.387,0.902c-0.259,0.257-0.56,0.407-0.902,0.407h-0.497h-0.068
	c-14.062,0.013-14.991-12.042-14.991-12.042V5.104c0-0.343,0.13-0.644,0.387-0.902c0.259-0.256,0.559-0.386,0.902-0.386
	c0.343,0,0.645,0.13,0.903,0.386c0.257,0.259,0.386,0.56,0.386,0.902v10.121l11.124-0.02c0.343,0,0.645,0.128,0.901,0.385
	c0.257,0.258,0.388,0.56,0.388,0.903s-0.131,0.644-0.388,0.902c-0.257,0.257-0.559,0.388-0.901,0.388l-11.124,0.02v18.689
	c1.185,10.008,12.413,9.444,12.413,9.444H145.453z"/>
<path fill="#414042" d="M221,17.883c0.343,0,0.645,0.12,0.901,0.355c0.259,0.236,0.387,0.549,0.387,0.934v29.448
	c0,0.345-0.128,0.645-0.387,0.903c-0.257,0.257-0.559,0.385-0.901,0.385c-0.344,0-0.644-0.128-0.902-0.385
	c-0.259-0.259-0.387-0.559-0.387-0.903V19.171c0-0.385,0.128-0.697,0.387-0.934C220.356,18.003,220.656,17.883,221,17.883"/>
<path fill="none" stroke="#414042" stroke-miterlimit="10" d="M221,17.883c0.343,0,0.645,0.12,0.901,0.355
	c0.259,0.236,0.387,0.549,0.387,0.934v29.448c0,0.345-0.128,0.645-0.387,0.903c-0.257,0.257-0.559,0.385-0.901,0.385
	c-0.344,0-0.644-0.128-0.902-0.385c-0.259-0.259-0.387-0.559-0.387-0.903V19.171c0-0.385,0.128-0.697,0.387-0.934
	C220.356,18.003,220.656,17.883,221,17.883z"/>
<path fill="#414042" d="M156.574,47.503c0,0.344,0.129,0.644,0.387,0.902c0.257,0.259,0.557,0.387,0.902,0.387
	c0.344,0,0.644-0.128,0.902-0.387c0.257-0.259,0.387-0.559,0.387-0.902V18.056c0-0.387-0.13-0.698-0.387-0.936
	c-0.259-0.235-0.559-0.354-0.902-0.354c-0.346,0-0.646,0.119-0.902,0.354c-0.258,0.237-0.387,0.549-0.387,0.936V47.503z"/>
<path fill="none" stroke="#414042" stroke-miterlimit="10" d="M156.574,47.503c0,0.344,0.129,0.644,0.387,0.902
	c0.257,0.259,0.557,0.387,0.902,0.387c0.344,0,0.644-0.128,0.902-0.387c0.257-0.259,0.387-0.559,0.387-0.902V18.056
	c0-0.387-0.13-0.698-0.387-0.936c-0.259-0.235-0.559-0.354-0.902-0.354c-0.346,0-0.646,0.119-0.902,0.354
	c-0.258,0.237-0.387,0.549-0.387,0.936V47.503z"/>
<path fill="#414042" d="M210.472,31.22c-0.087-1.202-0.303-2.384-0.646-3.542c-0.773-2.793-2.213-5.027-4.318-6.703
	c-1.117-0.902-2.374-1.599-3.77-2.094c-1.396-0.494-2.846-0.762-4.348-0.805c-2.234,0-4.276,0.494-6.122,1.482
	c0,0-1.827,0.917-3.301,2.047l-0.847-1.076c-0.285-0.279-0.589-0.545-0.905-0.797c-1.119-0.902-2.374-1.599-3.77-2.094
	c-1.397-0.494-2.848-0.763-4.35-0.805c-2.234,0-4.275,0.494-6.122,1.482v-0.258c0-0.344-0.129-0.644-0.387-0.902
	c-0.258-0.256-0.559-0.387-0.902-0.387s-0.644,0.131-0.902,0.387c-0.258,0.259-0.387,0.559-0.387,0.902v29.319
	c0,0.387,0.129,0.698,0.387,0.934c0.259,0.236,0.559,0.355,0.902,0.355s0.645-0.119,0.902-0.355
	c0.258-0.235,0.387-0.547,0.387-0.934V21.342c1.761-1.289,3.801-1.933,6.122-1.933c1.16,0.043,2.309,0.257,3.447,0.644
	c1.137,0.387,2.157,0.945,3.06,1.676c1.675,1.418,2.836,3.223,3.48,5.414c0.301,0.988,0.482,2.029,0.547,3.124
	c0.065,1.095,0.097,2.267,0.097,3.513c0,0,0.012,1.366,1.266,1.366s1.312-1.366,1.312-1.366c0-1.333-0.044-2.599-0.13-3.803
	c-0.086-1.202-0.301-2.384-0.644-3.542c-0.256-0.924-0.607-1.766-1.009-2.568c0.74-0.661,1.745-1.28,1.745-1.28
	c1.761-1.289,3.802-1.933,6.122-1.933c1.158,0.043,2.308,0.257,3.446,0.644s2.159,0.945,3.061,1.676
	c1.676,1.418,2.836,3.223,3.479,5.414c0.3,0.988,0.483,2.029,0.549,3.124c0.064,1.095,0.097,2.267,0.097,3.513l-0.065,13.596
	c0,0.343,0.129,0.644,0.387,0.901c0.259,0.259,0.559,0.387,0.902,0.387c0.343,0,0.645-0.118,0.901-0.354
	c0.259-0.235,0.387-0.525,0.387-0.869l0.065-13.661C210.6,33.691,210.557,32.424,210.472,31.22"/>
<path fill="none" stroke="#414042" stroke-miterlimit="10" d="M210.472,31.22c-0.087-1.202-0.303-2.384-0.646-3.542
	c-0.773-2.793-2.213-5.027-4.318-6.703c-1.117-0.902-2.374-1.599-3.77-2.094c-1.396-0.494-2.846-0.762-4.348-0.805
	c-2.234,0-4.276,0.494-6.122,1.482c0,0-1.827,0.917-3.301,2.047l-0.847-1.076c-0.285-0.279-0.589-0.545-0.905-0.797
	c-1.119-0.902-2.374-1.599-3.77-2.094c-1.397-0.494-2.848-0.763-4.35-0.805c-2.234,0-4.275,0.494-6.122,1.482v-0.258
	c0-0.344-0.129-0.644-0.387-0.902c-0.258-0.256-0.559-0.387-0.902-0.387s-0.644,0.131-0.902,0.387
	c-0.258,0.259-0.387,0.559-0.387,0.902v29.319c0,0.387,0.129,0.698,0.387,0.934c0.259,0.236,0.559,0.355,0.902,0.355
	s0.645-0.119,0.902-0.355c0.258-0.235,0.387-0.547,0.387-0.934V21.342c1.761-1.289,3.801-1.933,6.122-1.933
	c1.16,0.043,2.309,0.257,3.447,0.644c1.137,0.387,2.157,0.945,3.06,1.676c1.675,1.418,2.836,3.223,3.48,5.414
	c0.301,0.988,0.482,2.029,0.547,3.124c0.065,1.095,0.097,2.267,0.097,3.513c0,0,0.012,1.366,1.266,1.366s1.312-1.366,1.312-1.366
	c0-1.333-0.044-2.599-0.13-3.803c-0.086-1.202-0.301-2.384-0.644-3.542c-0.256-0.924-0.607-1.766-1.009-2.568
	c0.74-0.661,1.745-1.28,1.745-1.28c1.761-1.289,3.802-1.933,6.122-1.933c1.158,0.043,2.308,0.257,3.446,0.644
	s2.159,0.945,3.061,1.676c1.676,1.418,2.836,3.223,3.479,5.414c0.3,0.988,0.483,2.029,0.549,3.124
	c0.064,1.095,0.097,2.267,0.097,3.513l-0.065,13.596c0,0.343,0.129,0.644,0.387,0.901c0.259,0.259,0.559,0.387,0.902,0.387
	c0.343,0,0.645-0.118,0.901-0.354c0.259-0.235,0.387-0.525,0.387-0.869l0.065-13.661C210.6,33.691,210.557,32.424,210.472,31.22z"/>
<path fill="#414042" d="M255.08,16.934c-0.257-0.235-0.559-0.355-0.902-0.355h-0.001h-13.518c0,0-9.018-0.173-9.018,8.404v12.882
	c0,0,0.927,12.056,14.987,12.042h0.07h7.447c0.344,0,0.646-0.149,0.902-0.406c0.258-0.259,0.387-0.559,0.387-0.902
	s-0.129-0.646-0.387-0.903c-0.257-0.257-0.559-0.386-0.902-0.386h-7.421h-0.097c0,0-11.227,0.563-12.41-9.444V24.983
	c0,0-0.74-5.805,6.44-5.816l12.23-0.009v5.728c0,0.346,0.13,0.646,0.387,0.904c0.258,0.257,0.559,0.385,0.901,0.385
	c0.344,0,0.646-0.128,0.902-0.385c0.259-0.258,0.387-0.558,0.387-0.904v-7.017C255.467,17.483,255.339,17.171,255.08,16.934"/>
<path fill="none" stroke="#414042" stroke-miterlimit="10" d="M255.08,16.934c-0.257-0.235-0.559-0.355-0.902-0.355h-0.001h-13.518
	c0,0-9.018-0.173-9.018,8.404v12.882c0,0,0.927,12.056,14.987,12.042h0.07h7.447c0.344,0,0.646-0.149,0.902-0.406
	c0.258-0.259,0.387-0.559,0.387-0.902s-0.129-0.646-0.387-0.903c-0.257-0.257-0.559-0.386-0.902-0.386h-7.421h-0.097
	c0,0-11.227,0.563-12.41-9.444V24.983c0,0-0.74-5.805,6.44-5.816l12.23-0.009v5.728c0,0.346,0.13,0.646,0.387,0.904
	c0.258,0.257,0.559,0.385,0.901,0.385c0.344,0,0.646-0.128,0.902-0.385c0.259-0.258,0.387-0.558,0.387-0.904v-7.017
	C255.467,17.483,255.339,17.171,255.08,16.934z"/>
<path fill="#414042" d="M266.238,17.883c0.344,0,0.646,0.12,0.902,0.355c0.258,0.236,0.387,0.549,0.387,0.934v29.448
	c0,0.345-0.129,0.645-0.387,0.903c-0.257,0.257-0.559,0.385-0.902,0.385c-0.343,0-0.644-0.128-0.901-0.385
	c-0.259-0.259-0.387-0.559-0.387-0.903V19.171c0-0.385,0.128-0.697,0.387-0.934C265.595,18.003,265.896,17.883,266.238,17.883"/>
<path fill="none" stroke="#414042" stroke-miterlimit="10" d="M266.238,17.883c0.344,0,0.646,0.12,0.902,0.355
	c0.258,0.236,0.387,0.549,0.387,0.934v29.448c0,0.345-0.129,0.645-0.387,0.903c-0.257,0.257-0.559,0.385-0.902,0.385
	c-0.343,0-0.644-0.128-0.901-0.385c-0.259-0.259-0.387-0.559-0.387-0.903V19.171c0-0.385,0.128-0.697,0.387-0.934
	C265.595,18.003,265.896,17.883,266.238,17.883z"/>
<path fill="none" stroke="#FFFFFF" stroke-width="2" stroke-miterlimit="10" d="M221,4.802c0.858,0,1.578,0.29,2.158,0.871
	c0.58,0.58,0.871,1.3,0.871,2.159c0,0.861-0.291,1.579-0.871,2.159s-1.3,0.871-2.158,0.871c-0.86,0-1.589-0.29-2.191-0.871
	c-0.602-0.581-0.901-1.298-0.901-2.159c0-0.858,0.3-1.579,0.901-2.159C219.411,5.092,220.14,4.802,221,4.802z"/>
<path fill="none" stroke="#FFFFFF" stroke-width="2" stroke-miterlimit="10" d="M157.863,3.687c0.858,0,1.579,0.29,2.159,0.871
	c0.578,0.58,0.868,1.298,0.868,2.159c0,0.859-0.29,1.577-0.868,2.157c-0.58,0.58-1.301,0.871-2.159,0.871
	c-0.86,0-1.591-0.291-2.19-0.871c-0.603-0.581-0.902-1.298-0.902-2.157c0-0.86,0.3-1.579,0.902-2.159
	C156.272,3.977,157.003,3.687,157.863,3.687z"/>
<path fill="#B9529F" d="M221,4.802c0.858,0,1.578,0.29,2.158,0.871c0.58,0.58,0.871,1.3,0.871,2.159
	c0,0.861-0.291,1.579-0.871,2.159s-1.3,0.871-2.158,0.871c-0.86,0-1.589-0.29-2.191-0.871c-0.602-0.581-0.901-1.298-0.901-2.159
	c0-0.858,0.3-1.579,0.901-2.159C219.411,5.092,220.14,4.802,221,4.802"/>
<path fill="#B9529F" d="M266.002,4.802c0.858,0,1.579,0.29,2.159,0.871c0.58,0.58,0.87,1.3,0.87,2.159
	c0,0.861-0.29,1.579-0.87,2.159s-1.301,0.871-2.159,0.871s-1.589-0.29-2.19-0.871c-0.603-0.581-0.902-1.298-0.902-2.159
	c0-0.858,0.3-1.579,0.902-2.159C264.413,5.092,265.144,4.802,266.002,4.802"/>
<path fill="#B9529F" d="M157.863,3.687c0.858,0,1.579,0.29,2.159,0.871c0.578,0.58,0.868,1.298,0.868,2.159
	c0,0.859-0.29,1.577-0.868,2.157c-0.58,0.58-1.301,0.871-2.159,0.871c-0.86,0-1.591-0.291-2.19-0.871
	c-0.603-0.581-0.902-1.298-0.902-2.157c0-0.86,0.3-1.579,0.902-2.159C156.272,3.977,157.003,3.687,157.863,3.687"/>
</svg>
