<?xml version="1.0" encoding="utf-8"?>
<!-- Generator: Adobe Illustrator 15.0.0, SVG Export Plug-In . SVG Version: 6.00 Build 0)  -->
<!DOCTYPE svg PUBLIC "-//W3C//DTD SVG 1.1//EN" "http://www.w3.org/Graphics/SVG/1.1/DTD/svg11.dtd">
<svg version="1.1" id="Layer_1" xmlns="http://www.w3.org/2000/svg" xmlns:xlink="http://www.w3.org/1999/xlink" x="0px" y="0px"
	 width="195px" height="61px" viewBox="0 0 195 61" enable-background="new 0 0 195 61" xml:space="preserve">
<g>
	<path fill="#FFFFFF" d="M67.843,34.709c0.178,0.178,0.267,0.385,0.267,0.621c0,0.267-0.088,0.481-0.267,0.645
		c-0.178,0.163-0.385,0.244-0.622,0.244h-13.32c-0.237,0-0.444-0.081-0.622-0.244c-0.178-0.163-0.267-0.378-0.267-0.645
		c0-0.236,0.089-0.443,0.267-0.621c0.177-0.177,0.384-0.267,0.622-0.267h5.771V7.137h-5.771c-0.237,0-0.444-0.082-0.622-0.245
		c-0.178-0.162-0.267-0.377-0.267-0.644c0-0.236,0.089-0.444,0.267-0.621c0.177-0.178,0.384-0.266,0.622-0.266h13.32
		c0.237,0,0.444,0.088,0.622,0.266c0.178,0.177,0.267,0.385,0.267,0.621c0,0.267-0.088,0.481-0.267,0.644
		c-0.178,0.163-0.385,0.245-0.622,0.245h-5.772v27.305h5.772C67.458,34.442,67.665,34.532,67.843,34.709"/>
	<path fill="none" stroke="#FFFFFF" d="M67.843,34.709c0.178,0.178,0.267,0.385,0.267,0.621c0,0.267-0.088,0.481-0.267,0.645
		c-0.178,0.163-0.385,0.244-0.622,0.244h-13.32c-0.237,0-0.444-0.081-0.622-0.244c-0.178-0.163-0.267-0.378-0.267-0.645
		c0-0.236,0.089-0.443,0.267-0.621c0.177-0.177,0.384-0.267,0.622-0.267h5.771V7.137h-5.771c-0.237,0-0.444-0.082-0.622-0.245
		c-0.178-0.162-0.267-0.377-0.267-0.644c0-0.236,0.089-0.444,0.267-0.621c0.177-0.178,0.384-0.266,0.622-0.266h13.32
		c0.237,0,0.444,0.088,0.622,0.266c0.178,0.177,0.267,0.385,0.267,0.621c0,0.267-0.088,0.481-0.267,0.644
		c-0.178,0.163-0.385,0.245-0.622,0.245h-5.772v27.305h5.772C67.458,34.442,67.665,34.532,67.843,34.709z"/>
	<path fill="#FFFFFF" d="M88.533,20.945c0.236,0.798,0.384,1.613,0.444,2.441c0.059,0.829,0.088,1.702,0.088,2.62l-0.044,9.413
		c0,0.236-0.089,0.437-0.266,0.599c-0.178,0.163-0.385,0.245-0.622,0.245s-0.444-0.089-0.621-0.267
		c-0.178-0.179-0.267-0.385-0.267-0.622l0.044-9.368c0-0.858-0.021-1.666-0.067-2.42c-0.044-0.755-0.17-1.472-0.376-2.153
		c-0.444-1.509-1.243-2.752-2.398-3.73c-0.622-0.503-1.325-0.887-2.109-1.154c-0.784-0.267-1.576-0.414-2.375-0.444
		c-1.599,0-3.005,0.444-4.219,1.332v17.938c0,0.267-0.089,0.481-0.266,0.644c-0.177,0.163-0.385,0.245-0.622,0.245
		c-0.236,0-0.443-0.082-0.622-0.245c-0.177-0.162-0.267-0.377-0.267-0.644V15.173c0-0.237,0.09-0.443,0.267-0.622
		c0.178-0.177,0.385-0.267,0.622-0.267c0.237,0,0.445,0.09,0.622,0.267c0.177,0.178,0.266,0.385,0.266,0.622v0.178
		c1.273-0.681,2.679-1.021,4.219-1.021c1.035,0.03,2.034,0.215,2.997,0.555c0.962,0.341,1.827,0.821,2.597,1.443
		C87.007,17.482,88,19.022,88.533,20.945"/>
	<path fill="none" stroke="#FFFFFF" d="M88.533,20.945c0.236,0.798,0.384,1.613,0.444,2.441c0.059,0.829,0.088,1.702,0.088,2.62
		l-0.044,9.413c0,0.236-0.089,0.437-0.266,0.599c-0.178,0.163-0.385,0.245-0.622,0.245s-0.444-0.089-0.621-0.267
		c-0.178-0.179-0.267-0.385-0.267-0.622l0.044-9.368c0-0.858-0.021-1.666-0.067-2.42c-0.044-0.755-0.17-1.472-0.376-2.153
		c-0.444-1.509-1.243-2.752-2.398-3.73c-0.622-0.503-1.325-0.887-2.109-1.154c-0.784-0.267-1.576-0.414-2.375-0.444
		c-1.599,0-3.005,0.444-4.219,1.332v17.938c0,0.267-0.089,0.481-0.266,0.644c-0.177,0.163-0.385,0.245-0.622,0.245
		c-0.236,0-0.443-0.082-0.622-0.245c-0.177-0.162-0.267-0.377-0.267-0.644V15.173c0-0.237,0.09-0.443,0.267-0.622
		c0.178-0.177,0.385-0.267,0.622-0.267c0.237,0,0.445,0.09,0.622,0.267c0.177,0.178,0.266,0.385,0.266,0.622v0.178
		c1.273-0.681,2.679-1.021,4.219-1.021c1.035,0.03,2.034,0.215,2.997,0.555c0.962,0.341,1.827,0.821,2.597,1.443
		C87.007,17.482,88,19.022,88.533,20.945z"/>
	<path fill="#FFFFFF" d="M108.171,34.429h0.323c0.236,0,0.443,0.088,0.62,0.266c0.179,0.178,0.268,0.386,0.268,0.622
		c0,0.237-0.089,0.443-0.268,0.622c-0.177,0.177-0.384,0.28-0.62,0.28h-0.343h-0.048c-9.689,0.009-10.328-8.298-10.328-8.298V6.293
		c0-0.237,0.089-0.443,0.266-0.622c0.179-0.177,0.386-0.267,0.622-0.267s0.444,0.09,0.622,0.267
		c0.178,0.178,0.266,0.385,0.266,0.622v6.974l7.665-0.014c0.236,0,0.444,0.088,0.621,0.265c0.178,0.178,0.267,0.386,0.267,0.623
		c0,0.237-0.089,0.443-0.267,0.622c-0.177,0.177-0.385,0.267-0.621,0.267l-7.665,0.014v12.878c0.817,6.896,8.553,6.508,8.553,6.508
		H108.171z"/>
	<path fill="none" stroke="#FFFFFF" stroke-miterlimit="10" d="M108.171,34.429h0.323c0.236,0,0.443,0.088,0.62,0.266
		c0.179,0.178,0.268,0.386,0.268,0.622c0,0.237-0.089,0.443-0.268,0.622c-0.177,0.177-0.384,0.28-0.62,0.28h-0.343h-0.048
		c-9.689,0.009-10.328-8.298-10.328-8.298V6.293c0-0.237,0.089-0.443,0.266-0.622c0.179-0.177,0.386-0.267,0.622-0.267
		s0.444,0.09,0.622,0.267c0.178,0.178,0.266,0.385,0.266,0.622v6.974l7.665-0.014c0.236,0,0.444,0.088,0.621,0.265
		c0.178,0.178,0.267,0.386,0.267,0.623c0,0.237-0.089,0.443-0.267,0.622c-0.177,0.177-0.385,0.267-0.621,0.267l-7.665,0.014v12.878
		c0.817,6.896,8.553,6.508,8.553,6.508H108.171z"/>
	<path fill="#FFFFFF" d="M160.226,15.098c0.236,0,0.444,0.083,0.621,0.245c0.179,0.163,0.267,0.378,0.267,0.644v20.291
		c0,0.237-0.088,0.444-0.267,0.622c-0.177,0.177-0.385,0.266-0.621,0.266c-0.237,0-0.443-0.089-0.622-0.266
		c-0.177-0.178-0.267-0.385-0.267-0.622V15.986c0-0.266,0.09-0.48,0.267-0.644C159.782,15.181,159.988,15.098,160.226,15.098"/>
	<path fill="none" stroke="#FFFFFF" d="M160.226,15.098c0.236,0,0.444,0.083,0.621,0.245c0.179,0.163,0.267,0.378,0.267,0.644
		v20.291c0,0.237-0.088,0.444-0.267,0.622c-0.177,0.177-0.385,0.266-0.621,0.266c-0.237,0-0.443-0.089-0.622-0.266
		c-0.177-0.178-0.267-0.385-0.267-0.622V15.986c0-0.266,0.09-0.48,0.267-0.644C159.782,15.181,159.988,15.098,160.226,15.098z"/>
	<path fill="#FFFFFF" d="M115.833,35.509c0,0.236,0.089,0.443,0.267,0.621s0.384,0.267,0.622,0.267c0.236,0,0.443-0.089,0.621-0.267
		s0.268-0.385,0.268-0.621V15.218c0-0.267-0.09-0.481-0.268-0.645c-0.178-0.162-0.385-0.244-0.621-0.244
		c-0.238,0-0.444,0.082-0.622,0.244c-0.178,0.164-0.267,0.378-0.267,0.645V35.509z"/>
	<path fill="none" stroke="#FFFFFF" d="M115.833,35.509c0,0.236,0.089,0.443,0.267,0.621s0.384,0.267,0.622,0.267
		c0.236,0,0.443-0.089,0.621-0.267s0.268-0.385,0.268-0.621V15.218c0-0.267-0.09-0.481-0.268-0.645
		c-0.178-0.162-0.385-0.244-0.621-0.244c-0.238,0-0.444,0.082-0.622,0.244c-0.178,0.164-0.267,0.378-0.267,0.645V35.509z"/>
	<path fill="#FFFFFF" d="M152.971,24.289c-0.06-0.829-0.207-1.643-0.443-2.441c-0.533-1.924-1.525-3.463-2.976-4.618
		c-0.77-0.621-1.636-1.102-2.598-1.443c-0.962-0.34-1.961-0.525-2.996-0.554c-1.54,0-2.946,0.339-4.218,1.021
		c0,0-1.26,0.632-2.275,1.411l-0.583-0.742c-0.197-0.192-0.406-0.375-0.624-0.549c-0.771-0.622-1.637-1.102-2.598-1.443
		c-0.963-0.34-1.962-0.525-2.997-0.554c-1.54,0-2.945,0.339-4.219,1.021v-0.178c0-0.237-0.088-0.443-0.267-0.622
		c-0.177-0.177-0.385-0.267-0.621-0.267s-0.443,0.09-0.621,0.267c-0.178,0.178-0.267,0.385-0.267,0.622V35.42
		c0,0.267,0.089,0.481,0.267,0.644c0.178,0.163,0.385,0.245,0.621,0.245s0.444-0.082,0.621-0.245
		c0.179-0.162,0.267-0.377,0.267-0.644V17.482c1.214-0.888,2.619-1.332,4.219-1.332c0.799,0.03,1.591,0.177,2.375,0.443
		c0.784,0.267,1.487,0.651,2.109,1.155c1.154,0.978,1.953,2.221,2.397,3.73c0.207,0.681,0.333,1.398,0.377,2.153
		c0.045,0.755,0.066,1.562,0.066,2.42c0,0,0.009,0.941,0.873,0.941c0.863,0,0.904-0.941,0.904-0.941c0-0.918-0.03-1.791-0.09-2.62
		c-0.06-0.829-0.207-1.643-0.443-2.441c-0.177-0.636-0.419-1.216-0.695-1.769c0.51-0.455,1.203-0.882,1.203-0.882
		c1.213-0.888,2.619-1.332,4.218-1.332c0.799,0.03,1.59,0.177,2.375,0.443c0.784,0.267,1.487,0.651,2.108,1.155
		c1.155,0.978,1.954,2.221,2.397,3.73c0.207,0.681,0.334,1.398,0.378,2.153c0.045,0.755,0.067,1.562,0.067,2.42l-0.045,9.369
		c0,0.236,0.088,0.443,0.267,0.621c0.177,0.178,0.384,0.267,0.621,0.267c0.236,0,0.444-0.082,0.622-0.244s0.266-0.362,0.266-0.599
		l0.045-9.414C153.06,25.992,153.03,25.118,152.971,24.289"/>
	<path fill="none" stroke="#FFFFFF" stroke-miterlimit="10" d="M152.971,24.289c-0.06-0.829-0.207-1.643-0.443-2.441
		c-0.533-1.924-1.525-3.463-2.976-4.618c-0.77-0.621-1.636-1.102-2.598-1.443c-0.962-0.34-1.961-0.525-2.996-0.554
		c-1.54,0-2.946,0.339-4.218,1.021c0,0-1.26,0.632-2.275,1.411l-0.583-0.742c-0.197-0.192-0.406-0.375-0.624-0.549
		c-0.771-0.622-1.637-1.102-2.598-1.443c-0.963-0.34-1.962-0.525-2.997-0.554c-1.54,0-2.945,0.339-4.219,1.021v-0.178
		c0-0.237-0.088-0.443-0.267-0.622c-0.177-0.177-0.385-0.267-0.621-0.267s-0.443,0.09-0.621,0.267
		c-0.178,0.178-0.267,0.385-0.267,0.622V35.42c0,0.267,0.089,0.481,0.267,0.644c0.178,0.163,0.385,0.245,0.621,0.245
		s0.444-0.082,0.621-0.245c0.179-0.162,0.267-0.377,0.267-0.644V17.482c1.214-0.888,2.619-1.332,4.219-1.332
		c0.799,0.03,1.591,0.177,2.375,0.443c0.784,0.267,1.487,0.651,2.109,1.155c1.154,0.978,1.953,2.221,2.397,3.73
		c0.207,0.681,0.333,1.398,0.377,2.153c0.045,0.755,0.066,1.562,0.066,2.42c0,0,0.009,0.941,0.873,0.941
		c0.863,0,0.904-0.941,0.904-0.941c0-0.918-0.03-1.791-0.09-2.62c-0.06-0.829-0.207-1.643-0.443-2.441
		c-0.177-0.636-0.419-1.216-0.695-1.769c0.51-0.455,1.203-0.882,1.203-0.882c1.213-0.888,2.619-1.332,4.218-1.332
		c0.799,0.03,1.59,0.177,2.375,0.443c0.784,0.267,1.487,0.651,2.108,1.155c1.155,0.978,1.954,2.221,2.397,3.73
		c0.207,0.681,0.334,1.398,0.378,2.153c0.045,0.755,0.067,1.562,0.067,2.42l-0.045,9.369c0,0.236,0.088,0.443,0.267,0.621
		c0.177,0.178,0.384,0.267,0.621,0.267c0.236,0,0.444-0.082,0.622-0.244s0.266-0.362,0.266-0.599l0.045-9.414
		C153.06,25.992,153.03,25.118,152.971,24.289z"/>
	<path fill="#FFFFFF" d="M191.397,15.098c0.236,0,0.444,0.083,0.621,0.245c0.179,0.163,0.267,0.378,0.267,0.644v20.291
		c0,0.237-0.088,0.444-0.267,0.622c-0.177,0.177-0.385,0.266-0.621,0.266s-0.443-0.089-0.622-0.266
		c-0.177-0.178-0.266-0.385-0.266-0.622V15.986c0-0.266,0.089-0.48,0.266-0.644C190.954,15.181,191.161,15.098,191.397,15.098"/>
	<path fill="none" stroke="#FFFFFF" d="M191.397,15.098c0.236,0,0.444,0.083,0.621,0.245c0.179,0.163,0.267,0.378,0.267,0.644
		v20.291c0,0.237-0.088,0.444-0.267,0.622c-0.177,0.177-0.385,0.266-0.621,0.266s-0.443-0.089-0.622-0.266
		c-0.177-0.178-0.266-0.385-0.266-0.622V15.986c0-0.266,0.089-0.48,0.266-0.644C190.954,15.181,191.161,15.098,191.397,15.098z"/>
	<path fill="none" stroke="#FFFFFF" stroke-width="2" stroke-miterlimit="10" d="M160.226,6.085c0.592,0,1.088,0.2,1.487,0.6
		c0.4,0.399,0.6,0.896,0.6,1.487c0,0.593-0.199,1.088-0.6,1.488c-0.399,0.399-0.896,0.6-1.487,0.6c-0.593,0-1.095-0.2-1.51-0.6
		c-0.414-0.4-0.621-0.895-0.621-1.488c0-0.592,0.207-1.088,0.621-1.487C159.131,6.285,159.633,6.085,160.226,6.085z"/>
	<path fill="none" stroke="#FFFFFF" stroke-width="2" stroke-miterlimit="10" d="M116.722,5.316c0.591,0,1.088,0.2,1.487,0.6
		s0.599,0.895,0.599,1.488c0,0.591-0.199,1.086-0.599,1.486c-0.399,0.4-0.896,0.6-1.487,0.6c-0.593,0-1.097-0.2-1.51-0.6
		c-0.415-0.4-0.621-0.895-0.621-1.486c0-0.593,0.206-1.088,0.621-1.488C115.625,5.516,116.129,5.316,116.722,5.316z"/>
	<path fill="#B9529F" d="M160.226,6.085c0.592,0,1.088,0.2,1.487,0.6c0.4,0.399,0.6,0.896,0.6,1.487c0,0.593-0.199,1.088-0.6,1.488
		c-0.399,0.399-0.896,0.6-1.487,0.6c-0.593,0-1.095-0.2-1.51-0.6c-0.414-0.4-0.621-0.895-0.621-1.488
		c0-0.592,0.207-1.088,0.621-1.487C159.131,6.285,159.633,6.085,160.226,6.085"/>
	<path fill="none" stroke="#FFFFFF" stroke-width="2" stroke-miterlimit="10" d="M191.419,6.085c0.592,0,1.088,0.2,1.488,0.6
		c0.399,0.399,0.6,0.896,0.6,1.487c0,0.593-0.2,1.088-0.6,1.488c-0.4,0.399-0.896,0.6-1.488,0.6s-1.095-0.2-1.509-0.6
		c-0.415-0.4-0.622-0.895-0.622-1.488c0-0.592,0.207-1.088,0.622-1.487C190.324,6.285,190.827,6.085,191.419,6.085z"/>
	<path fill="#B9529F" d="M191.419,6.085c0.592,0,1.088,0.2,1.488,0.6c0.399,0.399,0.6,0.896,0.6,1.487c0,0.593-0.2,1.088-0.6,1.488
		c-0.4,0.399-0.896,0.6-1.488,0.6s-1.095-0.2-1.509-0.6c-0.415-0.4-0.622-0.895-0.622-1.488c0-0.592,0.207-1.088,0.622-1.487
		C190.324,6.285,190.827,6.085,191.419,6.085"/>
	<path fill="#B9529F" d="M116.722,5.316c0.591,0,1.088,0.2,1.487,0.6s0.599,0.895,0.599,1.488c0,0.591-0.199,1.086-0.599,1.486
		c-0.399,0.4-0.896,0.6-1.487,0.6c-0.593,0-1.097-0.2-1.51-0.6c-0.415-0.4-0.621-0.895-0.621-1.486c0-0.593,0.206-1.088,0.621-1.488
		C115.625,5.516,116.129,5.316,116.722,5.316"/>
	<path fill="#FFFFFF" d="M183.358,14.739c-0.177-0.162-0.385-0.245-0.621-0.245h-0.001h-9.315c0,0-6.213-0.12-6.213,5.791v8.876
		c0,0,0.639,8.307,10.327,8.297h0.048h5.133c0.236,0,0.444-0.104,0.621-0.28c0.178-0.178,0.267-0.385,0.267-0.621
		c0-0.237-0.089-0.445-0.267-0.623c-0.177-0.177-0.385-0.266-0.621-0.266h-5.113h-0.067c0,0-7.735,0.389-8.552-6.507v-8.876
		c0,0-0.509-4,4.438-4.007l8.429-0.007v3.947c0,0.238,0.089,0.445,0.267,0.623c0.178,0.177,0.385,0.266,0.621,0.266
		s0.444-0.088,0.621-0.266c0.179-0.178,0.267-0.385,0.267-0.623v-4.836C183.625,15.117,183.537,14.902,183.358,14.739"/>
	<path fill="none" stroke="#FFFFFF" stroke-miterlimit="10" d="M183.358,14.739c-0.177-0.162-0.385-0.245-0.621-0.245h-0.001h-9.315
		c0,0-6.213-0.12-6.213,5.791v8.876c0,0,0.639,8.307,10.327,8.297h0.048h5.133c0.236,0,0.444-0.104,0.621-0.28
		c0.178-0.178,0.267-0.385,0.267-0.621c0-0.237-0.089-0.445-0.267-0.623c-0.177-0.177-0.385-0.266-0.621-0.266h-5.113h-0.067
		c0,0-7.735,0.389-8.552-6.507v-8.876c0,0-0.509-4,4.438-4.007l8.429-0.007v3.947c0,0.238,0.089,0.445,0.267,0.623
		c0.178,0.177,0.385,0.266,0.621,0.266s0.444-0.088,0.621-0.266c0.179-0.178,0.267-0.385,0.267-0.623v-4.836
		C183.625,15.117,183.537,14.902,183.358,14.739z"/>
	<path fill="#FFFFFF" d="M26.873,30.781c0.006-0.007-0.148,0.076-0.308,0.099c-0.08,0.009-0.176,0.018-0.234-0.023
		c-0.053-0.04-0.113-0.088-0.182-0.141c-0.306-0.191-0.544-0.623-0.911-1.133c-0.34-0.528-0.717-1.205-1.033-2.064
		c-0.302-0.859-0.5-1.946-0.342-3.166c0.153-1.215,0.751-2.509,1.656-3.552c0.219-0.267,0.472-0.488,0.718-0.74l0.188-0.185
		l0.095-0.092l0.048-0.046l0.024-0.024l0.013-0.011c0.151-0.101,0.047-0.034,0.084-0.059l0.313-0.272
		c0.433-0.375,0.867-0.786,1.282-1.225c0.836-0.874,1.62-1.851,2.346-2.834c0.727-0.978,1.411-1.958,1.976-2.867
		c0.576-0.901,0.932-1.797,1.029-2.346c0.059-0.28,0.059-0.44,0.056-0.585c0.014-0.042,0-0.077-0.002-0.117
		c-0.001-0.019-0.001-0.04,0.002-0.06V9.333c0.036,0.08-0.081-0.183,0.081,0.177l-0.011-0.028l-0.023-0.055l-0.044-0.11
		l-0.171-0.444L33.44,8.651L33.4,8.547l-0.023-0.041c-0.069-0.106-0.083-0.224-0.146-0.369c-0.095-0.151-0.183-0.313-0.271-0.476
		c-0.108-0.138-0.208-0.288-0.314-0.438c-0.123-0.122-0.243-0.248-0.358-0.393c-0.503-0.501-1.128-0.867-1.802-1.096
		c-0.672-0.215-1.398-0.31-2.064-0.234c-0.325,0.052-0.648,0.108-0.94,0.196c-0.278,0.109-0.571,0.18-0.801,0.308
		c-0.239,0.126-0.452,0.239-0.638,0.337c-0.176,0.116-0.32,0.228-0.443,0.314c-0.062,0.043-0.113,0.085-0.163,0.116
		c-0.052,0.03-0.128,0.031-0.196,0.028c-0.07-0.003-0.152-0.028-0.207-0.043c-0.054-0.014-0.081-0.022-0.081-0.022l-0.196-0.143
		l-0.041-0.069c-0.029-0.047-0.072-0.118-0.089-0.184c-0.018-0.065-0.03-0.142-0.005-0.204c0.025-0.061,0.061-0.125,0.099-0.203
		c0.079-0.152,0.171-0.345,0.296-0.566c0.146-0.21,0.312-0.453,0.5-0.725c0.19-0.279,0.463-0.533,0.744-0.845
		c0.296-0.293,0.657-0.58,1.063-0.875c0.83-0.551,1.921-1.065,3.249-1.255c1.319-0.201,2.869-0.039,4.35,0.615
		c0.361,0.172,0.719,0.373,1.084,0.579c0.342,0.231,0.681,0.482,1.024,0.742c0.319,0.278,0.616,0.587,0.926,0.897
		c0.305,0.344,0.607,0.763,0.888,1.172l0.105,0.157l0.064,0.104l0.123,0.202l0.244,0.409l0.059,0.104l0.029,0.052l0.015,0.026
		l0.101,0.229l0.154,0.392c0.1,0.264,0.199,0.529,0.257,0.809c0.273,1.11,0.259,2.284,0.029,3.282
		c-0.464,2.025-1.475,3.493-2.495,4.712c-1.041,1.219-2.22,2.161-3.423,2.957c-1.211,0.786-2.439,1.434-3.618,2.037
		c-0.588,0.3-1.167,0.594-1.733,0.882l-0.44,0.214c0.029-0.02-0.083,0.053,0.062-0.043l-0.01,0.006l-0.019,0.012l-0.038,0.025
		l-0.076,0.048l-0.153,0.096c-0.198,0.132-0.424,0.247-0.605,0.387c-0.74,0.562-1.192,1.264-1.415,2.006
		c-0.221,0.743-0.188,1.529-0.042,2.223c0.154,0.697,0.383,1.309,0.611,1.797c0.22,0.498,0.492,0.83,0.567,1.133
		c0.022,0.073,0.047,0.139,0.066,0.187c0.017,0.054-0.016,0.139-0.045,0.211c-0.06,0.149-0.157,0.293-0.151,0.287L26.873,30.781z"/>
	<path fill="#FFFFFF" d="M41.935,60.013c-0.037-0.112-0.095-0.218-0.131-0.32l0.079-0.198c0.052-0.133,0.098-0.27,0.145-0.405
		c0.092-0.271,0.185-0.542,0.264-0.816c0.161-0.549,0.28-1.108,0.367-1.67c0.087-0.562,0.129-1.127,0.138-1.69
		c0-0.563-0.031-1.123-0.106-1.675c-0.075-0.554-0.179-1.1-0.329-1.631c-0.142-0.533-0.326-1.054-0.538-1.56
		c-0.208-0.509-0.464-0.995-0.726-1.475l-0.43-0.701c-0.148-0.229-0.316-0.448-0.472-0.674c-0.151-0.227-0.33-0.438-0.504-0.65
		c-0.178-0.21-0.336-0.432-0.533-0.628c-0.372-0.407-0.746-0.809-1.158-1.182c-0.388-0.388-0.83-0.734-1.25-1.091
		c-0.432-0.349-0.893-0.669-1.336-1c-0.472-0.305-0.928-0.622-1.406-0.914c-0.489-0.281-0.959-0.578-1.457-0.845
		c-0.503-0.261-0.993-0.531-1.499-0.779l-1.533-0.723l0.189,0.093l-2.756-1.005l-2.722-1.059c-0.904-0.364-1.81-0.727-2.711-1.105
		c-0.903-0.373-1.796-0.781-2.694-1.181c-0.896-0.409-1.792-0.822-2.688-1.264c-0.448-0.213-0.897-0.433-1.341-0.674
		c-0.445-0.24-0.89-0.461-1.337-0.718l-1.34-0.766l-1.354-0.849c-0.453-0.29-0.923-0.649-1.382-0.977
		c-0.223-0.148-0.482-0.389-0.721-0.597L7.94,28.632l0.374,0.352l-0.371-0.308l-0.304-0.265c-0.187-0.171-0.388-0.342-0.561-0.515
		c-0.362-0.342-0.709-0.694-1.041-1.052c-0.673-0.712-1.291-1.469-1.882-2.254c-0.577-0.795-1.136-1.613-1.613-2.49
		c-0.262-0.423-0.458-0.891-0.673-1.344c-0.217-0.454-0.412-0.918-0.571-1.402c-0.152-0.487-0.349-0.954-0.454-1.457l-0.325-1.5
		c-0.106-0.499-0.116-1.022-0.172-1.529l-0.063-0.765c-0.012-0.255,0.006-0.513,0.012-0.77l0.062-1.529l0.233-1.503l0.125-0.743
		c0.059-0.244,0.129-0.483,0.193-0.724l0.404-1.429l0.052-0.177l0.006-0.022L1.37,7.195c0.027-0.117-0.031,0.148-0.024,0.117
		l0.012-0.037l0.04-0.14C1.462,6.898,1.514,6.774,1.57,6.62C1.684,6.33,1.8,6.055,1.932,5.793c0.255-0.529,0.561-1.019,0.887-1.492
		C3.482,3.36,4.306,2.518,5.252,1.862c0.945-0.644,1.98-1.157,3.037-1.399c0.522-0.166,1.048-0.201,1.562-0.287
		c0.258-0.033,0.511-0.029,0.765-0.042l0.378-0.012l0.188-0.006l0.093-0.002c-0.02,0.001,0.219-0.014,0.123-0.007l0.01,0.001
		l0.019,0.001l0.039,0.005l0.624,0.063c0.208,0.022,0.398,0.037,0.695,0.091c0.542,0.088,1.078,0.183,1.541,0.348
		c0.957,0.283,1.858,0.742,2.652,1.292c0.798,0.551,1.49,1.214,2.055,1.946c0.28,0.368,0.54,0.745,0.761,1.143
		c0.109,0.2,0.203,0.409,0.307,0.61c0.145,0.175-0.06,0.575-0.247,0.899c-0.202-0.014-0.369-0.029-0.552-0.034
		c-0.179-0.006-0.257-0.063-0.325-0.134c-0.12-0.147-0.271-0.272-0.412-0.403c-0.279-0.262-0.575-0.5-0.877-0.719
		c-0.608-0.437-1.268-0.763-1.938-0.974c-0.669-0.215-1.347-0.325-2.025-0.303c-0.349-0.018-0.641,0.046-0.925,0.08
		c-0.115,0.008-0.338,0.053-0.544,0.093l-0.617,0.117l-0.039,0.008L11.583,4.24l-0.009,0.001c-0.103,0.008,0.129-0.008,0.103-0.006
		l-0.06,0.021l-0.118,0.042l-0.235,0.081c-0.154,0.056-0.315,0.094-0.459,0.161c-0.277,0.152-0.578,0.247-0.813,0.427
		C9.481,5.264,9.087,5.644,8.755,6.04c-0.328,0.4-0.589,0.841-0.768,1.327c-0.082,0.245-0.162,0.49-0.203,0.735
		c-0.026,0.121-0.038,0.24-0.047,0.344c0,0.046-0.009,0.119,0.011,0.086c0.002,0.006,0.009-0.024,0.005,0.01L7.75,8.581
		c0.006-0.025-0.054,0.248-0.028,0.136l0,0.008l0,0.016L7.717,8.87L7.68,9.884c-0.005,0.168-0.019,0.333-0.019,0.5l0.045,0.496
		l0.076,0.974l0.179,0.951l0.083,0.47l0.128,0.462c0.087,0.307,0.152,0.612,0.248,0.916l0.299,0.903
		c0.099,0.298,0.237,0.595,0.348,0.893c0.059,0.15,0.104,0.301,0.168,0.449l0.206,0.441c0.132,0.296,0.252,0.597,0.412,0.888
		c0.287,0.59,0.608,1.177,0.959,1.753c0.362,0.568,0.747,1.131,1.171,1.658c0.209,0.269,0.424,0.525,0.645,0.771
		c0.108,0.131,0.217,0.233,0.325,0.354l0.151,0.158l0.073,0.073c0.024,0.025,0.014,0.017,0.022,0.028l0.374,0.351l0.322,0.333
		c0.115,0.114,0.181,0.228,0.347,0.36c0.3,0.256,0.56,0.517,0.89,0.779l1.005,0.788l1.083,0.775c0.359,0.261,0.75,0.507,1.125,0.762
		c0.375,0.253,0.755,0.51,1.146,0.759c0.768,0.508,1.56,0.999,2.352,1.49c1.599,0.968,3.216,1.935,4.853,2.879l2.471,1.395
		l2.475,1.362l0.19,0.095l1.558,1.051c0.514,0.358,1.014,0.744,1.519,1.115c0.5,0.378,0.982,0.794,1.47,1.188
		c0.481,0.408,0.943,0.846,1.411,1.267c0.448,0.453,0.903,0.892,1.333,1.361c0.42,0.482,0.859,0.938,1.244,1.45
		c0.407,0.491,0.775,1.017,1.136,1.546c0.188,0.256,0.342,0.544,0.511,0.815c0.166,0.274,0.334,0.546,0.475,0.836
		c0.145,0.288,0.301,0.567,0.434,0.86l0.383,0.886c0.227,0.604,0.44,1.208,0.597,1.831c0.163,0.621,0.288,1.251,0.363,1.886
		c0.084,0.632,0.114,1.271,0.11,1.903c-0.005,0.633-0.06,1.264-0.148,1.884c-0.101,0.62-0.216,1.233-0.391,1.831
		c-0.17,0.599-0.374,1.185-0.62,1.752c-0.129,0.28-0.255,0.563-0.41,0.832c-0.078,0.134-0.155,0.268-0.24,0.398l-0.128,0.196
		c-0.105,0.029-0.238,0.052-0.351,0.066L41.935,60.013z"/>
	<path fill="#B9529F" d="M41.96,60.028L41.91,59.75l0.086-0.197c0.057-0.133,0.109-0.27,0.161-0.403
		c0.102-0.271,0.201-0.545,0.289-0.82c0.174-0.553,0.308-1.117,0.409-1.685s0.156-1.14,0.179-1.713
		c0.015-0.573-0.002-1.146-0.063-1.711c-0.062-0.565-0.153-1.126-0.292-1.676c-0.131-0.549-0.306-1.088-0.51-1.613
		c-0.198-0.527-0.448-1.034-0.703-1.533l-0.422-0.732c-0.145-0.24-0.311-0.47-0.465-0.705c-0.149-0.237-0.326-0.459-0.499-0.682
		c-0.177-0.221-0.333-0.452-0.529-0.659c-0.371-0.428-0.743-0.849-1.155-1.24c-0.388-0.411-0.829-0.776-1.25-1.152
		c-0.431-0.367-0.891-0.709-1.335-1.061c-0.472-0.324-0.928-0.662-1.407-0.973c-0.489-0.301-0.961-0.617-1.459-0.902
		c-0.503-0.278-0.995-0.568-1.502-0.835l-1.538-0.778l0.127,0.062c-1.826-0.695-3.604-1.419-5.386-2.187
		c-1.779-0.763-3.549-1.557-5.312-2.387c-0.879-0.422-1.759-0.845-2.634-1.294c-0.438-0.219-0.878-0.442-1.311-0.687
		c-0.433-0.242-0.869-0.468-1.301-0.725l-1.298-0.767l-1.295-0.839c-0.432-0.286-0.866-0.629-1.3-0.944
		c-0.436-0.329-0.882-0.768-1.315-1.158l0.25,0.234c-0.468-0.386-0.773-0.668-1.125-1.007c-0.34-0.326-0.664-0.662-0.976-1.005
		c-0.631-0.682-1.21-1.406-1.764-2.155c-0.539-0.758-1.06-1.537-1.5-2.37c-0.241-0.403-0.43-0.839-0.633-1.266
		c-0.206-0.426-0.385-0.865-0.533-1.319c-0.146-0.454-0.339-0.891-0.442-1.359l-0.321-1.402c-0.104-0.466-0.124-0.953-0.185-1.427
		l-0.074-0.714c-0.015-0.239-0.002-0.48-0.002-0.721l0.026-1.432l0.178-1.415l0.094-0.702c0.048-0.23,0.109-0.458,0.164-0.687
		l0.342-1.359L2.42,7.48l0.006-0.021l0.002-0.01c0.018-0.08-0.021,0.097-0.015,0.075l0.01-0.037l0.033-0.119
		c0.051-0.19,0.096-0.307,0.142-0.442c0.096-0.26,0.195-0.509,0.31-0.747c0.219-0.481,0.487-0.931,0.772-1.366
		C4.265,3.948,5,3.179,5.841,2.564c0.84-0.605,1.765-1.101,2.731-1.35C9.046,1.045,9.535,1,10.01,0.903
		c0.238-0.04,0.476-0.042,0.714-0.062l0.354-0.023l0.177-0.012l0.087-0.005c-0.012,0.001,0.148-0.009,0.085-0.005h0.009l0.021,0.001
		l0.038,0.002l0.623,0.032c0.208,0.012,0.403,0.016,0.669,0.059c0.5,0.068,0.996,0.135,1.439,0.276
		c0.911,0.229,1.776,0.629,2.55,1.127c0.776,0.495,1.462,1.103,2.034,1.788c0.284,0.343,0.548,0.698,0.776,1.076
		c0.115,0.187,0.222,0.38,0.328,0.572c0.132,0.176,0.035,0.499-0.06,0.777c-0.285-0.087-0.594-0.121-0.69-0.291
		c-0.117-0.156-0.256-0.297-0.39-0.44c-0.272-0.283-0.563-0.542-0.863-0.787c-0.602-0.484-1.268-0.866-1.959-1.131
		c-0.69-0.269-1.404-0.439-2.128-0.469c-0.367-0.042-0.7-0.007-1.026,0.006c-0.146-0.003-0.364,0.033-0.57,0.062l-0.618,0.086
		l-0.038,0.006l-0.02,0.003l-0.01,0c-0.07,0.006,0.084-0.005,0.065-0.003l-0.065,0.018l-0.13,0.035L11.155,3.67
		c-0.17,0.049-0.347,0.08-0.51,0.141C10.329,3.953,9.99,4.037,9.708,4.215C9.107,4.506,8.604,4.902,8.167,5.339
		C7.733,5.78,7.383,6.293,7.126,6.856c-0.123,0.282-0.24,0.568-0.317,0.861c-0.044,0.144-0.073,0.29-0.1,0.424
		C6.7,8.206,6.684,8.287,6.69,8.299c0,0.012,0.002,0.001-0.002,0.032L6.682,8.37c0.004-0.015-0.035,0.167-0.02,0.093l0,0.009
		L6.661,8.489L6.649,8.626L6.551,9.709l-0.049,0.536l0.015,0.537l0.02,1.064l0.145,1.047l0.068,0.52l0.117,0.512
		c0.083,0.34,0.138,0.683,0.235,1.018l0.304,1.002c0.102,0.332,0.244,0.659,0.361,0.988c0.063,0.164,0.116,0.331,0.187,0.493
		c0.075,0.16,0.155,0.318,0.224,0.481c0.145,0.324,0.271,0.655,0.453,0.966c0.326,0.635,0.683,1.262,1.071,1.874
		c0.401,0.604,0.825,1.199,1.29,1.759c0.229,0.282,0.467,0.555,0.711,0.816c0.228,0.25,0.522,0.539,0.683,0.693l0.098,0.093
		l0.152,0.14c0.274,0.254,0.488,0.513,0.798,0.786c0.326,0.268,0.621,0.546,0.97,0.812l1.064,0.798l1.126,0.774
		c0.373,0.259,0.773,0.501,1.16,0.754c0.387,0.251,0.778,0.503,1.178,0.747c0.788,0.5,1.596,0.98,2.404,1.46
		c1.625,0.951,3.277,1.877,4.946,2.778l2.517,1.33l2.521,1.304l0.127,0.062L33,36.852c0.513,0.34,1.011,0.707,1.515,1.059
		c0.5,0.36,0.98,0.756,1.468,1.131c0.48,0.389,0.941,0.807,1.41,1.207c0.448,0.434,0.904,0.853,1.333,1.302
		c0.42,0.462,0.859,0.898,1.245,1.392c0.407,0.471,0.777,0.975,1.14,1.483c0.189,0.248,0.344,0.523,0.515,0.785
		c0.167,0.264,0.337,0.524,0.48,0.806c0.146,0.276,0.304,0.546,0.44,0.829l0.39,0.854c0.234,0.582,0.454,1.167,0.62,1.772
		c0.17,0.601,0.305,1.212,0.392,1.83c0.095,0.616,0.138,1.239,0.146,1.857c0.008,0.62-0.033,1.238-0.106,1.85
		c-0.085,0.61-0.188,1.217-0.348,1.809c-0.157,0.591-0.345,1.174-0.578,1.736c-0.121,0.28-0.241,0.561-0.385,0.831
		c-0.073,0.134-0.145,0.268-0.225,0.399l-0.12,0.196c-0.082,0.042-0.183,0.078-0.271,0.109L41.96,60.028z"/>
	<path fill="#B9529F" d="M26.905,30.754c0.004-0.005-0.108,0.04-0.232,0.034c-0.061-0.004-0.136-0.013-0.187-0.054
		c-0.047-0.044-0.101-0.093-0.163-0.149c-0.266-0.211-0.513-0.623-0.852-1.134c-0.321-0.521-0.671-1.188-0.958-2.019
		c-0.277-0.832-0.452-1.869-0.284-3.009c0.165-1.136,0.738-2.33,1.611-3.298c0.215-0.245,0.464-0.448,0.703-0.677l0.183-0.169
		l0.093-0.085l0.046-0.042l0.023-0.021l0.011-0.011l0.06-0.041l0.334-0.263c0.456-0.361,0.914-0.751,1.358-1.167
		c0.892-0.83,1.75-1.751,2.557-2.701c0.805-0.95,1.577-1.917,2.217-2.882c0.659-0.949,1.112-1.949,1.273-2.741
		c0.086-0.4,0.089-0.729,0.041-1.035c0.003-0.08-0.026-0.154-0.043-0.229l-0.024-0.117l-0.002-0.007
		c0.023,0.05-0.055-0.125,0.053,0.112l-0.012-0.027l-0.023-0.054l-0.048-0.108l-0.182-0.439l-0.091-0.218l-0.044-0.104l-0.037-0.06
		c-0.104-0.157-0.166-0.324-0.27-0.503c-0.128-0.184-0.255-0.365-0.381-0.546c-0.146-0.164-0.289-0.327-0.432-0.488
		c-0.163-0.136-0.324-0.275-0.48-0.424c-0.666-0.525-1.446-0.858-2.228-1.015c-0.781-0.147-1.568-0.142-2.261,0.015
		c-0.339,0.092-0.669,0.186-0.961,0.308c-0.28,0.144-0.569,0.246-0.792,0.397c-0.23,0.15-0.436,0.285-0.615,0.402
		c-0.167,0.134-0.302,0.26-0.418,0.357c-0.112,0.1-0.195,0.18-0.316,0.187c-0.114,0.012-0.217-0.011-0.217-0.011l-0.131-0.095
		c0,0-0.05-0.087-0.061-0.201c-0.018-0.117,0.052-0.222,0.139-0.362c0.086-0.14,0.188-0.321,0.32-0.524
		c0.152-0.193,0.327-0.414,0.522-0.661c0.197-0.254,0.474-0.478,0.753-0.757c0.295-0.257,0.651-0.507,1.043-0.761
		c0.803-0.472,1.833-0.884,3.052-1.007c1.211-0.13,2.606,0.066,3.925,0.695c0.32,0.168,0.64,0.356,0.964,0.548
		c0.302,0.217,0.601,0.453,0.905,0.691c0.281,0.258,0.543,0.543,0.816,0.827c0.265,0.31,0.52,0.679,0.765,1.039l0.091,0.137
		l0.061,0.104L38.2,6.593l0.232,0.415l0.056,0.104l0.029,0.054l0.015,0.026l0.069,0.162l0.128,0.337
		c0.083,0.226,0.169,0.454,0.214,0.692c0.229,0.949,0.216,1.954,0.015,2.833c-0.4,1.782-1.314,3.146-2.251,4.317
		c-1.933,2.332-4.354,3.81-6.587,5.113c-0.562,0.322-1.111,0.638-1.659,0.939l-0.419,0.224l-0.269,0.191
		c-0.206,0.153-0.436,0.288-0.621,0.449c-0.771,0.636-1.25,1.438-1.459,2.258c-0.21,0.823-0.154,1.659,0.017,2.383
		c0.181,0.723,0.437,1.344,0.685,1.84c0.248,0.497,0.511,0.848,0.625,1.131c0.03,0.07,0.061,0.132,0.086,0.179
		c0.023,0.052,0.011,0.122,0.001,0.18c-0.022,0.12-0.079,0.227-0.076,0.224L26.905,30.754z"/>
</g>
</svg>
