<?xml version="1.0" encoding="utf-8"?>
<!-- Generator: Adobe Illustrator 19.0.0, SVG Export Plug-In . SVG Version: 6.00 Build 0)  -->
<svg version="1.1" id="Layer_1" xmlns="http://www.w3.org/2000/svg" xmlns:xlink="http://www.w3.org/1999/xlink" x="0px" y="0px"
	 viewBox="0 0 125 125" style="enable-background:new 0 0 125 125;" xml:space="preserve">
<g>
	<g>
		<path d="M60.6,45.8c0,8.2-11.4,14.4-19.6,13.3c-8.3-1.1-14.9-6.7-14.9-14.9s3.9-31.6,7.3-15.9C37.4,46.1,60.6,37.6,60.6,45.8z"/>
		<rect x="57.9" y="44.5" width="9.3" height="4.3"/>
		<rect x="29.9" y="1.9" width="2.2" height="25.6"/>
		<rect x="92.7" y="1.9" width="2.2" height="25.6"/>
		<path d="M64.4,45.8c0,8.2,11.4,14.4,19.6,13.3c8.3-1.1,14.9-6.7,14.9-14.9s-3.9-31.6-7.3-15.9C87.6,46.1,64.4,37.6,64.4,45.8z"/>
	</g>
	<g>
		<path d="M72.9,99.9c6.2-10,14.9-11.9,22.3-12.1l3.6-4.6l-70.9,0.1l3.7,4.5c7.7,0,17.1,1.5,23.7,12.2c4.9,7.9,6.3,16.5,4.2,22.1
			l0.8,1h7.8l0.7-0.9C66.6,116.5,68,107.9,72.9,99.9z"/>
	</g>
</g>
</svg>
