<?xml version="1.0" encoding="utf-8"?>
<!-- Generator: Adobe Illustrator 19.0.0, SVG Export Plug-In . SVG Version: 6.00 Build 0)  -->
<svg version="1.1" id="Layer_2" xmlns="http://www.w3.org/2000/svg" xmlns:xlink="http://www.w3.org/1999/xlink" x="0px" y="0px"
	 viewBox="0 0 125 125" style="enable-background:new 0 0 125 125;" xml:space="preserve">
<g id="Layer_3">
	<g id="XMLID_8_">
		<path id="XMLID_11_" d="M62.5,6C31.3,6,6,31.3,6,62.5S31.3,119,62.5,119S119,93.7,119,62.5S93.7,6,62.5,6z M57,90.2
			c-2.1,4.4-5.7,12-5.7,12s-1.5,0.8-2.1,0c-0.6-0.8-1-2.6,3.6-12.6c4.6-10,1.8-17.1,0-21.7c-1.8-4.6-7-12.4-1.5-28.9
			c5.5-16.5-5.7-16.4-5.7-16.4c3.6-0.6,13.5,5,7.7,19c-5.8,14,2.6,25.9,3.6,27.9C58.3,72.2,60.3,83.2,57,90.2z M62.9,56.1
			c-0.7,0-1.3-2.3-1.3-5.2c0-2.9,0.6-5.2,1.3-5.2c0.7,0,1.3,2.3,1.3,5.2C64.3,53.8,63.7,56.1,62.9,56.1z M73.7,38.9
			c5.5,16.5,0.2,24.3-1.5,28.9c-1.8,4.6-4.6,11.8,0,21.7c4.6,10,4.2,11.8,3.6,12.6c-0.6,0.8-2.1,0-2.1,0s-3.6-7.6-5.7-12
			c-3.3-6.9-1.3-17.9,0-20.7c0.9-2,9.4-14,3.6-27.9c-5.8-14,4.1-19.6,7.7-19C79.3,22.6,68.2,22.4,73.7,38.9z"/>
	</g>
</g>
</svg>
