<?xml version="1.0" encoding="utf-8"?>
<!-- Generator: Adobe Illustrator 15.0.0, SVG Export Plug-In . SVG Version: 6.00 Build 0)  -->
<!DOCTYPE svg PUBLIC "-//W3C//DTD SVG 1.1//EN" "http://www.w3.org/Graphics/SVG/1.1/DTD/svg11.dtd">
<svg version="1.1" id="Layer_1" xmlns="http://www.w3.org/2000/svg" xmlns:xlink="http://www.w3.org/1999/xlink" x="0px" y="0px"
	 width="32px" height="32px" viewBox="0 0 32 32" enable-background="new 0 0 32 32" xml:space="preserve">
<path fill="#B9519F" d="M31.999,5c0,0.552-0.448,1-1,1h-30c-0.552,0-1-0.448-1-1V1c0-0.552,0.448-1,1-1h30c0.552,0,1,0.448,1,1V5z"
	/>
<path fill="#B9519F" d="M31.999,13.667c0,0.552-0.448,1-1,1h-30c-0.552,0-1-0.448-1-1v-4c0-0.552,0.448-1,1-1h30
	c0.552,0,1,0.448,1,1V13.667z"/>
<path fill="#B9519F" d="M31.999,22.333c0,0.551-0.448,1-1,1h-30c-0.552,0-1-0.449-1-1v-4.001c0-0.552,0.448-1,1-1h30
	c0.552,0,1,0.448,1,1V22.333z"/>
<path fill="#B9519F" d="M32,31c0,0.551-0.449,1-1,1H0.999c-0.552,0-1-0.449-1-1v-4.002c0-0.551,0.448-1,1-1H31c0.551,0,1,0.449,1,1
	V31z"/>
</svg>
