<?xml version="1.0" encoding="utf-8"?>
<!-- Generator: Adobe Illustrator 15.0.0, SVG Export Plug-In . SVG Version: 6.00 Build 0)  -->
<!DOCTYPE svg PUBLIC "-//W3C//DTD SVG 1.1//EN" "http://www.w3.org/Graphics/SVG/1.1/DTD/svg11.dtd">
<svg version="1.1" id="Layer_1" xmlns="http://www.w3.org/2000/svg" xmlns:xlink="http://www.w3.org/1999/xlink" x="0px" y="0px"
	 width="123px" height="30px" viewBox="-27.466 -6 123 30" enable-background="new -27.466 -6 123 30" xml:space="preserve">
<g>
	<path fill="#B9519F" d="M2.534,20c0,2.209-1.791,4-4,4h-22c-2.209,0-4-1.791-4-4V-2c0-2.209,1.791-4,4-4h22c2.209,0,4,1.791,4,4V20
		z"/>
	<g>
		<g>
			<path fill="#FFFFFF" d="M-16.376,3.683c0,0.226-0.184,0.408-0.409,0.408h-3.272c-0.227,0-0.408-0.183-0.408-0.408V0.408
				c0-0.225,0.184-0.407,0.408-0.407h3.272c0.226,0,0.409,0.184,0.409,0.407V3.683z M-4.467,3.683c0,0.226-0.187,0.408-0.41,0.408
				h-9.862c-0.227,0-0.41-0.183-0.41-0.408V0.41c0-0.229,0.185-0.41,0.41-0.41h9.862c0.226,0,0.41,0.182,0.41,0.41V3.683z"/>
		</g>
		<g>
			<path fill="#FFFFFF" d="M-16.376,10.637c0,0.227-0.184,0.408-0.409,0.408h-3.272c-0.227,0-0.408-0.182-0.408-0.408V7.362
				c0-0.225,0.184-0.408,0.408-0.408h3.272c0.226,0,0.409,0.184,0.409,0.408V10.637z M-4.467,10.637c0,0.227-0.187,0.408-0.41,0.408
				h-9.862c-0.227,0-0.41-0.182-0.41-0.408V7.364c0-0.229,0.185-0.41,0.41-0.41h9.862c0.226,0,0.41,0.184,0.41,0.41V10.637z"/>
		</g>
		<g>
			<path fill="#FFFFFF" d="M-16.376,17.592c0,0.227-0.184,0.408-0.409,0.408h-3.272c-0.227,0-0.408-0.184-0.408-0.408v-3.273
				c0-0.225,0.184-0.408,0.408-0.408h3.272c0.226,0,0.409,0.184,0.409,0.408V17.592z M-4.467,17.592c0,0.227-0.187,0.408-0.41,0.408
				h-9.862c-0.227,0-0.41-0.184-0.41-0.408V14.32c0-0.229,0.185-0.41,0.41-0.41h9.862c0.226,0,0.41,0.182,0.41,0.41V17.592z"/>
		</g>
	</g>
</g>
<g>
	<path fill="#B9519F" d="M21.092,4.058v10.052H19.79V6.956c0-0.107,0.004-0.222,0.011-0.344c0.007-0.121,0.015-0.245,0.024-0.371
		l-3.346,6.14c-0.117,0.229-0.296,0.343-0.539,0.343h-0.21c-0.243,0-0.42-0.114-0.532-0.343l-3.409-6.16
		c0.028,0.262,0.042,0.506,0.042,0.735v7.153h-1.309V4.058h1.106c0.13,0,0.232,0.013,0.304,0.038
		c0.072,0.026,0.141,0.098,0.207,0.214l3.36,6.021c0.065,0.121,0.126,0.249,0.182,0.385c0.056,0.135,0.11,0.27,0.161,0.406
		c0.098-0.275,0.212-0.542,0.343-0.799l3.297-6.013c0.061-0.116,0.127-0.188,0.199-0.214c0.072-0.025,0.174-0.038,0.305-0.038
		H21.092z"/>
	<path fill="#B9519F" d="M28.917,13.095c-0.168,0.195-0.362,0.365-0.581,0.507c-0.219,0.143-0.453,0.258-0.7,0.347
		c-0.248,0.089-0.503,0.154-0.767,0.196s-0.524,0.062-0.78,0.062c-0.49,0-0.944-0.083-1.362-0.248
		c-0.417-0.166-0.779-0.408-1.085-0.729c-0.306-0.319-0.543-0.716-0.714-1.189s-0.255-1.019-0.255-1.635
		c0-0.494,0.077-0.955,0.231-1.382c0.154-0.428,0.375-0.8,0.661-1.117c0.287-0.317,0.638-0.566,1.054-0.749
		c0.415-0.182,0.882-0.272,1.4-0.272c0.434,0,0.834,0.071,1.201,0.213c0.366,0.143,0.683,0.35,0.948,0.62
		c0.266,0.271,0.475,0.604,0.626,1.001c0.152,0.396,0.228,0.85,0.228,1.357c0,0.211-0.023,0.352-0.07,0.424
		c-0.047,0.072-0.133,0.108-0.259,0.108h-4.662c0.014,0.425,0.074,0.795,0.182,1.109s0.256,0.577,0.445,0.788
		c0.189,0.21,0.414,0.366,0.675,0.469s0.553,0.153,0.875,0.153c0.303,0,0.566-0.034,0.788-0.104s0.413-0.146,0.574-0.228
		c0.161-0.082,0.296-0.157,0.406-0.228s0.207-0.104,0.291-0.104c0.112,0,0.198,0.042,0.259,0.126L28.917,13.095z M27.791,9.763
		c0-0.271-0.039-0.521-0.115-0.749c-0.077-0.229-0.19-0.427-0.34-0.595S27.004,8.12,26.79,8.026c-0.215-0.093-0.462-0.14-0.742-0.14
		c-0.574,0-1.025,0.166-1.354,0.497c-0.329,0.331-0.538,0.791-0.626,1.379H27.791z"/>
	<path fill="#B9519F" d="M36.402,6.998v7.111h-0.816c-0.186,0-0.307-0.091-0.363-0.273l-0.098-0.714
		c-0.152,0.164-0.314,0.313-0.482,0.448c-0.167,0.136-0.347,0.251-0.539,0.347s-0.394,0.17-0.609,0.224s-0.446,0.081-0.693,0.081
		c-0.392,0-0.736-0.065-1.033-0.196s-0.545-0.313-0.745-0.55c-0.201-0.235-0.353-0.519-0.455-0.851
		c-0.103-0.331-0.154-0.697-0.154-1.099V6.998h1.372v4.528c0,0.509,0.117,0.904,0.35,1.187s0.59,0.424,1.071,0.424
		c0.35,0,0.677-0.083,0.98-0.249c0.303-0.165,0.589-0.393,0.853-0.683V6.998H36.402z"/>
	<path fill="#B9519F" d="M42.506,8.223c-0.037,0.061-0.076,0.104-0.119,0.13c-0.041,0.025-0.096,0.038-0.16,0.038
		c-0.076,0-0.158-0.025-0.25-0.077c-0.09-0.051-0.199-0.107-0.328-0.168s-0.279-0.116-0.451-0.168
		C41.023,7.927,40.818,7.9,40.58,7.9c-0.195,0-0.373,0.024-0.535,0.073c-0.16,0.05-0.297,0.117-0.408,0.203
		c-0.113,0.087-0.199,0.189-0.26,0.309s-0.092,0.246-0.092,0.381c0,0.178,0.053,0.325,0.158,0.441
		c0.105,0.117,0.242,0.217,0.414,0.301c0.17,0.084,0.363,0.16,0.58,0.228c0.217,0.068,0.439,0.139,0.664,0.214
		c0.227,0.074,0.449,0.16,0.666,0.255c0.217,0.096,0.41,0.215,0.58,0.357c0.172,0.143,0.309,0.313,0.414,0.514
		c0.105,0.201,0.158,0.446,0.158,0.735c0,0.332-0.061,0.639-0.18,0.921s-0.293,0.526-0.525,0.731
		c-0.23,0.205-0.516,0.366-0.857,0.482c-0.34,0.117-0.73,0.176-1.168,0.176c-0.49,0-0.943-0.082-1.359-0.245
		c-0.414-0.163-0.762-0.371-1.043-0.623l0.322-0.525c0.037-0.065,0.084-0.115,0.141-0.15s0.131-0.053,0.225-0.053
		c0.088,0,0.18,0.033,0.271,0.099c0.094,0.065,0.207,0.137,0.336,0.213c0.131,0.077,0.291,0.147,0.477,0.21
		c0.188,0.063,0.42,0.095,0.701,0.095c0.232,0,0.436-0.029,0.607-0.087c0.174-0.059,0.316-0.138,0.432-0.238
		c0.113-0.101,0.199-0.216,0.256-0.347c0.055-0.131,0.084-0.269,0.084-0.413c0-0.187-0.053-0.342-0.158-0.465
		c-0.105-0.124-0.242-0.23-0.412-0.318c-0.172-0.09-0.365-0.166-0.586-0.231c-0.219-0.065-0.443-0.136-0.672-0.21
		s-0.453-0.161-0.672-0.26c-0.219-0.098-0.414-0.221-0.584-0.37s-0.309-0.331-0.414-0.546c-0.104-0.215-0.156-0.477-0.156-0.784
		c0-0.275,0.057-0.539,0.172-0.791c0.113-0.252,0.279-0.474,0.496-0.665s0.486-0.344,0.805-0.459
		c0.32-0.114,0.686-0.171,1.096-0.171c0.471,0,0.896,0.074,1.277,0.224s0.707,0.354,0.977,0.616L42.506,8.223z"/>
	<path fill="#B9519F" d="M51.256,4.058c0.645,0,1.205,0.074,1.68,0.224c0.477,0.149,0.871,0.361,1.184,0.634
		c0.312,0.273,0.545,0.604,0.697,0.99c0.15,0.388,0.227,0.817,0.227,1.288c0,0.472-0.082,0.904-0.244,1.299
		c-0.164,0.395-0.404,0.733-0.721,1.019c-0.318,0.284-0.713,0.505-1.188,0.661s-1.018,0.234-1.635,0.234h-1.553v3.703h-1.492V4.058
		H51.256z M51.256,9.23c0.379,0,0.711-0.049,0.998-0.146c0.287-0.099,0.527-0.237,0.721-0.417s0.34-0.395,0.438-0.644
		c0.098-0.25,0.146-0.526,0.146-0.83c0-0.611-0.189-1.092-0.57-1.441c-0.381-0.351-0.957-0.525-1.732-0.525h-1.553V9.23H51.256z"/>
	<path fill="#B9519F" d="M61.883,13.095c-0.168,0.195-0.361,0.365-0.582,0.507c-0.219,0.143-0.451,0.258-0.699,0.347
		s-0.504,0.154-0.768,0.196s-0.523,0.062-0.779,0.062c-0.49,0-0.943-0.083-1.361-0.248c-0.418-0.166-0.779-0.408-1.086-0.729
		c-0.305-0.319-0.543-0.716-0.713-1.189c-0.172-0.474-0.256-1.019-0.256-1.635c0-0.494,0.076-0.955,0.23-1.382
		c0.154-0.428,0.375-0.8,0.662-1.117s0.639-0.566,1.053-0.749c0.416-0.182,0.883-0.272,1.4-0.272c0.434,0,0.834,0.071,1.201,0.213
		c0.365,0.143,0.682,0.35,0.947,0.62C61.4,7.989,61.607,8.323,61.76,8.72s0.229,0.85,0.229,1.357c0,0.211-0.023,0.352-0.07,0.424
		s-0.133,0.108-0.26,0.108h-4.662c0.014,0.425,0.074,0.795,0.182,1.109s0.256,0.577,0.445,0.788c0.189,0.21,0.414,0.366,0.676,0.469
		s0.553,0.153,0.875,0.153c0.303,0,0.564-0.034,0.787-0.104c0.221-0.07,0.412-0.146,0.574-0.228c0.16-0.082,0.297-0.157,0.406-0.228
		s0.205-0.104,0.291-0.104c0.111,0,0.197,0.042,0.258,0.126L61.883,13.095z M60.756,9.763c0-0.271-0.039-0.521-0.115-0.749
		c-0.078-0.229-0.191-0.427-0.34-0.595c-0.15-0.168-0.332-0.299-0.547-0.393c-0.215-0.093-0.461-0.14-0.742-0.14
		c-0.574,0-1.025,0.166-1.354,0.497c-0.33,0.331-0.539,0.791-0.627,1.379H60.756z"/>
	<path fill="#B9519F" d="M69.414,3.777v10.332h-0.826c-0.191,0-0.311-0.091-0.357-0.273l-0.119-0.818
		c-0.303,0.359-0.646,0.647-1.033,0.864c-0.385,0.217-0.828,0.325-1.332,0.325c-0.406,0-0.773-0.079-1.104-0.237
		c-0.328-0.159-0.609-0.392-0.844-0.697c-0.232-0.306-0.412-0.685-0.539-1.137c-0.125-0.453-0.188-0.974-0.188-1.562
		c0-0.527,0.068-1.017,0.209-1.47c0.141-0.452,0.344-0.845,0.609-1.176s0.588-0.592,0.967-0.78c0.377-0.189,0.805-0.284,1.279-0.284
		c0.43,0,0.795,0.07,1.096,0.21c0.301,0.141,0.57,0.339,0.809,0.596V3.777H69.414z M68.041,8.72
		c-0.223-0.294-0.465-0.499-0.725-0.616c-0.258-0.116-0.549-0.175-0.871-0.175c-0.625,0-1.109,0.226-1.453,0.676
		c-0.342,0.45-0.514,1.106-0.514,1.97c0,0.453,0.039,0.839,0.115,1.158c0.078,0.32,0.189,0.581,0.336,0.784s0.328,0.353,0.543,0.448
		s0.457,0.144,0.729,0.144c0.396,0,0.738-0.089,1.029-0.266c0.289-0.178,0.559-0.428,0.811-0.749V8.72z"/>
	<path fill="#B9519F" d="M73.012,4.8c0,0.126-0.025,0.246-0.076,0.36c-0.053,0.114-0.121,0.215-0.207,0.301
		c-0.086,0.087-0.188,0.154-0.305,0.203s-0.238,0.073-0.363,0.073c-0.127,0-0.246-0.024-0.357-0.073
		c-0.113-0.049-0.211-0.116-0.299-0.203c-0.086-0.086-0.152-0.187-0.201-0.301c-0.051-0.114-0.074-0.234-0.074-0.36
		c0-0.131,0.023-0.253,0.074-0.368c0.049-0.114,0.115-0.214,0.201-0.301c0.088-0.086,0.186-0.153,0.299-0.203
		c0.111-0.049,0.23-0.073,0.357-0.073c0.125,0,0.246,0.024,0.363,0.073c0.117,0.05,0.219,0.117,0.305,0.203
		c0.086,0.087,0.154,0.187,0.207,0.301C72.986,4.547,73.012,4.669,73.012,4.8z M72.752,6.998v7.111h-1.363V6.998H72.752z"/>
	<path fill="#B9519F" d="M80.691,3.777v10.332h-0.826c-0.191,0-0.311-0.091-0.357-0.273l-0.119-0.818
		c-0.303,0.359-0.646,0.647-1.033,0.864c-0.385,0.217-0.828,0.325-1.332,0.325c-0.406,0-0.773-0.079-1.104-0.237
		c-0.328-0.159-0.609-0.392-0.844-0.697c-0.232-0.306-0.412-0.685-0.539-1.137c-0.125-0.453-0.188-0.974-0.188-1.562
		c0-0.527,0.068-1.017,0.209-1.47c0.141-0.452,0.344-0.845,0.609-1.176s0.588-0.592,0.967-0.78c0.377-0.189,0.805-0.284,1.279-0.284
		c0.43,0,0.795,0.07,1.096,0.21c0.301,0.141,0.57,0.339,0.809,0.596V3.777H80.691z M79.318,8.72
		c-0.223-0.294-0.465-0.499-0.725-0.616c-0.258-0.116-0.549-0.175-0.871-0.175c-0.625,0-1.109,0.226-1.453,0.676
		c-0.342,0.45-0.514,1.106-0.514,1.97c0,0.453,0.039,0.839,0.115,1.158c0.078,0.32,0.189,0.581,0.336,0.784s0.328,0.353,0.543,0.448
		s0.457,0.144,0.729,0.144c0.396,0,0.738-0.089,1.029-0.266c0.289-0.178,0.559-0.428,0.811-0.749V8.72z"/>
	<path fill="#B9519F" d="M85.633,6.886c0.523,0,0.996,0.085,1.418,0.256c0.422,0.17,0.781,0.415,1.078,0.734
		c0.297,0.32,0.523,0.705,0.682,1.155s0.238,0.955,0.238,1.516c0,0.56-0.08,1.066-0.238,1.519c-0.158,0.453-0.385,0.838-0.682,1.155
		s-0.656,0.561-1.078,0.731c-0.422,0.17-0.895,0.255-1.418,0.255c-0.527,0-1.002-0.085-1.424-0.255
		c-0.422-0.171-0.783-0.414-1.082-0.731s-0.529-0.702-0.689-1.155c-0.16-0.452-0.242-0.959-0.242-1.519
		c0-0.561,0.082-1.065,0.242-1.516s0.391-0.835,0.689-1.155c0.299-0.319,0.66-0.564,1.082-0.734
		C84.631,6.971,85.105,6.886,85.633,6.886z M85.633,13.144c0.672,0,1.174-0.227,1.506-0.679c0.33-0.453,0.496-1.09,0.496-1.911
		s-0.166-1.46-0.496-1.915c-0.332-0.454-0.834-0.682-1.506-0.682c-0.682,0-1.189,0.228-1.521,0.682
		c-0.334,0.455-0.502,1.094-0.502,1.915s0.168,1.458,0.502,1.911C84.443,12.917,84.951,13.144,85.633,13.144z"/>
	<path fill="#B9519F" d="M94.762,8.223c-0.039,0.061-0.078,0.104-0.119,0.13C94.6,8.378,94.547,8.391,94.48,8.391
		c-0.074,0-0.156-0.025-0.248-0.077c-0.092-0.051-0.201-0.107-0.328-0.168c-0.129-0.061-0.279-0.116-0.453-0.168
		C93.279,7.927,93.074,7.9,92.836,7.9c-0.195,0-0.375,0.024-0.535,0.073c-0.162,0.05-0.299,0.117-0.41,0.203
		c-0.111,0.087-0.197,0.189-0.258,0.309c-0.062,0.119-0.092,0.246-0.092,0.381c0,0.178,0.053,0.325,0.158,0.441
		c0.104,0.117,0.242,0.217,0.412,0.301s0.363,0.16,0.582,0.228c0.217,0.068,0.438,0.139,0.664,0.214
		c0.227,0.074,0.447,0.16,0.664,0.255c0.219,0.096,0.412,0.215,0.582,0.357s0.309,0.313,0.412,0.514
		c0.105,0.201,0.158,0.446,0.158,0.735c0,0.332-0.059,0.639-0.178,0.921s-0.295,0.526-0.525,0.731s-0.518,0.366-0.857,0.482
		c-0.342,0.117-0.73,0.176-1.17,0.176c-0.49,0-0.941-0.082-1.357-0.245s-0.764-0.371-1.043-0.623l0.322-0.525
		c0.037-0.065,0.084-0.115,0.141-0.15c0.055-0.035,0.129-0.053,0.223-0.053c0.09,0,0.18,0.033,0.273,0.099s0.205,0.137,0.336,0.213
		c0.131,0.077,0.289,0.147,0.477,0.21c0.186,0.063,0.42,0.095,0.699,0.095c0.234,0,0.436-0.029,0.609-0.087
		c0.172-0.059,0.316-0.138,0.43-0.238c0.115-0.101,0.199-0.216,0.256-0.347s0.084-0.269,0.084-0.413
		c0-0.187-0.053-0.342-0.156-0.465c-0.105-0.124-0.244-0.23-0.414-0.318c-0.17-0.09-0.365-0.166-0.584-0.231
		c-0.221-0.065-0.443-0.136-0.672-0.21s-0.453-0.161-0.672-0.26c-0.221-0.098-0.414-0.221-0.586-0.37
		c-0.17-0.149-0.307-0.331-0.412-0.546s-0.158-0.477-0.158-0.784c0-0.275,0.059-0.539,0.172-0.791
		c0.115-0.252,0.279-0.474,0.498-0.665c0.217-0.191,0.484-0.344,0.805-0.459c0.318-0.114,0.684-0.171,1.096-0.171
		c0.471,0,0.896,0.074,1.277,0.224c0.379,0.149,0.705,0.354,0.977,0.616L94.762,8.223z"/>
</g>
</svg>
