<?xml version="1.0" encoding="utf-8"?>
<!-- Generator: Adobe Illustrator 15.0.0, SVG Export Plug-In . SVG Version: 6.00 Build 0)  -->
<!DOCTYPE svg PUBLIC "-//W3C//DTD SVG 1.1//EN" "http://www.w3.org/Graphics/SVG/1.1/DTD/svg11.dtd">
<svg version="1.1" id="Layer_1" xmlns="http://www.w3.org/2000/svg" xmlns:xlink="http://www.w3.org/1999/xlink" x="0px" y="0px"
	 width="32px" height="32px" viewBox="45.5 -1 32 32" enable-background="new 45.5 -1 32 32" xml:space="preserve">
<g>
	<path fill="#B9519F" d="M77.5,26.734C77.5,29.09,75.59,31,73.234,31H49.768c-2.356,0-4.267-1.91-4.267-4.266V3.267
		C45.501,0.911,47.412-1,49.768-1h23.467C75.59-1,77.5,0.911,77.5,3.267V26.734z"/>
	<g>
		<g>
			<path fill="#FFFFFF" d="M57.33,9.328c0,0.241-0.196,0.435-0.437,0.435h-3.489c-0.242,0-0.435-0.194-0.435-0.435V5.835
				c0-0.24,0.196-0.435,0.435-0.435h3.489c0.241,0,0.437,0.196,0.437,0.435V9.328z M70.033,9.328c0,0.241-0.199,0.435-0.438,0.435
				h-10.52c-0.242,0-0.437-0.194-0.437-0.435V5.837c0-0.244,0.197-0.438,0.437-0.438h10.52c0.24,0,0.438,0.194,0.438,0.438V9.328z"
				/>
		</g>
		<g>
			<path fill="#FFFFFF" d="M57.33,16.746c0,0.242-0.196,0.436-0.437,0.436h-3.489c-0.242,0-0.435-0.195-0.435-0.436v-3.495
				c0-0.238,0.196-0.435,0.435-0.435h3.489c0.241,0,0.437,0.196,0.437,0.435V16.746z M70.033,16.746
				c0,0.242-0.199,0.436-0.438,0.436h-10.52c-0.242,0-0.437-0.195-0.437-0.436v-3.492c0-0.244,0.197-0.438,0.437-0.438h10.52
				c0.24,0,0.438,0.196,0.438,0.438V16.746z"/>
		</g>
		<g>
			<path fill="#FFFFFF" d="M57.33,24.166c0,0.24-0.196,0.434-0.437,0.434h-3.489c-0.242,0-0.435-0.195-0.435-0.434v-3.492
				c0-0.24,0.196-0.436,0.435-0.436h3.489c0.241,0,0.437,0.195,0.437,0.436V24.166z M70.033,24.166c0,0.24-0.199,0.434-0.438,0.434
				h-10.52c-0.242,0-0.437-0.195-0.437-0.434v-3.492c0-0.244,0.197-0.436,0.437-0.436h10.52c0.24,0,0.438,0.193,0.438,0.436V24.166z
				"/>
		</g>
	</g>
</g>
</svg>
