<?xml version="1.0" encoding="utf-8"?>
<!-- Generator: Adobe Illustrator 19.0.0, SVG Export Plug-In . SVG Version: 6.00 Build 0)  -->
<svg version="1.1" id="Layer_2" xmlns="http://www.w3.org/2000/svg" xmlns:xlink="http://www.w3.org/1999/xlink" x="0px" y="0px"
	 viewBox="0 0 447 447" style="enable-background:new 0 0 447 447;" xml:space="preserve">
<style type="text/css">
	.st0{stroke:#000000;stroke-miterlimit:10;}
</style>
<path id="XMLID_3_" class="st0" d="M235.4,174.4"/>
<path id="XMLID_1_" class="st0" d="M169,281c-21.2-0.7-65.7,4.8-74.6,40.6s20,25.4,20,25.4l104.4,5.2
	C218.8,352.3,240.7,283.4,169,281z"/>
<path id="XMLID_16_" class="st0" d="M208.8,345.9c-3.6-8.9-2.9-23.5-2-23.2c0,0,0,0,0,0c-10.2-108.3,31.5-233.3,25.4-238.9
	c-6.1-5.6,0,0,0,0c-28.7-25,50.8-99.9,65.4-71.3c29.3-18.7,48.2,88.2,22.3,88c-0.1,0-0.1,0-0.2,0.1C291.3,138.5,303,427.3,303.1,431
	c0,0,0,0,0,0h-175c0,0,0,0,0,0C65,420,64,327,154,302C191.1,291.7,206.9,344.4,208.8,345.9C208.9,345.9,208.9,345.9,208.8,345.9"/>
</svg>
