<?xml version="1.0" encoding="utf-8"?>
<!-- Generator: Adobe Illustrator 19.0.0, SVG Export Plug-In . SVG Version: 6.00 Build 0)  -->
<svg version="1.1" id="Layer_1" xmlns="http://www.w3.org/2000/svg" xmlns:xlink="http://www.w3.org/1999/xlink" x="0px" y="0px"
	 viewBox="0 0 125 125" style="enable-background:new 0 0 125 125;" xml:space="preserve">
<style type="text/css">
	.st0{fill:#FFFFFF;}
	.st1{fill:none;stroke:#FFFFFF;stroke-miterlimit:10;}
</style>
<g>
	<path class="st0" d="M87.1,120.7c-18.2-14.8-21.8-31-10.6-45.1c18.7-23.6,4.2-43.3-4-63.8c-1.4-3.4-12.2-6.7-15.9-4.8
		C45.3,12.9,34,55.1,41.7,65c14,18,17,35-1.9,55.7C57,120.7,70,120.7,87.1,120.7z"/>
	<path d="M87.1,120.7c-17.2,0-30.1,0-47.3,0C58.7,99.9,55.7,82.9,41.7,65C34,55.1,45.3,12.9,56.6,7.1c3.7-1.9,14.5,1.4,15.9,4.8
		c8.2,20.5,22.7,40.2,4,63.8C65.3,89.7,69,105.8,87.1,120.7z"/>
</g>
<path class="st1" d="M55.5,15.2C46.3,27,43.1,43.3,47.3,57.8c-1.8-9.4-1.3-19.1,1.4-28.3c1.5-5.2,3.8-10.2,6-15.1
	c-7.5,12.5-10.5,27.6-8.3,41.9c-1.6-12.3,1.2-25,7.8-35.5"/>
</svg>
