<?xml version="1.0" encoding="utf-8"?>
<!-- Generator: Adobe Illustrator 19.0.0, SVG Export Plug-In . SVG Version: 6.00 Build 0)  -->
<svg version="1.1" id="Layer_1" xmlns="http://www.w3.org/2000/svg" xmlns:xlink="http://www.w3.org/1999/xlink" x="0px" y="0px"
	 viewBox="0 0 125 125" style="enable-background:new 0 0 125 125;" xml:space="preserve">
<style type="text/css">
	.st0{clip-path:url(#SVGID_2_);}
</style>
<g>
	<g>
		<defs>
			
				<rect id="SVGID_1_" x="8.1" y="28.1" transform="matrix(-0.9654 0.2607 -0.2607 -0.9654 153.2299 111.6268)" width="122.3" height="75.8"/>
		</defs>
		<clipPath id="SVGID_2_">
			<use xlink:href="#SVGID_1_"  style="overflow:visible;"/>
		</clipPath>
		<path class="st0" d="M23.9,63.9c1.8-0.5,3.7-1.4,5.8-3c8.1-6.4,14.3-5,14.3-5c0.2,0,0.4,0,0.5,0c2.2,0.8,10.2,3.7,19.2,5.4
			C53,75.6,43.7,90.5,39.9,96.7c-0.7,0-1.3,0-2,0.2c-3.7,1-5.9,4.8-4.9,8.5c1,3.7,4.8,5.9,8.5,4.9c3.6-1,5.7-4.6,4.9-8.2
			c3.2-5.2,12.8-20.6,23.9-35.5c1.9,0.1,3.5-0.7,4.4-2.2c0.3-0.5,0.5-1.1,0.5-1.8c3.5,0.1,6.9-0.2,9.9-1c4-1.1,7.4-3.1,9.6-6.6
			c0.6-0.9,1.1-1.8,1.5-2.6c1.5-0.2,2.9-0.7,4.2-1.4c4.8,0.9,9.7-0.3,13.4-2.3c5.7-3.1,9.2-8,8.7-12.5c-0.2-2.3-1.7-6.4-9-8.6
			c-2.8-0.9-5.5-1-8.3-0.6c-1.1-1.3-2.4-2.5-4-3.3c-3.5-1.8-7.1-1.9-10.1-0.7c-3.2-1.3-5.7-0.7-7.2-0.1C79.6,24.7,76.9,30,77,36
			c0,0,0,0,0,0c-0.2,0.1-0.4,0.3-0.6,0.4c-3.3,2.4-4.2,6-2.4,9.6c0.6,1.3,1.4,2.3,2.5,3.2c-2.4,3.3-4.2,6-5.2,7.7
			c-2.1-0.9-4.3-0.8-5.8,0.4c-7.6-1.3-14.9-3.6-19.3-5.3c-0.1-0.3-0.3-0.5-0.6-0.6c-0.3-0.1-6.3-2-13.7,0.5
			c-0.3-0.2-0.6-0.3-0.9-0.5c-6.4-4.5-18.1-3.1-18.6-3.1c-0.6,0.1-1,0.6-0.9,1.2c0.1,0.6,0.6,1,1.2,0.9c0.1,0,11-1.2,16.8,2.5
			c-1.9,0.9-3.9,2.1-5.9,3.7c-1.6,1.3-3.1,2.2-4.6,2.9c-5.3-0.5-9.8-3.9-9.9-3.9c-0.5-0.3-1.1-0.3-1.5,0.2c-0.3,0.5-0.2,1.1,0.2,1.5
			c0.2,0.1,2.2,1.6,5.1,2.9c-0.1,0-0.1,0.1-0.2,0.1c-0.2,0.2-0.3,0.5-0.3,0.8c-3.8,0-6.3-1.6-6.4-1.7c-0.5-0.3-1.1-0.2-1.5,0.3
			c-0.3,0.5-0.2,1.1,0.3,1.5c0.1,0.1,4,2.7,9.8,1.9C16.5,63.8,19.9,65,23.9,63.9L23.9,63.9z M28.4,59.3c-4.1,3.2-7.8,3.3-10.4,2.7
			c0.3-0.1,0.7-0.2,1-0.4c1.5,0.1,3.1,0,4.6-0.4c1.5-0.4,3.1-1.2,4.6-2.3c2.3-1.8,4.7-2.9,7-3.7c0,0,0,0,0.1,0
			C33.2,56,30.9,57.3,28.4,59.3L28.4,59.3z M94.3,42.7c-0.1,0.1-0.2,0.2-0.3,0.3c-1.3-1.2-2.3-2.5-3.1-3.7c0.2-0.2,0.3-0.3,0.5-0.5
			c0.5,0.3,1,0.6,1.4,0.9C93.6,40.6,94.1,41.6,94.3,42.7L94.3,42.7z M106.7,43.9c1.7-4,2.1-8.9,0.6-13c1.6-0.1,3.3,0.1,4.9,0.6
			c2.6,0.8,5.8,2.3,6,5c0.3,2.7-2.4,6.2-6.5,8.4c-2,1.1-4.3,1.8-6.8,2.1C105.7,46,106.3,45,106.7,43.9L106.7,43.9z M99.3,27.4
			c0.5,0.2,0.9,0.5,1.3,0.8c-0.7,0.3-1.4,0.6-2.1,0.9c-0.6-0.8-1.3-1.7-2.1-2.5c-0.1-0.1-0.2-0.2-0.3-0.3
			C97.1,26.5,98.2,26.8,99.3,27.4L99.3,27.4z M100.2,41c1.1-2.7,1.1-5.5,0.2-8.2c0.9-0.4,1.9-0.8,2.8-1.1c1.3,3.2,1.2,7.3-0.3,10.6
			c-0.5,1.2-1.5,2.9-3.2,4.2c-0.4-0.1-0.9-0.3-1.3-0.5c0.1-0.7,0.2-1.4,0.2-2C99.2,43,99.8,42,100.2,41L100.2,41z M96.7,38
			c-0.4-0.5-0.8-0.9-1.2-1.3c-0.2-0.2-0.5-0.4-0.8-0.6c0.6-0.4,1.2-0.9,1.8-1.3C96.9,35.9,96.9,37,96.7,38L96.7,38z M90,29.1
			c0.3-0.5,0.8-1,1.2-1.4c0.8,0.6,1.6,1.2,2.2,1.9c0.5,0.5,1,1,1.4,1.5c-1.4,0.9-2.8,1.9-4.2,3c-0.6-0.2-1.2-0.3-1.8-0.4
			C88.7,32,89.1,30.4,90,29.1L90,29.1z M85.6,26.7c0.4-0.2,0.8-0.3,1.2-0.3c-0.1,0.2-0.2,0.3-0.3,0.5c-1.2,1.9-1.9,4.2-1.8,6.7
			c-1.2,0.1-2.3,0.3-3.4,0.6C81.6,30.7,83.3,27.7,85.6,26.7L85.6,26.7z M90.7,45.6c-0.8,0.5-1.7,0.9-2.5,1.2c-1.1-0.5-2-1.1-2.8-1.8
			c0.8-0.9,1.6-1.8,2.5-2.7C88.6,43.4,89.6,44.5,90.7,45.6L90.7,45.6z M85.4,37.7c0.1,0.2,0.2,0.5,0.3,0.7c-1.1,1.1-2.1,2.1-3.1,3.2
			c-0.6-1.1-1-2.2-1.2-3.2C82.7,38,84.1,37.8,85.4,37.7L85.4,37.7z M77.8,40.9c0.5,1.5,1.1,2.9,2,4.1c-0.2,0.3-0.5,0.6-0.7,0.9
			c-0.5-0.5-0.9-1-1.3-1.7C77.4,43.3,77,42.1,77.8,40.9L77.8,40.9z M80.2,51.3c1.3,0.4,2.7,0.6,4.3,0.5c1.2,0,2.3-0.2,3.5-0.5
			c1.2,0.5,2.4,0.8,3.5,1c-0.1,0.2-0.2,0.4-0.3,0.5c-2.8,4.4-8.9,5.8-15.9,5.6C76.4,56.7,78.1,54.2,80.2,51.3L80.2,51.3z M24.7,58.1
			c2.3-1.9,4.7-3.1,6.9-4c0,0,0.1,0,0.1,0.1c-1.6,0.7-3.3,1.7-4.9,3c-1,0.8-2.2,1.4-3.3,1.7C24,58.7,24.4,58.4,24.7,58.1L24.7,58.1z
			 M24.7,58.1"/>
	</g>
</g>
</svg>
