<?xml version="1.0" encoding="utf-8"?>
<!-- Generator: Adobe Illustrator 15.0.0, SVG Export Plug-In . SVG Version: 6.00 Build 0)  -->
<!DOCTYPE svg PUBLIC "-//W3C//DTD SVG 1.1//EN" "http://www.w3.org/Graphics/SVG/1.1/DTD/svg11.dtd">
<svg version="1.1" id="Layer_1" xmlns="http://www.w3.org/2000/svg" xmlns:xlink="http://www.w3.org/1999/xlink" x="0px" y="0px"
	 width="74px" height="24px" viewBox="0 0 74 24" enable-background="new 0 0 74 24" xml:space="preserve">
<g id="Layer_2">
</g>
<path fill="#B9519F" d="M73.988,21c0,1.658-1.342,3-3,3H3.012c-1.657,0-3-1.342-3-3V3c0-1.656,1.343-3,3-3h67.976
	c1.658,0,3,1.344,3,3V21z"/>
<g>
	<g>
		<path fill="#FFE600" d="M19.749,10.148c-0.114-0.355-0.423-0.617-0.793-0.67l-4.248-0.617l-1.9-3.85
			c-0.167-0.336-0.508-0.549-0.883-0.549c-0.376,0-0.717,0.213-0.884,0.549l-1.899,3.85L4.894,9.478
			c-0.372,0.053-0.68,0.314-0.795,0.67c-0.116,0.357-0.02,0.75,0.25,1.012l3.074,2.997l-0.725,4.23
			c-0.063,0.369,0.089,0.744,0.392,0.963c0.17,0.127,0.374,0.189,0.578,0.189c0.157,0,0.314-0.037,0.458-0.113l3.8-1.998
			l3.798,1.998c0.145,0.076,0.302,0.113,0.458,0.113c0.205,0,0.409-0.062,0.58-0.189c0.303-0.221,0.456-0.594,0.393-0.963
			l-0.727-4.23l3.073-2.997C19.769,10.898,19.865,10.505,19.749,10.148z"/>
	</g>
</g>
<g id="Layer_3">
	<g>
		<path fill="#FFE600" d="M35.675,6.939v10.124h-0.966c-0.149,0-0.274-0.023-0.375-0.072c-0.1-0.049-0.197-0.133-0.291-0.25
			l-5.285-6.749c0.028,0.309,0.042,0.594,0.042,0.854v6.217h-1.659V6.939h0.987c0.08,0,0.148,0.004,0.207,0.012
			c0.059,0.006,0.11,0.02,0.154,0.041c0.044,0.021,0.087,0.051,0.129,0.092c0.042,0.039,0.088,0.092,0.14,0.156l5.306,6.776
			c-0.014-0.16-0.025-0.322-0.035-0.48c-0.01-0.158-0.014-0.307-0.014-0.441V6.939H35.675z"/>
		<path fill="#FFE600" d="M47.23,12c0,0.743-0.121,1.43-0.367,2.063c-0.244,0.631-0.592,1.178-1.039,1.641
			c-0.448,0.461-0.987,0.822-1.617,1.082c-0.63,0.258-1.33,0.389-2.1,0.389c-0.766,0-1.463-0.131-2.094-0.389
			c-0.63-0.26-1.17-0.621-1.621-1.082c-0.449-0.463-0.799-1.01-1.045-1.641C37.1,13.43,36.977,12.742,36.977,12
			c0-0.742,0.123-1.43,0.371-2.061c0.246-0.633,0.596-1.18,1.045-1.643c0.451-0.461,0.991-0.822,1.621-1.082
			c0.631-0.258,1.328-0.389,2.094-0.389c0.514,0,0.996,0.061,1.449,0.18c0.451,0.119,0.867,0.287,1.246,0.504
			C45.18,7.726,45.52,7.99,45.82,8.3c0.302,0.311,0.557,0.656,0.768,1.039c0.21,0.383,0.37,0.799,0.479,1.246
			C47.178,11.033,47.23,11.505,47.23,12z M45.307,12c0-0.555-0.074-1.053-0.224-1.494c-0.149-0.439-0.36-0.814-0.638-1.123
			c-0.274-0.309-0.609-0.545-1.004-0.707c-0.395-0.164-0.84-0.246-1.334-0.246s-0.938,0.082-1.332,0.246
			c-0.395,0.162-0.73,0.398-1.008,0.707c-0.279,0.309-0.492,0.684-0.642,1.123c-0.149,0.441-0.224,0.939-0.224,1.494
			c0,0.555,0.074,1.053,0.224,1.495s0.362,0.814,0.642,1.121c0.277,0.305,0.613,0.539,1.008,0.703
			c0.395,0.162,0.838,0.244,1.332,0.244s0.939-0.082,1.334-0.244c0.395-0.164,0.729-0.398,1.004-0.703
			c0.275-0.307,0.488-0.68,0.638-1.121S45.307,12.555,45.307,12z"/>
		<path fill="#FFE600" d="M56.884,6.939l-4.088,10.122h-1.7L47.007,6.939h1.513c0.162,0,0.295,0.041,0.398,0.119
			s0.18,0.182,0.23,0.309l2.388,6.172c0.079,0.201,0.155,0.422,0.228,0.662s0.141,0.492,0.207,0.752
			c0.057-0.26,0.116-0.512,0.182-0.752c0.066-0.24,0.139-0.461,0.218-0.662l2.373-6.172c0.036-0.107,0.11-0.205,0.22-0.295
			c0.11-0.088,0.244-0.133,0.402-0.133H56.884z"/>
		<path fill="#FFE600" d="M66.908,12c0,0.743-0.122,1.43-0.367,2.063c-0.245,0.631-0.592,1.178-1.04,1.641
			c-0.448,0.461-0.987,0.822-1.617,1.082c-0.63,0.258-1.329,0.389-2.1,0.389c-0.765,0-1.464-0.131-2.093-0.389
			c-0.631-0.26-1.17-0.621-1.621-1.082c-0.45-0.463-0.799-1.01-1.047-1.641c-0.248-0.633-0.371-1.32-0.371-2.063
			c0-0.742,0.125-1.43,0.371-2.061c0.248-0.633,0.597-1.18,1.047-1.643c0.449-0.461,0.99-0.822,1.621-1.082
			c0.629-0.258,1.328-0.389,2.093-0.389c0.514,0,0.997,0.061,1.448,0.18c0.453,0.119,0.869,0.287,1.246,0.504
			c0.379,0.217,0.717,0.48,1.02,0.791c0.301,0.311,0.557,0.656,0.768,1.039c0.209,0.383,0.369,0.799,0.479,1.246
			S66.908,11.505,66.908,12z M64.982,12c0-0.555-0.074-1.053-0.224-1.494c-0.149-0.439-0.36-0.814-0.637-1.123
			c-0.274-0.309-0.61-0.545-1.005-0.707c-0.395-0.164-0.84-0.246-1.333-0.246c-0.494,0-0.938,0.082-1.333,0.246
			c-0.395,0.162-0.73,0.398-1.008,0.707c-0.278,0.309-0.491,0.684-0.641,1.123c-0.15,0.441-0.225,0.939-0.225,1.494
			c0,0.555,0.074,1.053,0.225,1.495c0.149,0.441,0.362,0.814,0.641,1.121c0.277,0.305,0.613,0.539,1.008,0.703
			c0.395,0.162,0.839,0.244,1.333,0.244c0.493,0,0.938-0.082,1.333-0.244c0.395-0.164,0.729-0.398,1.005-0.703
			c0.274-0.307,0.487-0.68,0.637-1.121C64.909,13.053,64.982,12.555,64.982,12z"/>
	</g>
</g>
<g id="Layer_4">
</g>
</svg>
