<?xml version="1.0" encoding="utf-8"?>
<!-- Generator: Adobe Illustrator 15.0.0, SVG Export Plug-In . SVG Version: 6.00 Build 0)  -->
<!DOCTYPE svg PUBLIC "-//W3C//DTD SVG 1.1//EN" "http://www.w3.org/Graphics/SVG/1.1/DTD/svg11.dtd">
<svg version="1.1" id="Layer_1" xmlns="http://www.w3.org/2000/svg" xmlns:xlink="http://www.w3.org/1999/xlink" x="0px" y="0px"
	 width="123px" height="24px" viewBox="0 0 123 24" enable-background="new 0 0 123 24" xml:space="preserve">
<g opacity="0.8">
	<g>
		<circle fill="#B9519F" cx="12" cy="12" r="12"/>
	</g>
</g>
<g opacity="0.2">
	<g>
		<path fill="#231F20" d="M19.824,10.523c-0.114-0.355-0.423-0.617-0.793-0.671l-4.248-0.617l-1.9-3.849
			C12.716,5.05,12.375,4.837,12,4.837c-0.376,0-0.717,0.213-0.884,0.549L9.217,9.235L4.969,9.852
			c-0.372,0.054-0.68,0.313-0.795,0.671c-0.116,0.357-0.02,0.749,0.25,1.011l3.074,2.996l-0.725,4.232
			c-0.063,0.369,0.089,0.742,0.392,0.961c0.17,0.127,0.374,0.189,0.578,0.189c0.157,0,0.314-0.035,0.458-0.113l3.8-1.998
			l3.798,1.998c0.145,0.078,0.302,0.113,0.458,0.113c0.205,0,0.409-0.062,0.58-0.189c0.303-0.221,0.456-0.592,0.393-0.961
			l-0.727-4.232l3.073-2.996C19.844,11.273,19.94,10.88,19.824,10.523z"/>
	</g>
</g>
<g>
	<g>
		<path fill="#FFE600" d="M19.824,9.773c-0.114-0.355-0.423-0.617-0.793-0.671l-4.248-0.617l-1.9-3.849
			C12.716,4.3,12.375,4.085,12,4.085c-0.376,0-0.717,0.213-0.884,0.551L9.217,8.485L4.969,9.102
			c-0.372,0.054-0.68,0.313-0.795,0.671c-0.116,0.357-0.02,0.749,0.25,1.011l3.074,2.996l-0.725,4.232
			c-0.063,0.369,0.089,0.742,0.392,0.963c0.17,0.125,0.374,0.188,0.578,0.188c0.157,0,0.314-0.037,0.458-0.113l3.8-1.996
			l3.798,1.996c0.145,0.076,0.302,0.113,0.458,0.113c0.205,0,0.409-0.061,0.58-0.188c0.303-0.223,0.456-0.594,0.393-0.963
			l-0.727-4.232l3.073-2.996C19.844,10.523,19.94,10.13,19.824,9.773z"/>
	</g>
</g>
<g id="Layer_2">
</g>
<g>
	<path fill="#A83B8D" d="M33.296,15.729v1.253h-5.754V6.931h1.491v8.799H33.296z"/>
	<path fill="#A83B8D" d="M43.04,16.982h-1.148c-0.13,0-0.238-0.032-0.322-0.098s-0.145-0.149-0.182-0.252l-0.889-2.331h-4.431
		l-0.889,2.331c-0.033,0.088-0.093,0.169-0.182,0.241c-0.088,0.072-0.196,0.108-0.322,0.108h-1.148l4.004-10.052h1.505L43.04,16.982
		z M40.093,13.237l-1.491-3.898c-0.107-0.267-0.214-0.603-0.322-1.009c-0.051,0.201-0.104,0.388-0.158,0.561
		s-0.106,0.326-0.157,0.462l-1.484,3.885H40.093z"/>
	<path fill="#A83B8D" d="M52.525,6.931v10.052h-0.756c-0.117,0-0.213-0.021-0.291-0.063c-0.077-0.042-0.155-0.109-0.234-0.202
		l-5.677-7.344c0.009,0.126,0.017,0.25,0.024,0.371c0.007,0.122,0.01,0.236,0.01,0.344v6.895h-1.309V6.931h0.77
		c0.131,0,0.229,0.015,0.294,0.045c0.065,0.03,0.137,0.1,0.217,0.207l5.691,7.35c-0.014-0.135-0.024-0.267-0.031-0.396
		c-0.007-0.128-0.011-0.248-0.011-0.36V6.931H52.525z"/>
	<path fill="#A83B8D" d="M62.836,15.568c-0.379,0.443-0.832,0.797-1.361,1.061c-0.53,0.264-1.159,0.417-1.887,0.459l-0.112,0.392
		c0.434,0.093,0.746,0.223,0.935,0.389c0.189,0.165,0.283,0.374,0.283,0.626c0,0.154-0.039,0.292-0.115,0.413
		c-0.077,0.121-0.185,0.225-0.322,0.309s-0.303,0.148-0.497,0.195c-0.193,0.047-0.405,0.07-0.633,0.07
		c-0.191,0-0.372-0.018-0.542-0.053s-0.33-0.085-0.479-0.15l0.126-0.427c0.028-0.089,0.086-0.133,0.175-0.133
		c0.028,0,0.061,0.008,0.098,0.024c0.038,0.016,0.081,0.032,0.129,0.049c0.049,0.017,0.109,0.032,0.179,0.049
		s0.151,0.024,0.245,0.024c0.182,0,0.321-0.037,0.417-0.111c0.095-0.075,0.144-0.169,0.144-0.28c0-0.168-0.095-0.286-0.284-0.354
		c-0.189-0.068-0.463-0.125-0.823-0.172l0.287-0.868c-0.667-0.046-1.271-0.205-1.813-0.476s-1.003-0.63-1.386-1.078
		c-0.383-0.448-0.678-0.974-0.886-1.578s-0.312-1.269-0.312-1.992c0-0.756,0.12-1.448,0.361-2.079
		c0.24-0.63,0.577-1.171,1.011-1.623c0.434-0.453,0.953-0.806,1.558-1.058c0.604-0.252,1.273-0.378,2.005-0.378
		c0.714,0,1.349,0.117,1.904,0.35c0.555,0.233,1.037,0.544,1.449,0.932l-0.49,0.692c-0.033,0.052-0.074,0.094-0.123,0.126
		c-0.049,0.033-0.113,0.05-0.191,0.05c-0.09,0-0.193-0.045-0.312-0.134c-0.119-0.088-0.275-0.188-0.469-0.297
		c-0.194-0.109-0.433-0.209-0.717-0.298c-0.285-0.089-0.64-0.133-1.064-0.133c-0.499,0-0.957,0.088-1.372,0.263
		c-0.416,0.175-0.774,0.427-1.075,0.756s-0.534,0.732-0.7,1.211c-0.166,0.479-0.249,1.019-0.249,1.62
		c0,0.611,0.086,1.155,0.259,1.632c0.172,0.476,0.411,0.879,0.714,1.211c0.303,0.331,0.66,0.583,1.071,0.756
		c0.41,0.173,0.854,0.259,1.33,0.259c0.29,0,0.55-0.018,0.781-0.053s0.443-0.087,0.637-0.157c0.194-0.07,0.377-0.16,0.55-0.27
		c0.172-0.109,0.343-0.241,0.511-0.396c0.037-0.032,0.076-0.06,0.119-0.08c0.041-0.021,0.086-0.032,0.133-0.032
		c0.084,0,0.156,0.033,0.217,0.099L62.836,15.568z"/>
	<path fill="#A83B8D" d="M72.629,16.982H71.48c-0.131,0-0.238-0.032-0.322-0.098s-0.145-0.149-0.182-0.252l-0.889-2.331h-4.432
		l-0.889,2.331c-0.033,0.088-0.094,0.169-0.182,0.241c-0.089,0.072-0.196,0.108-0.322,0.108h-1.148l4.004-10.052h1.506
		L72.629,16.982z M69.682,13.237L68.19,9.339c-0.107-0.267-0.215-0.603-0.322-1.009c-0.051,0.201-0.104,0.388-0.157,0.561
		s-0.106,0.326-0.157,0.462l-1.484,3.885H69.682z"/>
	<path fill="#A83B8D" d="M84.451,6.931v10.052h-1.302V9.828c0-0.107,0.004-0.222,0.011-0.343s0.015-0.245,0.024-0.371l-3.346,6.14
		c-0.117,0.229-0.297,0.343-0.539,0.343h-0.21c-0.243,0-0.42-0.114-0.532-0.343l-3.409-6.16C75.177,9.354,75.19,9.6,75.19,9.828
		v7.154h-1.309V6.931h1.105c0.131,0,0.232,0.013,0.305,0.038s0.142,0.097,0.207,0.214l3.359,6.02
		c0.065,0.122,0.126,0.25,0.183,0.386c0.056,0.135,0.109,0.271,0.16,0.405c0.099-0.275,0.213-0.541,0.344-0.798l3.297-6.013
		c0.061-0.117,0.127-0.188,0.199-0.214s0.174-0.038,0.305-0.038H84.451z"/>
	<path fill="#A83B8D" d="M93.173,15.771l-0.007,1.211h-6.229V6.931h6.229v1.211h-4.731v3.185h3.808v1.169h-3.808v3.276H93.173z"/>
	<path fill="#A83B8D" d="M103.246,6.931v10.052h-0.756c-0.116,0-0.213-0.021-0.29-0.063s-0.155-0.109-0.234-0.202l-5.678-7.344
		c0.01,0.126,0.018,0.25,0.024,0.371c0.008,0.122,0.011,0.236,0.011,0.344v6.895h-1.309V6.931h0.77c0.131,0,0.229,0.015,0.294,0.045
		s0.138,0.1,0.217,0.207l5.691,7.35c-0.014-0.135-0.024-0.267-0.031-0.396c-0.007-0.128-0.011-0.248-0.011-0.36V6.931H103.246z"/>
	<path fill="#A83B8D" d="M112.584,8.177h-3.191v8.806h-1.484V8.177h-3.206V6.931h7.882V8.177z"/>
	<path fill="#A83B8D" d="M122.979,11.956c0,0.752-0.121,1.441-0.361,2.069c-0.24,0.627-0.579,1.169-1.019,1.623
		c-0.438,0.455-0.963,0.809-1.574,1.061s-1.291,0.379-2.037,0.379c-0.742,0-1.42-0.127-2.034-0.379
		c-0.613-0.252-1.139-0.605-1.574-1.061c-0.437-0.454-0.776-0.996-1.019-1.623c-0.243-0.628-0.364-1.317-0.364-2.069
		c0-0.746,0.121-1.435,0.364-2.064c0.242-0.63,0.582-1.173,1.019-1.628c0.436-0.455,0.961-0.81,1.574-1.063
		c0.614-0.255,1.292-0.382,2.034-0.382c0.746,0,1.426,0.127,2.037,0.382c0.611,0.254,1.136,0.608,1.574,1.063
		c0.439,0.455,0.778,0.998,1.019,1.628S122.979,11.21,122.979,11.956z M121.453,11.956c0-0.597-0.082-1.134-0.245-1.609
		c-0.163-0.477-0.396-0.88-0.696-1.211c-0.301-0.332-0.665-0.586-1.092-0.764c-0.428-0.177-0.904-0.266-1.432-0.266
		s-1.005,0.089-1.432,0.266c-0.427,0.178-0.792,0.432-1.096,0.764c-0.304,0.331-0.536,0.734-0.7,1.211
		c-0.163,0.476-0.245,1.013-0.245,1.609c0,0.603,0.082,1.141,0.245,1.614c0.164,0.474,0.396,0.876,0.7,1.207s0.669,0.585,1.096,0.76
		s0.904,0.263,1.432,0.263s1.004-0.088,1.432-0.263c0.427-0.175,0.791-0.429,1.092-0.76s0.533-0.733,0.696-1.207
		S121.453,12.559,121.453,11.956z"/>
</g>
</svg>
