<?xml version="1.0" encoding="utf-8"?>
<!-- Generator: Adobe Illustrator 15.0.0, SVG Export Plug-In . SVG Version: 6.00 Build 0)  -->
<!DOCTYPE svg PUBLIC "-//W3C//DTD SVG 1.1//EN" "http://www.w3.org/Graphics/SVG/1.1/DTD/svg11.dtd">
<svg version="1.1" id="Capa_1" xmlns="http://www.w3.org/2000/svg" xmlns:xlink="http://www.w3.org/1999/xlink" x="0px" y="0px"
	 width="595.279px" height="381.352px" viewBox="0 230.27 595.279 381.352" enable-background="new 0 230.27 595.279 381.352"
	 xml:space="preserve">
<g>
	<path d="M130.218,537.211c-5.137,0-9.302,4.164-9.302,9.301c0,5.129-4.173,9.302-9.301,9.302c-5.129,0-9.302-4.173-9.302-9.302
		c0-5.128,4.173-9.301,9.302-9.301c5.136,0,9.301-4.165,9.301-9.302s-4.165-9.301-9.301-9.301
		c-15.387,0-27.904,12.519-27.904,27.903c0,15.386,12.518,27.904,27.904,27.904c15.386,0,27.903-12.519,27.903-27.904
		C139.519,541.375,135.354,537.211,130.218,537.211z"/>
	<path d="M502.268,537.211c-5.137,0-9.302,4.164-9.302,9.301c0,5.129-4.173,9.302-9.301,9.302c-5.129,0-9.302-4.173-9.302-9.302
		c0-5.128,4.173-9.301,9.302-9.301c5.137,0,9.301-4.165,9.301-9.302s-4.164-9.301-9.301-9.301
		c-15.387,0-27.904,12.519-27.904,27.903c0,15.386,12.518,27.904,27.904,27.904s27.903-12.519,27.903-27.904
		C511.569,541.375,507.405,537.211,502.268,537.211z"/>
	<path d="M595.28,416.294c0-2.594-1.063-4.938-2.776-6.625c-3.977-10.993-12.035-20.223-22.931-25.671
		c-0.291-0.145-0.587-0.274-0.892-0.388l-30.739-11.54l-18.727-71.148c-0.026-0.103-0.054-0.205-0.086-0.306
		c-5.945-19.822-23.847-33.141-44.543-33.141h-65.331v-18.603c0-10.257-8.346-18.603-18.603-18.603H18.603
		C8.346,230.27,0,238.615,0,248.872v260.435c0,10.257,8.346,18.603,18.603,18.603h30.625c-0.457,1.531-0.858,3.086-1.204,4.661
		h-0.021c-0.143,0.654-0.254,1.319-0.377,1.98c-0.025,0.135-0.053,0.269-0.077,0.404c-0.121,0.674-0.23,1.351-0.331,2.031
		c-0.011,0.075-0.026,0.149-0.037,0.225v0.046c-0.431,3.025-0.675,6.11-0.675,9.255c0,7.041,1.117,13.82,3.185,20.171h0.038
		c8.51,26.056,33.026,44.938,61.887,44.938c32.741,0,59.905-24.298,64.433-55.808h19.278c0,15.385,12.517,27.903,27.903,27.903
		h55.808c15.387,0,27.904-12.519,27.904-27.903h112.29c4.528,31.51,31.691,55.808,64.434,55.808
		c28.862,0,53.381-18.886,61.889-44.945h0.033c2.067-6.351,3.185-13.13,3.185-20.171c0-3.142-0.244-6.224-0.674-9.246v-0.048
		c-0.012-0.079-0.026-0.156-0.038-0.235c-0.1-0.679-0.21-1.353-0.33-2.024c-0.023-0.13-0.05-0.259-0.074-0.389
		c-0.123-0.667-0.236-1.339-0.38-1.999h-0.021c-0.346-1.573-0.747-3.125-1.203-4.654h30.627c10.257,0,18.602-8.346,18.602-18.603
		v-83.711c0-2.186-0.152-4.342-0.445-6.462C595.122,418.238,595.28,417.285,595.28,416.294z M409.255,286.077h65.331
		c12.368,0,23.074,7.928,26.684,19.744l16.836,63.967H409.255V286.077z M409.255,388.391h119.229l33.172,12.452
		c3.055,1.589,5.718,3.687,7.928,6.15H409.255V388.391z M111.615,593.019c-25.644,0-46.507-20.863-46.507-46.507
		s20.863-46.506,46.507-46.506s46.506,20.862,46.506,46.506S137.259,593.019,111.615,593.019z M195.326,537.211h-19.278
		c-0.457-3.18-1.146-6.285-2.047-9.302h22.925C195.894,530.82,195.326,533.951,195.326,537.211z M288.339,555.813
		c0,5.128-4.173,9.301-9.302,9.301H223.23c-5.128,0-9.301-4.173-9.301-9.301v-9.279c0-0.008,0.001-0.016,0.001-0.022
		s-0.001-0.015-0.001-0.021v-9.279c0-5.129,4.173-9.302,9.301-9.302h55.808c5.129,0,9.302,4.173,9.302,9.302V555.813z
		 M279.037,509.307H223.23h-55.805c-0.769,0-1.512,0.104-2.227,0.279c-11.757-17.01-31.386-28.183-53.583-28.183
		c-22.198,0-41.826,11.173-53.584,28.183c-0.714-0.176-1.455-0.279-2.223-0.279H18.603v-46.506h288.343
		c5.137,0,9.302-4.165,9.302-9.302c0-5.136-4.165-9.301-9.302-9.301H18.603V248.872h372.05v260.435H279.037z M419.231,537.211
		H306.942c0-3.26-0.568-6.391-1.601-9.302h94.612h21.324C420.377,530.926,419.688,534.031,419.231,537.211z M483.665,593.019
		c-25.644,0-46.507-20.863-46.507-46.507s20.863-46.506,46.507-46.506s46.506,20.862,46.506,46.506S509.309,593.019,483.665,593.019
		z M576.679,444.198h-9.302c-10.257,0-18.603,8.346-18.603,18.603v9.301c0,10.258,8.346,18.603,18.603,18.603h9.302v18.603h-37.206
		c-0.768,0-1.511,0.104-2.225,0.279c-11.758-17.01-31.386-28.183-53.583-28.183c-22.198,0-41.826,11.173-53.584,28.183
		c-0.714-0.176-1.455-0.279-2.223-0.279h-18.603v-83.711h167.423V444.198z M576.678,462.801v9.301h-9.302v-9.301H576.678z"/>
	<path d="M232.531,537.211c-2.453,0-4.849,0.998-6.581,2.721c-1.732,1.732-2.721,4.139-2.721,6.58c0,2.452,0.988,4.849,2.721,6.581
		c1.732,1.731,4.128,2.721,6.581,2.721s4.848-0.989,6.58-2.721c1.732-1.732,2.721-4.141,2.721-6.581c0-2.442-0.988-4.848-2.721-6.58
		C237.379,538.209,234.985,537.211,232.531,537.211z"/>
	<path d="M362.748,444.198h-18.598c-5.137,0-9.301,4.165-9.301,9.301c0,5.137,4.163,9.302,9.301,9.302h18.598
		c5.137,0,9.302-4.165,9.302-9.302C372.05,448.363,367.885,444.198,362.748,444.198z"/>
</g>
</svg>
