<?xml version="1.0" encoding="utf-8"?>
<!-- Generator: Adobe Illustrator 19.0.0, SVG Export Plug-In . SVG Version: 6.00 Build 0)  -->
<svg version="1.1" id="Layer_1" xmlns="http://www.w3.org/2000/svg" xmlns:xlink="http://www.w3.org/1999/xlink" x="0px" y="0px"
	 viewBox="0 0 125 125" style="enable-background:new 0 0 125 125;" xml:space="preserve">
<style type="text/css">
	.st0{fill:none;stroke:#000000;stroke-miterlimit:10;}
</style>
<path d="M117.6,31.5l-71.9,71.9c-5.9,5.9-15.6,5.9-21.5,0l0,0c-5.9-5.9-5.9-15.6,0-21.5L96.1,10c5.9-5.9,15.6-5.9,21.5,0l0,0
	C123.5,15.9,123.5,25.6,117.6,31.5z"/>
<path d="M27.7,117.5l-4.2,4.2c-1.5,1.5-3.9,1.5-5.3,0L4.1,107.6c-1.5-1.5-1.5-3.9,0-5.3L8.3,98c1.5-1.5,3.9-1.5,5.3,0l14.1,14.1
	C29.2,113.6,29.2,116,27.7,117.5z"/>
<path class="st0" d="M59.4,32.1c1.7,0.7,3.7-0.3,4.7-1.8c1-1.5,1.3-3.4,1.7-5.1c0.1-0.5,0.3-1,0.7-1.3c0.7-0.4,1.6,0.1,2.4,0.1
	c1.6,0,2.4-1.8,2.8-3.3c0.4-1.5,1-3.3,2.5-3.7c1-0.2,2.2,0.3,3.1-0.3c1.2-0.8,0.8-2.9,2-3.7c0.9-0.6,2-0.1,3-0.3
	c2.3-0.7,1.9-4.7,4.1-5.7c0.5-0.3,1.1-0.3,1.7-0.4c1.6-0.3,3-1.6,3.5-3.1"/>
<path class="st0" d="M59.1,25.6c1.6-0.3,2.6-2,3.2-3.5c0.6-1.5,1.2-3.2,2.6-4c1.3-0.8,3.2-0.6,4.3-1.7c1.2-1.2,0.8-3.6,2.2-4.5
	c0.8-0.6,2-0.4,3-0.9c1.3-0.6,1.8-2.2,2.7-3.4c2-2.4,6-2.6,7.4-5.4"/>
<path class="st0" d="M43.2,115.6c-0.2-0.3,0.1-0.8,0.4-0.9c0.4-0.1,0.8-0.1,1.2-0.1c2,0.1,4-1.4,4.5-3.4c0.4-1.6,0.1-3.9,1.7-4.5
	c1.3-0.5,3,0.8,4.2,0c1.6-1,0.2-3.9,1.6-5.2c1.1-1,3.1-0.1,4.1-1.2c1.1-1.2-0.2-3.4,0.9-4.6c1.2-1.3,3.6,0.2,5.1-0.7
	c1.5-0.9,1.1-3.4,2.4-4.6"/>
<path class="st0" d="M48.9,120.5c-0.2-0.4,0-1,0.4-1.2c0.4-0.2,0.9-0.3,1.4-0.3c2.1-0.3,4-1.8,4.9-3.8c0.4-0.9,0.5-1.8,1-2.7
	c0.4-0.9,1.1-1.6,2.1-1.8c0.5-0.1,1.1,0.1,1.6,0c1.4-0.2,2.1-1.9,2.4-3.3s0.8-3.1,2.2-3.5c0.4-0.1,0.9-0.1,1.3-0.3
	c0.5-0.2,0.8-0.5,1.1-0.9c1.4-1.5,2.8-3,4.2-4.6"/>
</svg>
